<svg xmlns="http://www.w3.org/2000/svg" viewBox="0 0 446.18 78.85"><defs><style>.cls-1{fill:#fa9597;}.cls-2,.cls-3{fill:#534d72;}.cls-2,.cls-4{stroke:#534d72;stroke-miterlimit:10;}.cls-2{stroke-width:1.68px;}.cls-4{fill:none;stroke-width:3.36px;}</style></defs><title>Asset 56</title><g id="Layer_2" data-name="Layer 2"><g id="Layer_1-2" data-name="Layer 1"><rect class="cls-1" x="320.99" y="20.56" width="38.07" height="30.37" rx="9.09" ry="9.09"/><rect class="cls-2" x="277.19" y="20.12" width="24.18" height="2.65" rx="1.32" ry="1.32" transform="translate(72.06 213.7) rotate(-45.75)"/><rect class="cls-2" x="287.27" y="23.11" width="14.46" height="2.65" rx="1.32" ry="1.32" transform="translate(71.52 218.36) rotate(-45.76)"/><rect class="cls-2" x="295.94" y="51.53" width="26.67" height="2.65" rx="1.32" ry="1.32"/><path class="cls-2" d="M341.53,43.76H277a4.41,4.41,0,0,1-4.4-4.4V9.51a4.41,4.41,0,0,1,4.4-4.4h64.52a4.42,4.42,0,0,1,4.41,4.4V39.36A4.41,4.41,0,0,1,341.53,43.76ZM277,7.76a1.75,1.75,0,0,0-1.75,1.75V39.36A1.76,1.76,0,0,0,277,41.12h64.52a1.76,1.76,0,0,0,1.76-1.76V9.51a1.75,1.75,0,0,0-1.76-1.75Z"/><rect class="cls-2" x="307.95" y="42.44" width="2.65" height="10.41"/><path class="cls-2" d="M339.17,72.53a5,5,0,0,1-5-5V63.09a5,5,0,1,1,10,0v4.45A5,5,0,0,1,339.17,72.53Zm0-11.78a2.35,2.35,0,0,0-2.35,2.34v4.45a2.35,2.35,0,0,0,4.69,0V63.09A2.34,2.34,0,0,0,339.17,60.75Z"/><path class="cls-2" d="M321.54,73.3H297a3.84,3.84,0,0,1-3.84-3.84V62.72A3.84,3.84,0,0,1,297,58.88h24.53a3.85,3.85,0,0,1,3.84,3.84v6.74A3.85,3.85,0,0,1,321.54,73.3ZM297,61.53a1.19,1.19,0,0,0-1.19,1.19v6.74a1.19,1.19,0,0,0,1.19,1.2h24.53a1.2,1.2,0,0,0,1.19-1.2V62.72a1.19,1.19,0,0,0-1.19-1.19Z"/><rect class="cls-1" x="204.78" width="6.35" height="41.12" rx="3.17" ry="3.17"/><path class="cls-2" d="M208.32,11.2h-7.08V7.14a1.84,1.84,0,0,1,1.84-1.84h3.4a1.84,1.84,0,0,1,1.84,1.84Zm-5.57-1.51h4.06v-1A1.84,1.84,0,0,0,205,6.81h-.38a1.84,1.84,0,0,0-1.84,1.84Z"/><path class="cls-2" d="M208.32,51.71h-7.08v-42h7.08Zm-5.57-1.5h4.06v-39h-4.06Z"/><polygon class="cls-2" points="204.78 60.22 201.31 52.86 202.68 52.22 204.78 56.68 206.88 52.22 208.25 52.86 204.78 60.22"/><polygon class="cls-2" points="208.72 73.12 188.07 51.24 201.49 39.06 202.5 40.18 190.22 51.32 208.79 70.99 233.83 47.72 215.27 28.04 208.08 34.86 207.05 33.76 215.33 25.91 235.97 47.79 208.72 73.12"/><rect class="cls-3" x="208" y="57.26" width="1.51" height="10.43" rx="0.75" ry="0.75" transform="translate(16.97 165.9) rotate(-45)"/><rect class="cls-3" x="204.03" y="14.83" width="1.51" height="30.98" rx="0.75" ry="0.75"/><rect class="cls-1" x="22.99" y="65.32" width="12.63" height="13.53" rx="3.23" ry="3.23"/><circle class="cls-4" cx="24.37" cy="27.96" r="22.69"/><ellipse class="cls-4" cx="24.37" cy="27.96" rx="17.77" ry="22.69"/><ellipse class="cls-4" cx="24.37" cy="27.96" rx="9.89" ry="22.69"/><path class="cls-4" d="M7.77,43.43l10.47,17.7V70a3.15,3.15,0,0,0,3.16,3.16h5.84A3.16,3.16,0,0,0,30.4,70v-8.3l9.71-17.38"/><line class="cls-4" x1="18.24" y1="61.13" x2="30.4" y2="61.13"/><line class="cls-4" x1="21.28" y1="50.49" x2="21.28" y2="61.13"/><line class="cls-4" x1="27.22" y1="50.49" x2="27.22" y2="61.13"/><rect class="cls-1" x="109.7" y="35.03" width="27.74" height="25.19" rx="8.4" ry="8.4"/><path class="cls-4" d="M91.55,31.54h42a0,0,0,0,1,0,0V62.69A10.89,10.89,0,0,1,122.7,73.58H102.44A10.89,10.89,0,0,1,91.55,62.69V31.54a0,0,0,0,1,0,0Z"/><rect class="cls-4" x="87.81" y="11.54" width="49.31" height="19.99" rx="10" ry="10"/><path class="cls-4" d="M91.55,45.33H88.76a2.53,2.53,0,0,0-2.53,2.53V64.24a2.53,2.53,0,0,0,2.53,2.53h2.79"/><path class="cls-4" d="M133.67,45.33h2.79A2.53,2.53,0,0,1,139,47.86V64.24a2.53,2.53,0,0,1-2.53,2.53h-2.79"/><path class="cls-4" d="M123.57,4.84h0a5.79,5.79,0,0,1,5.79,5.79v.92a0,0,0,0,1,0,0H117.79a0,0,0,0,1,0,0v-.92A5.79,5.79,0,0,1,123.57,4.84Z"/><path class="cls-4" d="M100.43,6.81h2.37a4.73,4.73,0,0,1,4.73,4.73v0a0,0,0,0,1,0,0H95.7a0,0,0,0,1,0,0v0a4.73,4.73,0,0,1,4.73-4.73Z"/><rect class="cls-4" x="99.91" y="44.02" width="25.51" height="24.19" rx="9.38" ry="9.38"/><line class="cls-4" x1="99.91" y1="53.35" x2="125.41" y2="53.35"/><rect class="cls-1" x="415.44" y="44.8" width="21.65" height="31.9" rx="8.09" ry="8.09"/><path class="cls-4" d="M396.12,28.24h34.56a0,0,0,0,1,0,0v36a5,5,0,0,1-5,5H401.16a5,5,0,0,1-5-5v-36A0,0,0,0,1,396.12,28.24Z"/><path class="cls-4" d="M430.68,38.58h9.26a4.56,4.56,0,0,1,4.56,4.56V54.08a4.56,4.56,0,0,1-4.56,4.56h-9.26"/><path class="cls-3" d="M408.05,21.79h-5.84c-6.73-5.05,6.72-7.58,0-12.62h5.84C414.79,14.21,401.31,16.74,408.05,21.79Z"/><path class="cls-3" d="M422.74,21.79H416.9c-6.73-5.05,6.72-7.58,0-12.62h5.84C429.48,14.21,416,16.74,422.74,21.79Z"/><line class="cls-4" x1="405.13" y1="38.5" x2="405.13" y2="61.38"/></g></g></svg>