<svg xmlns="http://www.w3.org/2000/svg" viewBox="0 0 473 372.01"><defs><style>.cls-1{fill:#fff;}.cls-2{fill:#9ce1fd;}.cls-3{fill:#6dfebf;}.cls-4{fill:#fa9597;}.cls-5{fill:#534d72;}</style></defs><title>Asset 7</title><g id="Layer_2" data-name="Layer 2"><g id="Layer_8" data-name="Layer 8"><rect class="cls-1" width="473" height="372"/><path class="cls-2" d="M27,10.06H17.87V4.67H42.75v5.39H33.61V33.22H27Z"/><path class="cls-2" d="M66.79,13.4q2.5,2.44,2.51,7.26V33.22H62.93V21.64a5.75,5.75,0,0,0-1.14-3.9,4.2,4.2,0,0,0-3.3-1.28A5.05,5.05,0,0,0,54.66,18a6.12,6.12,0,0,0-1.43,4.42V33.22H46.87V3h6.36v10.6a8.45,8.45,0,0,1,3.06-1.93A11,11,0,0,1,60.2,11,9,9,0,0,1,66.79,13.4Z"/><path class="cls-2" d="M97.68,24H81.08a5.21,5.21,0,0,0,2.12,3.23,7.09,7.09,0,0,0,4.16,1.18,8.46,8.46,0,0,0,3-.51,7.56,7.56,0,0,0,2.47-1.61L96.25,30q-3.1,3.54-9,3.55a14.38,14.38,0,0,1-6.57-1.45,10.66,10.66,0,0,1-4.4-4,11,11,0,0,1-1.55-5.83,11.21,11.21,0,0,1,1.53-5.81,10.74,10.74,0,0,1,4.2-4,13,13,0,0,1,11.8-.06,10.07,10.07,0,0,1,4.1,4,11.85,11.85,0,0,1,1.49,6Q97.8,22.45,97.68,24ZM82.79,17A5.19,5.19,0,0,0,81,20.33H91.81A5.28,5.28,0,0,0,90,17a5.35,5.35,0,0,0-3.59-1.24A5.46,5.46,0,0,0,82.79,17Z"/><path class="cls-2" d="M121.84,31.81a14.19,14.19,0,0,1-5.55-5.26,14.53,14.53,0,0,1-2-7.6,14.54,14.54,0,0,1,2-7.61,14.19,14.19,0,0,1,5.55-5.26,17.65,17.65,0,0,1,14.64-.59,13.45,13.45,0,0,1,5,3.75l-4.24,3.92a9.15,9.15,0,0,0-7.18-3.35A9.55,9.55,0,0,0,125.37,11a8.32,8.32,0,0,0-3.25,3.25A9.55,9.55,0,0,0,121,19a9.61,9.61,0,0,0,1.16,4.73,8.37,8.37,0,0,0,3.25,3.24,9.55,9.55,0,0,0,4.73,1.16,9.12,9.12,0,0,0,7.18-3.38l4.24,3.91a13.23,13.23,0,0,1-5.06,3.79,16.8,16.8,0,0,1-6.73,1.31A16.32,16.32,0,0,1,121.84,31.81Z"/><path class="cls-2" d="M150,32.1a10.76,10.76,0,0,1-4.3-4,11,11,0,0,1-1.55-5.83,11,11,0,0,1,1.55-5.83,10.76,10.76,0,0,1,4.3-4,14,14,0,0,1,12.42,0,10.91,10.91,0,0,1,4.28,4,11.1,11.1,0,0,1,1.55,5.83,11.1,11.1,0,0,1-1.55,5.83,10.91,10.91,0,0,1-4.28,4,14,14,0,0,1-12.42,0Zm10.23-5.43a6.13,6.13,0,0,0,1.57-4.42,6.13,6.13,0,0,0-1.57-4.42,5.25,5.25,0,0,0-4-1.66,5.35,5.35,0,0,0-4,1.66,6.1,6.1,0,0,0-1.59,4.42,6.1,6.1,0,0,0,1.59,4.42,5.35,5.35,0,0,0,4,1.66A5.25,5.25,0,0,0,160.21,26.67Z"/><path class="cls-2" d="M173.49,3h6.36V33.22h-6.36Z"/><path class="cls-2" d="M186.78,3h6.36V33.22h-6.36Z"/><path class="cls-2" d="M221.44,24H204.85A5.17,5.17,0,0,0,207,27.27a7.07,7.07,0,0,0,4.16,1.18,8.46,8.46,0,0,0,3-.51,7.42,7.42,0,0,0,2.46-1.61L220,30q-3.11,3.54-9.06,3.55a14.37,14.37,0,0,1-6.56-1.45,10.75,10.75,0,0,1-4.41-4,11.1,11.1,0,0,1-1.55-5.83A11.21,11.21,0,0,1,200,16.44a10.74,10.74,0,0,1,4.2-4,12.42,12.42,0,0,1,6-1.45A12.27,12.27,0,0,1,216,12.34a10.07,10.07,0,0,1,4.1,4,11.85,11.85,0,0,1,1.49,6C221.57,22.41,221.53,23,221.44,24Zm-14.88-7a5.15,5.15,0,0,0-1.79,3.34h10.8A5.27,5.27,0,0,0,213.78,17a5.37,5.37,0,0,0-3.59-1.24A5.46,5.46,0,0,0,206.56,17Z"/><path class="cls-2" d="M249.46,11.28V29.55q0,6-3.14,9t-9.17,2.94a22.77,22.77,0,0,1-6-.78,13.08,13.08,0,0,1-4.73-2.24l2.53-4.57a10.37,10.37,0,0,0,3.51,1.82,13.85,13.85,0,0,0,4.24.67,6.89,6.89,0,0,0,4.87-1.49,5.9,5.9,0,0,0,1.57-4.5v-.94a8.91,8.91,0,0,1-6.93,2.73,11.56,11.56,0,0,1-5.53-1.33,10,10,0,0,1-4-3.73,10.4,10.4,0,0,1-1.47-5.54A10.44,10.44,0,0,1,226.67,16a10,10,0,0,1,4-3.73A11.68,11.68,0,0,1,236.17,11a8.69,8.69,0,0,1,7.25,3.14V11.28Zm-7.89,14.17a5.06,5.06,0,0,0,1.61-3.89,5.08,5.08,0,0,0-1.61-3.9,5.86,5.86,0,0,0-4.14-1.49,5.94,5.94,0,0,0-4.16,1.49,5,5,0,0,0-1.63,3.9,5,5,0,0,0,1.63,3.89,5.94,5.94,0,0,0,4.16,1.49A5.86,5.86,0,0,0,241.57,25.45Z"/><path class="cls-2" d="M277.76,24h-16.6a5.19,5.19,0,0,0,2.13,3.23,7.06,7.06,0,0,0,4.15,1.18,8.38,8.38,0,0,0,3-.51A7.36,7.36,0,0,0,273,26.33L276.33,30q-3.09,3.54-9.05,3.55a14.37,14.37,0,0,1-6.56-1.45,10.62,10.62,0,0,1-4.41-4,11.1,11.1,0,0,1-1.55-5.83,11.21,11.21,0,0,1,1.53-5.81,10.74,10.74,0,0,1,4.2-4,13,13,0,0,1,11.81-.06,10.13,10.13,0,0,1,4.1,4,11.85,11.85,0,0,1,1.48,6Q277.88,22.45,277.76,24Zm-14.88-7a5.21,5.21,0,0,0-1.8,3.34h10.81a5.21,5.21,0,0,0-5.38-4.56A5.46,5.46,0,0,0,262.88,17Z"/><path class="cls-2" d="M309.86,23.11V33.22h-6.61V23L292.2,4.67h7l7.63,12.69,7.62-12.69H321Z"/><path class="cls-2" d="M343.21,24H326.62a5.17,5.17,0,0,0,2.12,3.23,7.07,7.07,0,0,0,4.16,1.18,8.37,8.37,0,0,0,3-.51,7.36,7.36,0,0,0,2.47-1.61L341.79,30q-3.1,3.54-9.06,3.55a14.37,14.37,0,0,1-6.56-1.45,10.69,10.69,0,0,1-4.41-4,11.1,11.1,0,0,1-1.55-5.83,11.21,11.21,0,0,1,1.53-5.81,10.74,10.74,0,0,1,4.2-4,12.42,12.42,0,0,1,6-1.45,12.27,12.27,0,0,1,5.83,1.39,10.07,10.07,0,0,1,4.1,4,11.85,11.85,0,0,1,1.49,6C343.34,22.41,343.3,23,343.21,24Zm-14.88-7a5.15,5.15,0,0,0-1.79,3.34h10.8A5.27,5.27,0,0,0,335.55,17,5.37,5.37,0,0,0,332,15.77,5.46,5.46,0,0,0,328.33,17Z"/><path class="cls-2" d="M364.66,13.38q2.74,2.43,2.74,7.32V33.22h-6V30.49q-1.79,3.06-6.69,3.06a10.4,10.4,0,0,1-4.38-.86,6.47,6.47,0,0,1-2.83-2.37,6.06,6.06,0,0,1-1-3.42,5.72,5.72,0,0,1,2.3-4.81q2.31-1.75,7.12-1.76h5a4.07,4.07,0,0,0-1.26-3.2A5.55,5.55,0,0,0,356,16a11,11,0,0,0-3.45.55,9.05,9.05,0,0,0-2.87,1.49l-2.29-4.45a13.79,13.79,0,0,1,4.31-1.95,19.33,19.33,0,0,1,5.15-.7Q361.93,11,364.66,13.38Zm-5.42,15.13A4.1,4.1,0,0,0,361,26.29V24h-4.36q-3.92,0-3.91,2.57a2.3,2.3,0,0,0,.95,1.94,4.3,4.3,0,0,0,2.63.71A5.57,5.57,0,0,0,359.24,28.51Z"/><path class="cls-2" d="M383.32,11.77a11.5,11.5,0,0,1,4.47-.82v5.88c-.71-.06-1.19-.09-1.43-.09a5.82,5.82,0,0,0-4.28,1.53,6.16,6.16,0,0,0-1.55,4.59V33.22h-6.36V11.28h6.07v2.9A7.06,7.06,0,0,1,383.32,11.77Z"/><path class="cls-2" d="M394.72,32.87a14,14,0,0,1-4.16-1.69l2.12-4.57a13,13,0,0,0,3.55,1.53,14.59,14.59,0,0,0,4.08.59q4,0,4-2a1.41,1.41,0,0,0-1.1-1.35,16.37,16.37,0,0,0-3.38-.69,34.4,34.4,0,0,1-4.45-.94,6.87,6.87,0,0,1-3-1.88,5.34,5.34,0,0,1-1.28-3.83,6,6,0,0,1,1.2-3.69,7.77,7.77,0,0,1,3.51-2.51,14.94,14.94,0,0,1,5.44-.9,21.33,21.33,0,0,1,4.63.51,12.94,12.94,0,0,1,3.82,1.41l-2.12,4.53a12.68,12.68,0,0,0-6.33-1.63,6.4,6.4,0,0,0-3.05.57,1.68,1.68,0,0,0-1,1.46,1.45,1.45,0,0,0,1.1,1.43,19.93,19.93,0,0,0,3.5.78,39.88,39.88,0,0,1,4.41.95,6.75,6.75,0,0,1,3,1.86,5.28,5.28,0,0,1,1.26,3.75,5.82,5.82,0,0,1-1.22,3.63,7.9,7.9,0,0,1-3.57,2.47,16,16,0,0,1-5.57.88A21.24,21.24,0,0,1,394.72,32.87Z"/><path class="cls-2" d="M358,270.5l-39.66-93.43A98.67,98.67,0,0,1,358,169Z"/><path class="cls-3" d="M358,270.5H256.5c0-42,23.14-77,61.84-93.43Z"/><path class="cls-4" d="M358,270.5V169A101.51,101.51,0,1,1,256.5,270.5H358Z"/><rect class="cls-4" x="58" y="280" width="94" height="13"/><rect class="cls-2" x="3" y="220" width="94" height="13"/><rect class="cls-3" x="60" y="330" width="94" height="13"/><path class="cls-5" d="M25.13,241.54A9.28,9.28,0,0,1,22,240.08L23.39,237a9.33,9.33,0,0,0,2.68,1.33,10.15,10.15,0,0,0,3.1.5,5,5,0,0,0,2.55-.51,1.56,1.56,0,0,0,.82-1.37,1.3,1.3,0,0,0-.48-1,3.71,3.71,0,0,0-1.25-.67c-.51-.16-1.2-.35-2.07-.55a26.69,26.69,0,0,1-3.27-.95,5.27,5.27,0,0,1-2.19-1.52,4.12,4.12,0,0,1-.91-2.8,4.84,4.84,0,0,1,.82-2.76,5.57,5.57,0,0,1,2.49-2,10.21,10.21,0,0,1,4.06-.72,13.33,13.33,0,0,1,3.28.4,9.46,9.46,0,0,1,2.8,1.15l-1.25,3.07a9.82,9.82,0,0,0-4.85-1.37,4.51,4.51,0,0,0-2.51.55,1.68,1.68,0,0,0-.82,1.45,1.44,1.44,0,0,0,.94,1.34,15.53,15.53,0,0,0,2.86.86,28.24,28.24,0,0,1,3.28.95,5.31,5.31,0,0,1,2.19,1.5,4.05,4.05,0,0,1,.91,2.77,4.76,4.76,0,0,1-.84,2.74,5.55,5.55,0,0,1-2.51,2,10.16,10.16,0,0,1-4.08.73A14.13,14.13,0,0,1,25.13,241.54Z"/><path class="cls-5" d="M42.28,241.12a6.66,6.66,0,0,1-2.64-2.46A6.83,6.83,0,0,1,42.28,229a8.1,8.1,0,0,1,3.81-.88,8,8,0,0,1,3.8.88,6.73,6.73,0,0,1,2.63,2.47,7.2,7.2,0,0,1,0,7.15,6.64,6.64,0,0,1-2.63,2.46,8,8,0,0,1-3.8.89A8.11,8.11,0,0,1,42.28,241.12Zm6.28-3.33a4.31,4.31,0,0,0,0-5.42,3.53,3.53,0,0,0-4.94,0,4.24,4.24,0,0,0,0,5.42,3.5,3.5,0,0,0,4.94,0Z"/><path class="cls-5" d="M59.33,241.12a6.9,6.9,0,0,1-2.67-9.61A6.71,6.71,0,0,1,59.33,229a8.28,8.28,0,0,1,3.86-.88,7.52,7.52,0,0,1,3.72.88,5.33,5.33,0,0,1,2.31,2.54l-3,1.63a3.28,3.28,0,0,0-3-1.85,3.42,3.42,0,0,0-2.53,1,4.21,4.21,0,0,0,0,5.45,3.46,3.46,0,0,0,2.53,1,3.27,3.27,0,0,0,3-1.85l3,1.65a5.42,5.42,0,0,1-2.31,2.5,7.42,7.42,0,0,1-3.72.9A8.29,8.29,0,0,1,59.33,241.12Z"/><path class="cls-5" d="M72.29,225.86a2,2,0,0,1-.67-1.55,2,2,0,0,1,.67-1.55,2.47,2.47,0,0,1,1.75-.63,2.53,2.53,0,0,1,1.75.6,1.93,1.93,0,0,1,.68,1.5,2.15,2.15,0,0,1-.68,1.62,2.76,2.76,0,0,1-3.5,0Zm-.2,2.5H76v13.45h-3.9Z"/><path class="cls-5" d="M90.47,229.65a5.69,5.69,0,0,1,1.67,4.48v7.68H88.49v-1.68c-.73,1.25-2.1,1.88-4.1,1.88a6.31,6.31,0,0,1-2.68-.53A4,4,0,0,1,80,240a3.74,3.74,0,0,1-.6-2.1,3.51,3.51,0,0,1,1.41-3,7.25,7.25,0,0,1,4.36-1.07h3.1a2.49,2.49,0,0,0-.77-2,3.41,3.41,0,0,0-2.33-.69,6.66,6.66,0,0,0-2.11.34,5.33,5.33,0,0,0-1.76.91l-1.4-2.73a8.73,8.73,0,0,1,2.63-1.2,12,12,0,0,1,3.17-.42A7,7,0,0,1,90.47,229.65Zm-3.33,9.27a2.49,2.49,0,0,0,1.1-1.36v-1.38H85.57c-1.6,0-2.4.53-2.4,1.58a1.42,1.42,0,0,0,.58,1.19,2.69,2.69,0,0,0,1.62.43A3.36,3.36,0,0,0,87.14,238.92Z"/><path class="cls-5" d="M96.29,223.26h3.9v18.55h-3.9Z"/><path class="cls-5" d="M112.42,224.31h4v14.2h8.77v3.3H112.42Z"/><path class="cls-5" d="M128.07,225.86a2,2,0,0,1-.68-1.55,2,2,0,0,1,.68-1.55,2.46,2.46,0,0,1,1.75-.63,2.55,2.55,0,0,1,1.75.6,1.92,1.92,0,0,1,.67,1.5,2.14,2.14,0,0,1-.67,1.62,2.76,2.76,0,0,1-3.5,0Zm-.2,2.5h3.9v13.45h-3.9Z"/><path class="cls-5" d="M140.29,228.66h3.45v3h-3.35v10.15h-3.9V231.66h-2.07v-3h2.07v-.6a4.9,4.9,0,0,1,1.36-3.65,5.23,5.23,0,0,1,3.84-1.35,6.87,6.87,0,0,1,1.66.19,4,4,0,0,1,1.32.53l-1,2.83a2.63,2.63,0,0,0-1.57-.48c-1.19,0-1.78.65-1.78,2Z"/><path class="cls-5" d="M159.24,236.18H149.07a3.14,3.14,0,0,0,1.3,2,4.31,4.31,0,0,0,2.55.72,5.11,5.11,0,0,0,1.86-.31,4.59,4.59,0,0,0,1.51-1l2.08,2.25a7,7,0,0,1-5.55,2.18,8.82,8.82,0,0,1-4-.89,6.45,6.45,0,0,1-2.7-2.46,7.22,7.22,0,0,1,0-7.14,6.59,6.59,0,0,1,2.57-2.48,7.63,7.63,0,0,1,3.67-.88,7.47,7.47,0,0,1,3.57.85,6.14,6.14,0,0,1,2.51,2.44,7.21,7.21,0,0,1,.92,3.68C159.32,235.18,159.29,235.53,159.24,236.18Zm-9.12-4.32a3.17,3.17,0,0,0-1.1,2h6.62a3.22,3.22,0,0,0-1.1-2,3.27,3.27,0,0,0-2.2-.76A3.35,3.35,0,0,0,150.12,231.86Z"/><path class="cls-5" d="M44.72,324.36l-4.88,13.45H36.09l-3-8.35-3.13,8.35H26.19l-4.85-13.45H25l3.17,9.1,3.3-9.1h3.3l3.2,9.1,3.28-9.1Z"/><path class="cls-5" d="M49.38,337.12a6.66,6.66,0,0,1-2.64-2.46A6.83,6.83,0,0,1,49.38,325a8.1,8.1,0,0,1,3.81-.88A8,8,0,0,1,57,325a6.66,6.66,0,0,1,2.63,2.47,7.2,7.2,0,0,1,0,7.15A6.57,6.57,0,0,1,57,337.12a8,8,0,0,1-3.8.89A8.11,8.11,0,0,1,49.38,337.12Zm6.28-3.33a4.31,4.31,0,0,0,0-5.42,3.53,3.53,0,0,0-4.94,0,4.24,4.24,0,0,0,0,5.42,3.5,3.5,0,0,0,4.94,0Z"/><path class="cls-5" d="M69.41,324.66a6.85,6.85,0,0,1,2.73-.5v3.6c-.43,0-.72-.05-.87-.05a3.57,3.57,0,0,0-2.63.94,3.79,3.79,0,0,0-1,2.81v6.35h-3.9V324.36h3.73v1.77A4.34,4.34,0,0,1,69.41,324.66Z"/><path class="cls-5" d="M80.87,332.53,79,334.38v3.43H75.09V319.26H79v10.5l5.7-5.4h4.64l-5.59,5.7,6.09,7.75H85.12Z"/><path class="cls-5" d="M25.13,288.54A9.28,9.28,0,0,1,22,287.08L23.39,284a9.33,9.33,0,0,0,2.68,1.33,10.15,10.15,0,0,0,3.1.5,5,5,0,0,0,2.55-.51,1.56,1.56,0,0,0,.82-1.37,1.3,1.3,0,0,0-.48-1,3.71,3.71,0,0,0-1.25-.67c-.51-.16-1.2-.35-2.07-.55a26.69,26.69,0,0,1-3.27-1,5.27,5.27,0,0,1-2.19-1.52,4.12,4.12,0,0,1-.91-2.8,4.84,4.84,0,0,1,.82-2.76,5.57,5.57,0,0,1,2.49-2,10.21,10.21,0,0,1,4.06-.72,13.33,13.33,0,0,1,3.28.4,9.46,9.46,0,0,1,2.8,1.15l-1.25,3.07a9.82,9.82,0,0,0-4.85-1.37,4.51,4.51,0,0,0-2.51.55,1.68,1.68,0,0,0-.82,1.45,1.44,1.44,0,0,0,.94,1.34,15.53,15.53,0,0,0,2.86.86,28.24,28.24,0,0,1,3.28,1,5.31,5.31,0,0,1,2.19,1.5,4.05,4.05,0,0,1,.91,2.77,4.76,4.76,0,0,1-.84,2.74,5.55,5.55,0,0,1-2.51,2,10.16,10.16,0,0,1-4.08.73A14.13,14.13,0,0,1,25.13,288.54Z"/><path class="cls-5" d="M42.33,288.12a6.9,6.9,0,0,1-2.67-9.61A6.71,6.71,0,0,1,42.33,276a8.28,8.28,0,0,1,3.86-.88,7.52,7.52,0,0,1,3.72.88,5.33,5.33,0,0,1,2.31,2.54l-3,1.63a3.28,3.28,0,0,0-3-1.85,3.42,3.42,0,0,0-2.53,1,4.21,4.21,0,0,0,0,5.45,3.46,3.46,0,0,0,2.53,1,3.27,3.27,0,0,0,3-1.85l3,1.65a5.42,5.42,0,0,1-2.31,2.5,7.42,7.42,0,0,1-3.72.9A8.29,8.29,0,0,1,42.33,288.12Z"/><path class="cls-5" d="M67.21,276.66a6,6,0,0,1,1.53,4.45v7.7h-3.9v-7.1a3.5,3.5,0,0,0-.7-2.39,2.54,2.54,0,0,0-2-.79,3.09,3.09,0,0,0-2.35.92,3.73,3.73,0,0,0-.88,2.71v6.65H55V270.26h3.9v6.5a5.29,5.29,0,0,1,1.88-1.19,6.65,6.65,0,0,1,2.4-.41A5.56,5.56,0,0,1,67.21,276.66Z"/><path class="cls-5" d="M75.63,288.12A6.53,6.53,0,0,1,73,285.66a7.2,7.2,0,0,1,0-7.15A6.63,6.63,0,0,1,75.63,276a8.67,8.67,0,0,1,7.61,0,6.73,6.73,0,0,1,2.63,2.47,7.2,7.2,0,0,1,0,7.15,6.64,6.64,0,0,1-2.63,2.46,8.58,8.58,0,0,1-7.61,0Zm6.27-3.33a4.27,4.27,0,0,0,0-5.42,3.26,3.26,0,0,0-2.46-1,3.29,3.29,0,0,0-2.47,1,4.24,4.24,0,0,0,0,5.42,3.27,3.27,0,0,0,2.47,1A3.23,3.23,0,0,0,81.9,284.79Z"/><path class="cls-5" d="M92.63,288.12A6.53,6.53,0,0,1,90,285.66a7.2,7.2,0,0,1,0-7.15A6.63,6.63,0,0,1,92.63,276a8.67,8.67,0,0,1,7.61,0,6.73,6.73,0,0,1,2.63,2.47,7.2,7.2,0,0,1,0,7.15,6.64,6.64,0,0,1-2.63,2.46,8.58,8.58,0,0,1-7.61,0Zm6.27-3.33a4.27,4.27,0,0,0,0-5.42,3.26,3.26,0,0,0-2.46-1,3.29,3.29,0,0,0-2.47,1,4.24,4.24,0,0,0,0,5.42,3.27,3.27,0,0,0,2.47,1A3.23,3.23,0,0,0,98.9,284.79Z"/><path class="cls-5" d="M107,270.26h3.9v18.55H107Z"/></g></g></svg>