<svg xmlns="http://www.w3.org/2000/svg" viewBox="0 0 341.8 104.48"><defs><style>.cls-1{fill:#9ce1fd;}.cls-2{fill:#534d72;}</style></defs><title>Asset 44</title><g id="Layer_2" data-name="Layer 2"><g id="Layer_8" data-name="Layer 8"><path class="cls-1" d="M22.38.24l-4.58,14H14.32L11.24,4.76,8.06,14.24H4.6L0,.24H3.36l3.16,9.84L9.82.24h3L16,10.16,19.28.24Z"/><path class="cls-1" d="M26.87,13.54A7,7,0,0,1,24.13,11a7.08,7.08,0,0,1-1-3.71,7.08,7.08,0,0,1,1-3.71A7,7,0,0,1,26.87.94a8.66,8.66,0,0,1,7.85,0,7.11,7.11,0,0,1,2.74,2.59,7,7,0,0,1,1,3.71,7,7,0,0,1-1,3.71,7.11,7.11,0,0,1-2.74,2.59,8.09,8.09,0,0,1-3.92.94A8.15,8.15,0,0,1,26.87,13.54ZM33,11.15a4.07,4.07,0,0,0,1.57-1.59,4.67,4.67,0,0,0,.57-2.32,4.67,4.67,0,0,0-.57-2.32A4.07,4.07,0,0,0,33,3.33a4.69,4.69,0,0,0-4.48,0A4.07,4.07,0,0,0,27,4.92a4.67,4.67,0,0,0-.57,2.32A4.67,4.67,0,0,0,27,9.56a4.07,4.07,0,0,0,1.57,1.59,4.69,4.69,0,0,0,4.48,0Z"/><path class="cls-1" d="M49.82,14.24l-2.7-3.9h-3v3.9H40.9V.24H47a7.82,7.82,0,0,1,3.23.62A4.78,4.78,0,0,1,52.3,2.62,4.88,4.88,0,0,1,53,5.32,4.74,4.74,0,0,1,52.29,8a4.78,4.78,0,0,1-2.13,1.73l3.14,4.5ZM49,3.51a3.42,3.42,0,0,0-2.22-.63H44.14V7.76h2.64A3.36,3.36,0,0,0,49,7.12a2.22,2.22,0,0,0,.76-1.8A2.2,2.2,0,0,0,49,3.51Z"/><path class="cls-1" d="M60.7,8.74l-1.88,2v3.54H55.6V.24h3.22V6.78L65,.24h3.6l-5.8,6.24L69,14.24H65.18Z"/><path class="cls-1" d="M70,6.66a1.87,1.87,0,0,1-.56-1.4A1.8,1.8,0,0,1,70,3.87a2.06,2.06,0,0,1,2.76,0,1.84,1.84,0,0,1,.56,1.39,1.91,1.91,0,0,1-.56,1.4,2,2,0,0,1-2.76,0Zm0,7.18a1.87,1.87,0,0,1-.56-1.4A1.8,1.8,0,0,1,70,11.05a2.06,2.06,0,0,1,2.76,0,1.84,1.84,0,0,1,.56,1.39,1.91,1.91,0,0,1-.56,1.4,2,2,0,0,1-2.76,0Z"/><path class="cls-2" d="M84.54,2.84v3.7H91v2.6H84.54v5.1H81.3V.24H91.88v2.6Z"/><path class="cls-2" d="M94.08.24h3.24v14H94.08Z"/><path class="cls-2" d="M109.86,11.24h-6.5l-1.24,3H98.8L105,.24h3.2l6.26,14h-3.4Zm-1-2.46-2.22-5.36L104.4,8.78Z"/><path class="cls-2" d="M118.16,2.88h-4.48V.24h12.2V2.88H121.4V14.24h-3.24Z"/><path class="cls-2" d="M136.11,13.55A7,7,0,0,1,133.39,11a7.1,7.1,0,0,1-1-3.73,7.1,7.1,0,0,1,1-3.73A7,7,0,0,1,136.11.93a8.68,8.68,0,0,1,7.18-.29,6.65,6.65,0,0,1,2.47,1.84L143.68,4.4a4.49,4.49,0,0,0-3.52-1.64,4.67,4.67,0,0,0-2.32.57,4.05,4.05,0,0,0-1.59,1.59,4.67,4.67,0,0,0-.57,2.32,4.67,4.67,0,0,0,.57,2.32,4.05,4.05,0,0,0,1.59,1.59,4.67,4.67,0,0,0,2.32.57,4.45,4.45,0,0,0,3.52-1.66L145.76,12a6.55,6.55,0,0,1-2.48,1.86,8.2,8.2,0,0,1-3.3.64A8,8,0,0,1,136.11,13.55Z"/><path class="cls-2" d="M160.78.24v14h-3.24V8.5h-6.36v5.74h-3.24V.24h3.24V5.76h6.36V.24Z"/><path class="cls-2" d="M173,14.24l-2.7-3.9h-3v3.9H164.1V.24h6.06a7.82,7.82,0,0,1,3.23.62,4.78,4.78,0,0,1,2.11,1.76,4.88,4.88,0,0,1,.74,2.7A4.74,4.74,0,0,1,175.49,8a4.78,4.78,0,0,1-2.13,1.73l3.14,4.5ZM172.2,3.51A3.42,3.42,0,0,0,170,2.88h-2.64V7.76H170a3.36,3.36,0,0,0,2.22-.64,2.22,2.22,0,0,0,.76-1.8A2.2,2.2,0,0,0,172.2,3.51Z"/><path class="cls-2" d="M185.32,9.28v5h-3.24v-5l-5.42-9h3.44l3.74,6.22L187.58.24h3.18Z"/><path class="cls-2" d="M193.21,14a7.59,7.59,0,0,1-2.49-1.17l1.1-2.44A7.51,7.51,0,0,0,194,11.48a7.94,7.94,0,0,0,2.48.4,4,4,0,0,0,2-.41,1.24,1.24,0,0,0,.66-1.09,1,1,0,0,0-.39-.83,2.87,2.87,0,0,0-1-.53c-.41-.13-1-.28-1.65-.44a22.61,22.61,0,0,1-2.62-.76,4.25,4.25,0,0,1-1.75-1.22A3.28,3.28,0,0,1,191,4.36a3.9,3.9,0,0,1,.66-2.21,4.44,4.44,0,0,1,2-1.57A8.07,8.07,0,0,1,196.9,0a10.93,10.93,0,0,1,2.62.32,7.69,7.69,0,0,1,2.24.92l-1,2.46a7.84,7.84,0,0,0-3.88-1.1,3.65,3.65,0,0,0-2,.44,1.35,1.35,0,0,0-.65,1.16A1.13,1.13,0,0,0,195,5.27a12.18,12.18,0,0,0,2.29.69,22.61,22.61,0,0,1,2.62.76,4.3,4.3,0,0,1,1.75,1.2,3.21,3.21,0,0,1,.73,2.22,3.8,3.8,0,0,1-.67,2.19,4.56,4.56,0,0,1-2,1.57,8.12,8.12,0,0,1-3.26.58A11.42,11.42,0,0,1,193.21,14Z"/><path class="cls-2" d="M204.58.24h3.24V11.6h7v2.64H204.58Z"/><path class="cls-2" d="M227.5,11.64v2.6H216.66V.24h10.58v2.6h-7.36v3h6.5V8.4h-6.5v3.24Z"/><path class="cls-2" d="M239,14.24l-2.7-3.9h-3v3.9h-3.24V.24h6.06a7.82,7.82,0,0,1,3.23.62,4.78,4.78,0,0,1,2.11,1.76,4.88,4.88,0,0,1,.74,2.7A4.74,4.74,0,0,1,241.47,8a4.78,4.78,0,0,1-2.13,1.73l3.14,4.5Zm-.82-10.73A3.42,3.42,0,0,0,236,2.88h-2.64V7.76H236a3.36,3.36,0,0,0,2.22-.64,2.22,2.22,0,0,0,.76-1.8A2.2,2.2,0,0,0,238.18,3.51Z"/><path class="cls-2" d="M253.27,13.55A7,7,0,0,1,250.55,11a7.1,7.1,0,0,1-1-3.73,7.1,7.1,0,0,1,1-3.73A7,7,0,0,1,253.27.93a8.68,8.68,0,0,1,7.18-.29,6.65,6.65,0,0,1,2.47,1.84L260.84,4.4a4.49,4.49,0,0,0-3.52-1.64,4.67,4.67,0,0,0-2.32.57,4.05,4.05,0,0,0-1.59,1.59,4.67,4.67,0,0,0-.57,2.32,4.67,4.67,0,0,0,.57,2.32A4.05,4.05,0,0,0,255,11.15a4.67,4.67,0,0,0,2.32.57,4.45,4.45,0,0,0,3.52-1.66L262.92,12a6.63,6.63,0,0,1-2.48,1.86,8.2,8.2,0,0,1-3.3.64A8,8,0,0,1,253.27,13.55Z"/><path class="cls-2" d="M274,11.24h-6.5l-1.24,3H263l6.24-14h3.2l6.26,14h-3.4Zm-1-2.46L270.8,3.42l-2.22,5.36Z"/><path class="cls-2" d="M293,.24v14h-2.66l-7-8.5v8.5h-3.2V.24h2.68l7,8.5V.24Z"/><path class="cls-2" d="M305.52,11.24H299l-1.24,3h-3.32l6.24-14h3.2l6.26,14h-3.4Zm-1-2.46-2.22-5.36-2.22,5.36Z"/><path class="cls-2" d="M311.62.24H318a9,9,0,0,1,4,.87,6.54,6.54,0,0,1,2.72,2.45,6.85,6.85,0,0,1,1,3.68,6.85,6.85,0,0,1-1,3.68A6.54,6.54,0,0,1,322,13.37a9,9,0,0,1-4,.87h-6.36Zm6.2,11.34a4.7,4.7,0,0,0,3.35-1.17,4.15,4.15,0,0,0,1.25-3.17,4.15,4.15,0,0,0-1.25-3.17,4.7,4.7,0,0,0-3.35-1.17h-3v8.68Z"/><path class="cls-2" d="M337.16,11.24h-6.5l-1.24,3H326.1l6.24-14h3.2l6.26,14h-3.4Zm-1-2.46-2.22-5.36L331.7,8.78Z"/><path class="cls-1" d="M2.61,44A7.59,7.59,0,0,1,.12,42.86l1.1-2.44a7.51,7.51,0,0,0,2.14,1.06,7.94,7.94,0,0,0,2.48.4,4,4,0,0,0,2-.41,1.24,1.24,0,0,0,.66-1.09,1,1,0,0,0-.39-.83,2.87,2.87,0,0,0-1-.53c-.41-.13-1-.28-1.65-.44a22.61,22.61,0,0,1-2.62-.76A4.25,4.25,0,0,1,1.13,36.6,3.28,3.28,0,0,1,.4,34.36a3.9,3.9,0,0,1,.66-2.21,4.44,4.44,0,0,1,2-1.57A8.07,8.07,0,0,1,6.3,30a10.93,10.93,0,0,1,2.62.32,7.69,7.69,0,0,1,2.24.92l-1,2.46a7.84,7.84,0,0,0-3.88-1.1,3.65,3.65,0,0,0-2,.44,1.35,1.35,0,0,0-.65,1.16,1.13,1.13,0,0,0,.75,1.07A12.18,12.18,0,0,0,6.66,36a22.61,22.61,0,0,1,2.62.76A4.3,4.3,0,0,1,11,37.92a3.21,3.21,0,0,1,.73,2.22,3.8,3.8,0,0,1-.67,2.19,4.56,4.56,0,0,1-2,1.57,8.12,8.12,0,0,1-3.26.58A11.42,11.42,0,0,1,2.61,44Z"/><path class="cls-1" d="M16.81,43.55A7,7,0,0,1,14.09,41a7.52,7.52,0,0,1,0-7.46,7,7,0,0,1,2.72-2.58A8.07,8.07,0,0,1,20.7,30a8.11,8.11,0,0,1,3.29.64,6.65,6.65,0,0,1,2.47,1.84L24.38,34.4a4.49,4.49,0,0,0-3.52-1.64,4.67,4.67,0,0,0-2.32.57A4.05,4.05,0,0,0,17,34.92a5,5,0,0,0,0,4.64,4.05,4.05,0,0,0,1.59,1.59,4.67,4.67,0,0,0,2.32.57,4.45,4.45,0,0,0,3.52-1.66L26.46,42A6.55,6.55,0,0,1,24,43.84a8.2,8.2,0,0,1-3.3.64A8,8,0,0,1,16.81,43.55Z"/><path class="cls-1" d="M41.48,30.24v14H38.24V38.5H31.88v5.74H28.64v-14h3.24v5.52h6.36V30.24Z"/><path class="cls-1" d="M47.65,43.54A7,7,0,0,1,44.91,41a7.45,7.45,0,0,1,0-7.42,7,7,0,0,1,2.74-2.59,8.66,8.66,0,0,1,7.85,0,7.11,7.11,0,0,1,2.74,2.59,7.38,7.38,0,0,1,0,7.42,7.11,7.11,0,0,1-2.74,2.59,8.66,8.66,0,0,1-7.85,0Zm6.17-2.39a4.07,4.07,0,0,0,1.57-1.59,5,5,0,0,0,0-4.64,4.07,4.07,0,0,0-1.57-1.59,4.69,4.69,0,0,0-4.48,0,4.07,4.07,0,0,0-1.57,1.59,5,5,0,0,0,0,4.64,4.07,4.07,0,0,0,1.57,1.59,4.69,4.69,0,0,0,4.48,0Z"/><path class="cls-1" d="M64.53,43.54A7,7,0,0,1,61.79,41a7.45,7.45,0,0,1,0-7.42,7,7,0,0,1,2.74-2.59,8.66,8.66,0,0,1,7.85,0,7.11,7.11,0,0,1,2.74,2.59,7.38,7.38,0,0,1,0,7.42,7.11,7.11,0,0,1-2.74,2.59,8.66,8.66,0,0,1-7.85,0Zm6.17-2.39a4.07,4.07,0,0,0,1.57-1.59,5,5,0,0,0,0-4.64,4.07,4.07,0,0,0-1.57-1.59,4.69,4.69,0,0,0-4.48,0,4.07,4.07,0,0,0-1.57,1.59,5,5,0,0,0,0,4.64,4.07,4.07,0,0,0,1.57,1.59,4.69,4.69,0,0,0,4.48,0Z"/><path class="cls-1" d="M78.56,30.24H81.8V41.6h7v2.64H78.56Z"/><path class="cls-1" d="M90.62,36.66a1.91,1.91,0,0,1-.56-1.4,1.84,1.84,0,0,1,.56-1.39,2.06,2.06,0,0,1,2.76,0,1.84,1.84,0,0,1,.56,1.39,1.91,1.91,0,0,1-.56,1.4,2,2,0,0,1-2.76,0Zm0,7.18a1.91,1.91,0,0,1-.56-1.4,1.84,1.84,0,0,1,.56-1.39,2.06,2.06,0,0,1,2.76,0,1.84,1.84,0,0,1,.56,1.39,1.91,1.91,0,0,1-.56,1.4,2,2,0,0,1-2.76,0Z"/><path class="cls-2" d="M103.33,44a7.59,7.59,0,0,1-2.49-1.17l1.1-2.44a7.51,7.51,0,0,0,2.14,1.06,7.94,7.94,0,0,0,2.48.4,4,4,0,0,0,2-.41,1.24,1.24,0,0,0,.66-1.09,1,1,0,0,0-.39-.83,2.87,2.87,0,0,0-1-.53c-.41-.13-1-.28-1.65-.44a22.61,22.61,0,0,1-2.62-.76,4.25,4.25,0,0,1-1.75-1.22,3.28,3.28,0,0,1-.73-2.24,3.9,3.9,0,0,1,.66-2.21,4.44,4.44,0,0,1,2-1.57A8.07,8.07,0,0,1,107,30a10.93,10.93,0,0,1,2.62.32,7.69,7.69,0,0,1,2.24.92l-1,2.46A7.84,7.84,0,0,0,107,32.6a3.65,3.65,0,0,0-2,.44,1.35,1.35,0,0,0-.65,1.16,1.13,1.13,0,0,0,.75,1.07,12.18,12.18,0,0,0,2.29.69,22.61,22.61,0,0,1,2.62.76,4.3,4.3,0,0,1,1.75,1.2,3.21,3.21,0,0,1,.73,2.22,3.8,3.8,0,0,1-.67,2.19,4.56,4.56,0,0,1-2,1.57,8.12,8.12,0,0,1-3.26.58A11.42,11.42,0,0,1,103.33,44Z"/><path class="cls-2" d="M117.4,32.88h-4.48V30.24h12.2v2.64h-4.48V44.24H117.4Z"/><path class="cls-2" d="M125.78,43.84a1.91,1.91,0,0,1-.56-1.4,1.84,1.84,0,0,1,.56-1.39,2.06,2.06,0,0,1,2.76,0,1.84,1.84,0,0,1,.56,1.39,1.91,1.91,0,0,1-.56,1.4,2,2,0,0,1-2.76,0Z"/><path class="cls-2" d="M133.87,43.55A7,7,0,0,1,131.15,41a7.52,7.52,0,0,1,0-7.46,7,7,0,0,1,2.72-2.58,8.68,8.68,0,0,1,7.18-.29,6.65,6.65,0,0,1,2.47,1.84l-2.08,1.92a4.49,4.49,0,0,0-3.52-1.64,4.67,4.67,0,0,0-2.32.57A4.05,4.05,0,0,0,134,34.92a5,5,0,0,0,0,4.64,4.05,4.05,0,0,0,1.59,1.59,4.67,4.67,0,0,0,2.32.57,4.45,4.45,0,0,0,3.52-1.66L143.52,42A6.55,6.55,0,0,1,141,43.84a8.2,8.2,0,0,1-3.3.64A8,8,0,0,1,133.87,43.55Z"/><path class="cls-2" d="M145.7,30.24h3.24V41.6h7v2.64H145.7Z"/><path class="cls-2" d="M167.12,41.24h-6.5l-1.24,3h-3.32l6.24-14h3.2l6.26,14h-3.4Zm-1-2.46-2.22-5.36-2.22,5.36Z"/><path class="cls-2" d="M173.22,30.24h3.24v14h-3.24Z"/><path class="cls-2" d="M188.7,44.24l-2.7-3.9h-3v3.9h-3.24v-14h6.06a7.82,7.82,0,0,1,3.23.62,4.78,4.78,0,0,1,2.11,1.76,4.88,4.88,0,0,1,.74,2.7A4.56,4.56,0,0,1,189,39.74l3.14,4.5Zm-.82-10.73a3.42,3.42,0,0,0-2.22-.63H183v4.88h2.64a3.36,3.36,0,0,0,2.22-.64,2.52,2.52,0,0,0,0-3.61Z"/><path class="cls-2" d="M203,43.55A7,7,0,0,1,200.25,41a7.52,7.52,0,0,1,0-7.46A7,7,0,0,1,203,30.93a8.68,8.68,0,0,1,7.18-.29,6.65,6.65,0,0,1,2.47,1.84l-2.08,1.92A4.49,4.49,0,0,0,207,32.76a4.67,4.67,0,0,0-2.32.57,4.05,4.05,0,0,0-1.59,1.59,5,5,0,0,0,0,4.64,4.05,4.05,0,0,0,1.59,1.59,4.67,4.67,0,0,0,2.32.57,4.45,4.45,0,0,0,3.52-1.66L212.62,42a6.55,6.55,0,0,1-2.48,1.86,8.2,8.2,0,0,1-3.3.64A8,8,0,0,1,203,43.55Z"/><path class="cls-2" d="M217.35,43.54A7,7,0,0,1,214.61,41a7.45,7.45,0,0,1,0-7.42,7,7,0,0,1,2.74-2.59,8.66,8.66,0,0,1,7.85,0,7.11,7.11,0,0,1,2.74,2.59,7.38,7.38,0,0,1,0,7.42,7.11,7.11,0,0,1-2.74,2.59,8.66,8.66,0,0,1-7.85,0Zm6.17-2.39a4.07,4.07,0,0,0,1.57-1.59,5,5,0,0,0,0-4.64,4.07,4.07,0,0,0-1.57-1.59,4.69,4.69,0,0,0-4.48,0,4.07,4.07,0,0,0-1.57,1.59,5,5,0,0,0,0,4.64A4.07,4.07,0,0,0,219,41.15a4.69,4.69,0,0,0,4.48,0Z"/><path class="cls-2" d="M231.38,30.24h3.24V41.6h7v2.64H231.38Z"/><path class="cls-2" d="M243.46,30.24h3.24V41.6h7v2.64H243.46Z"/><path class="cls-2" d="M266.38,41.64v2.6H255.54v-14h10.58v2.6h-7.36v3h6.5V38.4h-6.5v3.24Z"/><path class="cls-2" d="M278.38,37h3V42.7A8.6,8.6,0,0,1,278.7,44a10.16,10.16,0,0,1-3,.46,8.19,8.19,0,0,1-3.92-.93A6.92,6.92,0,0,1,269,41a7.52,7.52,0,0,1,0-7.46,6.91,6.91,0,0,1,2.75-2.58,8.33,8.33,0,0,1,4-.93,8.72,8.72,0,0,1,3.34.62,6.55,6.55,0,0,1,2.52,1.8l-2.08,1.92a4.83,4.83,0,0,0-3.62-1.58,5,5,0,0,0-2.38.56,4,4,0,0,0-1.62,1.58,4.62,4.62,0,0,0-.58,2.34,4.57,4.57,0,0,0,.58,2.32,4.1,4.1,0,0,0,1.61,1.59,4.78,4.78,0,0,0,2.35.57,5.27,5.27,0,0,0,2.52-.6Z"/><path class="cls-2" d="M295.18,41.64v2.6H284.34v-14h10.58v2.6h-7.36v3h6.5V38.4h-6.5v3.24Z"/><path class="cls-1" d="M10.51,60.86a4.78,4.78,0,0,1,2.11,1.76,5.28,5.28,0,0,1,0,5.39,4.71,4.71,0,0,1-2.11,1.76,7.82,7.82,0,0,1-3.23.61H4.46v3.86H1.22v-14H7.28A7.82,7.82,0,0,1,10.51,60.86ZM9.32,67.11a2.51,2.51,0,0,0,0-3.6,3.42,3.42,0,0,0-2.22-.63H4.46v4.86H7.1A3.42,3.42,0,0,0,9.32,67.11Z"/><path class="cls-1" d="M24.58,74.24l-2.7-3.9h-3v3.9H15.66v-14h6.06a7.82,7.82,0,0,1,3.23.62,4.78,4.78,0,0,1,2.11,1.76,4.88,4.88,0,0,1,.74,2.7,4.56,4.56,0,0,1-2.88,4.42l3.14,4.5Zm-.82-10.73a3.42,3.42,0,0,0-2.22-.63H18.9v4.88h2.64a3.36,3.36,0,0,0,2.22-.64,2.52,2.52,0,0,0,0-3.61Z"/><path class="cls-1" d="M33.21,73.54A7,7,0,0,1,30.47,71a7.45,7.45,0,0,1,0-7.42,7,7,0,0,1,2.74-2.59,8.66,8.66,0,0,1,7.85,0,7.14,7.14,0,0,1,0,12.6,8.66,8.66,0,0,1-7.85,0Zm6.17-2.39A4.14,4.14,0,0,0,41,69.56a5,5,0,0,0,0-4.64,4.14,4.14,0,0,0-1.57-1.59,4.47,4.47,0,0,0-2.24-.57,4.42,4.42,0,0,0-2.24.57,4.07,4.07,0,0,0-1.57,1.59,5,5,0,0,0,0,4.64,4.07,4.07,0,0,0,1.57,1.59,4.42,4.42,0,0,0,2.24.57A4.47,4.47,0,0,0,39.38,71.15Z"/><path class="cls-1" d="M56.7,67h3V72.7A8.6,8.6,0,0,1,57,74a10.16,10.16,0,0,1-3,.46,8.17,8.17,0,0,1-3.92-.93A6.92,6.92,0,0,1,47.35,71a7.52,7.52,0,0,1,0-7.46,6.85,6.85,0,0,1,2.75-2.58,8.33,8.33,0,0,1,4-.93,8.72,8.72,0,0,1,3.34.62,6.55,6.55,0,0,1,2.52,1.8l-2.08,1.92a4.83,4.83,0,0,0-3.62-1.58,5,5,0,0,0-2.38.56,3.92,3.92,0,0,0-1.62,1.58,4.62,4.62,0,0,0-.58,2.34,4.57,4.57,0,0,0,.58,2.32,4,4,0,0,0,1.61,1.59,4.75,4.75,0,0,0,2.35.57,5.27,5.27,0,0,0,2.52-.6Z"/><path class="cls-1" d="M71.58,74.24l-2.7-3.9h-3v3.9H62.66v-14h6.06a7.85,7.85,0,0,1,3.23.62,4.63,4.63,0,0,1,2.85,4.46,4.56,4.56,0,0,1-2.88,4.42l3.14,4.5Zm-.82-10.73a3.42,3.42,0,0,0-2.22-.63H65.9v4.88h2.64a3.36,3.36,0,0,0,2.22-.64,2.52,2.52,0,0,0,0-3.61Z"/><path class="cls-1" d="M86.58,71.24h-6.5l-1.24,3H75.52l6.24-14H85l6.26,14h-3.4Zm-1-2.46-2.22-5.36-2.22,5.36Z"/><path class="cls-1" d="M105.42,74.24l0-8.4-4.12,6.92H99.82L95.72,66v8.22h-3v-14h2.68l5.24,8.7,5.16-8.7h2.66l0,14Z"/><path class="cls-1" d="M111.36,66.66a1.87,1.87,0,0,1-.56-1.4,1.8,1.8,0,0,1,.56-1.39,2.06,2.06,0,0,1,2.76,0,1.84,1.84,0,0,1,.56,1.39,1.91,1.91,0,0,1-.56,1.4,2,2,0,0,1-2.76,0Zm0,7.18a1.87,1.87,0,0,1-.56-1.4,1.8,1.8,0,0,1,.56-1.39,2.06,2.06,0,0,1,2.76,0,1.84,1.84,0,0,1,.56,1.39,1.91,1.91,0,0,1-.56,1.4,2,2,0,0,1-2.76,0Z"/><path class="cls-2" d="M132.14,67h3V72.7A8.6,8.6,0,0,1,132.46,74a10.16,10.16,0,0,1-3,.46,8.19,8.19,0,0,1-3.92-.93A6.92,6.92,0,0,1,122.79,71a7.52,7.52,0,0,1,0-7.46,6.91,6.91,0,0,1,2.75-2.58,8.33,8.33,0,0,1,4-.93,8.72,8.72,0,0,1,3.34.62,6.55,6.55,0,0,1,2.52,1.8l-2.08,1.92a4.83,4.83,0,0,0-3.62-1.58,5,5,0,0,0-2.38.56,3.92,3.92,0,0,0-1.62,1.58,4.62,4.62,0,0,0-.58,2.34,4.57,4.57,0,0,0,.58,2.32,4,4,0,0,0,1.61,1.59,4.78,4.78,0,0,0,2.35.57,5.27,5.27,0,0,0,2.52-.6Z"/><path class="cls-2" d="M147,74.24l-2.7-3.9h-3v3.9H138.1v-14h6.06a7.85,7.85,0,0,1,3.23.62,4.63,4.63,0,0,1,2.85,4.46,4.56,4.56,0,0,1-2.88,4.42l3.14,4.5Zm-.82-10.73a3.42,3.42,0,0,0-2.22-.63h-2.64v4.88H144a3.36,3.36,0,0,0,2.22-.64,2.52,2.52,0,0,0,0-3.61Z"/><path class="cls-2" d="M162,71.24h-6.5l-1.24,3H151l6.24-14h3.2l6.26,14h-3.4Zm-1-2.46-2.22-5.36-2.22,5.36Z"/><path class="cls-2" d="M177.41,60.86a4.63,4.63,0,0,1,2.85,4.46,4.89,4.89,0,0,1-.74,2.69,4.77,4.77,0,0,1-2.11,1.76,7.86,7.86,0,0,1-3.23.61h-2.82v3.86h-3.24v-14h6.06A7.85,7.85,0,0,1,177.41,60.86Zm-1.19,6.25a2.51,2.51,0,0,0,0-3.6,3.42,3.42,0,0,0-2.22-.63h-2.64v4.86H174A3.42,3.42,0,0,0,176.22,67.11Z"/><path class="cls-2" d="M195.4,60.24v14h-3.24V68.5H185.8v5.74h-3.24v-14h3.24v5.52h6.36V60.24Z"/><path class="cls-2" d="M198.72,60.24H202v14h-3.24Z"/><path class="cls-2" d="M208.11,73.55A7,7,0,0,1,205.39,71a7.52,7.52,0,0,1,0-7.46,7,7,0,0,1,2.72-2.58,8.68,8.68,0,0,1,7.18-.29,6.65,6.65,0,0,1,2.47,1.84l-2.08,1.92a4.49,4.49,0,0,0-3.52-1.64,4.67,4.67,0,0,0-2.32.57,4.05,4.05,0,0,0-1.59,1.59,5,5,0,0,0,0,4.64,4.05,4.05,0,0,0,1.59,1.59,4.67,4.67,0,0,0,2.32.57,4.45,4.45,0,0,0,3.52-1.66L217.76,72a6.63,6.63,0,0,1-2.48,1.86,8.2,8.2,0,0,1-3.3.64A8,8,0,0,1,208.11,73.55Z"/><path class="cls-2" d="M225.6,60.24H232a9,9,0,0,1,4,.87,6.54,6.54,0,0,1,2.72,2.45,7.47,7.47,0,0,1,0,7.36A6.54,6.54,0,0,1,236,73.37a9,9,0,0,1-4,.87H225.6Zm6.2,11.34a4.7,4.7,0,0,0,3.35-1.17,4.64,4.64,0,0,0,0-6.34,4.7,4.7,0,0,0-3.35-1.17h-3v8.68Z"/><path class="cls-2" d="M253,71.64v2.6H242.12v-14H252.7v2.6h-7.36v3h6.5V68.4h-6.5v3.24Z"/><path class="cls-2" d="M256.93,74a7.4,7.4,0,0,1-2.49-1.17l1.1-2.44a7.51,7.51,0,0,0,2.14,1.06,7.89,7.89,0,0,0,2.48.4,4,4,0,0,0,2-.41,1.24,1.24,0,0,0,.66-1.09,1,1,0,0,0-.39-.83,3,3,0,0,0-1-.53c-.41-.13-1-.28-1.65-.44a22.61,22.61,0,0,1-2.62-.76,4.18,4.18,0,0,1-1.75-1.22,3.28,3.28,0,0,1-.73-2.24,3.9,3.9,0,0,1,.66-2.21,4.44,4.44,0,0,1,2-1.57,8,8,0,0,1,3.25-.58,11,11,0,0,1,2.62.32,7.69,7.69,0,0,1,2.24.92l-1,2.46a7.87,7.87,0,0,0-3.88-1.1,3.65,3.65,0,0,0-2,.44,1.32,1.32,0,0,0-.65,1.16,1.13,1.13,0,0,0,.75,1.07A12.18,12.18,0,0,0,261,66a23.22,23.22,0,0,1,2.62.76,4.3,4.3,0,0,1,1.75,1.2,3.26,3.26,0,0,1,.73,2.22,3.87,3.87,0,0,1-.67,2.19,4.56,4.56,0,0,1-2,1.57,8.16,8.16,0,0,1-3.26.58A11.42,11.42,0,0,1,256.93,74Z"/><path class="cls-2" d="M268.3,60.24h3.24v14H268.3Z"/><path class="cls-2" d="M284.32,67h3V72.7A8.6,8.6,0,0,1,284.64,74a10.16,10.16,0,0,1-3,.46,8.17,8.17,0,0,1-3.92-.93A6.92,6.92,0,0,1,275,71a7.52,7.52,0,0,1,0-7.46,6.85,6.85,0,0,1,2.75-2.58,8.33,8.33,0,0,1,4-.93,8.75,8.75,0,0,1,3.34.62,6.55,6.55,0,0,1,2.52,1.8l-2.08,1.92a4.83,4.83,0,0,0-3.62-1.58,5,5,0,0,0-2.38.56,3.92,3.92,0,0,0-1.62,1.58,4.62,4.62,0,0,0-.58,2.34,4.57,4.57,0,0,0,.58,2.32,4,4,0,0,0,1.61,1.59,4.75,4.75,0,0,0,2.35.57,5.27,5.27,0,0,0,2.52-.6Z"/><path class="cls-2" d="M303.12,60.24v14h-2.66l-7-8.5v8.5h-3.2v-14H293l7,8.5v-8.5Z"/><path class="cls-1" d="M4.46,92.84v3.7h6.48v2.6H4.46v5.1H1.22v-14H11.8v2.6Z"/><path class="cls-1" d="M22.64,101.24h-6.5l-1.24,3H11.58l6.24-14H21l6.26,14h-3.4Zm-1-2.46L19.4,93.42l-2.22,5.36Z"/><path class="cls-1" d="M41.44,90.24l-6.06,14h-3.2l-6-14h3.5l4.26,10,4.32-10Z"/><path class="cls-1" d="M45.29,103.54A7,7,0,0,1,42.55,101a7.45,7.45,0,0,1,0-7.42,7,7,0,0,1,2.74-2.59,8.66,8.66,0,0,1,7.85,0,7.11,7.11,0,0,1,2.74,2.59,7.38,7.38,0,0,1,0,7.42,7.11,7.11,0,0,1-2.74,2.59,8.66,8.66,0,0,1-7.85,0Zm6.17-2.39A4.07,4.07,0,0,0,53,99.56a5,5,0,0,0,0-4.64,4.07,4.07,0,0,0-1.57-1.59,4.69,4.69,0,0,0-4.48,0,4.07,4.07,0,0,0-1.57,1.59,5,5,0,0,0,0,4.64A4.07,4.07,0,0,0,47,101.15a4.69,4.69,0,0,0,4.48,0Z"/><path class="cls-1" d="M60.87,102.82a6.41,6.41,0,0,1-1.67-4.74V90.24h3.24V98q0,3.77,3.12,3.76a2.91,2.91,0,0,0,2.32-.91,4.27,4.27,0,0,0,.8-2.85V90.24h3.2v7.84a6.41,6.41,0,0,1-1.67,4.74,6.32,6.32,0,0,1-4.67,1.66A6.32,6.32,0,0,1,60.87,102.82Z"/><path class="cls-1" d="M84,104.24l-2.7-3.9h-3v3.9H75.08v-14h6.06a7.82,7.82,0,0,1,3.23.62,4.78,4.78,0,0,1,2.11,1.76,4.88,4.88,0,0,1,.74,2.7,4.56,4.56,0,0,1-2.88,4.42l3.14,4.5Zm-.82-10.73A3.42,3.42,0,0,0,81,92.88H78.32v4.88H81a3.36,3.36,0,0,0,2.22-.64,2.52,2.52,0,0,0,0-3.61Z"/><path class="cls-1" d="M89.78,90.24H93v14H89.78Z"/><path class="cls-1" d="M99.24,92.88H94.76V90.24H107v2.64h-4.48v11.36H99.24Z"/><path class="cls-1" d="M119.54,101.64v2.6H108.7v-14h10.58v2.6h-7.36v3h6.5V98.4h-6.5v3.24Z"/><path class="cls-1" d="M127.78,90.24h6.36a9,9,0,0,1,4,.87,6.54,6.54,0,0,1,2.72,2.45,7.47,7.47,0,0,1,0,7.36,6.54,6.54,0,0,1-2.72,2.45,9,9,0,0,1-4,.87h-6.36Zm6.2,11.34a4.7,4.7,0,0,0,3.35-1.17,4.64,4.64,0,0,0,0-6.34A4.7,4.7,0,0,0,134,92.9h-3v8.68Z"/><path class="cls-1" d="M153.22,104.24l-2.7-3.9h-3v3.9H144.3v-14h6.06a7.82,7.82,0,0,1,3.23.62,4.78,4.78,0,0,1,2.11,1.76,4.88,4.88,0,0,1,.74,2.7,4.56,4.56,0,0,1-2.88,4.42l3.14,4.5Zm-.82-10.73a3.42,3.42,0,0,0-2.22-.63h-2.64v4.88h2.64a3.36,3.36,0,0,0,2.22-.64,2.52,2.52,0,0,0,0-3.61Z"/><path class="cls-1" d="M159,90.24h3.24v14H159Z"/><path class="cls-1" d="M178.4,90.24v14h-2.66l-7-8.5v8.5h-3.2v-14h2.68l7,8.5v-8.5Z"/><path class="cls-1" d="M186.82,98.74l-1.88,2v3.54h-3.22v-14h3.22v6.54l6.2-6.54h3.6l-5.8,6.24,6.14,7.76H191.3Z"/><path class="cls-1" d="M196.1,96.66a1.87,1.87,0,0,1-.56-1.4,1.8,1.8,0,0,1,.56-1.39,2.06,2.06,0,0,1,2.76,0,1.84,1.84,0,0,1,.56,1.39,1.91,1.91,0,0,1-.56,1.4,2,2,0,0,1-2.76,0Zm0,7.18a1.87,1.87,0,0,1-.56-1.4,1.8,1.8,0,0,1,.56-1.39,2.06,2.06,0,0,1,2.76,0,1.84,1.84,0,0,1,.56,1.39,1.91,1.91,0,0,1-.56,1.4,2,2,0,0,1-2.76,0Z"/><path class="cls-2" d="M210.25,103.55a7,7,0,0,1-2.72-2.58,7.52,7.52,0,0,1,0-7.46,7,7,0,0,1,2.72-2.58,8.68,8.68,0,0,1,7.18-.29,6.65,6.65,0,0,1,2.47,1.84l-2.08,1.92a4.49,4.49,0,0,0-3.52-1.64,4.67,4.67,0,0,0-2.32.57,4.05,4.05,0,0,0-1.59,1.59,5,5,0,0,0,0,4.64,4.05,4.05,0,0,0,1.59,1.59,4.67,4.67,0,0,0,2.32.57,4.45,4.45,0,0,0,3.52-1.66L219.9,102a6.55,6.55,0,0,1-2.48,1.86,8.2,8.2,0,0,1-3.3.64A8,8,0,0,1,210.25,103.55Z"/><path class="cls-2" d="M224.63,103.54a7,7,0,0,1-2.74-2.59,7.45,7.45,0,0,1,0-7.42,7,7,0,0,1,2.74-2.59,8.66,8.66,0,0,1,7.85,0,7.11,7.11,0,0,1,2.74,2.59,7.38,7.38,0,0,1,0,7.42,7.11,7.11,0,0,1-2.74,2.59,8.66,8.66,0,0,1-7.85,0Zm6.17-2.39a4.07,4.07,0,0,0,1.57-1.59,5,5,0,0,0,0-4.64,4.07,4.07,0,0,0-1.57-1.59,4.69,4.69,0,0,0-4.48,0,4.07,4.07,0,0,0-1.57,1.59,5,5,0,0,0,0,4.64,4.07,4.07,0,0,0,1.57,1.59,4.69,4.69,0,0,0,4.48,0Z"/><path class="cls-2" d="M241.9,92.84v3.7h6.48v2.6H241.9v5.1h-3.24v-14h10.58v2.6Z"/><path class="cls-2" d="M254.68,92.84v3.7h6.48v2.6h-6.48v5.1h-3.24v-14H262v2.6Z"/><path class="cls-2" d="M275.06,101.64v2.6H264.22v-14H274.8v2.6h-7.36v3h6.5V98.4h-6.5v3.24Z"/><path class="cls-2" d="M288.48,101.64v2.6H277.64v-14h10.58v2.6h-7.36v3h6.5V98.4h-6.5v3.24Z"/></g></g></svg>