<svg xmlns="http://www.w3.org/2000/svg" viewBox="0 0 466.5 347.77"><defs><style>.cls-1{fill:#ff9492;}.cls-2{fill:#9f9ef2;}.cls-3{fill:#6dfebf;}.cls-4{fill:#534d72;}</style></defs><title>Asset 5</title><g id="Layer_2" data-name="Layer 2"><g id="Layer_8" data-name="Layer 8"><rect class="cls-1" y="305.74" width="94" height="13"/><path class="cls-1" d="M41.62,7.1H32.48V1.71H57.36V7.1H48.22V30.26h-6.6Z"/><path class="cls-1" d="M81.4,10.44q2.5,2.45,2.51,7.26V30.26H77.54V18.68a5.75,5.75,0,0,0-1.14-3.9,4.2,4.2,0,0,0-3.3-1.28A5,5,0,0,0,69.27,15a6.11,6.11,0,0,0-1.43,4.42V30.26H61.48V0h6.36V10.6A8.32,8.32,0,0,1,70.9,8.67,11,11,0,0,1,74.81,8,9,9,0,0,1,81.4,10.44Z"/><path class="cls-1" d="M112.29,21.08H95.69a5.16,5.16,0,0,0,2.12,3.22A7,7,0,0,0,102,25.49a8.46,8.46,0,0,0,3-.51,7.56,7.56,0,0,0,2.47-1.61L110.86,27q-3.1,3.54-9,3.54a14.38,14.38,0,0,1-6.57-1.44,10.66,10.66,0,0,1-4.4-4,11,11,0,0,1-1.55-5.83,11.18,11.18,0,0,1,1.53-5.81,10.74,10.74,0,0,1,4.2-4,13,13,0,0,1,11.8-.06,10.07,10.07,0,0,1,4.1,4,11.85,11.85,0,0,1,1.49,6Q112.41,19.49,112.29,21.08ZM97.4,14a5.19,5.19,0,0,0-1.79,3.34h10.81a5.28,5.28,0,0,0-1.8-3.32A5.35,5.35,0,0,0,101,12.81,5.46,5.46,0,0,0,97.4,14Z"/><path class="cls-1" d="M155.47,18a7.11,7.11,0,0,1,1.39,4.47,6.59,6.59,0,0,1-2.92,5.77q-2.91,2-8.5,2H130.68V1.71h13.95q5.22,0,8,2a6.32,6.32,0,0,1,2.79,5.42,6.87,6.87,0,0,1-3.79,6.29A7.45,7.45,0,0,1,155.47,18ZM137.25,6.69v6.73h6.56a6.63,6.63,0,0,0,3.71-.86A2.86,2.86,0,0,0,148.79,10a2.83,2.83,0,0,0-1.27-2.51,6.82,6.82,0,0,0-3.71-.83Zm11.64,17.74a2.94,2.94,0,0,0,1.32-2.65q0-3.55-5.26-3.55h-7.7v7.05H145A7.37,7.37,0,0,0,148.89,24.43Z"/><path class="cls-1" d="M179.13,10.42q2.73,2.43,2.73,7.32V30.26h-6V27.53c-1.19,2-3.42,3-6.68,3a10.42,10.42,0,0,1-4.39-.85A6.47,6.47,0,0,1,162,27.36a6.14,6.14,0,0,1-1-3.42,5.71,5.71,0,0,1,2.3-4.81q2.31-1.75,7.12-1.76h5.06a4.08,4.08,0,0,0-1.27-3.2,5.55,5.55,0,0,0-3.79-1.12,11,11,0,0,0-3.45.55,9.16,9.16,0,0,0-2.87,1.49l-2.29-4.45a13.89,13.89,0,0,1,4.31-2A19,19,0,0,1,171.3,8Q176.39,8,179.13,10.42ZM173.7,25.55a4.2,4.2,0,0,0,1.8-2.22V21.08h-4.37q-3.91,0-3.91,2.57a2.29,2.29,0,0,0,1,1.94,4.28,4.28,0,0,0,2.63.71A5.56,5.56,0,0,0,173.7,25.55Z"/><path class="cls-1" d="M207.16,9.4a10.14,10.14,0,0,1,3.94,4,11.91,11.91,0,0,1,1.42,5.93,11.94,11.94,0,0,1-1.42,5.93,10.14,10.14,0,0,1-3.94,4,11.15,11.15,0,0,1-5.56,1.4,8.46,8.46,0,0,1-6.9-2.85v2.53h-6.07V0H195V10.64A8.49,8.49,0,0,1,201.6,8,11.16,11.16,0,0,1,207.16,9.4Zm-2.65,14.31a6.13,6.13,0,0,0,1.57-4.42,6.17,6.17,0,0,0-1.57-4.43,5.71,5.71,0,0,0-8,0,6.17,6.17,0,0,0-1.57,4.43,6.13,6.13,0,0,0,1.57,4.42,5.69,5.69,0,0,0,8,0Z"/><path class="cls-1" d="M239,8.32,229,31.6A11.56,11.56,0,0,1,225.31,37,9.16,9.16,0,0,1,220,38.5a11.26,11.26,0,0,1-3.39-.53,7.71,7.71,0,0,1-2.73-1.47L216.15,32a5.31,5.31,0,0,0,1.7,1,5.12,5.12,0,0,0,1.89.37,3.36,3.36,0,0,0,2.12-.63,5.38,5.38,0,0,0,1.47-2.1l.08-.21-9.5-22.1h6.57l6.15,14.88,6.2-14.88Z"/><path class="cls-1" d="M269.29,20.15V30.26h-6.61V20.06L251.63,1.71h7l7.62,12.69L273.9,1.71h6.48Z"/><path class="cls-1" d="M302.65,21.08h-16.6a5.16,5.16,0,0,0,2.12,3.22,7,7,0,0,0,4.16,1.19,8.46,8.46,0,0,0,3-.51,7.56,7.56,0,0,0,2.47-1.61L301.22,27q-3.11,3.54-9.05,3.54a14.38,14.38,0,0,1-6.57-1.44,10.66,10.66,0,0,1-4.4-4,11,11,0,0,1-1.55-5.83,11.18,11.18,0,0,1,1.53-5.81,10.74,10.74,0,0,1,4.2-4,13,13,0,0,1,11.8-.06,10.07,10.07,0,0,1,4.1,4,11.85,11.85,0,0,1,1.49,6Q302.77,19.49,302.65,21.08Zm-14.89-7A5.19,5.19,0,0,0,286,17.37h10.81a5.28,5.28,0,0,0-1.8-3.32,5.35,5.35,0,0,0-3.59-1.24A5.46,5.46,0,0,0,287.76,14Z"/><path class="cls-1" d="M324.1,10.42q2.73,2.43,2.73,7.32V30.26h-5.95V27.53c-1.2,2-3.43,3-6.69,3a10.42,10.42,0,0,1-4.39-.85A6.53,6.53,0,0,1,307,27.36a6.14,6.14,0,0,1-1-3.42,5.71,5.71,0,0,1,2.3-4.81q2.31-1.75,7.12-1.76h5.06a4,4,0,0,0-1.27-3.2,5.54,5.54,0,0,0-3.79-1.12,10.91,10.91,0,0,0-3.44.55,9.11,9.11,0,0,0-2.88,1.49l-2.28-4.45a13.73,13.73,0,0,1,4.3-2,19,19,0,0,1,5.16-.7Q321.37,8,324.1,10.42Zm-5.43,15.13a4.15,4.15,0,0,0,1.8-2.22V21.08H316.1c-2.6,0-3.91.86-3.91,2.57a2.29,2.29,0,0,0,1,1.94,4.28,4.28,0,0,0,2.63.71A5.53,5.53,0,0,0,318.67,25.55Z"/><path class="cls-1" d="M342.75,8.81A11.5,11.5,0,0,1,347.22,8v5.88c-.71-.06-1.18-.09-1.43-.09a5.82,5.82,0,0,0-4.28,1.53A6.2,6.2,0,0,0,340,19.9V30.26H333.6V8.32h6.08v2.89A7,7,0,0,1,342.75,8.81Z"/><path class="cls-1" d="M354.15,29.91A14.07,14.07,0,0,1,350,28.22l2.12-4.57a13.19,13.19,0,0,0,3.55,1.53,14.69,14.69,0,0,0,4.08.59c2.69,0,4-.66,4-2a1.41,1.41,0,0,0-1.1-1.34,16.65,16.65,0,0,0-3.39-.69,34.2,34.2,0,0,1-4.44-.94,6.9,6.9,0,0,1-3-1.88,5.31,5.31,0,0,1-1.29-3.83,5.94,5.94,0,0,1,1.21-3.69,7.71,7.71,0,0,1,3.5-2.51,15,15,0,0,1,5.45-.9,21.39,21.39,0,0,1,4.63.51,13,13,0,0,1,3.81,1.41L367,14.44a12.64,12.64,0,0,0-6.32-1.63,6.45,6.45,0,0,0-3.06.57,1.68,1.68,0,0,0-1,1.46,1.46,1.46,0,0,0,1.1,1.43,19.87,19.87,0,0,0,3.51.78,37.93,37.93,0,0,1,4.4.95,6.61,6.61,0,0,1,3,1.86,5.28,5.28,0,0,1,1.26,3.75,5.76,5.76,0,0,1-1.22,3.63,7.9,7.9,0,0,1-3.57,2.47,16,16,0,0,1-5.56.87A21.26,21.26,0,0,1,354.15,29.91Z"/><rect class="cls-2" x="18" y="211.74" width="94" height="13"/><rect class="cls-3" x="65" y="255.74" width="94" height="13"/><path class="cls-2" d="M365,246.25l-98.9,22.83a101.5,101.5,0,0,1,76.07-121.74,98,98,0,0,1,22.83-2.6Z"/><path class="cls-1" d="M365,246.25l99.29,21.1A101.51,101.51,0,0,1,343.9,345.53c-39.16-8.32-68.8-37.45-77.8-76.45Z"/><path class="cls-3" d="M365,246.25V144.74A101.5,101.5,0,0,1,466.5,246.25a90.76,90.76,0,0,1-2.21,21.1Z"/><path class="cls-4" d="M32.13,217.29A9.48,9.48,0,0,1,29,215.83l1.37-3.05a9.31,9.31,0,0,0,2.68,1.32,10.15,10.15,0,0,0,3.1.5,5,5,0,0,0,2.55-.51,1.55,1.55,0,0,0,.82-1.36,1.3,1.3,0,0,0-.48-1,3.53,3.53,0,0,0-1.25-.66c-.51-.17-1.2-.35-2.07-.55a30.79,30.79,0,0,1-3.27-.95A5.38,5.38,0,0,1,30.28,208a4.1,4.1,0,0,1-.91-2.8,4.84,4.84,0,0,1,.82-2.76,5.49,5.49,0,0,1,2.49-2,10,10,0,0,1,4.06-.73,13.33,13.33,0,0,1,3.28.4,9.73,9.73,0,0,1,2.8,1.15l-1.25,3.08A9.73,9.73,0,0,0,36.72,203a4.51,4.51,0,0,0-2.51.55,1.69,1.69,0,0,0-.82,1.45,1.43,1.43,0,0,0,.94,1.34,14.78,14.78,0,0,0,2.86.86,28.24,28.24,0,0,1,3.28,1,5.51,5.51,0,0,1,2.19,1.5,4.06,4.06,0,0,1,.91,2.78,4.73,4.73,0,0,1-.84,2.73,5.63,5.63,0,0,1-2.51,2,10.34,10.34,0,0,1-4.08.72A14.49,14.49,0,0,1,32.13,217.29Z"/><path class="cls-4" d="M46.69,199h3.9v18.55h-3.9Z"/><path class="cls-4" d="M67.94,211.93H57.77a3.12,3.12,0,0,0,1.3,2,4.32,4.32,0,0,0,2.55.73,5.1,5.1,0,0,0,1.86-.32,4.45,4.45,0,0,0,1.51-1l2.08,2.25a7,7,0,0,1-5.55,2.17,8.82,8.82,0,0,1-4-.89,6.57,6.57,0,0,1-2.7-2.46,6.81,6.81,0,0,1-.95-3.57,7,7,0,0,1,.94-3.57,6.52,6.52,0,0,1,2.58-2.47A7.57,7.57,0,0,1,61,203.9a7.44,7.44,0,0,1,3.57.85,6.23,6.23,0,0,1,2.52,2.44,7.37,7.37,0,0,1,.91,3.69C68,210.93,68,211.28,67.94,211.93Zm-9.12-4.33a3.17,3.17,0,0,0-1.1,2.05h6.62a3.22,3.22,0,0,0-1.1-2,3.27,3.27,0,0,0-2.2-.76A3.35,3.35,0,0,0,58.82,207.6Z"/><path class="cls-4" d="M84.34,211.93H74.17a3.16,3.16,0,0,0,1.3,2,4.32,4.32,0,0,0,2.55.73,5.1,5.1,0,0,0,1.86-.32,4.45,4.45,0,0,0,1.51-1l2.08,2.25a7,7,0,0,1-5.55,2.17,8.82,8.82,0,0,1-4-.89,6.57,6.57,0,0,1-2.7-2.46,6.81,6.81,0,0,1-1-3.57,7,7,0,0,1,.94-3.57,6.52,6.52,0,0,1,2.58-2.47,7.57,7.57,0,0,1,3.66-.89,7.44,7.44,0,0,1,3.57.85,6.23,6.23,0,0,1,2.52,2.44,7.37,7.37,0,0,1,.91,3.69C84.42,210.93,84.39,211.28,84.34,211.93Zm-9.12-4.33a3.17,3.17,0,0,0-1.1,2.05h6.62a3.22,3.22,0,0,0-1.1-2,3.27,3.27,0,0,0-2.2-.76A3.35,3.35,0,0,0,75.22,207.6Z"/><path class="cls-4" d="M99,204.76a6.32,6.32,0,0,1,2.41,2.43,8,8,0,0,1,0,7.27A6.32,6.32,0,0,1,99,216.89a7,7,0,0,1-3.42.86,5.22,5.22,0,0,1-4-1.62v6.27h-3.9V204.1h3.73v1.55a5.14,5.14,0,0,1,4.22-1.75A7,7,0,0,1,99,204.76Zm-1.63,8.78a4.32,4.32,0,0,0,0-5.43,3.5,3.5,0,0,0-4.92,0,4.28,4.28,0,0,0,0,5.43,3.5,3.5,0,0,0,4.92,0Z"/><path class="cls-4" d="M105.72,201.6a2.11,2.11,0,0,1,0-3.1,2.45,2.45,0,0,1,1.75-.62,2.53,2.53,0,0,1,1.75.6,1.92,1.92,0,0,1,.67,1.5,2.12,2.12,0,0,1-.67,1.61,2.73,2.73,0,0,1-3.5,0Zm-.2,2.5h3.9v13.45h-3.9Z"/><path class="cls-4" d="M125.88,205.4a5.92,5.92,0,0,1,1.54,4.45v7.7h-3.9v-7.1a3.55,3.55,0,0,0-.7-2.39,2.59,2.59,0,0,0-2-.78,3.11,3.11,0,0,0-2.35.91,3.79,3.79,0,0,0-.87,2.71v6.65h-3.9V204.1h3.72v1.58a5.19,5.19,0,0,1,1.93-1.32,6.65,6.65,0,0,1,2.52-.46A5.53,5.53,0,0,1,125.88,205.4Z"/><path class="cls-4" d="M145.59,204.1v11.2q0,3.7-1.92,5.5a8,8,0,0,1-5.63,1.8,14.37,14.37,0,0,1-3.7-.47,8.23,8.23,0,0,1-2.9-1.38L133,218a6.32,6.32,0,0,0,2.15,1.11,8.46,8.46,0,0,0,2.6.42,4.21,4.21,0,0,0,3-.92,3.64,3.64,0,0,0,1-2.76v-.57a5.46,5.46,0,0,1-4.25,1.67,7.12,7.12,0,0,1-3.38-.81,6.18,6.18,0,0,1-2.44-2.29,6.87,6.87,0,0,1,0-6.8,6.18,6.18,0,0,1,2.44-2.29,7.12,7.12,0,0,1,3.38-.81,5.31,5.31,0,0,1,4.45,1.93V204.1Zm-4.83,8.69a3.4,3.4,0,0,0,0-4.78,4,4,0,0,0-5.09,0,3.36,3.36,0,0,0,0,4.78,4,4,0,0,0,5.09,0Z"/><path class="cls-4" d="M42,296.83a5.91,5.91,0,0,1,2.63,2.2,6.55,6.55,0,0,1,0,6.73A5.84,5.84,0,0,1,42,308a9.84,9.84,0,0,1-4,.77H34.44v4.82h-4v-17.5H38A9.67,9.67,0,0,1,42,296.83Zm-1.49,7.81a3.14,3.14,0,0,0,0-4.5,4.23,4.23,0,0,0-2.78-.79h-3.3v6.08h3.3A4.28,4.28,0,0,0,40.52,304.64Z"/><path class="cls-4" d="M49,295h3.9v18.55H49Z"/><path class="cls-4" d="M67.42,301.39a5.68,5.68,0,0,1,1.67,4.49v7.67H65.44v-1.67c-.73,1.25-2.1,1.87-4.1,1.87a6.31,6.31,0,0,1-2.68-.52,4.05,4.05,0,0,1-1.74-1.45,3.79,3.79,0,0,1-.6-2.1,3.5,3.5,0,0,1,1.41-2.95,7.17,7.17,0,0,1,4.36-1.08h3.1a2.5,2.5,0,0,0-.77-2,3.41,3.41,0,0,0-2.33-.69,6.66,6.66,0,0,0-2.11.34,5.52,5.52,0,0,0-1.76.91l-1.4-2.72a8.23,8.23,0,0,1,2.64-1.2,11.53,11.53,0,0,1,3.16-.43A7,7,0,0,1,67.42,301.39Zm-3.33,9.27a2.49,2.49,0,0,0,1.1-1.36v-1.37H62.52c-1.6,0-2.4.52-2.4,1.57a1.39,1.39,0,0,0,.59,1.19,2.63,2.63,0,0,0,1.61.44A3.34,3.34,0,0,0,64.09,310.66Z"/><path class="cls-4" d="M86.34,300.1l-6.07,14.28A7,7,0,0,1,78,317.65a5.62,5.62,0,0,1-3.29,1,7,7,0,0,1-2.07-.32,4.71,4.71,0,0,1-1.68-.9l1.43-2.78a3.22,3.22,0,0,0,1,.63,3.18,3.18,0,0,0,1.16.22,2.05,2.05,0,0,0,1.3-.39,3.34,3.34,0,0,0,.9-1.28l0-.13L71,300.1h4l3.77,9.13,3.8-9.13Z"/><path class="cls-4" d="M88.77,297.6a2.11,2.11,0,0,1,0-3.1,2.45,2.45,0,0,1,1.75-.62,2.53,2.53,0,0,1,1.75.6,1.92,1.92,0,0,1,.67,1.5,2.12,2.12,0,0,1-.67,1.61,2.73,2.73,0,0,1-3.5,0Zm-.2,2.5h3.9v13.45h-3.9Z"/><path class="cls-4" d="M108.93,301.4a5.92,5.92,0,0,1,1.54,4.45v7.7h-3.9v-7.1a3.55,3.55,0,0,0-.7-2.39,2.59,2.59,0,0,0-2-.78,3.11,3.11,0,0,0-2.35.91,3.79,3.79,0,0,0-.87,2.71v6.65h-3.9V300.1h3.72v1.58a5.19,5.19,0,0,1,1.93-1.32,6.65,6.65,0,0,1,2.52-.46A5.53,5.53,0,0,1,108.93,301.4Z"/><path class="cls-4" d="M128.64,300.1v11.2q0,3.7-1.92,5.5a8,8,0,0,1-5.63,1.8,14.37,14.37,0,0,1-3.7-.47,8.23,8.23,0,0,1-2.9-1.38L116,314a6.32,6.32,0,0,0,2.15,1.11,8.46,8.46,0,0,0,2.6.42,4.21,4.21,0,0,0,3-.92,3.64,3.64,0,0,0,1-2.76v-.57a5.46,5.46,0,0,1-4.25,1.67,7.12,7.12,0,0,1-3.38-.81,6.18,6.18,0,0,1-2.44-2.29,6.87,6.87,0,0,1,0-6.8,6.18,6.18,0,0,1,2.44-2.29,7.12,7.12,0,0,1,3.38-.81,5.31,5.31,0,0,1,4.45,1.93V300.1Zm-4.83,8.69a3.4,3.4,0,0,0,0-4.78,4,4,0,0,0-5.09,0,3.36,3.36,0,0,0,0,4.78,4,4,0,0,0,5.09,0Z"/><path class="cls-4" d="M140.87,296.05h4v14.2h8.77v3.3H140.87Z"/><path class="cls-4" d="M158.8,312.86a6.57,6.57,0,0,1-2.63-2.46,7.2,7.2,0,0,1,0-7.15,6.57,6.57,0,0,1,2.63-2.46,8.12,8.12,0,0,1,3.82-.89,8,8,0,0,1,3.8.89,6.61,6.61,0,0,1,2.62,2.46,7.2,7.2,0,0,1,0,7.15,6.61,6.61,0,0,1-2.62,2.46,8,8,0,0,1-3.8.89A8.12,8.12,0,0,1,158.8,312.86Zm6.28-3.32a4.32,4.32,0,0,0,0-5.43,3.26,3.26,0,0,0-2.46-1,3.32,3.32,0,0,0-2.48,1,4.28,4.28,0,0,0,0,5.43,3.32,3.32,0,0,0,2.48,1A3.26,3.26,0,0,0,165.08,309.54Z"/><path class="cls-4" d="M186.77,300.1v13.45h-3.7V312a5.33,5.33,0,0,1-1.85,1.34,6.41,6.41,0,0,1-6.53-1.06,6.11,6.11,0,0,1-1.55-4.53v-7.6H177v7c0,2.16.91,3.25,2.73,3.25a2.94,2.94,0,0,0,2.25-.92,3.88,3.88,0,0,0,.85-2.71V300.1Z"/><path class="cls-4" d="M204.72,295v18.55H201V312a5.13,5.13,0,0,1-4.2,1.75,7,7,0,0,1-3.44-.85,6.16,6.16,0,0,1-2.41-2.42,8.09,8.09,0,0,1,0-7.3,6.19,6.19,0,0,1,2.41-2.43,7,7,0,0,1,3.44-.85,5.11,5.11,0,0,1,4,1.63V295Zm-4.8,14.54a4.28,4.28,0,0,0,0-5.43,3.28,3.28,0,0,0-2.45-1,3.32,3.32,0,0,0-2.48,1,4.28,4.28,0,0,0,0,5.43,3.32,3.32,0,0,0,2.48,1A3.28,3.28,0,0,0,199.92,309.54Z"/><path class="cls-4" d="M208.94,295h3.9v18.55h-3.9Z"/><path class="cls-4" d="M230.44,300.1l-6.07,14.28a7,7,0,0,1-2.29,3.27,5.65,5.65,0,0,1-3.29,1,7,7,0,0,1-2.07-.32,4.62,4.62,0,0,1-1.68-.9l1.43-2.78a3.28,3.28,0,0,0,1,.63,3.23,3.23,0,0,0,1.17.22,2.07,2.07,0,0,0,1.3-.39,3.34,3.34,0,0,0,.9-1.28l0-.13-5.83-13.55h4l3.77,9.13,3.8-9.13Z"/><path class="cls-4" d="M43.22,258.93H33a3.2,3.2,0,0,0,1.3,2,4.36,4.36,0,0,0,2.55.73,5.2,5.2,0,0,0,1.87-.32,4.55,4.55,0,0,0,1.51-1l2.07,2.25a7,7,0,0,1-5.55,2.17,8.81,8.81,0,0,1-4-.89,6.45,6.45,0,0,1-2.7-2.46,7.22,7.22,0,0,1,0-7.14,6.5,6.5,0,0,1,2.57-2.47,7.57,7.57,0,0,1,3.66-.89,7.48,7.48,0,0,1,3.58.85,6.2,6.2,0,0,1,2.51,2.44,7.26,7.26,0,0,1,.91,3.69C43.29,257.93,43.27,258.28,43.22,258.93Zm-9.13-4.33a3.21,3.21,0,0,0-1.1,2h6.63a3.22,3.22,0,0,0-1.1-2,3.27,3.27,0,0,0-2.2-.76A3.38,3.38,0,0,0,34.09,254.6Z"/><path class="cls-4" d="M56.37,252.39A5.68,5.68,0,0,1,58,256.88v7.67H54.39v-1.67c-.73,1.25-2.1,1.87-4.1,1.87a6.34,6.34,0,0,1-2.68-.52,4.05,4.05,0,0,1-1.74-1.45,3.79,3.79,0,0,1-.6-2.1,3.5,3.5,0,0,1,1.41-2.95A7.17,7.17,0,0,1,51,256.65h3.1a2.47,2.47,0,0,0-.77-2A3.41,3.41,0,0,0,51,254a6.66,6.66,0,0,0-2.11.34,5.52,5.52,0,0,0-1.76.91l-1.4-2.72a8.23,8.23,0,0,1,2.64-1.2,11.53,11.53,0,0,1,3.16-.43A7,7,0,0,1,56.37,252.39ZM53,261.66a2.49,2.49,0,0,0,1.1-1.36v-1.37H51.47c-1.6,0-2.4.52-2.4,1.57a1.41,1.41,0,0,0,.59,1.19,2.65,2.65,0,0,0,1.61.44A3.34,3.34,0,0,0,53,261.66Z"/><path class="cls-4" d="M70.87,263.9a4,4,0,0,1-1.41.64,7.27,7.27,0,0,1-1.77.21A5.27,5.27,0,0,1,64,263.53a4.71,4.71,0,0,1-1.31-3.6V254.4H60.59v-3h2.08v-3.27h3.9v3.27h3.35v3H66.57v5.48a1.81,1.81,0,0,0,.44,1.31,1.6,1.6,0,0,0,1.23.46,2.53,2.53,0,0,0,1.58-.5Z"/><path class="cls-4" d="M73.89,248.6a2.13,2.13,0,0,1,0-3.1,2.47,2.47,0,0,1,1.75-.62,2.53,2.53,0,0,1,1.75.6,1.93,1.93,0,0,1,.68,1.5,2.13,2.13,0,0,1-.68,1.61,2.73,2.73,0,0,1-3.5,0Zm-.2,2.5h3.9v13.45h-3.9Z"/><path class="cls-4" d="M94.06,252.4a6,6,0,0,1,1.53,4.45v7.7h-3.9v-7.1a3.5,3.5,0,0,0-.7-2.39,2.56,2.56,0,0,0-2-.78,3.1,3.1,0,0,0-2.35.91,3.79,3.79,0,0,0-.88,2.71v6.65h-3.9V251.1h3.73v1.58a5.15,5.15,0,0,1,1.92-1.32A6.7,6.7,0,0,1,90,250.9,5.54,5.54,0,0,1,94.06,252.4Z"/><path class="cls-4" d="M113.77,251.1v11.2q0,3.7-1.93,5.5a7.92,7.92,0,0,1-5.62,1.8,14.37,14.37,0,0,1-3.7-.47,8.07,8.07,0,0,1-2.9-1.38l1.55-2.8a6.23,6.23,0,0,0,2.15,1.11,8.42,8.42,0,0,0,2.6.42,4.23,4.23,0,0,0,3-.92,3.64,3.64,0,0,0,1-2.76v-.57a5.48,5.48,0,0,1-4.25,1.67,7.16,7.16,0,0,1-3.39-.81,6.25,6.25,0,0,1-2.44-2.29,6.87,6.87,0,0,1,0-6.8,6.25,6.25,0,0,1,2.44-2.29,7.16,7.16,0,0,1,3.39-.81,5.33,5.33,0,0,1,4.45,1.93V251.1Zm-4.84,8.69a3.38,3.38,0,0,0,0-4.78,3.58,3.58,0,0,0-2.54-.91,3.64,3.64,0,0,0-2.55.91,3.36,3.36,0,0,0,0,4.78,3.64,3.64,0,0,0,2.55.91A3.58,3.58,0,0,0,108.93,259.79Z"/></g></g></svg>