<svg xmlns="http://www.w3.org/2000/svg" viewBox="0 0 1081.87 3913.52"><defs><style>.cls-1{fill:#9f9ef2;}.cls-10,.cls-14,.cls-16,.cls-18,.cls-2,.cls-20,.cls-22,.cls-6{fill:none;}.cls-10,.cls-11,.cls-13,.cls-14,.cls-15,.cls-16,.cls-18,.cls-2,.cls-20,.cls-21,.cls-22,.cls-4,.cls-5,.cls-6,.cls-7,.cls-9{stroke:#534d72;stroke-miterlimit:10;}.cls-2{stroke-width:3.16px;}.cls-11,.cls-13,.cls-15,.cls-21,.cls-3,.cls-4,.cls-5,.cls-7,.cls-9{fill:#534d72;}.cls-4{stroke-width:1.05px;}.cls-5{stroke-width:1.58px;}.cls-6{stroke-width:9.88px;}.cls-7{stroke-width:6.8px;}.cls-8{fill:#9ce1fd;}.cls-9{stroke-width:1.56px;}.cls-10{stroke-width:3.12px;}.cls-11{stroke-width:1.04px;}.cls-12{fill:#fa9597;}.cls-13{stroke-width:1.68px;}.cls-14{stroke-width:3.36px;}.cls-15{stroke-width:5.1px;}.cls-16{stroke-width:7.65px;}.cls-17{fill:#ff9492;}.cls-18{stroke-width:3.27px;}.cls-19{fill:#6dfebf;}.cls-20{stroke-width:3.16px;}.cls-21{stroke-width:4.25px;}.cls-22{stroke-linecap:round;stroke-width:15px;}.cls-23{fill:#fff;}</style></defs><title>Asset 42</title><g id="Layer_2" data-name="Layer 2"><g id="Layer_8" data-name="Layer 8"><rect class="cls-1" x="36.03" y="1932.03" width="18.67" height="41.87" rx="5.8" ry="5.8"/><rect class="cls-2" x="14.47" y="1941" width="32.51" height="58.2" rx="4.73" ry="4.73"/><circle class="cls-3" cx="31.01" cy="1993.54" r="2.55"/><line class="cls-2" x1="14.47" y1="1988.11" x2="46.97" y2="1988.11"/><line class="cls-2" x1="14.47" y1="1949.19" x2="46.97" y2="1949.19"/><rect class="cls-3" x="16.57" y="1962.24" width="19.01" height="2.08" rx="1.04" ry="1.04" transform="translate(-1398.45 612.04) rotate(-45.75)"/><rect class="cls-3" x="22.91" y="1966.32" width="11.37" height="2.08" rx="1.04" ry="1.04" transform="translate(-1400.61 615.06) rotate(-45.75)"/><rect class="cls-3" x="24.88" y="1944.11" width="11.69" height="2.08" rx="1.04" ry="1.04"/><rect class="cls-1" x="272.89" y="1953.21" width="11.48" height="52" rx="4.92" ry="4.92"/><path class="cls-4" d="M305.38,2003H283.71a6.74,6.74,0,0,1-6.73-6.73v-40.84h35.13v40.84A6.74,6.74,0,0,1,305.38,2003Zm-26.29-45.46v38.73a4.62,4.62,0,0,0,4.62,4.62h21.67a4.62,4.62,0,0,0,4.61-4.62v-38.73Z"/><path class="cls-4" d="M312.89,1991.27h-1.84v-2.12h1.84a6.16,6.16,0,0,0,6.16-6.15v-7.59a6.17,6.17,0,0,0-6.16-6.16h-1.84v-2.11h1.84a8.28,8.28,0,0,1,8.27,8.27V1983A8.28,8.28,0,0,1,312.89,1991.27Z"/><path class="cls-4" d="M307.33,1957.53v-2.11a5.68,5.68,0,0,0,0-11.36,5.58,5.58,0,0,0-2.35.51l-.84.38-.5-.77a10.48,10.48,0,0,0-18.06.61l-.58,1.06-1-.71a5.62,5.62,0,0,0-3.34-1.08,5.68,5.68,0,1,0,0,11.36v2.11a7.8,7.8,0,1,1,3.61-14.7,12.59,12.59,0,0,1,20.63-.51,7.79,7.79,0,1,1,2.4,15.21Z"/><rect class="cls-4" x="284.37" y="1964.78" width="2.11" height="27.22" rx="1.06" ry="1.06"/><rect class="cls-4" x="292.95" y="1964.78" width="2.11" height="27.22" rx="1.06" ry="1.06"/><rect class="cls-4" x="301.53" y="1964.78" width="2.11" height="27.22" rx="1.06" ry="1.06"/><rect class="cls-1" x="172.94" y="1963.14" width="23.99" height="23.99" rx="8.54" ry="8.54"/><rect class="cls-2" x="178.36" y="1969.13" width="30.75" height="31.81" rx="7.93" ry="7.93"/><circle class="cls-3" cx="185.43" cy="1975.49" r="2.83"/><circle class="cls-3" cx="193.74" cy="1985.03" r="2.83"/><circle class="cls-3" cx="202.05" cy="1994.57" r="2.83"/><circle class="cls-3" cx="184.2" cy="1993.34" r="2.83"/><circle class="cls-3" cx="203.28" cy="1976.73" r="2.83"/><rect class="cls-2" x="210.52" y="1942.77" width="30.75" height="31.81" rx="7.93" ry="7.93" transform="translate(-1318.83 733.42) rotate(-45)"/><circle class="cls-3" cx="213.27" cy="1957.81" r="2.83"/><circle class="cls-3" cx="225.9" cy="1958.68" r="2.83"/><circle class="cls-3" cx="238.52" cy="1959.56" r="2.83"/><polygon class="cls-1" points="153.61 1951.44 131.21 1967.78 110.65 1951.44 153.61 1951.44"/><polygon class="cls-2" points="98.18 1948.69 120.62 1966.63 144.39 1948.69 98.18 1948.69"/><path class="cls-2" d="M107.62,1956.24c.3.25,26.77,0,26.77,0"/><line class="cls-2" x1="116.89" y1="1937.93" x2="118.64" y2="1952.42"/><circle class="cls-2" cx="119.15" cy="1956.3" r="3.25"/><polyline class="cls-2" points="98.18 1948.69 120.62 1966.63 120.62 1996.26"/><polygon class="cls-2" points="120.62 1994.51 109.53 2002.26 132.13 2002.26 120.62 1994.51"/><circle class="cls-1" cx="378.43" cy="1991.27" r="11.1"/><path class="cls-2" d="M408.32,1972.85l-15.85-3.44-21.78-4.71h0l-17.55-3.8-6.22,28.75,70.3,15.22,1.48-6.81,2.6-12,.83-3.88.95-4.37.26-1.21.11-.49Zm-14.59,11.89a8.75,8.75,0,1,1-9.41-10.56,8.53,8.53,0,0,1,2.7.16,8.74,8.74,0,0,1,6.71,10.4Z"/><path class="cls-5" d="M361.25,1973.18a4.44,4.44,0,0,1,2.09,1.08l.69-1.06a4.81,4.81,0,0,0-2.15-1.11l.37-1.7-1.09-.24-.38,1.77a2.94,2.94,0,0,0-3.26,2.25c-.34,1.53.6,2.57,2.23,3.66,1.19.81,1.74,1.56,1.54,2.52a1.9,1.9,0,0,1-2.47,1.27,4.74,4.74,0,0,1-2.36-1.3l-.68,1.08a5.21,5.21,0,0,0,2.52,1.36l-.38,1.77,1.1.24.4-1.83a3.11,3.11,0,0,0,3.41-2.38c.34-1.56-.37-2.67-2-3.8-1.39-1-1.94-1.56-1.74-2.47C359.22,1973.59,359.9,1972.89,361.25,1973.18Z"/><path class="cls-5" d="M409.55,1983.63a4.45,4.45,0,0,1,2.08,1.08l.69-1.06a4.81,4.81,0,0,0-2.15-1.11l.37-1.7-1.09-.24-.38,1.77a3,3,0,0,0-3.26,2.25c-.34,1.53.59,2.58,2.23,3.67,1.19.81,1.74,1.55,1.54,2.52a1.66,1.66,0,0,1-.34.69,2.07,2.07,0,0,1-2.13.57,4.74,4.74,0,0,1-2.36-1.3l-.68,1.09a5.29,5.29,0,0,0,2.52,1.35l-.38,1.77,1.1.24.4-1.82a3.32,3.32,0,0,0,2.75-1.06,2.88,2.88,0,0,0,.66-1.33c.34-1.56-.37-2.67-2-3.8-1.39-1-1.94-1.55-1.74-2.47C407.51,1984,408.19,1983.34,409.55,1983.63Z"/><polyline class="cls-2" points="370.69 1964.7 370.68 1964.7 363.16 1959.47 379.95 1935.32 439.02 1976.37 422.23 2000.52 418.69 1998.06"/><line class="cls-2" x1="410.46" y1="1992.34" x2="409.24" y2="1991.5"/><path class="cls-5" d="M383.73,1949l1-1.43-.91-.64-1,1.49a2.94,2.94,0,0,0-3.87.83c-.89,1.28-.44,2.61.66,4.24.78,1.2,1,2.1.45,2.91a1.89,1.89,0,0,1-2.76.23,4.81,4.81,0,0,1-1.69-2.11l-1,.74a5.28,5.28,0,0,0,1.81,2.22l-1,1.49.94.64,1.06-1.53a3.11,3.11,0,0,0,4.07-.89c.91-1.31.68-2.61-.41-4.28-.91-1.43-1.19-2.19-.66-3a1.63,1.63,0,0,1,2.44-.19,4.27,4.27,0,0,1,1.51,1.79l1.05-.71A4.83,4.83,0,0,0,383.73,1949Z"/><path class="cls-5" d="M424.3,1977.2l1-1.43-.92-.64-1,1.49h0l-.26,1.21.24.15a4.44,4.44,0,0,1,1.51,1.79l1-.71A4.68,4.68,0,0,0,424.3,1977.2Zm-2.18,5-.83,3.88a3.09,3.09,0,0,0,.83-3.88Z"/><path class="cls-2" d="M392.47,1969.41a8.75,8.75,0,1,1,15.85,3.44"/><circle class="cls-1" cx="155.54" cy="1784.2" r="53.68"/><rect class="cls-3" x="194.05" y="1743.18" width="42.25" height="5.89" rx="1.5" ry="1.5"/><rect class="cls-3" x="203.4" y="1753.98" width="25.53" height="5.89" rx="1.5" ry="1.5"/><path class="cls-3" d="M221.07,1697h0a3,3,0,0,1,1.36-4.08l13-6.49a3.05,3.05,0,0,1,1.36-.32h18.56a3,3,0,0,1,3,3h0a3,3,0,0,1-3,3H238.21a2.94,2.94,0,0,0-1.36.33l-11.7,5.85A3,3,0,0,1,221.07,1697Z"/><path class="cls-3" d="M217.05,1732.47H208.3a3,3,0,0,1-3-3v-29.75a3,3,0,0,0-1.59-2.68l-8.22-4.42a3,3,0,0,0-1.44-.37H177a3,3,0,0,1-3-3h0a3,3,0,0,1,3-3h18.56a3,3,0,0,1,1.44.36l12.77,6.87a3,3,0,0,1,1.59,2.68v27.3a3,3,0,0,0,3,3h2.67a3,3,0,0,1,3,3h0A3,3,0,0,1,217.05,1732.47Z"/><path class="cls-6" d="M217.22,1870H92.84v-18.49c0-15.33,18.2-30.67,48.2-34.51,12-1.54,23.34-6.71,31.64-15.49,7.14-7.56,12.6-16.39,12.6-30.67"/><path class="cls-6" d="M215.54,1870H339.91v-18.49c0-15.33-18.19-30.67-48.19-34.51-12-1.54-23.35-6.71-31.64-15.49-7.14-7.56-12.61-16.39-12.61-30.67"/><path class="cls-6" d="M268.42,1689.18v34.15c0,33.38-29.46,60.87-51.06,60.87h-2c-21.6,0-51.06-27.49-51.06-60.87V1688"/><circle class="cls-3" cx="244.85" cy="1701.73" r="3.93"/><circle class="cls-3" cx="184.96" cy="1702.71" r="3.93"/><path class="cls-6" d="M164.34,1688a86.92,86.92,0,0,1-1.6-30c1-7.36,2.21-13.6,5.22-19.33s7.88-11.62,16.26-19.71c1.52,8.35,12.54,18.79,12.54,18.79,3.62-9.09,12.23-12,20.72-21.81,5.48,8.11,15.2,23.52,15.2,23.52,9.22-9.57,22.06-17.31,32.11-16.69-10.36,16.87,3.63,45.6,3.63,45.6v20.84l-13.83-22.44a13.11,13.11,0,0,0-11.18-6.25h-57.2a13.13,13.13,0,0,0-11.75,7.26Z"/><path class="cls-7" d="M147,1870h-5.21v-19.53a2.61,2.61,0,0,1,2.61-2.6h0a2.61,2.61,0,0,1,2.6,2.6Z"/><path class="cls-7" d="M285.78,1870H291v-19.53a2.6,2.6,0,0,0-2.6-2.6h0a2.61,2.61,0,0,0-2.6,2.6Z"/><rect class="cls-6" x="155.54" y="1690.36" width="7.2" height="21.76" rx="1.83" ry="1.83"/><rect class="cls-6" x="270.01" y="1690.36" width="7.2" height="21.76" rx="1.83" ry="1.83" transform="translate(547.23 3402.48) rotate(-180)"/><polyline class="cls-6" points="258.63 1799.88 216.38 1814.91 174.12 1799.88"/><rect class="cls-8" x="663.03" y="2554.33" width="37.95" height="11.35" rx="5.32" ry="5.32"/><path class="cls-9" d="M688.66,2617H653.2v-48h35.46Zm-33.33-2.14h31.2v-43.76h-31.2Z"/><path class="cls-9" d="M692.49,2571.06H649.25v-9.86a3,3,0,0,1,3-3h37.18a3,3,0,0,1,3,3Zm-41.11-2.13h39v-7.73a.89.89,0,0,0-.89-.89H652.28a.9.9,0,0,0-.9.89Z"/><path class="cls-9" d="M688.66,2560.31H653.2v-2.79a5.32,5.32,0,0,1,5.31-5.32h24.83a5.32,5.32,0,0,1,5.32,5.32Zm-33.33-2.14h31.2v-.65a3.19,3.19,0,0,0-3.19-3.19H658.51a3.19,3.19,0,0,0-3.18,3.19Z"/><rect class="cls-9" x="654.26" y="2582.18" width="33.33" height="2.13"/><rect class="cls-9" x="654.26" y="2600.47" width="33.33" height="2.13"/><rect class="cls-3" x="655.34" y="2563.55" width="13.26" height="2.13" rx="1.07" ry="1.07"/><rect class="cls-9" x="660.9" y="2574.77" width="2.13" height="36.2" rx="1.07" ry="1.07"/><rect class="cls-8" x="752.26" y="2597.25" width="27.83" height="11.58" rx="5.42" ry="5.42"/><rect class="cls-9" x="725.87" y="2566.85" width="22.47" height="2.46" rx="1.23" ry="1.23" transform="translate(-1616.78 1304.13) rotate(-45.75)"/><rect class="cls-9" x="735.23" y="2569.63" width="13.43" height="2.46" rx="1.23" ry="1.23" transform="translate(-1617.46 1308.72) rotate(-45.76)"/><rect class="cls-9" x="743.29" y="2596.03" width="24.78" height="2.46" rx="1.23" ry="1.23"/><path class="cls-9" d="M785.66,2588.81h-60a4.09,4.09,0,0,1-4.09-4.09V2557a4.09,4.09,0,0,1,4.09-4.09h60a4.09,4.09,0,0,1,4.09,4.09v27.73A4.09,4.09,0,0,1,785.66,2588.81Zm-60-33.45a1.63,1.63,0,0,0-1.63,1.63v27.73a1.63,1.63,0,0,0,1.63,1.63h60a1.63,1.63,0,0,0,1.63-1.63V2557a1.63,1.63,0,0,0-1.63-1.63Z"/><rect class="cls-9" x="754.45" y="2587.58" width="2.46" height="9.67"/><path class="cls-9" d="M783.46,2615.54a4.64,4.64,0,0,1-4.64-4.64v-4.13a4.64,4.64,0,1,1,9.27,0v4.13A4.64,4.64,0,0,1,783.46,2615.54Zm0-10.95a2.19,2.19,0,0,0-2.18,2.18v4.13a2.18,2.18,0,1,0,4.36,0v-4.13A2.19,2.19,0,0,0,783.46,2604.59Z"/><path class="cls-9" d="M767.07,2616.26H744.29a3.57,3.57,0,0,1-3.57-3.57v-6.26a3.57,3.57,0,0,1,3.57-3.57h22.78a3.57,3.57,0,0,1,3.57,3.57v6.26A3.57,3.57,0,0,1,767.07,2616.26Zm-22.78-10.94a1.1,1.1,0,0,0-1.11,1.11v6.26a1.11,1.11,0,0,0,1.11,1.11h22.78a1.11,1.11,0,0,0,1.11-1.11v-6.26a1.1,1.1,0,0,0-1.11-1.11Z"/><circle class="cls-8" cx="861.54" cy="2593.42" r="14.19"/><path class="cls-9" d="M888.82,2611.31h-75v-45.24h75Zm-72.33-2.64h69.69v-40H816.49Z"/><circle class="cls-10" cx="851.33" cy="2588.54" r="13.98"/><polyline class="cls-10" points="821.6 2567.39 821.6 2562.95 829.59 2562.95 829.59 2567.39"/><polyline class="cls-10" points="842.46 2567.39 842.46 2557.85 861.54 2557.85 861.54 2567.39"/><rect class="cls-9" x="828.27" y="2574.56" width="2.64" height="26.78" rx="1.32" ry="1.32"/><rect class="cls-10" x="844.16" y="2583.65" width="14.35" height="9.77"/><rect class="cls-9" x="869.75" y="2573.24" width="10.65" height="2.64" rx="1.32" ry="1.32"/><rect class="cls-8" x="911.68" y="2576.9" width="12.39" height="43.53" rx="5.8" ry="5.8"/><rect class="cls-10" x="917.91" y="2576.9" width="12.31" height="35.37" rx="5.76" ry="5.76"/><circle class="cls-10" cx="924.06" cy="2564.77" r="7.88"/><rect class="cls-10" x="939.92" y="2576.9" width="12.31" height="35.37" rx="5.76" ry="5.76"/><circle class="cls-10" cx="946.15" cy="2564.77" r="7.88"/><rect class="cls-10" x="962.24" y="2576.9" width="12.31" height="35.37" rx="5.76" ry="5.76"/><circle class="cls-10" cx="968.39" cy="2564.77" r="7.88"/><path class="cls-11" d="M912.22,2594.78h0a1.36,1.36,0,0,1-.28-1.89l4.37-5.92,2.17,1.61-4.36,5.91A1.36,1.36,0,0,1,912.22,2594.78Z"/><path class="cls-11" d="M934.27,2594.78h0a1.36,1.36,0,0,1-.28-1.89l4.37-5.92,2.17,1.61-4.37,5.91A1.35,1.35,0,0,1,934.27,2594.78Z"/><path class="cls-11" d="M956.47,2594.78h0a1.35,1.35,0,0,1-.28-1.89l4.36-5.92,2.18,1.61-4.37,5.91A1.35,1.35,0,0,1,956.47,2594.78Z"/><path class="cls-11" d="M980.43,2594.78h0a1.36,1.36,0,0,0,.28-1.89l-4.37-5.92-2.17,1.61,4.36,5.91A1.36,1.36,0,0,0,980.43,2594.78Z"/><path class="cls-11" d="M958,2594.78h0a1.36,1.36,0,0,0,.29-1.89l-4.37-5.92-2.18,1.61,4.37,5.91A1.35,1.35,0,0,0,958,2594.78Z"/><path class="cls-11" d="M936.06,2594.78h0a1.36,1.36,0,0,0,.29-1.89L932,2587l-2.18,1.61,4.37,5.91A1.35,1.35,0,0,0,936.06,2594.78Z"/><rect class="cls-8" x="1056.12" y="2565.3" width="10.93" height="28.67" rx="5.12" ry="5.12" transform="translate(-1147.59 876.4) rotate(-30)"/><path class="cls-10" d="M1017,2603.36l-3.08,1.63a.84.84,0,0,1-1.14-.35l-2.5-4.7a.84.84,0,0,1,.35-1.13l3.08-1.64"/><path class="cls-10" d="M1069.21,2567.65l3.07-1.64a.84.84,0,0,1,1.14.35l2.5,4.7a.84.84,0,0,1-.35,1.14l-3.07,1.63"/><line class="cls-10" x1="1061.58" y1="2579.64" x2="1027.91" y2="2597.55"/><line class="cls-10" x1="1058.29" y1="2573.45" x2="1024.62" y2="2591.36"/><rect class="cls-10" x="1014.84" y="2588.8" width="5.51" height="19.67" rx="1.88" ry="1.88" transform="translate(-1101.02 782.08) rotate(-28)"/><rect class="cls-10" x="1019.32" y="2579.72" width="6.85" height="30.84" rx="1.88" ry="1.88" transform="translate(-1098.78 784.09) rotate(-28)"/><rect class="cls-10" x="1065.49" y="2561.87" width="5.51" height="19.67" rx="1.88" ry="1.88" transform="translate(3218.94 4340.7) rotate(152)"/><rect class="cls-10" x="1059.05" y="2558.59" width="6.85" height="30.84" rx="1.88" ry="1.88" transform="translate(3209.15 4347.76) rotate(152)"/><rect class="cls-8" x="828.45" y="2445.58" width="165.67" height="58.2"/><path class="cls-6" d="M863.55,2482.54H731.83V2463c0-16.24,19.27-32.49,51-36.56,12.69-1.62,24.72-7.09,33.51-16.4,7.56-8,13.35-17.35,13.35-32.48"/><path class="cls-6" d="M861.77,2482.54H993.49V2463c0-16.24-19.26-32.49-51-36.56-12.69-1.62-24.72-7.09-33.51-16.4-7.56-8-13.35-17.35-13.35-32.48"/><path class="cls-6" d="M908.59,2280.67a28,28,0,0,1,1.24,7.85v51.62c0,30.26-26.7,55.18-46.28,55.18h-1.78c-19.58,0-46.28-24.92-46.28-55.18v-32"/><rect class="cls-3" x="842.19" y="2359.72" width="40.94" height="5.34" rx="2.67" ry="2.67"/><rect class="cls-3" x="851.98" y="2369.51" width="23.14" height="5.34" rx="2.67" ry="2.67"/><rect class="cls-3" x="876.01" y="2308.01" width="23.14" height="5.51" rx="2.76" ry="2.76"/><path class="cls-3" d="M864.36,2350h-7.93a2.75,2.75,0,0,1-2.75-2.75v-31a2.77,2.77,0,0,0-2.76-2.76H830.71a2.75,2.75,0,0,1-2.76-2.75h0a2.76,2.76,0,0,1,2.76-2.76h25.72a2.77,2.77,0,0,1,2.76,2.76v31a2.75,2.75,0,0,0,2.75,2.75h2.42a2.76,2.76,0,0,1,2.75,2.76h0A2.75,2.75,0,0,1,864.36,2350Z"/><circle class="cls-3" cx="888.47" cy="2320.56" r="3.56"/><circle class="cls-3" cx="834.18" cy="2321.45" r="3.56"/><path class="cls-6" d="M815.49,2308.1s-3.56-21.36,0-35.6c3.48-13.93,17.8-33.82,40.94-33.82-3.56,3.56-5.34,10.68-5.34,10.68,8.9-3.56,30.26-16,44.5-10.68a83.22,83.22,0,0,0-10.68,8.9c16-3.56,21.36,3.56,30.26,8.9-10.68,10.68-5.34,33.82-5.34,33.82v18.88l-12.53-20.34a11.91,11.91,0,0,0-10.14-5.66H835.31a11.9,11.9,0,0,0-10.65,6.58Z"/><path class="cls-6" d="M913.93,2416c-7.65,6.48-37.93,8.26-52.16,8.26s-44.51-1.78-52.16-8.26"/><path class="cls-7" d="M789.16,2482.54h-5.51v-20.68a2.76,2.76,0,0,1,2.75-2.76h0a2.76,2.76,0,0,1,2.76,2.76Z"/><path class="cls-7" d="M936.16,2482.54h5.51v-20.68a2.76,2.76,0,0,0-2.75-2.76h0a2.77,2.77,0,0,0-2.76,2.76Z"/><rect class="cls-6" x="807.51" y="2310.25" width="6.53" height="19.73" rx="1.83" ry="1.83"/><rect class="cls-6" x="911.28" y="2310.25" width="6.53" height="19.73" rx="1.83" ry="1.83" transform="translate(1829.09 4640.24) rotate(180)"/><rect class="cls-12" x="326.53" y="3201.23" width="38.07" height="30.37" rx="9.09" ry="9.09"/><rect class="cls-13" x="282.73" y="3200.79" width="24.18" height="2.65" rx="1.32" ry="1.32" transform="translate(-2204.62 1178.94) rotate(-45.75)"/><rect class="cls-13" x="292.8" y="3203.78" width="14.46" height="2.65" rx="1.32" ry="1.32" transform="translate(-2205.43 1183.87) rotate(-45.76)"/><rect class="cls-13" x="301.48" y="3232.19" width="26.67" height="2.65" rx="1.32" ry="1.32"/><path class="cls-13" d="M347.07,3224.43H282.55a4.4,4.4,0,0,1-4.4-4.4v-29.85a4.4,4.4,0,0,1,4.4-4.4h64.52a4.4,4.4,0,0,1,4.4,4.4V3220A4.4,4.4,0,0,1,347.07,3224.43Zm-64.52-36a1.75,1.75,0,0,0-1.75,1.75V3220a1.75,1.75,0,0,0,1.75,1.76h64.52a1.76,1.76,0,0,0,1.76-1.76v-29.85a1.75,1.75,0,0,0-1.76-1.75Z"/><rect class="cls-13" x="313.49" y="3223.11" width="2.65" height="10.41"/><path class="cls-13" d="M344.71,3253.2a5,5,0,0,1-5-5v-4.44a5,5,0,0,1,10,0v4.44A5,5,0,0,1,344.71,3253.2Zm0-11.78a2.35,2.35,0,0,0-2.35,2.34v4.44a2.35,2.35,0,1,0,4.69,0v-4.44A2.34,2.34,0,0,0,344.71,3241.42Z"/><path class="cls-13" d="M327.07,3254H302.55a3.84,3.84,0,0,1-3.84-3.84v-6.74a3.84,3.84,0,0,1,3.84-3.84h24.52a3.85,3.85,0,0,1,3.85,3.84v6.74A3.85,3.85,0,0,1,327.07,3254Zm-24.52-11.78a1.19,1.19,0,0,0-1.19,1.2v6.74a1.19,1.19,0,0,0,1.19,1.2h24.52a1.2,1.2,0,0,0,1.2-1.2v-6.74a1.2,1.2,0,0,0-1.2-1.2Z"/><rect class="cls-12" x="210.32" y="3180.67" width="6.35" height="41.12" rx="3.17" ry="3.17"/><path class="cls-13" d="M213.86,3191.86h-7.08v-4.05a1.84,1.84,0,0,1,1.84-1.84H212a1.84,1.84,0,0,1,1.85,1.84Zm-5.57-1.5h4.06v-1a1.84,1.84,0,0,0-1.84-1.84h-.38a1.84,1.84,0,0,0-1.84,1.84Z"/><path class="cls-13" d="M213.86,3232.38h-7.08v-42h7.08Zm-5.57-1.51h4.06v-39h-4.06Z"/><polygon class="cls-13" points="210.32 3240.89 206.85 3233.53 208.21 3232.89 210.32 3237.35 212.42 3232.89 213.78 3233.53 210.32 3240.89"/><polygon class="cls-13" points="214.25 3253.78 193.61 3231.91 207.03 3219.73 208.04 3220.85 195.76 3231.99 214.32 3251.66 239.37 3228.38 220.81 3208.71 213.62 3215.52 212.58 3214.43 220.87 3206.58 241.51 3228.45 214.25 3253.78"/><rect class="cls-3" x="213.54" y="3237.92" width="1.51" height="10.43" rx="0.75" ry="0.75" transform="translate(-2230.45 1101.38) rotate(-45)"/><rect class="cls-3" x="209.56" y="3195.5" width="1.51" height="30.98" rx="0.75" ry="0.75"/><rect class="cls-12" x="28.53" y="3245.99" width="12.63" height="13.53" rx="3.23" ry="3.23"/><circle class="cls-14" cx="29.91" cy="3208.62" r="22.69"/><ellipse class="cls-14" cx="29.91" cy="3208.62" rx="17.77" ry="22.69"/><ellipse class="cls-14" cx="29.91" cy="3208.62" rx="9.89" ry="22.69"/><path class="cls-14" d="M13.31,3224.09l10.47,17.71v8.86a3.15,3.15,0,0,0,3.16,3.16h5.84a3.16,3.16,0,0,0,3.16-3.16v-8.31L45.65,3225"/><line class="cls-14" x1="23.78" y1="3241.8" x2="35.94" y2="3241.8"/><line class="cls-14" x1="26.82" y1="3231.16" x2="26.82" y2="3241.8"/><line class="cls-14" x1="32.76" y1="3231.16" x2="32.76" y2="3241.8"/><rect class="cls-12" x="115.24" y="3215.69" width="27.74" height="25.19" rx="8.4" ry="8.4"/><path class="cls-14" d="M97.09,3212.2h42a0,0,0,0,1,0,0v31.15a10.89,10.89,0,0,1-10.89,10.89H108a10.89,10.89,0,0,1-10.89-10.89V3212.2a0,0,0,0,1,0,0Z"/><rect class="cls-14" x="93.35" y="3192.21" width="49.31" height="19.99" rx="10" ry="10"/><path class="cls-14" d="M97.09,3226H94.3a2.53,2.53,0,0,0-2.53,2.53v16.38a2.52,2.52,0,0,0,2.53,2.52h2.79"/><path class="cls-14" d="M139.21,3226H142a2.53,2.53,0,0,1,2.53,2.53v16.38a2.53,2.53,0,0,1-2.53,2.52h-2.79"/><path class="cls-14" d="M129.11,3185.51h0a5.79,5.79,0,0,1,5.79,5.79v.92a0,0,0,0,1,0,0H123.33a0,0,0,0,1,0,0v-.92A5.79,5.79,0,0,1,129.11,3185.51Z"/><path class="cls-14" d="M106,3187.48h2.37a4.73,4.73,0,0,1,4.73,4.73v0a0,0,0,0,1,0,0H101.24a0,0,0,0,1,0,0v0A4.73,4.73,0,0,1,106,3187.48Z"/><rect class="cls-14" x="105.45" y="3224.69" width="25.51" height="24.19" rx="9.38" ry="9.38"/><line class="cls-14" x1="105.45" y1="3234.02" x2="130.95" y2="3234.02"/><rect class="cls-12" x="420.98" y="3225.46" width="21.65" height="31.9" rx="8.09" ry="8.09"/><path class="cls-14" d="M401.65,3208.91h34.56a0,0,0,0,1,0,0v36a5,5,0,0,1-5,5H406.69a5,5,0,0,1-5-5v-36A0,0,0,0,1,401.65,3208.91Z"/><path class="cls-14" d="M436.22,3219.25h9.26a4.56,4.56,0,0,1,4.56,4.56v10.94a4.56,4.56,0,0,1-4.56,4.56h-9.26"/><path class="cls-3" d="M413.59,3202.45h-5.84c-6.73-5,6.72-7.57,0-12.62h5.85C420.33,3194.88,406.85,3197.41,413.59,3202.45Z"/><path class="cls-3" d="M428.28,3202.45h-5.85c-6.72-5,6.73-7.57,0-12.62h5.85C435,3194.88,421.54,3197.41,428.28,3202.45Z"/><line class="cls-14" x1="410.67" y1="3219.17" x2="410.67" y2="3242.04"/><circle class="cls-12" cx="283.8" cy="3017.62" r="69.21"/><path class="cls-6" d="M216.53,3115.2H73.43v-21.27c0-17.65,20.93-35.29,55.45-39.71,13.78-1.77,26.86-7.72,36.4-17.82,8.22-8.7,14.5-18.85,14.5-35.29"/><path class="cls-6" d="M214.59,3115.2h143.1v-21.27c0-17.65-20.93-35.29-55.45-39.71-13.79-1.77-26.86-7.72-36.4-17.82-8.22-8.7-14.51-18.85-14.51-35.29"/><path class="cls-6" d="M266.8,2904.42v56.08c0,32.87-29,59.95-50.27,59.95h-1.94c-21.27,0-50.28-27.08-50.28-59.95v-34.81"/><rect class="cls-3" x="193.32" y="2981.77" width="44.48" height="5.8" rx="2.88" ry="2.88"/><rect class="cls-15" x="242.63" y="3070.48" width="44.48" height="5.8" rx="1.5" ry="1.5"/><rect class="cls-3" x="203.96" y="2992.41" width="25.14" height="5.8" rx="1.5" ry="1.5"/><rect class="cls-3" x="230.06" y="2925.6" width="25.14" height="5.99" rx="2.99" ry="2.99"/><path class="cls-3" d="M217.4,2971.23h-8.61a3,3,0,0,1-3-3v-33.66a3,3,0,0,0-3-3h-22a3,3,0,0,1-3-3h0a3,3,0,0,1,3-3h27.95a3,3,0,0,1,3,3v33.66a3,3,0,0,0,3,3h2.62a3,3,0,0,1,3,3h0A3,3,0,0,1,217.4,2971.23Z"/><circle class="cls-3" cx="243.6" cy="2939.23" r="3.87"/><circle class="cls-3" cx="184.62" cy="2940.2" r="3.87"/><path class="cls-6" d="M164.31,2925.69s-3.86-23.2,0-38.67c3.53-14.12,15.09-25.08,37.32-27.51,2.34-.26,5.9.88,6.45,3.15s18.39-6.22,32.58-4.21a2.87,2.87,0,0,1,2.34,3.92c-1.15,2.44,1.43,4.06,1.43,4.06,17.41-3.87,17.68,6.4,27.35,12.21-8.58,10.86-5,27.72-5,27.72v20.51l-13.61-22.1a13,13,0,0,0-11-6.15H185.85a13,13,0,0,0-11.58,7.15Z"/><path class="cls-15" d="M135.71,3115.2h-6v-22.47a3,3,0,0,1,3-3h0a3,3,0,0,1,3,3Z"/><path class="cls-15" d="M295.41,3115.2h6v-22.47a3,3,0,0,0-3-3h0a3,3,0,0,0-3,3Z"/><path class="cls-16" d="M260.91,3029.58a214.94,214.94,0,0,1-91.45,0"/><rect class="cls-6" x="155.79" y="2931.08" width="7.09" height="21.43" rx="1.83" ry="1.83"/><rect class="cls-6" x="268.52" y="2931.08" width="7.09" height="21.43" rx="1.83" ry="1.83" transform="translate(544.12 5883.6) rotate(-180)"/><line class="cls-6" x1="206.81" y1="3115.2" x2="206.81" y2="3050.87"/><line class="cls-6" x1="226.24" y1="3115.2" x2="226.24" y2="3050.87"/><polyline class="cls-6" points="225 3035.4 231.04 3047.73 216.25 3054.67 201.47 3047.73 207.51 3035.4"/><path class="cls-3" d="M174,128.29H157.84l-3.08,7.46h-8.25L162,101H170l15.55,34.78h-8.45Zm-2.53-6.11-5.52-13.31-5.51,13.31Z"/><path class="cls-3" d="M209.14,135.23a18.72,18.72,0,0,1-6.18-2.91l2.73-6.06a18.56,18.56,0,0,0,5.31,2.63,20.09,20.09,0,0,0,6.17,1,9.82,9.82,0,0,0,5.06-1,3.06,3.06,0,0,0,1.64-2.71,2.56,2.56,0,0,0-1-2.06,7.19,7.19,0,0,0-2.48-1.32c-1-.33-2.38-.7-4.1-1.09a56.68,56.68,0,0,1-6.51-1.89,10.5,10.5,0,0,1-4.34-3,8.19,8.19,0,0,1-1.82-5.57,9.71,9.71,0,0,1,1.64-5.49,11,11,0,0,1,4.94-3.9,20.24,20.24,0,0,1,8.08-1.44,26.74,26.74,0,0,1,6.51.8,19.3,19.3,0,0,1,5.56,2.28l-2.48,6.11a19.44,19.44,0,0,0-9.64-2.73,9.09,9.09,0,0,0-5,1.09,3.34,3.34,0,0,0-1.62,2.89,2.81,2.81,0,0,0,1.86,2.65,29.15,29.15,0,0,0,5.69,1.72,56.68,56.68,0,0,1,6.51,1.89,10.77,10.77,0,0,1,4.35,3,8,8,0,0,1,1.81,5.51,9.48,9.48,0,0,1-1.66,5.44,11.22,11.22,0,0,1-5,3.9,20.38,20.38,0,0,1-8.1,1.44A28.7,28.7,0,0,1,209.14,135.23Z"/><path class="cls-3" d="M245.66,134a17.17,17.17,0,0,1-6.76-6.41,18.68,18.68,0,0,1,0-18.53,17.24,17.24,0,0,1,6.76-6.41,20.07,20.07,0,0,1,9.66-2.31A20.3,20.3,0,0,1,263.5,102a16.31,16.31,0,0,1,6.13,4.57l-5.16,4.77a11.14,11.14,0,0,0-8.75-4.07,11.65,11.65,0,0,0-5.76,1.41,10.14,10.14,0,0,0-4,4,12.41,12.41,0,0,0,0,11.53,10,10,0,0,0,4,3.95,11.55,11.55,0,0,0,5.76,1.42,11.08,11.08,0,0,0,8.75-4.13l5.16,4.77a16.07,16.07,0,0,1-6.16,4.62,20.43,20.43,0,0,1-8.2,1.59A20,20,0,0,1,245.66,134Z"/><path class="cls-3" d="M298.45,135.75l-6.71-9.69h-7.4v9.69h-8V101h15.06a19.26,19.26,0,0,1,8,1.54,11.88,11.88,0,0,1,5.24,4.37,12,12,0,0,1,1.84,6.71,11.33,11.33,0,0,1-7.15,11l7.8,11.18Zm-2-26.66a8.46,8.46,0,0,0-5.51-1.56h-6.56v12.12h6.56a8.34,8.34,0,0,0,5.51-1.59,6.27,6.27,0,0,0,0-9Z"/><path class="cls-3" d="M321.13,134a17.36,17.36,0,0,1-6.81-6.43,18.57,18.57,0,0,1,0-18.44,17.29,17.29,0,0,1,6.81-6.43,21.48,21.48,0,0,1,19.5,0,17.73,17.73,0,0,1,0,31.3,21.56,21.56,0,0,1-19.5,0Zm15.33-5.94a10.08,10.08,0,0,0,3.9-3.95,12.41,12.41,0,0,0,0-11.53,10.21,10.21,0,0,0-3.9-4,11.69,11.69,0,0,0-11.13,0,10.21,10.21,0,0,0-3.9,4,12.41,12.41,0,0,0,0,11.53,10.08,10.08,0,0,0,3.9,3.95,11.61,11.61,0,0,0,11.13,0Z"/><path class="cls-3" d="M357.23,101h8v28.22h17.44v6.56H357.23Z"/><path class="cls-3" d="M388.48,101h8v28.22H414v6.56H388.48Z"/><path class="cls-3" d="M442.24,107.53H431.11V101h30.31v6.56H450.29v28.22h-8.05Z"/><path class="cls-3" d="M498.88,101v34.78h-8.05V121.49H475v14.26h-8V101h8v13.71h15.8V101Z"/><path class="cls-3" d="M530.53,135.75l-6.71-9.69h-7.4v9.69h-8V101h15.06a19.26,19.26,0,0,1,8,1.54,11.88,11.88,0,0,1,5.24,4.37,12,12,0,0,1,1.84,6.71,11.33,11.33,0,0,1-7.15,11l7.8,11.18Zm-2-26.66a8.46,8.46,0,0,0-5.51-1.56h-6.56v12.12H523a8.34,8.34,0,0,0,5.51-1.59,6.27,6.27,0,0,0,0-9Z"/><path class="cls-3" d="M553.21,134a17.36,17.36,0,0,1-6.81-6.43,18.57,18.57,0,0,1,0-18.44,17.29,17.29,0,0,1,6.81-6.43,21.48,21.48,0,0,1,19.5,0,17.73,17.73,0,0,1,0,31.3,21.56,21.56,0,0,1-19.5,0Zm15.33-5.94a10.08,10.08,0,0,0,3.9-3.95,12.41,12.41,0,0,0,0-11.53,10.21,10.21,0,0,0-3.9-4,11.69,11.69,0,0,0-11.13,0,10.21,10.21,0,0,0-3.9,4,12.41,12.41,0,0,0,0,11.53,10.08,10.08,0,0,0,3.9,3.95,11.61,11.61,0,0,0,11.13,0Z"/><path class="cls-3" d="M593.16,132.22Q589,128.1,589,120.44V101h8v19.18q0,9.33,7.75,9.34a7.27,7.27,0,0,0,5.76-2.26q2-2.27,2-7.08V101h8v19.47q0,7.66-4.15,11.78t-11.6,4.12Q597.3,136.34,593.16,132.22Z"/><path class="cls-3" d="M653.2,117.81h7.36v14.11A20.92,20.92,0,0,1,654,135.2a25.52,25.52,0,0,1-7.5,1.14,20.34,20.34,0,0,1-9.74-2.31,17.16,17.16,0,0,1-6.78-6.41,18.68,18.68,0,0,1,0-18.53,17.1,17.1,0,0,1,6.83-6.41,20.71,20.71,0,0,1,9.84-2.31,21.63,21.63,0,0,1,8.29,1.54,16.48,16.48,0,0,1,6.26,4.47L656,111.15a12,12,0,0,0-9-3.92,12.23,12.23,0,0,0-5.91,1.39,10,10,0,0,0-4,3.92,11.58,11.58,0,0,0-1.45,5.82,11.46,11.46,0,0,0,1.45,5.76,10.13,10.13,0,0,0,4,3.95,11.76,11.76,0,0,0,5.83,1.42A13.07,13.07,0,0,0,653.2,128Z"/><path class="cls-3" d="M701.15,101v34.78h-8V121.49H677.3v14.26h-8V101h8v13.71h15.8V101Z"/><path class="cls-3" d="M757.59,135.75l-.05-20.87-10.23,17.19h-3.63L733.5,115.33v20.42h-7.56V101h6.66l13,21.61L758.44,101h6.61l.1,34.78Z"/><path class="cls-3" d="M791.33,123.43v12.32h-8.05V123.33L769.82,101h8.54l9.29,15.45L796.94,101h7.9Z"/><path class="cls-3" d="M824.77,101h8.05v28.22h17.44v6.56H824.77Z"/><path class="cls-3" d="M856,101h8.05v34.78H856Z"/><path class="cls-3" d="M881.61,107.43v9.19h16.1v6.46h-16.1v12.67h-8.05V101h26.28v6.46Z"/><path class="cls-3" d="M933.48,129.29v6.46H906.55V101h26.28v6.46H914.55V115H930.7v6.26H914.55v8Z"/><path class="cls-3" d="M324.63.86h11.66v40.9h25.28v9.5H324.63Z"/><path class="cls-3" d="M374.85,46.15q-6-6-6-17.06V.86H380.5v27.8q0,13.53,11.23,13.53,5.47,0,8.36-3.27T403,28.66V.86h11.52V29.09q0,11.08-6,17.06t-16.81,6Q380.86,52.13,374.85,46.15Z"/><path class="cls-3" d="M438,48.78a25,25,0,0,1-9.79-9.29,25.63,25.63,0,0,1-3.56-13.43,25.62,25.62,0,0,1,3.56-13.42A25,25,0,0,1,438,3.35,31.26,31.26,0,0,1,463.84,2.3a23.76,23.76,0,0,1,8.89,6.63l-7.48,6.91a16.1,16.1,0,0,0-12.68-5.9A16.8,16.8,0,0,0,444.22,12a14.63,14.63,0,0,0-5.72,5.72,16.8,16.8,0,0,0-2.05,8.35,16.84,16.84,0,0,0,2.05,8.36,14.7,14.7,0,0,0,5.72,5.72,16.8,16.8,0,0,0,8.35,2,16,16,0,0,0,12.68-6l7.48,6.91a23.23,23.23,0,0,1-8.92,6.69,29.62,29.62,0,0,1-11.88,2.31A29,29,0,0,1,438,48.78Z"/><path class="cls-3" d="M509.56,50.51a27.18,27.18,0,0,1-9-4.21l4-8.79a26.65,26.65,0,0,0,7.7,3.82,29,29,0,0,0,8.93,1.44q5,0,7.34-1.48a4.44,4.44,0,0,0,2.38-3.92,3.75,3.75,0,0,0-1.41-3,10.57,10.57,0,0,0-3.6-1.91q-2.19-.72-5.94-1.58a82.09,82.09,0,0,1-9.43-2.74,15.24,15.24,0,0,1-6.3-4.39,11.86,11.86,0,0,1-2.62-8.06,14.07,14.07,0,0,1,2.37-8,16,16,0,0,1,7.17-5.65A29.24,29.24,0,0,1,522.84,0a38.73,38.73,0,0,1,9.44,1.15,27.87,27.87,0,0,1,8.06,3.31l-3.6,8.86a28.11,28.11,0,0,0-14-4q-4.89,0-7.23,1.58a4.84,4.84,0,0,0-2.34,4.18A4.08,4.08,0,0,0,515.9,19a42.46,42.46,0,0,0,8.24,2.49,82.32,82.32,0,0,1,9.43,2.73,15.55,15.55,0,0,1,6.3,4.32,11.59,11.59,0,0,1,2.63,8,13.77,13.77,0,0,1-2.41,7.89A16.23,16.23,0,0,1,532.85,50a29.51,29.51,0,0,1-11.73,2.09A41.23,41.23,0,0,1,509.56,50.51Z"/><path class="cls-3" d="M585.48,40.46h-23.4l-4.46,10.8h-12L568.13.86h11.52l22.54,50.4H590Zm-3.67-8.85-8-19.3-8,19.3Z"/><path class="cls-3" d="M613.74,46.15q-6-6-6-17.06V.86H619.4v27.8q0,13.53,11.23,13.53c3.64,0,6.43-1.09,8.35-3.27s2.88-5.61,2.88-10.26V.86h11.52V29.09q0,11.08-6,17.06t-16.81,6Q619.76,52.13,613.74,46.15Z"/><path class="cls-3" d="M716.59.86l-21.81,50.4H683.26L661.51.86h12.6l15.34,36L705,.86Z"/><path class="cls-3" d="M763,41.9v9.36H724V.86H762.1v9.36H735.6v11H759v9.07H735.6V41.9Z"/><path class="cls-17" d="M210.18,422.93h0a4.92,4.92,0,0,1,2.67-6.32c20.85-8.87,35-20.74,44-36.93a4.93,4.93,0,0,1,6.47-2.08h0a4.93,4.93,0,0,1,2.2,6.81c-10.12,18.24-25.82,31.5-48.84,41.28A5,5,0,0,1,210.18,422.93Z"/><path class="cls-17" d="M250,426.35h0a4.94,4.94,0,0,1,2.65-6.31c15.47-6.74,26.14-15.64,33.07-27.63a5,5,0,0,1,6.46-2h0a4.93,4.93,0,0,1,2.17,6.86c-8,14-20.2,24.23-37.79,31.87A4.94,4.94,0,0,1,250,426.35Z"/><path class="cls-6" d="M230.5,555.2c40.67-6.42,71.61-39.12,71.61-78.49,0-44-38.63-79.64-86.27-79.64s-86.28,35.65-86.28,79.64c0,39.37,30.95,72.07,71.61,78.49a18.78,18.78,0,0,0,29.33,0Z"/><path class="cls-6" d="M301.76,483.91h.35c7.9,0,14.28,8.06,14.28,18s-6.38,18-14.28,18a13.06,13.06,0,0,1-10.29-5.51"/><path class="cls-6" d="M139.85,514.43a13,13,0,0,1-10.29,5.51c-7.89,0-14.28-8.06-14.28-18s6.39-18,14.28-18h.35"/><ellipse class="cls-3" cx="189.08" cy="497.65" rx="8.46" ry="10.58"/><ellipse class="cls-3" cx="250.08" cy="497.65" rx="8.46" ry="10.58"/><path class="cls-3" d="M217.29,538.57a32.86,32.86,0,0,1-14.16-2.92,17,17,0,0,1-4.75-3.36A4.92,4.92,0,0,1,202,524H202a4.91,4.91,0,0,1,3.5,1.47c1.7,1.72,6.17,3.24,11.75,3.24s10-1.52,11.74-3.24a4.91,4.91,0,0,1,3.5-1.47h0a4.91,4.91,0,0,1,3.62,8.27C232.32,536.18,225.59,538.57,217.29,538.57Z"/><path class="cls-3" d="M199.84,424.64h0a4.92,4.92,0,0,1,2.67-6.32c20.85-8.86,35-20.74,44.05-36.93a4.93,4.93,0,0,1,6.47-2.08h0a4.94,4.94,0,0,1,2.2,6.82c-10.12,18.23-25.82,31.5-48.84,41.27A5,5,0,0,1,199.84,424.64Z"/><path class="cls-3" d="M239.63,428.06h0a4.94,4.94,0,0,1,2.65-6.31c15.46-6.73,26.13-15.64,33.07-27.62a5,5,0,0,1,6.45-2h0a4.93,4.93,0,0,1,2.17,6.86c-8,14-20.2,24.23-37.8,31.88A4.94,4.94,0,0,1,239.63,428.06Z"/><path class="cls-6" d="M264.31,542.6c10.24,12,15.78,22.84,18.6,30.87a9.19,9.19,0,0,1-8.72,12.18H157.48a9.19,9.19,0,0,1-8.72-12.18c2.82-8,8.36-18.84,18.6-30.87"/><circle class="cls-17" cx="7.16" cy="673.99" r="7.16"/><line class="cls-18" x1="9.58" y1="717.43" x2="9.58" y2="680.21"/><line class="cls-18" x1="17.83" y1="711.94" x2="17.83" y2="686.23"/><line class="cls-18" x1="27.07" y1="711.94" x2="27.07" y2="686.23"/><line class="cls-18" x1="36.32" y1="711.94" x2="36.32" y2="686.23"/><line class="cls-18" x1="45.56" y1="711.94" x2="45.56" y2="686.23"/><line class="cls-18" x1="54.38" y1="717.43" x2="54.38" y2="680.21"/><circle class="cls-18" cx="9.58" cy="674.96" r="5.72"/><circle class="cls-18" cx="54.38" cy="674.96" r="5.72"/><line class="cls-18" x1="9.58" y1="686.38" x2="54.38" y2="686.38"/><line class="cls-18" x1="9.58" y1="711.94" x2="54.38" y2="711.94"/><circle class="cls-17" cx="135.14" cy="686.38" r="20.02"/><path class="cls-18" d="M147.14,693.34a24.09,24.09,0,0,1-48.18,0,24.24,24.24,0,0,1,3.23-12.05,24.09,24.09,0,0,1,41.72,0,24.24,24.24,0,0,1,3.23,12.05Z"/><path class="cls-18" d="M99.63,687.72a24.08,24.08,0,0,0,46.84,0"/><path class="cls-18" d="M102.19,681.29a24.09,24.09,0,0,1,41.72,0"/><path class="cls-18" d="M143.91,681.29a24.08,24.08,0,0,1-41.72,0,24.09,24.09,0,0,1,41.72,0Z"/><path class="cls-18" d="M123.05,686.55c2.37.18,9.37-1.36,12.09-3.64"/><rect class="cls-17" x="222.24" y="675.82" width="13.25" height="33.89" rx="5.4" ry="5.4"/><path class="cls-18" d="M202.92,684.53H226.6a0,0,0,0,1,0,0V710.4a6.92,6.92,0,0,1-6.92,6.92h-9.84a6.92,6.92,0,0,1-6.92-6.92V684.53A0,0,0,0,1,202.92,684.53Z"/><polyline class="cls-18" points="215.35 690.32 209.57 690.32 209.57 699 209.57 707.67 214.76 707.67"/><line class="cls-18" x1="214.76" y1="699" x2="209.57" y2="699"/><circle class="cls-18" cx="214.76" cy="664.17" r="4.42"/><path class="cls-18" d="M202.92,684.53a3.48,3.48,0,1,1,0-7c-.15-2.78,4.87-9,11.19-9"/><path class="cls-18" d="M225.3,684.53a3.48,3.48,0,1,0,0-7c.15-2.78-4.87-9-11.19-9"/><path class="cls-18" d="M214.11,674c2.38.44,5.7,2.33,6.86,4.57"/><polygon class="cls-17" points="322.89 698.12 314.78 714.01 330.83 714.01 322.89 698.12"/><path class="cls-3" d="M341,694a1.63,1.63,0,0,1-2.26.08A49.27,49.27,0,0,0,303,681.39c-12.27.49-24.67,5.28-31.47,12.06a1.63,1.63,0,0,1-2.24.08h0a1.64,1.64,0,0,1-.08-2.38c7.43-7.44,20.41-12.5,33.66-13a52.39,52.39,0,0,1,38,13.55A1.64,1.64,0,0,1,341,694Z"/><circle class="cls-18" cx="304.97" cy="662.98" r="4.2"/><line class="cls-18" x1="304.97" y1="667.18" x2="304.97" y2="679.72"/><line class="cls-18" x1="283.22" y1="684.69" x2="283.22" y2="704.05"/><line class="cls-18" x1="305.73" y1="680.85" x2="305.73" y2="696.21"/><line class="cls-18" x1="321.22" y1="682.91" x2="321.22" y2="706.42"/><circle class="cls-18" cx="283.22" cy="707.68" r="5.22"/><polygon class="cls-18" points="321.22 704.05 314.78 716.67 327.53 716.67 321.22 704.05"/><polygon class="cls-18" points="305.73 695.79 307.01 699.71 311.13 699.71 307.8 702.14 309.07 706.06 305.73 703.64 302.4 706.06 303.67 702.14 300.33 699.71 304.46 699.71 305.73 695.79"/><circle class="cls-17" cx="400.8" cy="672.02" r="15.05"/><circle class="cls-18" cx="405.11" cy="676.21" r="15.91"/><path class="cls-18" d="M401.45,666.9c4.82-.25,13.28,2.81,13.47,10.26"/><line class="cls-18" x1="390.37" y1="670.22" x2="411.23" y2="691.08"/><line class="cls-18" x1="394.66" y1="688.21" x2="383.74" y2="704"/><circle class="cls-18" cx="379.72" cy="710.98" r="8.26"/><circle class="cls-19" cx="853.48" cy="1350.02" r="24.51"/><path class="cls-20" d="M900.82,1360.12a30.06,30.06,0,1,1-8.33-20.76A29.93,29.93,0,0,1,900.82,1360.12Z"/><path class="cls-20" d="M900.82,1360.12a29.93,29.93,0,0,1-8.33,20.76,30.06,30.06,0,0,1,0-41.52A29.92,29.92,0,0,1,900.82,1360.12Z"/><path class="cls-20" d="M859.47,1360.12a29.92,29.92,0,0,1-9.39,21.81,30.08,30.08,0,0,1,0-43.63A30,30,0,0,1,859.47,1360.12Z"/><line class="cls-20" x1="870.76" y1="1330.06" x2="870.76" y2="1390.17"/><line class="cls-20" x1="840.71" y1="1360.12" x2="900.82" y2="1360.12"/><rect class="cls-19" x="952.55" y="1340.08" width="6.62" height="30.86" rx="3.31" ry="3.31" transform="translate(1182.31 -287.6) rotate(43.04)"/><path class="cls-20" d="M978.37,1334a3.75,3.75,0,0,1,3.36,3.2c2,13.91.54,25.36-11.09,36.61s-20.82,13.28-35.81,12.59a3.49,3.49,0,0,1-3.31-3.16c-1.42-14.93.12-24.18,10.82-36.38S964.38,1332.72,978.37,1334Z"/><line class="cls-20" x1="931.76" y1="1366.85" x2="951.23" y2="1385.39"/><line class="cls-20" x1="961.44" y1="1335.68" x2="980.91" y2="1354.23"/><line class="cls-20" x1="952.42" y1="1356.81" x2="960" y2="1364.03"/><line class="cls-20" x1="958.71" y1="1350.2" x2="966.29" y2="1357.41"/><line class="cls-20" x1="946.96" y1="1362.54" x2="954.54" y2="1369.76"/><line class="cls-20" x1="947.06" y1="1370.27" x2="965.6" y2="1350.8"/><rect class="cls-19" x="706" y="1367.37" width="6.79" height="15.86" rx="3.39" ry="3.39" transform="translate(402.19 -141.38) rotate(15.83)"/><path class="cls-20" d="M693,1375.47a19.37,19.37,0,0,0,7.17-15.26c0-10.39-7.72-18.81-17.23-18.81s-17.23,8.42-17.23,18.81S673.45,1379,683,1379a15.88,15.88,0,0,0,4.59-.68"/><line class="cls-20" x1="675.16" y1="1376.97" x2="699.52" y2="1365.42"/><rect class="cls-20" x="689.45" y="1373.5" width="6.18" height="15.82" rx="3.09" ry="3.09" transform="translate(-543.16 453.53) rotate(-26.47)"/><circle class="cls-20" cx="685.58" cy="1349.83" r="2.83"/><path class="cls-20" d="M700,1362.81c.35.39.72.76,1.11,1.12a15.91,15.91,0,0,0,3.84,2.59"/><path class="cls-20" d="M696.16,1348.12a19.85,19.85,0,0,1,4.89-9.69c7-7.68,18.36-8.72,25.4-2.31s7.07,17.82.08,25.5a19.32,19.32,0,0,1-15.57,6.46"/><line class="cls-20" x1="722.53" y1="1365.02" x2="700.1" y2="1358.19"/><rect class="cls-20" x="703.51" y="1364.24" width="6.18" height="15.82" rx="3.09" ry="3.09" transform="translate(401.22 -140.74) rotate(15.83)"/><circle class="cls-20" cx="698.2" cy="1332.9" r="2.83"/><circle class="cls-19" cx="794.69" cy="1370.35" r="9.94"/><rect class="cls-20" x="771.97" y="1332.16" width="25.57" height="56.52" rx="2.82" ry="2.82"/><rect class="cls-20" x="777.89" y="1339.15" width="13.73" height="13.73" rx="2.82" ry="2.82"/><circle class="cls-20" cx="784.75" cy="1375.29" r="7.53"/><rect class="cls-19" x="994.29" y="1372.49" width="57.78" height="16.95" rx="8.47" ry="8.47"/><path class="cls-3" d="M1081.87,1384.61H1003.7v-36h78.17Zm-75.1-3.07h72v-29.88h-72Z"/><rect class="cls-3" x="1017.12" y="1360.98" width="3.07" height="11.5"/><rect class="cls-3" x="1012.9" y="1365.2" width="11.5" height="3.07"/><rect class="cls-3" x="1033.49" y="1358.64" width="6.99" height="2.39" rx="1.2" ry="1.2"/><rect class="cls-3" x="1045.09" y="1358.64" width="6.99" height="2.39" rx="1.2" ry="1.2"/><circle class="cls-3" cx="1061.28" cy="1363.38" r="4.41"/><circle class="cls-3" cx="1071.17" cy="1372.49" r="4.41"/><path class="cls-3" d="M1044.32,1350.12h-3.07c0-11.45,5.45-17.77,15.79-18.35a1.54,1.54,0,0,1,1.62,1.53h0a1.55,1.55,0,0,1-1.47,1.54C1048.53,1335.33,1044.32,1340.35,1044.32,1350.12Z"/><ellipse class="cls-3" cx="832.74" cy="1090.65" rx="6.29" ry="7.86"/><ellipse class="cls-3" cx="892.74" cy="1090.65" rx="6.29" ry="7.86"/><rect class="cls-19" x="842.62" y="1172.73" width="127.04" height="51.34" rx="23.05" ry="23.05"/><rect class="cls-3" x="879.3" y="1071.18" width="26.84" height="6.39" rx="3.2" ry="3.2"/><path class="cls-3" d="M867,1119.9h-9.19a3.2,3.2,0,0,1-3.2-3.2v-35.93a3.19,3.19,0,0,0-3.19-3.2H828a3.19,3.19,0,0,1-3.19-3.19h0a3.19,3.19,0,0,1,3.19-3.2h29.84a3.19,3.19,0,0,1,3.19,3.2v35.93a3.21,3.21,0,0,0,3.2,3.2H867a3.19,3.19,0,0,1,3.2,3.19h0A3.2,3.2,0,0,1,867,1119.9Z"/><path class="cls-3" d="M885,1138.41a123.79,123.79,0,0,1-44.64,0,1.31,1.31,0,0,1-1-1.55l.85-3.55a1.29,1.29,0,0,1,1.56-.94c13.67,2.9,28.23,3.29,41.9,0a1.3,1.3,0,0,1,1.56.94l.85,3.55A1.32,1.32,0,0,1,885,1138.41Z"/><rect class="cls-3" x="850.31" y="1143.43" width="26.84" height="6.19" rx="3.1" ry="3.1"/><path class="cls-6" d="M864.74,1256.62H749.4v-17.15c0-14.22,16.87-28.45,44.69-32,11.11-1.42,21.65-6.22,29.35-14.36,6.62-7,11.69-15.2,11.69-28.45"/><path class="cls-6" d="M863.18,1256.62H978.52v-17.15c0-14.22-16.87-28.45-44.69-32-11.11-1.42-21.65-6.22-29.34-14.36-6.63-7-11.69-15.2-11.69-28.45"/><path class="cls-6" d="M918.67,1037.23v74c0,35.1-31,64-53.68,64h-2.06c-22.71,0-53.68-28.91-53.68-64v-65c0-8.89,2.74-16.74,10.66-21.21.05,4,10.57-1.52,10.57-1.52,8.26-13.42,16.67-21.33,22.17-20.64C849.9,1008,850,1018,850,1018c5.74-3.1,19.73-15.66,26.84-16.69,0,7,6.81,16.08,6.81,16.08,6.2-5.16,24.59-8.34,26.11-8.68-3.14,5.46,2.76,13.07,2.76,13.07C918.72,1032.4,918.67,1037.23,918.67,1037.23Z"/><path class="cls-21" d="M799.6,1256.62h-4.83v-18.11a2.42,2.42,0,0,1,2.42-2.42h0a2.41,2.41,0,0,1,2.41,2.42Z"/><path class="cls-21" d="M928.32,1256.62h4.83v-18.11a2.41,2.41,0,0,0-2.41-2.42h0a2.42,2.42,0,0,0-2.42,2.42Z"/><rect class="cls-6" x="800" y="1076.54" width="7.57" height="22.88" rx="1.83" ry="1.83"/><rect class="cls-6" x="920.35" y="1076.54" width="7.57" height="22.88" rx="1.83" ry="1.83" transform="translate(1848.28 2175.97) rotate(-180)"/><path class="cls-6" d="M903.15,1191.64h0a117,117,0,0,1-78.37,0h0"/><path class="cls-6" d="M809.25,1081.6l5.15-12.11a31,31,0,0,1,28.49-18.84h44.26a31,31,0,0,1,27.59,16.92l3.93,7.73"/><line class="cls-22" x1="542.02" y1="374.02" x2="542.02" y2="3906.02"/><circle class="cls-12" cx="545.02" cy="2855.52" r="46"/><circle class="cls-8" cx="542.02" cy="2234.52" r="46"/><circle class="cls-1" cx="542.02" cy="1615.52" r="46"/><circle class="cls-19" cx="542.02" cy="996.52" r="46"/><circle class="cls-17" cx="542.02" cy="377.52" r="46"/><path class="cls-23" d="M517.2,364.67a3.8,3.8,0,0,1,1.1,2.83,6.43,6.43,0,0,1-.21,1.62,20.43,20.43,0,0,1-.85,2.45l-2.36,5.86h-4L512.6,371a3.55,3.55,0,0,1-1.59-1.34,4,4,0,0,1-.57-2.16,3.74,3.74,0,0,1,1.12-2.83,3.9,3.9,0,0,1,2.83-1.08A3.85,3.85,0,0,1,517.2,364.67Z"/><path class="cls-23" d="M542.08,368.78q3.38,3.64,3.38,10.49a17.63,17.63,0,0,1-1.81,8.3,12.36,12.36,0,0,1-5.11,5.26,15.77,15.77,0,0,1-7.62,1.79,18.27,18.27,0,0,1-4.36-.51,11.92,11.92,0,0,1-3.54-1.44l2.44-4.85a9.27,9.27,0,0,0,5.34,1.42,7.74,7.74,0,0,0,5.74-2.13,9,9,0,0,0,2.28-6.17,9.57,9.57,0,0,1-7.09,2.56,11.14,11.14,0,0,1-5-1.1,8.66,8.66,0,0,1-3.55-3.11,8.41,8.41,0,0,1-1.3-4.67,8.89,8.89,0,0,1,1.43-5,9.4,9.4,0,0,1,3.88-3.32,12.78,12.78,0,0,1,5.48-1.16Q538.7,365.13,542.08,368.78Zm-5.36,8.59a4.17,4.17,0,0,0,0-6.13,5.34,5.34,0,0,0-3.65-1.18,5.08,5.08,0,0,0-3.44,1.14,3.88,3.88,0,0,0-1.32,3.1,3.93,3.93,0,0,0,1.32,3.11,5.84,5.84,0,0,0,7,0Z"/><path class="cls-23" d="M568.35,377.35a8.65,8.65,0,0,1,3.54,3.12,8.38,8.38,0,0,1,1.3,4.66,8.88,8.88,0,0,1-1.42,5,9.28,9.28,0,0,1-3.89,3.32,12.75,12.75,0,0,1-5.48,1.16q-6,0-9.37-3.67t-3.38-10.46a17.58,17.58,0,0,1,1.84-8.31,12.39,12.39,0,0,1,5.11-5.25,15.51,15.51,0,0,1,7.59-1.8,18.5,18.5,0,0,1,4.38.51,11.48,11.48,0,0,1,3.56,1.45l-2.44,4.85a9.35,9.35,0,0,0-5.33-1.43,7.79,7.79,0,0,0-5.75,2.12,8.87,8.87,0,0,0-2.28,6.15,9.51,9.51,0,0,1,7-2.53A11.19,11.19,0,0,1,568.35,377.35Zm-2.87,11.2a3.87,3.87,0,0,0,1.32-3.09,3.93,3.93,0,0,0-1.32-3.12,5.89,5.89,0,0,0-7.07,0,3.9,3.9,0,0,0-1.38,3.08,3.85,3.85,0,0,0,1.34,3.05,5.35,5.35,0,0,0,3.66,1.18A5.11,5.11,0,0,0,565.48,388.55Z"/><path class="cls-23" d="M516.2,980.67a3.8,3.8,0,0,1,1.1,2.83,6.43,6.43,0,0,1-.21,1.62,20.43,20.43,0,0,1-.85,2.45l-2.36,5.86h-4L511.6,987a3.55,3.55,0,0,1-1.59-1.34,4,4,0,0,1-.57-2.16,3.74,3.74,0,0,1,1.12-2.83,3.9,3.9,0,0,1,2.83-1.08A3.85,3.85,0,0,1,516.2,980.67Z"/><path class="cls-23" d="M527.19,1008.87a11.77,11.77,0,0,1-4.33-5.07,20.76,20.76,0,0,1,0-15.84,11.64,11.64,0,0,1,21.29,0,20.76,20.76,0,0,1,0,15.84,11.77,11.77,0,0,1-4.33,5.07,12.27,12.27,0,0,1-12.63,0Zm10.41-6.07q1.49-2.24,1.48-6.92c0-3.13-.49-5.43-1.48-6.93a4.83,4.83,0,0,0-8.15,0c-1,1.5-1.48,3.8-1.48,6.93s.49,5.43,1.48,6.92a4.83,4.83,0,0,0,8.15,0Z"/><path class="cls-23" d="M568.63,994.74a8,8,0,0,1,2.87,6.43,9,9,0,0,1-1.3,4.75,9.16,9.16,0,0,1-4,3.42,15.19,15.19,0,0,1-6.58,1.28,22.76,22.76,0,0,1-5.92-.79,15.28,15.28,0,0,1-5-2.26l2.6-5.05a12.71,12.71,0,0,0,3.75,1.89,14.23,14.23,0,0,0,4.36.67,6.85,6.85,0,0,0,3.91-1,3.11,3.11,0,0,0,1.42-2.72,3,3,0,0,0-1.48-2.77q-1.49-.95-5.16-.94H550.9l1.46-16h17.39v5.3H557.86l-.45,5.41h2.32Q565.76,992.33,568.63,994.74Z"/><path class="cls-23" d="M522.2,1598.67a3.8,3.8,0,0,1,1.1,2.83,6.43,6.43,0,0,1-.21,1.62,20.43,20.43,0,0,1-.85,2.45l-2.36,5.86h-4l1.76-6.43a3.55,3.55,0,0,1-1.59-1.34,4,4,0,0,1-.57-2.16,3.74,3.74,0,0,1,1.12-2.83,3.9,3.9,0,0,1,2.83-1.08A3.85,3.85,0,0,1,522.2,1598.67Z"/><path class="cls-23" d="M540.07,1599.62v28.51h-6.59v-23.21h-5.7v-5.3Z"/><path class="cls-23" d="M567.36,1622.75v5.38H545.82v-4.28l11-10.38a11.71,11.71,0,0,0,2.37-2.87,5.33,5.33,0,0,0,.61-2.38,3.17,3.17,0,0,0-1.16-2.63,5.42,5.42,0,0,0-3.4-.92,7.8,7.8,0,0,0-3.39.72,6.44,6.44,0,0,0-2.52,2.13l-4.81-3.09a11.31,11.31,0,0,1,4.61-3.89,15.29,15.29,0,0,1,6.72-1.41,13.89,13.89,0,0,1,5.56,1,8.6,8.6,0,0,1,3.7,2.94,7.57,7.57,0,0,1,1.32,4.45,10,10,0,0,1-1,4.36,16.68,16.68,0,0,1-3.79,4.64l-6.56,6.19Z"/><path class="cls-23" d="M521.2,2217.67a3.8,3.8,0,0,1,1.1,2.83,6.43,6.43,0,0,1-.21,1.62,20.43,20.43,0,0,1-.85,2.45l-2.36,5.86h-4l1.76-6.43a3.55,3.55,0,0,1-1.59-1.34,4,4,0,0,1-.57-2.16,3.74,3.74,0,0,1,1.12-2.83,3.9,3.9,0,0,1,2.83-1.08A3.85,3.85,0,0,1,521.2,2217.67Z"/><path class="cls-23" d="M539.07,2218.62v28.51h-6.59v-23.21h-5.7v-5.3Z"/><path class="cls-23" d="M563.75,2230.35a8.61,8.61,0,0,1,3.55,3.12,8.38,8.38,0,0,1,1.3,4.66,8.88,8.88,0,0,1-1.42,5,9.28,9.28,0,0,1-3.89,3.32,12.78,12.78,0,0,1-5.48,1.16q-6,0-9.37-3.67t-3.38-10.46a17.58,17.58,0,0,1,1.83-8.31,12.47,12.47,0,0,1,5.12-5.25,15.49,15.49,0,0,1,7.59-1.8,18.5,18.5,0,0,1,4.38.51,11.48,11.48,0,0,1,3.56,1.45l-2.44,4.85a9.36,9.36,0,0,0-5.34-1.43,7.77,7.77,0,0,0-5.74,2.12,8.87,8.87,0,0,0-2.28,6.15,9.5,9.5,0,0,1,7-2.53A11.11,11.11,0,0,1,563.75,2230.35Zm-2.87,11.2a3.85,3.85,0,0,0,1.33-3.09,3.91,3.91,0,0,0-1.33-3.12,5.87,5.87,0,0,0-7.06,0,4.11,4.11,0,0,0,0,6.13,5.32,5.32,0,0,0,3.66,1.18A5.08,5.08,0,0,0,560.88,2241.55Z"/><path class="cls-23" d="M518.2,2838.67a3.8,3.8,0,0,1,1.1,2.83,6.43,6.43,0,0,1-.21,1.62,20.43,20.43,0,0,1-.85,2.45l-2.36,5.86h-4l1.76-6.43a3.55,3.55,0,0,1-1.59-1.34,4,4,0,0,1-.57-2.16,3.74,3.74,0,0,1,1.12-2.83,3.9,3.9,0,0,1,2.83-1.08A3.85,3.85,0,0,1,518.2,2838.67Z"/><path class="cls-23" d="M545.4,2862.75v5.38H523.86v-4.28l11-10.38a11.71,11.71,0,0,0,2.37-2.87,5.33,5.33,0,0,0,.61-2.38,3.17,3.17,0,0,0-1.16-2.63,5.42,5.42,0,0,0-3.4-.92,7.8,7.8,0,0,0-3.39.72,6.44,6.44,0,0,0-2.52,2.13l-4.81-3.09a11.31,11.31,0,0,1,4.61-3.89,15.29,15.29,0,0,1,6.72-1.41,13.89,13.89,0,0,1,5.56,1,8.6,8.6,0,0,1,3.7,2.94,7.57,7.57,0,0,1,1.32,4.45,10,10,0,0,1-1,4.36,16.68,16.68,0,0,1-3.79,4.64l-6.56,6.19Z"/><path class="cls-23" d="M574.85,2862.14H570.2v6h-6.43v-6H548.41v-4.43l13.44-18.09h6.93l-12.46,17.15H564v-5.34h6.23v5.34h4.65Z"/></g></g></svg>