<svg xmlns="http://www.w3.org/2000/svg" viewBox="0 0 331.71 152.99"><defs><style>.cls-1{fill:#9f9ef2;}.cls-2{fill:#534d72;}</style></defs><title>Asset 53</title><g id="Layer_2" data-name="Layer 2"><g id="Layer_1-2" data-name="Layer 1"><path class="cls-1" d="M9.13,7.1H0V1.71H24.88V7.1H15.74V30.26H9.13Z"/><path class="cls-1" d="M48.92,10.44q2.51,2.45,2.5,7.26V30.26H45.06V18.68a5.75,5.75,0,0,0-1.14-3.9,4.2,4.2,0,0,0-3.3-1.28A5.05,5.05,0,0,0,36.78,15a6.15,6.15,0,0,0-1.42,4.42V30.26H29V0h6.36V10.6a8.32,8.32,0,0,1,3.06-1.93A11,11,0,0,1,42.33,8,9.06,9.06,0,0,1,48.92,10.44Z"/><path class="cls-1" d="M79.81,21.08H63.21a5.12,5.12,0,0,0,2.12,3.22,7,7,0,0,0,4.16,1.19,8.46,8.46,0,0,0,3-.51A7.42,7.42,0,0,0,75,23.37L78.38,27q-3.1,3.54-9,3.54a14.38,14.38,0,0,1-6.57-1.44,10.66,10.66,0,0,1-4.4-4,11,11,0,0,1-1.55-5.83,11.27,11.27,0,0,1,1.52-5.81,10.7,10.7,0,0,1,4.21-4,13,13,0,0,1,11.8-.06,10.07,10.07,0,0,1,4.1,4,11.85,11.85,0,0,1,1.49,6Q79.93,19.49,79.81,21.08ZM64.92,14a5.15,5.15,0,0,0-1.79,3.34h10.8a5.22,5.22,0,0,0-1.79-3.32,5.37,5.37,0,0,0-3.59-1.24A5.46,5.46,0,0,0,64.92,14Z"/><path class="cls-1" d="M104.11,7.1H95V1.71h24.87V7.1h-9.13V30.26h-6.61Z"/><path class="cls-1" d="M143.1,21.08H126.5a5.12,5.12,0,0,0,2.12,3.22,7,7,0,0,0,4.16,1.19,8.46,8.46,0,0,0,3-.51,7.56,7.56,0,0,0,2.47-1.61L141.67,27q-3.1,3.54-9,3.54a14.38,14.38,0,0,1-6.57-1.44,10.66,10.66,0,0,1-4.4-4,11,11,0,0,1-1.55-5.83,11.18,11.18,0,0,1,1.53-5.81,10.74,10.74,0,0,1,4.2-4,13,13,0,0,1,11.8-.06,10.07,10.07,0,0,1,4.1,4,11.85,11.85,0,0,1,1.49,6Q143.22,19.49,143.1,21.08Zm-14.89-7a5.15,5.15,0,0,0-1.79,3.34h10.8a5.22,5.22,0,0,0-1.79-3.32,5.37,5.37,0,0,0-3.59-1.24A5.46,5.46,0,0,0,128.21,14Z"/><path class="cls-1" d="M169.85,21.08h-16.6a5.16,5.16,0,0,0,2.12,3.22,7,7,0,0,0,4.16,1.19,8.42,8.42,0,0,0,3-.51A7.45,7.45,0,0,0,165,23.37L168.42,27q-3.09,3.54-9,3.54a14.41,14.41,0,0,1-6.57-1.44,10.66,10.66,0,0,1-4.4-4,11.1,11.1,0,0,1-1.55-5.83,11.18,11.18,0,0,1,1.53-5.81,10.74,10.74,0,0,1,4.2-4,13,13,0,0,1,11.8-.06,10.07,10.07,0,0,1,4.1,4,11.85,11.85,0,0,1,1.49,6Q170,19.49,169.85,21.08ZM155,14a5.24,5.24,0,0,0-1.79,3.34H164a5.28,5.28,0,0,0-1.8-3.32,5.35,5.35,0,0,0-3.59-1.24A5.46,5.46,0,0,0,155,14Z"/><path class="cls-1" d="M195.15,10.44c1.68,1.63,2.51,4.05,2.51,7.26V30.26H191.3V18.68a5.75,5.75,0,0,0-1.14-3.9,4.22,4.22,0,0,0-3.31-1.28A5,5,0,0,0,183,15a6.15,6.15,0,0,0-1.43,4.42V30.26h-6.36V8.32h6.08v2.57a8.32,8.32,0,0,1,3.14-2.14A10.79,10.79,0,0,1,188.57,8,9,9,0,0,1,195.15,10.44Z"/><path class="cls-1" d="M231.14,20.15V30.26h-6.61V20.06L213.48,1.71h7l7.62,12.69,7.63-12.69h6.48Z"/><path class="cls-1" d="M264.5,21.08H247.9A5.16,5.16,0,0,0,250,24.3a7,7,0,0,0,4.16,1.19,8.42,8.42,0,0,0,3-.51,7.45,7.45,0,0,0,2.47-1.61L263.07,27q-3.09,3.54-9,3.54a14.41,14.41,0,0,1-6.57-1.44,10.66,10.66,0,0,1-4.4-4,11.1,11.1,0,0,1-1.55-5.83A11.18,11.18,0,0,1,243,13.48a10.74,10.74,0,0,1,4.2-4A13,13,0,0,1,259,9.38a10.11,10.11,0,0,1,4.09,4,11.85,11.85,0,0,1,1.49,6Q264.62,19.49,264.5,21.08Zm-14.89-7a5.24,5.24,0,0,0-1.79,3.34h10.81a5.28,5.28,0,0,0-1.8-3.32,5.35,5.35,0,0,0-3.59-1.24A5.46,5.46,0,0,0,249.61,14Z"/><path class="cls-1" d="M286,10.42q2.73,2.43,2.73,7.32V30.26h-5.95V27.53c-1.2,2-3.43,3-6.69,3a10.34,10.34,0,0,1-4.38-.85,6.5,6.5,0,0,1-2.84-2.37,6.14,6.14,0,0,1-1-3.42,5.69,5.69,0,0,1,2.31-4.81q2.3-1.75,7.11-1.76h5.06a4.07,4.07,0,0,0-1.26-3.2,5.58,5.58,0,0,0-3.8-1.12,11,11,0,0,0-3.44.55,9.11,9.11,0,0,0-2.88,1.49l-2.28-4.45a13.73,13.73,0,0,1,4.3-2,19,19,0,0,1,5.16-.7Q283.22,8,286,10.42Zm-5.42,15.13a4.13,4.13,0,0,0,1.79-2.22V21.08H278q-3.91,0-3.92,2.57a2.29,2.29,0,0,0,1,1.94,4.28,4.28,0,0,0,2.63.71A5.59,5.59,0,0,0,280.53,25.55Z"/><path class="cls-1" d="M304.61,8.81A11.48,11.48,0,0,1,309.07,8v5.88c-.71-.06-1.18-.09-1.43-.09a5.82,5.82,0,0,0-4.28,1.53,6.2,6.2,0,0,0-1.55,4.59V30.26h-6.36V8.32h6.08v2.89A7,7,0,0,1,304.61,8.81Z"/><path class="cls-1" d="M316,29.91a14.07,14.07,0,0,1-4.16-1.69L314,23.65a13,13,0,0,0,3.54,1.53,14.69,14.69,0,0,0,4.08.59c2.69,0,4-.66,4-2a1.41,1.41,0,0,0-1.1-1.34,16.5,16.5,0,0,0-3.39-.69,34.57,34.57,0,0,1-4.44-.94,7,7,0,0,1-3-1.88,5.31,5.31,0,0,1-1.28-3.83,6,6,0,0,1,1.2-3.69,7.71,7.71,0,0,1,3.5-2.51,15,15,0,0,1,5.45-.9,21.39,21.39,0,0,1,4.63.51A13,13,0,0,1,331,9.91l-2.12,4.53a12.64,12.64,0,0,0-6.32-1.63,6.45,6.45,0,0,0-3.06.57,1.68,1.68,0,0,0-1,1.46,1.46,1.46,0,0,0,1.1,1.43,20.32,20.32,0,0,0,3.51.78,37.93,37.93,0,0,1,4.4.95,6.55,6.55,0,0,1,3,1.86,5.29,5.29,0,0,1,1.27,3.75,5.77,5.77,0,0,1-1.23,3.63,7.8,7.8,0,0,1-3.57,2.47,16,16,0,0,1-5.56.87A21.32,21.32,0,0,1,316,29.91Z"/><path class="cls-2" d="M20.19,51.26,16.11,63.74H13l-2.74-8.45L7.42,63.74H4.33L.23,51.26h3L6.05,60,9,51.26h2.68l2.85,8.84,2.91-8.84Z"/><path class="cls-2" d="M21.92,52.36a1.44,1.44,0,0,1-.48-1.1,1.46,1.46,0,0,1,.48-1.11,1.78,1.78,0,0,1,1.25-.45,1.84,1.84,0,0,1,1.25.43,1.38,1.38,0,0,1,.48,1.07,1.5,1.5,0,0,1-.48,1.15,1.72,1.72,0,0,1-1.25.46A1.78,1.78,0,0,1,21.92,52.36Zm-.14,1.79h2.78v9.59H21.78Z"/><path class="cls-2" d="M33.34,63.28a3,3,0,0,1-1,.46,5,5,0,0,1-1.25.15A3.69,3.69,0,0,1,28.43,63a3.32,3.32,0,0,1-.94-2.57V56.5H26V54.36h1.48V52h2.78v2.34h2.4V56.5h-2.4v3.91a1.3,1.3,0,0,0,.32.93,1.14,1.14,0,0,0,.88.33,1.76,1.76,0,0,0,1.12-.35Z"/><path class="cls-2" d="M43.63,55.07a4.28,4.28,0,0,1,1.1,3.18v5.49H41.94V58.68a2.5,2.5,0,0,0-.5-1.71A1.83,1.83,0,0,0,40,56.41a2.23,2.23,0,0,0-1.68.65A2.69,2.69,0,0,0,37.7,59v4.74H34.91V50.51H37.7v4.63A3.64,3.64,0,0,1,39,54.3a4.82,4.82,0,0,1,1.72-.3A4,4,0,0,1,43.63,55.07Z"/><path class="cls-2" d="M59.59,55.06a4.1,4.1,0,0,1,1.19,3.21v5.47h-2.6V62.55a3.12,3.12,0,0,1-2.93,1.34,4.53,4.53,0,0,1-1.92-.38,2.89,2.89,0,0,1-1.24-1,2.73,2.73,0,0,1-.42-1.5,2.52,2.52,0,0,1,1-2.11,5.16,5.16,0,0,1,3.12-.76H58a1.79,1.79,0,0,0-.55-1.4,2.44,2.44,0,0,0-1.66-.49,4.82,4.82,0,0,0-1.51.24,4,4,0,0,0-1.26.65l-1-2a5.91,5.91,0,0,1,1.88-.85A8.22,8.22,0,0,1,56.16,54,5,5,0,0,1,59.59,55.06Zm-2.38,6.62a1.82,1.82,0,0,0,.79-1v-1H56.09c-1.14,0-1.71.37-1.71,1.12a1,1,0,0,0,.42.85A1.87,1.87,0,0,0,56,62,2.42,2.42,0,0,0,57.21,61.68Z"/><path class="cls-2" d="M77.06,55.07a4.28,4.28,0,0,1,1.1,3.18v5.49H75.38V58.68a2.55,2.55,0,0,0-.5-1.71,1.87,1.87,0,0,0-1.45-.56,2.24,2.24,0,0,0-1.68.65A2.74,2.74,0,0,0,71.13,59v4.74H68.35V54.15H71v1.12a3.76,3.76,0,0,1,1.38-.94,4.77,4.77,0,0,1,1.8-.33A4,4,0,0,1,77.06,55.07Z"/><path class="cls-2" d="M90.13,59.73H82.87a2.28,2.28,0,0,0,.93,1.41,3.08,3.08,0,0,0,1.82.52,3.58,3.58,0,0,0,1.32-.23,3,3,0,0,0,1.08-.7l1.48,1.6a5,5,0,0,1-4,1.56,6.16,6.16,0,0,1-2.87-.64,4.59,4.59,0,0,1-1.92-1.75,4.78,4.78,0,0,1-.68-2.56,4.9,4.9,0,0,1,.67-2.54,4.63,4.63,0,0,1,1.83-1.76A5.32,5.32,0,0,1,85.19,54a5.4,5.4,0,0,1,2.55.61,4.35,4.35,0,0,1,1.79,1.74A5.11,5.11,0,0,1,90.18,59S90.17,59.27,90.13,59.73Zm-6.51-3.09a2.32,2.32,0,0,0-.79,1.47h4.73a2.27,2.27,0,0,0-2.35-2A2.44,2.44,0,0,0,83.62,56.64Z"/><path class="cls-2" d="M107.28,54.15l-3.48,9.59h-2.68l-2.16-6-2.23,6H94.06l-3.47-9.59h2.63l2.26,6.49,2.36-6.49h2.35l2.29,6.49,2.33-6.49Z"/><path class="cls-2" d="M116.68,54.36h2.46V56.5h-2.39v7.24H114V56.5h-1.49V54.36H114v-.43a3.49,3.49,0,0,1,1-2.6,3.7,3.7,0,0,1,2.74-1,5,5,0,0,1,1.18.14,2.8,2.8,0,0,1,.94.38l-.73,2a1.89,1.89,0,0,0-1.13-.34c-.84,0-1.26.46-1.26,1.39Z"/><path class="cls-2" d="M122.25,63.25a4.67,4.67,0,0,1-1.88-1.75,5.14,5.14,0,0,1,0-5.11,4.67,4.67,0,0,1,1.88-1.75A5.66,5.66,0,0,1,125,54a5.59,5.59,0,0,1,2.71.64,4.67,4.67,0,0,1,1.88,1.75,5.14,5.14,0,0,1,0,5.11,4.67,4.67,0,0,1-1.88,1.75,5.59,5.59,0,0,1-2.71.64A5.66,5.66,0,0,1,122.25,63.25Zm4.48-2.37a3.06,3.06,0,0,0,0-3.87,2.51,2.51,0,0,0-3.52,0,3,3,0,0,0,0,3.87,2.51,2.51,0,0,0,3.52,0Z"/><path class="cls-2" d="M141.76,54.15v9.59h-2.64V62.6a3.68,3.68,0,0,1-1.32,1,4.56,4.56,0,0,1-4.66-.76,4.37,4.37,0,0,1-1.1-3.23V54.15h2.78v5c0,1.55.65,2.32,2,2.32a2.09,2.09,0,0,0,1.6-.65,2.74,2.74,0,0,0,.61-1.94V54.15Z"/><path class="cls-2" d="M153.06,55.07a4.28,4.28,0,0,1,1.1,3.18v5.49h-2.78V58.68a2.55,2.55,0,0,0-.5-1.71,1.87,1.87,0,0,0-1.45-.56,2.21,2.21,0,0,0-1.67.65,2.7,2.7,0,0,0-.63,1.94v4.74h-2.78V54.15H147v1.12a3.72,3.72,0,0,1,1.37-.94,4.8,4.8,0,0,1,1.8-.33A4,4,0,0,1,153.06,55.07Z"/><path class="cls-2" d="M166.56,50.51V63.74H163.9v-1.1a3.67,3.67,0,0,1-3,1.25,5,5,0,0,1-2.46-.61,4.34,4.34,0,0,1-1.72-1.73,5.78,5.78,0,0,1,0-5.21,4.34,4.34,0,0,1,1.72-1.73,5,5,0,0,1,2.46-.61,3.66,3.66,0,0,1,2.87,1.16V50.51Zm-3.43,10.37a3,3,0,0,0,0-3.87,2.31,2.31,0,0,0-1.74-.72,2.34,2.34,0,0,0-1.77.72,3,3,0,0,0,0,3.87,2.34,2.34,0,0,0,1.77.72A2.31,2.31,0,0,0,163.13,60.88Z"/><path class="cls-2" d="M174.18,50.51H177V63.74h-2.78Z"/><path class="cls-2" d="M181.39,63.25a4.67,4.67,0,0,1-1.88-1.75,5.14,5.14,0,0,1,0-5.11,4.67,4.67,0,0,1,1.88-1.75,5.7,5.7,0,0,1,2.73-.64,5.62,5.62,0,0,1,2.71.64,4.71,4.71,0,0,1,1.87,1.75,5.14,5.14,0,0,1,0,5.11,4.71,4.71,0,0,1-1.87,1.75,5.62,5.62,0,0,1-2.71.64A5.7,5.7,0,0,1,181.39,63.25Zm4.48-2.37a3.06,3.06,0,0,0,0-3.87,2.3,2.3,0,0,0-1.75-.72,2.34,2.34,0,0,0-1.77.72,3,3,0,0,0,0,3.87,2.34,2.34,0,0,0,1.77.72A2.3,2.3,0,0,0,185.87,60.88Z"/><path class="cls-2" d="M200.49,54.15l-4.05,9.59h-2.87l-4-9.59h2.87l2.66,6.53,2.75-6.53Z"/><path class="cls-2" d="M210.72,59.73h-7.26a2.26,2.26,0,0,0,.92,1.41,3.13,3.13,0,0,0,1.82.52,3.63,3.63,0,0,0,1.33-.23,3,3,0,0,0,1.08-.7l1.48,1.6a5,5,0,0,1-4,1.56,6.16,6.16,0,0,1-2.87-.64,4.62,4.62,0,0,1-1.93-1.75,4.87,4.87,0,0,1-.68-2.56,5,5,0,0,1,.67-2.54,4.72,4.72,0,0,1,1.84-1.76,5.31,5.31,0,0,1,2.61-.64,5.47,5.47,0,0,1,2.56.61,4.41,4.41,0,0,1,1.79,1.74,5.21,5.21,0,0,1,.65,2.63S210.75,59.27,210.72,59.73Zm-6.52-3.09a2.31,2.31,0,0,0-.78,1.47h4.73a2.29,2.29,0,0,0-2.36-2A2.44,2.44,0,0,0,204.2,56.64Z"/><path class="cls-2" d="M220.72,54.36h2.47V56.5H220.8v7.24H218V56.5h-1.48V54.36H218v-.43a3.49,3.49,0,0,1,1-2.6,3.67,3.67,0,0,1,2.73-1,5,5,0,0,1,1.19.14,2.8,2.8,0,0,1,.94.38l-.73,2a1.91,1.91,0,0,0-1.13-.34c-.84,0-1.27.46-1.27,1.39Z"/><path class="cls-2" d="M226.3,63.25a4.67,4.67,0,0,1-1.88-1.75,5.14,5.14,0,0,1,0-5.11,4.67,4.67,0,0,1,1.88-1.75A5.66,5.66,0,0,1,229,54a5.59,5.59,0,0,1,2.71.64,4.74,4.74,0,0,1,1.88,1.75,5.21,5.21,0,0,1,0,5.11,4.74,4.74,0,0,1-1.88,1.75,5.59,5.59,0,0,1-2.71.64A5.66,5.66,0,0,1,226.3,63.25Zm4.48-2.37a3.09,3.09,0,0,0,0-3.87,2.34,2.34,0,0,0-1.76-.72,2.37,2.37,0,0,0-1.77.72,3.06,3.06,0,0,0,0,3.87,2.37,2.37,0,0,0,1.77.72A2.34,2.34,0,0,0,230.78,60.88Z"/><path class="cls-2" d="M240.14,54.36a5,5,0,0,1,2-.36v2.57l-.63,0a2.54,2.54,0,0,0-1.87.67,2.69,2.69,0,0,0-.68,2v4.53h-2.78V54.15h2.66v1.26A3.12,3.12,0,0,1,240.14,54.36Z"/><path class="cls-2" d="M257,54.62a4.47,4.47,0,0,1,1.72,1.73,5.74,5.74,0,0,1,0,5.19A4.47,4.47,0,0,1,257,63.27a4.94,4.94,0,0,1-2.44.62,3.72,3.72,0,0,1-2.89-1.16v4.48h-2.78V54.15h2.66v1.1a3.69,3.69,0,0,1,3-1.25A4.94,4.94,0,0,1,257,54.62Zm-1.16,6.26a3.09,3.09,0,0,0,0-3.87,2.51,2.51,0,0,0-3.52,0,3.06,3.06,0,0,0,0,3.87,2.51,2.51,0,0,0,3.52,0Z"/><path class="cls-2" d="M268.33,55.06a4.1,4.1,0,0,1,1.19,3.21v5.47h-2.6V62.55A3.12,3.12,0,0,1,264,63.89a4.53,4.53,0,0,1-1.92-.38,2.89,2.89,0,0,1-1.24-1,2.74,2.74,0,0,1-.43-1.5,2.53,2.53,0,0,1,1-2.11,5.14,5.14,0,0,1,3.11-.76h2.22a1.76,1.76,0,0,0-.56-1.4,2.4,2.4,0,0,0-1.66-.49,4.8,4.8,0,0,0-1.5.24,3.75,3.75,0,0,0-1.26.65l-1-2a5.91,5.91,0,0,1,1.88-.85A8.16,8.16,0,0,1,264.9,54,5,5,0,0,1,268.33,55.06ZM266,61.68a1.82,1.82,0,0,0,.79-1v-1h-1.91c-1.14,0-1.71.37-1.71,1.12a1,1,0,0,0,.41.85,1.9,1.9,0,0,0,1.16.31A2.42,2.42,0,0,0,266,61.68Z"/><path class="cls-2" d="M276,54.36A5,5,0,0,1,278,54v2.57l-.62,0a2.52,2.52,0,0,0-1.87.67,2.65,2.65,0,0,0-.68,2v4.53H272V54.15h2.65v1.26A3.22,3.22,0,0,1,276,54.36Z"/><path class="cls-2" d="M286.18,63.28a3.08,3.08,0,0,1-1,.46,5.18,5.18,0,0,1-1.26.15,3.7,3.7,0,0,1-2.65-.88,3.32,3.32,0,0,1-.94-2.57V56.5h-1.48V54.36h1.48V52h2.79v2.34h2.39V56.5h-2.39v3.91a1.29,1.29,0,0,0,.31.93,1.14,1.14,0,0,0,.88.33,1.76,1.76,0,0,0,1.12-.35Z"/><path class="cls-2" d="M297.1,54.15l-4.33,10.18a5,5,0,0,1-1.64,2.34,4,4,0,0,1-2.34.68,5,5,0,0,1-1.48-.23,3.27,3.27,0,0,1-1.2-.65l1-2a2.41,2.41,0,0,0,.74.45,2.22,2.22,0,0,0,.83.16,1.45,1.45,0,0,0,.93-.28,2.38,2.38,0,0,0,.64-.92l0-.08-4.15-9.67H289l2.69,6.51,2.72-6.51Z"/><path class="cls-2" d="M298.39,52.36a1.45,1.45,0,0,1-.49-1.1,1.47,1.47,0,0,1,.49-1.11,1.73,1.73,0,0,1,1.24-.45,1.82,1.82,0,0,1,1.25.43,1.36,1.36,0,0,1,.49,1.07,1.48,1.48,0,0,1-.49,1.15,1.71,1.71,0,0,1-1.25.46A1.73,1.73,0,0,1,298.39,52.36Zm-.15,1.79H301v9.59h-2.79Z"/><path class="cls-2" d="M312.33,55.07a4.28,4.28,0,0,1,1.1,3.18v5.49h-2.79V58.68a2.5,2.5,0,0,0-.5-1.71,1.83,1.83,0,0,0-1.44-.56,2.24,2.24,0,0,0-1.68.65A2.69,2.69,0,0,0,306.4,59v4.74h-2.79V54.15h2.66v1.12a3.76,3.76,0,0,1,1.38-.94,4.73,4.73,0,0,1,1.8-.33A4,4,0,0,1,312.33,55.07Z"/><path class="cls-2" d="M326,54.15v8a5.13,5.13,0,0,1-1.37,3.92,5.68,5.68,0,0,1-4,1.29,9.9,9.9,0,0,1-2.64-.34,5.86,5.86,0,0,1-2.07-1L317,64a4.51,4.51,0,0,0,1.53.79,6,6,0,0,0,1.86.3,3,3,0,0,0,2.13-.65,2.59,2.59,0,0,0,.69-2v-.42a3.9,3.9,0,0,1-3,1.2,5,5,0,0,1-2.41-.58A4.47,4.47,0,0,1,316,61.07a4.91,4.91,0,0,1,0-4.85,4.43,4.43,0,0,1,1.74-1.64,5.14,5.14,0,0,1,2.41-.58,3.81,3.81,0,0,1,3.18,1.38V54.15Zm-3.45,6.2a2.23,2.23,0,0,0,.7-1.71,2.2,2.2,0,0,0-.7-1.7,2.86,2.86,0,0,0-3.63,0,2.18,2.18,0,0,0-.72,1.7,2.21,2.21,0,0,0,.72,1.71,2.86,2.86,0,0,0,3.63,0Z"/><path class="cls-2" d="M16.28,76.47a4.33,4.33,0,0,1,1.06,3.19v5.49H14.56V80.09a2.6,2.6,0,0,0-.48-1.71,1.66,1.66,0,0,0-1.34-.56,2,2,0,0,0-1.56.64,2.71,2.71,0,0,0-.57,1.88v4.81H7.83V80.09c0-1.51-.61-2.27-1.82-2.27a1.94,1.94,0,0,0-1.53.64,2.66,2.66,0,0,0-.58,1.88v4.81H1.12V75.56H3.78v1.1a3.64,3.64,0,0,1,1.31-.93,4.51,4.51,0,0,1,1.7-.32,4.25,4.25,0,0,1,1.84.4A3.25,3.25,0,0,1,10,77a4.06,4.06,0,0,1,1.49-1.16,4.76,4.76,0,0,1,2-.41A3.9,3.9,0,0,1,16.28,76.47Z"/><path class="cls-2" d="M29.19,75.56,24.85,85.74a5,5,0,0,1-1.63,2.34,4,4,0,0,1-2.35.68,5,5,0,0,1-1.48-.23,3.15,3.15,0,0,1-1.19-.65l1-2a2.53,2.53,0,0,0,.74.45,2.26,2.26,0,0,0,.83.16,1.45,1.45,0,0,0,.93-.28,2.28,2.28,0,0,0,.64-.92l0-.08-4.16-9.67H21.1l2.7,6.51,2.71-6.51Z"/><path class="cls-2" d="M43.49,76a4.47,4.47,0,0,1,1.72,1.73,5.74,5.74,0,0,1,0,5.19,4.47,4.47,0,0,1-1.72,1.73,4.94,4.94,0,0,1-2.44.62,3.71,3.71,0,0,1-2.89-1.16v4.48H35.38V75.56H38v1.1a3.68,3.68,0,0,1,3-1.25A4.94,4.94,0,0,1,43.49,76Zm-1.16,6.26a3.09,3.09,0,0,0,0-3.87,2.51,2.51,0,0,0-3.52,0,3.06,3.06,0,0,0,0,3.87,2.51,2.51,0,0,0,3.52,0Z"/><path class="cls-2" d="M51.69,75.77a5,5,0,0,1,2-.36V78L53,78a2.52,2.52,0,0,0-1.87.67,2.69,2.69,0,0,0-.68,2v4.53H47.69V75.56h2.66v1.26A3.12,3.12,0,0,1,51.69,75.77Z"/><path class="cls-2" d="M55.45,73.77a1.44,1.44,0,0,1-.48-1.1,1.46,1.46,0,0,1,.48-1.11,1.76,1.76,0,0,1,1.25-.45,1.86,1.86,0,0,1,1.25.43,1.38,1.38,0,0,1,.48,1.07A1.5,1.5,0,0,1,58,73.76a1.74,1.74,0,0,1-1.25.46A1.76,1.76,0,0,1,55.45,73.77Zm-.15,1.79h2.79v9.59H55.3Z"/><path class="cls-2" d="M62.52,84.66a4.67,4.67,0,0,1-1.88-1.75,5.14,5.14,0,0,1,0-5.11,4.67,4.67,0,0,1,1.88-1.75,5.66,5.66,0,0,1,2.72-.64,5.59,5.59,0,0,1,2.71.64,4.67,4.67,0,0,1,1.88,1.75,5.14,5.14,0,0,1,0,5.11A4.67,4.67,0,0,1,68,84.66a5.59,5.59,0,0,1-2.71.64A5.66,5.66,0,0,1,62.52,84.66ZM67,82.29a3.06,3.06,0,0,0,0-3.87,2.51,2.51,0,0,0-3.52,0,3,3,0,0,0,0,3.87,2.51,2.51,0,0,0,3.52,0Z"/><path class="cls-2" d="M76.37,75.77a4.92,4.92,0,0,1,1.95-.36V78l-.62,0a2.54,2.54,0,0,0-1.88.67,2.69,2.69,0,0,0-.68,2v4.53H72.36V75.56H75v1.26A3.1,3.1,0,0,1,76.37,75.77Z"/><path class="cls-2" d="M80.12,73.77a1.44,1.44,0,0,1-.48-1.1,1.46,1.46,0,0,1,.48-1.11,1.76,1.76,0,0,1,1.25-.45,1.84,1.84,0,0,1,1.25.43,1.38,1.38,0,0,1,.48,1.07,1.5,1.5,0,0,1-.48,1.15,1.72,1.72,0,0,1-1.25.46A1.76,1.76,0,0,1,80.12,73.77ZM80,75.56h2.78v9.59H80Z"/><path class="cls-2" d="M91.54,84.69a3,3,0,0,1-1,.46,5.18,5.18,0,0,1-1.26.15,3.72,3.72,0,0,1-2.65-.88,3.36,3.36,0,0,1-.93-2.57V77.91H84.21V75.77h1.48V73.43h2.78v2.34h2.39v2.14H88.47v3.91a1.32,1.32,0,0,0,.31.93,1.18,1.18,0,0,0,.89.33,1.76,1.76,0,0,0,1.12-.35Z"/><path class="cls-2" d="M93.25,73.77a1.44,1.44,0,0,1-.48-1.1,1.46,1.46,0,0,1,.48-1.11,1.76,1.76,0,0,1,1.25-.45,1.84,1.84,0,0,1,1.25.43,1.38,1.38,0,0,1,.48,1.07,1.5,1.5,0,0,1-.48,1.15,1.72,1.72,0,0,1-1.25.46A1.76,1.76,0,0,1,93.25,73.77Zm-.14,1.79h2.78v9.59H93.11Z"/><path class="cls-2" d="M107.83,81.14h-7.26a2.23,2.23,0,0,0,.93,1.41,3.07,3.07,0,0,0,1.81.52,3.63,3.63,0,0,0,1.33-.23,3,3,0,0,0,1.08-.7l1.48,1.61a5,5,0,0,1-4,1.55,6.16,6.16,0,0,1-2.87-.64,4.68,4.68,0,0,1-1.93-1.75,4.86,4.86,0,0,1-.67-2.55,4.91,4.91,0,0,1,.67-2.55,4.63,4.63,0,0,1,1.83-1.76,5.32,5.32,0,0,1,2.62-.64,5.4,5.4,0,0,1,2.55.61,4.35,4.35,0,0,1,1.79,1.74,5.11,5.11,0,0,1,.65,2.63S107.86,80.68,107.83,81.14Zm-6.51-3.09a2.32,2.32,0,0,0-.79,1.47h4.73a2.29,2.29,0,0,0-2.36-2A2.41,2.41,0,0,0,101.32,78.05Z"/><path class="cls-2" d="M110.63,85a5.87,5.87,0,0,1-1.82-.74l.93-2a5.53,5.53,0,0,0,1.55.67,6.24,6.24,0,0,0,1.78.26q1.77,0,1.77-.87a.62.62,0,0,0-.48-.59,7,7,0,0,0-1.48-.3,13.41,13.41,0,0,1-1.95-.42,3,3,0,0,1-1.33-.82,2.34,2.34,0,0,1-.56-1.67,2.64,2.64,0,0,1,.53-1.62,3.35,3.35,0,0,1,1.53-1.09,6.38,6.38,0,0,1,2.38-.4,9.29,9.29,0,0,1,2,.23,5.78,5.78,0,0,1,1.67.61l-.93,2a5.6,5.6,0,0,0-2.77-.71,2.73,2.73,0,0,0-1.33.25.73.73,0,0,0-.45.64.64.64,0,0,0,.48.63,8.76,8.76,0,0,0,1.54.33,16.07,16.07,0,0,1,1.92.42,3,3,0,0,1,1.31.81,2.36,2.36,0,0,1,.55,1.65,2.5,2.5,0,0,1-.54,1.58,3.26,3.26,0,0,1-1.56,1.08,6.8,6.8,0,0,1-2.43.39A9.16,9.16,0,0,1,110.63,85Z"/><path class="cls-2" d="M125.15,85a5.87,5.87,0,0,1-1.82-.74l.93-2a5.66,5.66,0,0,0,1.55.67,6.25,6.25,0,0,0,1.79.26c1.17,0,1.76-.29,1.76-.87a.62.62,0,0,0-.48-.59,6.82,6.82,0,0,0-1.48-.3,13.54,13.54,0,0,1-1.94-.42,2.85,2.85,0,0,1-1.33-.82,2.3,2.3,0,0,1-.57-1.67,2.64,2.64,0,0,1,.53-1.62,3.35,3.35,0,0,1,1.53-1.09,6.43,6.43,0,0,1,2.39-.4,9.27,9.27,0,0,1,2,.23,5.78,5.78,0,0,1,1.67.61l-.93,2a5.56,5.56,0,0,0-2.76-.71,2.77,2.77,0,0,0-1.34.25.73.73,0,0,0-.45.64.64.64,0,0,0,.48.63,9.21,9.21,0,0,0,1.54.33,16.29,16.29,0,0,1,1.93.42,2.92,2.92,0,0,1,1.3.81,2.32,2.32,0,0,1,.55,1.65,2.55,2.55,0,0,1-.53,1.58,3.35,3.35,0,0,1-1.57,1.08,6.8,6.8,0,0,1-2.43.39A9.16,9.16,0,0,1,125.15,85Z"/><path class="cls-2" d="M142.45,76.48a4.28,4.28,0,0,1,1.1,3.18v5.49h-2.79V80.09a2.5,2.5,0,0,0-.5-1.71,1.83,1.83,0,0,0-1.44-.56,2.24,2.24,0,0,0-1.68.65,2.69,2.69,0,0,0-.62,1.94v4.74h-2.79V71.92h2.79v4.63a3.68,3.68,0,0,1,1.34-.84,4.73,4.73,0,0,1,1.71-.3A4,4,0,0,1,142.45,76.48Z"/><path class="cls-2" d="M146.21,73.77a1.42,1.42,0,0,1-.49-1.1,1.44,1.44,0,0,1,.49-1.11,1.73,1.73,0,0,1,1.24-.45,1.84,1.84,0,0,1,1.25.43,1.38,1.38,0,0,1,.48,1.07,1.5,1.5,0,0,1-.48,1.15,1.93,1.93,0,0,1-2.49,0Zm-.15,1.79h2.78v9.59h-2.78Z"/><path class="cls-2" d="M154.48,75.77H157v2.14h-2.4v7.24h-2.78V77.91h-1.48V75.77h1.48v-.43a3.49,3.49,0,0,1,1-2.6,3.7,3.7,0,0,1,2.74-1,5.1,5.1,0,0,1,1.19.14,2.89,2.89,0,0,1,.94.38l-.74,2a1.86,1.86,0,0,0-1.12-.34c-.84,0-1.27.46-1.27,1.39Z"/><path class="cls-2" d="M164.53,84.69a3.14,3.14,0,0,1-1,.46,5.18,5.18,0,0,1-1.26.15,3.72,3.72,0,0,1-2.65-.88,3.36,3.36,0,0,1-.93-2.57V77.91h-1.49V75.77h1.49V73.43h2.78v2.34h2.39v2.14h-2.39v3.91a1.28,1.28,0,0,0,.31.93,1.15,1.15,0,0,0,.88.33,1.79,1.79,0,0,0,1.13-.35Z"/><path class="cls-2" d="M175.14,81.14h-7.26a2.23,2.23,0,0,0,.93,1.41,3.11,3.11,0,0,0,1.82.52,3.67,3.67,0,0,0,1.33-.23,3.13,3.13,0,0,0,1.08-.7l1.48,1.61a5,5,0,0,1-4,1.55,6.16,6.16,0,0,1-2.87-.64,4.56,4.56,0,0,1-1.93-1.75,5.15,5.15,0,0,1,0-5.1,4.72,4.72,0,0,1,1.84-1.76,5.31,5.31,0,0,1,2.61-.64,5.4,5.4,0,0,1,2.55.61,4.43,4.43,0,0,1,1.8,1.74,5.21,5.21,0,0,1,.65,2.63S175.18,80.68,175.14,81.14Zm-6.51-3.09a2.26,2.26,0,0,0-.78,1.47h4.72a2.29,2.29,0,0,0-.78-1.46,2.36,2.36,0,0,0-1.57-.54A2.44,2.44,0,0,0,168.63,78.05Z"/><path class="cls-2" d="M186.83,71.92V85.15h-2.66v-1.1a3.68,3.68,0,0,1-3,1.25,5,5,0,0,1-2.45-.61A4.34,4.34,0,0,1,177,83a5.7,5.7,0,0,1,0-5.21A4.34,4.34,0,0,1,178.72,76a5,5,0,0,1,2.45-.61,3.67,3.67,0,0,1,2.88,1.16V71.92ZM183.4,82.29a3,3,0,0,0,0-3.87,2.31,2.31,0,0,0-1.74-.72,2.34,2.34,0,0,0-1.77.72,3,3,0,0,0,0,3.87,2.34,2.34,0,0,0,1.77.72A2.31,2.31,0,0,0,183.4,82.29Z"/><path class="cls-2" d="M204,75.56l-4.33,10.18A5,5,0,0,1,198,88.08a4,4,0,0,1-2.35.68,5,5,0,0,1-1.48-.23,3.27,3.27,0,0,1-1.2-.65l1-2a2.41,2.41,0,0,0,.74.45,2.26,2.26,0,0,0,.83.16,1.45,1.45,0,0,0,.93-.28,2.28,2.28,0,0,0,.64-.92l0-.08L193,75.56h2.87l2.7,6.51,2.71-6.51Z"/><path class="cls-2" d="M214.2,81.14h-7.26a2.25,2.25,0,0,0,.92,1.41,3.13,3.13,0,0,0,1.82.52,3.63,3.63,0,0,0,1.33-.23,3,3,0,0,0,1.08-.7l1.48,1.61a5,5,0,0,1-4,1.55,6.16,6.16,0,0,1-2.87-.64,4.62,4.62,0,0,1-1.93-1.75,4.86,4.86,0,0,1-.68-2.55,5,5,0,0,1,.67-2.55,4.72,4.72,0,0,1,1.84-1.76,5.31,5.31,0,0,1,2.61-.64,5.47,5.47,0,0,1,2.56.61,4.35,4.35,0,0,1,1.79,1.74,5.21,5.21,0,0,1,.65,2.63S214.23,80.68,214.2,81.14Zm-6.52-3.09a2.35,2.35,0,0,0-.78,1.47h4.73a2.29,2.29,0,0,0-2.36-2A2.44,2.44,0,0,0,207.68,78.05Z"/><path class="cls-2" d="M222.3,84.69a3.14,3.14,0,0,1-1,.46,5.18,5.18,0,0,1-1.26.15,3.72,3.72,0,0,1-2.65-.88,3.36,3.36,0,0,1-.93-2.57V77.91H215V75.77h1.49V73.43h2.78v2.34h2.39v2.14h-2.39v3.91a1.28,1.28,0,0,0,.31.93,1.15,1.15,0,0,0,.88.33,1.79,1.79,0,0,0,1.13-.35Z"/><path class="cls-2" d="M236.21,76.47a4.07,4.07,0,0,1,1.2,3.21v5.47H234.8V84a3.1,3.1,0,0,1-2.92,1.34,4.53,4.53,0,0,1-1.92-.38,2.83,2.83,0,0,1-1.24-1,2.66,2.66,0,0,1-.43-1.5,2.52,2.52,0,0,1,1-2.11,5.14,5.14,0,0,1,3.11-.76h2.21a1.75,1.75,0,0,0-.55-1.4,2.42,2.42,0,0,0-1.66-.5,4.93,4.93,0,0,0-1.51.25,3.79,3.79,0,0,0-1.25.65l-1-2a5.91,5.91,0,0,1,1.88-.85,8.11,8.11,0,0,1,2.26-.31A5,5,0,0,1,236.21,76.47Zm-2.37,6.62a1.76,1.76,0,0,0,.78-1v-1h-1.9c-1.15,0-1.72.37-1.72,1.12a1,1,0,0,0,.42.85,1.87,1.87,0,0,0,1.15.31A2.43,2.43,0,0,0,233.84,83.09Z"/><path class="cls-2" d="M249.93,75.56v8a5.13,5.13,0,0,1-1.37,3.92,5.68,5.68,0,0,1-4,1.29,10,10,0,0,1-2.64-.34,5.86,5.86,0,0,1-2.07-1l1.11-2a4.51,4.51,0,0,0,1.53.79,6,6,0,0,0,1.86.3,3,3,0,0,0,2.13-.65,2.59,2.59,0,0,0,.69-2V83.5a3.92,3.92,0,0,1-3,1.19,5.06,5.06,0,0,1-2.42-.58A4.47,4.47,0,0,1,240,82.48a4.55,4.55,0,0,1-.64-2.43,4.59,4.59,0,0,1,.64-2.43A4.47,4.47,0,0,1,241.7,76a5.18,5.18,0,0,1,2.42-.58,3.79,3.79,0,0,1,3.17,1.38V75.56Zm-3.45,6.2a2.23,2.23,0,0,0,.7-1.71,2.2,2.2,0,0,0-.7-1.7,2.86,2.86,0,0,0-3.63,0,2.18,2.18,0,0,0-.72,1.7,2.21,2.21,0,0,0,.72,1.71,2.86,2.86,0,0,0,3.63,0Z"/><path class="cls-2" d="M259.82,76.47A4.1,4.1,0,0,1,261,79.68v5.47h-2.6V84a3.12,3.12,0,0,1-2.93,1.34,4.53,4.53,0,0,1-1.92-.38,2.89,2.89,0,0,1-1.24-1,2.74,2.74,0,0,1-.43-1.5,2.52,2.52,0,0,1,1-2.11,5.16,5.16,0,0,1,3.12-.76h2.21a1.76,1.76,0,0,0-.56-1.4,2.39,2.39,0,0,0-1.65-.5,4.83,4.83,0,0,0-1.51.25,3.85,3.85,0,0,0-1.26.65l-1-2a5.91,5.91,0,0,1,1.88-.85,8.22,8.22,0,0,1,2.26-.31A5,5,0,0,1,259.82,76.47Zm-2.38,6.62a1.82,1.82,0,0,0,.79-1v-1h-1.91c-1.14,0-1.71.37-1.71,1.12a1,1,0,0,0,.42.85,1.85,1.85,0,0,0,1.15.31A2.42,2.42,0,0,0,257.44,83.09Z"/><path class="cls-2" d="M263.67,73.77a1.44,1.44,0,0,1-.48-1.1,1.46,1.46,0,0,1,.48-1.11,1.76,1.76,0,0,1,1.25-.45,1.84,1.84,0,0,1,1.25.43,1.38,1.38,0,0,1,.48,1.07,1.5,1.5,0,0,1-.48,1.15,1.72,1.72,0,0,1-1.25.46A1.76,1.76,0,0,1,263.67,73.77Zm-.14,1.79h2.78v9.59h-2.78Z"/><path class="cls-2" d="M277.61,76.48a4.28,4.28,0,0,1,1.1,3.18v5.49h-2.78V80.09a2.55,2.55,0,0,0-.5-1.71,1.87,1.87,0,0,0-1.45-.56,2.24,2.24,0,0,0-1.68.65,2.74,2.74,0,0,0-.62,1.94v4.74H268.9V75.56h2.66v1.12a3.64,3.64,0,0,1,1.37-.94,4.8,4.8,0,0,1,1.8-.33A4,4,0,0,1,277.61,76.48Z"/><path class="cls-2" d="M281.05,84.8a1.68,1.68,0,0,1-.5-1.25,1.6,1.6,0,0,1,.5-1.24,1.84,1.84,0,0,1,2.46,0,1.63,1.63,0,0,1,.5,1.24,1.72,1.72,0,0,1-.5,1.25,1.76,1.76,0,0,1-2.46,0Z"/><path class="cls-2" d="M2.56,106.38a6.75,6.75,0,0,1-2.22-1l1-2.17a6.68,6.68,0,0,0,1.91.94,7.05,7.05,0,0,0,2.21.36,3.46,3.46,0,0,0,1.82-.37,1.11,1.11,0,0,0,.59-1,.94.94,0,0,0-.35-.74,2.59,2.59,0,0,0-.89-.47c-.36-.12-.86-.25-1.47-.4a20.3,20.3,0,0,1-2.34-.67,3.78,3.78,0,0,1-1.56-1.09,2.92,2.92,0,0,1-.65-2,3.48,3.48,0,0,1,.58-2A4,4,0,0,1,3,94.38a7.16,7.16,0,0,1,2.9-.52,9.61,9.61,0,0,1,2.34.29,6.76,6.76,0,0,1,2,.82l-.89,2.19a7,7,0,0,0-3.46-1A3.23,3.23,0,0,0,4,96.57a1.2,1.2,0,0,0-.58,1,1,1,0,0,0,.67,1,10.6,10.6,0,0,0,2,.62,18.78,18.78,0,0,1,2.34.68,3.87,3.87,0,0,1,1.56,1.07,2.86,2.86,0,0,1,.65,2,3.4,3.4,0,0,1-.6,2,4,4,0,0,1-1.79,1.4,7.25,7.25,0,0,1-2.91.52A10.45,10.45,0,0,1,2.56,106.38Z"/><path class="cls-2" d="M14.39,106.07a4.93,4.93,0,0,1-1.91-6.86,4.69,4.69,0,0,1,1.91-1.75,5.78,5.78,0,0,1,2.75-.64,5.25,5.25,0,0,1,2.65.64,3.68,3.68,0,0,1,1.65,1.81l-2.16,1.16a2.36,2.36,0,0,0-2.16-1.32,2.43,2.43,0,0,0-1.8.71,2.63,2.63,0,0,0-.71,1.94,2.67,2.67,0,0,0,.71,1.95,2.47,2.47,0,0,0,1.8.71,2.32,2.32,0,0,0,2.16-1.32l2.16,1.18a3.74,3.74,0,0,1-1.65,1.78,5.26,5.26,0,0,1-2.65.65A5.78,5.78,0,0,1,14.39,106.07Z"/><path class="cls-2" d="M31.69,97.89a4.28,4.28,0,0,1,1.1,3.18v5.49H30V101.5a2.55,2.55,0,0,0-.5-1.71,1.87,1.87,0,0,0-1.45-.56,2.24,2.24,0,0,0-1.68.65,2.74,2.74,0,0,0-.62,1.94v4.74H23V93.33h2.78V98a3.77,3.77,0,0,1,1.34-.84,4.73,4.73,0,0,1,1.71-.3A4,4,0,0,1,31.69,97.89Z"/><path class="cls-2" d="M37.26,106.07a5,5,0,0,1-1.88-6.86,4.67,4.67,0,0,1,1.88-1.75,6.08,6.08,0,0,1,5.43,0,4.74,4.74,0,0,1,1.88,1.75,5.21,5.21,0,0,1,0,5.11,4.81,4.81,0,0,1-1.88,1.75,6.08,6.08,0,0,1-5.43,0Zm4.48-2.37a3.09,3.09,0,0,0,0-3.87A2.34,2.34,0,0,0,40,99.11a2.37,2.37,0,0,0-1.77.72,3.06,3.06,0,0,0,0,3.87,2.37,2.37,0,0,0,1.77.72A2.34,2.34,0,0,0,41.74,103.7Z"/><path class="cls-2" d="M48.94,106.07a4.74,4.74,0,0,1-1.88-1.75,5.14,5.14,0,0,1,0-5.11,4.67,4.67,0,0,1,1.88-1.75,5.7,5.7,0,0,1,2.73-.64,5.62,5.62,0,0,1,2.71.64,4.71,4.71,0,0,1,1.87,1.75,5.14,5.14,0,0,1,0,5.11,4.78,4.78,0,0,1-1.87,1.75,5.62,5.62,0,0,1-2.71.64A5.7,5.7,0,0,1,48.94,106.07Zm4.48-2.37a3.06,3.06,0,0,0,0-3.87,2.31,2.31,0,0,0-1.75-.72,2.34,2.34,0,0,0-1.77.72,3,3,0,0,0,0,3.87,2.34,2.34,0,0,0,1.77.72A2.31,2.31,0,0,0,53.42,103.7Z"/><path class="cls-2" d="M58.78,93.33h2.79v13.23H58.78Z"/><path class="cls-2" d="M84.62,97l-3.48,9.6H78.46l-2.16-6-2.23,6H71.4L67.94,97h2.62l2.26,6.5L75.18,97h2.35l2.29,6.5L82.16,97Z"/><path class="cls-2" d="M92.9,97.88a4.1,4.1,0,0,1,1.19,3.21v5.47h-2.6v-1.19a3.12,3.12,0,0,1-2.93,1.34,4.53,4.53,0,0,1-1.92-.38,2.89,2.89,0,0,1-1.24-1,2.74,2.74,0,0,1-.43-1.5,2.52,2.52,0,0,1,1-2.11,5.14,5.14,0,0,1,3.11-.76h2.22a1.76,1.76,0,0,0-.56-1.4,2.4,2.4,0,0,0-1.66-.5,4.81,4.81,0,0,0-1.5.25,3.75,3.75,0,0,0-1.26.65l-1-2a6.15,6.15,0,0,1,1.88-.86,8.55,8.55,0,0,1,2.26-.3A5,5,0,0,1,92.9,97.88Zm-2.38,6.62a1.82,1.82,0,0,0,.79-1v-1H89.4c-1.14,0-1.71.37-1.71,1.12a1,1,0,0,0,.41.85,1.9,1.9,0,0,0,1.16.31A2.42,2.42,0,0,0,90.52,104.5Z"/><path class="cls-2" d="M97.5,106.41a5.87,5.87,0,0,1-1.82-.74l.93-2a5.4,5.4,0,0,0,1.55.67,6.55,6.55,0,0,0,1.78.26q1.77,0,1.77-.87a.62.62,0,0,0-.48-.59,7.51,7.51,0,0,0-1.48-.31,12.32,12.32,0,0,1-2-.41,3,3,0,0,1-1.33-.82,2.34,2.34,0,0,1-.56-1.67,2.58,2.58,0,0,1,.53-1.62A3.44,3.44,0,0,1,98,97.21a6.6,6.6,0,0,1,2.38-.39,9.93,9.93,0,0,1,2,.22,5.78,5.78,0,0,1,1.67.62l-.93,2a5.63,5.63,0,0,0-2.77-.71,2.8,2.8,0,0,0-1.34.25.73.73,0,0,0-.44.64.62.62,0,0,0,.48.62,7.8,7.8,0,0,0,1.53.34,15.85,15.85,0,0,1,1.93.42,2.87,2.87,0,0,1,1.3.81,2.32,2.32,0,0,1,.56,1.65,2.5,2.5,0,0,1-.54,1.58,3.36,3.36,0,0,1-1.56,1.08,6.86,6.86,0,0,1-2.44.39A9.14,9.14,0,0,1,97.5,106.41Z"/><path class="cls-2" d="M119.84,97.89a4.24,4.24,0,0,1,1.1,3.18v5.49h-2.78V101.5a2.55,2.55,0,0,0-.5-1.71,1.85,1.85,0,0,0-1.45-.56,2.21,2.21,0,0,0-1.67.65,2.7,2.7,0,0,0-.63,1.94v4.74h-2.78V97h2.66v1.13a3.61,3.61,0,0,1,1.37-.94,4.8,4.8,0,0,1,1.8-.33A4,4,0,0,1,119.84,97.89Z"/><path class="cls-2" d="M125.41,106.07a4.74,4.74,0,0,1-1.88-1.75,5.14,5.14,0,0,1,0-5.11,4.67,4.67,0,0,1,1.88-1.75,6.08,6.08,0,0,1,5.43,0,4.74,4.74,0,0,1,1.88,1.75,5.21,5.21,0,0,1,0,5.11,4.81,4.81,0,0,1-1.88,1.75,6.08,6.08,0,0,1-5.43,0Zm4.48-2.37a3.09,3.09,0,0,0,0-3.87,2.34,2.34,0,0,0-1.76-.72,2.37,2.37,0,0,0-1.77.72,3.06,3.06,0,0,0,0,3.87,2.37,2.37,0,0,0,1.77.72A2.34,2.34,0,0,0,129.89,103.7Z"/><path class="cls-2" d="M150.4,97l-3.48,9.6h-2.68l-2.16-6-2.23,6h-2.67L133.71,97h2.63l2.26,6.5L141,97h2.35l2.29,6.5,2.33-6.5Z"/><path class="cls-2" d="M164,97.88a4.07,4.07,0,0,1,1.2,3.21v5.47h-2.61v-1.19a3.09,3.09,0,0,1-2.92,1.34,4.53,4.53,0,0,1-1.92-.38,2.89,2.89,0,0,1-1.24-1,2.66,2.66,0,0,1-.43-1.5,2.52,2.52,0,0,1,1-2.11,5.14,5.14,0,0,1,3.11-.76h2.22a1.76,1.76,0,0,0-.56-1.4,2.42,2.42,0,0,0-1.66-.5,4.81,4.81,0,0,0-1.5.25,3.75,3.75,0,0,0-1.26.65l-1-2a6.15,6.15,0,0,1,1.88-.86,8.5,8.5,0,0,1,2.26-.3A5,5,0,0,1,164,97.88Zm-2.37,6.62a1.82,1.82,0,0,0,.79-1v-1h-1.91c-1.14,0-1.72.37-1.72,1.12a1,1,0,0,0,.42.85,1.89,1.89,0,0,0,1.15.31A2.43,2.43,0,0,0,161.67,104.5Z"/><path class="cls-2" d="M182,94.07V96l-4.64,10.61h-3.14l4.48-10.13h-4.14v2H172V94.07Z"/><path class="cls-2" d="M198.69,93.33v13.23H196v-1.1a3.67,3.67,0,0,1-3,1.25,5,5,0,0,1-2.46-.61,4.34,4.34,0,0,1-1.72-1.73,5.78,5.78,0,0,1,0-5.21,4.34,4.34,0,0,1,1.72-1.73,4.93,4.93,0,0,1,2.46-.61A3.66,3.66,0,0,1,195.91,98V93.33Zm-3.43,10.37a3,3,0,0,0,0-3.87,2.31,2.31,0,0,0-1.74-.72,2.34,2.34,0,0,0-1.77.72,3,3,0,0,0,0,3.87,2.34,2.34,0,0,0,1.77.72A2.31,2.31,0,0,0,195.26,103.7Z"/><path class="cls-2" d="M208.56,97.88a4.1,4.1,0,0,1,1.19,3.21v5.47h-2.6v-1.19a3.12,3.12,0,0,1-2.93,1.34,4.53,4.53,0,0,1-1.92-.38,2.89,2.89,0,0,1-1.24-1,2.74,2.74,0,0,1-.43-1.5,2.52,2.52,0,0,1,1-2.11,5.16,5.16,0,0,1,3.12-.76H207a1.79,1.79,0,0,0-.55-1.4,2.44,2.44,0,0,0-1.66-.5,4.83,4.83,0,0,0-1.51.25,3.85,3.85,0,0,0-1.26.65l-1-2a6.15,6.15,0,0,1,1.88-.86,8.61,8.61,0,0,1,2.26-.3A5,5,0,0,1,208.56,97.88Zm-2.38,6.62a1.82,1.82,0,0,0,.79-1v-1h-1.91c-1.14,0-1.71.37-1.71,1.12a1,1,0,0,0,.42.85,1.85,1.85,0,0,0,1.15.31A2.42,2.42,0,0,0,206.18,104.5Z"/><path class="cls-2" d="M221.62,97l-4.34,10.19a5,5,0,0,1-1.63,2.34,4,4,0,0,1-2.35.68,5,5,0,0,1-1.48-.23,3.22,3.22,0,0,1-1.19-.65l1-2a2.53,2.53,0,0,0,.74.45,2.26,2.26,0,0,0,.83.16,1.45,1.45,0,0,0,.93-.28,2.28,2.28,0,0,0,.64-.92l0-.09L210.66,97h2.87l2.7,6.52L218.94,97Z"/><path class="cls-2" d="M235.1,97.88a4.07,4.07,0,0,1,1.2,3.21v5.47h-2.61v-1.19a3.09,3.09,0,0,1-2.92,1.34,4.53,4.53,0,0,1-1.92-.38,2.89,2.89,0,0,1-1.24-1,2.74,2.74,0,0,1-.43-1.5,2.52,2.52,0,0,1,1-2.11,5.14,5.14,0,0,1,3.11-.76h2.22a1.76,1.76,0,0,0-.56-1.4,2.42,2.42,0,0,0-1.66-.5,4.81,4.81,0,0,0-1.5.25,3.75,3.75,0,0,0-1.26.65l-1-2a6.15,6.15,0,0,1,1.88-.86,8.55,8.55,0,0,1,2.26-.3A5,5,0,0,1,235.1,97.88Zm-2.37,6.62a1.82,1.82,0,0,0,.79-1v-1h-1.91c-1.14,0-1.72.37-1.72,1.12a1,1,0,0,0,.42.85,1.89,1.89,0,0,0,1.15.31A2.43,2.43,0,0,0,232.73,104.5Z"/><path class="cls-2" d="M259.28,97l-3.48,9.6h-2.68l-2.16-6-2.23,6h-2.67L242.6,97h2.62l2.27,6.5,2.35-6.5h2.36l2.28,6.5,2.34-6.5Z"/><path class="cls-2" d="M269.66,102.55H262.4a2.28,2.28,0,0,0,.93,1.41,3.11,3.11,0,0,0,1.82.52,3.67,3.67,0,0,0,1.33-.23,3.39,3.39,0,0,0,1.08-.7l1.48,1.6a5,5,0,0,1-4,1.56,6.2,6.2,0,0,1-2.88-.64,4.66,4.66,0,0,1-1.92-1.75,5.15,5.15,0,0,1,0-5.1,4.65,4.65,0,0,1,1.84-1.76,5.64,5.64,0,0,1,5.16,0,4.35,4.35,0,0,1,1.79,1.74,5.11,5.11,0,0,1,.65,2.63S269.7,102.08,269.66,102.55Zm-6.51-3.09a2.32,2.32,0,0,0-.79,1.47h4.73a2.26,2.26,0,0,0-.78-1.46,2.36,2.36,0,0,0-1.57-.54A2.44,2.44,0,0,0,263.15,99.46Z"/><path class="cls-2" d="M280.92,102.55h-7.26a2.28,2.28,0,0,0,.93,1.41,3.08,3.08,0,0,0,1.82.52,3.58,3.58,0,0,0,1.32-.23,3.18,3.18,0,0,0,1.08-.7l1.48,1.6a5,5,0,0,1-4,1.56,6.16,6.16,0,0,1-2.87-.64,4.66,4.66,0,0,1-1.92-1.75,4.78,4.78,0,0,1-.68-2.56,4.9,4.9,0,0,1,.67-2.54,4.63,4.63,0,0,1,1.83-1.76,5.66,5.66,0,0,1,5.17,0,4.35,4.35,0,0,1,1.79,1.74,5.11,5.11,0,0,1,.65,2.63S281,102.08,280.92,102.55Zm-6.51-3.09a2.32,2.32,0,0,0-.79,1.47h4.73a2.27,2.27,0,0,0-2.35-2A2.44,2.44,0,0,0,274.41,99.46Z"/><path class="cls-2" d="M287,102.8l-1.34,1.32v2.44h-2.78V93.33h2.78v7.49L289.68,97H293L289,101l4.35,5.53H290Z"/><path class="cls-2" d="M9.23,118.85A4.34,4.34,0,0,1,11,120.58a5.66,5.66,0,0,1,0,5.19,4.4,4.4,0,0,1-1.72,1.73,4.89,4.89,0,0,1-2.44.62A3.74,3.74,0,0,1,3.9,127v4.47H1.12V118.37H3.78v1.11a3.69,3.69,0,0,1,3-1.25A4.89,4.89,0,0,1,9.23,118.85Zm-1.16,6.26a3.06,3.06,0,0,0,0-3.87,2.33,2.33,0,0,0-1.76-.73,2.31,2.31,0,0,0-1.75.73,3.06,3.06,0,0,0,0,3.87,2.3,2.3,0,0,0,1.75.72A2.32,2.32,0,0,0,8.07,125.11Z"/><path class="cls-2" d="M20.57,119.29a4.07,4.07,0,0,1,1.19,3.21V128h-2.6v-1.19a3.11,3.11,0,0,1-2.93,1.34,4.52,4.52,0,0,1-1.91-.38,2.77,2.77,0,0,1-1.24-1,2.66,2.66,0,0,1-.43-1.5,2.49,2.49,0,0,1,1-2.11,5.14,5.14,0,0,1,3.11-.77H19a1.78,1.78,0,0,0-.55-1.4,2.47,2.47,0,0,0-1.66-.49,4.87,4.87,0,0,0-1.51.24,4,4,0,0,0-1.26.66l-1-2a6.32,6.32,0,0,1,1.89-.86,8.48,8.48,0,0,1,2.25-.3A5,5,0,0,1,20.57,119.29Zm-2.37,6.62a1.8,1.8,0,0,0,.78-1v-1H17.07c-1.14,0-1.71.37-1.71,1.12a1,1,0,0,0,.42.85,1.87,1.87,0,0,0,1.15.31A2.43,2.43,0,0,0,18.2,125.91Z"/><path class="cls-2" d="M28.29,118.59a4.92,4.92,0,0,1,1.95-.36v2.57l-.63,0a2.58,2.58,0,0,0-1.87.67,2.73,2.73,0,0,0-.68,2V128H24.28v-9.6h2.66v1.27A3.1,3.1,0,0,1,28.29,118.59Z"/><path class="cls-2" d="M38.43,127.51a2.93,2.93,0,0,1-1,.45,5.18,5.18,0,0,1-1.26.16,3.77,3.77,0,0,1-2.65-.88,3.36,3.36,0,0,1-.93-2.57v-3.94H31.09v-2.14h1.49v-2.34h2.78v2.34h2.39v2.14H35.36v3.91a1.29,1.29,0,0,0,.31.93,1.15,1.15,0,0,0,.88.33,1.85,1.85,0,0,0,1.13-.35Z"/><path class="cls-2" d="M49.35,118.37,45,128.56a5,5,0,0,1-1.63,2.34,4,4,0,0,1-2.35.68,4.73,4.73,0,0,1-1.48-.24,3.08,3.08,0,0,1-1.19-.64l1-2a2.53,2.53,0,0,0,.74.45,2.26,2.26,0,0,0,.83.16,1.45,1.45,0,0,0,.93-.28,2.28,2.28,0,0,0,.64-.92l0-.09-4.16-9.67h2.87l2.7,6.52,2.71-6.52Z"/><path class="cls-2" d="M71,118.37,67.47,128H64.8l-2.16-6-2.23,6H57.73l-3.46-9.6h2.62l2.27,6.5,2.35-6.5h2.36l2.28,6.5,2.34-6.5Z"/><path class="cls-2" d="M72.4,116.59a1.47,1.47,0,0,1-.49-1.11,1.43,1.43,0,0,1,.49-1.1,1.73,1.73,0,0,1,1.24-.45,1.78,1.78,0,0,1,1.25.43,1.39,1.39,0,0,1,.49,1.07,1.53,1.53,0,0,1-.49,1.15,1.93,1.93,0,0,1-2.49,0Zm-.15,1.78H75V128H72.25Z"/><path class="cls-2" d="M83.81,127.51a2.79,2.79,0,0,1-1,.45,5.18,5.18,0,0,1-1.26.16,3.75,3.75,0,0,1-2.65-.88,3.32,3.32,0,0,1-.94-2.57v-3.94H76.48v-2.14H78v-2.34h2.79v2.34h2.39v2.14H80.75v3.91a1.29,1.29,0,0,0,.31.93,1.15,1.15,0,0,0,.88.33,1.85,1.85,0,0,0,1.13-.35Z"/><path class="cls-2" d="M94.1,119.3a4.26,4.26,0,0,1,1.1,3.18V128H92.41v-5.06a2.48,2.48,0,0,0-.5-1.71,1.83,1.83,0,0,0-1.44-.56,2.24,2.24,0,0,0-1.68.65,2.74,2.74,0,0,0-.62,1.94V128H85.38V114.73h2.79v4.64a3.55,3.55,0,0,1,1.34-.84,4.73,4.73,0,0,1,1.71-.3A4,4,0,0,1,94.1,119.3Z"/><path class="cls-2" d="M110.06,119.29a4.1,4.1,0,0,1,1.19,3.21V128h-2.6v-1.19a3.12,3.12,0,0,1-2.93,1.34,4.6,4.6,0,0,1-1.92-.38,2.89,2.89,0,0,1-1.24-1,2.73,2.73,0,0,1-.42-1.5,2.51,2.51,0,0,1,1-2.11,5.17,5.17,0,0,1,3.12-.77h2.21a1.78,1.78,0,0,0-.55-1.4,2.47,2.47,0,0,0-1.66-.49,4.87,4.87,0,0,0-1.51.24,4,4,0,0,0-1.26.66l-1-2a6.21,6.21,0,0,1,1.89-.86,8.48,8.48,0,0,1,2.25-.3A5,5,0,0,1,110.06,119.29Zm-2.37,6.62a1.8,1.8,0,0,0,.78-1v-1h-1.91c-1.14,0-1.71.37-1.71,1.12a1,1,0,0,0,.42.85,1.87,1.87,0,0,0,1.15.31A2.45,2.45,0,0,0,107.69,125.91Z"/><path class="cls-2" d="M123.65,114.73V128H121v-1.1a3.7,3.7,0,0,1-3,1.25,5.07,5.07,0,0,1-2.46-.61,4.4,4.4,0,0,1-1.72-1.73,5.78,5.78,0,0,1,0-5.21,4.34,4.34,0,0,1,1.72-1.73,5,5,0,0,1,2.46-.61,3.66,3.66,0,0,1,2.87,1.16v-4.66Zm-3.42,10.38a3.06,3.06,0,0,0,0-3.87,2.35,2.35,0,0,0-1.75-.73,2.38,2.38,0,0,0-1.77.73,3.06,3.06,0,0,0,0,3.87,2.37,2.37,0,0,0,1.77.72A2.35,2.35,0,0,0,120.23,125.11Z"/><path class="cls-2" d="M135.75,118.37,131.7,128h-2.87l-4-9.6h2.88l2.66,6.53,2.74-6.53Z"/><path class="cls-2" d="M146,124h-7.26a2.28,2.28,0,0,0,.93,1.41,3.1,3.1,0,0,0,1.82.51,3.67,3.67,0,0,0,1.33-.22,3.39,3.39,0,0,0,1.08-.7l1.48,1.6a5,5,0,0,1-4,1.56,6.33,6.33,0,0,1-2.88-.64,4.61,4.61,0,0,1-1.92-1.76,5.14,5.14,0,0,1,0-5.09,4.75,4.75,0,0,1,1.84-1.77,5.42,5.42,0,0,1,2.61-.63,5.28,5.28,0,0,1,2.55.61,4.43,4.43,0,0,1,1.8,1.74,5.21,5.21,0,0,1,.65,2.63S146,123.49,146,124Zm-6.51-3.09a2.32,2.32,0,0,0-.79,1.46h4.73a2.26,2.26,0,0,0-.78-1.45,2.36,2.36,0,0,0-1.57-.54A2.39,2.39,0,0,0,139.46,120.87Z"/><path class="cls-2" d="M156.6,119.3a4.26,4.26,0,0,1,1.09,3.18V128h-2.78v-5.06a2.53,2.53,0,0,0-.5-1.71,1.83,1.83,0,0,0-1.44-.56,2.23,2.23,0,0,0-1.68.65,2.7,2.7,0,0,0-.63,1.94V128h-2.78v-9.6h2.66v1.13a3.69,3.69,0,0,1,1.37-.94,4.82,4.82,0,0,1,1.81-.33A4,4,0,0,1,156.6,119.3Z"/><path class="cls-2" d="M166.4,127.51a2.84,2.84,0,0,1-1,.45,5.18,5.18,0,0,1-1.26.16,3.72,3.72,0,0,1-2.64-.88,3.32,3.32,0,0,1-.94-2.57v-3.94h-1.48v-2.14h1.48v-2.34h2.78v2.34h2.39v2.14h-2.39v3.91a1.34,1.34,0,0,0,.31.93,1.18,1.18,0,0,0,.89.33,1.82,1.82,0,0,0,1.12-.35Z"/><path class="cls-2" d="M177.64,118.37V128H175v-1.14a3.68,3.68,0,0,1-1.32,1,4.35,4.35,0,0,1-1.66.33,4.12,4.12,0,0,1-3-1.09,4.37,4.37,0,0,1-1.1-3.23v-5.43h2.78v5c0,1.54.65,2.32,1.94,2.32a2.1,2.1,0,0,0,1.61-.65,2.78,2.78,0,0,0,.61-1.94v-4.75Z"/><path class="cls-2" d="M184.23,118.59a5,5,0,0,1,2-.36v2.57l-.63,0a2.56,2.56,0,0,0-1.87.67,2.73,2.73,0,0,0-.68,2V128h-2.78v-9.6h2.66v1.27A3.12,3.12,0,0,1,184.23,118.59Z"/><path class="cls-2" d="M197.11,124h-7.27a2.28,2.28,0,0,0,.93,1.41,3.12,3.12,0,0,0,1.82.51,3.67,3.67,0,0,0,1.33-.22A3.18,3.18,0,0,0,195,125l1.48,1.6a5,5,0,0,1-4,1.56,6.28,6.28,0,0,1-2.87-.64,4.58,4.58,0,0,1-1.93-1.76,4.84,4.84,0,0,1-.68-2.55,5,5,0,0,1,.67-2.54,4.82,4.82,0,0,1,1.84-1.77,5.42,5.42,0,0,1,2.61-.63,5.28,5.28,0,0,1,2.55.61,4.37,4.37,0,0,1,1.8,1.74,5.21,5.21,0,0,1,.65,2.63S197.14,123.49,197.11,124Zm-6.52-3.09a2.31,2.31,0,0,0-.78,1.46h4.73a2.32,2.32,0,0,0-.79-1.45,2.36,2.36,0,0,0-1.57-.54A2.39,2.39,0,0,0,190.59,120.87Z"/><path class="cls-2" d="M199.91,127.82a6,6,0,0,1-1.82-.74l.92-2a5.6,5.6,0,0,0,1.56.67,6.55,6.55,0,0,0,1.78.26q1.77,0,1.77-.87c0-.28-.16-.47-.49-.59a7.35,7.35,0,0,0-1.48-.31,13.69,13.69,0,0,1-1.94-.41,2.9,2.9,0,0,1-1.33-.82,2.34,2.34,0,0,1-.56-1.67,2.64,2.64,0,0,1,.52-1.62,3.54,3.54,0,0,1,1.54-1.1,6.56,6.56,0,0,1,2.38-.39,10,10,0,0,1,2,.22,5.71,5.71,0,0,1,1.66.62l-.92,2a5.52,5.52,0,0,0-2.77-.71,2.8,2.8,0,0,0-1.34.25.71.71,0,0,0-.44.64.63.63,0,0,0,.48.62,8.62,8.62,0,0,0,1.53.34,15.85,15.85,0,0,1,1.93.42,2.92,2.92,0,0,1,1.3.81,2.31,2.31,0,0,1,.56,1.64,2.51,2.51,0,0,1-.54,1.59,3.36,3.36,0,0,1-1.56,1.08,6.9,6.9,0,0,1-2.44.39A9.14,9.14,0,0,1,199.91,127.82Z"/><path class="cls-2" d="M220.83,119.29a4.07,4.07,0,0,1,1.2,3.21V128h-2.61v-1.19a3.09,3.09,0,0,1-2.92,1.34,4.53,4.53,0,0,1-1.92-.38,2.89,2.89,0,0,1-1.24-1,2.66,2.66,0,0,1-.43-1.5,2.52,2.52,0,0,1,1-2.11,5.14,5.14,0,0,1,3.11-.77h2.22a1.79,1.79,0,0,0-.56-1.4,2.47,2.47,0,0,0-1.66-.49,4.8,4.8,0,0,0-1.5.24,3.76,3.76,0,0,0-1.26.66l-1-2a6.15,6.15,0,0,1,1.88-.86,8.5,8.5,0,0,1,2.26-.3A5,5,0,0,1,220.83,119.29Zm-2.37,6.62a1.82,1.82,0,0,0,.79-1v-1h-1.91c-1.14,0-1.72.37-1.72,1.12a1,1,0,0,0,.42.85,1.89,1.89,0,0,0,1.15.31A2.43,2.43,0,0,0,218.46,125.91Z"/><path class="cls-2" d="M228.55,118.59a5,5,0,0,1,1.95-.36v2.57l-.62,0a2.56,2.56,0,0,0-1.87.67,2.69,2.69,0,0,0-.68,2V128h-2.79v-9.6h2.66v1.27A3.15,3.15,0,0,1,228.55,118.59Z"/><path class="cls-2" d="M233.92,127.48a4.69,4.69,0,0,1-1.88-1.76,4.87,4.87,0,0,1,1.88-6.86,6.17,6.17,0,0,1,5.43,0,5,5,0,0,1,1.88,6.86,4.76,4.76,0,0,1-1.88,1.76,6.08,6.08,0,0,1-5.43,0Zm4.48-2.37a3.09,3.09,0,0,0,0-3.87,2.34,2.34,0,0,0-1.76-.73,2.38,2.38,0,0,0-1.77.73,3.06,3.06,0,0,0,0,3.87,2.37,2.37,0,0,0,1.77.72A2.34,2.34,0,0,0,238.4,125.11Z"/><path class="cls-2" d="M253.43,118.37V128h-2.64v-1.14a3.68,3.68,0,0,1-1.32,1,4.35,4.35,0,0,1-1.66.33,4.12,4.12,0,0,1-3-1.09,4.33,4.33,0,0,1-1.1-3.23v-5.43h2.78v5c0,1.54.65,2.32,1.94,2.32a2.12,2.12,0,0,0,1.61-.65,2.78,2.78,0,0,0,.6-1.94v-4.75Z"/><path class="cls-2" d="M264.73,119.3a4.26,4.26,0,0,1,1.1,3.18V128H263v-5.06a2.48,2.48,0,0,0-.5-1.71,1.83,1.83,0,0,0-1.44-.56,2.24,2.24,0,0,0-1.68.65,2.74,2.74,0,0,0-.62,1.94V128H256v-9.6h2.66v1.13a3.64,3.64,0,0,1,1.38-.94,4.77,4.77,0,0,1,1.8-.33A4,4,0,0,1,264.73,119.3Z"/><path class="cls-2" d="M278.23,114.73V128h-2.66v-1.1a3.68,3.68,0,0,1-3,1.25,5,5,0,0,1-2.45-.61,4.34,4.34,0,0,1-1.72-1.73,5.7,5.7,0,0,1,0-5.21,4.28,4.28,0,0,1,1.72-1.73,4.92,4.92,0,0,1,2.45-.61,3.65,3.65,0,0,1,2.87,1.16v-4.66Zm-3.43,10.38a3,3,0,0,0,0-3.87,2.47,2.47,0,0,0-3.51,0,3,3,0,0,0,0,3.87,2.5,2.5,0,0,0,3.51,0Z"/><path class="cls-2" d="M10.47,145.37H3.21a2.28,2.28,0,0,0,.93,1.41,3.08,3.08,0,0,0,1.82.51,3.67,3.67,0,0,0,1.33-.22,3.39,3.39,0,0,0,1.08-.7L9.85,148a5,5,0,0,1-4,1.56A6.28,6.28,0,0,1,3,148.89a4.61,4.61,0,0,1-1.92-1.76,4.72,4.72,0,0,1-.68-2.55A4.87,4.87,0,0,1,1.08,142a4.79,4.79,0,0,1,1.83-1.77,5.43,5.43,0,0,1,2.62-.63,5.28,5.28,0,0,1,2.55.61A4.35,4.35,0,0,1,9.87,142a5.11,5.11,0,0,1,.65,2.63S10.51,144.9,10.47,145.37ZM4,142.28a2.32,2.32,0,0,0-.79,1.47H7.9a2.31,2.31,0,0,0-.78-1.46,2.38,2.38,0,0,0-1.57-.54A2.39,2.39,0,0,0,4,142.28Z"/><path class="cls-2" d="M21.73,139.78l-4.05,9.6H14.81l-4-9.6h2.88l2.65,6.53,2.75-6.53Z"/><path class="cls-2" d="M32,145.37H24.69a2.28,2.28,0,0,0,.93,1.41,3.08,3.08,0,0,0,1.82.51,3.67,3.67,0,0,0,1.33-.22,3.39,3.39,0,0,0,1.08-.7l1.48,1.6a5,5,0,0,1-4,1.56,6.33,6.33,0,0,1-2.88-.64,4.61,4.61,0,0,1-1.92-1.76,4.72,4.72,0,0,1-.68-2.55,4.87,4.87,0,0,1,.67-2.54,4.79,4.79,0,0,1,1.83-1.77,5.43,5.43,0,0,1,2.62-.63,5.28,5.28,0,0,1,2.55.61A4.35,4.35,0,0,1,31.35,142a5.11,5.11,0,0,1,.65,2.63S32,144.9,32,145.37Zm-6.51-3.09a2.32,2.32,0,0,0-.79,1.47h4.73a2.31,2.31,0,0,0-.78-1.46,2.6,2.6,0,0,0-3.16,0Z"/><path class="cls-2" d="M37.87,140a4.92,4.92,0,0,1,2-.36v2.57l-.63,0a2.58,2.58,0,0,0-1.87.67,2.73,2.73,0,0,0-.68,2v4.53H33.86v-9.6h2.66v1.27A3.1,3.1,0,0,1,37.87,140Z"/><path class="cls-2" d="M51.34,139.78,47,150a5,5,0,0,1-1.63,2.34A4,4,0,0,1,43,153a4.73,4.73,0,0,1-1.48-.24,3.12,3.12,0,0,1-1.2-.64l1-2a2.41,2.41,0,0,0,.74.45,2.26,2.26,0,0,0,.83.16,1.45,1.45,0,0,0,.93-.28,2.28,2.28,0,0,0,.64-.92l0-.09-4.16-9.67h2.87L46,146.3l2.71-6.52Z"/><path class="cls-2" d="M59.42,148.89a4.72,4.72,0,0,1-2.6-4.31,4.72,4.72,0,0,1,2.6-4.31,5.9,5.9,0,0,1,2.75-.63,5.35,5.35,0,0,1,2.65.63,3.74,3.74,0,0,1,1.65,1.82l-2.16,1.16a2.37,2.37,0,0,0-2.15-1.33,2.45,2.45,0,0,0-1.81.72,2.63,2.63,0,0,0-.71,1.94,2.67,2.67,0,0,0,.71,1.95,2.48,2.48,0,0,0,1.81.71,2.32,2.32,0,0,0,2.15-1.32l2.16,1.18a3.74,3.74,0,0,1-1.65,1.78,5.26,5.26,0,0,1-2.65.65A5.9,5.9,0,0,1,59.42,148.89Z"/><path class="cls-2" d="M69.8,148.89a4.69,4.69,0,0,1-1.88-1.76,4.81,4.81,0,0,1-.68-2.55,4.86,4.86,0,0,1,.68-2.55,4.76,4.76,0,0,1,1.88-1.76,5.77,5.77,0,0,1,2.72-.63,5.7,5.7,0,0,1,2.71.63A4.76,4.76,0,0,1,77.11,142a4.86,4.86,0,0,1,.68,2.55,4.81,4.81,0,0,1-.68,2.55,4.69,4.69,0,0,1-1.88,1.76,5.71,5.71,0,0,1-2.71.64A5.78,5.78,0,0,1,69.8,148.89Zm4.48-2.37a3.06,3.06,0,0,0,0-3.87,2.49,2.49,0,0,0-3.52,0,3,3,0,0,0,0,3.87,2.51,2.51,0,0,0,3.52,0Z"/><path class="cls-2" d="M83.65,140a4.92,4.92,0,0,1,1.95-.36v2.57l-.63,0a2.58,2.58,0,0,0-1.87.67,2.73,2.73,0,0,0-.68,2v4.53H79.64v-9.6H82.3v1.27A3.1,3.1,0,0,1,83.65,140Z"/><path class="cls-2" d="M96,140.71a4.22,4.22,0,0,1,1.1,3.18v5.49H94.29v-5.06a2.53,2.53,0,0,0-.5-1.71,1.85,1.85,0,0,0-1.45-.56,2.21,2.21,0,0,0-1.67.65,2.7,2.7,0,0,0-.63,1.94v4.74H87.26v-9.6h2.66v1.13a3.61,3.61,0,0,1,1.37-.94,4.8,4.8,0,0,1,1.8-.33A4,4,0,0,1,96,140.71Z"/><path class="cls-2" d="M109,145.37h-7.26a2.28,2.28,0,0,0,.93,1.41,3.1,3.1,0,0,0,1.82.51,3.67,3.67,0,0,0,1.33-.22,3.39,3.39,0,0,0,1.08-.7l1.48,1.6a5,5,0,0,1-4,1.56,6.33,6.33,0,0,1-2.88-.64,4.61,4.61,0,0,1-1.92-1.76,4.81,4.81,0,0,1-.68-2.55,4.87,4.87,0,0,1,.67-2.54,4.75,4.75,0,0,1,1.84-1.77,5.39,5.39,0,0,1,2.61-.63,5.28,5.28,0,0,1,2.55.61,4.35,4.35,0,0,1,1.79,1.74,5.11,5.11,0,0,1,.65,2.63S109.08,144.9,109,145.37Zm-6.51-3.09a2.32,2.32,0,0,0-.79,1.47h4.73a2.26,2.26,0,0,0-.78-1.46,2.36,2.36,0,0,0-1.57-.54A2.39,2.39,0,0,0,102.53,142.28Z"/><path class="cls-2" d="M115,140a4.92,4.92,0,0,1,2-.36v2.57l-.62,0a2.58,2.58,0,0,0-1.88.67,2.73,2.73,0,0,0-.68,2v4.53H111v-9.6h2.66v1.27A3.1,3.1,0,0,1,115,140Z"/><path class="cls-2" d="M118.28,149a1.72,1.72,0,0,1-.5-1.25,1.63,1.63,0,0,1,.5-1.24,1.83,1.83,0,0,1,2.47,0,1.63,1.63,0,0,1,.5,1.24,1.75,1.75,0,0,1-3,1.25Z"/></g></g></svg>