<svg xmlns="http://www.w3.org/2000/svg" viewBox="0 0 474.5 365"><defs><style>.cls-1{fill:#fff;}.cls-2{fill:#fa9597;}.cls-3{fill:#9ce1fd;}.cls-4{fill:#6dfebf;}.cls-5{fill:#9f9ef2;}.cls-6{fill:#534d72;}</style></defs><title>Asset 9</title><g id="Layer_2" data-name="Layer 2"><g id="Layer_8" data-name="Layer 8"><rect class="cls-1" width="473" height="365"/><path class="cls-2" d="M114,10.16h-9.14V4.78h24.88v5.38h-9.14V33.33H114Z"/><path class="cls-2" d="M153.79,13.51q2.51,2.45,2.51,7.25V33.33h-6.37V21.74a5.72,5.72,0,0,0-1.14-3.89,4.17,4.17,0,0,0-3.3-1.29,5.05,5.05,0,0,0-3.83,1.49,6.15,6.15,0,0,0-1.43,4.43V33.33h-6.36V3.07h6.36v10.6a8.48,8.48,0,0,1,3.06-1.94,11,11,0,0,1,3.91-.67A9,9,0,0,1,153.79,13.51Z"/><path class="cls-2" d="M184.68,24.15h-16.6a5.19,5.19,0,0,0,2.12,3.22,7,7,0,0,0,4.16,1.18,8.46,8.46,0,0,0,3-.51,7.4,7.4,0,0,0,2.47-1.61l3.38,3.67q-3.1,3.56-9.05,3.55a14.25,14.25,0,0,1-6.57-1.45,10.57,10.57,0,0,1-4.4-4,11,11,0,0,1-1.55-5.83,11.24,11.24,0,0,1,1.53-5.82,10.71,10.71,0,0,1,4.2-4,13,13,0,0,1,11.8-.06,10.11,10.11,0,0,1,4.1,4,11.89,11.89,0,0,1,1.49,6Q184.8,22.56,184.68,24.15Zm-14.89-7.06A5.24,5.24,0,0,0,168,20.44h10.81a5.23,5.23,0,0,0-1.8-3.32,5.36,5.36,0,0,0-3.59-1.25A5.51,5.51,0,0,0,169.79,17.09Z"/><path class="cls-2" d="M209.59,11.88h5.63v4.89h-5.46V33.33H203.4V16.77H200V11.88h3.39v-1a8,8,0,0,1,2.22-6,8.5,8.5,0,0,1,6.26-2.2,11.37,11.37,0,0,1,2.71.31,6.47,6.47,0,0,1,2.14.87l-1.67,4.61a4.34,4.34,0,0,0-2.57-.77q-2.9,0-2.9,3.18Z"/><path class="cls-2" d="M241.52,11.39V33.33h-6V30.71a8.42,8.42,0,0,1-3,2.19,9.53,9.53,0,0,1-3.79.75,9.33,9.33,0,0,1-6.85-2.49c-1.69-1.65-2.53-4.12-2.53-7.38V11.39h6.36V22.84q0,5.31,4.45,5.31a4.8,4.8,0,0,0,3.67-1.49,6.31,6.31,0,0,0,1.38-4.43V11.39Z"/><path class="cls-2" d="M262.61,32.26a6.46,6.46,0,0,1-2.31,1,11.23,11.23,0,0,1-2.87.35,8.52,8.52,0,0,1-6.06-2,7.67,7.67,0,0,1-2.14-5.87v-9h-3.38V11.88h3.38V6.53h6.36v5.35h5.47v4.89h-5.47V25.7a3,3,0,0,0,.72,2.14,2.65,2.65,0,0,0,2,.75,4.08,4.08,0,0,0,2.56-.81Z"/><path class="cls-2" d="M289.32,11.39V33.33h-6V30.71a8.42,8.42,0,0,1-3,2.19,9.5,9.5,0,0,1-3.79.75,9.35,9.35,0,0,1-6.85-2.49c-1.68-1.65-2.53-4.12-2.53-7.38V11.39h6.37V22.84q0,5.31,4.44,5.31a4.78,4.78,0,0,0,3.67-1.49A6.31,6.31,0,0,0,283,22.23V11.39Z"/><path class="cls-2" d="M305.41,11.88a11.3,11.3,0,0,1,4.46-.82v5.87c-.71-.05-1.18-.08-1.43-.08a5.82,5.82,0,0,0-4.28,1.53A6.2,6.2,0,0,0,302.61,23V33.33h-6.36V11.39h6.08v2.89A7,7,0,0,1,305.41,11.88Z"/><path class="cls-2" d="M335.85,24.15h-16.6a5.19,5.19,0,0,0,2.12,3.22,7,7,0,0,0,4.16,1.18,8.42,8.42,0,0,0,3-.51A7.3,7.3,0,0,0,331,26.43l3.38,3.67q-3.09,3.56-9.05,3.55a14.28,14.28,0,0,1-6.57-1.45,10.57,10.57,0,0,1-4.4-4,11.12,11.12,0,0,1-1.55-5.83,11.24,11.24,0,0,1,1.53-5.82,10.71,10.71,0,0,1,4.2-4,13,13,0,0,1,11.8-.06,10.11,10.11,0,0,1,4.1,4,11.89,11.89,0,0,1,1.49,6Q336,22.56,335.85,24.15ZM321,17.09a5.29,5.29,0,0,0-1.79,3.35H330a5.23,5.23,0,0,0-1.8-3.32,5.36,5.36,0,0,0-3.59-1.25A5.51,5.51,0,0,0,321,17.09Z"/><path class="cls-2" d="M367.94,23.21V33.33h-6.6V23.13L350.28,4.78h7l7.62,12.68,7.63-12.68H379Z"/><path class="cls-2" d="M401.3,24.15H384.7a5.19,5.19,0,0,0,2.12,3.22A7,7,0,0,0,391,28.55a8.42,8.42,0,0,0,3-.51,7.21,7.21,0,0,0,2.47-1.61l3.38,3.67q-3.09,3.56-9.05,3.55a14.31,14.31,0,0,1-6.57-1.45,10.57,10.57,0,0,1-4.4-4,11.12,11.12,0,0,1-1.55-5.83,11.24,11.24,0,0,1,1.53-5.82,10.71,10.71,0,0,1,4.2-4,13,13,0,0,1,11.81-.06,10.08,10.08,0,0,1,4.09,4,11.79,11.79,0,0,1,1.49,6Q401.42,22.56,401.3,24.15Zm-14.88-7.06a5.25,5.25,0,0,0-1.8,3.35h10.81a5.23,5.23,0,0,0-1.8-3.32,5.33,5.33,0,0,0-3.58-1.25A5.47,5.47,0,0,0,386.42,17.09Z"/><path class="cls-2" d="M422.75,13.49q2.73,2.41,2.73,7.32V33.33h-6V30.59q-1.8,3.06-6.69,3.06a10.22,10.22,0,0,1-4.38-.86,6.54,6.54,0,0,1-2.84-2.36,6.2,6.2,0,0,1-1-3.43A5.71,5.71,0,0,1,407,22.19c1.53-1.17,3.91-1.75,7.11-1.75h5.06a4.06,4.06,0,0,0-1.26-3.2,5.58,5.58,0,0,0-3.8-1.12,11,11,0,0,0-3.44.55,8.91,8.91,0,0,0-2.88,1.49l-2.28-4.45a13.84,13.84,0,0,1,4.3-2,19.34,19.34,0,0,1,5.16-.69Q420,11.06,422.75,13.49Zm-5.42,15.13a4.16,4.16,0,0,0,1.79-2.23V24.15h-4.36q-3.92,0-3.92,2.57a2.3,2.3,0,0,0,1,1.94,4.37,4.37,0,0,0,2.63.71A5.59,5.59,0,0,0,417.33,28.62Z"/><path class="cls-2" d="M441.41,11.88a11.3,11.3,0,0,1,4.46-.82v5.87c-.7-.05-1.18-.08-1.42-.08a5.85,5.85,0,0,0-4.29,1.53A6.2,6.2,0,0,0,438.61,23V33.33h-6.36V11.39h6.08v2.89A7,7,0,0,1,441.41,11.88Z"/><path class="cls-2" d="M452.81,33a14,14,0,0,1-4.16-1.69l2.12-4.57a13.7,13.7,0,0,0,3.55,1.53,15,15,0,0,0,4.07.59q4,0,4-2a1.41,1.41,0,0,0-1.1-1.34,15.73,15.73,0,0,0-3.39-.7,31.46,31.46,0,0,1-4.44-.94,6.85,6.85,0,0,1-3-1.87,5.37,5.37,0,0,1-1.28-3.83,6,6,0,0,1,1.2-3.7,7.68,7.68,0,0,1,3.51-2.5,14.9,14.9,0,0,1,5.44-.9,21.39,21.39,0,0,1,4.63.51A12.76,12.76,0,0,1,467.77,13l-2.12,4.52a12.74,12.74,0,0,0-6.32-1.63,6.45,6.45,0,0,0-3.06.57,1.68,1.68,0,0,0-1,1.47,1.46,1.46,0,0,0,1.1,1.43,19.59,19.59,0,0,0,3.51.77,37.91,37.91,0,0,1,4.41,1,6.58,6.58,0,0,1,3,1.86,5.25,5.25,0,0,1,1.27,3.75,5.77,5.77,0,0,1-1.23,3.63,7.71,7.71,0,0,1-3.57,2.46,15.71,15.71,0,0,1-5.56.88A21.24,21.24,0,0,1,452.81,33Z"/><path class="cls-3" d="M372,229.5H269.5A102.5,102.5,0,0,1,372,127h0Z"/><path class="cls-4" d="M372,229.5V332A102.5,102.5,0,0,1,269.5,229.5H372Z"/><path class="cls-5" d="M372,229.5V127a102.5,102.5,0,1,1,0,205h0Z"/><rect class="cls-5" x="25" y="195" width="94" height="13"/><rect class="cls-4" x="72" y="239" width="94" height="13"/><rect class="cls-3" x="28" y="289" width="94" height="13"/><path class="cls-6" d="M58.72,187.36l-4.88,13.45H50.09l-3-8.35-3.13,8.35H40.19l-4.85-13.45H39l3.17,9.1,3.3-9.1h3.3l3.2,9.1,3.28-9.1Z"/><path class="cls-6" d="M63.38,200.12a6.66,6.66,0,0,1-2.64-2.46A6.83,6.83,0,0,1,63.38,188a8.1,8.1,0,0,1,3.81-.88A8,8,0,0,1,71,188a6.66,6.66,0,0,1,2.63,2.47,7.2,7.2,0,0,1,0,7.15A6.57,6.57,0,0,1,71,200.12a8,8,0,0,1-3.8.89A8.11,8.11,0,0,1,63.38,200.12Zm6.28-3.33a4.31,4.31,0,0,0,0-5.42,3.53,3.53,0,0,0-4.94,0,4.24,4.24,0,0,0,0,5.42,3.5,3.5,0,0,0,4.94,0Z"/><path class="cls-6" d="M83.41,187.66a6.85,6.85,0,0,1,2.73-.5v3.6c-.43,0-.72,0-.87,0a3.57,3.57,0,0,0-2.63.94,3.79,3.79,0,0,0-1,2.81v6.35h-3.9V187.36h3.73v1.77A4.34,4.34,0,0,1,83.41,187.66Z"/><path class="cls-6" d="M94.87,195.53,93,197.38v3.43H89.09V182.26H93v10.5l5.7-5.4h4.64l-5.59,5.7,6.09,7.75H99.12Z"/><path class="cls-6" d="M41,282.61h-5.6v-3.3H50.67v3.3h-5.6v14.2H41Z"/><path class="cls-6" d="M58.51,283.66a6.87,6.87,0,0,1,2.74-.5v3.6c-.44,0-.73-.05-.88-.05a3.53,3.53,0,0,0-2.62.94,3.75,3.75,0,0,0-1,2.81v6.35h-3.9V283.36h3.73v1.77A4.34,4.34,0,0,1,58.51,283.66Z"/><path class="cls-6" d="M74.35,284.65A5.69,5.69,0,0,1,76,289.13v7.68H72.37v-1.68c-.73,1.25-2.1,1.88-4.1,1.88a6.39,6.39,0,0,1-2.69-.53A4,4,0,0,1,63.85,295a3.74,3.74,0,0,1-.6-2.1A3.51,3.51,0,0,1,64.66,290,7.23,7.23,0,0,1,69,288.91h3.1a2.49,2.49,0,0,0-.77-2,3.43,3.43,0,0,0-2.33-.69,6.61,6.61,0,0,0-2.11.34,5.33,5.33,0,0,0-1.76.91l-1.4-2.73a8.73,8.73,0,0,1,2.63-1.2,12,12,0,0,1,3.16-.42A7,7,0,0,1,74.35,284.65ZM71,293.92a2.53,2.53,0,0,0,1.1-1.36v-1.38H69.45c-1.6,0-2.41.53-2.41,1.58a1.42,1.42,0,0,0,.59,1.19,2.66,2.66,0,0,0,1.62.43A3.39,3.39,0,0,0,71,293.92Z"/><path class="cls-6" d="M93.27,283.36l-5.68,13.45h-4l-5.65-13.45h4l3.72,9.15,3.85-9.15Z"/><path class="cls-6" d="M108.22,291.18H98a3.19,3.19,0,0,0,1.31,2,4.31,4.31,0,0,0,2.55.72,5.11,5.11,0,0,0,1.86-.31,4.59,4.59,0,0,0,1.51-1l2.08,2.25a7,7,0,0,1-5.56,2.18,8.81,8.81,0,0,1-4-.89,6.45,6.45,0,0,1-2.7-2.46,7.22,7.22,0,0,1,0-7.14A6.59,6.59,0,0,1,97.63,284a7.59,7.59,0,0,1,3.66-.88,7.48,7.48,0,0,1,3.58.85,6.14,6.14,0,0,1,2.51,2.44,7.2,7.2,0,0,1,.91,3.68C108.29,290.18,108.27,290.53,108.22,291.18Zm-9.12-4.32a3.17,3.17,0,0,0-1.1,2.05h6.62a3.22,3.22,0,0,0-1.1-2,3.27,3.27,0,0,0-2.2-.76A3.35,3.35,0,0,0,99.1,286.86Z"/><path class="cls-6" d="M111.52,278.26h3.9v18.55h-3.9Z"/><path class="cls-6" d="M119.87,280.86a2,2,0,0,1-.67-1.55,2,2,0,0,1,.67-1.55,2.46,2.46,0,0,1,1.75-.63,2.53,2.53,0,0,1,1.75.6,1.92,1.92,0,0,1,.67,1.5,2.14,2.14,0,0,1-.67,1.62,2.76,2.76,0,0,1-3.5,0Zm-.2,2.5h3.9v13.45h-3.9Z"/><path class="cls-6" d="M140,284.66a5.92,5.92,0,0,1,1.54,4.45v7.7h-3.9v-7.1a3.5,3.5,0,0,0-.7-2.39,2.56,2.56,0,0,0-2-.79,3.12,3.12,0,0,0-2.35.92,3.77,3.77,0,0,0-.87,2.71v6.65h-3.9V283.36h3.72v1.57a5.29,5.29,0,0,1,1.93-1.31,6.68,6.68,0,0,1,2.52-.46A5.53,5.53,0,0,1,140,284.66Z"/><path class="cls-6" d="M159.74,283.36v11.2c0,2.46-.64,4.3-1.92,5.5a8,8,0,0,1-5.63,1.8,14,14,0,0,1-3.7-.48,8.05,8.05,0,0,1-2.9-1.37l1.55-2.8a6.7,6.7,0,0,0,2.15,1.11,8.45,8.45,0,0,0,2.6.41,4.21,4.21,0,0,0,3-.91,3.64,3.64,0,0,0,1-2.76v-.58a5.43,5.43,0,0,1-4.25,1.68,7.12,7.12,0,0,1-3.38-.81,6.25,6.25,0,0,1-2.44-2.29,6.87,6.87,0,0,1,0-6.8,6.18,6.18,0,0,1,2.44-2.29,7.12,7.12,0,0,1,3.38-.81,5.34,5.34,0,0,1,4.45,1.92v-1.72ZM154.91,292a3.39,3.39,0,0,0,0-4.77,3.6,3.6,0,0,0-2.54-.91,3.64,3.64,0,0,0-2.55.91,3.34,3.34,0,0,0,0,4.77,3.65,3.65,0,0,0,2.55.92A3.6,3.6,0,0,0,154.91,292Z"/><path class="cls-6" d="M38.37,247.6a8.79,8.79,0,0,1-2.55-1l1.3-2.8a8.54,8.54,0,0,0,2.17.94,9.21,9.21,0,0,0,2.5.36c1.65,0,2.48-.41,2.48-1.23a.86.86,0,0,0-.68-.82,9.92,9.92,0,0,0-2.07-.43,20.31,20.31,0,0,1-2.73-.57,4.32,4.32,0,0,1-1.86-1.15,3.29,3.29,0,0,1-.79-2.35,3.67,3.67,0,0,1,.74-2.26A4.69,4.69,0,0,1,39,234.71a9.13,9.13,0,0,1,3.34-.55,13.07,13.07,0,0,1,2.84.31,8.06,8.06,0,0,1,2.33.86l-1.3,2.78a7.7,7.7,0,0,0-3.87-1,3.9,3.9,0,0,0-1.88.35,1,1,0,0,0-.62.9.88.88,0,0,0,.67.87,11.64,11.64,0,0,0,2.15.48,24.3,24.3,0,0,1,2.7.58,4.11,4.11,0,0,1,1.83,1.14,3.22,3.22,0,0,1,.77,2.3,3.55,3.55,0,0,1-.75,2.23,4.82,4.82,0,0,1-2.18,1.51,9.74,9.74,0,0,1-3.42.54A13.32,13.32,0,0,1,38.37,247.6Z"/><path class="cls-6" d="M53.61,247.12A6.53,6.53,0,0,1,51,244.66a7.2,7.2,0,0,1,0-7.15A6.63,6.63,0,0,1,53.61,235a8.67,8.67,0,0,1,7.61,0,7,7,0,0,1,2.62,9.62,6.61,6.61,0,0,1-2.62,2.46,8.58,8.58,0,0,1-7.61,0Zm6.27-3.33a4.31,4.31,0,0,0,0-5.42,3.26,3.26,0,0,0-2.46-1,3.32,3.32,0,0,0-2.48,1,4.27,4.27,0,0,0,0,5.42,3.29,3.29,0,0,0,2.48,1A3.23,3.23,0,0,0,59.88,243.79Z"/><path class="cls-6" d="M70.66,247.12A6.58,6.58,0,0,1,68,244.66,6.79,6.79,0,0,1,70.66,235a8.25,8.25,0,0,1,3.86-.88,7.49,7.49,0,0,1,3.71.88,5.28,5.28,0,0,1,2.31,2.54l-3,1.63a3.3,3.3,0,0,0-3-1.85,3.4,3.4,0,0,0-2.52,1,4.21,4.21,0,0,0,0,5.45,3.44,3.44,0,0,0,2.52,1,3.29,3.29,0,0,0,3-1.85l3,1.65a5.37,5.37,0,0,1-2.31,2.5,7.39,7.39,0,0,1-3.71.9A8.26,8.26,0,0,1,70.66,247.12Z"/><path class="cls-6" d="M83.62,231.86a2,2,0,0,1-.68-1.55,2,2,0,0,1,.68-1.55,2.46,2.46,0,0,1,1.75-.63,2.55,2.55,0,0,1,1.75.6,1.92,1.92,0,0,1,.67,1.5,2.14,2.14,0,0,1-.67,1.62,2.76,2.76,0,0,1-3.5,0Zm-.2,2.5h3.9v13.45h-3.9Z"/><path class="cls-6" d="M101.79,235.65a5.66,5.66,0,0,1,1.68,4.48v7.68H99.82v-1.68c-.74,1.25-2.1,1.88-4.1,1.88a6.36,6.36,0,0,1-2.69-.53A4,4,0,0,1,91.29,246a3.74,3.74,0,0,1-.6-2.1,3.49,3.49,0,0,1,1.42-3,7.23,7.23,0,0,1,4.36-1.07h3.1a2.46,2.46,0,0,0-.78-2,3.38,3.38,0,0,0-2.32-.69,6.61,6.61,0,0,0-2.11.34,5.38,5.38,0,0,0-1.77.91l-1.4-2.73a8.8,8.8,0,0,1,2.64-1.2,12,12,0,0,1,3.16-.42A6.94,6.94,0,0,1,101.79,235.65Zm-3.32,9.27a2.58,2.58,0,0,0,1.1-1.36v-1.38H96.89c-1.6,0-2.4.53-2.4,1.58a1.42,1.42,0,0,0,.59,1.19,2.65,2.65,0,0,0,1.61.43A3.4,3.4,0,0,0,98.47,244.92Z"/><path class="cls-6" d="M107.62,229.26h3.9v18.55h-3.9Z"/><path class="cls-6" d="M123.74,230.31h4.05v14.2h8.78v3.3H123.74Z"/><path class="cls-6" d="M139.39,231.86a2,2,0,0,1-.67-1.55,2,2,0,0,1,.67-1.55,2.46,2.46,0,0,1,1.75-.63,2.53,2.53,0,0,1,1.75.6,1.93,1.93,0,0,1,.68,1.5,2.15,2.15,0,0,1-.68,1.62,2.76,2.76,0,0,1-3.5,0Zm-.2,2.5h3.9v13.45h-3.9Z"/><path class="cls-6" d="M151.62,234.66h3.45v3h-3.35v10.15h-3.9V237.66h-2.08v-3h2.08v-.6a4.9,4.9,0,0,1,1.36-3.65,5.23,5.23,0,0,1,3.84-1.35,6.92,6.92,0,0,1,1.66.19,4,4,0,0,1,1.31.53l-1,2.83a2.66,2.66,0,0,0-1.58-.48q-1.77,0-1.77,2Z"/><path class="cls-6" d="M170.57,242.18H160.39a3.18,3.18,0,0,0,1.3,2,4.31,4.31,0,0,0,2.55.72,5.11,5.11,0,0,0,1.86-.31,4.62,4.62,0,0,0,1.52-1l2.07,2.25a7,7,0,0,1-5.55,2.18,8.75,8.75,0,0,1-4-.89,6.45,6.45,0,0,1-2.7-2.46,6.73,6.73,0,0,1-.95-3.58,6.93,6.93,0,0,1,.93-3.56A6.69,6.69,0,0,1,160,235a7.56,7.56,0,0,1,3.66-.88,7.48,7.48,0,0,1,3.58.85,6.2,6.2,0,0,1,2.51,2.44,7.2,7.2,0,0,1,.91,3.68C170.64,241.18,170.62,241.53,170.57,242.18Zm-9.13-4.32a3.17,3.17,0,0,0-1.1,2H167a3.2,3.2,0,0,0-3.3-2.8A3.36,3.36,0,0,0,161.44,237.86Z"/></g></g></svg>