<svg xmlns="http://www.w3.org/2000/svg" viewBox="0 0 392.69 152.84"><defs><style>.cls-1{fill:#9ce1fd;}.cls-2{fill:#534d72;}</style></defs><title>Asset 51</title><g id="Layer_2" data-name="Layer 2"><g id="Layer_1-2" data-name="Layer 1"><path class="cls-1" d="M9.28,7.1H.15V1.71H25V7.1H15.89V30.26H9.28Z"/><path class="cls-1" d="M49.06,10.44q2.5,2.45,2.51,7.26V30.26H45.21V18.68a5.75,5.75,0,0,0-1.14-3.9,4.24,4.24,0,0,0-3.31-1.28A5,5,0,0,0,36.93,15a6.15,6.15,0,0,0-1.43,4.42V30.26H29.14V0H35.5V10.6a8.32,8.32,0,0,1,3.06-1.93A11.05,11.05,0,0,1,42.48,8,9,9,0,0,1,49.06,10.44Z"/><path class="cls-1" d="M80,21.08H63.35a5.16,5.16,0,0,0,2.12,3.22,7,7,0,0,0,4.16,1.19,8.38,8.38,0,0,0,3-.51,7.36,7.36,0,0,0,2.47-1.61L78.52,27q-3.09,3.54-9,3.54a14.36,14.36,0,0,1-6.56-1.44,10.62,10.62,0,0,1-4.41-4A11.1,11.1,0,0,1,57,19.29a11.18,11.18,0,0,1,1.53-5.81,10.74,10.74,0,0,1,4.2-4,13,13,0,0,1,11.81-.06,10,10,0,0,1,4.09,4,11.75,11.75,0,0,1,1.49,6Q80.07,19.49,80,21.08ZM65.07,14a5.21,5.21,0,0,0-1.8,3.34H74.08a5.32,5.32,0,0,0-1.79-3.32,5.87,5.87,0,0,0-7.22,0Z"/><path class="cls-1" d="M104.11,28.85a14.1,14.1,0,0,1-5.54-5.26,14.45,14.45,0,0,1-2-7.6,14.46,14.46,0,0,1,2-7.61,14.1,14.1,0,0,1,5.54-5.26,17.65,17.65,0,0,1,14.64-.59,13.45,13.45,0,0,1,5,3.75l-4.24,3.92a9.12,9.12,0,0,0-7.18-3.35A9.58,9.58,0,0,0,107.64,8a8.27,8.27,0,0,0-3.24,3.24A9.51,9.51,0,0,0,103.24,16a9.5,9.5,0,0,0,1.16,4.73A8.27,8.27,0,0,0,107.64,24a9.58,9.58,0,0,0,4.73,1.16,9.09,9.09,0,0,0,7.18-3.38l4.24,3.91a13.23,13.23,0,0,1-5.06,3.79A16.76,16.76,0,0,1,112,30.75,16.32,16.32,0,0,1,104.11,28.85Z"/><path class="cls-1" d="M132.25,29.14a10.83,10.83,0,0,1-4.3-4,11.1,11.1,0,0,1-1.55-5.83A11.07,11.07,0,0,1,128,13.46a10.83,10.83,0,0,1,4.3-4A13.24,13.24,0,0,1,138.47,8a13.1,13.1,0,0,1,6.2,1.45,10.84,10.84,0,0,1,4.28,4,11.07,11.07,0,0,1,1.55,5.83A11.1,11.1,0,0,1,149,25.12a10.84,10.84,0,0,1-4.28,4,13.1,13.1,0,0,1-6.2,1.44A13.23,13.23,0,0,1,132.25,29.14Zm10.24-5.43a6.17,6.17,0,0,0,1.57-4.42,6.21,6.21,0,0,0-1.57-4.43,5.32,5.32,0,0,0-4-1.65,5.37,5.37,0,0,0-4,1.65,6.14,6.14,0,0,0-1.59,4.43,6.1,6.1,0,0,0,1.59,4.42,5.38,5.38,0,0,0,4,1.66A5.32,5.32,0,0,0,142.49,23.71Z"/><path class="cls-1" d="M155.76,0h6.36V30.26h-6.36Z"/><path class="cls-1" d="M169.06,0h6.36V30.26h-6.36Z"/><path class="cls-1" d="M203.72,21.08h-16.6a5.16,5.16,0,0,0,2.12,3.22,7,7,0,0,0,4.16,1.19,8.46,8.46,0,0,0,3-.51,7.56,7.56,0,0,0,2.47-1.61L202.29,27q-3.1,3.54-9,3.54a14.38,14.38,0,0,1-6.57-1.44,10.66,10.66,0,0,1-4.4-4,11,11,0,0,1-1.55-5.83,11.18,11.18,0,0,1,1.53-5.81,10.74,10.74,0,0,1,4.2-4,13,13,0,0,1,11.8-.06,10.07,10.07,0,0,1,4.1,4,11.85,11.85,0,0,1,1.49,6Q203.84,19.49,203.72,21.08Zm-14.89-7A5.19,5.19,0,0,0,187,17.37h10.81a5.28,5.28,0,0,0-1.8-3.32,5.36,5.36,0,0,0-3.59-1.25A5.47,5.47,0,0,0,188.83,14Z"/><path class="cls-1" d="M231.73,8.32V26.59q0,6-3.14,9t-9.17,2.94a22.88,22.88,0,0,1-6-.78,13.08,13.08,0,0,1-4.73-2.24l2.53-4.57a10.37,10.37,0,0,0,3.51,1.82,14.21,14.21,0,0,0,4.24.67,6.87,6.87,0,0,0,4.87-1.49,5.91,5.91,0,0,0,1.57-4.51v-.93a8.91,8.91,0,0,1-6.93,2.73,11.62,11.62,0,0,1-5.53-1.33,10,10,0,0,1-4-3.73,10.4,10.4,0,0,1-1.47-5.54,10.41,10.41,0,0,1,1.47-5.55,10.11,10.11,0,0,1,4-3.73A11.73,11.73,0,0,1,218.44,8a8.72,8.72,0,0,1,7.26,3.14V8.32Zm-7.89,14.17a5,5,0,0,0,1.61-3.89,5,5,0,0,0-1.61-3.9,5.86,5.86,0,0,0-4.14-1.49,6,6,0,0,0-4.16,1.49,5,5,0,0,0-1.63,3.9,5,5,0,0,0,1.63,3.89A6,6,0,0,0,219.7,24,5.86,5.86,0,0,0,223.84,22.49Z"/><path class="cls-1" d="M260,21.08h-16.6a5.12,5.12,0,0,0,2.12,3.22,7,7,0,0,0,4.16,1.19,8.46,8.46,0,0,0,3-.51,7.42,7.42,0,0,0,2.46-1.61L258.61,27q-3.1,3.54-9.06,3.54A14.36,14.36,0,0,1,243,29.14a10.75,10.75,0,0,1-4.41-4A11.09,11.09,0,0,1,237,19.29a11.17,11.17,0,0,1,1.52-5.81,10.74,10.74,0,0,1,4.2-4,12.42,12.42,0,0,1,6-1.45,12.27,12.27,0,0,1,5.83,1.39,10.07,10.07,0,0,1,4.1,4,11.85,11.85,0,0,1,1.49,6Q260.16,19.49,260,21.08Zm-14.89-7a5.15,5.15,0,0,0-1.79,3.34h10.8a5.22,5.22,0,0,0-1.79-3.32,5.38,5.38,0,0,0-3.59-1.25A5.47,5.47,0,0,0,245.15,14Z"/><path class="cls-1" d="M292.13,20.15V30.26h-6.61V20.06l-11-18.35h7l7.62,12.69,7.63-12.69h6.48Z"/><path class="cls-1" d="M325.49,21.08h-16.6A5.16,5.16,0,0,0,311,24.3a7,7,0,0,0,4.16,1.19,8.46,8.46,0,0,0,3-.51,7.56,7.56,0,0,0,2.47-1.61L324.06,27Q321,30.58,315,30.58a14.38,14.38,0,0,1-6.57-1.44,10.66,10.66,0,0,1-4.4-4,11,11,0,0,1-1.55-5.83A11.18,11.18,0,0,1,304,13.48a10.74,10.74,0,0,1,4.2-4A13,13,0,0,1,320,9.38a10.07,10.07,0,0,1,4.1,4,11.85,11.85,0,0,1,1.49,6Q325.61,19.49,325.49,21.08ZM310.6,14a5.19,5.19,0,0,0-1.79,3.34h10.81a5.28,5.28,0,0,0-1.8-3.32,5.36,5.36,0,0,0-3.59-1.25A5.47,5.47,0,0,0,310.6,14Z"/><path class="cls-1" d="M346.94,10.42q2.73,2.43,2.73,7.32V30.26h-5.95V27.53c-1.2,2-3.43,3-6.69,3a10.42,10.42,0,0,1-4.39-.85,6.53,6.53,0,0,1-2.83-2.37,6.14,6.14,0,0,1-1-3.42,5.71,5.71,0,0,1,2.3-4.81q2.31-1.75,7.12-1.76h5.06a4,4,0,0,0-1.27-3.2,5.54,5.54,0,0,0-3.79-1.12,10.91,10.91,0,0,0-3.44.55,9.11,9.11,0,0,0-2.88,1.49l-2.28-4.45a13.73,13.73,0,0,1,4.3-2,19,19,0,0,1,5.16-.7Q344.21,8,346.94,10.42Zm-5.43,15.13a4.15,4.15,0,0,0,1.8-2.22V21.08h-4.37q-3.92,0-3.91,2.57a2.29,2.29,0,0,0,1,1.94,4.28,4.28,0,0,0,2.63.71A5.53,5.53,0,0,0,341.51,25.55Z"/><path class="cls-1" d="M365.59,8.81A11.32,11.32,0,0,1,370.06,8v5.88c-.71-.06-1.18-.09-1.43-.09a5.82,5.82,0,0,0-4.28,1.53,6.2,6.2,0,0,0-1.55,4.59V30.26h-6.36V8.32h6.08v2.89A7,7,0,0,1,365.59,8.81Z"/><path class="cls-1" d="M377,29.91a14.07,14.07,0,0,1-4.16-1.69L375,23.65a13.19,13.19,0,0,0,3.55,1.53,14.69,14.69,0,0,0,4.08.59c2.69,0,4-.66,4-2a1.41,1.41,0,0,0-1.1-1.34,16.65,16.65,0,0,0-3.39-.69,34.2,34.2,0,0,1-4.44-.94,6.9,6.9,0,0,1-3-1.88,5.31,5.31,0,0,1-1.29-3.83,5.94,5.94,0,0,1,1.21-3.69,7.71,7.71,0,0,1,3.5-2.51,15,15,0,0,1,5.45-.9,21.39,21.39,0,0,1,4.63.51A13,13,0,0,1,392,9.91l-2.12,4.53a12.65,12.65,0,0,0-6.32-1.64,6.43,6.43,0,0,0-3.06.58,1.68,1.68,0,0,0-1,1.46,1.46,1.46,0,0,0,1.1,1.43,19.87,19.87,0,0,0,3.51.78,40.15,40.15,0,0,1,4.4.95,6.61,6.61,0,0,1,3,1.86,5.28,5.28,0,0,1,1.26,3.75,5.76,5.76,0,0,1-1.22,3.63,7.9,7.9,0,0,1-3.57,2.47,16,16,0,0,1-5.57.87A21.24,21.24,0,0,1,377,29.91Z"/><path class="cls-2" d="M20.34,51.25,16.25,63.74h-3.1L10.4,55.29,7.57,63.74H4.48L.38,51.25h3L6.19,60l2.94-8.78h2.68l2.86,8.85,2.9-8.85Z"/><path class="cls-2" d="M30.73,55.07a4.28,4.28,0,0,1,1.1,3.18v5.49H29.05V58.68a2.55,2.55,0,0,0-.5-1.71,1.87,1.87,0,0,0-1.45-.56,2.24,2.24,0,0,0-1.68.65A2.74,2.74,0,0,0,24.8,59v4.74H22V50.51H24.8v4.63a3.68,3.68,0,0,1,1.34-.84,4.73,4.73,0,0,1,1.71-.3A4,4,0,0,1,30.73,55.07Z"/><path class="cls-2" d="M43.8,59.73H36.54a2.25,2.25,0,0,0,.93,1.41,3.08,3.08,0,0,0,1.82.52,3.67,3.67,0,0,0,1.33-.23,3.22,3.22,0,0,0,1.08-.7l1.48,1.6a5,5,0,0,1-4,1.56,6.16,6.16,0,0,1-2.87-.64,4.59,4.59,0,0,1-1.92-1.75A4.77,4.77,0,0,1,33.74,59a4.91,4.91,0,0,1,.67-2.55,4.69,4.69,0,0,1,1.83-1.76A5.32,5.32,0,0,1,38.86,54a5.4,5.4,0,0,1,2.55.61,4.35,4.35,0,0,1,1.79,1.74A5.11,5.11,0,0,1,43.85,59S43.84,59.27,43.8,59.73Zm-6.51-3.09a2.32,2.32,0,0,0-.79,1.47h4.73a2.33,2.33,0,0,0-.78-1.46,2.38,2.38,0,0,0-1.57-.54A2.44,2.44,0,0,0,37.29,56.64Z"/><path class="cls-2" d="M54.42,55.07a4.24,4.24,0,0,1,1.1,3.18v5.49H52.74V58.68a2.55,2.55,0,0,0-.5-1.71,1.85,1.85,0,0,0-1.45-.56,2.21,2.21,0,0,0-1.67.65A2.7,2.7,0,0,0,48.49,59v4.74H45.71V54.15h2.66v1.12a3.72,3.72,0,0,1,1.37-.94,4.8,4.8,0,0,1,1.8-.33A4,4,0,0,1,54.42,55.07Z"/><path class="cls-2" d="M69.28,63.28a3.14,3.14,0,0,1-1,.46,5.18,5.18,0,0,1-1.26.15A3.72,3.72,0,0,1,64.36,63a3.36,3.36,0,0,1-.93-2.57V56.5H61.94V54.36h1.49V52h2.78v2.34H68.6V56.5H66.21v3.91a1.29,1.29,0,0,0,.31.93,1.15,1.15,0,0,0,.88.33,1.79,1.79,0,0,0,1.13-.35Z"/><path class="cls-2" d="M79.56,55.07a4.28,4.28,0,0,1,1.1,3.18v5.49H77.88V58.68a2.55,2.55,0,0,0-.5-1.71,1.87,1.87,0,0,0-1.45-.56,2.24,2.24,0,0,0-1.68.65A2.74,2.74,0,0,0,73.63,59v4.74H70.85V50.51h2.78v4.63A3.77,3.77,0,0,1,75,54.3a4.73,4.73,0,0,1,1.71-.3A4,4,0,0,1,79.56,55.07Z"/><path class="cls-2" d="M92.63,59.73H85.37a2.25,2.25,0,0,0,.93,1.41,3.08,3.08,0,0,0,1.82.52,3.67,3.67,0,0,0,1.33-.23,3.22,3.22,0,0,0,1.08-.7L92,62.33a5,5,0,0,1-4,1.56,6.16,6.16,0,0,1-2.87-.64,4.59,4.59,0,0,1-1.92-1.75A4.77,4.77,0,0,1,82.57,59a4.91,4.91,0,0,1,.67-2.55,4.69,4.69,0,0,1,1.83-1.76A5.32,5.32,0,0,1,87.69,54a5.4,5.4,0,0,1,2.55.61A4.35,4.35,0,0,1,92,56.35,5.11,5.11,0,0,1,92.68,59S92.67,59.27,92.63,59.73Zm-6.51-3.09a2.32,2.32,0,0,0-.79,1.47h4.73a2.33,2.33,0,0,0-.78-1.46,2.38,2.38,0,0,0-1.57-.54A2.44,2.44,0,0,0,86.12,56.64Z"/><path class="cls-2" d="M102.64,54.36h2.46V56.5h-2.39v7.24H99.93V56.5H98.45V54.36h1.48v-.43a3.49,3.49,0,0,1,1-2.6,3.7,3.7,0,0,1,2.74-1,5,5,0,0,1,1.18.14,2.8,2.8,0,0,1,.94.38l-.73,2a1.88,1.88,0,0,0-1.12-.34c-.85,0-1.27.46-1.27,1.39Z"/><path class="cls-2" d="M116.16,54.15v9.59h-2.64V62.6a3.68,3.68,0,0,1-1.32,1,4.56,4.56,0,0,1-4.66-.76,4.37,4.37,0,0,1-1.1-3.23V54.15h2.78v5c0,1.55.65,2.32,2,2.32a2.09,2.09,0,0,0,1.6-.65,2.74,2.74,0,0,0,.61-1.94V54.15Z"/><path class="cls-2" d="M127.46,55.07a4.24,4.24,0,0,1,1.1,3.18v5.49h-2.78V58.68a2.55,2.55,0,0,0-.5-1.71,1.85,1.85,0,0,0-1.45-.56,2.21,2.21,0,0,0-1.67.65,2.7,2.7,0,0,0-.63,1.94v4.74h-2.78V54.15h2.66v1.12a3.72,3.72,0,0,1,1.37-.94,4.8,4.8,0,0,1,1.8-.33A4,4,0,0,1,127.46,55.07Z"/><path class="cls-2" d="M151.54,54.15l-3.48,9.59h-2.67l-2.16-6-2.23,6h-2.68l-3.46-9.59h2.62l2.27,6.49,2.35-6.49h2.36l2.28,6.49,2.34-6.49Z"/><path class="cls-2" d="M159.82,55.06A4.07,4.07,0,0,1,161,58.27v5.47h-2.6V62.55a3.11,3.11,0,0,1-2.93,1.34,4.52,4.52,0,0,1-1.91-.38,2.77,2.77,0,0,1-1.24-1,2.66,2.66,0,0,1-.43-1.5,2.49,2.49,0,0,1,1-2.11,5.14,5.14,0,0,1,3.11-.76h2.21a1.75,1.75,0,0,0-.55-1.4,2.42,2.42,0,0,0-1.66-.5,4.88,4.88,0,0,0-1.51.25,4,4,0,0,0-1.26.65l-1-2a6.07,6.07,0,0,1,1.89-.85,8.09,8.09,0,0,1,2.25-.31A5,5,0,0,1,159.82,55.06Zm-2.37,6.62a1.8,1.8,0,0,0,.78-1v-1h-1.91c-1.14,0-1.71.37-1.71,1.12a1,1,0,0,0,.42.85,1.87,1.87,0,0,0,1.15.31A2.43,2.43,0,0,0,157.45,61.68Z"/><path class="cls-2" d="M164.42,63.59a5.87,5.87,0,0,1-1.82-.74l.93-2a5.66,5.66,0,0,0,1.55.67,6.25,6.25,0,0,0,1.79.26c1.17,0,1.76-.29,1.76-.87a.62.62,0,0,0-.48-.59,6.82,6.82,0,0,0-1.48-.3,13.71,13.71,0,0,1-1.95-.42,2.87,2.87,0,0,1-1.32-.82,2.3,2.3,0,0,1-.57-1.67,2.64,2.64,0,0,1,.53-1.62,3.35,3.35,0,0,1,1.53-1.09,6.43,6.43,0,0,1,2.39-.4,9.27,9.27,0,0,1,2,.23,5.78,5.78,0,0,1,1.67.61l-.93,2a5.56,5.56,0,0,0-2.76-.71,2.77,2.77,0,0,0-1.34.25.73.73,0,0,0-.45.64.62.62,0,0,0,.48.62,7.94,7.94,0,0,0,1.54.34,16.29,16.29,0,0,1,1.93.42,3,3,0,0,1,1.3.81,2.32,2.32,0,0,1,.55,1.65,2.55,2.55,0,0,1-.53,1.58,3.35,3.35,0,0,1-1.57,1.08,6.8,6.8,0,0,1-2.43.39A9.16,9.16,0,0,1,164.42,63.59Z"/><path class="cls-2" d="M179.9,63.25A4.67,4.67,0,0,1,178,61.5a5.14,5.14,0,0,1,0-5.11,4.67,4.67,0,0,1,1.88-1.75,6.08,6.08,0,0,1,5.43,0,4.74,4.74,0,0,1,1.88,1.75,5.21,5.21,0,0,1,0,5.11,4.74,4.74,0,0,1-1.88,1.75,6.08,6.08,0,0,1-5.43,0Zm4.48-2.37a3.09,3.09,0,0,0,0-3.87,2.34,2.34,0,0,0-1.76-.72,2.37,2.37,0,0,0-1.77.72,3.06,3.06,0,0,0,0,3.87,2.37,2.37,0,0,0,1.77.72A2.34,2.34,0,0,0,184.38,60.88Z"/><path class="cls-2" d="M199,54.15,195,63.74h-2.87l-4-9.59h2.88l2.65,6.53,2.75-6.53Z"/><path class="cls-2" d="M209.22,59.73H202a2.25,2.25,0,0,0,.93,1.41,3.08,3.08,0,0,0,1.82.52,3.67,3.67,0,0,0,1.33-.23,3.22,3.22,0,0,0,1.08-.7l1.48,1.6a5,5,0,0,1-4,1.56,6.16,6.16,0,0,1-2.87-.64,4.59,4.59,0,0,1-1.92-1.75,4.77,4.77,0,0,1-.68-2.55,4.91,4.91,0,0,1,.67-2.55,4.69,4.69,0,0,1,1.83-1.76,5.32,5.32,0,0,1,2.62-.64,5.4,5.4,0,0,1,2.55.61,4.35,4.35,0,0,1,1.79,1.74,5.11,5.11,0,0,1,.65,2.63S209.26,59.27,209.22,59.73Zm-6.51-3.09a2.32,2.32,0,0,0-.79,1.47h4.73a2.33,2.33,0,0,0-.78-1.46,2.38,2.38,0,0,0-1.57-.54A2.44,2.44,0,0,0,202.71,56.64Z"/><path class="cls-2" d="M215.13,54.36a5,5,0,0,1,2-.36v2.57l-.63,0a2.54,2.54,0,0,0-1.87.67,2.69,2.69,0,0,0-.68,2v4.53h-2.78V54.15h2.66v1.26A3.12,3.12,0,0,1,215.13,54.36Z"/><path class="cls-2" d="M224.06,51.25H227V63.74h-2.89Z"/><path class="cls-2" d="M238.89,60l-1.34,1.32v2.44h-2.78V50.51h2.78V58l4.07-3.85h3.32l-4,4.06,4.35,5.53h-3.37Z"/><path class="cls-2" d="M255.19,55.07a4.28,4.28,0,0,1,1.1,3.18v5.49H253.5V58.68A2.55,2.55,0,0,0,253,57a1.83,1.83,0,0,0-1.44-.56,2.23,2.23,0,0,0-1.68.65,2.7,2.7,0,0,0-.63,1.94v4.74h-2.78V54.15h2.66v1.12a3.81,3.81,0,0,1,1.37-.94,4.82,4.82,0,0,1,1.81-.33A4,4,0,0,1,255.19,55.07Z"/><path class="cls-2" d="M268.26,59.73H261a2.24,2.24,0,0,0,.92,1.41,3.13,3.13,0,0,0,1.82.52,3.63,3.63,0,0,0,1.33-.23,3,3,0,0,0,1.08-.7l1.48,1.6a5,5,0,0,1-4,1.56,6.16,6.16,0,0,1-2.87-.64,4.62,4.62,0,0,1-1.93-1.75,4.86,4.86,0,0,1-.68-2.55,5,5,0,0,1,.67-2.55,4.72,4.72,0,0,1,1.84-1.76,5.31,5.31,0,0,1,2.61-.64,5.47,5.47,0,0,1,2.56.61,4.41,4.41,0,0,1,1.79,1.74,5.21,5.21,0,0,1,.65,2.63S268.29,59.27,268.26,59.73Zm-6.52-3.09a2.31,2.31,0,0,0-.78,1.47h4.73a2.29,2.29,0,0,0-2.36-2A2.44,2.44,0,0,0,261.74,56.64Z"/><path class="cls-2" d="M285.4,54.15l-3.48,9.59h-2.67l-2.16-6-2.23,6h-2.68l-3.46-9.59h2.62l2.27,6.49L276,54.15h2.36l2.28,6.49,2.34-6.49Z"/><path class="cls-2" d="M291.9,52.36a1.49,1.49,0,0,1,0-2.21,1.73,1.73,0,0,1,1.24-.45,1.82,1.82,0,0,1,1.25.43,1.39,1.39,0,0,1,.49,1.07,1.51,1.51,0,0,1-.49,1.15,1.71,1.71,0,0,1-1.25.46A1.73,1.73,0,0,1,291.9,52.36Zm-.15,1.79h2.79v9.59h-2.79Z"/><path class="cls-2" d="M303.31,63.28a3.08,3.08,0,0,1-1,.46,5.18,5.18,0,0,1-1.26.15A3.7,3.7,0,0,1,298.4,63a3.32,3.32,0,0,1-.94-2.57V56.5H296V54.36h1.48V52h2.79v2.34h2.39V56.5h-2.39v3.91a1.29,1.29,0,0,0,.31.93,1.14,1.14,0,0,0,.88.33,1.76,1.76,0,0,0,1.12-.35Z"/><path class="cls-2" d="M16.68,75.55l-3.48,9.6H10.53l-2.16-6-2.23,6H3.46L0,75.55H2.62l2.27,6.5,2.35-6.5H9.6l2.28,6.5,2.34-6.5Z"/><path class="cls-2" d="M25,76.47a4.07,4.07,0,0,1,1.2,3.21v5.47H23.55V84a3.11,3.11,0,0,1-2.93,1.34,4.52,4.52,0,0,1-1.91-.38,2.83,2.83,0,0,1-1.24-1,2.66,2.66,0,0,1-.43-1.5,2.49,2.49,0,0,1,1-2.11,5.14,5.14,0,0,1,3.11-.76h2.21a1.75,1.75,0,0,0-.55-1.4,2.42,2.42,0,0,0-1.66-.5,4.93,4.93,0,0,0-1.51.25,4,4,0,0,0-1.26.65l-1-2a6.32,6.32,0,0,1,1.89-.86,8.48,8.48,0,0,1,2.25-.3A5,5,0,0,1,25,76.47Zm-2.37,6.62a1.76,1.76,0,0,0,.78-1v-1H21.46c-1.14,0-1.71.37-1.71,1.12a1,1,0,0,0,.42.85,1.87,1.87,0,0,0,1.15.31A2.43,2.43,0,0,0,22.59,83.09Z"/><path class="cls-2" d="M29.56,85a5.87,5.87,0,0,1-1.82-.74l.93-2a5.66,5.66,0,0,0,1.55.67,6.62,6.62,0,0,0,1.79.26c1.17,0,1.76-.29,1.76-.87a.62.62,0,0,0-.48-.59,7.35,7.35,0,0,0-1.48-.31A12.42,12.42,0,0,1,29.87,81a2.85,2.85,0,0,1-1.33-.82A2.3,2.3,0,0,1,28,78.52a2.64,2.64,0,0,1,.53-1.62A3.42,3.42,0,0,1,30,75.8a6.56,6.56,0,0,1,2.38-.39,9.91,9.91,0,0,1,2,.22,5.78,5.78,0,0,1,1.67.62l-.93,2a5.46,5.46,0,0,0-2.76-.71,2.77,2.77,0,0,0-1.34.25.73.73,0,0,0-.45.64.62.62,0,0,0,.48.62,8.13,8.13,0,0,0,1.54.34,16.29,16.29,0,0,1,1.93.42,2.92,2.92,0,0,1,1.3.81,2.32,2.32,0,0,1,.55,1.65,2.55,2.55,0,0,1-.53,1.58,3.35,3.35,0,0,1-1.57,1.08,6.8,6.8,0,0,1-2.43.39A9.16,9.16,0,0,1,29.56,85Z"/><path class="cls-2" d="M49.38,84.69a2.87,2.87,0,0,1-1,.45,4.73,4.73,0,0,1-1.26.16,3.75,3.75,0,0,1-2.65-.88,3.32,3.32,0,0,1-.94-2.57V77.91H42.05V75.77h1.48V73.43h2.79v2.34h2.39v2.14H46.32v3.91a1.29,1.29,0,0,0,.31.93,1.14,1.14,0,0,0,.88.33,1.8,1.8,0,0,0,1.12-.35Z"/><path class="cls-2" d="M51.1,73.77a1.47,1.47,0,0,1-.49-1.11,1.45,1.45,0,0,1,.49-1.1,1.73,1.73,0,0,1,1.24-.45,1.78,1.78,0,0,1,1.25.43,1.36,1.36,0,0,1,.49,1.07,1.48,1.48,0,0,1-.49,1.15,1.71,1.71,0,0,1-1.25.46A1.73,1.73,0,0,1,51.1,73.77ZM51,75.55h2.79v9.6H51Z"/><path class="cls-2" d="M71.48,76.47a4.33,4.33,0,0,1,1.06,3.19v5.49H69.76V80.09a2.66,2.66,0,0,0-.47-1.71,1.69,1.69,0,0,0-1.35-.56,2,2,0,0,0-1.55.63,2.71,2.71,0,0,0-.57,1.89v4.81H63V80.09c0-1.51-.6-2.27-1.82-2.27a2,2,0,0,0-1.53.63,2.76,2.76,0,0,0-.57,1.89v4.81H56.32v-9.6H59v1.11a3.73,3.73,0,0,1,1.31-.93A4.53,4.53,0,0,1,62,75.41a4.2,4.2,0,0,1,1.83.4A3.34,3.34,0,0,1,65.16,77a4,4,0,0,1,1.48-1.16,4.81,4.81,0,0,1,2-.41A3.9,3.9,0,0,1,71.48,76.47Z"/><path class="cls-2" d="M84.5,81.14H77.23a2.32,2.32,0,0,0,.93,1.41,3.13,3.13,0,0,0,1.82.52,3.67,3.67,0,0,0,1.33-.23,3.18,3.18,0,0,0,1.08-.7l1.48,1.6a5,5,0,0,1-4,1.56A6.28,6.28,0,0,1,77,84.66a4.69,4.69,0,0,1-1.93-1.75,4.87,4.87,0,0,1-.68-2.56,5,5,0,0,1,.67-2.54A4.82,4.82,0,0,1,76.94,76a5.42,5.42,0,0,1,2.61-.63A5.28,5.28,0,0,1,82.1,76a4.37,4.37,0,0,1,1.8,1.74,5.21,5.21,0,0,1,.65,2.63S84.53,80.67,84.5,81.14ZM78,78.05a2.31,2.31,0,0,0-.78,1.47h4.73a2.32,2.32,0,0,0-.79-1.46,2.36,2.36,0,0,0-1.57-.54A2.44,2.44,0,0,0,78,78.05Z"/><path class="cls-2" d="M97.64,84.69a2.79,2.79,0,0,1-1,.45,4.73,4.73,0,0,1-1.26.16,3.75,3.75,0,0,1-2.65-.88,3.32,3.32,0,0,1-.94-2.57V77.91H90.31V75.77h1.48V73.43h2.79v2.34H97v2.14H94.58v3.91a1.29,1.29,0,0,0,.31.93,1.15,1.15,0,0,0,.88.33,1.85,1.85,0,0,0,1.13-.35Z"/><path class="cls-2" d="M100.76,84.66a4.67,4.67,0,0,1-1.88-1.75,5.14,5.14,0,0,1,0-5.11A4.7,4.7,0,0,1,100.76,76a6.17,6.17,0,0,1,5.43,0,4.74,4.74,0,0,1,1.87,1.76,5.14,5.14,0,0,1,0,5.11,4.71,4.71,0,0,1-1.87,1.75,6.08,6.08,0,0,1-5.43,0Zm4.48-2.37a3.09,3.09,0,0,0,0-3.87,2.52,2.52,0,0,0-3.53,0,3.06,3.06,0,0,0,0,3.87,2.52,2.52,0,0,0,3.53,0Z"/><path class="cls-2" d="M121.84,84.69a2.93,2.93,0,0,1-1,.45,4.73,4.73,0,0,1-1.26.16,3.75,3.75,0,0,1-2.65-.88,3.36,3.36,0,0,1-.94-2.57V77.91H114.5V75.77H116V73.43h2.79v2.34h2.39v2.14h-2.39v3.91a1.29,1.29,0,0,0,.31.93,1.15,1.15,0,0,0,.88.33,1.85,1.85,0,0,0,1.13-.35Z"/><path class="cls-2" d="M130.7,76.47a4.07,4.07,0,0,1,1.2,3.21v5.47h-2.61V84a3.1,3.1,0,0,1-2.92,1.34,4.53,4.53,0,0,1-1.92-.38,2.89,2.89,0,0,1-1.24-1,2.66,2.66,0,0,1-.43-1.5,2.52,2.52,0,0,1,1-2.11,5.14,5.14,0,0,1,3.11-.76h2.22a1.76,1.76,0,0,0-.56-1.4,2.42,2.42,0,0,0-1.66-.5,4.93,4.93,0,0,0-1.51.25,3.79,3.79,0,0,0-1.25.65l-1-2a6.15,6.15,0,0,1,1.88-.86,8.5,8.5,0,0,1,2.26-.3A5,5,0,0,1,130.7,76.47Zm-2.37,6.62a1.82,1.82,0,0,0,.79-1v-1h-1.91c-1.15,0-1.72.37-1.72,1.12a1,1,0,0,0,.42.85,1.89,1.89,0,0,0,1.15.31A2.43,2.43,0,0,0,128.33,83.09Z"/><path class="cls-2" d="M138.54,81.39l-1.34,1.32v2.44h-2.79V71.92h2.79v7.49l4.06-3.86h3.32l-4,4.07,4.35,5.53h-3.37Z"/><path class="cls-2" d="M155.13,81.14h-7.26a2.31,2.31,0,0,0,.92,1.41,3.13,3.13,0,0,0,1.82.52,3.63,3.63,0,0,0,1.33-.23,3.18,3.18,0,0,0,1.08-.7l1.48,1.6a5,5,0,0,1-4,1.56,6.28,6.28,0,0,1-2.87-.64,4.75,4.75,0,0,1-1.93-1.75,4.87,4.87,0,0,1-.67-2.56,5,5,0,0,1,.66-2.54A4.82,4.82,0,0,1,147.57,76a5.43,5.43,0,0,1,2.62-.63,5.31,5.31,0,0,1,2.55.61,4.35,4.35,0,0,1,1.79,1.74,5.21,5.21,0,0,1,.65,2.63S155.16,80.67,155.13,81.14Zm-6.51-3.09a2.32,2.32,0,0,0-.79,1.47h4.73a2.32,2.32,0,0,0-.79-1.46,2.36,2.36,0,0,0-1.57-.54A2.39,2.39,0,0,0,148.62,78.05Z"/><path class="cls-2" d="M168.28,84.69a2.93,2.93,0,0,1-1,.45,4.73,4.73,0,0,1-1.26.16,3.77,3.77,0,0,1-2.65-.88,3.36,3.36,0,0,1-.94-2.57V77.91h-1.48V75.77h1.48V73.43h2.79v2.34h2.39v2.14h-2.39v3.91a1.29,1.29,0,0,0,.31.93,1.15,1.15,0,0,0,.88.33,1.85,1.85,0,0,0,1.13-.35Z"/><path class="cls-2" d="M178.56,76.48a4.26,4.26,0,0,1,1.1,3.18v5.49h-2.78V80.09a2.55,2.55,0,0,0-.5-1.71,1.87,1.87,0,0,0-1.45-.56,2.24,2.24,0,0,0-1.68.65,2.74,2.74,0,0,0-.62,1.94v4.74h-2.78V71.92h2.78v4.63a3.68,3.68,0,0,1,1.34-.84,4.73,4.73,0,0,1,1.71-.3A4,4,0,0,1,178.56,76.48Z"/><path class="cls-2" d="M182.32,73.77a1.47,1.47,0,0,1-.49-1.11,1.45,1.45,0,0,1,.49-1.1,1.74,1.74,0,0,1,1.25-.45,1.77,1.77,0,0,1,1.24.43,1.36,1.36,0,0,1,.49,1.07,1.48,1.48,0,0,1-.49,1.15,1.7,1.7,0,0,1-1.24.46A1.74,1.74,0,0,1,182.32,73.77Zm-.15,1.78H185v9.6h-2.79Z"/><path class="cls-2" d="M196.26,76.48a4.26,4.26,0,0,1,1.1,3.18v5.49h-2.79V80.09a2.5,2.5,0,0,0-.5-1.71,1.83,1.83,0,0,0-1.44-.56,2.24,2.24,0,0,0-1.68.65,2.74,2.74,0,0,0-.62,1.94v4.74h-2.79v-9.6h2.66v1.13a3.64,3.64,0,0,1,1.38-.94,4.73,4.73,0,0,1,1.8-.33A4,4,0,0,1,196.26,76.48Z"/><path class="cls-2" d="M209.88,75.55v8a5.13,5.13,0,0,1-1.37,3.92,5.68,5.68,0,0,1-4,1.29,10.38,10.38,0,0,1-2.64-.34,5.86,5.86,0,0,1-2.07-1l1.11-2a4.51,4.51,0,0,0,1.53.79,6,6,0,0,0,1.86.3,3,3,0,0,0,2.13-.65,2.6,2.6,0,0,0,.69-2v-.41a3.9,3.9,0,0,1-3,1.2,5.06,5.06,0,0,1-2.42-.58,4.47,4.47,0,0,1-1.74-1.63,4.93,4.93,0,0,1,0-4.86A4.47,4.47,0,0,1,201.65,76a5.18,5.18,0,0,1,2.42-.58,3.79,3.79,0,0,1,3.17,1.38V75.55Zm-3.45,6.2a2.41,2.41,0,0,0,0-3.4,2.86,2.86,0,0,0-3.63,0,2.37,2.37,0,0,0,0,3.4,2.83,2.83,0,0,0,3.63,0Z"/><path class="cls-2" d="M213.36,85a5.87,5.87,0,0,1-1.82-.74l.93-2a5.66,5.66,0,0,0,1.55.67,6.62,6.62,0,0,0,1.79.26c1.17,0,1.76-.29,1.76-.87a.62.62,0,0,0-.48-.59,7.35,7.35,0,0,0-1.48-.31,12.57,12.57,0,0,1-2-.41,3,3,0,0,1-1.33-.82,2.34,2.34,0,0,1-.56-1.67,2.64,2.64,0,0,1,.53-1.62,3.44,3.44,0,0,1,1.53-1.1,6.65,6.65,0,0,1,2.39-.39,9.91,9.91,0,0,1,2,.22,5.78,5.78,0,0,1,1.67.62l-.93,2a5.48,5.48,0,0,0-2.76-.71,2.75,2.75,0,0,0-1.34.25.73.73,0,0,0-.45.64.62.62,0,0,0,.48.62,7.94,7.94,0,0,0,1.54.34,16.29,16.29,0,0,1,1.93.42,3,3,0,0,1,1.3.81,2.32,2.32,0,0,1,.55,1.65,2.55,2.55,0,0,1-.53,1.58,3.35,3.35,0,0,1-1.57,1.08,6.8,6.8,0,0,1-2.43.39A9.16,9.16,0,0,1,213.36,85Z"/><path class="cls-2" d="M227.88,85a6,6,0,0,1-1.82-.74l.93-2a5.66,5.66,0,0,0,1.55.67,6.68,6.68,0,0,0,1.79.26c1.18,0,1.76-.29,1.76-.87a.62.62,0,0,0-.48-.59,7.35,7.35,0,0,0-1.48-.31,12.42,12.42,0,0,1-1.94-.41,2.9,2.9,0,0,1-1.33-.82,2.3,2.3,0,0,1-.56-1.67,2.64,2.64,0,0,1,.52-1.62,3.42,3.42,0,0,1,1.54-1.1,6.56,6.56,0,0,1,2.38-.39,9.84,9.84,0,0,1,2,.22,5.67,5.67,0,0,1,1.67.62l-.93,2a5.46,5.46,0,0,0-2.76-.71,2.77,2.77,0,0,0-1.34.25.73.73,0,0,0-.45.64.62.62,0,0,0,.49.62,7.8,7.8,0,0,0,1.53.34,16.29,16.29,0,0,1,1.93.42,2.92,2.92,0,0,1,1.3.81,2.32,2.32,0,0,1,.55,1.65,2.55,2.55,0,0,1-.53,1.58,3.36,3.36,0,0,1-1.56,1.08,6.9,6.9,0,0,1-2.44.39A9.16,9.16,0,0,1,227.88,85Z"/><path class="cls-2" d="M245.81,81.14h-7.26a2.28,2.28,0,0,0,.93,1.41,3.11,3.11,0,0,0,1.82.52,3.67,3.67,0,0,0,1.33-.23,3.18,3.18,0,0,0,1.08-.7l1.48,1.6a5,5,0,0,1-4,1.56,6.28,6.28,0,0,1-2.87-.64,4.63,4.63,0,0,1-1.93-1.75,5.15,5.15,0,0,1,0-5.1A4.82,4.82,0,0,1,238.26,76a5.42,5.42,0,0,1,2.61-.63,5.28,5.28,0,0,1,2.55.61,4.43,4.43,0,0,1,1.8,1.74,5.21,5.21,0,0,1,.65,2.63S245.85,80.67,245.81,81.14Zm-6.51-3.09a2.26,2.26,0,0,0-.78,1.47h4.73a2.32,2.32,0,0,0-.79-1.46,2.36,2.36,0,0,0-1.57-.54A2.44,2.44,0,0,0,239.3,78.05Z"/><path class="cls-2" d="M251.73,75.77a4.92,4.92,0,0,1,2-.36V78l-.62,0a2.6,2.6,0,0,0-1.88.66,2.73,2.73,0,0,0-.67,2v4.53h-2.79v-9.6h2.66v1.27A3.1,3.1,0,0,1,251.73,75.77Z"/><path class="cls-2" d="M255.48,73.77a1.46,1.46,0,0,1-.48-1.11,1.44,1.44,0,0,1,.48-1.1,1.76,1.76,0,0,1,1.25-.45,1.79,1.79,0,0,1,1.25.43,1.38,1.38,0,0,1,.48,1.07,1.5,1.5,0,0,1-.48,1.15,1.72,1.72,0,0,1-1.25.46A1.76,1.76,0,0,1,255.48,73.77Zm-.14,1.78h2.78v9.6h-2.78Z"/><path class="cls-2" d="M262.56,84.66a4.67,4.67,0,0,1-1.88-1.75,5.14,5.14,0,0,1,0-5.11A4.7,4.7,0,0,1,262.56,76,6.17,6.17,0,0,1,268,76a4.88,4.88,0,0,1,0,8.62,6.08,6.08,0,0,1-5.43,0ZM267,82.29a3.09,3.09,0,0,0,0-3.87,2.34,2.34,0,0,0-1.76-.72,2.37,2.37,0,0,0-1.77.72,3.06,3.06,0,0,0,0,3.87,2.37,2.37,0,0,0,1.77.72A2.34,2.34,0,0,0,267,82.29Z"/><path class="cls-2" d="M282.07,75.55v9.6h-2.64V84a3.68,3.68,0,0,1-1.32,1,4.2,4.2,0,0,1-1.66.33,4.12,4.12,0,0,1-3-1.09A4.33,4.33,0,0,1,272.34,81V75.55h2.79v5c0,1.54.64,2.32,1.94,2.32a2.12,2.12,0,0,0,1.61-.65,2.78,2.78,0,0,0,.6-1.94V75.55Z"/><path class="cls-2" d="M285.55,85a5.77,5.77,0,0,1-1.82-.74l.92-2a5.6,5.6,0,0,0,1.56.67,6.55,6.55,0,0,0,1.78.26q1.77,0,1.77-.87c0-.28-.16-.47-.49-.59a7.35,7.35,0,0,0-1.48-.31,12.42,12.42,0,0,1-1.94-.41,2.9,2.9,0,0,1-1.33-.82,2.34,2.34,0,0,1-.56-1.67,2.64,2.64,0,0,1,.52-1.62A3.48,3.48,0,0,1,286,75.8a6.56,6.56,0,0,1,2.38-.39,10,10,0,0,1,2,.22,5.71,5.71,0,0,1,1.66.62l-.92,2a5.52,5.52,0,0,0-2.77-.71,2.8,2.8,0,0,0-1.34.25.71.71,0,0,0-.44.64.62.62,0,0,0,.48.62,7.8,7.8,0,0,0,1.53.34,15.85,15.85,0,0,1,1.93.42,2.92,2.92,0,0,1,1.3.81,2.32,2.32,0,0,1,.56,1.65,2.5,2.5,0,0,1-.54,1.58,3.36,3.36,0,0,1-1.56,1.08,6.9,6.9,0,0,1-2.44.39A9.14,9.14,0,0,1,285.55,85Z"/><path class="cls-2" d="M294.13,71.92h2.78V85.15h-2.78Z"/><path class="cls-2" d="M309,75.55l-4.33,10.19a5,5,0,0,1-1.63,2.34,4,4,0,0,1-2.35.68,5,5,0,0,1-1.48-.23,3.27,3.27,0,0,1-1.2-.65l1-2a2.53,2.53,0,0,0,.74.45,2.26,2.26,0,0,0,.83.16,1.45,1.45,0,0,0,.93-.28,2.28,2.28,0,0,0,.64-.92l0-.09-4.16-9.67h2.87l2.7,6.52,2.71-6.52Z"/><path class="cls-2" d="M8.56,97.88a4.06,4.06,0,0,1,1.2,3.2v5.48H7.15v-1.19a3.09,3.09,0,0,1-2.92,1.34,4.53,4.53,0,0,1-1.92-.38,2.89,2.89,0,0,1-1.24-1,2.74,2.74,0,0,1-.43-1.5,2.52,2.52,0,0,1,1-2.11,5.14,5.14,0,0,1,3.11-.77H7a1.79,1.79,0,0,0-.56-1.4A2.47,2.47,0,0,0,4.76,99a4.8,4.8,0,0,0-1.5.24A3.76,3.76,0,0,0,2,99.93L1,98a6.15,6.15,0,0,1,1.88-.86,8.55,8.55,0,0,1,2.26-.3A5,5,0,0,1,8.56,97.88ZM6.19,104.5a1.82,1.82,0,0,0,.79-1v-1H5.07c-1.14,0-1.72.37-1.72,1.12a1,1,0,0,0,.42.85,1.89,1.89,0,0,0,1.15.31A2.43,2.43,0,0,0,6.19,104.5Z"/><path class="cls-2" d="M22.28,97v8a5.09,5.09,0,0,1-1.37,3.92,5.65,5.65,0,0,1-4,1.29,10.26,10.26,0,0,1-2.64-.34,5.86,5.86,0,0,1-2.07-1l1.1-2a4.56,4.56,0,0,0,1.54.79,5.92,5.92,0,0,0,1.85.3,3,3,0,0,0,2.13-.65,2.62,2.62,0,0,0,.69-2v-.41a3.88,3.88,0,0,1-3,1.2,5.06,5.06,0,0,1-2.42-.58,4.47,4.47,0,0,1-1.74-1.63,4.93,4.93,0,0,1,0-4.86,4.47,4.47,0,0,1,1.74-1.63,5.06,5.06,0,0,1,2.42-.58,3.79,3.79,0,0,1,3.17,1.38V97Zm-3.45,6.2a2.39,2.39,0,0,0,0-3.4A2.54,2.54,0,0,0,17,99.1a2.58,2.58,0,0,0-1.82.66,2.39,2.39,0,0,0,0,3.4,2.58,2.58,0,0,0,1.82.66A2.54,2.54,0,0,0,18.83,103.16Z"/><path class="cls-2" d="M32.17,97.88a4.09,4.09,0,0,1,1.19,3.2v5.48h-2.6v-1.19a3.11,3.11,0,0,1-2.93,1.34,4.52,4.52,0,0,1-1.91-.38,2.86,2.86,0,0,1-1.25-1,2.73,2.73,0,0,1-.42-1.5,2.51,2.51,0,0,1,1-2.11,5.17,5.17,0,0,1,3.12-.77h2.21a1.78,1.78,0,0,0-.55-1.4A2.47,2.47,0,0,0,28.37,99a4.87,4.87,0,0,0-1.51.24,4,4,0,0,0-1.26.66l-1-2a6.21,6.21,0,0,1,1.89-.86,8.48,8.48,0,0,1,2.25-.3A5,5,0,0,1,32.17,97.88ZM29.8,104.5a1.8,1.8,0,0,0,.78-1v-1H28.67c-1.14,0-1.71.37-1.71,1.12a1,1,0,0,0,.42.85,1.87,1.87,0,0,0,1.15.31A2.45,2.45,0,0,0,29.8,104.5Z"/><path class="cls-2" d="M36,95.18a1.46,1.46,0,0,1-.48-1.11A1.43,1.43,0,0,1,36,93a1.76,1.76,0,0,1,1.25-.45,1.79,1.79,0,0,1,1.25.43A1.38,1.38,0,0,1,39,94a1.52,1.52,0,0,1-.48,1.15,1.94,1.94,0,0,1-2.5,0ZM35.88,97h2.78v9.6H35.88Z"/><path class="cls-2" d="M50,97.89a4.22,4.22,0,0,1,1.1,3.18v5.49H48.28V101.5a2.53,2.53,0,0,0-.5-1.71,1.85,1.85,0,0,0-1.45-.56,2.21,2.21,0,0,0-1.67.65,2.7,2.7,0,0,0-.63,1.94v4.74H41.25V97h2.66v1.13a3.61,3.61,0,0,1,1.37-.94,4.8,4.8,0,0,1,1.8-.33A4,4,0,0,1,50,97.89Z"/><path class="cls-2" d="M53.4,106.21a1.72,1.72,0,0,1-.5-1.25,1.63,1.63,0,0,1,.5-1.24,1.82,1.82,0,0,1,2.46,0,1.63,1.63,0,0,1,.5,1.24,1.72,1.72,0,0,1-.5,1.25,1.76,1.76,0,0,1-2.46,0Z"/><path class="cls-2" d="M64.74,106.38a6.56,6.56,0,0,1-2.22-1l1-2.17a6.68,6.68,0,0,0,1.91.94,7.05,7.05,0,0,0,2.21.36,3.59,3.59,0,0,0,1.82-.37,1.11,1.11,0,0,0,.59-1,.94.94,0,0,0-.35-.74,2.59,2.59,0,0,0-.89-.47c-.37-.12-.86-.25-1.48-.4a20.06,20.06,0,0,1-2.33-.67,3.78,3.78,0,0,1-1.56-1.09,2.92,2.92,0,0,1-.66-2,3.48,3.48,0,0,1,.59-2,4,4,0,0,1,1.78-1.4,7.16,7.16,0,0,1,2.9-.52,10.19,10.19,0,0,1,2.34.28,6.77,6.77,0,0,1,2,.83l-.89,2.19a7,7,0,0,0-3.46-1,3.23,3.23,0,0,0-1.79.39,1.2,1.2,0,0,0-.58,1,1,1,0,0,0,.67,1,10.6,10.6,0,0,0,2,.62,20.9,20.9,0,0,1,2.34.67,4.08,4.08,0,0,1,1.56,1.07,2.91,2.91,0,0,1,.65,2,3.4,3.4,0,0,1-.6,2,4.08,4.08,0,0,1-1.79,1.4,7.42,7.42,0,0,1-2.91.52A10.45,10.45,0,0,1,64.74,106.38Z"/><path class="cls-2" d="M80.87,106.1a2.87,2.87,0,0,1-1,.45,5.18,5.18,0,0,1-1.26.16,3.75,3.75,0,0,1-2.65-.88,3.32,3.32,0,0,1-.94-2.57V99.32H73.54V97.18H75V94.84h2.79v2.34H80.2v2.14H77.81v3.91a1.29,1.29,0,0,0,.31.93,1.15,1.15,0,0,0,.88.33,1.8,1.8,0,0,0,1.12-.35Z"/><path class="cls-2" d="M82.59,95.18a1.47,1.47,0,0,1-.49-1.11,1.43,1.43,0,0,1,.49-1.1,1.73,1.73,0,0,1,1.24-.45,1.78,1.78,0,0,1,1.25.43A1.36,1.36,0,0,1,85.57,94a1.49,1.49,0,0,1-.49,1.15,1.93,1.93,0,0,1-2.49,0ZM82.44,97h2.79v9.6H82.44Z"/><path class="cls-2" d="M87.81,93.32H90.6v13.24H87.81Z"/><path class="cls-2" d="M93.18,93.32H96v13.24H93.18Z"/><path class="cls-2" d="M111.71,97.44a4.34,4.34,0,0,1,1.72,1.73,5.66,5.66,0,0,1,0,5.19,4.4,4.4,0,0,1-1.72,1.73,4.88,4.88,0,0,1-2.43.62,3.71,3.71,0,0,1-2.89-1.16V110H103.6V97h2.66v1.11a3.71,3.71,0,0,1,3-1.25A4.88,4.88,0,0,1,111.71,97.44Zm-1.16,6.26a3.06,3.06,0,0,0,0-3.87,2.47,2.47,0,0,0-3.51,0,3.06,3.06,0,0,0,0,3.87,2.5,2.5,0,0,0,3.51,0Z"/><path class="cls-2" d="M115.91,93.32h2.79v13.24h-2.79Z"/><path class="cls-2" d="M130.63,102.55h-7.26a2.28,2.28,0,0,0,.93,1.41,3.1,3.1,0,0,0,1.82.51,3.67,3.67,0,0,0,1.33-.22,3.39,3.39,0,0,0,1.08-.7l1.48,1.6a5,5,0,0,1-4,1.56,6.33,6.33,0,0,1-2.88-.64,4.61,4.61,0,0,1-1.92-1.76,5.14,5.14,0,0,1,0-5.09,4.75,4.75,0,0,1,1.84-1.77,5.42,5.42,0,0,1,2.61-.63,5.28,5.28,0,0,1,2.55.61,4.43,4.43,0,0,1,1.8,1.74,5.21,5.21,0,0,1,.65,2.63S130.67,102.08,130.63,102.55Zm-6.51-3.09a2.32,2.32,0,0,0-.79,1.46h4.73a2.26,2.26,0,0,0-.78-1.45,2.36,2.36,0,0,0-1.57-.54A2.39,2.39,0,0,0,124.12,99.46Z"/><path class="cls-2" d="M141.26,97.89a4.26,4.26,0,0,1,1.09,3.18v5.49h-2.78V101.5a2.53,2.53,0,0,0-.5-1.71,1.83,1.83,0,0,0-1.44-.56,2.23,2.23,0,0,0-1.68.65,2.7,2.7,0,0,0-.63,1.94v4.74h-2.78V97h2.66v1.13a3.69,3.69,0,0,1,1.37-.94,4.82,4.82,0,0,1,1.81-.33A4,4,0,0,1,141.26,97.89Z"/><path class="cls-2" d="M151.06,106.1a2.84,2.84,0,0,1-1,.45,5.18,5.18,0,0,1-1.26.16,3.72,3.72,0,0,1-2.64-.88,3.32,3.32,0,0,1-.94-2.57V99.32h-1.48V97.18h1.48V94.84H148v2.34h2.39v2.14H148v3.91a1.34,1.34,0,0,0,.31.93,1.18,1.18,0,0,0,.89.33,1.82,1.82,0,0,0,1.12-.35Z"/><path class="cls-2" d="M162,97l-4.34,10.19a5,5,0,0,1-1.63,2.34,4,4,0,0,1-2.34.68,4.79,4.79,0,0,1-1.49-.24,3.15,3.15,0,0,1-1.19-.64l1-2a2.41,2.41,0,0,0,.74.45,2.22,2.22,0,0,0,.83.16,1.4,1.4,0,0,0,.92-.28,2.29,2.29,0,0,0,.65-.92l0-.09L151,97h2.88l2.69,6.52L159.3,97Z"/><path class="cls-2" d="M170,106.07a4.72,4.72,0,0,1-1.89-1.76A4.86,4.86,0,0,1,170,97.45a6.17,6.17,0,0,1,5.43,0,4.74,4.74,0,0,1,1.87,1.76,5.12,5.12,0,0,1,0,5.1,4.67,4.67,0,0,1-1.87,1.76,6.08,6.08,0,0,1-5.43,0Zm4.47-2.37a3.06,3.06,0,0,0,0-3.87,2.31,2.31,0,0,0-1.75-.73,2.35,2.35,0,0,0-1.77.73,3,3,0,0,0,0,3.87,2.34,2.34,0,0,0,1.77.72A2.3,2.3,0,0,0,174.49,103.7Z"/><path class="cls-2" d="M182.91,97.18h2.46v2.14H183v7.24h-2.79V99.32h-1.48V97.18h1.48v-.43a3.53,3.53,0,0,1,1-2.61,3.72,3.72,0,0,1,2.74-1,5,5,0,0,1,1.18.14,2.61,2.61,0,0,1,.94.38l-.73,2a2,2,0,0,0-1.13-.33c-.84,0-1.26.46-1.26,1.39Z"/><path class="cls-2" d="M191.81,93.32h2.78v13.24h-2.78Z"/><path class="cls-2" d="M204.48,97.88a4.09,4.09,0,0,1,1.19,3.2v5.48h-2.6v-1.19a3.12,3.12,0,0,1-2.93,1.34,4.53,4.53,0,0,1-1.92-.38,2.89,2.89,0,0,1-1.24-1,2.74,2.74,0,0,1-.43-1.5,2.52,2.52,0,0,1,1-2.11,5.14,5.14,0,0,1,3.11-.77h2.22a1.79,1.79,0,0,0-.56-1.4,2.46,2.46,0,0,0-1.66-.49,4.8,4.8,0,0,0-1.5.24,3.76,3.76,0,0,0-1.26.66l-1-2a6.15,6.15,0,0,1,1.88-.86,8.55,8.55,0,0,1,2.26-.3A5,5,0,0,1,204.48,97.88Zm-2.38,6.62a1.82,1.82,0,0,0,.79-1v-1H201c-1.14,0-1.71.37-1.71,1.12a1,1,0,0,0,.41.85,1.9,1.9,0,0,0,1.16.31A2.42,2.42,0,0,0,202.1,104.5Z"/><path class="cls-2" d="M214.38,106.1a2.93,2.93,0,0,1-1,.45,5.18,5.18,0,0,1-1.26.16,3.77,3.77,0,0,1-2.65-.88,3.36,3.36,0,0,1-.93-2.57V99.32H207V97.18h1.49V94.84h2.78v2.34h2.39v2.14h-2.39v3.91a1.29,1.29,0,0,0,.31.93,1.15,1.15,0,0,0,.88.33,1.85,1.85,0,0,0,1.13-.35Z"/><path class="cls-2" d="M225,102.55h-7.26a2.28,2.28,0,0,0,.93,1.41,3.1,3.1,0,0,0,1.82.51,3.67,3.67,0,0,0,1.33-.22,3.39,3.39,0,0,0,1.08-.7l1.48,1.6a5,5,0,0,1-4,1.56,6.33,6.33,0,0,1-2.88-.64,4.61,4.61,0,0,1-1.92-1.76,5.14,5.14,0,0,1,0-5.09,4.75,4.75,0,0,1,1.84-1.77,5.39,5.39,0,0,1,2.61-.63,5.28,5.28,0,0,1,2.55.61,4.35,4.35,0,0,1,1.79,1.74,5.11,5.11,0,0,1,.65,2.63S225,102.08,225,102.55Zm-6.51-3.09a2.32,2.32,0,0,0-.79,1.46h4.73a2.26,2.26,0,0,0-.78-1.45,2.36,2.36,0,0,0-1.57-.54A2.39,2.39,0,0,0,218.48,99.46Z"/><path class="cls-2" d="M240.67,97.89a4.26,4.26,0,0,1,1.09,3.18v5.49H239V101.5a2.53,2.53,0,0,0-.5-1.71,1.84,1.84,0,0,0-1.45-.56,2.21,2.21,0,0,0-1.67.65,2.7,2.7,0,0,0-.63,1.94v4.74H232V97h2.66v1.13a3.61,3.61,0,0,1,1.37-.94,4.8,4.8,0,0,1,1.8-.33A4,4,0,0,1,240.67,97.89Z"/><path class="cls-2" d="M244.42,95.18a1.46,1.46,0,0,1-.48-1.11,1.43,1.43,0,0,1,.48-1.1,1.76,1.76,0,0,1,1.25-.45,1.79,1.79,0,0,1,1.25.43A1.38,1.38,0,0,1,247.4,94a1.52,1.52,0,0,1-.48,1.15,1.94,1.94,0,0,1-2.5,0ZM244.28,97h2.78v9.6h-2.78Z"/><path class="cls-2" d="M259.55,97v8a5.13,5.13,0,0,1-1.37,3.92,5.68,5.68,0,0,1-4,1.29,10.26,10.26,0,0,1-2.64-.34,6,6,0,0,1-2.07-1l1.11-2a4.41,4.41,0,0,0,1.53.79,6,6,0,0,0,1.86.3,3,3,0,0,0,2.13-.65,2.62,2.62,0,0,0,.69-2v-.41a3.9,3.9,0,0,1-3,1.2,5,5,0,0,1-2.41-.58,4.34,4.34,0,0,1-1.74-1.63,4.87,4.87,0,0,1,0-4.86,4.34,4.34,0,0,1,1.74-1.63,5,5,0,0,1,2.41-.58,3.82,3.82,0,0,1,3.18,1.38V97Zm-3.45,6.2a2.41,2.41,0,0,0,0-3.4,2.83,2.83,0,0,0-3.63,0,2.37,2.37,0,0,0,0,3.4,2.83,2.83,0,0,0,3.63,0Z"/><path class="cls-2" d="M270.85,97.89a4.26,4.26,0,0,1,1.1,3.18v5.49h-2.78V101.5a2.53,2.53,0,0,0-.5-1.71,1.87,1.87,0,0,0-1.45-.56,2.24,2.24,0,0,0-1.68.65,2.74,2.74,0,0,0-.62,1.94v4.74h-2.78V93.32h2.78V98a3.63,3.63,0,0,1,1.34-.84,4.73,4.73,0,0,1,1.71-.3A4,4,0,0,1,270.85,97.89Z"/><path class="cls-2" d="M280.66,106.1a2.93,2.93,0,0,1-1,.45,5.18,5.18,0,0,1-1.26.16,3.77,3.77,0,0,1-2.65-.88,3.36,3.36,0,0,1-.94-2.57V99.32h-1.48V97.18h1.48V94.84h2.79v2.34H280v2.14h-2.39v3.91a1.29,1.29,0,0,0,.31.93,1.15,1.15,0,0,0,.88.33,1.85,1.85,0,0,0,1.13-.35Z"/><path class="cls-2" d="M283.12,106.41a6.13,6.13,0,0,1-1.82-.74l.93-2a5.4,5.4,0,0,0,1.55.67,6.55,6.55,0,0,0,1.78.26q1.77,0,1.77-.87a.62.62,0,0,0-.48-.59,7.51,7.51,0,0,0-1.48-.31,13.56,13.56,0,0,1-1.95-.41,3,3,0,0,1-1.33-.82,2.34,2.34,0,0,1-.56-1.67,2.64,2.64,0,0,1,.53-1.62,3.44,3.44,0,0,1,1.53-1.1,6.6,6.6,0,0,1,2.38-.39,9.93,9.93,0,0,1,2,.22,5.78,5.78,0,0,1,1.67.62l-.93,2a5.52,5.52,0,0,0-2.77-.71,2.8,2.8,0,0,0-1.34.25.73.73,0,0,0-.44.64.63.63,0,0,0,.48.62,8.62,8.62,0,0,0,1.53.34,15.85,15.85,0,0,1,1.93.42,2.87,2.87,0,0,1,1.3.81,2.31,2.31,0,0,1,.56,1.64,2.51,2.51,0,0,1-.54,1.59,3.36,3.36,0,0,1-1.56,1.08,6.84,6.84,0,0,1-2.43.39A9.16,9.16,0,0,1,283.12,106.41Z"/><path class="cls-2" d="M9.38,118.85a4.4,4.4,0,0,1,1.72,1.73,5.74,5.74,0,0,1,0,5.19,4.47,4.47,0,0,1-1.72,1.73,4.94,4.94,0,0,1-2.44.62,3.69,3.69,0,0,1-3-1.25V128H1.27V114.73H4.05v4.66a3.71,3.71,0,0,1,2.89-1.16A4.94,4.94,0,0,1,9.38,118.85Zm-1.16,6.26a3.09,3.09,0,0,0,0-3.87,2.34,2.34,0,0,0-1.76-.73,2.34,2.34,0,0,0-1.76.73,3.06,3.06,0,0,0,0,3.87,2.34,2.34,0,0,0,1.76.72A2.34,2.34,0,0,0,8.22,125.11Z"/><path class="cls-2" d="M23.25,118.37V128H20.61v-1.14a3.68,3.68,0,0,1-1.32,1,4.35,4.35,0,0,1-1.66.33,4.12,4.12,0,0,1-3-1.09,4.33,4.33,0,0,1-1.11-3.23v-5.43h2.79v5c0,1.54.65,2.32,1.94,2.32a2.12,2.12,0,0,0,1.61-.65,2.78,2.78,0,0,0,.6-1.94v-4.75Z"/><path class="cls-2" d="M32,127.51a2.93,2.93,0,0,1-1,.45,5.18,5.18,0,0,1-1.26.16,3.75,3.75,0,0,1-2.65-.88,3.36,3.36,0,0,1-.94-2.57v-3.94H24.69v-2.14h1.48v-2.34H29v2.34h2.39v2.14H29v3.91a1.29,1.29,0,0,0,.31.93,1.15,1.15,0,0,0,.88.33,1.85,1.85,0,0,0,1.13-.35Z"/><path class="cls-2" d="M38.79,116.59a1.47,1.47,0,0,1-.49-1.11,1.43,1.43,0,0,1,.49-1.1,1.74,1.74,0,0,1,1.25-.45,1.77,1.77,0,0,1,1.24.43,1.36,1.36,0,0,1,.49,1.07,1.49,1.49,0,0,1-.49,1.15,1.93,1.93,0,0,1-2.49,0Zm-.15,1.78h2.79V128H38.64Z"/><path class="cls-2" d="M52.73,119.3a4.26,4.26,0,0,1,1.1,3.18V128H51v-5.06a2.48,2.48,0,0,0-.5-1.71,1.83,1.83,0,0,0-1.44-.56,2.24,2.24,0,0,0-1.68.65,2.69,2.69,0,0,0-.62,1.94V128H44v-9.6h2.66v1.13a3.64,3.64,0,0,1,1.38-.94,4.73,4.73,0,0,1,1.8-.33A4,4,0,0,1,52.73,119.3Z"/><path class="cls-2" d="M57.23,127.82a6.24,6.24,0,0,1-1.82-.74l.93-2a5.66,5.66,0,0,0,1.55.67,6.68,6.68,0,0,0,1.79.26c1.18,0,1.76-.29,1.76-.87a.62.62,0,0,0-.48-.59,7.35,7.35,0,0,0-1.48-.31,13.69,13.69,0,0,1-1.94-.41,2.9,2.9,0,0,1-1.33-.82,2.3,2.3,0,0,1-.56-1.67,2.64,2.64,0,0,1,.52-1.62,3.48,3.48,0,0,1,1.54-1.1,6.56,6.56,0,0,1,2.38-.39,9.84,9.84,0,0,1,2,.22,5.67,5.67,0,0,1,1.67.62l-.93,2a5.46,5.46,0,0,0-2.76-.71,2.77,2.77,0,0,0-1.34.25.73.73,0,0,0-.45.64.63.63,0,0,0,.49.62,8.62,8.62,0,0,0,1.53.34,15.85,15.85,0,0,1,1.93.42,2.92,2.92,0,0,1,1.3.81,2.31,2.31,0,0,1,.55,1.64,2.56,2.56,0,0,1-.53,1.59A3.36,3.36,0,0,1,62,127.73a6.9,6.9,0,0,1-2.44.39A9.21,9.21,0,0,1,57.23,127.82Z"/><path class="cls-2" d="M72,127.51a2.93,2.93,0,0,1-1,.45,5.18,5.18,0,0,1-1.26.16,3.77,3.77,0,0,1-2.65-.88,3.36,3.36,0,0,1-.93-2.57v-3.94H64.67v-2.14h1.49v-2.34h2.78v2.34h2.39v2.14H68.94v3.91a1.29,1.29,0,0,0,.31.93,1.15,1.15,0,0,0,.88.33,1.85,1.85,0,0,0,1.13-.35Z"/><path class="cls-2" d="M82.62,124H75.36a2.28,2.28,0,0,0,.93,1.41,3.1,3.1,0,0,0,1.82.51,3.67,3.67,0,0,0,1.33-.22,3.39,3.39,0,0,0,1.08-.7l1.48,1.6a5,5,0,0,1-4,1.56,6.33,6.33,0,0,1-2.88-.64,4.61,4.61,0,0,1-1.92-1.76,5.14,5.14,0,0,1,0-5.09,4.75,4.75,0,0,1,1.84-1.77,5.39,5.39,0,0,1,2.61-.63,5.28,5.28,0,0,1,2.55.61A4.35,4.35,0,0,1,82,120.58a5.11,5.11,0,0,1,.65,2.63S82.66,123.49,82.62,124Zm-6.51-3.09a2.32,2.32,0,0,0-.79,1.46h4.73a2.26,2.26,0,0,0-.78-1.45,2.36,2.36,0,0,0-1.57-.54A2.39,2.39,0,0,0,76.11,120.87Z"/><path class="cls-2" d="M91.56,119.29a4.07,4.07,0,0,1,1.2,3.21V128H90.15v-1.19a3.11,3.11,0,0,1-2.93,1.34,4.52,4.52,0,0,1-1.91-.38,2.83,2.83,0,0,1-1.24-1,2.66,2.66,0,0,1-.43-1.5,2.49,2.49,0,0,1,1-2.11,5.14,5.14,0,0,1,3.11-.77H90a1.78,1.78,0,0,0-.55-1.4,2.47,2.47,0,0,0-1.66-.49,4.91,4.91,0,0,0-1.51.24,4,4,0,0,0-1.26.66l-1-2a6.15,6.15,0,0,1,1.88-.86,8.48,8.48,0,0,1,2.25-.3A5,5,0,0,1,91.56,119.29Zm-2.37,6.62a1.76,1.76,0,0,0,.78-1v-1H88.06c-1.14,0-1.71.37-1.71,1.12a1,1,0,0,0,.42.85,1.87,1.87,0,0,0,1.15.31A2.43,2.43,0,0,0,89.19,125.91Z"/><path class="cls-2" d="M105.16,114.73V128H102.5v-1.1a3.68,3.68,0,0,1-3,1.25,5,5,0,0,1-2.45-.61,4.34,4.34,0,0,1-1.72-1.73,5.7,5.7,0,0,1,0-5.21,4.28,4.28,0,0,1,1.72-1.73,4.92,4.92,0,0,1,2.45-.61,3.66,3.66,0,0,1,2.87,1.16v-4.66Zm-3.43,10.38a3,3,0,0,0,0-3.87,2.34,2.34,0,0,0-1.75-.73,2.38,2.38,0,0,0-1.77.73,3.06,3.06,0,0,0,0,3.87,2.37,2.37,0,0,0,1.77.72A2.33,2.33,0,0,0,101.73,125.11Z"/><path class="cls-2" d="M114.62,127.48a4.69,4.69,0,0,1-1.88-1.76,5.12,5.12,0,0,1,0-5.1,4.76,4.76,0,0,1,1.88-1.76,6.17,6.17,0,0,1,5.43,0,5,5,0,0,1,1.88,6.86,4.76,4.76,0,0,1-1.88,1.76,6.08,6.08,0,0,1-5.43,0Zm4.48-2.37a3.09,3.09,0,0,0,0-3.87,2.34,2.34,0,0,0-1.76-.73,2.38,2.38,0,0,0-1.77.73,3.06,3.06,0,0,0,0,3.87,2.37,2.37,0,0,0,1.77.72A2.34,2.34,0,0,0,119.1,125.11Z"/><path class="cls-2" d="M127.51,118.59H130v2.14h-2.39V128H124.8v-7.24h-1.48v-2.14h1.48v-.43a3.52,3.52,0,0,1,1-2.61,3.73,3.73,0,0,1,2.74-1,5,5,0,0,1,1.18.14,2.61,2.61,0,0,1,.94.38l-.73,2a1.94,1.94,0,0,0-1.12-.33c-.85,0-1.27.46-1.27,1.39Z"/><path class="cls-2" d="M143.71,119.29a4.1,4.1,0,0,1,1.19,3.21V128h-2.6v-1.19a3.11,3.11,0,0,1-2.93,1.34,4.52,4.52,0,0,1-1.91-.38,2.86,2.86,0,0,1-1.25-1,2.73,2.73,0,0,1-.42-1.5,2.51,2.51,0,0,1,1-2.11,5.17,5.17,0,0,1,3.12-.77h2.21a1.78,1.78,0,0,0-.55-1.4,2.47,2.47,0,0,0-1.66-.49,4.87,4.87,0,0,0-1.51.24,4,4,0,0,0-1.26.66l-1-2a6.21,6.21,0,0,1,1.89-.86,8.48,8.48,0,0,1,2.25-.3A5,5,0,0,1,143.71,119.29Zm-2.37,6.62a1.8,1.8,0,0,0,.78-1v-1h-1.91c-1.14,0-1.71.37-1.71,1.12a1,1,0,0,0,.42.85,1.87,1.87,0,0,0,1.15.31A2.45,2.45,0,0,0,141.34,125.91Z"/><path class="cls-2" d="M162.25,114.73V128h-2.66v-1.1a3.68,3.68,0,0,1-3,1.25,5,5,0,0,1-2.45-.61,4.34,4.34,0,0,1-1.72-1.73,5.7,5.7,0,0,1,0-5.21,4.28,4.28,0,0,1,1.72-1.73,4.92,4.92,0,0,1,2.45-.61,3.66,3.66,0,0,1,2.87,1.16v-4.66Zm-3.43,10.38a3,3,0,0,0,0-3.87,2.34,2.34,0,0,0-1.75-.73,2.38,2.38,0,0,0-1.77.73,3.06,3.06,0,0,0,0,3.87,2.37,2.37,0,0,0,1.77.72A2.33,2.33,0,0,0,158.82,125.11Z"/><path class="cls-2" d="M168.82,118.59a5,5,0,0,1,2-.36v2.57l-.62,0a2.56,2.56,0,0,0-1.87.67,2.69,2.69,0,0,0-.68,2V128h-2.79v-9.6h2.66v1.27A3.1,3.1,0,0,1,168.82,118.59Z"/><path class="cls-2" d="M172.58,116.59a1.44,1.44,0,0,1-.49-1.11,1.4,1.4,0,0,1,.49-1.1,1.73,1.73,0,0,1,1.24-.45,1.79,1.79,0,0,1,1.25.43,1.38,1.38,0,0,1,.48,1.07,1.52,1.52,0,0,1-.48,1.15,1.77,1.77,0,0,1-1.25.46A1.73,1.73,0,0,1,172.58,116.59Zm-.15,1.78h2.78V128h-2.78Z"/><path class="cls-2" d="M186.52,119.3a4.26,4.26,0,0,1,1.1,3.18V128h-2.79v-5.06a2.48,2.48,0,0,0-.5-1.71,1.83,1.83,0,0,0-1.44-.56,2.23,2.23,0,0,0-1.68.65,2.7,2.7,0,0,0-.63,1.94V128H177.8v-9.6h2.66v1.13a3.69,3.69,0,0,1,1.37-.94,4.82,4.82,0,0,1,1.81-.33A4,4,0,0,1,186.52,119.3Z"/><path class="cls-2" d="M194.25,124.21l-1.34,1.32V128h-2.78V114.73h2.78v7.5l4.07-3.86h3.32l-4,4.07,4.36,5.53h-3.38Z"/><path class="cls-2" d="M207.1,116.59a1.46,1.46,0,0,1-.48-1.11,1.43,1.43,0,0,1,.48-1.1,1.74,1.74,0,0,1,1.25-.45,1.77,1.77,0,0,1,1.24.43,1.36,1.36,0,0,1,.49,1.07,1.49,1.49,0,0,1-.49,1.15,1.93,1.93,0,0,1-2.49,0Zm-.15,1.78h2.79V128H207Z"/><path class="cls-2" d="M221,119.3a4.26,4.26,0,0,1,1.1,3.18V128h-2.79v-5.06a2.48,2.48,0,0,0-.5-1.71,1.83,1.83,0,0,0-1.44-.56,2.24,2.24,0,0,0-1.68.65,2.74,2.74,0,0,0-.62,1.94V128h-2.79v-9.6H215v1.13a3.64,3.64,0,0,1,1.38-.94,4.73,4.73,0,0,1,1.8-.33A4,4,0,0,1,221,119.3Z"/><path class="cls-2" d="M244.86,119.29a4.33,4.33,0,0,1,1.06,3.19V128h-2.78v-5.06a2.58,2.58,0,0,0-.48-1.71,1.66,1.66,0,0,0-1.34-.56,2,2,0,0,0-1.56.63,2.76,2.76,0,0,0-.57,1.89V128h-2.78v-5.06c0-1.51-.61-2.27-1.82-2.27a2,2,0,0,0-1.53.63,2.71,2.71,0,0,0-.58,1.89V128H229.7v-9.6h2.66v1.11a3.64,3.64,0,0,1,1.31-.93,4.53,4.53,0,0,1,1.71-.32,4.2,4.2,0,0,1,1.83.4,3.25,3.25,0,0,1,1.32,1.17,4.06,4.06,0,0,1,1.49-1.16,4.76,4.76,0,0,1,2-.41A3.86,3.86,0,0,1,244.86,119.29Z"/><path class="cls-2" d="M257.77,118.37l-4.34,10.19a5,5,0,0,1-1.63,2.34,4,4,0,0,1-2.35.68,4.73,4.73,0,0,1-1.48-.24,3,3,0,0,1-1.19-.64l1-2a2.53,2.53,0,0,0,.74.45,2.26,2.26,0,0,0,.83.16,1.45,1.45,0,0,0,.93-.28,2.28,2.28,0,0,0,.64-.92l0-.09-4.16-9.67h2.87l2.7,6.52,2.71-6.52Z"/><path class="cls-2" d="M272.67,119.3a4.26,4.26,0,0,1,1.1,3.18V128H271v-5.06a2.53,2.53,0,0,0-.5-1.71,1.87,1.87,0,0,0-1.45-.56,2.24,2.24,0,0,0-1.68.65,2.74,2.74,0,0,0-.62,1.94V128H264V114.73h2.78v4.64a3.55,3.55,0,0,1,1.34-.84,4.73,4.73,0,0,1,1.71-.3A4,4,0,0,1,272.67,119.3Z"/><path class="cls-2" d="M283.58,119.29a4.07,4.07,0,0,1,1.2,3.21V128h-2.61v-1.19a3.1,3.1,0,0,1-2.92,1.34,4.53,4.53,0,0,1-1.92-.38,2.83,2.83,0,0,1-1.24-1,2.66,2.66,0,0,1-.43-1.5,2.52,2.52,0,0,1,1-2.11,5.14,5.14,0,0,1,3.11-.77H282a1.78,1.78,0,0,0-.55-1.4,2.47,2.47,0,0,0-1.66-.49,4.91,4.91,0,0,0-1.51.24,3.81,3.81,0,0,0-1.25.66l-1-2a6.15,6.15,0,0,1,1.88-.86,8.5,8.5,0,0,1,2.26-.3A5,5,0,0,1,283.58,119.29Zm-2.37,6.62a1.76,1.76,0,0,0,.78-1v-1h-1.91c-1.14,0-1.71.37-1.71,1.12a1,1,0,0,0,.42.85,1.87,1.87,0,0,0,1.15.31A2.43,2.43,0,0,0,281.21,125.91Z"/><path class="cls-2" d="M296,119.3a4.26,4.26,0,0,1,1.1,3.18V128h-2.79v-5.06a2.48,2.48,0,0,0-.5-1.71,1.83,1.83,0,0,0-1.44-.56,2.23,2.23,0,0,0-1.68.65,2.69,2.69,0,0,0-.62,1.94V128h-2.79v-9.6H290v1.13a3.69,3.69,0,0,1,1.37-.94,4.82,4.82,0,0,1,1.81-.33A4,4,0,0,1,296,119.3Z"/><path class="cls-2" d="M309.5,114.73V128h-2.65v-1.1a3.68,3.68,0,0,1-3,1.25,5,5,0,0,1-2.45-.61,4.43,4.43,0,0,1-1.73-1.73,5.78,5.78,0,0,1,0-5.21,4.36,4.36,0,0,1,1.73-1.73,4.92,4.92,0,0,1,2.45-.61,3.66,3.66,0,0,1,2.87,1.16v-4.66Zm-3.42,10.38a3,3,0,0,0,0-3.87,2.34,2.34,0,0,0-1.75-.73,2.38,2.38,0,0,0-1.77.73,3.06,3.06,0,0,0,0,3.87,2.37,2.37,0,0,0,1.77.72A2.33,2.33,0,0,0,306.08,125.11Z"/><path class="cls-2" d="M7.46,148.92a2.93,2.93,0,0,1-1,.45,5.18,5.18,0,0,1-1.26.15,3.76,3.76,0,0,1-2.65-.87,3.36,3.36,0,0,1-.93-2.57v-3.94H.12V140H1.61v-2.34H4.39V140H6.78v2.14H4.39v3.91a1.29,1.29,0,0,0,.31.93,1.15,1.15,0,0,0,.88.33A1.85,1.85,0,0,0,6.71,147Z"/><path class="cls-2" d="M17.74,140.71a4.25,4.25,0,0,1,1.1,3.18v5.49H16.06v-5.07a2.52,2.52,0,0,0-.5-1.7,1.87,1.87,0,0,0-1.45-.56,2.21,2.21,0,0,0-1.67.65,2.68,2.68,0,0,0-.63,1.94v4.74H9V136.14h2.78v4.64a3.79,3.79,0,0,1,1.34-.85,5,5,0,0,1,1.71-.29A4,4,0,0,1,17.74,140.71Z"/><path class="cls-2" d="M30.81,145.37H23.55a2.28,2.28,0,0,0,.93,1.41,3.1,3.1,0,0,0,1.82.51,3.67,3.67,0,0,0,1.33-.22,3.39,3.39,0,0,0,1.08-.7l1.48,1.6a5,5,0,0,1-4,1.55,6.33,6.33,0,0,1-2.88-.63,4.61,4.61,0,0,1-1.92-1.76,5.14,5.14,0,0,1,0-5.09,4.75,4.75,0,0,1,1.84-1.77,5.42,5.42,0,0,1,2.61-.63,5.28,5.28,0,0,1,2.55.61A4.35,4.35,0,0,1,30.21,142a5.11,5.11,0,0,1,.66,2.63S30.85,144.9,30.81,145.37Zm-6.51-3.09a2.32,2.32,0,0,0-.79,1.46h4.73a2.26,2.26,0,0,0-.78-1.45,2.36,2.36,0,0,0-1.57-.54A2.39,2.39,0,0,0,24.3,142.28Z"/><path class="cls-2" d="M36.73,140a4.92,4.92,0,0,1,2-.36v2.57l-.62,0a2.58,2.58,0,0,0-1.88.67,2.73,2.73,0,0,0-.68,2v4.53H32.72v-9.6h2.66v1.27A3.1,3.1,0,0,1,36.73,140Z"/><path class="cls-2" d="M49.6,145.37H42.34a2.31,2.31,0,0,0,.92,1.41,3.12,3.12,0,0,0,1.82.51,3.64,3.64,0,0,0,1.33-.22,3.18,3.18,0,0,0,1.08-.7L49,148a5,5,0,0,1-4,1.55,6.28,6.28,0,0,1-2.87-.63,4.7,4.7,0,0,1-1.93-1.76,5.17,5.17,0,0,1,0-5.09A4.72,4.72,0,0,1,42,140.27a5.43,5.43,0,0,1,2.62-.63,5.28,5.28,0,0,1,2.55.61A4.35,4.35,0,0,1,49,142a5.21,5.21,0,0,1,.65,2.63S49.63,144.9,49.6,145.37Zm-6.51-3.09a2.32,2.32,0,0,0-.79,1.46H47a2.46,2.46,0,0,0-3.94-1.46Z"/><path class="cls-2" d="M53.83,136.47a1.67,1.67,0,0,1,.48,1.24,3,3,0,0,1-.09.72,9.87,9.87,0,0,1-.38,1.07l-1,2.57H51l.77-2.82a1.56,1.56,0,0,1-.7-.59,1.79,1.79,0,0,1-.25-.95,1.65,1.65,0,0,1,.5-1.24,1.86,1.86,0,0,1,2.47,0Z"/><path class="cls-2" d="M56.77,149.23a6.13,6.13,0,0,1-1.82-.74l.93-2a5.53,5.53,0,0,0,1.55.67,6.61,6.61,0,0,0,1.78.26c1.18,0,1.77-.29,1.77-.88,0-.27-.16-.46-.48-.58a7.51,7.51,0,0,0-1.48-.31,13.56,13.56,0,0,1-2-.41,3,3,0,0,1-1.33-.82,2.34,2.34,0,0,1-.56-1.67,2.64,2.64,0,0,1,.53-1.62,3.37,3.37,0,0,1,1.53-1.1,6.63,6.63,0,0,1,2.38-.39,9.28,9.28,0,0,1,2,.22,5.78,5.78,0,0,1,1.67.62l-.93,2a5.49,5.49,0,0,0-2.77-.71,2.73,2.73,0,0,0-1.33.25.73.73,0,0,0-.45.64.63.63,0,0,0,.48.62,8.78,8.78,0,0,0,1.54.34,16.07,16.07,0,0,1,1.92.42,3,3,0,0,1,1.31.81,2.29,2.29,0,0,1,.55,1.64,2.51,2.51,0,0,1-.54,1.59,3.26,3.26,0,0,1-1.56,1.08,6.81,6.81,0,0,1-2.43.38A9.15,9.15,0,0,1,56.77,149.23Z"/><path class="cls-2" d="M77.7,140.7a4.09,4.09,0,0,1,1.19,3.2v5.48h-2.6v-1.19a3.11,3.11,0,0,1-2.93,1.33,4.57,4.57,0,0,1-1.92-.37,2.89,2.89,0,0,1-1.24-1,2.76,2.76,0,0,1-.42-1.5,2.5,2.5,0,0,1,1-2.11,5.17,5.17,0,0,1,3.12-.77h2.21a1.78,1.78,0,0,0-.55-1.4,2.49,2.49,0,0,0-1.66-.49,4.87,4.87,0,0,0-1.51.24,4,4,0,0,0-1.26.66l-1-1.95a6.21,6.21,0,0,1,1.89-.86,8.48,8.48,0,0,1,2.25-.3A5,5,0,0,1,77.7,140.7Zm-2.37,6.62a1.8,1.8,0,0,0,.78-1v-1H74.2c-1.14,0-1.71.37-1.71,1.12a1,1,0,0,0,.42.85,1.87,1.87,0,0,0,1.15.31A2.45,2.45,0,0,0,75.33,147.32Z"/><path class="cls-2" d="M94.57,140.26A4.4,4.4,0,0,1,96.29,142a5.74,5.74,0,0,1,0,5.19,4.47,4.47,0,0,1-1.72,1.73,4.94,4.94,0,0,1-2.44.61,3.72,3.72,0,0,1-2.89-1.15v4.47H86.46V139.78h2.66v1.11a3.69,3.69,0,0,1,3-1.25A4.94,4.94,0,0,1,94.57,140.26Zm-1.16,6.26a3.09,3.09,0,0,0,0-3.87,2.49,2.49,0,0,0-3.52,0,3.09,3.09,0,0,0,0,3.87,2.51,2.51,0,0,0,3.52,0Z"/><path class="cls-2" d="M108.12,145.37h-7.26a2.26,2.26,0,0,0,.92,1.41,3.12,3.12,0,0,0,1.82.51,3.64,3.64,0,0,0,1.33-.22,3.18,3.18,0,0,0,1.08-.7l1.48,1.6a5,5,0,0,1-4,1.55,6.28,6.28,0,0,1-2.87-.63,4.64,4.64,0,0,1-1.93-1.76,4.86,4.86,0,0,1-.68-2.55,5,5,0,0,1,.67-2.54,4.82,4.82,0,0,1,1.84-1.77,5.42,5.42,0,0,1,2.61-.63,5.35,5.35,0,0,1,2.56.61,4.41,4.41,0,0,1,1.79,1.74,5.21,5.21,0,0,1,.65,2.63S108.15,144.9,108.12,145.37Zm-6.52-3.09a2.36,2.36,0,0,0-.78,1.46h4.73a2.32,2.32,0,0,0-.79-1.45,2.36,2.36,0,0,0-1.57-.54A2.39,2.39,0,0,0,101.6,142.28Z"/><path class="cls-2" d="M118.74,140.71a4.25,4.25,0,0,1,1.1,3.18v5.49h-2.78v-5.07a2.52,2.52,0,0,0-.5-1.7,1.87,1.87,0,0,0-1.45-.56,2.24,2.24,0,0,0-1.68.65,2.72,2.72,0,0,0-.62,1.94v4.74H110v-9.6h2.65v1.13a3.64,3.64,0,0,1,1.38-.94,4.77,4.77,0,0,1,1.8-.33A4,4,0,0,1,118.74,140.71Z"/><path class="cls-2" d="M124.34,148.89a4.78,4.78,0,0,1-1.91-1.76,4.84,4.84,0,0,1,1.91-6.86,6,6,0,0,1,2.76-.63,5.38,5.38,0,0,1,2.65.63,3.86,3.86,0,0,1,1.65,1.81l-2.16,1.16a2.36,2.36,0,0,0-2.16-1.32,2.43,2.43,0,0,0-1.8.72,2.59,2.59,0,0,0-.71,1.94,2.63,2.63,0,0,0,.71,1.95,2.46,2.46,0,0,0,1.8.71,2.34,2.34,0,0,0,2.16-1.32l2.16,1.18a3.89,3.89,0,0,1-1.65,1.78,5.28,5.28,0,0,1-2.65.64A6,6,0,0,1,124.34,148.89Z"/><path class="cls-2" d="M133.15,138a1.46,1.46,0,0,1-.48-1.11,1.43,1.43,0,0,1,.48-1.1,1.74,1.74,0,0,1,1.25-.45,1.77,1.77,0,0,1,1.24.43,1.34,1.34,0,0,1,.49,1.07,1.49,1.49,0,0,1-.49,1.15,1.93,1.93,0,0,1-2.49,0Zm-.15,1.78h2.79v9.6H133Z"/><path class="cls-2" d="M138.37,136.14h2.79v13.24h-2.79Z"/><path class="cls-2" d="M143.57,149a1.68,1.68,0,0,1-.5-1.25,1.58,1.58,0,0,1,.5-1.24,1.82,1.82,0,0,1,2.46,0,1.62,1.62,0,0,1,.5,1.24A1.72,1.72,0,0,1,146,149a1.79,1.79,0,0,1-2.46,0Z"/></g></g></svg>