<svg xmlns="http://www.w3.org/2000/svg" viewBox="0 0 363.63 131.9"><defs><style>.cls-1{fill:#fa9597;}.cls-2{fill:#534d72;}</style></defs><title>Asset 50</title><g id="Layer_2" data-name="Layer 2"><g id="Layer_1-2" data-name="Layer 1"><path class="cls-1" d="M9.13,7.42H0V2H24.88V7.42H15.74V30.58H9.13Z"/><path class="cls-1" d="M48.92,10.77q2.51,2.45,2.5,7.25V30.58H45.06V19a5.7,5.7,0,0,0-1.14-3.89,4.17,4.17,0,0,0-3.3-1.29,5.09,5.09,0,0,0-3.84,1.49,6.19,6.19,0,0,0-1.42,4.43V30.58H29V.33h6.36v10.6A8.48,8.48,0,0,1,38.42,9a11,11,0,0,1,3.91-.67A9,9,0,0,1,48.92,10.77Z"/><path class="cls-1" d="M79.81,21.41H63.21a5.15,5.15,0,0,0,2.12,3.22,7,7,0,0,0,4.16,1.18,8.46,8.46,0,0,0,3-.51A7.26,7.26,0,0,0,75,23.69l3.39,3.67q-3.1,3.56-9,3.55a14.25,14.25,0,0,1-6.57-1.45,10.57,10.57,0,0,1-4.4-4,11,11,0,0,1-1.55-5.83,11.33,11.33,0,0,1,1.52-5.82,10.67,10.67,0,0,1,4.21-4,13,13,0,0,1,11.8-.06,10.11,10.11,0,0,1,4.1,4,11.89,11.89,0,0,1,1.49,6Q79.93,19.82,79.81,21.41ZM64.92,14.35a5.2,5.2,0,0,0-1.79,3.35h10.8a5.18,5.18,0,0,0-1.79-3.32,5.38,5.38,0,0,0-3.59-1.25A5.51,5.51,0,0,0,64.92,14.35Z"/><path class="cls-1" d="M104.72,9.13h5.63V14h-5.47V30.58H98.52V14H95.14V9.13h3.38v-1a8,8,0,0,1,2.23-6A8.49,8.49,0,0,1,107,0a11.37,11.37,0,0,1,2.71.31,6.56,6.56,0,0,1,2.14.87l-1.67,4.61A4.34,4.34,0,0,0,107.62,5q-2.9,0-2.9,3.18Z"/><path class="cls-1" d="M136.65,8.65V30.58h-6V28a8.5,8.5,0,0,1-3,2.19,9.53,9.53,0,0,1-3.79.75A9.31,9.31,0,0,1,117,28.42c-1.69-1.65-2.53-4.12-2.53-7.38V8.65h6.36V20.1q0,5.31,4.44,5.31a4.77,4.77,0,0,0,3.67-1.49,6.26,6.26,0,0,0,1.39-4.43V8.65Z"/><path class="cls-1" d="M157.74,29.52a6.46,6.46,0,0,1-2.31,1,11.69,11.69,0,0,1-2.87.35,8.52,8.52,0,0,1-6.06-2A7.63,7.63,0,0,1,144.36,23V14H141V9.13h3.39V3.79h6.36V9.13h5.47V14h-5.47V23a3,3,0,0,0,.71,2.14,2.66,2.66,0,0,0,2,.75A4.09,4.09,0,0,0,156,25Z"/><path class="cls-1" d="M184.45,8.65V30.58h-6V28a8.42,8.42,0,0,1-3,2.19,9.53,9.53,0,0,1-3.79.75,9.33,9.33,0,0,1-6.85-2.49c-1.69-1.65-2.53-4.12-2.53-7.38V8.65h6.36V20.1q0,5.31,4.45,5.31a4.8,4.8,0,0,0,3.67-1.49,6.31,6.31,0,0,0,1.38-4.43V8.65Z"/><path class="cls-1" d="M200.53,9.13A11.5,11.5,0,0,1,205,8.32v5.87c-.71,0-1.18-.08-1.43-.08a5.82,5.82,0,0,0-4.28,1.53,6.2,6.2,0,0,0-1.55,4.59V30.58h-6.36V8.65h6.08v2.89A7.1,7.1,0,0,1,200.53,9.13Z"/><path class="cls-1" d="M231,21.41h-16.6a5.15,5.15,0,0,0,2.12,3.22,7,7,0,0,0,4.16,1.18,8.46,8.46,0,0,0,3-.51,7.4,7.4,0,0,0,2.47-1.61l3.38,3.67q-3.11,3.56-9.05,3.55a14.25,14.25,0,0,1-6.57-1.45,10.57,10.57,0,0,1-4.4-4A11,11,0,0,1,208,19.62a11.24,11.24,0,0,1,1.53-5.82,10.71,10.71,0,0,1,4.2-4,13,13,0,0,1,11.8-.06,10.11,10.11,0,0,1,4.1,4,11.89,11.89,0,0,1,1.49,6Q231.1,19.82,231,21.41Zm-14.89-7.06a5.2,5.2,0,0,0-1.79,3.35h10.8a5.18,5.18,0,0,0-1.79-3.32,5.38,5.38,0,0,0-3.59-1.25A5.51,5.51,0,0,0,216.09,14.35Z"/><path class="cls-1" d="M263.07,20.47V30.58h-6.61V20.39L245.41,2h7l7.62,12.68L267.68,2h6.48Z"/><path class="cls-1" d="M296.43,21.41h-16.6A5.19,5.19,0,0,0,282,24.63a7,7,0,0,0,4.16,1.18,8.42,8.42,0,0,0,3-.51,7.3,7.3,0,0,0,2.47-1.61L295,27.36q-3.09,3.56-9.05,3.55a14.28,14.28,0,0,1-6.57-1.45,10.57,10.57,0,0,1-4.4-4,11.12,11.12,0,0,1-1.55-5.83A11.24,11.24,0,0,1,275,13.8a10.71,10.71,0,0,1,4.2-4A13,13,0,0,1,291,9.71a10.11,10.11,0,0,1,4.1,4,11.89,11.89,0,0,1,1.49,6Q296.55,19.82,296.43,21.41Zm-14.89-7.06a5.29,5.29,0,0,0-1.79,3.35h10.81a5.23,5.23,0,0,0-1.8-3.32,5.36,5.36,0,0,0-3.59-1.25A5.51,5.51,0,0,0,281.54,14.35Z"/><path class="cls-1" d="M317.88,10.75q2.73,2.41,2.73,7.32V30.58h-5.95V27.85q-1.8,3.06-6.69,3.06a10.19,10.19,0,0,1-4.38-.86,6.48,6.48,0,0,1-2.84-2.36,6.2,6.2,0,0,1-1-3.43,5.71,5.71,0,0,1,2.31-4.81q2.3-1.75,7.11-1.75h5.06A4.06,4.06,0,0,0,313,14.5a5.58,5.58,0,0,0-3.8-1.12,11,11,0,0,0-3.44.55,8.91,8.91,0,0,0-2.88,1.49L300.59,11a13.74,13.74,0,0,1,4.3-2,19.34,19.34,0,0,1,5.16-.69Q315.15,8.32,317.88,10.75Zm-5.42,15.13a4.16,4.16,0,0,0,1.79-2.23V21.41h-4.36Q306,21.41,306,24a2.3,2.3,0,0,0,1,1.94,4.35,4.35,0,0,0,2.63.71A5.59,5.59,0,0,0,312.46,25.88Z"/><path class="cls-1" d="M336.54,9.13A11.48,11.48,0,0,1,341,8.32v5.87c-.71,0-1.18-.08-1.43-.08a5.82,5.82,0,0,0-4.28,1.53,6.2,6.2,0,0,0-1.55,4.59V30.58h-6.36V8.65h6.08v2.89A7.08,7.08,0,0,1,336.54,9.13Z"/><path class="cls-1" d="M347.93,30.24a14.07,14.07,0,0,1-4.16-1.69L345.9,24a13.62,13.62,0,0,0,3.54,1.53,15.07,15.07,0,0,0,4.08.59q4,0,4-2a1.43,1.43,0,0,0-1.1-1.35,16.65,16.65,0,0,0-3.39-.69,31.46,31.46,0,0,1-4.44-.94,6.85,6.85,0,0,1-3-1.87,5.33,5.33,0,0,1-1.29-3.83,6.06,6.06,0,0,1,1.21-3.7,7.7,7.7,0,0,1,3.5-2.5,15,15,0,0,1,5.45-.9,21.39,21.39,0,0,1,4.63.51,13,13,0,0,1,3.81,1.41l-2.12,4.52a12.64,12.64,0,0,0-6.32-1.63,6.45,6.45,0,0,0-3.06.57,1.68,1.68,0,0,0-1,1.47,1.46,1.46,0,0,0,1.1,1.43,19.38,19.38,0,0,0,3.51.77,37.68,37.68,0,0,1,4.4,1,6.55,6.55,0,0,1,3,1.86,5.25,5.25,0,0,1,1.26,3.75,5.76,5.76,0,0,1-1.22,3.63A7.71,7.71,0,0,1,358.84,30a15.75,15.75,0,0,1-5.56.88A21.32,21.32,0,0,1,347.93,30.24Z"/><path class="cls-2" d="M12.17,58.71a3.14,3.14,0,0,1,.6,1.95,2.89,2.89,0,0,1-1.27,2.53,6.51,6.51,0,0,1-3.72.88H1.32V51.58h6.1a5.89,5.89,0,0,1,3.5.88,2.75,2.75,0,0,1,1.23,2.37,3,3,0,0,1-.44,1.62,3.1,3.1,0,0,1-1.22,1.13A3.29,3.29,0,0,1,12.17,58.71Zm-8-5V56.7H7.06a2.91,2.91,0,0,0,1.63-.37,1.27,1.27,0,0,0,.55-1.11,1.25,1.25,0,0,0-.55-1.1,3,3,0,0,0-1.63-.36Zm5.09,7.76a1.28,1.28,0,0,0,.58-1.16c0-1-.76-1.55-2.3-1.55H4.19v3.08H7.56A3.19,3.19,0,0,0,9.28,61.52Z"/><path class="cls-2" d="M24.3,54.47,20,64.66A5,5,0,0,1,18.33,67a4,4,0,0,1-2.35.67,4.71,4.71,0,0,1-1.48-.23,3.21,3.21,0,0,1-1.19-.64l1-2a2.67,2.67,0,0,0,.74.45,2.49,2.49,0,0,0,.83.16,1.51,1.51,0,0,0,.93-.28,2.36,2.36,0,0,0,.64-.92l0-.09-4.16-9.67h2.87L18.91,61l2.71-6.51Z"/><path class="cls-2" d="M36.68,63.61a2.84,2.84,0,0,1-1,.45,5.18,5.18,0,0,1-1.26.15,3.76,3.76,0,0,1-2.65-.87,3.36,3.36,0,0,1-.93-2.57V56.83H29.35V54.69h1.48V52.35h2.78v2.34H36v2.14H33.61v3.9a1.3,1.3,0,0,0,.31.94,1.16,1.16,0,0,0,.89.33,1.77,1.77,0,0,0,1.12-.36Z"/><path class="cls-2" d="M47,55.4a4.21,4.21,0,0,1,1.1,3.18v5.49H45.28V59a2.5,2.5,0,0,0-.5-1.7,1.82,1.82,0,0,0-1.45-.56,2.21,2.21,0,0,0-1.67.65A2.67,2.67,0,0,0,41,59.32v4.75H38.25V50.83H41v4.64a3.79,3.79,0,0,1,1.34-.85,5,5,0,0,1,1.71-.29A4,4,0,0,1,47,55.4Z"/><path class="cls-2" d="M50.72,52.69a1.46,1.46,0,0,1-.48-1.11,1.43,1.43,0,0,1,.48-1.1A1.76,1.76,0,0,1,52,50a1.79,1.79,0,0,1,1.25.43,1.36,1.36,0,0,1,.48,1.07,1.52,1.52,0,0,1-.48,1.15,2,2,0,0,1-2.5,0Zm-.14,1.78h2.78v9.6H50.58Z"/><path class="cls-2" d="M56.84,63.92A6.13,6.13,0,0,1,55,63.18l.93-2a5.84,5.84,0,0,0,1.55.67,6.61,6.61,0,0,0,1.78.26c1.18,0,1.77-.29,1.77-.88a.62.62,0,0,0-.48-.59,7.65,7.65,0,0,0-1.48-.3,13.56,13.56,0,0,1-2-.41,3,3,0,0,1-1.33-.82,2.35,2.35,0,0,1-.56-1.68,2.64,2.64,0,0,1,.53-1.61,3.37,3.37,0,0,1,1.53-1.1,6.6,6.6,0,0,1,2.38-.39,9.28,9.28,0,0,1,2,.22,5.78,5.78,0,0,1,1.67.62l-.93,2a5.53,5.53,0,0,0-2.77-.72,2.85,2.85,0,0,0-1.33.25.74.74,0,0,0-.45.65.64.64,0,0,0,.48.62,8.62,8.62,0,0,0,1.53.34,15.85,15.85,0,0,1,1.93.42,2.87,2.87,0,0,1,1.3.81,2.3,2.3,0,0,1,.56,1.64,2.51,2.51,0,0,1-.54,1.59,3.46,3.46,0,0,1-1.56,1.08,7,7,0,0,1-2.43.38A9.15,9.15,0,0,1,56.84,63.92Z"/><path class="cls-2" d="M78.58,54.94a4.47,4.47,0,0,1,1.72,1.73,5.76,5.76,0,0,1,0,5.2,4.47,4.47,0,0,1-1.72,1.73,4.88,4.88,0,0,1-2.44.61,3.69,3.69,0,0,1-2.89-1.16v4.48H70.47V54.47h2.66v1.11a3.69,3.69,0,0,1,3-1.25A4.88,4.88,0,0,1,78.58,54.94Zm-1.16,6.27a3.07,3.07,0,0,0,0-3.88,2.51,2.51,0,0,0-3.52,0,3.11,3.11,0,0,0,0,3.88,2.51,2.51,0,0,0,3.52,0Z"/><path class="cls-2" d="M84.63,63.58a4.72,4.72,0,0,1-1.89-1.76,5.19,5.19,0,0,1,0-5.1A4.72,4.72,0,0,1,84.63,55a6.17,6.17,0,0,1,5.43,0,4.67,4.67,0,0,1,1.87,1.76,5.12,5.12,0,0,1,0,5.1,4.67,4.67,0,0,1-1.87,1.76,6.17,6.17,0,0,1-5.43,0Zm4.47-2.37a3.07,3.07,0,0,0,0-3.88,2.3,2.3,0,0,0-1.75-.72,2.34,2.34,0,0,0-1.77.72,3,3,0,0,0,0,3.88,2.34,2.34,0,0,0,1.77.72A2.3,2.3,0,0,0,89.1,61.21Z"/><path class="cls-2" d="M94.61,52.69a1.46,1.46,0,0,1-.48-1.11,1.43,1.43,0,0,1,.48-1.1A1.76,1.76,0,0,1,95.86,50a1.81,1.81,0,0,1,1.25.43,1.36,1.36,0,0,1,.48,1.07,1.52,1.52,0,0,1-.48,1.15,1.78,1.78,0,0,1-1.25.45A1.75,1.75,0,0,1,94.61,52.69Zm-.15,1.78h2.79v9.6H94.46Z"/><path class="cls-2" d="M108.55,55.4a4.25,4.25,0,0,1,1.1,3.18v5.49h-2.78V59a2.5,2.5,0,0,0-.5-1.7,1.83,1.83,0,0,0-1.45-.56,2.24,2.24,0,0,0-1.68.65,2.71,2.71,0,0,0-.62,1.93v4.75H99.83v-9.6h2.66V55.6a3.64,3.64,0,0,1,1.38-.94,4.77,4.77,0,0,1,1.8-.33A4,4,0,0,1,108.55,55.4Z"/><path class="cls-2" d="M118.35,63.61a2.79,2.79,0,0,1-1,.45,5.18,5.18,0,0,1-1.26.15,3.75,3.75,0,0,1-2.65-.87,3.32,3.32,0,0,1-.94-2.57V56.83H111V54.69h1.48V52.35h2.79v2.34h2.39v2.14h-2.39v3.9a1.3,1.3,0,0,0,.31.94,1.15,1.15,0,0,0,.88.33,1.8,1.8,0,0,0,1.13-.36Z"/><path class="cls-2" d="M125.12,52.69a1.44,1.44,0,0,1-.49-1.11,1.4,1.4,0,0,1,.49-1.1,1.73,1.73,0,0,1,1.24-.45,1.78,1.78,0,0,1,1.25.43,1.37,1.37,0,0,1,.49,1.07,1.53,1.53,0,0,1-.49,1.15,2,2,0,0,1-2.49,0ZM125,54.47h2.79v9.6H125Z"/><path class="cls-2" d="M139.06,55.4a4.25,4.25,0,0,1,1.1,3.18v5.49h-2.79V59a2.45,2.45,0,0,0-.5-1.7,1.8,1.8,0,0,0-1.44-.56,2.24,2.24,0,0,0-1.68.65,2.67,2.67,0,0,0-.62,1.93v4.75h-2.79v-9.6H133V55.6a3.64,3.64,0,0,1,1.38-.94,4.73,4.73,0,0,1,1.8-.33A4,4,0,0,1,139.06,55.4Z"/><path class="cls-2" d="M162.88,55.39a4.37,4.37,0,0,1,1.06,3.19v5.49h-2.79V59a2.56,2.56,0,0,0-.47-1.7,1.63,1.63,0,0,0-1.35-.56,2,2,0,0,0-1.55.63,2.73,2.73,0,0,0-.57,1.88v4.82h-2.78V59c0-1.51-.61-2.26-1.82-2.26a2,2,0,0,0-1.54.63,2.73,2.73,0,0,0-.57,1.88v4.82h-2.78v-9.6h2.66v1.11a3.41,3.41,0,0,1,1.31-.93,4.51,4.51,0,0,1,1.7-.32,4.11,4.11,0,0,1,1.84.4,3.25,3.25,0,0,1,1.32,1.17A3.89,3.89,0,0,1,158,54.74a4.76,4.76,0,0,1,2-.41A3.88,3.88,0,0,1,162.88,55.39Z"/><path class="cls-2" d="M175.78,54.47l-4.33,10.19A5.1,5.1,0,0,1,169.82,67a4,4,0,0,1-2.35.67,4.71,4.71,0,0,1-1.48-.23,3.26,3.26,0,0,1-1.2-.64l1-2a2.53,2.53,0,0,0,.74.45,2.49,2.49,0,0,0,.83.16,1.51,1.51,0,0,0,.93-.28,2.36,2.36,0,0,0,.64-.92l0-.09-4.16-9.67h2.87L170.4,61l2.71-6.51Z"/><path class="cls-2" d="M182,50.83h2.79V64.07H182Z"/><path class="cls-2" d="M187.49,52.69a1.46,1.46,0,0,1-.48-1.11,1.43,1.43,0,0,1,.48-1.1,1.76,1.76,0,0,1,1.25-.45,1.81,1.81,0,0,1,1.25.43,1.36,1.36,0,0,1,.48,1.07,1.52,1.52,0,0,1-.48,1.15,1.78,1.78,0,0,1-1.25.45A1.75,1.75,0,0,1,187.49,52.69Zm-.15,1.78h2.79v9.6h-2.79Z"/><path class="cls-2" d="M195.77,54.69h2.46v2.14h-2.39v7.24h-2.79V56.83h-1.48V54.69h1.48v-.43a3.5,3.5,0,0,1,1-2.61,3.72,3.72,0,0,1,2.74-1,5,5,0,0,1,1.18.13,2.8,2.8,0,0,1,.94.39l-.73,2a2,2,0,0,0-1.13-.34c-.84,0-1.26.47-1.26,1.4Z"/><path class="cls-2" d="M208.84,60.06h-7.26a2.28,2.28,0,0,0,.93,1.41,3.1,3.1,0,0,0,1.82.51,3.67,3.67,0,0,0,1.33-.22,3.07,3.07,0,0,0,1.08-.71l1.48,1.61a5,5,0,0,1-4,1.55,6.28,6.28,0,0,1-2.87-.63,4.58,4.58,0,0,1-1.93-1.76,5.14,5.14,0,0,1,0-5.09A4.67,4.67,0,0,1,201.29,55a5.42,5.42,0,0,1,2.61-.63,5.28,5.28,0,0,1,2.55.61,4.47,4.47,0,0,1,1.8,1.73,5.27,5.27,0,0,1,.65,2.64S208.88,59.59,208.84,60.06ZM202.33,57a2.24,2.24,0,0,0-.78,1.46h4.73a2.32,2.32,0,0,0-.79-1.45,2.37,2.37,0,0,0-1.57-.55A2.39,2.39,0,0,0,202.33,57Z"/><path class="cls-2" d="M216,51.58h2.89V64.07H216Z"/><path class="cls-2" d="M234.81,54.94a4.4,4.4,0,0,1,1.72,1.73,5.68,5.68,0,0,1,0,5.2,4.4,4.4,0,0,1-1.72,1.73,4.87,4.87,0,0,1-2.43.61,3.67,3.67,0,0,1-2.89-1.16v4.48H226.7V54.47h2.66v1.11a3.71,3.71,0,0,1,3-1.25A4.87,4.87,0,0,1,234.81,54.94Zm-1.16,6.27a3.07,3.07,0,0,0,0-3.88,2.5,2.5,0,0,0-3.51,0,3.07,3.07,0,0,0,0,3.88,2.5,2.5,0,0,0,3.51,0Z"/><path class="cls-2" d="M239,50.83h2.79V64.07H239Z"/><path class="cls-2" d="M251.68,55.39a4.06,4.06,0,0,1,1.2,3.2v5.48h-2.61V62.88a3.1,3.1,0,0,1-2.93,1.33,4.52,4.52,0,0,1-1.91-.37,2.85,2.85,0,0,1-1.24-1,2.66,2.66,0,0,1-.43-1.5,2.47,2.47,0,0,1,1-2.1,5.14,5.14,0,0,1,3.11-.77h2.21a1.78,1.78,0,0,0-.55-1.4,2.47,2.47,0,0,0-1.66-.49,4.91,4.91,0,0,0-1.51.24,4.16,4.16,0,0,0-1.26.65l-1-1.94a5.92,5.92,0,0,1,1.88-.86,8.48,8.48,0,0,1,2.25-.3A5,5,0,0,1,251.68,55.39ZM249.31,62a1.76,1.76,0,0,0,.78-1v-1h-1.91c-1.14,0-1.71.37-1.71,1.12a1,1,0,0,0,.42.85,1.87,1.87,0,0,0,1.15.31A2.43,2.43,0,0,0,249.31,62Z"/><path class="cls-2" d="M264.11,55.4a4.24,4.24,0,0,1,1.09,3.18v5.49h-2.78V59a2.5,2.5,0,0,0-.5-1.7,1.8,1.8,0,0,0-1.44-.56,2.21,2.21,0,0,0-1.68.65,2.67,2.67,0,0,0-.63,1.93v4.75h-2.78v-9.6h2.66V55.6a3.69,3.69,0,0,1,1.37-.94,4.82,4.82,0,0,1,1.81-.33A4,4,0,0,1,264.11,55.4Z"/><path class="cls-2" d="M279,63.61a2.84,2.84,0,0,1-1,.45,5.18,5.18,0,0,1-1.26.15,3.76,3.76,0,0,1-2.65-.87,3.36,3.36,0,0,1-.93-2.57V56.83h-1.48V54.69h1.48V52.35h2.78v2.34h2.39v2.14h-2.39v3.9a1.3,1.3,0,0,0,.31.94,1.18,1.18,0,0,0,.89.33,1.77,1.77,0,0,0,1.12-.36Z"/><path class="cls-2" d="M282.07,63.58a4.69,4.69,0,0,1-1.88-1.76,5.12,5.12,0,0,1,0-5.1A4.69,4.69,0,0,1,282.07,55a5.77,5.77,0,0,1,2.72-.63,5.7,5.7,0,0,1,2.71.63,4.69,4.69,0,0,1,1.88,1.76,5.12,5.12,0,0,1,0,5.1,4.69,4.69,0,0,1-1.88,1.76,5.7,5.7,0,0,1-2.71.63A5.77,5.77,0,0,1,282.07,63.58Zm4.48-2.37a3.07,3.07,0,0,0,0-3.88,2.51,2.51,0,0,0-3.52,0,3,3,0,0,0,0,3.88,2.51,2.51,0,0,0,3.52,0Z"/><path class="cls-2" d="M9.84,76.81A4.23,4.23,0,0,1,10.93,80v5.5H8.15V80.41a2.5,2.5,0,0,0-.5-1.7,1.8,1.8,0,0,0-1.44-.56,2.19,2.19,0,0,0-1.68.65,2.67,2.67,0,0,0-.63,1.93v4.75H1.12V72.24H3.9v4.64A3.79,3.79,0,0,1,5.24,76,5,5,0,0,1,7,75.74,3.93,3.93,0,0,1,9.84,76.81Z"/><path class="cls-2" d="M20.75,76.8A4.09,4.09,0,0,1,21.94,80v5.48h-2.6v-1.2a3.1,3.1,0,0,1-2.93,1.34,4.54,4.54,0,0,1-1.92-.37,2.91,2.91,0,0,1-1.24-1,2.73,2.73,0,0,1-.42-1.5,2.49,2.49,0,0,1,1-2.1A5.15,5.15,0,0,1,17,79.84h2.21a1.81,1.81,0,0,0-.55-1.4A2.44,2.44,0,0,0,17,78a4.82,4.82,0,0,0-1.51.24,4.16,4.16,0,0,0-1.26.65l-1-1.94A6,6,0,0,1,15.06,76a8.61,8.61,0,0,1,2.26-.3A5,5,0,0,1,20.75,76.8Zm-2.38,6.62a1.82,1.82,0,0,0,.79-1v-1H17.25c-1.14,0-1.71.38-1.71,1.13a1,1,0,0,0,.42.85,1.94,1.94,0,0,0,1.15.31A2.42,2.42,0,0,0,18.37,83.42Z"/><path class="cls-2" d="M33.81,75.88l-4.05,9.6H26.88l-4-9.6h2.87l2.66,6.53,2.75-6.53Z"/><path class="cls-2" d="M44,81.46H36.77a2.27,2.27,0,0,0,.93,1.42,3.07,3.07,0,0,0,1.81.51,3.64,3.64,0,0,0,1.33-.22,3.07,3.07,0,0,0,1.08-.71l1.48,1.61a5,5,0,0,1-4,1.55A6.28,6.28,0,0,1,36.57,85a4.7,4.7,0,0,1-1.93-1.76,5.17,5.17,0,0,1,0-5.09,4.58,4.58,0,0,1,1.83-1.77,5.74,5.74,0,0,1,5.17,0,4.47,4.47,0,0,1,1.79,1.74,5.17,5.17,0,0,1,.65,2.64S44.06,81,44,81.46Zm-6.51-3.08a2.29,2.29,0,0,0-.79,1.46h4.73a2.32,2.32,0,0,0-.79-1.45,2.55,2.55,0,0,0-3.15,0Z"/><path class="cls-2" d="M60.89,75.88v8a5.13,5.13,0,0,1-1.38,3.93,5.63,5.63,0,0,1-4,1.28,9.85,9.85,0,0,1-2.64-.34,5.69,5.69,0,0,1-2.07-1l1.11-2a4.43,4.43,0,0,0,1.53.8,6.33,6.33,0,0,0,1.86.29,3,3,0,0,0,2.13-.65,2.58,2.58,0,0,0,.69-2v-.41a3.9,3.9,0,0,1-3,1.2,5.14,5.14,0,0,1-2.41-.58,4.37,4.37,0,0,1-1.74-1.64,4.85,4.85,0,0,1,0-4.85,4.34,4.34,0,0,1,1.74-1.63,5,5,0,0,1,2.41-.58,3.84,3.84,0,0,1,3.18,1.37V75.88Zm-3.45,6.2a2.43,2.43,0,0,0,0-3.41,2.86,2.86,0,0,0-3.63,0,2.38,2.38,0,0,0,0,3.41,2.86,2.86,0,0,0,3.63,0Z"/><path class="cls-2" d="M67.48,76.09a5.18,5.18,0,0,1,2-.35v2.57c-.3,0-.51,0-.62,0a2.56,2.56,0,0,0-1.87.67,2.73,2.73,0,0,0-.68,2v4.53H63.48v-9.6h2.65v1.27A3.16,3.16,0,0,1,67.48,76.09Z"/><path class="cls-2" d="M78.34,76.8A4.09,4.09,0,0,1,79.53,80v5.48h-2.6v-1.2A3.09,3.09,0,0,1,74,85.62a4.6,4.6,0,0,1-1.92-.37,2.91,2.91,0,0,1-1.24-1,2.73,2.73,0,0,1-.42-1.5,2.49,2.49,0,0,1,1-2.1,5.17,5.17,0,0,1,3.12-.77h2.21a1.78,1.78,0,0,0-.55-1.4A2.42,2.42,0,0,0,74.54,78a4.87,4.87,0,0,0-1.51.24,4.16,4.16,0,0,0-1.26.65l-1-1.94A6,6,0,0,1,72.66,76a8.48,8.48,0,0,1,2.25-.3A5,5,0,0,1,78.34,76.8ZM76,83.42a1.8,1.8,0,0,0,.78-1v-1H74.84c-1.14,0-1.71.38-1.71,1.13a1,1,0,0,0,.42.85,1.94,1.94,0,0,0,1.15.31A2.45,2.45,0,0,0,76,83.42Z"/><path class="cls-2" d="M91.93,72.24V85.48H89.27V84.37a3.65,3.65,0,0,1-3,1.25,5.06,5.06,0,0,1-2.46-.6,4.47,4.47,0,0,1-1.72-1.73,5.36,5.36,0,0,1-.62-2.61,5.29,5.29,0,0,1,.62-2.6,4.43,4.43,0,0,1,1.72-1.74,5.06,5.06,0,0,1,2.46-.6,3.63,3.63,0,0,1,2.87,1.16V72.24ZM88.51,82.62a3.07,3.07,0,0,0,0-3.88,2.51,2.51,0,0,0-3.52,0,3.07,3.07,0,0,0,0,3.88,2.51,2.51,0,0,0,3.52,0Z"/><path class="cls-2" d="M104.17,75.88v9.6h-2.64V84.34a3.78,3.78,0,0,1-1.32,1,4.13,4.13,0,0,1-1.66.33,4.08,4.08,0,0,1-3-1.09,4.36,4.36,0,0,1-1.1-3.23V75.88h2.78v5c0,1.55.65,2.32,2,2.32a2.06,2.06,0,0,0,1.6-.65,2.71,2.71,0,0,0,.61-1.93V75.88Z"/><path class="cls-2" d="M114.06,76.8a4.09,4.09,0,0,1,1.19,3.2v5.48h-2.6v-1.2a3.1,3.1,0,0,1-2.93,1.34,4.54,4.54,0,0,1-1.92-.37,2.91,2.91,0,0,1-1.24-1,2.74,2.74,0,0,1-.43-1.5,2.5,2.5,0,0,1,1-2.1,5.14,5.14,0,0,1,3.11-.77h2.22a1.79,1.79,0,0,0-.56-1.4,2.4,2.4,0,0,0-1.66-.49,4.8,4.8,0,0,0-1.5.24,3.94,3.94,0,0,0-1.26.65l-1-1.94a5.92,5.92,0,0,1,1.88-.86,8.55,8.55,0,0,1,2.26-.3A5,5,0,0,1,114.06,76.8Zm-2.38,6.62a1.82,1.82,0,0,0,.79-1v-1h-1.91c-1.14,0-1.71.38-1.71,1.13a1,1,0,0,0,.41.85,2,2,0,0,0,1.16.31A2.42,2.42,0,0,0,111.68,83.42Z"/><path class="cls-2" d="M124,85a2.93,2.93,0,0,1-1,.45,5.18,5.18,0,0,1-1.26.15,3.76,3.76,0,0,1-2.65-.87,3.36,3.36,0,0,1-.93-2.57V78.24h-1.49V76.09h1.49V73.76h2.78v2.33h2.39v2.15h-2.39v3.9a1.3,1.3,0,0,0,.31.94,1.15,1.15,0,0,0,.88.33,1.8,1.8,0,0,0,1.13-.36Z"/><path class="cls-2" d="M134.57,81.46h-7.26a2.27,2.27,0,0,0,.93,1.42,3.1,3.1,0,0,0,1.82.51,3.67,3.67,0,0,0,1.33-.22,3.26,3.26,0,0,0,1.08-.71L134,84.07a5,5,0,0,1-4,1.55,6.28,6.28,0,0,1-2.87-.63,4.58,4.58,0,0,1-1.93-1.76,5.14,5.14,0,0,1,0-5.09A4.61,4.61,0,0,1,127,76.37a5.72,5.72,0,0,1,5.16,0,4.56,4.56,0,0,1,1.8,1.74,5.27,5.27,0,0,1,.65,2.64S134.61,81,134.57,81.46Zm-6.51-3.08a2.24,2.24,0,0,0-.78,1.46H132a2.26,2.26,0,0,0-.78-1.45,2.37,2.37,0,0,0-1.57-.55A2.39,2.39,0,0,0,128.06,78.38Z"/><path class="cls-2" d="M146.26,72.24V85.48H143.6V84.37a3.65,3.65,0,0,1-3,1.25,5,5,0,0,1-2.45-.6,4.4,4.4,0,0,1-1.72-1.73,5.25,5.25,0,0,1-.63-2.61,5.19,5.19,0,0,1,.63-2.6,4.36,4.36,0,0,1,1.72-1.74,5,5,0,0,1,2.45-.6,3.64,3.64,0,0,1,2.88,1.16V72.24Zm-3.43,10.38a3,3,0,0,0,0-3.88,2.5,2.5,0,0,0-3.51,0,3,3,0,0,0,0,3.88,2.5,2.5,0,0,0,3.51,0Z"/><path class="cls-2" d="M151.13,82.63a1.67,1.67,0,0,1,.48,1.24,3,3,0,0,1-.09.72,8.49,8.49,0,0,1-.39,1.07l-1,2.57h-1.76l.78-2.84a1.43,1.43,0,0,1-.7-.58,1.82,1.82,0,0,1,.23-2.18,1.74,1.74,0,0,1,1.24-.47A1.7,1.7,0,0,1,151.13,82.63Z"/><path class="cls-2" d="M164.74,85a2.84,2.84,0,0,1-1,.45,5.1,5.1,0,0,1-1.25.15,3.73,3.73,0,0,1-2.65-.87,3.32,3.32,0,0,1-.94-2.57V78.24h-1.48V76.09h1.48V73.76h2.78v2.33h2.39v2.15h-2.39v3.9a1.35,1.35,0,0,0,.31.94,1.18,1.18,0,0,0,.89.33,1.77,1.77,0,0,0,1.12-.36Z"/><path class="cls-2" d="M170.32,76.09a5.1,5.1,0,0,1,2-.35v2.57l-.62,0a2.58,2.58,0,0,0-1.88.67,2.73,2.73,0,0,0-.68,2v4.53h-2.78v-9.6H169v1.27A3,3,0,0,1,170.32,76.09Z"/><path class="cls-2" d="M181.17,76.8a4.06,4.06,0,0,1,1.2,3.2v5.48h-2.61v-1.2a3.08,3.08,0,0,1-2.92,1.34,4.54,4.54,0,0,1-1.92-.37,2.85,2.85,0,0,1-1.24-1,2.66,2.66,0,0,1-.43-1.5,2.5,2.5,0,0,1,1-2.1,5.14,5.14,0,0,1,3.11-.77h2.21a1.78,1.78,0,0,0-.55-1.4,2.42,2.42,0,0,0-1.66-.49,4.91,4.91,0,0,0-1.51.24,4,4,0,0,0-1.25.65l-1-1.94a5.92,5.92,0,0,1,1.88-.86,8.5,8.5,0,0,1,2.26-.3A5,5,0,0,1,181.17,76.8Zm-2.37,6.62a1.76,1.76,0,0,0,.78-1v-1h-1.9c-1.15,0-1.72.38-1.72,1.13a1,1,0,0,0,.42.85,1.94,1.94,0,0,0,1.15.31A2.43,2.43,0,0,0,178.8,83.42Z"/><path class="cls-2" d="M194.23,75.88l-4,9.6h-2.87l-4-9.6h2.87l2.66,6.53,2.75-6.53Z"/><path class="cls-2" d="M204.46,81.46h-7.27a2.27,2.27,0,0,0,.93,1.42,3.1,3.1,0,0,0,1.82.51,3.67,3.67,0,0,0,1.33-.22,3.07,3.07,0,0,0,1.08-.71l1.48,1.61a5,5,0,0,1-4,1.55A6.28,6.28,0,0,1,197,85a4.58,4.58,0,0,1-1.93-1.76,4.86,4.86,0,0,1-.68-2.55,4.94,4.94,0,0,1,.67-2.54,4.67,4.67,0,0,1,1.84-1.77,5.72,5.72,0,0,1,5.16,0,4.5,4.5,0,0,1,1.8,1.74,5.27,5.27,0,0,1,.65,2.64S204.49,81,204.46,81.46Zm-6.52-3.08a2.24,2.24,0,0,0-.78,1.46h4.73a2.32,2.32,0,0,0-.79-1.45,2.37,2.37,0,0,0-1.57-.55A2.39,2.39,0,0,0,197.94,78.38Z"/><path class="cls-2" d="M206.36,72.24h2.79V85.48h-2.79Z"/><path class="cls-2" d="M221.08,81.46h-7.26a2.27,2.27,0,0,0,.93,1.42,3.1,3.1,0,0,0,1.82.51,3.67,3.67,0,0,0,1.33-.22,3.26,3.26,0,0,0,1.08-.71l1.48,1.61a5,5,0,0,1-4,1.55,6.35,6.35,0,0,1-2.88-.63,4.61,4.61,0,0,1-1.92-1.76,5.14,5.14,0,0,1,0-5.09,4.61,4.61,0,0,1,1.84-1.77,5.72,5.72,0,0,1,5.16,0,4.56,4.56,0,0,1,1.8,1.74,5.27,5.27,0,0,1,.65,2.64S221.12,81,221.08,81.46Zm-6.51-3.08a2.24,2.24,0,0,0-.78,1.46h4.72a2.26,2.26,0,0,0-.78-1.45,2.37,2.37,0,0,0-1.57-.55A2.39,2.39,0,0,0,214.57,78.38Z"/><path class="cls-2" d="M232.77,72.24V85.48h-2.66V84.37a3.65,3.65,0,0,1-3,1.25,5,5,0,0,1-2.45-.6,4.4,4.4,0,0,1-1.72-1.73,5.25,5.25,0,0,1-.63-2.61,5.19,5.19,0,0,1,.63-2.6,4.36,4.36,0,0,1,1.72-1.74,5,5,0,0,1,2.45-.6A3.64,3.64,0,0,1,230,76.9V72.24Zm-3.43,10.38a3,3,0,0,0,0-3.88,2.5,2.5,0,0,0-3.51,0,3,3,0,0,0,0,3.88,2.5,2.5,0,0,0,3.51,0Z"/><path class="cls-2" d="M237.64,82.63a1.67,1.67,0,0,1,.48,1.24,3,3,0,0,1-.09.72,8.49,8.49,0,0,1-.39,1.07l-1,2.57h-1.76l.78-2.84a1.43,1.43,0,0,1-.7-.58,1.82,1.82,0,0,1,.23-2.18,1.74,1.74,0,0,1,1.24-.47A1.7,1.7,0,0,1,237.64,82.63Z"/><path class="cls-2" d="M252.36,76.8a4.09,4.09,0,0,1,1.19,3.2v5.48H251v-1.2A3.1,3.1,0,0,1,248,85.62a4.54,4.54,0,0,1-1.92-.37,2.91,2.91,0,0,1-1.24-1,2.73,2.73,0,0,1-.42-1.5,2.49,2.49,0,0,1,1-2.1,5.17,5.17,0,0,1,3.12-.77h2.21a1.81,1.81,0,0,0-.55-1.4,2.44,2.44,0,0,0-1.66-.49,4.82,4.82,0,0,0-1.51.24,4.16,4.16,0,0,0-1.26.65l-1-1.94a6,6,0,0,1,1.88-.86,8.61,8.61,0,0,1,2.26-.3A5,5,0,0,1,252.36,76.8ZM250,83.42a1.82,1.82,0,0,0,.79-1v-1h-1.91c-1.14,0-1.71.38-1.71,1.13a1,1,0,0,0,.42.85,1.94,1.94,0,0,0,1.15.31A2.39,2.39,0,0,0,250,83.42Z"/><path class="cls-2" d="M264.78,76.81a4.24,4.24,0,0,1,1.1,3.17v5.5H263.1V80.41a2.5,2.5,0,0,0-.5-1.7,1.83,1.83,0,0,0-1.45-.56,2.17,2.17,0,0,0-1.67.65,2.67,2.67,0,0,0-.63,1.93v4.75h-2.78v-9.6h2.66V77a3.62,3.62,0,0,1,1.37-.93,4.8,4.8,0,0,1,1.8-.33A3.92,3.92,0,0,1,264.78,76.81Z"/><path class="cls-2" d="M278.28,72.24V85.48h-2.66V84.37a3.65,3.65,0,0,1-3,1.25,5,5,0,0,1-2.45-.6,4.47,4.47,0,0,1-1.72-1.73,5.25,5.25,0,0,1-.62-2.61,5.18,5.18,0,0,1,.62-2.6,4.43,4.43,0,0,1,1.72-1.74,5,5,0,0,1,2.45-.6,3.64,3.64,0,0,1,2.88,1.16V72.24Zm-3.43,10.38a3,3,0,0,0,0-3.88,2.31,2.31,0,0,0-1.74-.72,2.34,2.34,0,0,0-1.77.72,3,3,0,0,0,0,3.88,2.34,2.34,0,0,0,1.77.72A2.31,2.31,0,0,0,274.85,82.62Z"/><path class="cls-2" d="M2,106.74A6.53,6.53,0,0,1,.19,106l.93-2a6,6,0,0,0,1.55.67,6.68,6.68,0,0,0,1.79.26c1.18,0,1.76-.3,1.76-.88a.62.62,0,0,0-.48-.59,6.82,6.82,0,0,0-1.48-.3,15.26,15.26,0,0,1-1.94-.41A3.07,3.07,0,0,1,1,101.93a2.31,2.31,0,0,1-.56-1.68A2.63,2.63,0,0,1,1,98.64a3.35,3.35,0,0,1,1.54-1.1,6.56,6.56,0,0,1,2.38-.39,9.19,9.19,0,0,1,2,.22A5.4,5.4,0,0,1,8.56,98l-.93,2a5.47,5.47,0,0,0-2.76-.72,2.9,2.9,0,0,0-1.34.25.74.74,0,0,0-.45.64.64.64,0,0,0,.49.63,8.62,8.62,0,0,0,1.53.34,16.29,16.29,0,0,1,1.93.42,2.92,2.92,0,0,1,1.3.81A2.29,2.29,0,0,1,8.88,104a2.58,2.58,0,0,1-.53,1.59,3.52,3.52,0,0,1-1.56,1.08,7.15,7.15,0,0,1-2.44.38A9.61,9.61,0,0,1,2,106.74Z"/><path class="cls-2" d="M16.79,106.42a2.76,2.76,0,0,1-1,.46,5.18,5.18,0,0,1-1.26.15,3.76,3.76,0,0,1-2.65-.87,3.38,3.38,0,0,1-.94-2.57V99.65H9.45V97.5h1.48V95.17h2.79V97.5h2.39v2.15H13.72v3.9a1.3,1.3,0,0,0,.31.94,1.15,1.15,0,0,0,.88.33,1.8,1.8,0,0,0,1.13-.36Z"/><path class="cls-2" d="M25.65,98.21a4,4,0,0,1,1.2,3.2v5.48H24.24v-1.2A3.09,3.09,0,0,1,21.32,107a4.54,4.54,0,0,1-1.92-.37,2.91,2.91,0,0,1-1.24-1,2.66,2.66,0,0,1-.43-1.5,2.5,2.5,0,0,1,1-2.1,5.14,5.14,0,0,1,3.11-.77h2.22a1.77,1.77,0,0,0-.56-1.4,2.42,2.42,0,0,0-1.66-.49,4.91,4.91,0,0,0-1.51.24,4,4,0,0,0-1.25.65l-1-1.94A5.92,5.92,0,0,1,20,97.45a8.5,8.5,0,0,1,2.26-.3A5,5,0,0,1,25.65,98.21Zm-2.37,6.62a1.86,1.86,0,0,0,.79-1v-1H22.16c-1.15,0-1.72.38-1.72,1.13a1,1,0,0,0,.42.85,2,2,0,0,0,1.15.31A2.43,2.43,0,0,0,23.28,104.83Z"/><path class="cls-2" d="M33.37,97.5a5.1,5.1,0,0,1,2-.35v2.57c-.31,0-.51,0-.62,0a2.52,2.52,0,0,0-1.87.67,2.67,2.67,0,0,0-.68,2v4.53H29.36v-9.6H32v1.27A3,3,0,0,1,33.37,97.5Z"/><path class="cls-2" d="M43.51,106.42a2.69,2.69,0,0,1-1,.46,5.1,5.1,0,0,1-1.25.15,3.73,3.73,0,0,1-2.65-.87,3.34,3.34,0,0,1-.94-2.57V99.65H36.18V97.5h1.48V95.17h2.78V97.5h2.39v2.15H40.44v3.9a1.35,1.35,0,0,0,.31.94,1.18,1.18,0,0,0,.89.33,1.77,1.77,0,0,0,1.12-.36Z"/><path class="cls-2" d="M54.13,102.87H46.87a2.21,2.21,0,0,0,.92,1.41,3.06,3.06,0,0,0,1.82.52,3.64,3.64,0,0,0,1.33-.22,3.21,3.21,0,0,0,1.08-.71l1.48,1.61a5,5,0,0,1-4,1.55,6.28,6.28,0,0,1-2.87-.63,4.64,4.64,0,0,1-1.93-1.76,4.86,4.86,0,0,1-.68-2.55,4.94,4.94,0,0,1,.67-2.54,4.67,4.67,0,0,1,1.84-1.77,5.74,5.74,0,0,1,5.17,0,4.54,4.54,0,0,1,1.79,1.74,5.26,5.26,0,0,1,.65,2.63S54.16,102.41,54.13,102.87Zm-6.52-3.08a2.26,2.26,0,0,0-.78,1.46h4.73a2.31,2.31,0,0,0-2.36-2A2.39,2.39,0,0,0,47.61,99.79Z"/><path class="cls-2" d="M65.81,93.65v13.24H63.15v-1.11a3.65,3.65,0,0,1-3,1.25,5,5,0,0,1-2.46-.61A4.34,4.34,0,0,1,56,104.69a5.29,5.29,0,0,1-.62-2.6A5.36,5.36,0,0,1,56,99.48a4.47,4.47,0,0,1,1.72-1.73,5.06,5.06,0,0,1,2.46-.6A3.63,3.63,0,0,1,63,98.31V93.65ZM62.39,104a3.07,3.07,0,0,0,0-3.88,2.51,2.51,0,0,0-3.52,0,3.07,3.07,0,0,0,0,3.88,2.51,2.51,0,0,0,3.52,0Z"/><path class="cls-2" d="M88.59,98.21a4.36,4.36,0,0,1,1.06,3.18v5.5H86.86v-5.07a2.56,2.56,0,0,0-.47-1.7A1.63,1.63,0,0,0,85,99.56a2,2,0,0,0-1.55.63,2.73,2.73,0,0,0-.57,1.88v4.82H80.14v-5.07c0-1.51-.61-2.26-1.82-2.26a2,2,0,0,0-1.54.63,2.73,2.73,0,0,0-.57,1.88v4.82H73.43v-9.6h2.66V98.4a3.41,3.41,0,0,1,1.31-.93,4.33,4.33,0,0,1,1.7-.32,4.11,4.11,0,0,1,1.84.4,3.25,3.25,0,0,1,1.32,1.17,3.89,3.89,0,0,1,1.49-1.16,4.61,4.61,0,0,1,2-.41A3.88,3.88,0,0,1,88.59,98.21Z"/><path class="cls-2" d="M101.5,97.29l-4.34,10.19a5,5,0,0,1-1.63,2.33,4,4,0,0,1-2.35.68,4.71,4.71,0,0,1-1.48-.23,3.26,3.26,0,0,1-1.2-.64l1-2a2.31,2.31,0,0,0,.74.44,2.26,2.26,0,0,0,.83.16A1.51,1.51,0,0,0,94,108a2.36,2.36,0,0,0,.64-.92l0-.09-4.16-9.67h2.87l2.7,6.51,2.71-6.51Z"/><path class="cls-2" d="M115.79,97.76a4.43,4.43,0,0,1,1.73,1.73,5.76,5.76,0,0,1,0,5.2,4.43,4.43,0,0,1-1.73,1.73,4.87,4.87,0,0,1-2.43.61,3.67,3.67,0,0,1-2.89-1.16v4.48h-2.78V97.29h2.65V98.4a3.68,3.68,0,0,1,3-1.25A4.87,4.87,0,0,1,115.79,97.76ZM114.63,104a3.07,3.07,0,0,0,0-3.88,2.5,2.5,0,0,0-3.51,0,3.07,3.07,0,0,0,0,3.88,2.5,2.5,0,0,0,3.51,0Z"/><path class="cls-2" d="M124,97.5a5.19,5.19,0,0,1,2-.35v2.57c-.31,0-.52,0-.63,0a2.52,2.52,0,0,0-1.87.67,2.71,2.71,0,0,0-.68,2v4.53H120v-9.6h2.66v1.27A3.07,3.07,0,0,1,124,97.5Z"/><path class="cls-2" d="M129.37,106.4a4.69,4.69,0,0,1-1.88-1.76,5.12,5.12,0,0,1,0-5.1,4.69,4.69,0,0,1,1.88-1.76,5.77,5.77,0,0,1,2.72-.63,5.7,5.7,0,0,1,2.71.63,4.69,4.69,0,0,1,1.88,1.76,5.12,5.12,0,0,1,0,5.1,4.69,4.69,0,0,1-1.88,1.76,5.7,5.7,0,0,1-2.71.63A5.77,5.77,0,0,1,129.37,106.4Zm4.48-2.37a3.07,3.07,0,0,0,0-3.88,2.51,2.51,0,0,0-3.52,0,3,3,0,0,0,0,3.88,2.51,2.51,0,0,0,3.52,0Z"/><path class="cls-2" d="M142.26,97.5h2.46v2.15h-2.39v7.24h-2.78V99.65h-1.48V97.5h1.48v-.42a3.49,3.49,0,0,1,1-2.61,3.73,3.73,0,0,1,2.74-1,5.11,5.11,0,0,1,1.19.13,2.83,2.83,0,0,1,.93.39l-.73,2a1.93,1.93,0,0,0-1.12-.34c-.85,0-1.27.47-1.27,1.39Z"/><path class="cls-2" d="M155.34,102.87h-7.26a2.23,2.23,0,0,0,.93,1.41,3,3,0,0,0,1.82.52,3.58,3.58,0,0,0,1.32-.22,3.21,3.21,0,0,0,1.08-.71l1.48,1.61a5,5,0,0,1-4,1.55,6.28,6.28,0,0,1-2.87-.63,4.61,4.61,0,0,1-1.92-1.76,4.77,4.77,0,0,1-.68-2.55,4.85,4.85,0,0,1,.67-2.54,4.58,4.58,0,0,1,1.83-1.77,5.74,5.74,0,0,1,5.17,0,4.47,4.47,0,0,1,1.79,1.74,5.16,5.16,0,0,1,.65,2.63S155.38,102.41,155.34,102.87Zm-6.51-3.08a2.27,2.27,0,0,0-.79,1.46h4.73a2.29,2.29,0,0,0-2.35-2A2.39,2.39,0,0,0,148.83,99.79Z"/><path class="cls-2" d="M158.14,106.74a6.41,6.41,0,0,1-1.82-.74l.93-2a5.84,5.84,0,0,0,1.55.67,6.61,6.61,0,0,0,1.78.26c1.18,0,1.77-.3,1.77-.88a.62.62,0,0,0-.48-.59,7,7,0,0,0-1.48-.3,15.46,15.46,0,0,1-1.95-.41,3.13,3.13,0,0,1-1.33-.82,2.35,2.35,0,0,1-.56-1.68,2.64,2.64,0,0,1,.53-1.61,3.37,3.37,0,0,1,1.53-1.1,6.65,6.65,0,0,1,2.39-.39,9.26,9.26,0,0,1,2,.22,5.5,5.5,0,0,1,1.67.62l-.93,2a5.49,5.49,0,0,0-2.76-.72,2.87,2.87,0,0,0-1.34.25.74.74,0,0,0-.45.64.64.64,0,0,0,.48.63,8.78,8.78,0,0,0,1.54.34,16.07,16.07,0,0,1,1.92.42,3,3,0,0,1,1.31.81A2.29,2.29,0,0,1,165,104a2.53,2.53,0,0,1-.54,1.59,3.41,3.41,0,0,1-1.56,1.08,7,7,0,0,1-2.43.38A9.61,9.61,0,0,1,158.14,106.74Z"/><path class="cls-2" d="M167.61,106.74a6.53,6.53,0,0,1-1.82-.74l.93-2a6,6,0,0,0,1.55.67,6.68,6.68,0,0,0,1.79.26c1.18,0,1.76-.3,1.76-.88a.62.62,0,0,0-.48-.59,6.82,6.82,0,0,0-1.48-.3,15.26,15.26,0,0,1-1.94-.41,3.07,3.07,0,0,1-1.33-.82,2.31,2.31,0,0,1-.56-1.68,2.63,2.63,0,0,1,.52-1.61,3.4,3.4,0,0,1,1.54-1.1,6.56,6.56,0,0,1,2.38-.39,9.19,9.19,0,0,1,2,.22,5.4,5.4,0,0,1,1.67.62l-.93,2a5.47,5.47,0,0,0-2.76-.72,2.9,2.9,0,0,0-1.34.25.74.74,0,0,0-.45.64.64.64,0,0,0,.49.63,8.62,8.62,0,0,0,1.53.34,15.85,15.85,0,0,1,1.93.42,2.92,2.92,0,0,1,1.3.81,2.29,2.29,0,0,1,.55,1.64,2.58,2.58,0,0,1-.53,1.59,3.52,3.52,0,0,1-1.56,1.08A7.15,7.15,0,0,1,170,107,9.68,9.68,0,0,1,167.61,106.74Z"/><path class="cls-2" d="M176.34,95.51a1.52,1.52,0,0,1,0-2.22,2,2,0,0,1,2.5,0,1.36,1.36,0,0,1,.48,1.07,1.53,1.53,0,0,1-.48,1.15,1.78,1.78,0,0,1-1.25.45A1.8,1.8,0,0,1,176.34,95.51Zm-.14,1.78H179v9.6H176.2Z"/><path class="cls-2" d="M183.41,106.4a4.69,4.69,0,0,1-1.88-1.76,5.12,5.12,0,0,1,0-5.1,4.69,4.69,0,0,1,1.88-1.76,5.77,5.77,0,0,1,2.72-.63,5.7,5.7,0,0,1,2.71.63,4.69,4.69,0,0,1,1.88,1.76,5.12,5.12,0,0,1,0,5.1,4.69,4.69,0,0,1-1.88,1.76,5.7,5.7,0,0,1-2.71.63A5.77,5.77,0,0,1,183.41,106.4Zm4.48-2.37a3.07,3.07,0,0,0,0-3.88,2.51,2.51,0,0,0-3.52,0,3,3,0,0,0,0,3.88,2.51,2.51,0,0,0,3.52,0Z"/><path class="cls-2" d="M202,98.22a4.23,4.23,0,0,1,1.09,3.17v5.5h-2.78v-5.07a2.5,2.5,0,0,0-.5-1.7,1.8,1.8,0,0,0-1.44-.56,2.19,2.19,0,0,0-1.68.65,2.67,2.67,0,0,0-.63,1.93v4.75h-2.78v-9.6h2.66v1.12a3.78,3.78,0,0,1,1.37-.93,4.82,4.82,0,0,1,1.81-.33A3.93,3.93,0,0,1,202,98.22Z"/><path class="cls-2" d="M212.88,98.21a4.08,4.08,0,0,1,1.19,3.2v5.48h-2.6v-1.2a3.12,3.12,0,0,1-2.93,1.34,4.54,4.54,0,0,1-1.92-.37,2.91,2.91,0,0,1-1.24-1,2.73,2.73,0,0,1-.42-1.5,2.49,2.49,0,0,1,1-2.1,5.15,5.15,0,0,1,3.12-.77h2.21a1.8,1.8,0,0,0-.55-1.4,2.44,2.44,0,0,0-1.66-.49,4.82,4.82,0,0,0-1.51.24,4.16,4.16,0,0,0-1.26.65l-1-1.94a5.92,5.92,0,0,1,1.88-.86,8.61,8.61,0,0,1,2.26-.3A5,5,0,0,1,212.88,98.21Zm-2.38,6.62a1.86,1.86,0,0,0,.79-1v-1h-1.91c-1.14,0-1.71.38-1.71,1.13a1,1,0,0,0,.42.85,1.94,1.94,0,0,0,1.15.31A2.42,2.42,0,0,0,210.5,104.83Z"/><path class="cls-2" d="M216.59,93.65h2.78v13.24h-2.78Z"/><path class="cls-2" d="M228.89,106.4a4.71,4.71,0,0,1-1.91-1.76,5.06,5.06,0,0,1,0-5.1,4.71,4.71,0,0,1,1.91-1.76,5.9,5.9,0,0,1,2.75-.63,5.33,5.33,0,0,1,2.65.63,3.72,3.72,0,0,1,1.65,1.81l-2.15,1.16a2.36,2.36,0,0,0-2.16-1.32,2.44,2.44,0,0,0-1.8.71,2.63,2.63,0,0,0-.72,2,2.6,2.6,0,0,0,.72,1.94,2.41,2.41,0,0,0,1.8.72,2.34,2.34,0,0,0,2.16-1.32l2.15,1.18a3.79,3.79,0,0,1-1.65,1.78,5.23,5.23,0,0,1-2.65.64A5.9,5.9,0,0,1,228.89,106.4Z"/><path class="cls-2" d="M244.85,98.21a4.08,4.08,0,0,1,1.19,3.2v5.48h-2.6v-1.2a3.12,3.12,0,0,1-2.93,1.34,4.54,4.54,0,0,1-1.92-.37,2.91,2.91,0,0,1-1.24-1,2.73,2.73,0,0,1-.42-1.5,2.49,2.49,0,0,1,1-2.1,5.17,5.17,0,0,1,3.12-.77h2.21a1.77,1.77,0,0,0-.55-1.4,2.44,2.44,0,0,0-1.66-.49,4.87,4.87,0,0,0-1.51.24,4.16,4.16,0,0,0-1.26.65l-1-1.94a6,6,0,0,1,1.89-.86,8.48,8.48,0,0,1,2.25-.3A5,5,0,0,1,244.85,98.21Zm-2.38,6.62a1.86,1.86,0,0,0,.79-1v-1h-1.91c-1.14,0-1.71.38-1.71,1.13a1,1,0,0,0,.42.85,1.94,1.94,0,0,0,1.15.31A2.39,2.39,0,0,0,242.47,104.83Z"/><path class="cls-2" d="M252.56,97.5a5.19,5.19,0,0,1,2-.35v2.57c-.31,0-.52,0-.63,0a2.54,2.54,0,0,0-1.87.67,2.71,2.71,0,0,0-.68,2v4.53h-2.78v-9.6h2.66v1.27A3.07,3.07,0,0,1,252.56,97.5Z"/><path class="cls-2" d="M265.44,102.87h-7.27a2.27,2.27,0,0,0,.93,1.41,3.06,3.06,0,0,0,1.82.52,3.64,3.64,0,0,0,1.33-.22,3.21,3.21,0,0,0,1.08-.71l1.48,1.61a5,5,0,0,1-4,1.55,6.28,6.28,0,0,1-2.87-.63,4.64,4.64,0,0,1-1.93-1.76,4.86,4.86,0,0,1-.68-2.55,4.94,4.94,0,0,1,.67-2.54,4.67,4.67,0,0,1,1.84-1.77,5.72,5.72,0,0,1,5.16,0,4.5,4.5,0,0,1,1.8,1.74,5.26,5.26,0,0,1,.65,2.63S265.47,102.41,265.44,102.87Zm-6.52-3.08a2.26,2.26,0,0,0-.78,1.46h4.73a2.31,2.31,0,0,0-2.36-2A2.39,2.39,0,0,0,258.92,99.79Z"/><path class="cls-2" d="M276.69,102.87h-7.26a2.23,2.23,0,0,0,.93,1.41,3,3,0,0,0,1.82.52,3.67,3.67,0,0,0,1.33-.22,3.21,3.21,0,0,0,1.08-.71l1.48,1.61a5,5,0,0,1-4,1.55,6.28,6.28,0,0,1-2.87-.63,4.58,4.58,0,0,1-1.93-1.76,5.14,5.14,0,0,1,0-5.09,4.67,4.67,0,0,1,1.84-1.77,5.72,5.72,0,0,1,5.16,0,4.56,4.56,0,0,1,1.8,1.74,5.26,5.26,0,0,1,.65,2.63S276.73,102.41,276.69,102.87Zm-6.51-3.08a2.22,2.22,0,0,0-.78,1.46h4.72a2.24,2.24,0,0,0-.78-1.45,2.31,2.31,0,0,0-1.57-.55A2.39,2.39,0,0,0,270.18,99.79Z"/><path class="cls-2" d="M282.61,97.5a5.1,5.1,0,0,1,1.95-.35v2.57c-.31,0-.52,0-.62,0a2.56,2.56,0,0,0-1.88.67,2.71,2.71,0,0,0-.67,2v4.53H278.6v-9.6h2.66v1.27A3,3,0,0,1,282.61,97.5Z"/><path class="cls-2" d="M298.64,98.21a4.08,4.08,0,0,1,1.19,3.2v5.48h-2.6v-1.2A3.11,3.11,0,0,1,294.3,107a4.6,4.6,0,0,1-1.92-.37,2.91,2.91,0,0,1-1.24-1,2.73,2.73,0,0,1-.42-1.5,2.49,2.49,0,0,1,1-2.1,5.17,5.17,0,0,1,3.12-.77h2.21a1.77,1.77,0,0,0-.55-1.4,2.42,2.42,0,0,0-1.66-.49,4.87,4.87,0,0,0-1.51.24,4.16,4.16,0,0,0-1.26.65l-1-1.94a6,6,0,0,1,1.89-.86,8.48,8.48,0,0,1,2.25-.3A5,5,0,0,1,298.64,98.21Zm-2.37,6.62a1.84,1.84,0,0,0,.78-1v-1h-1.91c-1.14,0-1.71.38-1.71,1.13a1,1,0,0,0,.42.85,1.94,1.94,0,0,0,1.15.31A2.45,2.45,0,0,0,296.27,104.83Z"/><path class="cls-2" d="M303.24,106.74a6.41,6.41,0,0,1-1.82-.74l.93-2a5.84,5.84,0,0,0,1.55.67,6.62,6.62,0,0,0,1.79.26c1.17,0,1.76-.3,1.76-.88a.62.62,0,0,0-.48-.59,6.82,6.82,0,0,0-1.48-.3,15.46,15.46,0,0,1-1.95-.41,3.13,3.13,0,0,1-1.33-.82,2.35,2.35,0,0,1-.56-1.68,2.64,2.64,0,0,1,.53-1.61,3.37,3.37,0,0,1,1.53-1.1,6.65,6.65,0,0,1,2.39-.39,9.26,9.26,0,0,1,2,.22,5.5,5.5,0,0,1,1.67.62l-.93,2a5.49,5.49,0,0,0-2.76-.72,2.87,2.87,0,0,0-1.34.25.74.74,0,0,0-.45.64.64.64,0,0,0,.48.63,8.78,8.78,0,0,0,1.54.34,16.07,16.07,0,0,1,1.92.42,3,3,0,0,1,1.31.81,2.29,2.29,0,0,1,.55,1.64,2.58,2.58,0,0,1-.53,1.59,3.49,3.49,0,0,1-1.57,1.08,7,7,0,0,1-2.43.38A9.61,9.61,0,0,1,303.24,106.74Z"/><path class="cls-2" d="M324.17,98.21a4.08,4.08,0,0,1,1.19,3.2v5.48h-2.6v-1.2a3.11,3.11,0,0,1-2.93,1.34,4.52,4.52,0,0,1-1.91-.37,2.88,2.88,0,0,1-1.25-1,2.73,2.73,0,0,1-.42-1.5,2.49,2.49,0,0,1,1-2.1,5.17,5.17,0,0,1,3.12-.77h2.21a1.77,1.77,0,0,0-.55-1.4,2.42,2.42,0,0,0-1.66-.49,4.87,4.87,0,0,0-1.51.24,4.16,4.16,0,0,0-1.26.65l-1-1.94a6,6,0,0,1,1.89-.86,8.48,8.48,0,0,1,2.25-.3A5,5,0,0,1,324.17,98.21Zm-2.37,6.62a1.84,1.84,0,0,0,.78-1v-1h-1.91c-1.14,0-1.71.38-1.71,1.13a1,1,0,0,0,.42.85,1.94,1.94,0,0,0,1.15.31A2.45,2.45,0,0,0,321.8,104.83Z"/><path class="cls-2" d="M11,118.7v8a5.13,5.13,0,0,1-1.37,3.93,5.7,5.7,0,0,1-4,1.28A9.85,9.85,0,0,1,3,131.56a5.66,5.66,0,0,1-2.08-1l1.11-2a4.57,4.57,0,0,0,1.54.8,6.21,6.21,0,0,0,1.85.29A3,3,0,0,0,7.55,129a2.58,2.58,0,0,0,.69-2v-.41a3.89,3.89,0,0,1-3,1.19,5.06,5.06,0,0,1-2.42-.58,4.4,4.4,0,0,1-1.74-1.63,4.91,4.91,0,0,1,0-4.85,4.4,4.4,0,0,1,1.74-1.63,5.06,5.06,0,0,1,2.42-.58,3.81,3.81,0,0,1,3.17,1.37V118.7Zm-3.45,6.2a2.4,2.4,0,0,0,0-3.41,2.57,2.57,0,0,0-1.81-.65,2.62,2.62,0,0,0-1.82.65,2.4,2.4,0,0,0,0,3.41,2.62,2.62,0,0,0,1.82.65A2.57,2.57,0,0,0,7.57,124.9Z"/><path class="cls-2" d="M17.62,118.91a5.1,5.1,0,0,1,1.95-.35v2.57c-.31,0-.52,0-.62,0a2.54,2.54,0,0,0-1.88.67,2.73,2.73,0,0,0-.68,2v4.53H13.61v-9.6h2.66V120A3,3,0,0,1,17.62,118.91Z"/><path class="cls-2" d="M28.47,119.62a4,4,0,0,1,1.2,3.2v5.48H27.06v-1.2a3.08,3.08,0,0,1-2.92,1.34,4.54,4.54,0,0,1-1.92-.37A2.85,2.85,0,0,1,21,127a2.66,2.66,0,0,1-.43-1.5,2.5,2.5,0,0,1,1-2.1,5.14,5.14,0,0,1,3.11-.77h2.21a1.77,1.77,0,0,0-.55-1.4,2.42,2.42,0,0,0-1.66-.49,4.91,4.91,0,0,0-1.51.24,4,4,0,0,0-1.25.65l-1-1.94a5.92,5.92,0,0,1,1.88-.86,8.5,8.5,0,0,1,2.26-.3A5,5,0,0,1,28.47,119.62Zm-2.37,6.62a1.8,1.8,0,0,0,.78-1v-1H25c-1.15,0-1.72.38-1.72,1.13a1,1,0,0,0,.42.85,1.94,1.94,0,0,0,1.15.31A2.43,2.43,0,0,0,26.1,126.24Z"/><path class="cls-2" d="M40.29,119.17A4.4,4.4,0,0,1,42,120.9a5.68,5.68,0,0,1,0,5.2,4.4,4.4,0,0,1-1.72,1.73,4.87,4.87,0,0,1-2.43.61A3.67,3.67,0,0,1,35,127.28v4.48H32.18V118.7h2.66v1.11a3.68,3.68,0,0,1,3-1.25A4.87,4.87,0,0,1,40.29,119.17Zm-1.16,6.27a3.07,3.07,0,0,0,0-3.88,2.5,2.5,0,0,0-3.51,0,3.07,3.07,0,0,0,0,3.88,2.5,2.5,0,0,0,3.51,0Z"/><path class="cls-2" d="M53.21,119.63a4.24,4.24,0,0,1,1.1,3.17v5.5H51.52v-5.07a2.45,2.45,0,0,0-.5-1.7,1.8,1.8,0,0,0-1.44-.56,2.21,2.21,0,0,0-1.68.65,2.67,2.67,0,0,0-.62,1.93v4.75H44.49V115.06h2.79v4.64a3.7,3.7,0,0,1,1.34-.85,5,5,0,0,1,1.71-.29A3.92,3.92,0,0,1,53.21,119.63Z"/><path class="cls-2" d="M57,116.92a1.52,1.52,0,0,1,0-2.22,1.82,1.82,0,0,1,1.25-.44,1.79,1.79,0,0,1,1.25.43,1.36,1.36,0,0,1,.48,1.07,1.53,1.53,0,0,1-.48,1.15,1.76,1.76,0,0,1-1.25.45A1.82,1.82,0,0,1,57,116.92Zm-.14,1.78H59.6v9.6H56.82Z"/><path class="cls-2" d="M64.07,127.81a4.68,4.68,0,0,1-1.9-1.76,5.06,5.06,0,0,1,0-5.1,4.68,4.68,0,0,1,1.9-1.76,6,6,0,0,1,2.76-.63,5.38,5.38,0,0,1,2.65.63A3.72,3.72,0,0,1,71.13,121L69,122.16a2.36,2.36,0,0,0-2.16-1.32,2.47,2.47,0,0,0-1.8.71,2.67,2.67,0,0,0-.71,2,2.63,2.63,0,0,0,.71,1.94,2.44,2.44,0,0,0,1.8.72A2.34,2.34,0,0,0,69,124.84L71.13,126a3.79,3.79,0,0,1-1.65,1.78,5.28,5.28,0,0,1-2.65.64A6,6,0,0,1,64.07,127.81Z"/><path class="cls-2" d="M87.56,115.06V128.3H84.9v-1.11a3.65,3.65,0,0,1-3,1.25,4.93,4.93,0,0,1-2.46-.61,4.34,4.34,0,0,1-1.72-1.73,5.18,5.18,0,0,1-.62-2.6,5.25,5.25,0,0,1,.62-2.61,4.47,4.47,0,0,1,1.72-1.73,5,5,0,0,1,2.46-.6,3.63,3.63,0,0,1,2.87,1.16v-4.66Zm-3.42,10.38a3.07,3.07,0,0,0,0-3.88,2.51,2.51,0,0,0-3.52,0,3.07,3.07,0,0,0,0,3.88,2.51,2.51,0,0,0,3.52,0Z"/><path class="cls-2" d="M99.48,124.28H92.22a2.23,2.23,0,0,0,.93,1.41,3,3,0,0,0,1.81.52,3.64,3.64,0,0,0,1.33-.22,3.21,3.21,0,0,0,1.08-.71l1.48,1.61a5,5,0,0,1-4,1.55,6.28,6.28,0,0,1-2.87-.63,4.7,4.7,0,0,1-1.93-1.76,5.17,5.17,0,0,1,0-5.09,4.58,4.58,0,0,1,1.83-1.77,5.74,5.74,0,0,1,5.17,0,4.47,4.47,0,0,1,1.79,1.74,5.17,5.17,0,0,1,.65,2.64S99.51,123.82,99.48,124.28ZM93,121.2a2.27,2.27,0,0,0-.79,1.46h4.73a2.31,2.31,0,0,0-2.36-2A2.37,2.37,0,0,0,93,121.2Z"/><path class="cls-2" d="M102.28,128.15a6.41,6.41,0,0,1-1.82-.74l.93-2a5.84,5.84,0,0,0,1.55.67,6.61,6.61,0,0,0,1.78.26c1.18,0,1.77-.3,1.77-.88a.62.62,0,0,0-.48-.59,7,7,0,0,0-1.48-.3,15.08,15.08,0,0,1-2-.41,3.13,3.13,0,0,1-1.33-.82,2.35,2.35,0,0,1-.56-1.68,2.64,2.64,0,0,1,.53-1.61,3.37,3.37,0,0,1,1.53-1.1,6.6,6.6,0,0,1,2.38-.39,9.28,9.28,0,0,1,2,.22,5.5,5.5,0,0,1,1.67.62l-.93,2a5.5,5.5,0,0,0-2.77-.72,2.85,2.85,0,0,0-1.33.25.74.74,0,0,0-.45.64.64.64,0,0,0,.48.63,8.78,8.78,0,0,0,1.54.34,16.07,16.07,0,0,1,1.92.42,3,3,0,0,1,1.31.81,2.34,2.34,0,0,1,.55,1.64,2.53,2.53,0,0,1-.54,1.59,3.41,3.41,0,0,1-1.56,1.08,7,7,0,0,1-2.43.38A9.61,9.61,0,0,1,102.28,128.15Z"/><path class="cls-2" d="M111,116.92a1.52,1.52,0,0,1,0-2.22,1.82,1.82,0,0,1,1.25-.44,1.79,1.79,0,0,1,1.25.43,1.36,1.36,0,0,1,.48,1.07,1.53,1.53,0,0,1-.48,1.15,1.76,1.76,0,0,1-1.25.45A1.82,1.82,0,0,1,111,116.92Zm-.14,1.78h2.78v9.6h-2.78Z"/><path class="cls-2" d="M126.13,118.7v8a5.13,5.13,0,0,1-1.37,3.93,5.7,5.7,0,0,1-4,1.28,9.85,9.85,0,0,1-2.64-.34,5.54,5.54,0,0,1-2.07-1l1.1-2a4.57,4.57,0,0,0,1.54.8,6.21,6.21,0,0,0,1.85.29,3,3,0,0,0,2.13-.65,2.58,2.58,0,0,0,.69-2v-.41a3.89,3.89,0,0,1-3,1.19,5.06,5.06,0,0,1-2.42-.58,4.4,4.4,0,0,1-1.74-1.63,4.91,4.91,0,0,1,0-4.85,4.4,4.4,0,0,1,1.74-1.63,5.06,5.06,0,0,1,2.42-.58,3.81,3.81,0,0,1,3.17,1.37V118.7Zm-3.45,6.2a2.4,2.4,0,0,0,0-3.41,2.57,2.57,0,0,0-1.81-.65,2.62,2.62,0,0,0-1.82.65,2.4,2.4,0,0,0,0,3.41,2.62,2.62,0,0,0,1.82.65A2.57,2.57,0,0,0,122.68,124.9Z"/><path class="cls-2" d="M137.44,119.63a4.23,4.23,0,0,1,1.09,3.17v5.5h-2.78v-5.07a2.5,2.5,0,0,0-.5-1.7,1.8,1.8,0,0,0-1.44-.56,2.18,2.18,0,0,0-1.68.65,2.67,2.67,0,0,0-.63,1.93v4.75h-2.78v-9.6h2.66v1.12a3.78,3.78,0,0,1,1.37-.93,4.82,4.82,0,0,1,1.81-.33A3.93,3.93,0,0,1,137.44,119.63Z"/><path class="cls-2" d="M150.51,124.28h-7.27a2.27,2.27,0,0,0,.93,1.41,3.06,3.06,0,0,0,1.82.52,3.67,3.67,0,0,0,1.33-.22,3.21,3.21,0,0,0,1.08-.71l1.48,1.61a5,5,0,0,1-4,1.55,6.28,6.28,0,0,1-2.87-.63,4.58,4.58,0,0,1-1.93-1.76,4.86,4.86,0,0,1-.68-2.55,4.94,4.94,0,0,1,.67-2.54,4.67,4.67,0,0,1,1.84-1.77,5.72,5.72,0,0,1,5.16,0,4.5,4.5,0,0,1,1.8,1.74,5.27,5.27,0,0,1,.65,2.64S150.54,123.82,150.51,124.28ZM144,121.2a2.26,2.26,0,0,0-.78,1.46h4.73a2.31,2.31,0,0,0-2.36-2A2.39,2.39,0,0,0,144,121.2Z"/><path class="cls-2" d="M156.42,118.91a5.14,5.14,0,0,1,2-.35v2.57c-.31,0-.51,0-.62,0a2.52,2.52,0,0,0-1.87.67,2.69,2.69,0,0,0-.68,2v4.53h-2.79v-9.6h2.66V120A3.1,3.1,0,0,1,156.42,118.91Z"/><path class="cls-2" d="M159.75,127.94a1.67,1.67,0,0,1-.5-1.25,1.61,1.61,0,0,1,.5-1.24,1.84,1.84,0,0,1,2.46,0,1.65,1.65,0,0,1,.5,1.24,1.7,1.7,0,0,1-.5,1.25,1.76,1.76,0,0,1-2.46,0Z"/></g></g></svg>