<svg xmlns="http://www.w3.org/2000/svg" viewBox="0 0 337.69 130.12"><defs><style>.cls-1{fill:#ff9492;}.cls-2{fill:#534d72;}</style></defs><title>Asset 49</title><g id="Layer_2" data-name="Layer 2"><g id="Layer_8" data-name="Layer 8"><path class="cls-1" d="M9.46,7.1H.32V1.71H25.2V7.1H16.06V30.26H9.46Z"/><path class="cls-1" d="M49.24,10.44q2.5,2.45,2.51,7.26V30.26H45.39V18.68a5.75,5.75,0,0,0-1.15-3.9,4.2,4.2,0,0,0-3.3-1.28A5,5,0,0,0,37.11,15a6.15,6.15,0,0,0-1.43,4.42V30.26H29.32V0h6.36V10.6a8.32,8.32,0,0,1,3.06-1.93A11,11,0,0,1,42.65,8,9,9,0,0,1,49.24,10.44Z"/><path class="cls-1" d="M80.13,21.08H63.53a5.16,5.16,0,0,0,2.12,3.22,7,7,0,0,0,4.16,1.19,8.42,8.42,0,0,0,3-.51,7.45,7.45,0,0,0,2.47-1.61L78.7,27q-3.09,3.54-9,3.54a14.41,14.41,0,0,1-6.57-1.44,10.66,10.66,0,0,1-4.4-4,11.1,11.1,0,0,1-1.55-5.83,11.21,11.21,0,0,1,1.53-5.81,10.74,10.74,0,0,1,4.2-4,13,13,0,0,1,11.81-.06,10.11,10.11,0,0,1,4.09,4,11.85,11.85,0,0,1,1.49,6Q80.25,19.49,80.13,21.08ZM65.24,14a5.24,5.24,0,0,0-1.79,3.34H74.26a5.28,5.28,0,0,0-1.8-3.32,5.36,5.36,0,0,0-3.59-1.25A5.47,5.47,0,0,0,65.24,14Z"/><path class="cls-1" d="M123.31,18a7.11,7.11,0,0,1,1.39,4.47,6.61,6.61,0,0,1-2.91,5.77c-2,1.35-4.78,2-8.51,2H98.52V1.71h14q5.22,0,8,2a6.32,6.32,0,0,1,2.79,5.42,6.87,6.87,0,0,1-3.79,6.29A7.45,7.45,0,0,1,123.31,18ZM105.09,6.69v6.73h6.56a6.63,6.63,0,0,0,3.71-.86A2.84,2.84,0,0,0,116.63,10a2.81,2.81,0,0,0-1.27-2.51,6.82,6.82,0,0,0-3.71-.83Zm11.64,17.74a2.94,2.94,0,0,0,1.32-2.65q0-3.55-5.26-3.55h-7.7v7.05h7.7A7.37,7.37,0,0,0,116.73,24.43Z"/><path class="cls-1" d="M147,10.42q2.73,2.43,2.73,7.32V30.26h-5.95V27.53c-1.2,2-3.43,3-6.69,3a10.42,10.42,0,0,1-4.39-.85,6.53,6.53,0,0,1-2.83-2.37,6.14,6.14,0,0,1-1-3.42,5.71,5.71,0,0,1,2.3-4.81q2.31-1.75,7.12-1.76h5.06a4,4,0,0,0-1.27-3.2,5.54,5.54,0,0,0-3.79-1.12,11,11,0,0,0-3.45.55A9.16,9.16,0,0,0,132,15.09l-2.28-4.45a13.73,13.73,0,0,1,4.3-2,19,19,0,0,1,5.16-.7Q144.24,8,147,10.42Zm-5.43,15.13a4.15,4.15,0,0,0,1.8-2.22V21.08H139q-3.91,0-3.91,2.57a2.29,2.29,0,0,0,1,1.94,4.28,4.28,0,0,0,2.63.71A5.56,5.56,0,0,0,141.54,25.55Z"/><path class="cls-1" d="M175,9.4a10.14,10.14,0,0,1,3.94,4,11.91,11.91,0,0,1,1.43,5.93,11.94,11.94,0,0,1-1.43,5.93,10.14,10.14,0,0,1-3.94,4,11.12,11.12,0,0,1-5.56,1.4,8.46,8.46,0,0,1-6.9-2.85v2.53h-6.07V0h6.36V10.64A8.5,8.5,0,0,1,169.44,8,11.13,11.13,0,0,1,175,9.4Zm-2.65,14.31a6.13,6.13,0,0,0,1.57-4.42,6.15,6.15,0,0,0-1.57-4.43,5.71,5.71,0,0,0-8,0,6.15,6.15,0,0,0-1.57,4.43,6.13,6.13,0,0,0,1.57,4.42,5.69,5.69,0,0,0,8,0Z"/><path class="cls-1" d="M206.79,8.32,196.88,31.6A11.48,11.48,0,0,1,193.15,37a9.16,9.16,0,0,1-5.36,1.55A11.31,11.31,0,0,1,184.4,38a7.71,7.71,0,0,1-2.73-1.47L184,32a5.6,5.6,0,0,0,3.58,1.39,3.36,3.36,0,0,0,2.12-.63,5.38,5.38,0,0,0,1.47-2.1l.08-.21-9.5-22.1h6.57l6.16,14.88,6.19-14.88Z"/><path class="cls-1" d="M237.13,20.15V30.26h-6.61V20.06L219.47,1.71h7l7.62,12.69,7.63-12.69h6.48Z"/><path class="cls-1" d="M270.49,21.08h-16.6A5.16,5.16,0,0,0,256,24.3a7,7,0,0,0,4.16,1.19,8.42,8.42,0,0,0,3-.51,7.45,7.45,0,0,0,2.47-1.61L269.06,27Q266,30.58,260,30.58a14.38,14.38,0,0,1-6.57-1.44,10.66,10.66,0,0,1-4.4-4,11,11,0,0,1-1.55-5.83A11.21,11.21,0,0,1,249,13.48a10.74,10.74,0,0,1,4.2-4A13,13,0,0,1,265,9.38a10.07,10.07,0,0,1,4.1,4,11.85,11.85,0,0,1,1.49,6Q270.61,19.49,270.49,21.08ZM255.6,14a5.19,5.19,0,0,0-1.79,3.34h10.81a5.28,5.28,0,0,0-1.8-3.32,5.36,5.36,0,0,0-3.59-1.25A5.47,5.47,0,0,0,255.6,14Z"/><path class="cls-1" d="M291.94,10.42q2.73,2.43,2.73,7.32V30.26h-5.95V27.53c-1.2,2-3.43,3-6.69,3a10.34,10.34,0,0,1-4.38-.85,6.5,6.5,0,0,1-2.84-2.37,6.14,6.14,0,0,1-1-3.42,5.69,5.69,0,0,1,2.31-4.81q2.3-1.75,7.11-1.76h5.06a4,4,0,0,0-1.27-3.2,5.54,5.54,0,0,0-3.79-1.12,10.91,10.91,0,0,0-3.44.55,9.11,9.11,0,0,0-2.88,1.49l-2.28-4.45a13.73,13.73,0,0,1,4.3-2,19,19,0,0,1,5.16-.7Q289.21,8,291.94,10.42Zm-5.43,15.13a4.11,4.11,0,0,0,1.8-2.22V21.08H284q-3.92,0-3.92,2.57a2.29,2.29,0,0,0,1,1.94,4.28,4.28,0,0,0,2.63.71A5.53,5.53,0,0,0,286.51,25.55Z"/><path class="cls-1" d="M310.59,8.81A11.57,11.57,0,0,1,315.06,8v5.88c-.71-.06-1.18-.09-1.43-.09a5.82,5.82,0,0,0-4.28,1.53,6.2,6.2,0,0,0-1.55,4.59V30.26h-6.36V8.32h6.08v2.89A7,7,0,0,1,310.59,8.81Z"/><path class="cls-1" d="M322,29.91a14.07,14.07,0,0,1-4.16-1.69L320,23.65a13,13,0,0,0,3.54,1.53,14.69,14.69,0,0,0,4.08.59q4,0,4-2a1.42,1.42,0,0,0-1.1-1.35,16.65,16.65,0,0,0-3.39-.69,34.57,34.57,0,0,1-4.44-.94,6.81,6.81,0,0,1-3-1.88,5.3,5.3,0,0,1-1.29-3.83,5.94,5.94,0,0,1,1.21-3.69,7.71,7.71,0,0,1,3.5-2.51,15,15,0,0,1,5.45-.9,21.39,21.39,0,0,1,4.63.51A13,13,0,0,1,337,9.91l-2.12,4.53a12.65,12.65,0,0,0-6.32-1.64,6.43,6.43,0,0,0-3.06.58,1.68,1.68,0,0,0-1,1.46,1.46,1.46,0,0,0,1.1,1.43,20.09,20.09,0,0,0,3.51.78,37.93,37.93,0,0,1,4.4.95,6.61,6.61,0,0,1,3,1.86,5.28,5.28,0,0,1,1.26,3.75,5.76,5.76,0,0,1-1.22,3.63,7.8,7.8,0,0,1-3.57,2.47,16,16,0,0,1-5.56.87A21.26,21.26,0,0,1,322,29.91Z"/><path class="cls-2" d="M9.87,63.07H4.07L3,65.74H0L5.57,53.26H8.42L14,65.74H11ZM9,60.87,7,56.09,5,60.87Z"/><path class="cls-2" d="M21.05,65.59a5.87,5.87,0,0,1-1.82-.74l.93-2a5.66,5.66,0,0,0,1.55.67,6.25,6.25,0,0,0,1.79.26c1.17,0,1.76-.29,1.76-.87a.62.62,0,0,0-.48-.59A6.82,6.82,0,0,0,23.3,62a15.46,15.46,0,0,1-1.95-.41A3,3,0,0,1,20,60.79a2.34,2.34,0,0,1-.57-1.68A2.64,2.64,0,0,1,20,57.49a3.35,3.35,0,0,1,1.53-1.09,6.43,6.43,0,0,1,2.39-.4,9.27,9.27,0,0,1,2,.23,5.78,5.78,0,0,1,1.67.61l-.93,2a5.56,5.56,0,0,0-2.76-.71,2.77,2.77,0,0,0-1.34.25.74.74,0,0,0-.45.64.62.62,0,0,0,.48.62,7.94,7.94,0,0,0,1.54.34,18.58,18.58,0,0,1,1.93.42,2.91,2.91,0,0,1,1.3.82,2.28,2.28,0,0,1,.55,1.64,2.55,2.55,0,0,1-.53,1.58,3.35,3.35,0,0,1-1.57,1.08,6.8,6.8,0,0,1-2.43.39A9.16,9.16,0,0,1,21.05,65.59Z"/><path class="cls-2" d="M29.78,54.36a1.45,1.45,0,0,1-.49-1.1,1.47,1.47,0,0,1,.49-1.11A1.73,1.73,0,0,1,31,51.7a1.82,1.82,0,0,1,1.25.43,1.39,1.39,0,0,1,.49,1.07,1.51,1.51,0,0,1-.49,1.15,1.71,1.71,0,0,1-1.25.46A1.73,1.73,0,0,1,29.78,54.36Zm-.15,1.79h2.79v9.59H29.63Z"/><path class="cls-2" d="M50.16,57.06a4.33,4.33,0,0,1,1.06,3.19v5.49H48.44V60.68A2.6,2.6,0,0,0,48,59a1.66,1.66,0,0,0-1.34-.56,2,2,0,0,0-1.55.63,2.72,2.72,0,0,0-.57,1.89v4.81H41.71V60.68c0-1.51-.6-2.27-1.82-2.27a2,2,0,0,0-1.53.63,2.77,2.77,0,0,0-.57,1.89v4.81H35V56.15h2.66v1.1A3.73,3.73,0,0,1,39,56.32,4.53,4.53,0,0,1,40.68,56a4.2,4.2,0,0,1,1.83.4,3.25,3.25,0,0,1,1.32,1.17,4.06,4.06,0,0,1,1.49-1.16,4.77,4.77,0,0,1,2-.41A3.9,3.9,0,0,1,50.16,57.06Z"/><path class="cls-2" d="M61.83,56.62a4.47,4.47,0,0,1,1.72,1.73,5.74,5.74,0,0,1,0,5.19,4.4,4.4,0,0,1-1.72,1.73,4.89,4.89,0,0,1-2.44.62,3.72,3.72,0,0,1-2.89-1.16v4.48H53.72V56.15h2.66v1.1a3.69,3.69,0,0,1,3-1.25A4.89,4.89,0,0,1,61.83,56.62Zm-1.16,6.26a3.06,3.06,0,0,0,0-3.87,2.51,2.51,0,0,0-3.52,0,3.09,3.09,0,0,0,0,3.87,2.51,2.51,0,0,0,3.52,0Z"/><path class="cls-2" d="M66,52.51h2.78V65.74H66Z"/><path class="cls-2" d="M80.75,61.73H73.49a2.25,2.25,0,0,0,.93,1.41,3.07,3.07,0,0,0,1.81.52,3.63,3.63,0,0,0,1.33-.23,3,3,0,0,0,1.08-.7l1.48,1.6a5,5,0,0,1-4,1.56,6.16,6.16,0,0,1-2.87-.64,4.68,4.68,0,0,1-1.93-1.75A4.86,4.86,0,0,1,70.69,61a4.91,4.91,0,0,1,.67-2.55,4.63,4.63,0,0,1,1.83-1.76A5.32,5.32,0,0,1,75.81,56a5.4,5.4,0,0,1,2.55.61,4.35,4.35,0,0,1,1.79,1.74A5.23,5.23,0,0,1,80.8,61S80.78,61.27,80.75,61.73Zm-6.51-3.09a2.32,2.32,0,0,0-.79,1.47h4.73a2.29,2.29,0,0,0-2.36-2A2.41,2.41,0,0,0,74.24,58.64Z"/><path class="cls-2" d="M93.9,65.28a3.14,3.14,0,0,1-1,.46,5.18,5.18,0,0,1-1.26.15A3.72,3.72,0,0,1,89,65a3.36,3.36,0,0,1-.93-2.57V58.5H86.56V56.36h1.49V54h2.78v2.34h2.39V58.5H90.83v3.91a1.33,1.33,0,0,0,.31.94,1.15,1.15,0,0,0,.88.32,1.79,1.79,0,0,0,1.13-.35Z"/><path class="cls-2" d="M95.61,54.36a1.44,1.44,0,0,1-.48-1.1,1.46,1.46,0,0,1,.48-1.11,1.76,1.76,0,0,1,1.25-.45,1.84,1.84,0,0,1,1.25.43,1.38,1.38,0,0,1,.48,1.07,1.5,1.5,0,0,1-.48,1.15,1.72,1.72,0,0,1-1.25.46A1.76,1.76,0,0,1,95.61,54.36Zm-.14,1.79h2.78v9.59H95.47Z"/><path class="cls-2" d="M116,57.06a4.33,4.33,0,0,1,1.06,3.19v5.49h-2.78V60.68A2.66,2.66,0,0,0,113.8,59a1.69,1.69,0,0,0-1.35-.56,2,2,0,0,0-1.55.63,2.77,2.77,0,0,0-.57,1.89v4.81h-2.78V60.68c0-1.51-.61-2.27-1.82-2.27a2,2,0,0,0-1.54.63,2.77,2.77,0,0,0-.57,1.89v4.81h-2.78V56.15h2.66v1.1a3.55,3.55,0,0,1,1.31-.93,4.44,4.44,0,0,1,1.7-.32,4.25,4.25,0,0,1,1.84.4,3.25,3.25,0,0,1,1.32,1.17,4,4,0,0,1,1.49-1.16,4.76,4.76,0,0,1,2-.41A3.88,3.88,0,0,1,116,57.06Z"/><path class="cls-2" d="M129,61.73h-7.26a2.25,2.25,0,0,0,.93,1.41,3.08,3.08,0,0,0,1.82.52,3.58,3.58,0,0,0,1.32-.23,3,3,0,0,0,1.08-.7l1.48,1.6a5,5,0,0,1-4,1.56,6.16,6.16,0,0,1-2.87-.64,4.68,4.68,0,0,1-1.93-1.75A4.86,4.86,0,0,1,119,61a4.91,4.91,0,0,1,.67-2.55,4.63,4.63,0,0,1,1.83-1.76,5.32,5.32,0,0,1,2.62-.64,5.4,5.4,0,0,1,2.55.61,4.35,4.35,0,0,1,1.79,1.74,5.13,5.13,0,0,1,.65,2.63S129,61.27,129,61.73Zm-6.51-3.09a2.32,2.32,0,0,0-.79,1.47h4.73a2.27,2.27,0,0,0-2.36-2A2.43,2.43,0,0,0,122.5,58.64Z"/><path class="cls-2" d="M151.38,56.15l-3.48,9.59h-2.67l-2.16-5.95-2.23,5.95h-2.68l-3.46-9.59h2.62l2.27,6.49,2.35-6.49h2.36l2.28,6.49,2.34-6.49Z"/><path class="cls-2" d="M161.4,57.07a4.28,4.28,0,0,1,1.1,3.18v5.49h-2.79V60.68a2.5,2.5,0,0,0-.5-1.71,1.83,1.83,0,0,0-1.44-.56,2.24,2.24,0,0,0-1.68.65,2.69,2.69,0,0,0-.62,1.94v4.74h-2.79V52.51h2.79v4.63a3.68,3.68,0,0,1,1.34-.84,4.73,4.73,0,0,1,1.71-.3A4,4,0,0,1,161.4,57.07Z"/><path class="cls-2" d="M174.47,61.73h-7.26a2.28,2.28,0,0,0,.92,1.41,3.13,3.13,0,0,0,1.82.52,3.63,3.63,0,0,0,1.33-.23,3,3,0,0,0,1.08-.7l1.48,1.6a5,5,0,0,1-4,1.56,6.16,6.16,0,0,1-2.87-.64,4.68,4.68,0,0,1-1.93-1.75,4.86,4.86,0,0,1-.67-2.55,5,5,0,0,1,.66-2.55,4.72,4.72,0,0,1,1.84-1.76,5.32,5.32,0,0,1,2.62-.64,5.43,5.43,0,0,1,2.55.61,4.35,4.35,0,0,1,1.79,1.74,5.23,5.23,0,0,1,.65,2.63S174.5,61.27,174.47,61.73ZM168,58.64a2.32,2.32,0,0,0-.79,1.47h4.73a2.29,2.29,0,0,0-2.36-2A2.39,2.39,0,0,0,168,58.64Z"/><path class="cls-2" d="M185.09,57.07a4.28,4.28,0,0,1,1.1,3.18v5.49h-2.78V60.68a2.55,2.55,0,0,0-.5-1.71,1.87,1.87,0,0,0-1.45-.56,2.24,2.24,0,0,0-1.68.65,2.74,2.74,0,0,0-.62,1.94v4.74h-2.78V56.15H179v1.12a3.64,3.64,0,0,1,1.37-.94,4.8,4.8,0,0,1,1.8-.33A4,4,0,0,1,185.09,57.07Z"/><path class="cls-2" d="M203.1,61.73h-7.26a2.25,2.25,0,0,0,.93,1.41,3.11,3.11,0,0,0,1.82.52,3.67,3.67,0,0,0,1.33-.23,3.22,3.22,0,0,0,1.08-.7l1.48,1.6a5,5,0,0,1-4,1.56,6.2,6.2,0,0,1-2.88-.64,4.59,4.59,0,0,1-1.92-1.75,5.15,5.15,0,0,1,0-5.1,4.65,4.65,0,0,1,1.84-1.76,5.31,5.31,0,0,1,2.61-.64,5.4,5.4,0,0,1,2.55.61,4.35,4.35,0,0,1,1.79,1.74,5.14,5.14,0,0,1,.66,2.63S203.14,61.27,203.1,61.73Zm-6.51-3.09a2.32,2.32,0,0,0-.79,1.47h4.73a2.29,2.29,0,0,0-.78-1.46,2.36,2.36,0,0,0-1.57-.54A2.44,2.44,0,0,0,196.59,58.64Z"/><path class="cls-2" d="M214.36,56.15l-4.05,9.59h-2.87l-4-9.59h2.87l2.66,6.53,2.74-6.53Z"/><path class="cls-2" d="M224.58,61.73h-7.26a2.25,2.25,0,0,0,.93,1.41,3.11,3.11,0,0,0,1.82.52,3.67,3.67,0,0,0,1.33-.23,3.22,3.22,0,0,0,1.08-.7l1.48,1.6a5,5,0,0,1-4,1.56,6.23,6.23,0,0,1-2.88-.64,4.59,4.59,0,0,1-1.92-1.75,5.15,5.15,0,0,1,0-5.1A4.65,4.65,0,0,1,217,56.64a5.31,5.31,0,0,1,2.61-.64,5.4,5.4,0,0,1,2.55.61,4.43,4.43,0,0,1,1.8,1.74,5.23,5.23,0,0,1,.65,2.63S224.62,61.27,224.58,61.73Zm-6.51-3.09a2.26,2.26,0,0,0-.78,1.47H222a2.29,2.29,0,0,0-.78-1.46,2.36,2.36,0,0,0-1.57-.54A2.44,2.44,0,0,0,218.07,58.64Z"/><path class="cls-2" d="M230.5,56.36a4.92,4.92,0,0,1,1.95-.36v2.57l-.62,0a2.54,2.54,0,0,0-1.88.67,2.69,2.69,0,0,0-.68,2v4.53h-2.78V56.15h2.66v1.26A3.1,3.1,0,0,1,230.5,56.36Z"/><path class="cls-2" d="M244,56.15l-4.34,10.18A5,5,0,0,1,238,68.67a4,4,0,0,1-2.35.68,5,5,0,0,1-1.48-.23,3.22,3.22,0,0,1-1.19-.65l1-2a2.53,2.53,0,0,0,.74.45,2.26,2.26,0,0,0,.83.16,1.45,1.45,0,0,0,.93-.28,2.31,2.31,0,0,0,.64-.91l0-.09L233,56.15h2.87l2.7,6.51,2.71-6.51Z"/><path class="cls-2" d="M254.63,52.51V65.74H252v-1.1a3.68,3.68,0,0,1-3,1.25,4.92,4.92,0,0,1-2.45-.61,4.28,4.28,0,0,1-1.72-1.73,5.7,5.7,0,0,1,0-5.21,4.28,4.28,0,0,1,1.72-1.73A5,5,0,0,1,249,56a3.65,3.65,0,0,1,2.87,1.16V52.51ZM251.2,62.88a3,3,0,0,0,0-3.87,2.5,2.5,0,0,0-3.51,0,3,3,0,0,0,0,3.87,2.5,2.5,0,0,0,3.51,0Z"/><path class="cls-2" d="M264.49,57.06a4.07,4.07,0,0,1,1.2,3.21v5.47h-2.61V64.55a3.1,3.1,0,0,1-2.92,1.34,4.53,4.53,0,0,1-1.92-.38,2.89,2.89,0,0,1-1.24-1,2.66,2.66,0,0,1-.43-1.5,2.53,2.53,0,0,1,1-2.11,5.14,5.14,0,0,1,3.11-.76h2.22a1.76,1.76,0,0,0-.56-1.4,2.42,2.42,0,0,0-1.66-.49,4.91,4.91,0,0,0-1.51.24,3.79,3.79,0,0,0-1.25.65l-1-2a5.91,5.91,0,0,1,1.88-.85,8.11,8.11,0,0,1,2.26-.31A5,5,0,0,1,264.49,57.06Zm-2.37,6.62a1.82,1.82,0,0,0,.79-1v-1H261c-1.15,0-1.72.38-1.72,1.12a1,1,0,0,0,.42.85,1.89,1.89,0,0,0,1.15.31A2.43,2.43,0,0,0,262.12,63.68Z"/><path class="cls-2" d="M277.55,56.15l-4.33,10.18a5,5,0,0,1-1.64,2.34,4,4,0,0,1-2.34.68,5,5,0,0,1-1.48-.23,3.27,3.27,0,0,1-1.2-.65l1-2a2.41,2.41,0,0,0,.74.45,2.26,2.26,0,0,0,.83.16,1.45,1.45,0,0,0,.93-.28,2.31,2.31,0,0,0,.64-.91l0-.09-4.16-9.67h2.87l2.7,6.51,2.71-6.51Z"/><path class="cls-2" d="M299.16,56.15l-3.48,9.59H293l-2.16-5.95-2.23,5.95h-2.67l-3.46-9.59h2.62l2.27,6.49,2.35-6.49h2.36l2.28,6.49,2.34-6.49Z"/><path class="cls-2" d="M307.44,57.06a4.1,4.1,0,0,1,1.19,3.21v5.47H306V64.55a3.12,3.12,0,0,1-2.93,1.34,4.53,4.53,0,0,1-1.92-.38,2.89,2.89,0,0,1-1.24-1,2.74,2.74,0,0,1-.43-1.5,2.53,2.53,0,0,1,1-2.11,5.16,5.16,0,0,1,3.12-.76h2.21a1.76,1.76,0,0,0-.56-1.4,2.39,2.39,0,0,0-1.65-.49,4.82,4.82,0,0,0-1.51.24,3.85,3.85,0,0,0-1.26.65l-1-2a5.91,5.91,0,0,1,1.88-.85A8.22,8.22,0,0,1,304,56,5,5,0,0,1,307.44,57.06Zm-2.38,6.62a1.82,1.82,0,0,0,.79-1v-1h-1.91c-1.14,0-1.71.38-1.71,1.12a1,1,0,0,0,.42.85,1.85,1.85,0,0,0,1.15.31A2.42,2.42,0,0,0,305.06,63.68Z"/><path class="cls-2" d="M312,65.59a5.87,5.87,0,0,1-1.82-.74l.93-2a5.53,5.53,0,0,0,1.55.67,6.24,6.24,0,0,0,1.78.26q1.77,0,1.77-.87a.62.62,0,0,0-.48-.59,7,7,0,0,0-1.48-.3,15.08,15.08,0,0,1-2-.41,3.13,3.13,0,0,1-1.33-.82,2.38,2.38,0,0,1-.56-1.68,2.64,2.64,0,0,1,.53-1.62,3.35,3.35,0,0,1,1.53-1.09,6.38,6.38,0,0,1,2.38-.4,9.29,9.29,0,0,1,2,.23,5.78,5.78,0,0,1,1.67.61l-.93,2a5.63,5.63,0,0,0-2.77-.71,2.73,2.73,0,0,0-1.33.25.74.74,0,0,0-.45.64.62.62,0,0,0,.48.62,7.8,7.8,0,0,0,1.53.34,18,18,0,0,1,1.93.42,2.81,2.81,0,0,1,1.3.82,2.28,2.28,0,0,1,.56,1.64,2.5,2.5,0,0,1-.54,1.58,3.26,3.26,0,0,1-1.56,1.08,6.8,6.8,0,0,1-2.43.39A9.16,9.16,0,0,1,312,65.59Z"/><path class="cls-2" d="M333,57.06a4.1,4.1,0,0,1,1.19,3.21v5.47h-2.6V64.55a3.12,3.12,0,0,1-2.93,1.34,4.53,4.53,0,0,1-1.92-.38,2.89,2.89,0,0,1-1.24-1A2.74,2.74,0,0,1,325,63a2.53,2.53,0,0,1,1-2.11,5.16,5.16,0,0,1,3.12-.76h2.21a1.79,1.79,0,0,0-.55-1.4,2.44,2.44,0,0,0-1.66-.49,4.82,4.82,0,0,0-1.51.24,4,4,0,0,0-1.26.65l-1-2a5.91,5.91,0,0,1,1.88-.85,8.22,8.22,0,0,1,2.26-.31A5,5,0,0,1,333,57.06Zm-2.38,6.62a1.82,1.82,0,0,0,.79-1v-1h-1.91c-1.14,0-1.71.38-1.71,1.12a1,1,0,0,0,.42.85,1.87,1.87,0,0,0,1.15.31A2.42,2.42,0,0,0,330.59,63.68Z"/><path class="cls-2" d="M16.6,78.47a4.33,4.33,0,0,1,1.06,3.19v5.49H14.88V82.09a2.66,2.66,0,0,0-.47-1.71,1.69,1.69,0,0,0-1.35-.56,2,2,0,0,0-1.55.64,2.71,2.71,0,0,0-.57,1.88v4.81H8.15V82.09c0-1.51-.6-2.27-1.82-2.27a1.94,1.94,0,0,0-1.53.64,2.71,2.71,0,0,0-.57,1.88v4.81H1.44V77.56H4.1v1.1a3.73,3.73,0,0,1,1.31-.93,4.53,4.53,0,0,1,1.71-.32,4.25,4.25,0,0,1,1.84.4A3.38,3.38,0,0,1,10.28,79a4,4,0,0,1,1.49-1.16,4.73,4.73,0,0,1,2-.41A3.9,3.9,0,0,1,16.6,78.47Z"/><path class="cls-2" d="M27.46,78.47a4.1,4.1,0,0,1,1.19,3.21v5.47h-2.6V86a3.12,3.12,0,0,1-2.93,1.34,4.57,4.57,0,0,1-1.92-.38,2.89,2.89,0,0,1-1.24-1,2.73,2.73,0,0,1-.42-1.5,2.51,2.51,0,0,1,1-2.11,5.18,5.18,0,0,1,3.12-.76h2.21a1.75,1.75,0,0,0-.55-1.4,2.44,2.44,0,0,0-1.66-.5,4.88,4.88,0,0,0-1.51.25,4,4,0,0,0-1.26.65l-1-2a6,6,0,0,1,1.89-.85A8.09,8.09,0,0,1,24,77.41,5,5,0,0,1,27.46,78.47Zm-2.38,6.62a1.82,1.82,0,0,0,.79-1v-1H24c-1.14,0-1.71.37-1.71,1.12a1,1,0,0,0,.42.85,1.87,1.87,0,0,0,1.15.31A2.39,2.39,0,0,0,25.08,85.09Z"/><path class="cls-2" d="M35.17,77.77a5,5,0,0,1,2-.36V80l-.63,0a2.54,2.54,0,0,0-1.87.67,2.69,2.69,0,0,0-.68,2v4.53H31.17V77.56h2.66v1.26A3.12,3.12,0,0,1,35.17,77.77Z"/><path class="cls-2" d="M46,78.47a4.07,4.07,0,0,1,1.2,3.21v5.47H44.62V86a3.11,3.11,0,0,1-2.93,1.34,4.52,4.52,0,0,1-1.91-.38,2.83,2.83,0,0,1-1.24-1,2.66,2.66,0,0,1-.43-1.5,2.49,2.49,0,0,1,1-2.11,5.14,5.14,0,0,1,3.11-.76h2.21a1.75,1.75,0,0,0-.55-1.4,2.42,2.42,0,0,0-1.66-.5,4.93,4.93,0,0,0-1.51.25,4,4,0,0,0-1.26.65l-1-2a6.07,6.07,0,0,1,1.89-.85,8.09,8.09,0,0,1,2.25-.31A5,5,0,0,1,46,78.47Zm-2.37,6.62a1.76,1.76,0,0,0,.78-1v-1H42.53c-1.14,0-1.71.37-1.71,1.12a1,1,0,0,0,.42.85,1.87,1.87,0,0,0,1.15.31A2.43,2.43,0,0,0,43.66,85.09Z"/><path class="cls-2" d="M55.93,86.69a3,3,0,0,1-1,.46,5.1,5.1,0,0,1-1.25.15A3.69,3.69,0,0,1,51,86.42a3.32,3.32,0,0,1-.94-2.57V79.91H48.6V77.77h1.48V75.43h2.78v2.34h2.39v2.14H52.86v3.91a1.32,1.32,0,0,0,.31.93,1.18,1.18,0,0,0,.89.33,1.76,1.76,0,0,0,1.12-.35Z"/><path class="cls-2" d="M66.22,78.48a4.27,4.27,0,0,1,1.09,3.18v5.49H64.53V82.09a2.55,2.55,0,0,0-.5-1.71,1.83,1.83,0,0,0-1.44-.56,2.23,2.23,0,0,0-1.68.65,2.7,2.7,0,0,0-.63,1.94v4.74H57.5V73.92h2.78v4.63a3.77,3.77,0,0,1,1.34-.84,4.82,4.82,0,0,1,1.72-.3A4,4,0,0,1,66.22,78.48Z"/><path class="cls-2" d="M71.78,86.66a4.67,4.67,0,0,1-1.88-1.75,5.14,5.14,0,0,1,0-5.11,4.67,4.67,0,0,1,1.88-1.75,6.1,6.1,0,0,1,5.44,0,4.71,4.71,0,0,1,1.87,1.75,5.14,5.14,0,0,1,0,5.11,4.71,4.71,0,0,1-1.87,1.75,6.1,6.1,0,0,1-5.44,0Zm4.48-2.37a3.06,3.06,0,0,0,0-3.87,2.51,2.51,0,0,0-3.52,0,3,3,0,0,0,0,3.87,2.51,2.51,0,0,0,3.52,0Z"/><path class="cls-2" d="M90.34,78.48a4.28,4.28,0,0,1,1.1,3.18v5.49H88.65V82.09a2.5,2.5,0,0,0-.5-1.71,1.83,1.83,0,0,0-1.44-.56,2.23,2.23,0,0,0-1.68.65,2.69,2.69,0,0,0-.62,1.94v4.74H81.62V77.56h2.66v1.12a3.81,3.81,0,0,1,1.37-.94,4.82,4.82,0,0,1,1.81-.33A4,4,0,0,1,90.34,78.48Z"/><path class="cls-2" d="M105.89,86.66A4.67,4.67,0,0,1,104,84.91a5.14,5.14,0,0,1,0-5.11,4.67,4.67,0,0,1,1.88-1.75,5.7,5.7,0,0,1,2.73-.64,5.62,5.62,0,0,1,2.71.64,4.71,4.71,0,0,1,1.87,1.75,5.14,5.14,0,0,1,0,5.11,4.71,4.71,0,0,1-1.87,1.75,5.62,5.62,0,0,1-2.71.64A5.7,5.7,0,0,1,105.89,86.66Zm4.48-2.37a3.06,3.06,0,0,0,0-3.87,2.3,2.3,0,0,0-1.75-.72,2.34,2.34,0,0,0-1.77.72,3,3,0,0,0,0,3.87,2.34,2.34,0,0,0,1.77.72A2.3,2.3,0,0,0,110.37,84.29Z"/><path class="cls-2" d="M118.78,77.77h2.47v2.14h-2.39v7.24h-2.79V79.91h-1.48V77.77h1.48v-.43a3.52,3.52,0,0,1,1-2.6,3.71,3.71,0,0,1,2.74-1,5,5,0,0,1,1.19.14,2.89,2.89,0,0,1,.94.38l-.73,2a1.91,1.91,0,0,0-1.13-.34c-.84,0-1.27.46-1.27,1.39Z"/><path class="cls-2" d="M137,83.14h-7.27a2.29,2.29,0,0,0,.93,1.41,3.13,3.13,0,0,0,1.82.52,3.67,3.67,0,0,0,1.33-.23,3,3,0,0,0,1.08-.7l1.48,1.6a5,5,0,0,1-4,1.56,6.16,6.16,0,0,1-2.87-.64,4.62,4.62,0,0,1-1.93-1.75,4.86,4.86,0,0,1-.68-2.55,5,5,0,0,1,.67-2.55,4.72,4.72,0,0,1,1.84-1.76,5.31,5.31,0,0,1,2.61-.64,5.4,5.4,0,0,1,2.55.61,4.37,4.37,0,0,1,1.8,1.74,5.21,5.21,0,0,1,.65,2.63S137.07,82.68,137,83.14Zm-6.52-3.09a2.31,2.31,0,0,0-.78,1.47h4.73a2.29,2.29,0,0,0-2.36-2A2.44,2.44,0,0,0,130.52,80.05Z"/><path class="cls-2" d="M146,78.47a4.07,4.07,0,0,1,1.2,3.21v5.47h-2.61V86a3.09,3.09,0,0,1-2.92,1.34,4.53,4.53,0,0,1-1.92-.38,2.89,2.89,0,0,1-1.24-1,2.74,2.74,0,0,1-.43-1.5,2.52,2.52,0,0,1,1-2.11,5.14,5.14,0,0,1,3.11-.76h2.22a1.76,1.76,0,0,0-.56-1.4,2.42,2.42,0,0,0-1.66-.5,4.81,4.81,0,0,0-1.5.25,3.75,3.75,0,0,0-1.26.65l-1-2a5.91,5.91,0,0,1,1.88-.85,8.16,8.16,0,0,1,2.26-.31A5,5,0,0,1,146,78.47Zm-2.37,6.62a1.82,1.82,0,0,0,.79-1v-1h-1.91c-1.14,0-1.72.37-1.72,1.12a1,1,0,0,0,.42.85,1.89,1.89,0,0,0,1.15.31A2.43,2.43,0,0,0,143.6,85.09Z"/><path class="cls-2" d="M155.88,86.69a3.14,3.14,0,0,1-1,.46,5.18,5.18,0,0,1-1.26.15,3.7,3.7,0,0,1-2.65-.88,3.36,3.36,0,0,1-.94-2.57V79.91h-1.48V77.77H150V75.43h2.79v2.34h2.39v2.14h-2.39v3.91a1.28,1.28,0,0,0,.31.93,1.15,1.15,0,0,0,.88.33,1.79,1.79,0,0,0,1.13-.35Z"/><path class="cls-2" d="M157.59,75.77a1.44,1.44,0,0,1-.48-1.1,1.46,1.46,0,0,1,.48-1.11,1.76,1.76,0,0,1,1.25-.45,1.86,1.86,0,0,1,1.25.43,1.38,1.38,0,0,1,.48,1.07,1.5,1.5,0,0,1-.48,1.15,1.74,1.74,0,0,1-1.25.46A1.76,1.76,0,0,1,157.59,75.77Zm-.14,1.79h2.78v9.59h-2.78Z"/><path class="cls-2" d="M171.53,78.48a4.28,4.28,0,0,1,1.1,3.18v5.49h-2.78V82.09a2.55,2.55,0,0,0-.5-1.71,1.87,1.87,0,0,0-1.45-.56,2.24,2.24,0,0,0-1.68.65,2.74,2.74,0,0,0-.62,1.94v4.74h-2.78V77.56h2.65v1.12a3.76,3.76,0,0,1,1.38-.94,4.77,4.77,0,0,1,1.8-.33A4,4,0,0,1,171.53,78.48Z"/><path class="cls-2" d="M185.15,77.56v8a5.13,5.13,0,0,1-1.37,3.92,5.68,5.68,0,0,1-4,1.29,10.38,10.38,0,0,1-2.64-.34,5.86,5.86,0,0,1-2.07-1l1.11-2a4.51,4.51,0,0,0,1.53.79,6,6,0,0,0,1.86.3,3,3,0,0,0,2.13-.65,2.59,2.59,0,0,0,.69-2V85.5a3.92,3.92,0,0,1-3,1.19,5.06,5.06,0,0,1-2.42-.58,4.47,4.47,0,0,1-1.74-1.63,4.55,4.55,0,0,1-.64-2.43,4.59,4.59,0,0,1,.64-2.43A4.47,4.47,0,0,1,176.92,78a5.18,5.18,0,0,1,2.42-.58,3.79,3.79,0,0,1,3.17,1.38V77.56Zm-3.45,6.2a2.23,2.23,0,0,0,.7-1.71,2.2,2.2,0,0,0-.7-1.7,2.86,2.86,0,0,0-3.63,0,2.17,2.17,0,0,0-.71,1.7,2.21,2.21,0,0,0,.71,1.71,2.86,2.86,0,0,0,3.63,0Z"/><path class="cls-2" d="M190,84.31a1.66,1.66,0,0,1,.48,1.24,2.88,2.88,0,0,1-.09.71,8,8,0,0,1-.39,1.07l-1,2.57h-1.76l.78-2.84a1.45,1.45,0,0,1-.7-.57,1.72,1.72,0,0,1-.26-.94,1.63,1.63,0,0,1,.49-1.24,1.7,1.7,0,0,1,1.24-.47A1.66,1.66,0,0,1,190,84.31Z"/><path class="cls-2" d="M198.35,87a6,6,0,0,1-1.82-.74l.93-2a5.66,5.66,0,0,0,1.55.67,6.3,6.3,0,0,0,1.79.26c1.18,0,1.76-.29,1.76-.87a.62.62,0,0,0-.48-.59,6.82,6.82,0,0,0-1.48-.3,15.26,15.26,0,0,1-1.94-.41,3,3,0,0,1-1.33-.83,2.3,2.3,0,0,1-.56-1.67,2.64,2.64,0,0,1,.52-1.62,3.39,3.39,0,0,1,1.54-1.09,6.34,6.34,0,0,1,2.38-.4,9.2,9.2,0,0,1,2,.23,5.67,5.67,0,0,1,1.67.61l-.93,2a5.56,5.56,0,0,0-2.76-.71,2.77,2.77,0,0,0-1.34.25.73.73,0,0,0-.45.64.64.64,0,0,0,.49.63,8.82,8.82,0,0,0,1.53.33,15.85,15.85,0,0,1,1.93.42,2.86,2.86,0,0,1,1.3.82,2.28,2.28,0,0,1,.55,1.64,2.55,2.55,0,0,1-.53,1.58,3.36,3.36,0,0,1-1.56,1.08,6.9,6.9,0,0,1-2.44.39A9.21,9.21,0,0,1,198.35,87Z"/><path class="cls-2" d="M206.94,73.92h2.78V87.15h-2.78Z"/><path class="cls-2" d="M221.66,83.14h-7.27a2.25,2.25,0,0,0,.93,1.41,3.13,3.13,0,0,0,1.82.52,3.67,3.67,0,0,0,1.33-.23,3,3,0,0,0,1.08-.7l1.48,1.6a5,5,0,0,1-4,1.56,6.16,6.16,0,0,1-2.87-.64,4.56,4.56,0,0,1-1.93-1.75,4.86,4.86,0,0,1-.68-2.55,5,5,0,0,1,.67-2.55,4.72,4.72,0,0,1,1.84-1.76,5.31,5.31,0,0,1,2.61-.64,5.4,5.4,0,0,1,2.55.61,4.37,4.37,0,0,1,1.8,1.74,5.21,5.21,0,0,1,.65,2.63S221.69,82.68,221.66,83.14Zm-6.52-3.09a2.26,2.26,0,0,0-.78,1.47h4.73a2.29,2.29,0,0,0-2.36-2A2.44,2.44,0,0,0,215.14,80.05Z"/><path class="cls-2" d="M232.91,83.14h-7.26a2.25,2.25,0,0,0,.93,1.41,3.11,3.11,0,0,0,1.82.52,3.67,3.67,0,0,0,1.33-.23,3.22,3.22,0,0,0,1.08-.7l1.48,1.6a5,5,0,0,1-4,1.56,6.16,6.16,0,0,1-2.87-.64,4.56,4.56,0,0,1-1.93-1.75,5.15,5.15,0,0,1,0-5.1,4.65,4.65,0,0,1,1.84-1.76,5.31,5.31,0,0,1,2.61-.64,5.4,5.4,0,0,1,2.55.61,4.43,4.43,0,0,1,1.8,1.74,5.21,5.21,0,0,1,.65,2.63S233,82.68,232.91,83.14Zm-6.51-3.09a2.26,2.26,0,0,0-.78,1.47h4.72a2.29,2.29,0,0,0-.78-1.46,2.36,2.36,0,0,0-1.57-.54A2.44,2.44,0,0,0,226.4,80.05Z"/><path class="cls-2" d="M242.93,78a4.4,4.4,0,0,1,1.72,1.73,5.66,5.66,0,0,1,0,5.19,4.4,4.4,0,0,1-1.72,1.73,4.88,4.88,0,0,1-2.43.62,3.74,3.74,0,0,1-2.9-1.16v4.48h-2.78V77.56h2.66v1.1a3.7,3.7,0,0,1,3-1.25A4.88,4.88,0,0,1,242.93,78Zm-1.16,6.26a3.06,3.06,0,0,0,0-3.87,2.5,2.5,0,0,0-3.51,0,3.06,3.06,0,0,0,0,3.87,2.5,2.5,0,0,0,3.51,0Z"/><path class="cls-2" d="M247.28,75.77a1.42,1.42,0,0,1-.49-1.1,1.44,1.44,0,0,1,.49-1.11,1.73,1.73,0,0,1,1.24-.45,1.82,1.82,0,0,1,1.25.43,1.38,1.38,0,0,1,.48,1.07,1.5,1.5,0,0,1-.48,1.15,1.71,1.71,0,0,1-1.25.46A1.73,1.73,0,0,1,247.28,75.77Zm-.15,1.79h2.79v9.59h-2.79Z"/><path class="cls-2" d="M261.22,78.48a4.28,4.28,0,0,1,1.1,3.18v5.49h-2.79V82.09a2.5,2.5,0,0,0-.5-1.71,1.83,1.83,0,0,0-1.44-.56,2.23,2.23,0,0,0-1.68.65,2.69,2.69,0,0,0-.62,1.94v4.74H252.5V77.56h2.66v1.12a3.81,3.81,0,0,1,1.37-.94,4.82,4.82,0,0,1,1.81-.33A4,4,0,0,1,261.22,78.48Z"/><path class="cls-2" d="M274.84,77.56v8a5.13,5.13,0,0,1-1.37,3.92,5.68,5.68,0,0,1-4,1.29,10.26,10.26,0,0,1-2.64-.34,5.86,5.86,0,0,1-2.07-1l1.11-2a4.41,4.41,0,0,0,1.53.79,6,6,0,0,0,1.86.3,3,3,0,0,0,2.13-.65,2.59,2.59,0,0,0,.69-2V85.5a3.93,3.93,0,0,1-3,1.19,5,5,0,0,1-2.41-.58,4.41,4.41,0,0,1-1.74-1.63,4.55,4.55,0,0,1-.65-2.43,4.6,4.6,0,0,1,.65-2.43A4.41,4.41,0,0,1,266.61,78a5.14,5.14,0,0,1,2.41-.58,3.81,3.81,0,0,1,3.18,1.38V77.56Zm-3.45,6.2a2.23,2.23,0,0,0,.7-1.71,2.2,2.2,0,0,0-.7-1.7,2.86,2.86,0,0,0-3.63,0,2.18,2.18,0,0,0-.72,1.7,2.21,2.21,0,0,0,.72,1.71,2.86,2.86,0,0,0,3.63,0Z"/><path class="cls-2" d="M289.77,78.47a4.07,4.07,0,0,1,1.2,3.21v5.47h-2.61V86a3.09,3.09,0,0,1-2.92,1.34,4.53,4.53,0,0,1-1.92-.38,2.89,2.89,0,0,1-1.24-1,2.66,2.66,0,0,1-.43-1.5,2.52,2.52,0,0,1,1-2.11,5.14,5.14,0,0,1,3.11-.76h2.22a1.76,1.76,0,0,0-.56-1.4,2.42,2.42,0,0,0-1.66-.5,4.93,4.93,0,0,0-1.51.25,3.79,3.79,0,0,0-1.25.65l-1-2a5.91,5.91,0,0,1,1.88-.85,8.11,8.11,0,0,1,2.26-.31A5,5,0,0,1,289.77,78.47Zm-2.37,6.62a1.82,1.82,0,0,0,.79-1v-1h-1.91c-1.15,0-1.72.37-1.72,1.12a1,1,0,0,0,.42.85,1.89,1.89,0,0,0,1.15.31A2.43,2.43,0,0,0,287.4,85.09Z"/><path class="cls-2" d="M302.2,78.48a4.28,4.28,0,0,1,1.1,3.18v5.49h-2.79V82.09a2.5,2.5,0,0,0-.5-1.71,1.83,1.83,0,0,0-1.44-.56,2.24,2.24,0,0,0-1.68.65,2.69,2.69,0,0,0-.62,1.94v4.74h-2.79V77.56h2.66v1.12a3.76,3.76,0,0,1,1.38-.94,4.73,4.73,0,0,1,1.8-.33A4,4,0,0,1,302.2,78.48Z"/><path class="cls-2" d="M315.7,73.92V87.15H313v-1.1a3.68,3.68,0,0,1-3,1.25,5,5,0,0,1-2.45-.61A4.28,4.28,0,0,1,305.87,85a5.7,5.7,0,0,1,0-5.21A4.28,4.28,0,0,1,307.59,78a5,5,0,0,1,2.45-.61,3.66,3.66,0,0,1,2.87,1.16V73.92Zm-3.43,10.37a3,3,0,0,0,0-3.87,2.33,2.33,0,0,0-1.75-.72,2.37,2.37,0,0,0-1.77.72,3.06,3.06,0,0,0,0,3.87,2.37,2.37,0,0,0,1.77.72A2.33,2.33,0,0,0,312.27,84.29Z"/><path class="cls-2" d="M9.55,99.44a4.43,4.43,0,0,1,1.73,1.73,5.74,5.74,0,0,1,0,5.19,4.43,4.43,0,0,1-1.73,1.73,4.88,4.88,0,0,1-2.43.62,3.71,3.71,0,0,1-2.89-1.16V112H1.44V99H4.1v1.11a3.71,3.71,0,0,1,3-1.25A4.88,4.88,0,0,1,9.55,99.44ZM8.39,105.7a3.06,3.06,0,0,0,0-3.87,2.3,2.3,0,0,0-1.75-.72,2.32,2.32,0,0,0-1.76.72,3.06,3.06,0,0,0,0,3.87,2.32,2.32,0,0,0,1.76.72A2.3,2.3,0,0,0,8.39,105.7Z"/><path class="cls-2" d="M13.75,95.33h2.79v13.23H13.75Z"/><path class="cls-2" d="M26.42,99.88a4.07,4.07,0,0,1,1.2,3.21v5.47H25v-1.19a3.1,3.1,0,0,1-2.92,1.34,4.53,4.53,0,0,1-1.92-.38,2.83,2.83,0,0,1-1.24-1,2.66,2.66,0,0,1-.43-1.5,2.53,2.53,0,0,1,1-2.11,5.14,5.14,0,0,1,3.11-.76h2.21a1.75,1.75,0,0,0-.55-1.4,2.42,2.42,0,0,0-1.66-.49,4.91,4.91,0,0,0-1.51.24,3.79,3.79,0,0,0-1.25.65l-1-2a5.91,5.91,0,0,1,1.88-.85A8.11,8.11,0,0,1,23,98.82,5,5,0,0,1,26.42,99.88Zm-2.37,6.62a1.76,1.76,0,0,0,.78-1v-1h-1.9c-1.15,0-1.72.37-1.72,1.12a1,1,0,0,0,.42.85,1.87,1.87,0,0,0,1.15.31A2.43,2.43,0,0,0,24.05,106.5Z"/><path class="cls-2" d="M39.48,99l-4.33,10.19a5,5,0,0,1-1.64,2.34,4,4,0,0,1-2.34.68,5,5,0,0,1-1.48-.23,3.27,3.27,0,0,1-1.2-.65l1-2a2.41,2.41,0,0,0,.74.45,2.22,2.22,0,0,0,.83.16,1.45,1.45,0,0,0,.93-.28,2.38,2.38,0,0,0,.64-.92l0-.09L28.53,99H31.4l2.69,6.52L36.81,99Z"/><path class="cls-2" d="M40.77,97.18a1.49,1.49,0,0,1,0-2.21A1.73,1.73,0,0,1,42,94.52a1.82,1.82,0,0,1,1.25.43A1.39,1.39,0,0,1,43.75,96a1.51,1.51,0,0,1-.49,1.15,1.71,1.71,0,0,1-1.25.46A1.73,1.73,0,0,1,40.77,97.18ZM40.62,99h2.79v9.6H40.62Z"/><path class="cls-2" d="M54.71,99.89a4.28,4.28,0,0,1,1.1,3.18v5.49H53V103.5a2.5,2.5,0,0,0-.5-1.71,1.83,1.83,0,0,0-1.44-.56,2.24,2.24,0,0,0-1.68.65,2.69,2.69,0,0,0-.62,1.94v4.74H46V99h2.66v1.13A3.76,3.76,0,0,1,50,99.15a4.73,4.73,0,0,1,1.8-.33A4,4,0,0,1,54.71,99.89Z"/><path class="cls-2" d="M68.33,99v8A5.13,5.13,0,0,1,67,110.88a5.68,5.68,0,0,1-4,1.29,10.32,10.32,0,0,1-2.64-.34,5.86,5.86,0,0,1-2.07-1l1.11-2a4.41,4.41,0,0,0,1.53.79,6,6,0,0,0,1.86.3,3,3,0,0,0,2.13-.65,2.6,2.6,0,0,0,.69-2v-.41a3.9,3.9,0,0,1-3,1.2,5,5,0,0,1-2.41-.58,4.47,4.47,0,0,1-1.74-1.63,4.91,4.91,0,0,1,0-4.85A4.43,4.43,0,0,1,60.1,99.4a5.14,5.14,0,0,1,2.41-.58,3.81,3.81,0,0,1,3.18,1.38V99Zm-3.45,6.21a2.23,2.23,0,0,0,.7-1.71,2.2,2.2,0,0,0-.7-1.7,2.86,2.86,0,0,0-3.63,0,2.18,2.18,0,0,0-.72,1.7,2.21,2.21,0,0,0,.72,1.71,2.86,2.86,0,0,0,3.63,0Z"/><path class="cls-2" d="M70.74,108.21a1.7,1.7,0,0,1-.5-1.25,1.63,1.63,0,0,1,.5-1.24,1.84,1.84,0,0,1,2.46,0,1.6,1.6,0,0,1,.5,1.24,1.74,1.74,0,0,1-3,1.25Z"/><path class="cls-2" d="M86.83,104.14v4.42H83.94V104.1l-4.83-8h3.07l3.33,5.54,3.34-5.54h2.83Z"/><path class="cls-2" d="M93.48,108.07a4.61,4.61,0,0,1-1.88-1.75,5.14,5.14,0,0,1,0-5.11,4.61,4.61,0,0,1,1.88-1.75,6.08,6.08,0,0,1,5.43,0,4.64,4.64,0,0,1,1.87,1.75,5.14,5.14,0,0,1,0,5.11,4.64,4.64,0,0,1-1.87,1.75,6.08,6.08,0,0,1-5.43,0ZM98,105.7a3.09,3.09,0,0,0,0-3.87,2.34,2.34,0,0,0-1.76-.72,2.37,2.37,0,0,0-1.77.72,3.06,3.06,0,0,0,0,3.87,2.37,2.37,0,0,0,1.77.72A2.34,2.34,0,0,0,98,105.7Z"/><path class="cls-2" d="M113,99v9.6h-2.64v-1.14a3.68,3.68,0,0,1-1.32,1,4.2,4.2,0,0,1-1.66.33,4.12,4.12,0,0,1-3-1.09,4.33,4.33,0,0,1-1.11-3.23V99h2.79v5c0,1.55.64,2.32,1.94,2.32a2.12,2.12,0,0,0,1.61-.65,2.78,2.78,0,0,0,.6-1.94V99Z"/><path class="cls-2" d="M122.5,108.07a4.66,4.66,0,0,1-1.9-1.75,5.08,5.08,0,0,1,0-5.11,4.66,4.66,0,0,1,1.9-1.75,5.85,5.85,0,0,1,2.76-.64,5.25,5.25,0,0,1,2.65.64,3.68,3.68,0,0,1,1.65,1.81l-2.16,1.16a2.36,2.36,0,0,0-2.16-1.32,2.43,2.43,0,0,0-1.8.71,3,3,0,0,0,0,3.89,2.43,2.43,0,0,0,1.8.71,2.34,2.34,0,0,0,2.16-1.32l2.16,1.18a3.74,3.74,0,0,1-1.65,1.78,5.26,5.26,0,0,1-2.65.65A5.85,5.85,0,0,1,122.5,108.07Z"/><path class="cls-2" d="M132.89,108.07a4.61,4.61,0,0,1-1.88-1.75,5.14,5.14,0,0,1,0-5.11,4.61,4.61,0,0,1,1.88-1.75,6.08,6.08,0,0,1,5.43,0,4.64,4.64,0,0,1,1.87,1.75,5.14,5.14,0,0,1,0,5.11,4.64,4.64,0,0,1-1.87,1.75,6.08,6.08,0,0,1-5.43,0Zm4.48-2.37a3.09,3.09,0,0,0,0-3.87,2.34,2.34,0,0,0-1.76-.72,2.37,2.37,0,0,0-1.77.72,3.06,3.06,0,0,0,0,3.87,2.37,2.37,0,0,0,1.77.72A2.34,2.34,0,0,0,137.37,105.7Z"/><path class="cls-2" d="M152.4,99v9.6h-2.64v-1.14a3.68,3.68,0,0,1-1.32,1,4.2,4.2,0,0,1-1.66.33,4.12,4.12,0,0,1-3-1.09,4.33,4.33,0,0,1-1.11-3.23V99h2.79v5c0,1.55.64,2.32,1.94,2.32a2.12,2.12,0,0,0,1.61-.65,2.78,2.78,0,0,0,.6-1.94V99Z"/><path class="cls-2" d="M155,95.33h2.79v13.23H155Z"/><path class="cls-2" d="M170.13,95.33v13.23h-2.66v-1.1a3.67,3.67,0,0,1-3,1.25,5,5,0,0,1-2.46-.61,4.34,4.34,0,0,1-1.72-1.73,5.78,5.78,0,0,1,0-5.21A4.34,4.34,0,0,1,162,99.43a5,5,0,0,1,2.46-.61,3.66,3.66,0,0,1,2.87,1.16V95.33Zm-3.42,10.37a3.06,3.06,0,0,0,0-3.87,2.51,2.51,0,0,0-3.52,0,3.06,3.06,0,0,0,0,3.87,2.51,2.51,0,0,0,3.52,0Z"/><path class="cls-2" d="M178.64,108.41a5.87,5.87,0,0,1-1.82-.74l.93-2a5.53,5.53,0,0,0,1.55.67,6.24,6.24,0,0,0,1.78.26q1.77,0,1.77-.87a.62.62,0,0,0-.48-.59,7.51,7.51,0,0,0-1.48-.31,12.57,12.57,0,0,1-1.95-.41,3,3,0,0,1-1.33-.82,2.34,2.34,0,0,1-.56-1.67,2.64,2.64,0,0,1,.53-1.62,3.44,3.44,0,0,1,1.53-1.1,6.65,6.65,0,0,1,2.39-.39,9.91,9.91,0,0,1,2,.22,5.78,5.78,0,0,1,1.67.62l-.93,2a5.59,5.59,0,0,0-2.76-.71,2.75,2.75,0,0,0-1.34.25.73.73,0,0,0-.45.64.62.62,0,0,0,.48.62,7.94,7.94,0,0,0,1.54.34,16.07,16.07,0,0,1,1.92.42A3,3,0,0,1,185,104a2.32,2.32,0,0,1,.55,1.65,2.5,2.5,0,0,1-.54,1.58,3.26,3.26,0,0,1-1.56,1.08,6.8,6.8,0,0,1-2.43.39A9.16,9.16,0,0,1,178.64,108.41Z"/><path class="cls-2" d="M194.52,99.88a4.07,4.07,0,0,1,1.19,3.21v5.47h-2.6v-1.19a3.11,3.11,0,0,1-2.93,1.34,4.52,4.52,0,0,1-1.91-.38,2.77,2.77,0,0,1-1.24-1,2.66,2.66,0,0,1-.43-1.5,2.5,2.5,0,0,1,1-2.11,5.14,5.14,0,0,1,3.11-.76h2.21a1.75,1.75,0,0,0-.55-1.4,2.42,2.42,0,0,0-1.66-.49,4.91,4.91,0,0,0-1.51.24,4,4,0,0,0-1.26.65l-1-2a6.07,6.07,0,0,1,1.89-.85,8.09,8.09,0,0,1,2.25-.31A5,5,0,0,1,194.52,99.88Zm-2.37,6.62a1.8,1.8,0,0,0,.78-1v-1H191c-1.14,0-1.71.37-1.71,1.12a1,1,0,0,0,.42.85,1.87,1.87,0,0,0,1.15.31A2.43,2.43,0,0,0,192.15,106.5Z"/><path class="cls-2" d="M207.58,99l-4.34,10.19a5,5,0,0,1-1.63,2.34,4,4,0,0,1-2.34.68,5.09,5.09,0,0,1-1.49-.23,3.31,3.31,0,0,1-1.19-.65l1-2a2.41,2.41,0,0,0,.74.45,2.22,2.22,0,0,0,.83.16,1.4,1.4,0,0,0,.92-.28,2.29,2.29,0,0,0,.65-.92l0-.09L196.62,99h2.88l2.69,6.52L204.9,99Z"/><path class="cls-2" d="M221.07,99.88a4.1,4.1,0,0,1,1.19,3.21v5.47h-2.6v-1.19a3.12,3.12,0,0,1-2.93,1.34,4.53,4.53,0,0,1-1.92-.38,2.89,2.89,0,0,1-1.24-1,2.73,2.73,0,0,1-.42-1.5,2.52,2.52,0,0,1,1-2.11,5.18,5.18,0,0,1,3.12-.76h2.21a1.79,1.79,0,0,0-.55-1.4,2.44,2.44,0,0,0-1.66-.49,4.82,4.82,0,0,0-1.51.24,4,4,0,0,0-1.26.65l-1-2a6,6,0,0,1,1.88-.85,8.22,8.22,0,0,1,2.26-.31A5,5,0,0,1,221.07,99.88Zm-2.38,6.62a1.82,1.82,0,0,0,.79-1v-1h-1.91c-1.14,0-1.71.37-1.71,1.12a1,1,0,0,0,.42.85,1.87,1.87,0,0,0,1.15.31A2.39,2.39,0,0,0,218.69,106.5Z"/><path class="cls-2" d="M231,108.1a2.84,2.84,0,0,1-1,.45,4.73,4.73,0,0,1-1.26.16,3.72,3.72,0,0,1-2.65-.88,3.36,3.36,0,0,1-.93-2.57v-3.94h-1.48V99.18h1.48V96.84h2.78v2.34h2.39v2.14H227.9v3.91a1.29,1.29,0,0,0,.31.93,1.16,1.16,0,0,0,.89.33,1.76,1.76,0,0,0,1.12-.35Z"/><path class="cls-2" d="M243.78,108.1a2.93,2.93,0,0,1-1,.45,4.73,4.73,0,0,1-1.26.16,3.72,3.72,0,0,1-2.65-.88,3.36,3.36,0,0,1-.93-2.57v-3.94h-1.48V99.18h1.48V96.84h2.78v2.34h2.39v2.14h-2.39v3.91a1.29,1.29,0,0,0,.31.93,1.16,1.16,0,0,0,.89.33,1.78,1.78,0,0,0,1.12-.35Z"/><path class="cls-2" d="M254.06,99.89a4.28,4.28,0,0,1,1.1,3.18v5.49h-2.78V103.5a2.55,2.55,0,0,0-.5-1.71,1.87,1.87,0,0,0-1.45-.56,2.21,2.21,0,0,0-1.67.65,2.7,2.7,0,0,0-.63,1.94v4.74h-2.78V95.33h2.78V100a3.77,3.77,0,0,1,1.34-.84,4.73,4.73,0,0,1,1.71-.3A4,4,0,0,1,254.06,99.89Z"/><path class="cls-2" d="M257.82,97.18a1.51,1.51,0,0,1,0-2.21,1.76,1.76,0,0,1,1.25-.45,1.84,1.84,0,0,1,1.25.43A1.38,1.38,0,0,1,260.8,96a1.5,1.5,0,0,1-.48,1.15,1.72,1.72,0,0,1-1.25.46A1.76,1.76,0,0,1,257.82,97.18ZM257.68,99h2.78v9.6h-2.78Z"/><path class="cls-2" d="M263.94,108.41a5.87,5.87,0,0,1-1.82-.74l.93-2a5.4,5.4,0,0,0,1.55.67,6.24,6.24,0,0,0,1.78.26q1.77,0,1.77-.87a.62.62,0,0,0-.48-.59,7.51,7.51,0,0,0-1.48-.31,12.32,12.32,0,0,1-1.95-.41,3,3,0,0,1-1.33-.82,2.34,2.34,0,0,1-.56-1.67,2.64,2.64,0,0,1,.53-1.62,3.44,3.44,0,0,1,1.53-1.1,6.6,6.6,0,0,1,2.38-.39,9.93,9.93,0,0,1,2,.22,5.78,5.78,0,0,1,1.67.62l-.93,2a5.63,5.63,0,0,0-2.77-.71,2.73,2.73,0,0,0-1.33.25.73.73,0,0,0-.45.64.62.62,0,0,0,.48.62,7.8,7.8,0,0,0,1.53.34,15.85,15.85,0,0,1,1.93.42,2.87,2.87,0,0,1,1.3.81,2.32,2.32,0,0,1,.56,1.65,2.5,2.5,0,0,1-.54,1.58,3.31,3.31,0,0,1-1.56,1.08,6.84,6.84,0,0,1-2.43.39A9.16,9.16,0,0,1,263.94,108.41Z"/><path class="cls-2" d="M285.68,99.44a4.47,4.47,0,0,1,1.72,1.73,5.74,5.74,0,0,1,0,5.19,4.47,4.47,0,0,1-1.72,1.73,4.92,4.92,0,0,1-2.44.62,3.72,3.72,0,0,1-2.89-1.16V112h-2.78V99h2.66v1.11a3.69,3.69,0,0,1,3-1.25A4.92,4.92,0,0,1,285.68,99.44Zm-1.16,6.26a3.06,3.06,0,0,0,0-3.87,2.51,2.51,0,0,0-3.52,0,3.09,3.09,0,0,0,0,3.87,2.51,2.51,0,0,0,3.52,0Z"/><path class="cls-2" d="M291.73,108.07a4.7,4.7,0,0,1-1.89-1.75,5.21,5.21,0,0,1,0-5.11,4.7,4.7,0,0,1,1.89-1.75,6.08,6.08,0,0,1,5.43,0,4.64,4.64,0,0,1,1.87,1.75,5.14,5.14,0,0,1,0,5.11,4.64,4.64,0,0,1-1.87,1.75,6.08,6.08,0,0,1-5.43,0Zm4.47-2.37a3.06,3.06,0,0,0,0-3.87,2.3,2.3,0,0,0-1.75-.72,2.34,2.34,0,0,0-1.77.72,3,3,0,0,0,0,3.87,2.34,2.34,0,0,0,1.77.72A2.3,2.3,0,0,0,296.2,105.7Z"/><path class="cls-2" d="M301.71,97.18a1.51,1.51,0,0,1,0-2.21,1.76,1.76,0,0,1,1.25-.45,1.86,1.86,0,0,1,1.25.43,1.38,1.38,0,0,1,.48,1.07,1.5,1.5,0,0,1-.48,1.15,1.74,1.74,0,0,1-1.25.46A1.76,1.76,0,0,1,301.71,97.18ZM301.56,99h2.79v9.6h-2.79Z"/><path class="cls-2" d="M315.65,99.89a4.28,4.28,0,0,1,1.1,3.18v5.49H314V103.5a2.5,2.5,0,0,0-.5-1.71,1.83,1.83,0,0,0-1.44-.56,2.24,2.24,0,0,0-1.68.65,2.74,2.74,0,0,0-.62,1.94v4.74h-2.79V99h2.66v1.13a3.76,3.76,0,0,1,1.38-.94,4.77,4.77,0,0,1,1.8-.33A4,4,0,0,1,315.65,99.89Z"/><path class="cls-2" d="M325.45,108.1a2.87,2.87,0,0,1-1,.45,4.73,4.73,0,0,1-1.26.16,3.7,3.7,0,0,1-2.65-.88,3.32,3.32,0,0,1-.94-2.57v-3.94h-1.48V99.18h1.48V96.84h2.79v2.34h2.39v2.14h-2.39v3.91a1.29,1.29,0,0,0,.31.93,1.15,1.15,0,0,0,.88.33,1.79,1.79,0,0,0,1.13-.35Z"/><path class="cls-2" d="M329.5,105.72A1.66,1.66,0,0,1,330,107a2.87,2.87,0,0,1-.08.71,7,7,0,0,1-.4,1.07l-1,2.57h-1.77l.78-2.84a1.42,1.42,0,0,1-.7-.58,1.69,1.69,0,0,1-.26-.93,1.66,1.66,0,0,1,.49-1.24,1.7,1.7,0,0,1,1.24-.47A1.66,1.66,0,0,1,329.5,105.72Z"/><path class="cls-2" d="M1.64,117.48H4.53V130H1.64Z"/><path class="cls-2" d="M21.06,121.3a4.28,4.28,0,0,1,1.1,3.18V130H19.38v-5.06a2.55,2.55,0,0,0-.5-1.71,1.87,1.87,0,0,0-1.45-.56,2.24,2.24,0,0,0-1.68.65,2.74,2.74,0,0,0-.62,1.94V130H12.34V116.74h2.79v4.63a3.68,3.68,0,0,1,1.34-.84,4.73,4.73,0,0,1,1.71-.3A4,4,0,0,1,21.06,121.3Z"/><path class="cls-2" d="M32,121.29a4.07,4.07,0,0,1,1.2,3.21V130H30.56v-1.19a3.11,3.11,0,0,1-2.93,1.34,4.52,4.52,0,0,1-1.91-.38,2.83,2.83,0,0,1-1.24-1,2.66,2.66,0,0,1-.43-1.5,2.5,2.5,0,0,1,1-2.11,5.14,5.14,0,0,1,3.11-.76h2.21a1.75,1.75,0,0,0-.55-1.4,2.42,2.42,0,0,0-1.66-.49,4.91,4.91,0,0,0-1.51.24,4,4,0,0,0-1.26.65l-1-2a5.91,5.91,0,0,1,1.88-.85,8.09,8.09,0,0,1,2.25-.31A5,5,0,0,1,32,121.29Zm-2.37,6.62a1.76,1.76,0,0,0,.78-1v-1H28.47c-1.14,0-1.71.37-1.71,1.12a1,1,0,0,0,.42.85,1.87,1.87,0,0,0,1.15.31A2.43,2.43,0,0,0,29.6,127.91Z"/><path class="cls-2" d="M45.57,116.74V130H42.91v-1.1a3.68,3.68,0,0,1-3,1.25,5,5,0,0,1-2.45-.61,4.28,4.28,0,0,1-1.72-1.73,5.7,5.7,0,0,1,0-5.21,4.28,4.28,0,0,1,1.72-1.73,4.92,4.92,0,0,1,2.45-.61,3.66,3.66,0,0,1,2.87,1.16v-4.65Zm-3.43,10.37a3,3,0,0,0,0-3.87,2.33,2.33,0,0,0-1.75-.72,2.37,2.37,0,0,0-1.77.72,3.06,3.06,0,0,0,0,3.87,2.37,2.37,0,0,0,1.77.72A2.33,2.33,0,0,0,42.14,127.11Z"/><path class="cls-2" d="M53.33,118.59a1.44,1.44,0,0,1-.49-1.11,1.42,1.42,0,0,1,.49-1.1,1.73,1.73,0,0,1,1.24-.45,1.82,1.82,0,0,1,1.25.43,1.39,1.39,0,0,1,.49,1.07,1.53,1.53,0,0,1-.49,1.15,1.93,1.93,0,0,1-2.49,0Zm-.15,1.79H56V130H53.18Z"/><path class="cls-2" d="M64.74,129.51a2.87,2.87,0,0,1-1,.45,4.73,4.73,0,0,1-1.26.16,3.7,3.7,0,0,1-2.65-.88,3.32,3.32,0,0,1-.94-2.57v-3.94H57.41v-2.14h1.48v-2.34h2.79v2.34h2.39v2.14H61.68v3.91a1.29,1.29,0,0,0,.31.93,1.15,1.15,0,0,0,.88.33,1.79,1.79,0,0,0,1.13-.35Z"/><path class="cls-2" d="M78.66,121.29a4.07,4.07,0,0,1,1.2,3.21V130H77.25v-1.19a3.11,3.11,0,0,1-2.93,1.34,4.52,4.52,0,0,1-1.91-.38,2.83,2.83,0,0,1-1.24-1,2.66,2.66,0,0,1-.43-1.5,2.5,2.5,0,0,1,1-2.11,5.14,5.14,0,0,1,3.11-.76h2.21a1.75,1.75,0,0,0-.55-1.4,2.42,2.42,0,0,0-1.66-.49,4.91,4.91,0,0,0-1.51.24,4,4,0,0,0-1.26.65l-1-2a6.07,6.07,0,0,1,1.89-.85,8.09,8.09,0,0,1,2.25-.31A5,5,0,0,1,78.66,121.29Zm-2.37,6.62a1.76,1.76,0,0,0,.78-1v-1H75.16c-1.14,0-1.71.37-1.71,1.12a1,1,0,0,0,.42.85,1.87,1.87,0,0,0,1.15.31A2.43,2.43,0,0,0,76.29,127.91Z"/><path class="cls-2" d="M82.37,116.74h2.78V130H82.37Z"/><path class="cls-2" d="M87.74,116.74h2.78V130H87.74Z"/><path class="cls-2" d="M92.93,129.62a1.72,1.72,0,0,1-.5-1.25,1.63,1.63,0,0,1,.5-1.24,1.72,1.72,0,0,1,1.23-.47,1.69,1.69,0,0,1,1.23.47,1.6,1.6,0,0,1,.5,1.24,1.71,1.71,0,0,1-1.73,1.75A1.71,1.71,0,0,1,92.93,129.62Z"/></g></g></svg>