<svg xmlns="http://www.w3.org/2000/svg" viewBox="0 0 449 337.23"><defs><style>.cls-1{fill:#9f9ef2;}.cls-2{fill:#ff9492;}.cls-3{fill:#9ce1fd;}.cls-4{fill:#534d72;}</style></defs><title>Asset 4</title><g id="Layer_2" data-name="Layer 2"><g id="Layer_8" data-name="Layer 8"><path class="cls-1" d="M25,7.1H15.87V1.71H40.75V7.1H31.61V30.26H25Z"/><path class="cls-1" d="M64.79,10.44q2.5,2.45,2.51,7.26V30.26H60.93V18.68a5.75,5.75,0,0,0-1.14-3.9,4.2,4.2,0,0,0-3.3-1.28A5,5,0,0,0,52.66,15a6.11,6.11,0,0,0-1.43,4.42V30.26H44.87V0h6.36V10.6a8.32,8.32,0,0,1,3.06-1.93A11,11,0,0,1,58.2,8,9,9,0,0,1,64.79,10.44Z"/><path class="cls-1" d="M95.68,21.08H79.08A5.16,5.16,0,0,0,81.2,24.3a7,7,0,0,0,4.16,1.19,8.46,8.46,0,0,0,3-.51,7.56,7.56,0,0,0,2.47-1.61L94.25,27q-3.1,3.54-9,3.54a14.38,14.38,0,0,1-6.57-1.44,10.66,10.66,0,0,1-4.4-4,11,11,0,0,1-1.55-5.83,11.18,11.18,0,0,1,1.53-5.81,10.74,10.74,0,0,1,4.2-4,13,13,0,0,1,11.8-.06,10.07,10.07,0,0,1,4.1,4,11.85,11.85,0,0,1,1.49,6Q95.8,19.49,95.68,21.08ZM80.79,14A5.19,5.19,0,0,0,79,17.37H89.81A5.28,5.28,0,0,0,88,14.05a5.35,5.35,0,0,0-3.59-1.24A5.46,5.46,0,0,0,80.79,14Z"/><path class="cls-1" d="M120,7.1h-9.13V1.71h24.87V7.1h-9.13V30.26H120Z"/><path class="cls-1" d="M159,21.08h-16.6a5.16,5.16,0,0,0,2.12,3.22,7,7,0,0,0,4.16,1.19,8.42,8.42,0,0,0,3-.51,7.45,7.45,0,0,0,2.47-1.61L157.54,27q-3.09,3.54-9,3.54a14.41,14.41,0,0,1-6.57-1.44,10.66,10.66,0,0,1-4.4-4A11.1,11.1,0,0,1,136,19.29a11.18,11.18,0,0,1,1.53-5.81,10.74,10.74,0,0,1,4.2-4,13,13,0,0,1,11.8-.06,10.07,10.07,0,0,1,4.1,4,11.85,11.85,0,0,1,1.49,6Q159.09,19.49,159,21.08Zm-14.89-7a5.24,5.24,0,0,0-1.79,3.34H153.1a5.28,5.28,0,0,0-1.8-3.32,5.35,5.35,0,0,0-3.59-1.24A5.46,5.46,0,0,0,144.08,14Z"/><path class="cls-1" d="M185.72,21.08h-16.6a5.16,5.16,0,0,0,2.12,3.22,7,7,0,0,0,4.16,1.19,8.42,8.42,0,0,0,3-.51,7.36,7.36,0,0,0,2.47-1.61L184.29,27q-3.09,3.54-9,3.54a14.44,14.44,0,0,1-6.57-1.44,10.66,10.66,0,0,1-4.4-4,11.1,11.1,0,0,1-1.55-5.83,11.18,11.18,0,0,1,1.53-5.81,10.74,10.74,0,0,1,4.2-4,13,13,0,0,1,11.81-.06,10,10,0,0,1,4.09,4,11.75,11.75,0,0,1,1.49,6Q185.84,19.49,185.72,21.08Zm-14.88-7a5.21,5.21,0,0,0-1.8,3.34h10.81a5.23,5.23,0,0,0-5.38-4.56A5.42,5.42,0,0,0,170.84,14Z"/><path class="cls-1" d="M211,10.44q2.5,2.45,2.5,7.26V30.26h-6.36V18.68a5.75,5.75,0,0,0-1.14-3.9,4.2,4.2,0,0,0-3.3-1.28A5,5,0,0,0,198.89,15a6.15,6.15,0,0,0-1.42,4.42V30.26H191.1V8.32h6.08v2.57a8.32,8.32,0,0,1,3.14-2.14A10.79,10.79,0,0,1,204.44,8,9.06,9.06,0,0,1,211,10.44Z"/><path class="cls-1" d="M247,20.15V30.26h-6.6V20.06L229.35,1.71h7L244,14.4l7.62-12.69h6.48Z"/><path class="cls-1" d="M280.37,21.08h-16.6a5.16,5.16,0,0,0,2.12,3.22,7,7,0,0,0,4.16,1.19,8.38,8.38,0,0,0,3-.51,7.36,7.36,0,0,0,2.47-1.61L278.94,27q-3.09,3.54-9.05,3.54a14.36,14.36,0,0,1-6.56-1.44,10.62,10.62,0,0,1-4.41-4,11.1,11.1,0,0,1-1.55-5.83,11.18,11.18,0,0,1,1.53-5.81,10.74,10.74,0,0,1,4.2-4,13,13,0,0,1,11.81-.06,10,10,0,0,1,4.09,4,11.75,11.75,0,0,1,1.49,6Q280.49,19.49,280.37,21.08Zm-14.88-7a5.21,5.21,0,0,0-1.8,3.34H274.5a5.21,5.21,0,0,0-5.38-4.56A5.42,5.42,0,0,0,265.49,14Z"/><path class="cls-1" d="M301.82,10.42q2.73,2.43,2.73,7.32V30.26H298.6V27.53c-1.2,2-3.43,3-6.69,3a10.37,10.37,0,0,1-4.38-.85,6.56,6.56,0,0,1-2.84-2.37,6.14,6.14,0,0,1-1-3.42A5.69,5.69,0,0,1,286,19.13c1.53-1.17,3.91-1.76,7.11-1.76h5.06a4.07,4.07,0,0,0-1.26-3.2,5.58,5.58,0,0,0-3.8-1.12,11,11,0,0,0-3.44.55,9.11,9.11,0,0,0-2.88,1.49l-2.28-4.45a13.83,13.83,0,0,1,4.3-2A19,19,0,0,1,294,8Q299.09,8,301.82,10.42ZM296.4,25.55a4.13,4.13,0,0,0,1.79-2.22V21.08h-4.36q-3.91,0-3.92,2.57a2.29,2.29,0,0,0,1,1.94,4.3,4.3,0,0,0,2.63.71A5.59,5.59,0,0,0,296.4,25.55Z"/><path class="cls-1" d="M320.48,8.81A11.48,11.48,0,0,1,324.94,8v5.88c-.7-.06-1.18-.09-1.42-.09a5.85,5.85,0,0,0-4.29,1.53,6.2,6.2,0,0,0-1.55,4.59V30.26h-6.36V8.32h6.08v2.89A7,7,0,0,1,320.48,8.81Z"/><path class="cls-1" d="M331.88,29.91a14,14,0,0,1-4.16-1.69l2.12-4.57a13,13,0,0,0,3.55,1.53,14.57,14.57,0,0,0,4.07.59c2.7,0,4-.66,4-2a1.41,1.41,0,0,0-1.1-1.34,16.35,16.35,0,0,0-3.39-.69,34.57,34.57,0,0,1-4.44-.94,7,7,0,0,1-3-1.88,5.35,5.35,0,0,1-1.28-3.83,6,6,0,0,1,1.2-3.69A7.69,7.69,0,0,1,333,8.89,14.9,14.9,0,0,1,338.4,8,21.39,21.39,0,0,1,343,8.5a12.76,12.76,0,0,1,3.81,1.41l-2.12,4.53a12.64,12.64,0,0,0-6.32-1.63,6.45,6.45,0,0,0-3.06.57,1.68,1.68,0,0,0-1,1.46,1.46,1.46,0,0,0,1.1,1.43,20.32,20.32,0,0,0,3.51.78,38.16,38.16,0,0,1,4.41.95,6.58,6.58,0,0,1,3,1.86,5.24,5.24,0,0,1,1.27,3.75,5.77,5.77,0,0,1-1.23,3.63,7.82,7.82,0,0,1-3.56,2.47,16,16,0,0,1-5.57.87A21.24,21.24,0,0,1,331.88,29.91Z"/><path class="cls-2" d="M347,235.23H245a102,102,0,0,1,102-102h0Z"/><path class="cls-1" d="M347,235.23l72.12,72.13a102,102,0,0,1-144.24,0Q245,277.48,245,235.23Z"/><path class="cls-3" d="M347,235.23v-102a102,102,0,0,1,102,102q0,42.25-29.88,72.13Z"/><rect class="cls-1" y="200.73" width="94" height="13"/><rect class="cls-2" x="47" y="244.73" width="94" height="13"/><rect class="cls-3" x="3" y="294.73" width="94" height="13"/><path class="cls-4" d="M24,189.81a6,6,0,0,1,2.63,2.2,6.57,6.57,0,0,1,0,6.74A5.84,5.84,0,0,1,24,201a9.84,9.84,0,0,1-4,.76H16.44v4.83H12.39V189H20A9.84,9.84,0,0,1,24,189.81Zm-1.49,7.81a2.74,2.74,0,0,0,.95-2.23,2.8,2.8,0,0,0-.95-2.27,4.29,4.29,0,0,0-2.78-.78h-3.3v6.07h3.3A4.23,4.23,0,0,0,22.52,197.62Z"/><path class="cls-4" d="M40.89,194.38a5.66,5.66,0,0,1,1.68,4.48v7.68H38.92v-1.68c-.73,1.25-2.1,1.88-4.1,1.88a6.39,6.39,0,0,1-2.69-.53,4,4,0,0,1-1.74-1.45,3.74,3.74,0,0,1-.6-2.1,3.49,3.49,0,0,1,1.42-2.95,7.23,7.23,0,0,1,4.36-1.07h3.1a2.5,2.5,0,0,0-.78-2,3.44,3.44,0,0,0-2.32-.68,6.61,6.61,0,0,0-2.11.34,5.38,5.38,0,0,0-1.77.91l-1.4-2.73a8.91,8.91,0,0,1,2.64-1.2,12,12,0,0,1,3.16-.42A6.94,6.94,0,0,1,40.89,194.38Zm-3.32,9.27a2.53,2.53,0,0,0,1.1-1.36v-1.38H36c-1.6,0-2.4.53-2.4,1.58a1.39,1.39,0,0,0,.59,1.18,2.59,2.59,0,0,0,1.61.44A3.4,3.4,0,0,0,37.57,203.65Z"/><path class="cls-4" d="M52.33,193.39a6.9,6.9,0,0,1,2.74-.5v3.6c-.43,0-.73-.05-.88-.05a3.55,3.55,0,0,0-2.62.94,3.79,3.79,0,0,0-1,2.81v6.35h-3.9V193.09h3.72v1.77A4.34,4.34,0,0,1,52.33,193.39Z"/><path class="cls-4" d="M67.17,205.89a4,4,0,0,1-1.41.63,6.81,6.81,0,0,1-1.77.22,5.22,5.22,0,0,1-3.71-1.23,4.69,4.69,0,0,1-1.31-3.6v-5.52H56.89v-3H59v-3.28h3.9v3.28h3.35v3H62.87v5.47a1.78,1.78,0,0,0,.44,1.31,1.6,1.6,0,0,0,1.23.47,2.53,2.53,0,0,0,1.58-.5Z"/><path class="cls-4" d="M83.09,193.09,77,207.36a7.09,7.09,0,0,1-2.29,3.28,5.62,5.62,0,0,1-3.29,1,6.69,6.69,0,0,1-2.07-.33,4.49,4.49,0,0,1-1.68-.9l1.43-2.77a3.38,3.38,0,0,0,1,.62,3.24,3.24,0,0,0,1.16.23,2.05,2.05,0,0,0,1.3-.39,3.38,3.38,0,0,0,.9-1.29l0-.12-5.83-13.55h4l3.77,9.12,3.8-9.12Z"/><path class="cls-4" d="M85.52,190.59a2,2,0,0,1-.68-1.55,2,2,0,0,1,.68-1.55,2.46,2.46,0,0,1,1.75-.63,2.53,2.53,0,0,1,1.75.6,1.92,1.92,0,0,1,.67,1.5,2.14,2.14,0,0,1-.67,1.62,2.46,2.46,0,0,1-1.75.63A2.49,2.49,0,0,1,85.52,190.59Zm-.2,2.5h3.9v13.45h-3.9Z"/><path class="cls-4" d="M105.68,194.39a5.92,5.92,0,0,1,1.54,4.45v7.7h-3.9v-7.1a3.55,3.55,0,0,0-.7-2.39,2.56,2.56,0,0,0-2-.79,3.15,3.15,0,0,0-2.35.91,3.81,3.81,0,0,0-.87,2.72v6.65h-3.9V193.09h3.72v1.57a5.29,5.29,0,0,1,1.93-1.31,6.68,6.68,0,0,1,2.52-.46A5.53,5.53,0,0,1,105.68,194.39Z"/><path class="cls-4" d="M125.39,193.09v11.2c0,2.46-.64,4.3-1.92,5.5a8,8,0,0,1-5.63,1.8,14,14,0,0,1-3.7-.48,8.05,8.05,0,0,1-2.9-1.37l1.55-2.8a6.7,6.7,0,0,0,2.15,1.11,8.45,8.45,0,0,0,2.6.41,4.21,4.21,0,0,0,3-.91,3.64,3.64,0,0,0,1-2.76v-.58a5.43,5.43,0,0,1-4.25,1.68,7.12,7.12,0,0,1-3.38-.81,6.25,6.25,0,0,1-2.44-2.29,6.87,6.87,0,0,1,0-6.8,6.11,6.11,0,0,1,2.44-2.29,7.12,7.12,0,0,1,3.38-.81,5.34,5.34,0,0,1,4.45,1.92v-1.72Zm-4.83,8.68a3.39,3.39,0,0,0,0-4.77,4,4,0,0,0-5.09,0,3.34,3.34,0,0,0,0,4.77,4,4,0,0,0,5.09,0Z"/><path class="cls-4" d="M38.84,285l-5.72,17.5H28.77l-3.85-11.85-4,11.85H16.62L10.87,285h4.2L19,297.34,23.14,285h3.75l4,12.4L35,285Z"/><path class="cls-4" d="M43,301.85a6.66,6.66,0,0,1-2.64-2.46A6.83,6.83,0,0,1,43,289.77a8.1,8.1,0,0,1,3.81-.88,8,8,0,0,1,3.8.88,6.66,6.66,0,0,1,2.63,2.47,7.2,7.2,0,0,1,0,7.15,6.57,6.57,0,0,1-2.63,2.46,8,8,0,0,1-3.8.89A8.11,8.11,0,0,1,43,301.85Zm6.28-3.33a4.31,4.31,0,0,0,0-5.42,3.53,3.53,0,0,0-4.94,0,4.24,4.24,0,0,0,0,5.42,3.5,3.5,0,0,0,4.94,0Z"/><path class="cls-4" d="M63.06,289.39a6.85,6.85,0,0,1,2.73-.5v3.6c-.43,0-.72-.05-.87-.05a3.57,3.57,0,0,0-2.63.94,3.79,3.79,0,0,0-.95,2.81v6.35h-3.9V289.09h3.73v1.77A4.34,4.34,0,0,1,63.06,289.39Z"/><path class="cls-4" d="M74.52,297.26l-1.87,1.85v3.43h-3.9V284h3.9v10.5l5.7-5.4H83l-5.6,5.7,6.1,7.75H78.77Z"/><path class="cls-4" d="M86,286.59A2,2,0,0,1,85.3,285a2,2,0,0,1,.67-1.55,2.46,2.46,0,0,1,1.75-.63,2.53,2.53,0,0,1,1.75.6,1.93,1.93,0,0,1,.68,1.5,2.15,2.15,0,0,1-.68,1.62,2.46,2.46,0,0,1-1.75.63A2.49,2.49,0,0,1,86,286.59Zm-.2,2.5h3.9v13.45h-3.9Z"/><path class="cls-4" d="M106.13,290.39a5.92,5.92,0,0,1,1.54,4.45v7.7h-3.9v-7.1a3.5,3.5,0,0,0-.7-2.39,2.56,2.56,0,0,0-2-.79,3.15,3.15,0,0,0-2.35.91,3.81,3.81,0,0,0-.87,2.72v6.65h-3.9V289.09h3.72v1.57a5.29,5.29,0,0,1,1.93-1.31,6.68,6.68,0,0,1,2.52-.46A5.53,5.53,0,0,1,106.13,290.39Z"/><path class="cls-4" d="M125.84,289.09v11.2c0,2.46-.64,4.3-1.92,5.5a8,8,0,0,1-5.63,1.8,14,14,0,0,1-3.7-.48,8.05,8.05,0,0,1-2.9-1.37l1.55-2.8a6.7,6.7,0,0,0,2.15,1.11,8.45,8.45,0,0,0,2.6.41,4.21,4.21,0,0,0,3-.91,3.64,3.64,0,0,0,1-2.76v-.58a5.43,5.43,0,0,1-4.25,1.68,7.12,7.12,0,0,1-3.38-.81,6.25,6.25,0,0,1-2.44-2.29,6.87,6.87,0,0,1,0-6.8,6.11,6.11,0,0,1,2.44-2.29,7.12,7.12,0,0,1,3.38-.81,5.34,5.34,0,0,1,4.45,1.92v-1.72ZM121,297.77a3.39,3.39,0,0,0,0-4.77,4,4,0,0,0-5.09,0,3.34,3.34,0,0,0,0,4.77,4,4,0,0,0,5.09,0Z"/><path class="cls-4" d="M14.13,253.27A9.28,9.28,0,0,1,11,251.81l1.37-3.05a9.59,9.59,0,0,0,2.68,1.33,10.15,10.15,0,0,0,3.1.5,5,5,0,0,0,2.55-.51,1.56,1.56,0,0,0,.82-1.37,1.33,1.33,0,0,0-.48-1,3.88,3.88,0,0,0-1.25-.66c-.51-.16-1.2-.35-2.07-.55a26.69,26.69,0,0,1-3.27-1A5.27,5.27,0,0,1,12.28,244a4.12,4.12,0,0,1-.91-2.8,4.89,4.89,0,0,1,.82-2.77,5.62,5.62,0,0,1,2.49-2,10.21,10.21,0,0,1,4.06-.72,13.33,13.33,0,0,1,3.28.4,9.46,9.46,0,0,1,2.8,1.15l-1.25,3.07A9.82,9.82,0,0,0,18.72,239a4.51,4.51,0,0,0-2.51.55,1.68,1.68,0,0,0-.82,1.45,1.44,1.44,0,0,0,.94,1.34,15.53,15.53,0,0,0,2.86.86,26.38,26.38,0,0,1,3.28.95,5.31,5.31,0,0,1,2.19,1.5,4.05,4.05,0,0,1,.91,2.77,4.76,4.76,0,0,1-.84,2.74,5.55,5.55,0,0,1-2.51,2,10.16,10.16,0,0,1-4.08.73A14.13,14.13,0,0,1,14.13,253.27Z"/><path class="cls-4" d="M31.33,252.85a6.9,6.9,0,0,1-2.67-9.61,6.71,6.71,0,0,1,2.67-2.47,8.28,8.28,0,0,1,3.86-.88,7.52,7.52,0,0,1,3.72.88,5.33,5.33,0,0,1,2.31,2.54l-3,1.63a3.28,3.28,0,0,0-3-1.85,3.42,3.42,0,0,0-2.53,1,3.69,3.69,0,0,0-1,2.72,3.73,3.73,0,0,0,1,2.73,3.46,3.46,0,0,0,2.53,1,3.27,3.27,0,0,0,3-1.85l3,1.65a5.42,5.42,0,0,1-2.31,2.5,7.42,7.42,0,0,1-3.72.9A8.29,8.29,0,0,1,31.33,252.85Z"/><path class="cls-4" d="M56.21,241.39a6,6,0,0,1,1.53,4.45v7.7h-3.9v-7.1a3.5,3.5,0,0,0-.7-2.39,2.54,2.54,0,0,0-2-.79,3.12,3.12,0,0,0-2.35.91,3.77,3.77,0,0,0-.88,2.72v6.65H44V235h3.9v6.5a5.29,5.29,0,0,1,1.88-1.19,6.65,6.65,0,0,1,2.4-.41A5.56,5.56,0,0,1,56.21,241.39Z"/><path class="cls-4" d="M64.63,252.85A6.53,6.53,0,0,1,62,250.39a7.2,7.2,0,0,1,0-7.15,6.63,6.63,0,0,1,2.64-2.47,8.67,8.67,0,0,1,7.61,0,6.73,6.73,0,0,1,2.63,2.47,7.2,7.2,0,0,1,0,7.15,6.64,6.64,0,0,1-2.63,2.46,8.58,8.58,0,0,1-7.61,0Zm6.27-3.33a4.27,4.27,0,0,0,0-5.42,3.22,3.22,0,0,0-2.46-1,3.26,3.26,0,0,0-2.47,1,4.24,4.24,0,0,0,0,5.42,3.27,3.27,0,0,0,2.47,1A3.23,3.23,0,0,0,70.9,249.52Z"/><path class="cls-4" d="M81.63,252.85A6.53,6.53,0,0,1,79,250.39a7.2,7.2,0,0,1,0-7.15,6.63,6.63,0,0,1,2.64-2.47,8.67,8.67,0,0,1,7.61,0,6.73,6.73,0,0,1,2.63,2.47,7.2,7.2,0,0,1,0,7.15,6.64,6.64,0,0,1-2.63,2.46,8.58,8.58,0,0,1-7.61,0Zm6.27-3.33a4.27,4.27,0,0,0,0-5.42,3.22,3.22,0,0,0-2.46-1,3.26,3.26,0,0,0-2.47,1,4.24,4.24,0,0,0,0,5.42,3.27,3.27,0,0,0,2.47,1A3.23,3.23,0,0,0,87.9,249.52Z"/><path class="cls-4" d="M96,235h3.9v18.55H96Z"/></g></g></svg>