<svg xmlns="http://www.w3.org/2000/svg" viewBox="0 0 473 365"><defs><style>.cls-1{fill:#fff;}.cls-2{fill:#6dfebf;}.cls-3{fill:#9ce1fd;}.cls-4{fill:#ff9492;}.cls-5{fill:#534d72;}</style></defs><title>Asset 8</title><g id="Layer_2" data-name="Layer 2"><g id="Layer_8" data-name="Layer 8"><rect class="cls-1" width="473" height="365"/><path class="cls-2" d="M29.62,9.28H20.48V3.9H45.36V9.28H36.22V32.45h-6.6Z"/><path class="cls-2" d="M69.4,12.63q2.5,2.44,2.51,7.26V32.45H65.54V20.87A5.75,5.75,0,0,0,64.4,17a4.2,4.2,0,0,0-3.3-1.28,5,5,0,0,0-3.83,1.49,6.11,6.11,0,0,0-1.43,4.42V32.45H49.48V2.19h6.36v10.6a8.48,8.48,0,0,1,3.06-1.94,11.22,11.22,0,0,1,3.91-.67A9,9,0,0,1,69.4,12.63Z"/><path class="cls-2" d="M100.29,23.27H83.69a5.16,5.16,0,0,0,2.12,3.22A7,7,0,0,0,90,27.68a8.46,8.46,0,0,0,3-.51,7.56,7.56,0,0,0,2.47-1.61l3.38,3.67q-3.1,3.54-9,3.54a14.38,14.38,0,0,1-6.57-1.44,10.66,10.66,0,0,1-4.4-4,11,11,0,0,1-1.55-5.83,11.18,11.18,0,0,1,1.53-5.81,10.67,10.67,0,0,1,4.2-4,12.38,12.38,0,0,1,6-1.45,12.16,12.16,0,0,1,5.83,1.39,10.11,10.11,0,0,1,4.1,4,11.92,11.92,0,0,1,1.49,6Q100.41,21.68,100.29,23.27Zm-14.89-7a5.19,5.19,0,0,0-1.79,3.34H94.42a5.26,5.26,0,0,0-1.8-3.32A5.36,5.36,0,0,0,89,15,5.47,5.47,0,0,0,85.4,16.22Z"/><path class="cls-2" d="M124.45,31a14.19,14.19,0,0,1-5.55-5.26,14.54,14.54,0,0,1-2-7.61,14.53,14.53,0,0,1,2-7.6,14.19,14.19,0,0,1,5.55-5.26,16.42,16.42,0,0,1,7.93-1.9,16.63,16.63,0,0,1,6.71,1.31,13.45,13.45,0,0,1,5,3.75l-4.24,3.91A9.16,9.16,0,0,0,132.71,9,9.55,9.55,0,0,0,128,10.2a8.27,8.27,0,0,0-3.24,3.24,9.51,9.51,0,0,0-1.17,4.73,9.52,9.52,0,0,0,1.17,4.74A8.27,8.27,0,0,0,128,26.15a9.55,9.55,0,0,0,4.73,1.16,9.08,9.08,0,0,0,7.18-3.39l4.24,3.92a13.23,13.23,0,0,1-5.06,3.79,16.8,16.8,0,0,1-6.73,1.31A16.32,16.32,0,0,1,124.45,31Z"/><path class="cls-2" d="M169.06,12.63c1.68,1.63,2.51,4,2.51,7.26V32.45h-6.36V20.87a5.75,5.75,0,0,0-1.14-3.9,4.21,4.21,0,0,0-3.31-1.28,5,5,0,0,0-3.83,1.49,6.15,6.15,0,0,0-1.43,4.42V32.45h-6.36V2.19h6.36v10.6a8.65,8.65,0,0,1,3.06-1.94,11.28,11.28,0,0,1,3.92-.67A9,9,0,0,1,169.06,12.63Z"/><path class="cls-2" d="M178.67,6.43a3.28,3.28,0,0,1-1.1-2.53,3.3,3.3,0,0,1,1.1-2.53,4,4,0,0,1,2.85-1,4.17,4.17,0,0,1,2.86,1,3.15,3.15,0,0,1,1.1,2.45,3.47,3.47,0,0,1-1.1,2.63,4.47,4.47,0,0,1-5.71,0Zm-.33,4.08h6.36V32.45h-6.36Z"/><path class="cls-2" d="M191.63,2.19H198V32.45h-6.37Z"/><path class="cls-2" d="M227.28,2.19V32.45H221.2V29.92a8.4,8.4,0,0,1-6.85,2.85,11.43,11.43,0,0,1-5.61-1.38,10,10,0,0,1-3.93-4,12,12,0,0,1-1.43-5.95,12,12,0,0,1,1.43-6,9.89,9.89,0,0,1,3.93-3.95,11.33,11.33,0,0,1,5.61-1.39,8.35,8.35,0,0,1,6.56,2.65V2.19ZM219.45,25.9A6.1,6.1,0,0,0,221,21.48a6.12,6.12,0,0,0-1.59-4.43,5.72,5.72,0,0,0-8,0,6.12,6.12,0,0,0-1.59,4.43,6.1,6.1,0,0,0,1.59,4.42,5.72,5.72,0,0,0,8,0Z"/><path class="cls-2" d="M260.88,22.33V32.45h-6.61V22.25L243.22,3.9h7l7.63,12.68L265.49,3.9H272Z"/><path class="cls-2" d="M294.24,23.27h-16.6a5.12,5.12,0,0,0,2.12,3.22,7,7,0,0,0,4.16,1.19,8.46,8.46,0,0,0,3-.51,7.42,7.42,0,0,0,2.46-1.61l3.39,3.67q-3.1,3.54-9.06,3.54a14.36,14.36,0,0,1-6.56-1.44,10.66,10.66,0,0,1-4.4-4,11,11,0,0,1-1.55-5.83,11.27,11.27,0,0,1,1.52-5.81,10.67,10.67,0,0,1,4.2-4,12.45,12.45,0,0,1,6-1.45,12.16,12.16,0,0,1,5.83,1.39,10.11,10.11,0,0,1,4.1,4,11.92,11.92,0,0,1,1.49,6Q294.36,21.68,294.24,23.27Zm-14.89-7a5.15,5.15,0,0,0-1.79,3.34h10.8a5.2,5.2,0,0,0-1.79-3.32A5.38,5.38,0,0,0,283,15,5.47,5.47,0,0,0,279.35,16.22Z"/><path class="cls-2" d="M315.69,12.61q2.73,2.43,2.73,7.32V32.45h-6V29.72q-1.79,3-6.68,3.05a10.42,10.42,0,0,1-4.39-.85,6.53,6.53,0,0,1-2.83-2.37,6.14,6.14,0,0,1-1-3.42,5.74,5.74,0,0,1,2.3-4.82c1.54-1.16,3.91-1.75,7.12-1.75h5.06a4.06,4.06,0,0,0-1.27-3.2A5.54,5.54,0,0,0,307,15.24a11,11,0,0,0-3.45.55,9.16,9.16,0,0,0-2.87,1.49l-2.28-4.45a13.73,13.73,0,0,1,4.3-1.95,19,19,0,0,1,5.16-.7C311.25,10.18,313.87,11,315.69,12.61Zm-5.43,15.13a4.19,4.19,0,0,0,1.8-2.22V23.27h-4.37q-3.92,0-3.91,2.57a2.29,2.29,0,0,0,1,1.94,4.35,4.35,0,0,0,2.63.71A5.56,5.56,0,0,0,310.26,27.74Z"/><path class="cls-2" d="M334.34,11a11.32,11.32,0,0,1,4.47-.82v5.87c-.71-.05-1.18-.08-1.43-.08a5.82,5.82,0,0,0-4.28,1.53,6.2,6.2,0,0,0-1.55,4.59V32.45h-6.36V10.51h6.07V13.4A7.1,7.1,0,0,1,334.34,11Z"/><path class="cls-2" d="M345.74,32.1a14,14,0,0,1-4.16-1.69l2.12-4.57a13,13,0,0,0,3.55,1.53,14.69,14.69,0,0,0,4.08.59c2.69,0,4-.66,4-2a1.41,1.41,0,0,0-1.11-1.34,16.93,16.93,0,0,0-3.38-.7,33,33,0,0,1-4.45-.93,6.87,6.87,0,0,1-3-1.88,5.31,5.31,0,0,1-1.29-3.83,6,6,0,0,1,1.2-3.69,7.8,7.8,0,0,1,3.51-2.51,15,15,0,0,1,5.45-.9,21.24,21.24,0,0,1,4.62.51,12.94,12.94,0,0,1,3.82,1.41l-2.12,4.52A12.74,12.74,0,0,0,352.27,15a6.45,6.45,0,0,0-3.06.57,1.7,1.7,0,0,0-1,1.47,1.45,1.45,0,0,0,1.1,1.43,19.17,19.17,0,0,0,3.51.77,37.68,37.68,0,0,1,4.4,1,6.66,6.66,0,0,1,3,1.86,5.28,5.28,0,0,1,1.26,3.75,5.82,5.82,0,0,1-1.22,3.63,7.9,7.9,0,0,1-3.57,2.47,16,16,0,0,1-5.57.87A21.24,21.24,0,0,1,345.74,32.1Z"/><path class="cls-3" d="M358,263.5V365a101.5,101.5,0,1,1,0-203h0Z"/><path class="cls-2" d="M358,263.5,389.36,167a101.51,101.51,0,0,1,65.17,127.9C440.67,337.52,402.84,365,358,365Z"/><path class="cls-4" d="M358,263.5V162a96.57,96.57,0,0,1,31.36,5Z"/><rect class="cls-4" x="58" y="273" width="94" height="13"/><rect class="cls-3" x="3" y="213" width="94" height="13"/><rect class="cls-2" x="60" y="323" width="94" height="13"/><path class="cls-5" d="M25.13,234.55A9.48,9.48,0,0,1,22,233.08L23.39,230a9.59,9.59,0,0,0,2.68,1.33,10.15,10.15,0,0,0,3.1.5,5,5,0,0,0,2.55-.51,1.56,1.56,0,0,0,.82-1.37,1.3,1.3,0,0,0-.48-1,3.71,3.71,0,0,0-1.25-.67c-.51-.16-1.2-.35-2.07-.55a26.69,26.69,0,0,1-3.27-.95,5.27,5.27,0,0,1-2.19-1.52,4.12,4.12,0,0,1-.91-2.8,4.84,4.84,0,0,1,.82-2.76,5.57,5.57,0,0,1,2.49-2,10.21,10.21,0,0,1,4.06-.72,13.33,13.33,0,0,1,3.28.4,9.46,9.46,0,0,1,2.8,1.15l-1.25,3.07a9.82,9.82,0,0,0-4.85-1.37,4.51,4.51,0,0,0-2.51.55,1.68,1.68,0,0,0-.82,1.45,1.44,1.44,0,0,0,.94,1.34,15.53,15.53,0,0,0,2.86.86,26.38,26.38,0,0,1,3.28.95,5.51,5.51,0,0,1,2.19,1.5,4.05,4.05,0,0,1,.91,2.77,4.76,4.76,0,0,1-.84,2.74,5.55,5.55,0,0,1-2.51,2,10.16,10.16,0,0,1-4.08.73A14.49,14.49,0,0,1,25.13,234.55Z"/><path class="cls-5" d="M51.06,222a6.26,6.26,0,0,1,2.41,2.43,8,8,0,0,1,0,7.27,6.32,6.32,0,0,1-2.41,2.43,7,7,0,0,1-3.42.86,5.19,5.19,0,0,1-4-1.63v6.28h-3.9v-18.3h3.73v1.55a5.14,5.14,0,0,1,4.22-1.75A7,7,0,0,1,51.06,222Zm-1.63,8.78a4.32,4.32,0,0,0,0-5.43,3.5,3.5,0,0,0-4.92,0,4.28,4.28,0,0,0,0,5.43,3.5,3.5,0,0,0,4.92,0Z"/><path class="cls-5" d="M60.16,234.12a6.53,6.53,0,0,1-2.64-2.46,7.2,7.2,0,0,1,0-7.15,6.53,6.53,0,0,1,2.64-2.46,8.58,8.58,0,0,1,7.61,0,6.61,6.61,0,0,1,2.62,2.46,7.2,7.2,0,0,1,0,7.15,6.61,6.61,0,0,1-2.62,2.46,8.58,8.58,0,0,1-7.61,0Zm6.27-3.32a4.32,4.32,0,0,0,0-5.43,3.26,3.26,0,0,0-2.46-1,3.32,3.32,0,0,0-2.48,1,4.28,4.28,0,0,0,0,5.43,3.32,3.32,0,0,0,2.48,1A3.26,3.26,0,0,0,66.43,230.8Z"/><path class="cls-5" d="M80.18,221.66a6.87,6.87,0,0,1,2.74-.5v3.6l-.88,0a3.55,3.55,0,0,0-2.62.94,3.79,3.79,0,0,0-1,2.81v6.35h-3.9V221.36h3.72v1.77A4.34,4.34,0,0,1,80.18,221.66Z"/><path class="cls-5" d="M95,234.16a4.17,4.17,0,0,1-1.41.64,7.27,7.27,0,0,1-1.77.21,5.22,5.22,0,0,1-3.71-1.23,4.69,4.69,0,0,1-1.31-3.6v-5.52H84.74v-3h2.08v-3.28h3.9v3.28h3.35v3H90.72v5.47a1.82,1.82,0,0,0,.44,1.32,1.64,1.64,0,0,0,1.23.46,2.53,2.53,0,0,0,1.58-.5Z"/><path class="cls-5" d="M99.09,234.6a8.75,8.75,0,0,1-2.55-1l1.3-2.8a8.62,8.62,0,0,0,2.18.94,9.16,9.16,0,0,0,2.5.36c1.65,0,2.47-.41,2.47-1.23a.85.85,0,0,0-.67-.82,9.9,9.9,0,0,0-2.08-.43,18.69,18.69,0,0,1-2.72-.57,4.2,4.2,0,0,1-1.86-1.15,3.26,3.26,0,0,1-.79-2.35,3.61,3.61,0,0,1,.74-2.26,4.64,4.64,0,0,1,2.15-1.54,9.08,9.08,0,0,1,3.33-.55,13,13,0,0,1,2.84.31,8.25,8.25,0,0,1,2.34.86l-1.3,2.78a7.74,7.74,0,0,0-3.88-1,4,4,0,0,0-1.87.35,1,1,0,0,0-.63.9.89.89,0,0,0,.68.87,11.64,11.64,0,0,0,2.15.48,22,22,0,0,1,2.7.59,3.92,3.92,0,0,1,1.82,1.13,3.22,3.22,0,0,1,.78,2.3A3.55,3.55,0,0,1,108,233a4.8,4.8,0,0,1-2.19,1.51,9.68,9.68,0,0,1-3.41.54A13.34,13.34,0,0,1,99.09,234.6Z"/><path class="cls-5" d="M40.22,313.31l-7.58,17.5h-4l-7.55-17.5h4.38l5.32,12.5,5.4-12.5Z"/><path class="cls-5" d="M42.47,314.86a2,2,0,0,1-.68-1.55,2,2,0,0,1,.68-1.55,2.46,2.46,0,0,1,1.75-.63,2.53,2.53,0,0,1,1.75.6,1.92,1.92,0,0,1,.67,1.5,2.14,2.14,0,0,1-.67,1.62,2.46,2.46,0,0,1-1.75.63A2.49,2.49,0,0,1,42.47,314.86Zm-.2,2.5h3.9v13.45h-3.9Z"/><path class="cls-5" d="M64.12,312.26v18.55H60.39v-1.55a5.15,5.15,0,0,1-4.2,1.75,6.92,6.92,0,0,1-3.43-.85,6.15,6.15,0,0,1-2.42-2.43,8.09,8.09,0,0,1,0-7.3A6.06,6.06,0,0,1,52.76,318a6.92,6.92,0,0,1,3.43-.85,5.13,5.13,0,0,1,4,1.62v-6.52Zm-4.8,14.54a4.28,4.28,0,0,0,0-5.43,3.28,3.28,0,0,0-2.45-1,3.32,3.32,0,0,0-2.48,1,4.28,4.28,0,0,0,0,5.43,3.32,3.32,0,0,0,2.48,1A3.28,3.28,0,0,0,59.32,326.8Z"/><path class="cls-5" d="M81.44,325.18H71.27a3.14,3.14,0,0,0,1.3,2,4.31,4.31,0,0,0,2.55.72,5.11,5.11,0,0,0,1.86-.31,4.49,4.49,0,0,0,1.51-1l2.08,2.25A7,7,0,0,1,75,331a8.82,8.82,0,0,1-4-.89,6.57,6.57,0,0,1-2.7-2.46,6.82,6.82,0,0,1-1-3.58,6.94,6.94,0,0,1,.94-3.56,6.52,6.52,0,0,1,2.58-2.47,7.95,7.95,0,0,1,7.23,0,6.17,6.17,0,0,1,2.52,2.44,7.3,7.3,0,0,1,.91,3.68C81.52,324.18,81.49,324.53,81.44,325.18Zm-9.12-4.32a3.17,3.17,0,0,0-1.1,2.05h6.62a3.22,3.22,0,0,0-1.1-2,3.27,3.27,0,0,0-2.2-.76A3.35,3.35,0,0,0,72.32,320.86Z"/><path class="cls-5" d="M87.33,330.12a6.66,6.66,0,0,1-2.64-2.46,7.2,7.2,0,0,1,0-7.15,6.66,6.66,0,0,1,2.64-2.46,8,8,0,0,1,3.81-.89,7.87,7.87,0,0,1,3.8.89,6.64,6.64,0,0,1,2.63,2.46,7.2,7.2,0,0,1,0,7.15,6.64,6.64,0,0,1-2.63,2.46,8,8,0,0,1-3.8.89A8.11,8.11,0,0,1,87.33,330.12Zm6.28-3.32a4.32,4.32,0,0,0,0-5.43,3.53,3.53,0,0,0-4.94,0,4.25,4.25,0,0,0,0,5.43,3.53,3.53,0,0,0,4.94,0Z"/><path class="cls-5" d="M121.54,321.78h3.7v7.1a10.43,10.43,0,0,1-3.3,1.65,12.6,12.6,0,0,1-3.77.58,10.28,10.28,0,0,1-4.9-1.16,8.63,8.63,0,0,1-3.41-3.23,9.38,9.38,0,0,1,0-9.32,8.61,8.61,0,0,1,3.43-3.23,10.51,10.51,0,0,1,4.95-1.16,11,11,0,0,1,4.18.77,8.34,8.34,0,0,1,3.15,2.25l-2.6,2.4a6,6,0,0,0-4.53-2,6.12,6.12,0,0,0-3,.7,5,5,0,0,0-2,2,5.86,5.86,0,0,0-.72,2.93,5.8,5.8,0,0,0,.72,2.9,5.22,5.22,0,0,0,2,2,6,6,0,0,0,2.93.71,6.55,6.55,0,0,0,3.15-.75Z"/><path class="cls-5" d="M139.57,318.65a5.69,5.69,0,0,1,1.67,4.48v7.68h-3.65v-1.68c-.73,1.25-2.1,1.88-4.1,1.88a6.31,6.31,0,0,1-2.68-.53,4,4,0,0,1-1.74-1.45,3.74,3.74,0,0,1-.6-2.1,3.51,3.51,0,0,1,1.41-2.95,7.25,7.25,0,0,1,4.36-1.07h3.1a2.49,2.49,0,0,0-.77-2,3.41,3.41,0,0,0-2.33-.69,6.66,6.66,0,0,0-2.11.34,5.33,5.33,0,0,0-1.76.91l-1.4-2.73a8.68,8.68,0,0,1,2.64-1.2,11.86,11.86,0,0,1,3.16-.42A7,7,0,0,1,139.57,318.65Zm-3.33,9.27a2.49,2.49,0,0,0,1.1-1.36v-1.38h-2.67c-1.6,0-2.4.53-2.4,1.58a1.4,1.4,0,0,0,.59,1.19,2.63,2.63,0,0,0,1.61.43A3.36,3.36,0,0,0,136.24,327.92Z"/><path class="cls-5" d="M166.63,318.65a6,6,0,0,1,1.49,4.46v7.7h-3.9v-7.1a3.66,3.66,0,0,0-.66-2.39,2.37,2.37,0,0,0-1.89-.79,2.8,2.8,0,0,0-2.18.89,3.84,3.84,0,0,0-.8,2.64v6.75h-3.9v-7.1q0-3.18-2.55-3.18a2.77,2.77,0,0,0-2.15.89,3.84,3.84,0,0,0-.8,2.64v6.75h-3.9V317.36h3.73v1.55a4.86,4.86,0,0,1,1.84-1.3,6.15,6.15,0,0,1,2.38-.45,5.88,5.88,0,0,1,2.58.56,4.64,4.64,0,0,1,1.85,1.64,5.54,5.54,0,0,1,2.09-1.63,6.62,6.62,0,0,1,2.76-.57A5.39,5.39,0,0,1,166.63,318.65Z"/><path class="cls-5" d="M185.49,325.18H175.32a3.14,3.14,0,0,0,1.3,2,4.31,4.31,0,0,0,2.55.72,5.11,5.11,0,0,0,1.86-.31,4.49,4.49,0,0,0,1.51-1l2.08,2.25a7,7,0,0,1-5.55,2.18,8.82,8.82,0,0,1-4-.89,6.57,6.57,0,0,1-2.7-2.46,6.82,6.82,0,0,1-1-3.58,6.94,6.94,0,0,1,.94-3.56,6.52,6.52,0,0,1,2.58-2.47,7.95,7.95,0,0,1,7.23,0,6.17,6.17,0,0,1,2.52,2.44,7.3,7.3,0,0,1,.91,3.68C185.57,324.18,185.54,324.53,185.49,325.18Zm-9.12-4.32a3.17,3.17,0,0,0-1.1,2.05h6.62a3.22,3.22,0,0,0-1.1-2,3.27,3.27,0,0,0-2.2-.76A3.35,3.35,0,0,0,176.37,320.86Z"/><path class="cls-5" d="M190,330.6a8.75,8.75,0,0,1-2.55-1l1.3-2.8a8.62,8.62,0,0,0,2.18.94,9.16,9.16,0,0,0,2.5.36c1.65,0,2.47-.41,2.47-1.23a.85.85,0,0,0-.67-.82,9.9,9.9,0,0,0-2.08-.43,18.4,18.4,0,0,1-2.72-.57,4.2,4.2,0,0,1-1.86-1.15,3.26,3.26,0,0,1-.79-2.35,3.61,3.61,0,0,1,.74-2.26,4.64,4.64,0,0,1,2.15-1.54,9.08,9.08,0,0,1,3.33-.55,13,13,0,0,1,2.84.31,8.25,8.25,0,0,1,2.34.86l-1.3,2.78a7.76,7.76,0,0,0-3.88-1,4,4,0,0,0-1.87.35,1,1,0,0,0-.63.9.89.89,0,0,0,.68.87,11.45,11.45,0,0,0,2.15.48,22,22,0,0,1,2.7.59,3.92,3.92,0,0,1,1.82,1.13,3.22,3.22,0,0,1,.78,2.3,3.55,3.55,0,0,1-.75,2.23,4.8,4.8,0,0,1-2.19,1.51,9.72,9.72,0,0,1-3.41.54A13.34,13.34,0,0,1,190,330.6Z"/><path class="cls-5" d="M25.13,281.55A9.48,9.48,0,0,1,22,280.08L23.39,277a9.59,9.59,0,0,0,2.68,1.33,10.15,10.15,0,0,0,3.1.5,5,5,0,0,0,2.55-.51,1.56,1.56,0,0,0,.82-1.37,1.3,1.3,0,0,0-.48-1,3.71,3.71,0,0,0-1.25-.67c-.51-.16-1.2-.35-2.07-.55a26.69,26.69,0,0,1-3.27-1,5.27,5.27,0,0,1-2.19-1.52,4.12,4.12,0,0,1-.91-2.8,4.84,4.84,0,0,1,.82-2.76,5.57,5.57,0,0,1,2.49-2,10.21,10.21,0,0,1,4.06-.72,13.33,13.33,0,0,1,3.28.4,9.46,9.46,0,0,1,2.8,1.15l-1.25,3.07a9.82,9.82,0,0,0-4.85-1.37,4.51,4.51,0,0,0-2.51.55,1.68,1.68,0,0,0-.82,1.45,1.44,1.44,0,0,0,.94,1.34,15.53,15.53,0,0,0,2.86.86,26.38,26.38,0,0,1,3.28,1,5.51,5.51,0,0,1,2.19,1.5,4.05,4.05,0,0,1,.91,2.77,4.76,4.76,0,0,1-.84,2.74,5.55,5.55,0,0,1-2.51,2,10.16,10.16,0,0,1-4.08.73A14.49,14.49,0,0,1,25.13,281.55Z"/><path class="cls-5" d="M42.33,281.12a6.78,6.78,0,0,1,0-12.07,8.17,8.17,0,0,1,3.86-.89,7.42,7.42,0,0,1,3.72.89,5.26,5.26,0,0,1,2.31,2.53l-3,1.63a3.3,3.3,0,0,0-3-1.85,3.42,3.42,0,0,0-2.53,1,3.69,3.69,0,0,0-1,2.72,3.73,3.73,0,0,0,1,2.73,3.42,3.42,0,0,0,2.53,1,3.27,3.27,0,0,0,3-1.85l3,1.65a5.42,5.42,0,0,1-2.31,2.5,7.42,7.42,0,0,1-3.72.9A8.29,8.29,0,0,1,42.33,281.12Z"/><path class="cls-5" d="M67.21,269.66a6,6,0,0,1,1.53,4.45v7.7h-3.9v-7.1a3.5,3.5,0,0,0-.7-2.39,2.57,2.57,0,0,0-2-.79,3.09,3.09,0,0,0-2.35.92,3.73,3.73,0,0,0-.88,2.71v6.65H55V263.26h3.9v6.5a5.29,5.29,0,0,1,1.88-1.19,6.87,6.87,0,0,1,2.4-.41A5.56,5.56,0,0,1,67.21,269.66Z"/><path class="cls-5" d="M75.63,281.12A6.53,6.53,0,0,1,73,278.66a7.2,7.2,0,0,1,0-7.15,6.53,6.53,0,0,1,2.64-2.46,8.58,8.58,0,0,1,7.61,0,6.64,6.64,0,0,1,2.63,2.46,7.2,7.2,0,0,1,0,7.15,6.64,6.64,0,0,1-2.63,2.46,8.58,8.58,0,0,1-7.61,0Zm6.27-3.32a4.28,4.28,0,0,0,0-5.43,3.26,3.26,0,0,0-2.46-1,3.29,3.29,0,0,0-2.47,1,4.25,4.25,0,0,0,0,5.43,3.29,3.29,0,0,0,2.47,1A3.26,3.26,0,0,0,81.9,277.8Z"/><path class="cls-5" d="M92.63,281.12A6.53,6.53,0,0,1,90,278.66a7.2,7.2,0,0,1,0-7.15,6.53,6.53,0,0,1,2.64-2.46,8.58,8.58,0,0,1,7.61,0,6.64,6.64,0,0,1,2.63,2.46,7.2,7.2,0,0,1,0,7.15,6.64,6.64,0,0,1-2.63,2.46,8.58,8.58,0,0,1-7.61,0Zm6.27-3.32a4.28,4.28,0,0,0,0-5.43,3.26,3.26,0,0,0-2.46-1,3.29,3.29,0,0,0-2.47,1,4.25,4.25,0,0,0,0,5.43,3.29,3.29,0,0,0,2.47,1A3.26,3.26,0,0,0,98.9,277.8Z"/><path class="cls-5" d="M107,263.26h3.9v18.55H107Z"/></g></g></svg>