<svg xmlns="http://www.w3.org/2000/svg" viewBox="0 0 417.72 66.24"><defs><style>.cls-1{fill:#6dfebf;}.cls-2{fill:none;stroke:#534d72;stroke-miterlimit:10;stroke-width:3.16px;}.cls-3{fill:#534d72;}</style></defs><title>Asset 54</title><g id="Layer_2" data-name="Layer 2"><g id="Layer_8" data-name="Layer 8"><circle class="cls-1" cx="189.32" cy="24.51" r="24.51"/><path class="cls-2" d="M236.66,34.6a30,30,0,1,1-8.32-20.76A30,30,0,0,1,236.66,34.6Z"/><path class="cls-2" d="M236.66,34.6a30,30,0,0,1-8.32,20.77,30.07,30.07,0,0,1,0-41.53A30,30,0,0,1,236.66,34.6Z"/><path class="cls-2" d="M195.32,34.6a30,30,0,0,1-9.39,21.82,30.06,30.06,0,0,1,0-43.63A30,30,0,0,1,195.32,34.6Z"/><line class="cls-2" x1="206.61" y1="4.55" x2="206.61" y2="64.66"/><line class="cls-2" x1="176.56" y1="34.6" x2="236.66" y2="34.6"/><rect class="cls-1" x="288.4" y="14.57" width="6.62" height="30.86" rx="3.31" ry="3.31" transform="translate(98.97 -191.01) rotate(43.04)"/><path class="cls-2" d="M314.22,8.52a3.75,3.75,0,0,1,3.36,3.19c2,13.92.53,25.36-11.09,36.62S285.67,61.6,270.68,60.92a3.51,3.51,0,0,1-3.32-3.16c-1.41-14.94.12-24.19,10.83-36.38S300.22,7.21,314.22,8.52Z"/><line class="cls-2" x1="267.6" y1="41.33" x2="287.08" y2="59.88"/><line class="cls-2" x1="297.28" y1="10.17" x2="316.75" y2="28.71"/><line class="cls-2" x1="288.26" y1="31.29" x2="295.84" y2="38.51"/><line class="cls-2" x1="294.56" y1="24.68" x2="302.14" y2="31.9"/><line class="cls-2" x1="282.81" y1="37.02" x2="290.39" y2="44.24"/><line class="cls-2" x1="282.91" y1="44.76" x2="301.45" y2="25.29"/><rect class="cls-1" x="41.84" y="41.85" width="6.79" height="15.86" rx="3.39" ry="3.39" transform="translate(15.3 -10.45) rotate(15.83)"/><path class="cls-2" d="M28.88,50A19.33,19.33,0,0,0,36,34.69c0-10.38-7.71-18.8-17.23-18.8S1.58,24.31,1.58,34.69s7.72,18.8,17.23,18.8a15.88,15.88,0,0,0,4.59-.67"/><line class="cls-2" x1="11.01" y1="51.45" x2="35.37" y2="39.9"/><rect class="cls-2" x="25.3" y="47.99" width="6.18" height="15.82" rx="3.09" ry="3.09" transform="translate(-21.94 18.51) rotate(-26.47)"/><circle class="cls-2" cx="21.43" cy="24.32" r="2.83"/><path class="cls-2" d="M35.87,37.3c.35.38.72.76,1.11,1.11A16.16,16.16,0,0,0,40.83,41"/><path class="cls-2" d="M32,22.6a19.92,19.92,0,0,1,4.88-9.69c7-7.68,18.36-8.71,25.4-2.31s7.08,17.83.09,25.5A19.35,19.35,0,0,1,46.8,42.57"/><line class="cls-2" x1="58.37" y1="39.51" x2="35.95" y2="32.67"/><rect class="cls-2" x="39.35" y="38.72" width="6.18" height="15.82" rx="3.09" ry="3.09" transform="translate(14.33 -9.81) rotate(15.83)"/><circle class="cls-2" cx="34.04" cy="7.39" r="2.83"/><circle class="cls-1" cx="130.53" cy="44.84" r="9.94"/><rect class="cls-2" x="107.81" y="6.64" width="25.57" height="56.52" rx="2.82" ry="2.82"/><rect class="cls-2" x="113.73" y="13.63" width="13.73" height="13.73" rx="2.82" ry="2.82"/><circle class="cls-2" cx="120.6" cy="49.78" r="7.53"/><rect class="cls-1" x="330.14" y="46.97" width="57.78" height="16.95" rx="8.47" ry="8.47"/><path class="cls-3" d="M417.72,59.09H339.55v-36h78.17ZM342.62,56h72V26.14h-72Z"/><rect class="cls-3" x="352.97" y="35.47" width="3.07" height="11.5"/><rect class="cls-3" x="348.75" y="39.68" width="11.5" height="3.07"/><rect class="cls-3" x="369.34" y="33.13" width="6.99" height="2.39" rx="1.2" ry="1.2"/><rect class="cls-3" x="380.93" y="33.13" width="6.99" height="2.39" rx="1.2" ry="1.2"/><circle class="cls-3" cx="397.13" cy="37.86" r="4.41"/><circle class="cls-3" cx="407.01" cy="46.97" r="4.41"/><path class="cls-3" d="M380.17,24.6H377.1c0-11.45,5.45-17.76,15.79-18.35a1.53,1.53,0,0,1,1.61,1.54h0A1.54,1.54,0,0,1,393,9.32C384.38,9.82,380.17,14.83,380.17,24.6Z"/></g></g></svg>