<svg xmlns="http://www.w3.org/2000/svg" viewBox="0 0 449.5 329.26"><defs><style>.cls-1{fill:#fa9597;}.cls-2{fill:#9ce1fd;}.cls-3{fill:#6dfebf;}.cls-4{fill:#9f9ef2;}.cls-5{fill:#534d72;}</style></defs><title>Asset 3</title><g id="Layer_2" data-name="Layer 2"><g id="Layer_8" data-name="Layer 8"><path class="cls-1" d="M89,7.42H79.87V2h24.88V7.42H95.61V30.58H89Z"/><path class="cls-1" d="M128.79,10.77q2.51,2.45,2.51,7.25V30.58h-6.37V19a5.7,5.7,0,0,0-1.14-3.89,4.17,4.17,0,0,0-3.3-1.29,5.05,5.05,0,0,0-3.83,1.49,6.15,6.15,0,0,0-1.43,4.43V30.58h-6.36V.33h6.36v10.6A8.48,8.48,0,0,1,118.29,9a11,11,0,0,1,3.91-.67A9,9,0,0,1,128.79,10.77Z"/><path class="cls-1" d="M159.68,21.41h-16.6a5.19,5.19,0,0,0,2.12,3.22,7,7,0,0,0,4.16,1.18,8.46,8.46,0,0,0,3-.51,7.4,7.4,0,0,0,2.47-1.61l3.38,3.67q-3.1,3.56-9.05,3.55a14.25,14.25,0,0,1-6.57-1.45,10.57,10.57,0,0,1-4.4-4,11,11,0,0,1-1.55-5.83,11.24,11.24,0,0,1,1.53-5.82,10.71,10.71,0,0,1,4.2-4,13,13,0,0,1,11.8-.06,10.11,10.11,0,0,1,4.1,4,11.89,11.89,0,0,1,1.49,6Q159.8,19.82,159.68,21.41Zm-14.89-7.06A5.24,5.24,0,0,0,143,17.7h10.81a5.23,5.23,0,0,0-1.8-3.32,5.36,5.36,0,0,0-3.59-1.25A5.51,5.51,0,0,0,144.79,14.35Z"/><path class="cls-1" d="M184.59,9.13h5.63V14h-5.46V30.58H178.4V14H175V9.13h3.39v-1a8,8,0,0,1,2.22-6A8.5,8.5,0,0,1,186.88,0a11.37,11.37,0,0,1,2.71.31,6.47,6.47,0,0,1,2.14.87l-1.67,4.61A4.34,4.34,0,0,0,187.49,5q-2.9,0-2.9,3.18Z"/><path class="cls-1" d="M216.52,8.65V30.58h-6V28a8.42,8.42,0,0,1-3,2.19,9.53,9.53,0,0,1-3.79.75,9.33,9.33,0,0,1-6.85-2.49c-1.69-1.65-2.53-4.12-2.53-7.38V8.65h6.36V20.1q0,5.31,4.45,5.31a4.8,4.8,0,0,0,3.67-1.49,6.31,6.31,0,0,0,1.38-4.43V8.65Z"/><path class="cls-1" d="M237.61,29.52a6.46,6.46,0,0,1-2.31,1,11.69,11.69,0,0,1-2.87.35,8.52,8.52,0,0,1-6.06-2A7.67,7.67,0,0,1,224.23,23V14h-3.38V9.13h3.38V3.79h6.36V9.13h5.47V14h-5.47V23a3,3,0,0,0,.72,2.14,2.65,2.65,0,0,0,2,.75,4.08,4.08,0,0,0,2.56-.81Z"/><path class="cls-1" d="M264.32,8.65V30.58h-6V28a8.42,8.42,0,0,1-3,2.19,9.5,9.5,0,0,1-3.79.75,9.35,9.35,0,0,1-6.85-2.49c-1.68-1.65-2.53-4.12-2.53-7.38V8.65h6.37V20.1q0,5.31,4.44,5.31a4.78,4.78,0,0,0,3.67-1.49A6.31,6.31,0,0,0,258,19.49V8.65Z"/><path class="cls-1" d="M280.41,9.13a11.48,11.48,0,0,1,4.46-.81v5.87c-.71,0-1.18-.08-1.43-.08a5.82,5.82,0,0,0-4.28,1.53,6.2,6.2,0,0,0-1.55,4.59V30.58h-6.36V8.65h6.08v2.89A7.08,7.08,0,0,1,280.41,9.13Z"/><path class="cls-1" d="M310.85,21.41h-16.6a5.19,5.19,0,0,0,2.12,3.22,7,7,0,0,0,4.16,1.18,8.42,8.42,0,0,0,3-.51A7.3,7.3,0,0,0,306,23.69l3.38,3.67q-3.09,3.56-9.05,3.55a14.28,14.28,0,0,1-6.57-1.45,10.57,10.57,0,0,1-4.4-4,11.12,11.12,0,0,1-1.55-5.83,11.24,11.24,0,0,1,1.53-5.82,10.71,10.71,0,0,1,4.2-4,13,13,0,0,1,11.8-.06,10.11,10.11,0,0,1,4.1,4,11.89,11.89,0,0,1,1.49,6Q311,19.82,310.85,21.41ZM296,14.35a5.29,5.29,0,0,0-1.79,3.35H305a5.23,5.23,0,0,0-1.8-3.32,5.36,5.36,0,0,0-3.59-1.25A5.51,5.51,0,0,0,296,14.35Z"/><path class="cls-1" d="M342.94,20.47V30.58h-6.6V20.39L325.28,2h7l7.62,12.68L347.55,2H354Z"/><path class="cls-1" d="M376.3,21.41H359.7a5.19,5.19,0,0,0,2.12,3.22A7,7,0,0,0,366,25.81a8.42,8.42,0,0,0,3-.51,7.21,7.21,0,0,0,2.47-1.61l3.38,3.67q-3.09,3.56-9.05,3.55a14.31,14.31,0,0,1-6.57-1.45,10.57,10.57,0,0,1-4.4-4,11.12,11.12,0,0,1-1.55-5.83,11.24,11.24,0,0,1,1.53-5.82,10.71,10.71,0,0,1,4.2-4,13,13,0,0,1,11.81-.06,10.08,10.08,0,0,1,4.09,4,11.79,11.79,0,0,1,1.49,6Q376.42,19.82,376.3,21.41Zm-14.88-7.06a5.25,5.25,0,0,0-1.8,3.35h10.81a5.23,5.23,0,0,0-1.8-3.32,5.33,5.33,0,0,0-3.58-1.25A5.47,5.47,0,0,0,361.42,14.35Z"/><path class="cls-1" d="M397.75,10.75q2.73,2.41,2.73,7.32V30.58h-6V27.85q-1.8,3.06-6.69,3.06a10.22,10.22,0,0,1-4.38-.86,6.54,6.54,0,0,1-2.84-2.36,6.2,6.2,0,0,1-1-3.43A5.71,5.71,0,0,1,382,19.45c1.53-1.17,3.91-1.75,7.11-1.75h5.06a4.06,4.06,0,0,0-1.26-3.2,5.58,5.58,0,0,0-3.8-1.12,11,11,0,0,0-3.44.55,8.91,8.91,0,0,0-2.88,1.49L380.46,11a13.84,13.84,0,0,1,4.3-2,19.34,19.34,0,0,1,5.16-.69Q395,8.32,397.75,10.75Zm-5.42,15.13a4.16,4.16,0,0,0,1.79-2.23V21.41h-4.36q-3.92,0-3.92,2.57a2.3,2.3,0,0,0,1,1.94,4.37,4.37,0,0,0,2.63.71A5.59,5.59,0,0,0,392.33,25.88Z"/><path class="cls-1" d="M416.41,9.13a11.48,11.48,0,0,1,4.46-.81v5.87c-.7,0-1.18-.08-1.42-.08a5.85,5.85,0,0,0-4.29,1.53,6.2,6.2,0,0,0-1.55,4.59V30.58h-6.36V8.65h6.08v2.89A7.13,7.13,0,0,1,416.41,9.13Z"/><path class="cls-1" d="M427.81,30.24a14,14,0,0,1-4.16-1.69L425.77,24a13.7,13.7,0,0,0,3.55,1.53,15,15,0,0,0,4.07.59q4,0,4-2a1.43,1.43,0,0,0-1.1-1.35,16.5,16.5,0,0,0-3.39-.69,31.46,31.46,0,0,1-4.44-.94,6.85,6.85,0,0,1-3-1.87,5.37,5.37,0,0,1-1.28-3.83,6,6,0,0,1,1.2-3.7,7.68,7.68,0,0,1,3.51-2.5,14.9,14.9,0,0,1,5.44-.9,21.39,21.39,0,0,1,4.63.51,12.76,12.76,0,0,1,3.81,1.41l-2.12,4.52a12.64,12.64,0,0,0-6.32-1.63,6.45,6.45,0,0,0-3.06.57,1.68,1.68,0,0,0-1,1.47,1.46,1.46,0,0,0,1.1,1.43,19.59,19.59,0,0,0,3.51.77,37.91,37.91,0,0,1,4.41,1,6.58,6.58,0,0,1,3,1.86,5.25,5.25,0,0,1,1.27,3.75,5.77,5.77,0,0,1-1.23,3.63A7.71,7.71,0,0,1,438.71,30a15.71,15.71,0,0,1-5.56.88A21.24,21.24,0,0,1,427.81,30.24Z"/><path class="cls-2" d="M347,226.76H244.5A102.5,102.5,0,0,1,347,124.27h0Z"/><path class="cls-3" d="M347,226.76v102.5a102.5,102.5,0,0,1-102.5-102.5H347Z"/><path class="cls-4" d="M347,226.76V124.27a102.5,102.5,0,1,1,0,205h0Z"/><rect class="cls-4" y="192.26" width="94" height="13"/><rect class="cls-3" x="47" y="236.26" width="94" height="13"/><rect class="cls-2" x="3" y="286.26" width="94" height="13"/><path class="cls-5" d="M33.72,184.62l-4.88,13.45H25.09l-3-8.35-3.13,8.35H15.19l-4.85-13.45H14l3.17,9.1,3.3-9.1h3.3l3.2,9.1,3.28-9.1Z"/><path class="cls-5" d="M38.38,197.38a6.66,6.66,0,0,1-2.64-2.46,6.83,6.83,0,0,1,2.64-9.62,8.1,8.1,0,0,1,3.81-.88,8,8,0,0,1,3.8.88,6.66,6.66,0,0,1,2.63,2.47,7.2,7.2,0,0,1,0,7.15A6.57,6.57,0,0,1,46,197.38a8,8,0,0,1-3.8.89A8.11,8.11,0,0,1,38.38,197.38Zm6.28-3.33a4.31,4.31,0,0,0,0-5.42,3.53,3.53,0,0,0-4.94,0,4.24,4.24,0,0,0,0,5.42,3.5,3.5,0,0,0,4.94,0Z"/><path class="cls-5" d="M58.41,184.92a6.85,6.85,0,0,1,2.73-.5V188c-.43,0-.72-.05-.87-.05a3.57,3.57,0,0,0-2.63.94,3.79,3.79,0,0,0-1,2.81v6.35h-3.9V184.62h3.73v1.77A4.34,4.34,0,0,1,58.41,184.92Z"/><path class="cls-5" d="M69.87,192.79,68,194.64v3.43H64.09V179.52H68V190l5.7-5.4h4.64l-5.59,5.7,6.09,7.75H74.12Z"/><path class="cls-5" d="M16,279.87h-5.6v-3.3H25.67v3.3h-5.6v14.2H16Z"/><path class="cls-5" d="M33.51,280.92a6.87,6.87,0,0,1,2.74-.5V284c-.44,0-.73,0-.88,0a3.53,3.53,0,0,0-2.62.94,3.75,3.75,0,0,0-1,2.81v6.35h-3.9V280.62h3.73v1.77A4.34,4.34,0,0,1,33.51,280.92Z"/><path class="cls-5" d="M49.35,281.91A5.69,5.69,0,0,1,51,286.39v7.68H47.37v-1.68c-.73,1.25-2.1,1.88-4.1,1.88a6.39,6.39,0,0,1-2.69-.53,4,4,0,0,1-1.73-1.45,3.74,3.74,0,0,1-.6-2.1,3.51,3.51,0,0,1,1.41-2.95A7.23,7.23,0,0,1,44,286.17h3.1a2.49,2.49,0,0,0-.77-2,3.43,3.43,0,0,0-2.33-.69,6.61,6.61,0,0,0-2.11.34,5.33,5.33,0,0,0-1.76.91L38.75,282a8.73,8.73,0,0,1,2.63-1.2,12,12,0,0,1,3.16-.42A7,7,0,0,1,49.35,281.91ZM46,291.18a2.53,2.53,0,0,0,1.1-1.36v-1.38H44.45c-1.6,0-2.41.53-2.41,1.58a1.42,1.42,0,0,0,.59,1.19,2.66,2.66,0,0,0,1.62.43A3.39,3.39,0,0,0,46,291.18Z"/><path class="cls-5" d="M68.27,280.62l-5.68,13.45h-4l-5.65-13.45h4l3.72,9.15,3.85-9.15Z"/><path class="cls-5" d="M83.22,288.44H73a3.19,3.19,0,0,0,1.31,2,4.31,4.31,0,0,0,2.55.72,5.11,5.11,0,0,0,1.86-.31,4.59,4.59,0,0,0,1.51-1l2.08,2.25a7,7,0,0,1-5.56,2.18,8.81,8.81,0,0,1-4-.89,6.45,6.45,0,0,1-2.7-2.46,7.22,7.22,0,0,1,0-7.14,6.59,6.59,0,0,1,2.57-2.48,7.59,7.59,0,0,1,3.66-.88,7.48,7.48,0,0,1,3.58.85,6.14,6.14,0,0,1,2.51,2.44,7.2,7.2,0,0,1,.91,3.68C83.29,287.44,83.27,287.79,83.22,288.44Zm-9.12-4.32a3.17,3.17,0,0,0-1.1,2.05h6.62a3.22,3.22,0,0,0-1.1-2,3.27,3.27,0,0,0-2.2-.76A3.35,3.35,0,0,0,74.1,284.12Z"/><path class="cls-5" d="M86.52,275.52h3.9v18.55h-3.9Z"/><path class="cls-5" d="M94.87,278.12a2,2,0,0,1-.67-1.55,2,2,0,0,1,.67-1.55,2.46,2.46,0,0,1,1.75-.63,2.53,2.53,0,0,1,1.75.6,1.92,1.92,0,0,1,.67,1.5,2.14,2.14,0,0,1-.67,1.62,2.76,2.76,0,0,1-3.5,0Zm-.2,2.5h3.9v13.45h-3.9Z"/><path class="cls-5" d="M115,281.92a5.92,5.92,0,0,1,1.54,4.45v7.7h-3.9V287a3.5,3.5,0,0,0-.7-2.39,2.56,2.56,0,0,0-2-.79,3.12,3.12,0,0,0-2.35.92,3.77,3.77,0,0,0-.87,2.71v6.65h-3.9V280.62h3.72v1.57a5.29,5.29,0,0,1,1.93-1.31,6.68,6.68,0,0,1,2.52-.46A5.53,5.53,0,0,1,115,281.92Z"/><path class="cls-5" d="M134.74,280.62v11.2c0,2.46-.64,4.3-1.92,5.5a8,8,0,0,1-5.63,1.8,14,14,0,0,1-3.7-.48,8.05,8.05,0,0,1-2.9-1.37l1.55-2.8a6.7,6.7,0,0,0,2.15,1.11,8.45,8.45,0,0,0,2.6.41,4.21,4.21,0,0,0,3-.91,3.64,3.64,0,0,0,1-2.76v-.58a5.43,5.43,0,0,1-4.25,1.68,7.12,7.12,0,0,1-3.38-.81,6.25,6.25,0,0,1-2.44-2.29,6.87,6.87,0,0,1,0-6.8,6.18,6.18,0,0,1,2.44-2.29,7.12,7.12,0,0,1,3.38-.81,5.34,5.34,0,0,1,4.45,1.92v-1.72Zm-4.83,8.68a3.39,3.39,0,0,0,0-4.77,3.6,3.6,0,0,0-2.54-.91,3.64,3.64,0,0,0-2.55.91,3.34,3.34,0,0,0,0,4.77,3.65,3.65,0,0,0,2.55.92A3.6,3.6,0,0,0,129.91,289.3Z"/><path class="cls-5" d="M13.37,244.86a8.79,8.79,0,0,1-2.55-1l1.3-2.8a8.54,8.54,0,0,0,2.17.94,9.21,9.21,0,0,0,2.5.36c1.65,0,2.48-.41,2.48-1.23a.86.86,0,0,0-.68-.82,9.92,9.92,0,0,0-2.07-.43,20.31,20.31,0,0,1-2.73-.57,4.32,4.32,0,0,1-1.86-1.15,3.29,3.29,0,0,1-.79-2.35,3.67,3.67,0,0,1,.74-2.26A4.69,4.69,0,0,1,14,232a9.13,9.13,0,0,1,3.34-.55,13.07,13.07,0,0,1,2.84.31,8.06,8.06,0,0,1,2.33.86l-1.3,2.78a7.7,7.7,0,0,0-3.87-1,3.9,3.9,0,0,0-1.88.35,1,1,0,0,0-.62.9.88.88,0,0,0,.67.87,11.64,11.64,0,0,0,2.15.48,24.3,24.3,0,0,1,2.7.58,4.11,4.11,0,0,1,1.83,1.14A3.22,3.22,0,0,1,23,241a3.55,3.55,0,0,1-.75,2.23,4.82,4.82,0,0,1-2.18,1.51,9.74,9.74,0,0,1-3.42.54A13.32,13.32,0,0,1,13.37,244.86Z"/><path class="cls-5" d="M28.61,244.38A6.53,6.53,0,0,1,26,241.92a7.2,7.2,0,0,1,0-7.15,6.63,6.63,0,0,1,2.64-2.47,8.67,8.67,0,0,1,7.61,0,7,7,0,0,1,2.62,9.62,6.61,6.61,0,0,1-2.62,2.46,8.58,8.58,0,0,1-7.61,0Zm6.27-3.33a4.31,4.31,0,0,0,0-5.42,3.26,3.26,0,0,0-2.46-1,3.32,3.32,0,0,0-2.48,1,4.27,4.27,0,0,0,0,5.42,3.29,3.29,0,0,0,2.48,1A3.23,3.23,0,0,0,34.88,241.05Z"/><path class="cls-5" d="M45.66,244.38A6.58,6.58,0,0,1,43,241.92a6.79,6.79,0,0,1,2.68-9.62,8.25,8.25,0,0,1,3.86-.88,7.49,7.49,0,0,1,3.71.88,5.28,5.28,0,0,1,2.31,2.54l-3,1.63a3.3,3.3,0,0,0-3-1.85,3.4,3.4,0,0,0-2.52,1,4.21,4.21,0,0,0,0,5.45,3.44,3.44,0,0,0,2.52,1,3.29,3.29,0,0,0,3-1.85l3,1.65a5.37,5.37,0,0,1-2.31,2.5,7.39,7.39,0,0,1-3.71.9A8.26,8.26,0,0,1,45.66,244.38Z"/><path class="cls-5" d="M58.62,229.12a2,2,0,0,1-.68-1.55,2,2,0,0,1,.68-1.55,2.46,2.46,0,0,1,1.75-.63,2.55,2.55,0,0,1,1.75.6,1.92,1.92,0,0,1,.67,1.5,2.14,2.14,0,0,1-.67,1.62,2.76,2.76,0,0,1-3.5,0Zm-.2,2.5h3.9v13.45h-3.9Z"/><path class="cls-5" d="M76.79,232.91a5.66,5.66,0,0,1,1.68,4.48v7.68H74.82v-1.68c-.74,1.25-2.1,1.88-4.1,1.88a6.36,6.36,0,0,1-2.69-.53,4,4,0,0,1-1.74-1.45,3.74,3.74,0,0,1-.6-2.1,3.49,3.49,0,0,1,1.42-2.95,7.23,7.23,0,0,1,4.36-1.07h3.1a2.46,2.46,0,0,0-.78-2,3.38,3.38,0,0,0-2.32-.69,6.61,6.61,0,0,0-2.11.34,5.38,5.38,0,0,0-1.77.91L66.19,233a8.8,8.8,0,0,1,2.64-1.2,12,12,0,0,1,3.16-.42A6.94,6.94,0,0,1,76.79,232.91Zm-3.32,9.27a2.58,2.58,0,0,0,1.1-1.36v-1.38H71.89c-1.6,0-2.4.53-2.4,1.58a1.42,1.42,0,0,0,.59,1.19,2.65,2.65,0,0,0,1.61.43A3.4,3.4,0,0,0,73.47,242.18Z"/><path class="cls-5" d="M82.62,226.52h3.9v18.55h-3.9Z"/><path class="cls-5" d="M98.74,227.57h4.05v14.2h8.78v3.3H98.74Z"/><path class="cls-5" d="M114.39,229.12a2,2,0,0,1-.67-1.55,2,2,0,0,1,.67-1.55,2.46,2.46,0,0,1,1.75-.63,2.53,2.53,0,0,1,1.75.6,1.93,1.93,0,0,1,.68,1.5,2.15,2.15,0,0,1-.68,1.62,2.76,2.76,0,0,1-3.5,0Zm-.2,2.5h3.9v13.45h-3.9Z"/><path class="cls-5" d="M126.62,231.92h3.45v3h-3.35v10.15h-3.9V234.92h-2.08v-3h2.08v-.6a4.9,4.9,0,0,1,1.36-3.65,5.23,5.23,0,0,1,3.84-1.35,6.92,6.92,0,0,1,1.66.19A4,4,0,0,1,131,227l-1,2.83a2.66,2.66,0,0,0-1.58-.48q-1.77,0-1.77,2Z"/><path class="cls-5" d="M145.57,239.44H135.39a3.18,3.18,0,0,0,1.3,2,4.31,4.31,0,0,0,2.55.72,5.11,5.11,0,0,0,1.86-.31,4.62,4.62,0,0,0,1.52-1l2.07,2.25a7,7,0,0,1-5.55,2.18,8.75,8.75,0,0,1-4-.89,6.45,6.45,0,0,1-2.7-2.46,6.73,6.73,0,0,1-.95-3.58,6.93,6.93,0,0,1,.93-3.56A6.69,6.69,0,0,1,135,232.3a7.56,7.56,0,0,1,3.66-.88,7.48,7.48,0,0,1,3.58.85,6.2,6.2,0,0,1,2.51,2.44,7.2,7.2,0,0,1,.91,3.68C145.64,238.44,145.62,238.79,145.57,239.44Zm-9.13-4.32a3.17,3.17,0,0,0-1.1,2H142a3.2,3.2,0,0,0-3.3-2.8A3.36,3.36,0,0,0,136.44,235.12Z"/></g></g></svg>