<svg xmlns="http://www.w3.org/2000/svg" viewBox="0 0 408.44 104.48"><defs><style>.cls-1{fill:#9f9ef2;}.cls-2{fill:#534d72;}</style></defs><title>Asset 45</title><g id="Layer_2" data-name="Layer 2"><g id="Layer_8" data-name="Layer 8"><path class="cls-1" d="M22.38.24l-4.58,14H14.32L11.24,4.76,8.06,14.24H4.6L0,.24H3.36l3.16,9.84L9.82.24h3L16,10.16,19.28.24Z"/><path class="cls-1" d="M26.87,13.54A7,7,0,0,1,24.13,11a7.08,7.08,0,0,1-1-3.71,7.08,7.08,0,0,1,1-3.71A7,7,0,0,1,26.87.94a8.66,8.66,0,0,1,7.85,0,7.11,7.11,0,0,1,2.74,2.59,7,7,0,0,1,1,3.71,7,7,0,0,1-1,3.71,7.11,7.11,0,0,1-2.74,2.59,8.09,8.09,0,0,1-3.92.94A8.15,8.15,0,0,1,26.87,13.54ZM33,11.15a4.07,4.07,0,0,0,1.57-1.59,4.67,4.67,0,0,0,.57-2.32,4.67,4.67,0,0,0-.57-2.32A4.07,4.07,0,0,0,33,3.33a4.69,4.69,0,0,0-4.48,0A4.07,4.07,0,0,0,27,4.92a4.67,4.67,0,0,0-.57,2.32A4.67,4.67,0,0,0,27,9.56a4.07,4.07,0,0,0,1.57,1.59,4.69,4.69,0,0,0,4.48,0Z"/><path class="cls-1" d="M49.82,14.24l-2.7-3.9h-3v3.9H40.9V.24H47a7.82,7.82,0,0,1,3.23.62A4.78,4.78,0,0,1,52.3,2.62,4.88,4.88,0,0,1,53,5.32,4.74,4.74,0,0,1,52.29,8a4.78,4.78,0,0,1-2.13,1.73l3.14,4.5ZM49,3.51a3.42,3.42,0,0,0-2.22-.63H44.14V7.76h2.64A3.36,3.36,0,0,0,49,7.12a2.22,2.22,0,0,0,.76-1.8A2.2,2.2,0,0,0,49,3.51Z"/><path class="cls-1" d="M60.7,8.74l-1.88,2v3.54H55.6V.24h3.22V6.78L65,.24h3.6l-5.8,6.24L69,14.24H65.18Z"/><path class="cls-1" d="M70,6.66a1.87,1.87,0,0,1-.56-1.4A1.8,1.8,0,0,1,70,3.87a2.06,2.06,0,0,1,2.76,0,1.84,1.84,0,0,1,.56,1.39,1.91,1.91,0,0,1-.56,1.4,2,2,0,0,1-2.76,0Zm0,7.18a1.87,1.87,0,0,1-.56-1.4A1.8,1.8,0,0,1,70,11.05a2.06,2.06,0,0,1,2.76,0,1.84,1.84,0,0,1,.56,1.39,1.91,1.91,0,0,1-.56,1.4,2,2,0,0,1-2.76,0Z"/><path class="cls-2" d="M81.3.24h3.24v14H81.3Z"/><path class="cls-2" d="M100.6,14.24l0-8.4-4.12,6.92H95L90.9,6v8.22h-3V.24h2.68l5.24,8.7,5.16-8.7h2.66l0,14Z"/><path class="cls-2" d="M116.25.86a4.83,4.83,0,0,1,2.11,1.76,4.88,4.88,0,0,1,.74,2.7A4.89,4.89,0,0,1,118.36,8a4.77,4.77,0,0,1-2.11,1.76,7.86,7.86,0,0,1-3.23.61H110.2v3.86H107V.24H113A7.85,7.85,0,0,1,116.25.86Zm-1.19,6.25a2.22,2.22,0,0,0,.76-1.79,2.23,2.23,0,0,0-.76-1.81,3.42,3.42,0,0,0-2.22-.63H110.2V7.74h2.64A3.42,3.42,0,0,0,115.06,7.11Z"/><path class="cls-2" d="M130.32,14.24l-2.7-3.9h-3v3.9H121.4V.24h6.06a7.85,7.85,0,0,1,3.23.62,4.83,4.83,0,0,1,2.11,1.76,4.88,4.88,0,0,1,.74,2.7A4.74,4.74,0,0,1,132.79,8a4.78,4.78,0,0,1-2.13,1.73l3.14,4.5ZM129.5,3.51a3.42,3.42,0,0,0-2.22-.63h-2.64V7.76h2.64a3.36,3.36,0,0,0,2.22-.64,2.25,2.25,0,0,0,.76-1.8A2.23,2.23,0,0,0,129.5,3.51Z"/><path class="cls-2" d="M146.94,11.64v2.6H136.1V.24h10.58v2.6h-7.36v3h6.5V8.4h-6.5v3.24Z"/><path class="cls-2" d="M150.91,14a7.4,7.4,0,0,1-2.49-1.17l1.1-2.44a7.51,7.51,0,0,0,2.14,1.06,7.89,7.89,0,0,0,2.48.4,4,4,0,0,0,2-.41,1.24,1.24,0,0,0,.66-1.09,1,1,0,0,0-.39-.83,3,3,0,0,0-1-.53c-.41-.13-1-.28-1.65-.44a22.61,22.61,0,0,1-2.62-.76,4.18,4.18,0,0,1-1.75-1.22,3.28,3.28,0,0,1-.73-2.24,3.9,3.9,0,0,1,.66-2.21,4.44,4.44,0,0,1,2-1.57A8,8,0,0,1,154.6,0a11,11,0,0,1,2.62.32,7.69,7.69,0,0,1,2.24.92l-1,2.46a7.87,7.87,0,0,0-3.88-1.1,3.65,3.65,0,0,0-2,.44,1.32,1.32,0,0,0-.65,1.16,1.13,1.13,0,0,0,.75,1.07A12.18,12.18,0,0,0,155,6a23.22,23.22,0,0,1,2.62.76,4.3,4.3,0,0,1,1.75,1.2,3.26,3.26,0,0,1,.73,2.22,3.87,3.87,0,0,1-.67,2.19,4.56,4.56,0,0,1-2,1.57,8.16,8.16,0,0,1-3.26.58A11.42,11.42,0,0,1,150.91,14Z"/><path class="cls-2" d="M163.67,14a7.4,7.4,0,0,1-2.49-1.17l1.1-2.44a7.51,7.51,0,0,0,2.14,1.06,7.89,7.89,0,0,0,2.48.4,4,4,0,0,0,2-.41,1.24,1.24,0,0,0,.66-1.09,1,1,0,0,0-.39-.83,3,3,0,0,0-1-.53c-.41-.13-1-.28-1.65-.44a22.61,22.61,0,0,1-2.62-.76,4.18,4.18,0,0,1-1.75-1.22,3.28,3.28,0,0,1-.73-2.24,3.9,3.9,0,0,1,.66-2.21,4.44,4.44,0,0,1,2-1.57A8,8,0,0,1,167.36,0,11,11,0,0,1,170,.32a7.69,7.69,0,0,1,2.24.92l-1,2.46a7.87,7.87,0,0,0-3.88-1.1,3.65,3.65,0,0,0-2,.44,1.32,1.32,0,0,0-.65,1.16,1.13,1.13,0,0,0,.75,1.07,12.18,12.18,0,0,0,2.29.69,23.22,23.22,0,0,1,2.62.76,4.3,4.3,0,0,1,1.75,1.2,3.26,3.26,0,0,1,.73,2.22,3.87,3.87,0,0,1-.67,2.19,4.56,4.56,0,0,1-2,1.57,8.16,8.16,0,0,1-3.26.58A11.42,11.42,0,0,1,163.67,14Z"/><path class="cls-2" d="M175,.24h3.24v14H175Z"/><path class="cls-2" d="M195,.24l-6.06,14h-3.2l-6-14h3.5l4.26,10,4.32-10Z"/><path class="cls-2" d="M207,11.64v2.6H196.14V.24h10.58v2.6h-7.36v3h6.5V8.4h-6.5v3.24Z"/><path class="cls-2" d="M218.46,2.84v3.7h6.48v2.6h-6.48v5.1h-3.24V.24H225.8v2.6Z"/><path class="cls-2" d="M228,.24h3.24V11.6h7v2.64H228Z"/><path class="cls-2" d="M242.69,13.54A7,7,0,0,1,240,11a7.08,7.08,0,0,1-1-3.71,7.08,7.08,0,0,1,1-3.71A7,7,0,0,1,242.69.94a8.66,8.66,0,0,1,7.85,0,7,7,0,0,1,3.74,6.3,7,7,0,0,1-3.74,6.3,8.66,8.66,0,0,1-7.85,0Zm6.17-2.39a4.14,4.14,0,0,0,1.57-1.59A4.67,4.67,0,0,0,251,7.24a4.67,4.67,0,0,0-.57-2.32,4.14,4.14,0,0,0-1.57-1.59,4.47,4.47,0,0,0-2.24-.57,4.42,4.42,0,0,0-2.24.57,4.07,4.07,0,0,0-1.57,1.59,4.67,4.67,0,0,0-.57,2.32,4.67,4.67,0,0,0,.57,2.32,4.07,4.07,0,0,0,1.57,1.59,4.42,4.42,0,0,0,2.24.57A4.47,4.47,0,0,0,248.86,11.15Z"/><path class="cls-2" d="M259.57,13.54A7,7,0,0,1,256.83,11a7.08,7.08,0,0,1-1-3.71,7.08,7.08,0,0,1,1-3.71A7,7,0,0,1,259.57.94a8.66,8.66,0,0,1,7.85,0,7,7,0,0,1,3.74,6.3,7,7,0,0,1-3.74,6.3,8.66,8.66,0,0,1-7.85,0Zm6.17-2.39a4.14,4.14,0,0,0,1.57-1.59,4.67,4.67,0,0,0,.57-2.32,4.67,4.67,0,0,0-.57-2.32,4.14,4.14,0,0,0-1.57-1.59,4.47,4.47,0,0,0-2.24-.57,4.42,4.42,0,0,0-2.24.57,4.07,4.07,0,0,0-1.57,1.59,4.67,4.67,0,0,0-.57,2.32,4.67,4.67,0,0,0,.57,2.32,4.07,4.07,0,0,0,1.57,1.59,4.42,4.42,0,0,0,2.24.57A4.47,4.47,0,0,0,265.74,11.15Z"/><path class="cls-2" d="M282.52,14.24l-2.7-3.9h-3v3.9H273.6V.24h6.06a7.85,7.85,0,0,1,3.23.62A4.83,4.83,0,0,1,285,2.62a4.88,4.88,0,0,1,.74,2.7A4.74,4.74,0,0,1,285,8a4.78,4.78,0,0,1-2.13,1.73l3.14,4.5ZM281.7,3.51a3.42,3.42,0,0,0-2.22-.63h-2.64V7.76h2.64a3.36,3.36,0,0,0,2.22-.64,2.25,2.25,0,0,0,.76-1.8A2.23,2.23,0,0,0,281.7,3.51Z"/><path class="cls-2" d="M288.3.24h3.24v14H288.3Z"/><path class="cls-2" d="M307.7.24v14H305l-7-8.5v8.5h-3.2V.24h2.68l7,8.5V.24Z"/><path class="cls-2" d="M320.48,7h3V12.7A8.6,8.6,0,0,1,320.8,14a10.16,10.16,0,0,1-3,.46,8.17,8.17,0,0,1-3.92-.93A6.92,6.92,0,0,1,311.13,11a7.1,7.1,0,0,1-1-3.73,7.1,7.1,0,0,1,1-3.73A6.85,6.85,0,0,1,313.88.93a8.33,8.33,0,0,1,4-.93,8.75,8.75,0,0,1,3.34.62,6.55,6.55,0,0,1,2.52,1.8l-2.08,1.92A4.83,4.83,0,0,0,318,2.76a5,5,0,0,0-2.38.56A3.92,3.92,0,0,0,314,4.9a4.62,4.62,0,0,0-.58,2.34A4.57,4.57,0,0,0,314,9.56a4,4,0,0,0,1.61,1.59,4.75,4.75,0,0,0,2.35.57,5.27,5.27,0,0,0,2.52-.6Z"/><path class="cls-1" d="M2.61,44A7.59,7.59,0,0,1,.12,42.86l1.1-2.44a7.51,7.51,0,0,0,2.14,1.06,7.94,7.94,0,0,0,2.48.4,4,4,0,0,0,2-.41,1.24,1.24,0,0,0,.66-1.09,1,1,0,0,0-.39-.83,2.87,2.87,0,0,0-1-.53c-.41-.13-1-.28-1.65-.44a22.61,22.61,0,0,1-2.62-.76A4.25,4.25,0,0,1,1.13,36.6,3.28,3.28,0,0,1,.4,34.36a3.9,3.9,0,0,1,.66-2.21,4.44,4.44,0,0,1,2-1.57A8.07,8.07,0,0,1,6.3,30a10.93,10.93,0,0,1,2.62.32,7.69,7.69,0,0,1,2.24.92l-1,2.46a7.84,7.84,0,0,0-3.88-1.1,3.65,3.65,0,0,0-2,.44,1.35,1.35,0,0,0-.65,1.16,1.13,1.13,0,0,0,.75,1.07A12.18,12.18,0,0,0,6.66,36a22.61,22.61,0,0,1,2.62.76A4.3,4.3,0,0,1,11,37.92a3.21,3.21,0,0,1,.73,2.22,3.8,3.8,0,0,1-.67,2.19,4.56,4.56,0,0,1-2,1.57,8.12,8.12,0,0,1-3.26.58A11.42,11.42,0,0,1,2.61,44Z"/><path class="cls-1" d="M16.81,43.55A7,7,0,0,1,14.09,41a7.52,7.52,0,0,1,0-7.46,7,7,0,0,1,2.72-2.58A8.07,8.07,0,0,1,20.7,30a8.11,8.11,0,0,1,3.29.64,6.65,6.65,0,0,1,2.47,1.84L24.38,34.4a4.49,4.49,0,0,0-3.52-1.64,4.67,4.67,0,0,0-2.32.57A4.05,4.05,0,0,0,17,34.92a5,5,0,0,0,0,4.64,4.05,4.05,0,0,0,1.59,1.59,4.67,4.67,0,0,0,2.32.57,4.45,4.45,0,0,0,3.52-1.66L26.46,42A6.55,6.55,0,0,1,24,43.84a8.2,8.2,0,0,1-3.3.64A8,8,0,0,1,16.81,43.55Z"/><path class="cls-1" d="M41.48,30.24v14H38.24V38.5H31.88v5.74H28.64v-14h3.24v5.52h6.36V30.24Z"/><path class="cls-1" d="M47.65,43.54A7,7,0,0,1,44.91,41a7.45,7.45,0,0,1,0-7.42,7,7,0,0,1,2.74-2.59,8.66,8.66,0,0,1,7.85,0,7.11,7.11,0,0,1,2.74,2.59,7.38,7.38,0,0,1,0,7.42,7.11,7.11,0,0,1-2.74,2.59,8.66,8.66,0,0,1-7.85,0Zm6.17-2.39a4.07,4.07,0,0,0,1.57-1.59,5,5,0,0,0,0-4.64,4.07,4.07,0,0,0-1.57-1.59,4.69,4.69,0,0,0-4.48,0,4.07,4.07,0,0,0-1.57,1.59,5,5,0,0,0,0,4.64,4.07,4.07,0,0,0,1.57,1.59,4.69,4.69,0,0,0,4.48,0Z"/><path class="cls-1" d="M64.53,43.54A7,7,0,0,1,61.79,41a7.45,7.45,0,0,1,0-7.42,7,7,0,0,1,2.74-2.59,8.66,8.66,0,0,1,7.85,0,7.11,7.11,0,0,1,2.74,2.59,7.38,7.38,0,0,1,0,7.42,7.11,7.11,0,0,1-2.74,2.59,8.66,8.66,0,0,1-7.85,0Zm6.17-2.39a4.07,4.07,0,0,0,1.57-1.59,5,5,0,0,0,0-4.64,4.07,4.07,0,0,0-1.57-1.59,4.69,4.69,0,0,0-4.48,0,4.07,4.07,0,0,0-1.57,1.59,5,5,0,0,0,0,4.64,4.07,4.07,0,0,0,1.57,1.59,4.69,4.69,0,0,0,4.48,0Z"/><path class="cls-1" d="M78.56,30.24H81.8V41.6h7v2.64H78.56Z"/><path class="cls-1" d="M90.62,36.66a1.91,1.91,0,0,1-.56-1.4,1.84,1.84,0,0,1,.56-1.39,2.06,2.06,0,0,1,2.76,0,1.84,1.84,0,0,1,.56,1.39,1.91,1.91,0,0,1-.56,1.4,2,2,0,0,1-2.76,0Zm0,7.18a1.91,1.91,0,0,1-.56-1.4,1.84,1.84,0,0,1,.56-1.39,2.06,2.06,0,0,1,2.76,0,1.84,1.84,0,0,1,.56,1.39,1.91,1.91,0,0,1-.56,1.4,2,2,0,0,1-2.76,0Z"/><path class="cls-2" d="M112.78,41.64v2.6H101.94v-14h10.58v2.6h-7.36v3h6.5V38.4h-6.5v3.24Z"/><path class="cls-2" d="M116.75,44a7.59,7.59,0,0,1-2.49-1.17l1.1-2.44a7.51,7.51,0,0,0,2.14,1.06,7.94,7.94,0,0,0,2.48.4,4,4,0,0,0,2-.41,1.24,1.24,0,0,0,.66-1.09,1,1,0,0,0-.39-.83,2.87,2.87,0,0,0-1-.53c-.41-.13-1-.28-1.65-.44a22.61,22.61,0,0,1-2.62-.76,4.25,4.25,0,0,1-1.75-1.22,3.28,3.28,0,0,1-.73-2.24,3.9,3.9,0,0,1,.66-2.21,4.44,4.44,0,0,1,2-1.57,8.07,8.07,0,0,1,3.25-.58,10.93,10.93,0,0,1,2.62.32,7.69,7.69,0,0,1,2.24.92l-1,2.46a7.84,7.84,0,0,0-3.88-1.1,3.65,3.65,0,0,0-2,.44,1.35,1.35,0,0,0-.65,1.16,1.13,1.13,0,0,0,.75,1.07,12.18,12.18,0,0,0,2.29.69,22.61,22.61,0,0,1,2.62.76,4.3,4.3,0,0,1,1.75,1.2,3.21,3.21,0,0,1,.73,2.22,3.8,3.8,0,0,1-.67,2.19,4.56,4.56,0,0,1-2,1.57,8.12,8.12,0,0,1-3.26.58A11.42,11.42,0,0,1,116.75,44Z"/><path class="cls-2" d="M129.51,44A7.59,7.59,0,0,1,127,42.86l1.1-2.44a7.51,7.51,0,0,0,2.14,1.06,7.94,7.94,0,0,0,2.48.4,4,4,0,0,0,2-.41,1.24,1.24,0,0,0,.66-1.09,1,1,0,0,0-.39-.83,2.87,2.87,0,0,0-1-.53c-.41-.13-1-.28-1.65-.44a22.61,22.61,0,0,1-2.62-.76A4.25,4.25,0,0,1,128,36.6a3.28,3.28,0,0,1-.73-2.24,3.9,3.9,0,0,1,.66-2.21,4.44,4.44,0,0,1,2-1.57A8.07,8.07,0,0,1,133.2,30a10.93,10.93,0,0,1,2.62.32,7.69,7.69,0,0,1,2.24.92l-1,2.46a7.84,7.84,0,0,0-3.88-1.1,3.65,3.65,0,0,0-2,.44,1.35,1.35,0,0,0-.65,1.16,1.13,1.13,0,0,0,.75,1.07,12.18,12.18,0,0,0,2.29.69,22.61,22.61,0,0,1,2.62.76,4.3,4.3,0,0,1,1.75,1.2,3.21,3.21,0,0,1,.73,2.22,3.8,3.8,0,0,1-.67,2.19,4.56,4.56,0,0,1-2,1.57,8.12,8.12,0,0,1-3.26.58A11.42,11.42,0,0,1,129.51,44Z"/><path class="cls-2" d="M151.72,41.64v2.6H140.88v-14h10.58v2.6H144.1v3h6.5V38.4h-6.5v3.24Z"/><path class="cls-2" d="M163,44.24l-3.38-4.86-3.32,4.86h-3.72l5.18-7.12-4.92-6.88h3.68l3.22,4.54,3.16-4.54h3.5L161.5,37l5.22,7.24Z"/><path class="cls-2" d="M186.94,30.24v14H183.7V38.5h-6.36v5.74H174.1v-14h3.24v5.52h6.36V30.24Z"/><path class="cls-2" d="M190.26,30.24h3.24v14h-3.24Z"/><path class="cls-2" d="M206.28,37h3V42.7A8.6,8.6,0,0,1,206.6,44a10.16,10.16,0,0,1-3,.46,8.19,8.19,0,0,1-3.92-.93A6.92,6.92,0,0,1,196.93,41a7.52,7.52,0,0,1,0-7.46,6.91,6.91,0,0,1,2.75-2.58,8.33,8.33,0,0,1,4-.93,8.72,8.72,0,0,1,3.34.62,6.55,6.55,0,0,1,2.52,1.8l-2.08,1.92a4.83,4.83,0,0,0-3.62-1.58,5,5,0,0,0-2.38.56,4,4,0,0,0-1.62,1.58,4.62,4.62,0,0,0-.58,2.34,4.57,4.57,0,0,0,.58,2.32,4.1,4.1,0,0,0,1.61,1.59,4.78,4.78,0,0,0,2.35.57,5.27,5.27,0,0,0,2.52-.6Z"/><path class="cls-2" d="M225.08,30.24v14h-3.24V38.5h-6.36v5.74h-3.24v-14h3.24v5.52h6.36V30.24Z"/><path class="cls-1" d="M10.68,67h3V72.7A8.6,8.6,0,0,1,11,74a10.16,10.16,0,0,1-3,.46,8.19,8.19,0,0,1-3.92-.93A6.92,6.92,0,0,1,1.33,71a7.52,7.52,0,0,1,0-7.46,6.91,6.91,0,0,1,2.75-2.58A8.33,8.33,0,0,1,8,60a8.72,8.72,0,0,1,3.34.62,6.55,6.55,0,0,1,2.52,1.8l-2.08,1.92A4.83,4.83,0,0,0,8.2,62.76a5,5,0,0,0-2.38.56A4,4,0,0,0,4.2,64.9a4.62,4.62,0,0,0-.58,2.34,4.57,4.57,0,0,0,.58,2.32,4.1,4.1,0,0,0,1.61,1.59,4.78,4.78,0,0,0,2.35.57,5.27,5.27,0,0,0,2.52-.6Z"/><path class="cls-1" d="M25.56,74.24l-2.7-3.9h-3v3.9H16.64v-14H22.7a7.82,7.82,0,0,1,3.23.62A4.78,4.78,0,0,1,28,62.62a4.88,4.88,0,0,1,.74,2.7,4.56,4.56,0,0,1-2.88,4.42L29,74.24Zm-.82-10.73a3.42,3.42,0,0,0-2.22-.63H19.88v4.88h2.64a3.36,3.36,0,0,0,2.22-.64,2.52,2.52,0,0,0,0-3.61Z"/><path class="cls-1" d="M40.56,71.24h-6.5l-1.24,3H29.5l6.24-14h3.2l6.26,14H41.8Zm-1-2.46-2.22-5.36L35.1,68.78Z"/><path class="cls-1" d="M46.66,60.24H53a9,9,0,0,1,4,.87,6.54,6.54,0,0,1,2.72,2.45,7.47,7.47,0,0,1,0,7.36,6.54,6.54,0,0,1-2.72,2.45,9,9,0,0,1-4,.87H46.66Zm6.2,11.34a4.7,4.7,0,0,0,3.35-1.17,4.64,4.64,0,0,0,0-6.34,4.7,4.7,0,0,0-3.35-1.17h-3v8.68Z"/><path class="cls-1" d="M64.73,72.82a6.41,6.41,0,0,1-1.67-4.74V60.24H66.3V68q0,3.77,3.12,3.76a2.91,2.91,0,0,0,2.32-.91,4.27,4.27,0,0,0,.8-2.85V60.24h3.2v7.84a6.41,6.41,0,0,1-1.67,4.74,6.32,6.32,0,0,1-4.67,1.66A6.32,6.32,0,0,1,64.73,72.82Z"/><path class="cls-1" d="M87.86,71.24h-6.5l-1.24,3H76.8l6.24-14h3.2l6.26,14H89.1Zm-1-2.46-2.22-5.36L82.4,68.78Z"/><path class="cls-1" d="M96.16,62.88H91.68V60.24h12.2v2.64H99.4V74.24H96.16Z"/><path class="cls-1" d="M116.46,71.64v2.6H105.62v-14H116.2v2.6h-7.36v3h6.5V68.4h-6.5v3.24Z"/><path class="cls-1" d="M119,60.24h6.36a9,9,0,0,1,4,.87,6.54,6.54,0,0,1,2.72,2.45,7.47,7.47,0,0,1,0,7.36,6.54,6.54,0,0,1-2.72,2.45,9,9,0,0,1-4,.87H119Zm6.2,11.34a4.7,4.7,0,0,0,3.35-1.17,4.64,4.64,0,0,0,0-6.34,4.7,4.7,0,0,0-3.35-1.17h-3v8.68Z"/><path class="cls-1" d="M135.14,66.66a1.91,1.91,0,0,1-.56-1.4,1.84,1.84,0,0,1,.56-1.39,2.06,2.06,0,0,1,2.76,0,1.84,1.84,0,0,1,.56,1.39,1.91,1.91,0,0,1-.56,1.4,2,2,0,0,1-2.76,0Zm0,7.18a1.91,1.91,0,0,1-.56-1.4,1.84,1.84,0,0,1,.56-1.39,2.06,2.06,0,0,1,2.76,0,1.84,1.84,0,0,1,.56,1.39,1.91,1.91,0,0,1-.56,1.4,2,2,0,0,1-2.76,0Z"/><path class="cls-2" d="M156,71.6v2.64H145.46v-2.1l5.4-5.1A5.94,5.94,0,0,0,152,65.63a2.54,2.54,0,0,0,.3-1.17,1.55,1.55,0,0,0-.57-1.29,2.66,2.66,0,0,0-1.67-.45,3.88,3.88,0,0,0-1.66.35,3.12,3.12,0,0,0-1.24,1.05l-2.36-1.52a5.58,5.58,0,0,1,2.26-1.91,7.55,7.55,0,0,1,3.3-.69,6.78,6.78,0,0,1,2.73.51A4.19,4.19,0,0,1,154.93,62a3.75,3.75,0,0,1,.65,2.19,4.89,4.89,0,0,1-.48,2.14,8.14,8.14,0,0,1-1.86,2.28l-3.22,3Z"/><path class="cls-2" d="M160.24,73.62a5.69,5.69,0,0,1-2.13-2.49,10.21,10.21,0,0,1,0-7.78,5.72,5.72,0,0,1,10.46,0,10.21,10.21,0,0,1,0,7.78,5.84,5.84,0,0,1-8.33,2.49Zm5.11-3a6.22,6.22,0,0,0,.73-3.4,6.22,6.22,0,0,0-.73-3.4,2.37,2.37,0,0,0-4,0,6.22,6.22,0,0,0-.73,3.4,6.22,6.22,0,0,0,.73,3.4,2.37,2.37,0,0,0,4,0Z"/><path class="cls-2" d="M176.2,60.24v14H173V62.84h-2.8v-2.6Z"/><path class="cls-2" d="M191.46,71.3h-2.28v2.94H186V71.3h-7.54V69.12l6.6-8.88h3.4l-6.12,8.42h3.76V66h3.06v2.62h2.28Z"/><path class="cls-1" d="M4.46,92.84v3.7h6.48v2.6H4.46v5.1H1.22v-14H11.8v2.6Z"/><path class="cls-1" d="M22.64,101.24h-6.5l-1.24,3H11.58l6.24-14H21l6.26,14h-3.4Zm-1-2.46L19.4,93.42l-2.22,5.36Z"/><path class="cls-1" d="M41.44,90.24l-6.06,14h-3.2l-6-14h3.5l4.26,10,4.32-10Z"/><path class="cls-1" d="M45.29,103.54A7,7,0,0,1,42.55,101a7.45,7.45,0,0,1,0-7.42,7,7,0,0,1,2.74-2.59,8.66,8.66,0,0,1,7.85,0,7.11,7.11,0,0,1,2.74,2.59,7.38,7.38,0,0,1,0,7.42,7.11,7.11,0,0,1-2.74,2.59,8.66,8.66,0,0,1-7.85,0Zm6.17-2.39A4.07,4.07,0,0,0,53,99.56a5,5,0,0,0,0-4.64,4.07,4.07,0,0,0-1.57-1.59,4.69,4.69,0,0,0-4.48,0,4.07,4.07,0,0,0-1.57,1.59,5,5,0,0,0,0,4.64A4.07,4.07,0,0,0,47,101.15a4.69,4.69,0,0,0,4.48,0Z"/><path class="cls-1" d="M60.87,102.82a6.41,6.41,0,0,1-1.67-4.74V90.24h3.24V98q0,3.77,3.12,3.76a2.91,2.91,0,0,0,2.32-.91,4.27,4.27,0,0,0,.8-2.85V90.24h3.2v7.84a6.41,6.41,0,0,1-1.67,4.74,6.32,6.32,0,0,1-4.67,1.66A6.32,6.32,0,0,1,60.87,102.82Z"/><path class="cls-1" d="M84,104.24l-2.7-3.9h-3v3.9H75.08v-14h6.06a7.82,7.82,0,0,1,3.23.62,4.78,4.78,0,0,1,2.11,1.76,4.88,4.88,0,0,1,.74,2.7,4.56,4.56,0,0,1-2.88,4.42l3.14,4.5Zm-.82-10.73A3.42,3.42,0,0,0,81,92.88H78.32v4.88H81a3.36,3.36,0,0,0,2.22-.64,2.52,2.52,0,0,0,0-3.61Z"/><path class="cls-1" d="M89.78,90.24H93v14H89.78Z"/><path class="cls-1" d="M99.24,92.88H94.76V90.24H107v2.64h-4.48v11.36H99.24Z"/><path class="cls-1" d="M119.54,101.64v2.6H108.7v-14h10.58v2.6h-7.36v3h6.5V98.4h-6.5v3.24Z"/><path class="cls-1" d="M127.78,90.24h6.36a9,9,0,0,1,4,.87,6.54,6.54,0,0,1,2.72,2.45,7.47,7.47,0,0,1,0,7.36,6.54,6.54,0,0,1-2.72,2.45,9,9,0,0,1-4,.87h-6.36Zm6.2,11.34a4.7,4.7,0,0,0,3.35-1.17,4.64,4.64,0,0,0,0-6.34A4.7,4.7,0,0,0,134,92.9h-3v8.68Z"/><path class="cls-1" d="M153.22,104.24l-2.7-3.9h-3v3.9H144.3v-14h6.06a7.82,7.82,0,0,1,3.23.62,4.78,4.78,0,0,1,2.11,1.76,4.88,4.88,0,0,1,.74,2.7,4.56,4.56,0,0,1-2.88,4.42l3.14,4.5Zm-.82-10.73a3.42,3.42,0,0,0-2.22-.63h-2.64v4.88h2.64a3.36,3.36,0,0,0,2.22-.64,2.52,2.52,0,0,0,0-3.61Z"/><path class="cls-1" d="M159,90.24h3.24v14H159Z"/><path class="cls-1" d="M178.4,90.24v14h-2.66l-7-8.5v8.5h-3.2v-14h2.68l7,8.5v-8.5Z"/><path class="cls-1" d="M186.82,98.74l-1.88,2v3.54h-3.22v-14h3.22v6.54l6.2-6.54h3.6l-5.8,6.24,6.14,7.76H191.3Z"/><path class="cls-1" d="M196.1,96.66a1.87,1.87,0,0,1-.56-1.4,1.8,1.8,0,0,1,.56-1.39,2.06,2.06,0,0,1,2.76,0,1.84,1.84,0,0,1,.56,1.39,1.91,1.91,0,0,1-.56,1.4,2,2,0,0,1-2.76,0Zm0,7.18a1.87,1.87,0,0,1-.56-1.4,1.8,1.8,0,0,1,.56-1.39,2.06,2.06,0,0,1,2.76,0,1.84,1.84,0,0,1,.56,1.39,1.91,1.91,0,0,1-.56,1.4,2,2,0,0,1-2.76,0Z"/><path class="cls-2" d="M216.34,104.24l-2.7-3.9h-3v3.9h-3.24v-14h6.06a7.85,7.85,0,0,1,3.23.62,4.78,4.78,0,0,1,2.11,1.76,4.88,4.88,0,0,1,.74,2.7,4.56,4.56,0,0,1-2.88,4.42l3.14,4.5Zm-.82-10.73a3.42,3.42,0,0,0-2.22-.63h-2.64v4.88h2.64a3.36,3.36,0,0,0,2.22-.64,2.52,2.52,0,0,0,0-3.61Z"/><path class="cls-2" d="M223.67,102.82A6.37,6.37,0,0,1,222,98.08V90.24h3.24V98q0,3.77,3.12,3.76a2.93,2.93,0,0,0,2.32-.91,4.27,4.27,0,0,0,.8-2.85V90.24h3.2v7.84a6.41,6.41,0,0,1-1.67,4.74,7.4,7.4,0,0,1-9.34,0Z"/><path class="cls-2" d="M250.62,104.24l0-8.4-4.12,6.92H245L240.92,96v8.22h-3v-14h2.68l5.24,8.7,5.16-8.7h2.66l0,14Z"/><path class="cls-2" d="M273.4,104.48l-1.68-1.56a7.42,7.42,0,0,1-4.68,1.56,7.19,7.19,0,0,1-2.74-.49,4.44,4.44,0,0,1-1.91-1.37,3.14,3.14,0,0,1-.69-2,3.73,3.73,0,0,1,.73-2.29,7.17,7.17,0,0,1,2.35-1.89,5.61,5.61,0,0,1-1.1-1.49,3.3,3.3,0,0,1-.34-1.47,3.08,3.08,0,0,1,.54-1.8,3.53,3.53,0,0,1,1.53-1.21,5.64,5.64,0,0,1,2.29-.43,4.59,4.59,0,0,1,2.92.87,2.84,2.84,0,0,1,1.1,2.35,3.07,3.07,0,0,1-.65,1.92A6.64,6.64,0,0,1,269,96.82l2.56,2.38a9.45,9.45,0,0,0,.7-2.18l2.5.78a9.34,9.34,0,0,1-1.28,3.18l1.64,1.52Zm-3.52-3.26-3.38-3.16a4.36,4.36,0,0,0-1.34,1.06,1.87,1.87,0,0,0-.4,1.18,1.46,1.46,0,0,0,.68,1.26,3.09,3.09,0,0,0,1.82.48A4.43,4.43,0,0,0,269.88,101.22Zm-3.29-8.68a1.15,1.15,0,0,0-.41.92,1.5,1.5,0,0,0,.22.79,4.89,4.89,0,0,0,.86,1,5.56,5.56,0,0,0,1.42-1,1.39,1.39,0,0,0,.4-.93,1.06,1.06,0,0,0-.36-.84,1.5,1.5,0,0,0-1-.32A1.61,1.61,0,0,0,266.59,92.54Z"/><path class="cls-2" d="M285.69,103.55A6.9,6.9,0,0,1,283,101a7.52,7.52,0,0,1,0-7.46,6.9,6.9,0,0,1,2.72-2.58,8.68,8.68,0,0,1,7.18-.29,6.65,6.65,0,0,1,2.47,1.84l-2.08,1.92a4.49,4.49,0,0,0-3.52-1.64,4.67,4.67,0,0,0-2.32.57,4.05,4.05,0,0,0-1.59,1.59,5,5,0,0,0,0,4.64,4.05,4.05,0,0,0,1.59,1.59,4.67,4.67,0,0,0,2.32.57,4.45,4.45,0,0,0,3.52-1.66l2.08,1.92a6.63,6.63,0,0,1-2.48,1.86,8.2,8.2,0,0,1-3.3.64A8,8,0,0,1,285.69,103.55Z"/><path class="cls-2" d="M300.07,103.54a7,7,0,0,1-2.74-2.59,7.45,7.45,0,0,1,0-7.42,7,7,0,0,1,2.74-2.59,8.66,8.66,0,0,1,7.85,0,7.14,7.14,0,0,1,0,12.6,8.66,8.66,0,0,1-7.85,0Zm6.17-2.39a4.14,4.14,0,0,0,1.57-1.59,5,5,0,0,0,0-4.64,4.14,4.14,0,0,0-1.57-1.59,4.47,4.47,0,0,0-2.24-.57,4.42,4.42,0,0,0-2.24.57,4.07,4.07,0,0,0-1.57,1.59,5,5,0,0,0,0,4.64,4.07,4.07,0,0,0,1.57,1.59,4.42,4.42,0,0,0,2.24.57A4.47,4.47,0,0,0,306.24,101.15Z"/><path class="cls-2" d="M316.93,103.55a6.9,6.9,0,0,1-2.72-2.58,7.52,7.52,0,0,1,0-7.46,6.9,6.9,0,0,1,2.72-2.58,8.68,8.68,0,0,1,7.18-.29,6.65,6.65,0,0,1,2.47,1.84L324.5,94.4A4.49,4.49,0,0,0,321,92.76a4.67,4.67,0,0,0-2.32.57,4.05,4.05,0,0,0-1.59,1.59,5,5,0,0,0,0,4.64,4.05,4.05,0,0,0,1.59,1.59,4.67,4.67,0,0,0,2.32.57,4.45,4.45,0,0,0,3.52-1.66l2.08,1.92a6.63,6.63,0,0,1-2.48,1.86,8.2,8.2,0,0,1-3.3.64A8,8,0,0,1,316.93,103.55Z"/><path class="cls-2" d="M337.7,101.24h-6.5l-1.24,3h-3.32l6.24-14h3.2l6.26,14h-3.4Zm-1-2.46-2.22-5.36-2.22,5.36Z"/><path class="cls-2" d="M342.72,97.36h5.66v2.5h-5.66Z"/><path class="cls-2" d="M354,103.55a6.9,6.9,0,0,1-2.72-2.58,7.52,7.52,0,0,1,0-7.46A6.9,6.9,0,0,1,354,90.93a8.68,8.68,0,0,1,7.18-.29,6.65,6.65,0,0,1,2.47,1.84l-2.08,1.92A4.49,4.49,0,0,0,358,92.76a4.67,4.67,0,0,0-2.32.57,4.05,4.05,0,0,0-1.59,1.59,5,5,0,0,0,0,4.64,4.05,4.05,0,0,0,1.59,1.59,4.67,4.67,0,0,0,2.32.57,4.45,4.45,0,0,0,3.52-1.66l2.08,1.92a6.63,6.63,0,0,1-2.48,1.86,8.2,8.2,0,0,1-3.3.64A8,8,0,0,1,354,103.55Z"/><path class="cls-2" d="M368.35,103.54a7,7,0,0,1-2.74-2.59,7.45,7.45,0,0,1,0-7.42,7,7,0,0,1,2.74-2.59,8.66,8.66,0,0,1,7.85,0,7.14,7.14,0,0,1,0,12.6,8.66,8.66,0,0,1-7.85,0Zm6.17-2.39a4.14,4.14,0,0,0,1.57-1.59,5,5,0,0,0,0-4.64,4.14,4.14,0,0,0-1.57-1.59,4.47,4.47,0,0,0-2.24-.57,4.42,4.42,0,0,0-2.24.57,4.07,4.07,0,0,0-1.57,1.59,5,5,0,0,0,0,4.64,4.07,4.07,0,0,0,1.57,1.59,4.42,4.42,0,0,0,2.24.57A4.47,4.47,0,0,0,374.52,101.15Z"/><path class="cls-2" d="M382.38,90.24h3.24V101.6h7v2.64H382.38Z"/><path class="cls-2" d="M403.8,101.24h-6.5l-1.24,3h-3.32l6.24-14h3.2l6.26,14H405Zm-1-2.46-2.22-5.36-2.22,5.36Z"/></g></g></svg>