<svg xmlns="http://www.w3.org/2000/svg" viewBox="0 0 429.11 69.01"><defs><style>.cls-1{fill:#9ce1fd;}.cls-2,.cls-3,.cls-5{fill:#534d72;}.cls-2,.cls-4,.cls-5{stroke:#534d72;stroke-miterlimit:10;}.cls-2{stroke-width:1.56px;}.cls-4{fill:none;stroke-width:3.12px;}.cls-5{stroke-width:1.04px;}</style></defs><title>Asset 57</title><g id="Layer_2" data-name="Layer 2"><g id="Layer_1-2" data-name="Layer 1"><rect class="cls-1" x="14.56" y="2.91" width="37.95" height="11.35" rx="5.32" ry="5.32"/><path class="cls-2" d="M40.19,65.54H4.72v-48H40.19ZM6.86,63.41h31.2V19.64H6.86Z"/><path class="cls-2" d="M44,19.64H.78V9.78a3,3,0,0,1,3-3H41a3,3,0,0,1,3,3ZM2.91,17.51h39V9.78A.89.89,0,0,0,41,8.89H3.81a.9.9,0,0,0-.9.89Z"/><path class="cls-2" d="M40.19,8.89H4.72V6.1A5.33,5.33,0,0,1,10,.78H34.87A5.32,5.32,0,0,1,40.19,6.1ZM6.86,6.75h31.2V6.1a3.19,3.19,0,0,0-3.19-3.19H10A3.19,3.19,0,0,0,6.86,6.1Z"/><rect class="cls-2" x="5.79" y="30.76" width="33.33" height="2.13"/><rect class="cls-2" x="5.79" y="49.05" width="33.33" height="2.13"/><rect class="cls-3" x="6.87" y="12.13" width="13.26" height="2.13" rx="1.07" ry="1.07"/><rect class="cls-2" x="12.43" y="23.35" width="2.13" height="36.2" rx="1.07" ry="1.07"/><rect class="cls-1" x="103.79" y="45.83" width="27.83" height="11.58" rx="5.42" ry="5.42"/><rect class="cls-2" x="77.4" y="15.43" width="22.47" height="2.46" rx="1.23" ry="1.23" transform="translate(14.86 68.52) rotate(-45.75)"/><rect class="cls-2" x="86.76" y="18.21" width="13.43" height="2.46" rx="1.23" ry="1.23" transform="translate(14.34 72.84) rotate(-45.76)"/><rect class="cls-2" x="94.82" y="44.61" width="24.78" height="2.46" rx="1.23" ry="1.23"/><path class="cls-2" d="M137.19,37.39h-60a4.09,4.09,0,0,1-4.09-4.09V5.57a4.09,4.09,0,0,1,4.09-4.09h60a4.09,4.09,0,0,1,4.09,4.09V33.3A4.09,4.09,0,0,1,137.19,37.39Zm-60-33.45A1.63,1.63,0,0,0,75.6,5.57V33.3a1.63,1.63,0,0,0,1.63,1.63h60a1.63,1.63,0,0,0,1.63-1.63V5.57a1.63,1.63,0,0,0-1.63-1.63Z"/><rect class="cls-2" x="105.98" y="36.16" width="2.46" height="9.67"/><path class="cls-2" d="M135,64.12a4.64,4.64,0,0,1-4.64-4.64V55.35a4.64,4.64,0,1,1,9.27,0v4.13A4.64,4.64,0,0,1,135,64.12Zm0-11a2.19,2.19,0,0,0-2.18,2.18v4.13a2.18,2.18,0,0,0,4.36,0V55.35A2.19,2.19,0,0,0,135,53.17Z"/><path class="cls-2" d="M118.6,64.84H95.82a3.57,3.57,0,0,1-3.57-3.57V55a3.57,3.57,0,0,1,3.57-3.57H118.6A3.57,3.57,0,0,1,122.17,55v6.26A3.57,3.57,0,0,1,118.6,64.84ZM95.82,53.9A1.1,1.1,0,0,0,94.71,55v6.26a1.11,1.11,0,0,0,1.11,1.11H118.6a1.11,1.11,0,0,0,1.11-1.11V55a1.1,1.1,0,0,0-1.11-1.11Z"/><circle class="cls-1" cx="213.07" cy="42" r="14.19"/><path class="cls-2" d="M240.35,59.89h-75V14.65h75ZM168,57.25h69.69v-40H168Z"/><circle class="cls-4" cx="202.86" cy="37.12" r="13.98"/><polyline class="cls-4" points="173.13 15.97 173.13 11.53 181.12 11.53 181.12 15.97"/><polyline class="cls-4" points="193.99 15.97 193.99 6.43 213.07 6.43 213.07 15.97"/><rect class="cls-2" x="179.8" y="23.14" width="2.64" height="26.78" rx="1.32" ry="1.32"/><rect class="cls-4" x="195.69" y="32.23" width="14.35" height="9.77"/><rect class="cls-2" x="221.28" y="21.82" width="10.65" height="2.64" rx="1.32" ry="1.32"/><rect class="cls-1" x="263.21" y="25.48" width="12.39" height="43.53" rx="5.8" ry="5.8"/><rect class="cls-4" x="269.44" y="25.48" width="12.31" height="35.37" rx="5.76" ry="5.76"/><circle class="cls-4" cx="275.59" cy="13.35" r="7.88"/><rect class="cls-4" x="291.45" y="25.48" width="12.31" height="35.37" rx="5.76" ry="5.76"/><circle class="cls-4" cx="297.68" cy="13.35" r="7.88"/><rect class="cls-4" x="313.77" y="25.48" width="12.31" height="35.37" rx="5.76" ry="5.76"/><circle class="cls-4" cx="319.92" cy="13.35" r="7.88"/><path class="cls-5" d="M263.75,43.36h0a1.36,1.36,0,0,1-.28-1.89l4.37-5.92L270,37.16l-4.36,5.91A1.36,1.36,0,0,1,263.75,43.36Z"/><path class="cls-5" d="M285.8,43.36h0a1.35,1.35,0,0,1-.28-1.89l4.37-5.92,2.17,1.61-4.37,5.91A1.35,1.35,0,0,1,285.8,43.36Z"/><path class="cls-5" d="M308,43.36h0a1.35,1.35,0,0,1-.28-1.89l4.36-5.92,2.18,1.61-4.37,5.91A1.35,1.35,0,0,1,308,43.36Z"/><path class="cls-5" d="M332,43.36h0a1.36,1.36,0,0,0,.28-1.89l-4.37-5.92-2.17,1.61,4.36,5.91A1.36,1.36,0,0,0,332,43.36Z"/><path class="cls-5" d="M309.52,43.36h0a1.36,1.36,0,0,0,.29-1.89l-4.37-5.92-2.18,1.61,4.37,5.91A1.35,1.35,0,0,0,309.52,43.36Z"/><path class="cls-5" d="M287.59,43.36h0a1.36,1.36,0,0,0,.29-1.89l-4.37-5.92-2.18,1.61,4.37,5.91A1.35,1.35,0,0,0,287.59,43.36Z"/><rect class="cls-1" x="407.65" y="13.88" width="10.93" height="28.67" rx="5.12" ry="5.12" transform="translate(41.24 210.34) rotate(-30)"/><path class="cls-4" d="M368.51,51.94l-3.07,1.63a.84.84,0,0,1-1.14-.35l-2.5-4.7a.84.84,0,0,1,.35-1.13l3.08-1.64"/><path class="cls-4" d="M420.74,16.23l3.07-1.64a.85.85,0,0,1,1.14.35l2.5,4.7a.84.84,0,0,1-.35,1.14L424,22.41"/><line class="cls-4" x1="413.11" y1="28.22" x2="379.44" y2="46.13"/><line class="cls-4" x1="409.82" y1="22.03" x2="376.15" y2="39.94"/><rect class="cls-4" x="366.37" y="37.39" width="5.51" height="19.67" rx="1.88" ry="1.88" transform="translate(21.05 178.85) rotate(-28)"/><rect class="cls-4" x="370.85" y="28.3" width="6.85" height="30.84" rx="1.88" ry="1.88" transform="translate(23.29 180.86) rotate(-28)"/><rect class="cls-4" x="417.02" y="10.45" width="5.51" height="19.67" rx="1.88" ry="1.88" transform="translate(799.93 -158.91) rotate(152)"/><rect class="cls-4" x="410.58" y="7.17" width="6.85" height="30.84" rx="1.88" ry="1.88" transform="translate(790.14 -151.85) rotate(152)"/></g></g></svg>