<svg xmlns="http://www.w3.org/2000/svg" viewBox="0 0 474 365"><defs><style>.cls-1{fill:#fff;}.cls-2{fill:#9f9ef2;}.cls-3{fill:#ff9492;}.cls-4{fill:#9ce1fd;}.cls-5{fill:#534d72;}</style></defs><title>Asset 10</title><g id="Layer_2" data-name="Layer 2"><g id="Layer_8" data-name="Layer 8"><rect class="cls-1" width="473" height="365"/><path class="cls-2" d="M50,13.37H40.87V8H65.75v5.39H56.61V36.53H50Z"/><path class="cls-2" d="M89.79,16.71q2.5,2.45,2.51,7.26V36.53H85.93V25a5.75,5.75,0,0,0-1.14-3.9,4.2,4.2,0,0,0-3.3-1.28,5.05,5.05,0,0,0-3.83,1.49,6.11,6.11,0,0,0-1.43,4.42V36.53H69.87V6.27h6.36v10.6a8.32,8.32,0,0,1,3.06-1.93,11,11,0,0,1,3.91-.68A9,9,0,0,1,89.79,16.71Z"/><path class="cls-2" d="M120.68,27.35h-16.6a5.21,5.21,0,0,0,2.12,3.23,7.09,7.09,0,0,0,4.16,1.18,8.46,8.46,0,0,0,3-.51,7.56,7.56,0,0,0,2.47-1.61l3.38,3.67q-3.1,3.54-9,3.55a14.38,14.38,0,0,1-6.57-1.45,10.66,10.66,0,0,1-4.4-4,11,11,0,0,1-1.55-5.83,11.21,11.21,0,0,1,1.53-5.81,10.74,10.74,0,0,1,4.2-4,13,13,0,0,1,11.8-.06,10.07,10.07,0,0,1,4.1,4,11.85,11.85,0,0,1,1.49,6Q120.8,25.76,120.68,27.35Zm-14.89-7A5.19,5.19,0,0,0,104,23.64h10.81a5.28,5.28,0,0,0-1.8-3.32,5.35,5.35,0,0,0-3.59-1.24A5.46,5.46,0,0,0,105.79,20.3Z"/><path class="cls-2" d="M145,13.37h-9.13V8h24.87v5.39h-9.13V36.53H145Z"/><path class="cls-2" d="M184,27.35h-16.6a5.21,5.21,0,0,0,2.12,3.23,7.09,7.09,0,0,0,4.16,1.18,8.42,8.42,0,0,0,3-.51,7.45,7.45,0,0,0,2.47-1.61l3.38,3.67q-3.09,3.54-9,3.55a14.41,14.41,0,0,1-6.57-1.45,10.66,10.66,0,0,1-4.4-4A11.1,11.1,0,0,1,161,25.56a11.21,11.21,0,0,1,1.53-5.81,10.74,10.74,0,0,1,4.2-4,13,13,0,0,1,11.8-.06,10.07,10.07,0,0,1,4.1,4,11.85,11.85,0,0,1,1.49,6Q184.09,25.76,184,27.35Zm-14.89-7a5.24,5.24,0,0,0-1.79,3.34H178.1a5.28,5.28,0,0,0-1.8-3.32,5.35,5.35,0,0,0-3.59-1.24A5.46,5.46,0,0,0,169.08,20.3Z"/><path class="cls-2" d="M210.72,27.35h-16.6a5.21,5.21,0,0,0,2.12,3.23,7.11,7.11,0,0,0,4.16,1.18,8.42,8.42,0,0,0,3-.51,7.36,7.36,0,0,0,2.47-1.61l3.38,3.67q-3.09,3.54-9,3.55a14.44,14.44,0,0,1-6.57-1.45,10.66,10.66,0,0,1-4.4-4,11.1,11.1,0,0,1-1.55-5.83,11.21,11.21,0,0,1,1.53-5.81,10.74,10.74,0,0,1,4.2-4,13,13,0,0,1,11.81-.06,10,10,0,0,1,4.09,4,11.75,11.75,0,0,1,1.49,6Q210.84,25.76,210.72,27.35Zm-14.88-7a5.21,5.21,0,0,0-1.8,3.34h10.81a5.23,5.23,0,0,0-5.38-4.56A5.42,5.42,0,0,0,195.84,20.3Z"/><path class="cls-2" d="M236,16.71q2.5,2.45,2.5,7.26V36.53h-6.36V25a5.75,5.75,0,0,0-1.14-3.9,4.2,4.2,0,0,0-3.3-1.28,5.08,5.08,0,0,0-3.84,1.49,6.15,6.15,0,0,0-1.42,4.42V36.53H216.1V14.59h6.08v2.57A8.32,8.32,0,0,1,225.32,15a11,11,0,0,1,4.12-.76A9.06,9.06,0,0,1,236,16.71Z"/><path class="cls-2" d="M272,26.42V36.53h-6.6V26.33L254.35,8h7L269,20.67,276.62,8h6.48Z"/><path class="cls-2" d="M305.37,27.35h-16.6a5.21,5.21,0,0,0,2.12,3.23,7.11,7.11,0,0,0,4.16,1.18,8.38,8.38,0,0,0,3-.51,7.36,7.36,0,0,0,2.47-1.61l3.38,3.67q-3.09,3.54-9.05,3.55a14.37,14.37,0,0,1-6.56-1.45,10.62,10.62,0,0,1-4.41-4,11.1,11.1,0,0,1-1.55-5.83,11.21,11.21,0,0,1,1.53-5.81,10.74,10.74,0,0,1,4.2-4,13,13,0,0,1,11.81-.06,10,10,0,0,1,4.09,4,11.75,11.75,0,0,1,1.49,6Q305.49,25.76,305.37,27.35Zm-14.88-7a5.21,5.21,0,0,0-1.8,3.34H299.5a5.21,5.21,0,0,0-5.38-4.56A5.42,5.42,0,0,0,290.49,20.3Z"/><path class="cls-2" d="M326.82,16.69q2.73,2.43,2.73,7.32V36.53H323.6V33.8q-1.8,3.06-6.69,3.06a10.37,10.37,0,0,1-4.38-.86,6.56,6.56,0,0,1-2.84-2.37,6.14,6.14,0,0,1-1-3.42A5.71,5.71,0,0,1,311,25.4c1.53-1.17,3.91-1.76,7.11-1.76h5.06a4.07,4.07,0,0,0-1.26-3.2,5.58,5.58,0,0,0-3.8-1.12,11,11,0,0,0-3.44.55,9.11,9.11,0,0,0-2.88,1.49l-2.28-4.45a13.83,13.83,0,0,1,4.3-1.95,19,19,0,0,1,5.16-.7Q324.09,14.26,326.82,16.69ZM321.4,31.82a4.1,4.1,0,0,0,1.79-2.22V27.35h-4.36q-3.91,0-3.92,2.57a2.29,2.29,0,0,0,1,1.94,4.3,4.3,0,0,0,2.63.71A5.59,5.59,0,0,0,321.4,31.82Z"/><path class="cls-2" d="M345.48,15.08a11.48,11.48,0,0,1,4.46-.82v5.88c-.7-.06-1.18-.09-1.42-.09a5.85,5.85,0,0,0-4.29,1.53,6.2,6.2,0,0,0-1.55,4.59V36.53h-6.36V14.59h6.08v2.89A7,7,0,0,1,345.48,15.08Z"/><path class="cls-2" d="M356.88,36.18a14,14,0,0,1-4.16-1.69l2.12-4.57a13,13,0,0,0,3.55,1.53,14.57,14.57,0,0,0,4.07.59c2.7,0,4-.66,4-2a1.42,1.42,0,0,0-1.1-1.35A16.35,16.35,0,0,0,362,28a34.57,34.57,0,0,1-4.44-.94,6.87,6.87,0,0,1-3-1.88,5.34,5.34,0,0,1-1.28-3.83,6,6,0,0,1,1.2-3.69A7.69,7.69,0,0,1,358,15.16a14.9,14.9,0,0,1,5.44-.9,21.39,21.39,0,0,1,4.63.51,12.76,12.76,0,0,1,3.81,1.41l-2.12,4.53a12.64,12.64,0,0,0-6.32-1.63,6.45,6.45,0,0,0-3.06.57,1.68,1.68,0,0,0-1,1.46,1.46,1.46,0,0,0,1.1,1.43,20.32,20.32,0,0,0,3.51.78,40.4,40.4,0,0,1,4.41.95,6.66,6.66,0,0,1,3,1.86,5.24,5.24,0,0,1,1.27,3.75,5.77,5.77,0,0,1-1.23,3.63A7.82,7.82,0,0,1,367.79,36a16,16,0,0,1-5.57.88A21.24,21.24,0,0,1,356.88,36.18Z"/><path class="cls-3" d="M372,241.5H270a102,102,0,0,1,102-102h0Z"/><path class="cls-2" d="M372,241.5l72.12,72.13a102,102,0,0,1-144.24,0Q270,283.75,270,241.5Z"/><path class="cls-4" d="M372,241.5v-102a102,102,0,0,1,102,102q0,42.26-29.88,72.13Z"/><rect class="cls-2" x="25" y="207" width="94" height="13"/><rect class="cls-3" x="72" y="251" width="94" height="13"/><rect class="cls-4" x="28" y="301" width="94" height="13"/><path class="cls-5" d="M49,196.08a6,6,0,0,1,2.63,2.2,6.57,6.57,0,0,1,0,6.74,5.84,5.84,0,0,1-2.63,2.2,9.84,9.84,0,0,1-4,.76H41.44v4.83h-4v-17.5H45A9.84,9.84,0,0,1,49,196.08Zm-1.49,7.82a3.14,3.14,0,0,0,0-4.5,4.23,4.23,0,0,0-2.78-.79h-3.3v6.07h3.3A4.29,4.29,0,0,0,47.52,203.9Z"/><path class="cls-5" d="M65.89,200.65a5.66,5.66,0,0,1,1.68,4.48v7.68H63.92v-1.68c-.73,1.25-2.1,1.88-4.1,1.88a6.39,6.39,0,0,1-2.69-.53A4,4,0,0,1,55.39,211a3.74,3.74,0,0,1-.6-2.1,3.49,3.49,0,0,1,1.42-3,7.23,7.23,0,0,1,4.36-1.07h3.1a2.46,2.46,0,0,0-.78-2,3.38,3.38,0,0,0-2.32-.69,6.61,6.61,0,0,0-2.11.34,5.38,5.38,0,0,0-1.77.91l-1.4-2.73a8.91,8.91,0,0,1,2.64-1.2,12,12,0,0,1,3.16-.42A6.94,6.94,0,0,1,65.89,200.65Zm-3.32,9.27a2.53,2.53,0,0,0,1.1-1.36v-1.38H61c-1.6,0-2.4.53-2.4,1.58a1.42,1.42,0,0,0,.59,1.19,2.65,2.65,0,0,0,1.61.43A3.4,3.4,0,0,0,62.57,209.92Z"/><path class="cls-5" d="M77.33,199.66a6.9,6.9,0,0,1,2.74-.5v3.6c-.43,0-.73,0-.88,0a3.55,3.55,0,0,0-2.62.94,3.79,3.79,0,0,0-.95,2.81v6.35h-3.9V199.36h3.72v1.77A4.34,4.34,0,0,1,77.33,199.66Z"/><path class="cls-5" d="M92.17,212.16a4,4,0,0,1-1.41.63A6.81,6.81,0,0,1,89,213a5.22,5.22,0,0,1-3.71-1.23,4.69,4.69,0,0,1-1.31-3.6v-5.52H81.89v-3H84v-3.28h3.9v3.28h3.35v3H87.87v5.47a1.82,1.82,0,0,0,.44,1.32,1.64,1.64,0,0,0,1.23.46,2.53,2.53,0,0,0,1.58-.5Z"/><path class="cls-5" d="M108.09,199.36,102,213.63a7.09,7.09,0,0,1-2.29,3.28,5.62,5.62,0,0,1-3.29,1,6.69,6.69,0,0,1-2.07-.33,4.49,4.49,0,0,1-1.68-.9l1.43-2.77a3.38,3.38,0,0,0,1,.62,3.24,3.24,0,0,0,1.16.23,2.05,2.05,0,0,0,1.3-.39,3.38,3.38,0,0,0,.9-1.29l0-.12-5.83-13.55h4l3.77,9.12,3.8-9.12Z"/><path class="cls-5" d="M110.52,196.86a2,2,0,0,1-.68-1.55,2,2,0,0,1,.68-1.55,2.46,2.46,0,0,1,1.75-.63,2.53,2.53,0,0,1,1.75.6,1.92,1.92,0,0,1,.67,1.5,2.14,2.14,0,0,1-.67,1.62,2.76,2.76,0,0,1-3.5,0Zm-.2,2.5h3.9v13.45h-3.9Z"/><path class="cls-5" d="M130.68,200.66a5.92,5.92,0,0,1,1.54,4.45v7.7h-3.9v-7.1a3.55,3.55,0,0,0-.7-2.39,2.56,2.56,0,0,0-2-.79,3.12,3.12,0,0,0-2.35.92,3.77,3.77,0,0,0-.87,2.71v6.65h-3.9V199.36h3.72v1.57a5.29,5.29,0,0,1,1.93-1.31,6.68,6.68,0,0,1,2.52-.46A5.53,5.53,0,0,1,130.68,200.66Z"/><path class="cls-5" d="M150.39,199.36v11.2c0,2.46-.64,4.3-1.92,5.5a8,8,0,0,1-5.63,1.8,14,14,0,0,1-3.7-.48,8.05,8.05,0,0,1-2.9-1.37l1.55-2.8a6.7,6.7,0,0,0,2.15,1.11,8.45,8.45,0,0,0,2.6.41,4.21,4.21,0,0,0,3-.91,3.64,3.64,0,0,0,1-2.76v-.58a5.43,5.43,0,0,1-4.25,1.68,7.12,7.12,0,0,1-3.38-.81,6.25,6.25,0,0,1-2.44-2.29,6.87,6.87,0,0,1,0-6.8,6.18,6.18,0,0,1,2.44-2.29,7.12,7.12,0,0,1,3.38-.81,5.34,5.34,0,0,1,4.45,1.92v-1.72ZM145.56,208a3.39,3.39,0,0,0,0-4.77,4,4,0,0,0-5.09,0,3.34,3.34,0,0,0,0,4.77,4,4,0,0,0,5.09,0Z"/><path class="cls-5" d="M63.84,291.31l-5.72,17.5H53.77L49.92,297l-4,11.85H41.62l-5.75-17.5h4.2l4,12.3,4.12-12.3h3.75l4,12.4L60,291.31Z"/><path class="cls-5" d="M68,308.12a6.66,6.66,0,0,1-2.64-2.46A6.83,6.83,0,0,1,68,296a8.1,8.1,0,0,1,3.81-.88,8,8,0,0,1,3.8.88,6.66,6.66,0,0,1,2.63,2.47,7.2,7.2,0,0,1,0,7.15,6.57,6.57,0,0,1-2.63,2.46,8,8,0,0,1-3.8.89A8.11,8.11,0,0,1,68,308.12Zm6.28-3.33a4.31,4.31,0,0,0,0-5.42,3.53,3.53,0,0,0-4.94,0,4.24,4.24,0,0,0,0,5.42,3.5,3.5,0,0,0,4.94,0Z"/><path class="cls-5" d="M88.06,295.66a6.85,6.85,0,0,1,2.73-.5v3.6c-.43,0-.72-.05-.87-.05a3.57,3.57,0,0,0-2.63.94,3.79,3.79,0,0,0-1,2.81v6.35h-3.9V295.36h3.73v1.77A4.34,4.34,0,0,1,88.06,295.66Z"/><path class="cls-5" d="M99.52,303.53l-1.87,1.85v3.43h-3.9V290.26h3.9v10.5l5.7-5.4H108l-5.6,5.7,6.1,7.75h-4.73Z"/><path class="cls-5" d="M111,292.86a2,2,0,0,1-.67-1.55,2,2,0,0,1,.67-1.55,2.46,2.46,0,0,1,1.75-.63,2.53,2.53,0,0,1,1.75.6,1.93,1.93,0,0,1,.68,1.5,2.15,2.15,0,0,1-.68,1.62,2.76,2.76,0,0,1-3.5,0Zm-.2,2.5h3.9v13.45h-3.9Z"/><path class="cls-5" d="M131.13,296.66a5.92,5.92,0,0,1,1.54,4.45v7.7h-3.9v-7.1a3.5,3.5,0,0,0-.7-2.39,2.56,2.56,0,0,0-2-.79,3.12,3.12,0,0,0-2.35.92,3.77,3.77,0,0,0-.87,2.71v6.65h-3.9V295.36h3.72v1.57a5.29,5.29,0,0,1,1.93-1.31,6.68,6.68,0,0,1,2.52-.46A5.53,5.53,0,0,1,131.13,296.66Z"/><path class="cls-5" d="M150.84,295.36v11.2c0,2.46-.64,4.3-1.92,5.5a8,8,0,0,1-5.63,1.8,14,14,0,0,1-3.7-.48,8.05,8.05,0,0,1-2.9-1.37l1.55-2.8a6.7,6.7,0,0,0,2.15,1.11,8.45,8.45,0,0,0,2.6.41,4.21,4.21,0,0,0,3-.91,3.64,3.64,0,0,0,1-2.76v-.58a5.43,5.43,0,0,1-4.25,1.68,7.12,7.12,0,0,1-3.38-.81,6.25,6.25,0,0,1-2.44-2.29,6.87,6.87,0,0,1,0-6.8,6.18,6.18,0,0,1,2.44-2.29,7.12,7.12,0,0,1,3.38-.81,5.34,5.34,0,0,1,4.45,1.92v-1.72ZM146,304a3.39,3.39,0,0,0,0-4.77,4,4,0,0,0-5.09,0,3.34,3.34,0,0,0,0,4.77,4,4,0,0,0,5.09,0Z"/><path class="cls-5" d="M39.13,259.54A9.28,9.28,0,0,1,36,258.08l1.37-3a9.33,9.33,0,0,0,2.68,1.33,10.15,10.15,0,0,0,3.1.5,5,5,0,0,0,2.55-.51,1.56,1.56,0,0,0,.82-1.37,1.3,1.3,0,0,0-.48-1,3.71,3.71,0,0,0-1.25-.67c-.51-.16-1.2-.35-2.07-.55a26.69,26.69,0,0,1-3.27-.95,5.27,5.27,0,0,1-2.19-1.52,4.12,4.12,0,0,1-.91-2.8,4.84,4.84,0,0,1,.82-2.76,5.57,5.57,0,0,1,2.49-2,10.21,10.21,0,0,1,4.06-.72,13.33,13.33,0,0,1,3.28.4,9.46,9.46,0,0,1,2.8,1.15l-1.25,3.07a9.82,9.82,0,0,0-4.85-1.37,4.51,4.51,0,0,0-2.51.55,1.68,1.68,0,0,0-.82,1.45,1.44,1.44,0,0,0,.94,1.34,15.53,15.53,0,0,0,2.86.86,28.24,28.24,0,0,1,3.28.95,5.31,5.31,0,0,1,2.19,1.5,4.05,4.05,0,0,1,.91,2.77,4.76,4.76,0,0,1-.84,2.74,5.55,5.55,0,0,1-2.51,2,10.16,10.16,0,0,1-4.08.73A14.13,14.13,0,0,1,39.13,259.54Z"/><path class="cls-5" d="M56.33,259.12a6.9,6.9,0,0,1-2.67-9.61A6.71,6.71,0,0,1,56.33,247a8.28,8.28,0,0,1,3.86-.88,7.52,7.52,0,0,1,3.72.88,5.33,5.33,0,0,1,2.31,2.54l-3,1.63a3.28,3.28,0,0,0-3-1.85,3.42,3.42,0,0,0-2.53,1,4.21,4.21,0,0,0,0,5.45,3.46,3.46,0,0,0,2.53,1,3.27,3.27,0,0,0,3-1.85l3,1.65a5.42,5.42,0,0,1-2.31,2.5,7.42,7.42,0,0,1-3.72.9A8.29,8.29,0,0,1,56.33,259.12Z"/><path class="cls-5" d="M81.21,247.66a6,6,0,0,1,1.53,4.45v7.7h-3.9v-7.1a3.5,3.5,0,0,0-.7-2.39,2.54,2.54,0,0,0-2-.79,3.09,3.09,0,0,0-2.35.92,3.73,3.73,0,0,0-.88,2.71v6.65H69V241.26h3.9v6.5a5.29,5.29,0,0,1,1.88-1.19,6.65,6.65,0,0,1,2.4-.41A5.56,5.56,0,0,1,81.21,247.66Z"/><path class="cls-5" d="M89.63,259.12A6.53,6.53,0,0,1,87,256.66a7.2,7.2,0,0,1,0-7.15A6.63,6.63,0,0,1,89.63,247a8.67,8.67,0,0,1,7.61,0,6.73,6.73,0,0,1,2.63,2.47,7.2,7.2,0,0,1,0,7.15,6.64,6.64,0,0,1-2.63,2.46,8.58,8.58,0,0,1-7.61,0Zm6.27-3.33a4.27,4.27,0,0,0,0-5.42,3.26,3.26,0,0,0-2.46-1,3.29,3.29,0,0,0-2.47,1,4.24,4.24,0,0,0,0,5.42,3.27,3.27,0,0,0,2.47,1A3.23,3.23,0,0,0,95.9,255.79Z"/><path class="cls-5" d="M106.63,259.12a6.53,6.53,0,0,1-2.64-2.46,7.2,7.2,0,0,1,0-7.15,6.63,6.63,0,0,1,2.64-2.47,8.67,8.67,0,0,1,7.61,0,6.73,6.73,0,0,1,2.63,2.47,7.2,7.2,0,0,1,0,7.15,6.64,6.64,0,0,1-2.63,2.46,8.58,8.58,0,0,1-7.61,0Zm6.27-3.33a4.27,4.27,0,0,0,0-5.42,3.26,3.26,0,0,0-2.46-1,3.29,3.29,0,0,0-2.47,1,4.24,4.24,0,0,0,0,5.42,3.27,3.27,0,0,0,2.47,1A3.23,3.23,0,0,0,112.9,255.79Z"/><path class="cls-5" d="M121,241.26h3.9v18.55H121Z"/></g></g></svg>