<svg xmlns="http://www.w3.org/2000/svg" viewBox="0 0 456.52 364.65"><defs><style>.cls-1{fill:#6dfebf;}.cls-2{fill:#9ce1fd;}.cls-3{fill:#ff9492;}.cls-4{fill:#534d72;}</style></defs><title>Asset 2</title><g id="Layer_2" data-name="Layer 2"><g id="Layer_8" data-name="Layer 8"><path class="cls-1" d="M26.62,8.93H17.48V3.55H42.36V8.93H33.22V32.09h-6.6Z"/><path class="cls-1" d="M66.4,12.27q2.5,2.46,2.51,7.26V32.09H62.54V20.51a5.7,5.7,0,0,0-1.14-3.89,4.17,4.17,0,0,0-3.3-1.29,5.07,5.07,0,0,0-3.83,1.49,6.13,6.13,0,0,0-1.43,4.43V32.09H46.48V1.83h6.36V12.44A8.48,8.48,0,0,1,55.9,10.5a11,11,0,0,1,3.91-.67A9,9,0,0,1,66.4,12.27Z"/><path class="cls-1" d="M97.29,22.92H80.69a5.19,5.19,0,0,0,2.12,3.22A7,7,0,0,0,87,27.32a8.46,8.46,0,0,0,3-.51,7.4,7.4,0,0,0,2.47-1.61l3.38,3.67q-3.1,3.55-9,3.55A14.25,14.25,0,0,1,80.24,31a10.57,10.57,0,0,1-4.4-4,11,11,0,0,1-1.55-5.84,11.23,11.23,0,0,1,1.53-5.81,10.71,10.71,0,0,1,4.2-4,13,13,0,0,1,11.8-.07,10.13,10.13,0,0,1,4.1,4,11.89,11.89,0,0,1,1.49,6Q97.41,21.33,97.29,22.92ZM82.4,15.86a5.22,5.22,0,0,0-1.79,3.35H91.42a5.28,5.28,0,0,0-1.8-3.33A5.35,5.35,0,0,0,86,14.64,5.51,5.51,0,0,0,82.4,15.86Z"/><path class="cls-1" d="M121.45,30.69a14.26,14.26,0,0,1-5.55-5.26,14.57,14.57,0,0,1-2-7.61,14.51,14.51,0,0,1,2-7.6A14.22,14.22,0,0,1,121.45,5a17.75,17.75,0,0,1,14.64-.59,13.37,13.37,0,0,1,5,3.76L136.89,12a9.12,9.12,0,0,0-7.18-3.34A9.45,9.45,0,0,0,125,9.85a8.15,8.15,0,0,0-3.24,3.24,9.48,9.48,0,0,0-1.17,4.73,9.48,9.48,0,0,0,1.17,4.73A8.15,8.15,0,0,0,125,25.79,9.45,9.45,0,0,0,129.71,27a9.08,9.08,0,0,0,7.18-3.39l4.24,3.92a13.33,13.33,0,0,1-5.06,3.79,16.8,16.8,0,0,1-6.73,1.3A16.43,16.43,0,0,1,121.45,30.69Z"/><path class="cls-1" d="M166.06,12.27c1.68,1.64,2.51,4.06,2.51,7.26V32.09h-6.36V20.51a5.7,5.7,0,0,0-1.14-3.89,4.18,4.18,0,0,0-3.31-1.29,5.07,5.07,0,0,0-3.83,1.49,6.18,6.18,0,0,0-1.43,4.43V32.09h-6.36V1.83h6.36V12.44a8.65,8.65,0,0,1,3.06-1.94,11.05,11.05,0,0,1,3.92-.67A9,9,0,0,1,166.06,12.27Z"/><path class="cls-1" d="M175.67,6.08a3.3,3.3,0,0,1-1.1-2.53A3.28,3.28,0,0,1,175.67,1a4,4,0,0,1,2.85-1,4.17,4.17,0,0,1,2.86,1,3.15,3.15,0,0,1,1.1,2.45,3.49,3.49,0,0,1-1.1,2.63,4.47,4.47,0,0,1-5.71,0Zm-.33,4.07h6.36V32.09h-6.36Z"/><path class="cls-1" d="M188.63,1.83H195V32.09h-6.37Z"/><path class="cls-1" d="M224.28,1.83V32.09H218.2V29.57a8.4,8.4,0,0,1-6.85,2.85A11.33,11.33,0,0,1,205.74,31a9.89,9.89,0,0,1-3.93-4,12,12,0,0,1-1.43-6,12,12,0,0,1,1.43-6,10,10,0,0,1,3.93-4,11.43,11.43,0,0,1,5.61-1.38,8.31,8.31,0,0,1,6.56,2.65V1.83Zm-7.83,23.72A6.12,6.12,0,0,0,218,21.12a6.11,6.11,0,0,0-1.59-4.42,5.72,5.72,0,0,0-8,0,6.11,6.11,0,0,0-1.59,4.42,6.12,6.12,0,0,0,1.59,4.43,5.72,5.72,0,0,0,8,0Z"/><path class="cls-1" d="M257.88,22V32.09h-6.61V21.9L240.22,3.55h7l7.63,12.68,7.63-12.68H269Z"/><path class="cls-1" d="M291.24,22.92h-16.6a5.15,5.15,0,0,0,2.12,3.22,7,7,0,0,0,4.16,1.18,8.46,8.46,0,0,0,3-.51,7.26,7.26,0,0,0,2.46-1.61l3.39,3.67q-3.1,3.55-9.06,3.55A14.24,14.24,0,0,1,274.19,31a10.57,10.57,0,0,1-4.4-4,11,11,0,0,1-1.55-5.84,11.32,11.32,0,0,1,1.52-5.81,10.71,10.71,0,0,1,4.2-4,13,13,0,0,1,11.81-.07,10.13,10.13,0,0,1,4.1,4,11.89,11.89,0,0,1,1.49,6Q291.36,21.33,291.24,22.92Zm-14.89-7.06a5.17,5.17,0,0,0-1.79,3.35h10.8a5.22,5.22,0,0,0-1.79-3.33A5.37,5.37,0,0,0,280,14.64,5.51,5.51,0,0,0,276.35,15.86Z"/><path class="cls-1" d="M312.69,12.25q2.73,2.43,2.73,7.32V32.09h-6V29.36q-1.79,3.06-6.68,3.06a10.42,10.42,0,0,1-4.39-.86,6.57,6.57,0,0,1-2.83-2.36,6.2,6.2,0,0,1-1-3.43,5.72,5.72,0,0,1,2.3-4.81q2.31-1.76,7.12-1.75h5.06a4,4,0,0,0-1.27-3.2A5.54,5.54,0,0,0,304,14.88a11,11,0,0,0-3.45.56,9.15,9.15,0,0,0-2.87,1.48l-2.28-4.44a13.74,13.74,0,0,1,4.3-2,19.34,19.34,0,0,1,5.16-.69C308.25,9.83,310.87,10.64,312.69,12.25Zm-5.43,15.13a4.11,4.11,0,0,0,1.8-2.22V22.92h-4.37c-2.61,0-3.91.85-3.91,2.57a2.27,2.27,0,0,0,1,1.93,4.28,4.28,0,0,0,2.63.72A5.47,5.47,0,0,0,307.26,27.38Z"/><path class="cls-1" d="M331.34,10.64a11.5,11.5,0,0,1,4.47-.81V15.7c-.71,0-1.18-.08-1.43-.08a5.82,5.82,0,0,0-4.28,1.53,6.2,6.2,0,0,0-1.55,4.59V32.09h-6.36V10.15h6.07v2.9A7.19,7.19,0,0,1,331.34,10.64Z"/><path class="cls-1" d="M342.74,31.75a14,14,0,0,1-4.16-1.7l2.12-4.56A13.7,13.7,0,0,0,344.25,27a15.07,15.07,0,0,0,4.08.59q4,0,4-2a1.42,1.42,0,0,0-1.11-1.35,16.37,16.37,0,0,0-3.38-.69,31.33,31.33,0,0,1-4.45-.94,6.85,6.85,0,0,1-3-1.87,5.34,5.34,0,0,1-1.29-3.84,6,6,0,0,1,1.2-3.69,7.79,7.79,0,0,1,3.51-2.5,15,15,0,0,1,5.45-.9,21.24,21.24,0,0,1,4.62.51,13.23,13.23,0,0,1,3.82,1.4l-2.12,4.53a12.64,12.64,0,0,0-6.32-1.63,6.45,6.45,0,0,0-3.06.57,1.68,1.68,0,0,0-1,1.47,1.46,1.46,0,0,0,1.1,1.43,19.17,19.17,0,0,0,3.51.77,37.68,37.68,0,0,1,4.4,1,6.73,6.73,0,0,1,3,1.85,5.29,5.29,0,0,1,1.26,3.76,5.82,5.82,0,0,1-1.22,3.63,7.81,7.81,0,0,1-3.57,2.46,15.77,15.77,0,0,1-5.57.88A21.24,21.24,0,0,1,342.74,31.75Z"/><path class="cls-2" d="M355,263.15v101.5a101.5,101.5,0,0,1,0-203h0Z"/><path class="cls-1" d="M355,263.15l31.36-96.53a101.5,101.5,0,0,1,65.17,127.89c-13.86,42.65-51.69,70.14-96.53,70.14Z"/><path class="cls-3" d="M355,263.15V161.65a96.58,96.58,0,0,1,31.36,5Z"/><rect class="cls-3" x="55" y="272.65" width="94" height="13"/><rect class="cls-2" y="212.65" width="94" height="13"/><rect class="cls-1" x="57" y="322.65" width="94" height="13"/><path class="cls-4" d="M22.13,234.19A9.28,9.28,0,0,1,19,232.73l1.37-3A9.31,9.31,0,0,0,23.07,231a9.85,9.85,0,0,0,3.1.5,5,5,0,0,0,2.55-.51,1.53,1.53,0,0,0,.82-1.36,1.32,1.32,0,0,0-.48-1,3.88,3.88,0,0,0-1.25-.66c-.51-.17-1.2-.35-2.07-.55a28.59,28.59,0,0,1-3.27-.95,5.38,5.38,0,0,1-2.19-1.53,4.1,4.1,0,0,1-.91-2.8,4.89,4.89,0,0,1,.82-2.76,5.56,5.56,0,0,1,2.49-2,10.2,10.2,0,0,1,4.06-.73,13.83,13.83,0,0,1,3.28.4,9.73,9.73,0,0,1,2.8,1.15l-1.25,3.08a9.73,9.73,0,0,0-4.85-1.38,4.6,4.6,0,0,0-2.51.55,1.69,1.69,0,0,0-.82,1.45,1.43,1.43,0,0,0,.94,1.34,14.78,14.78,0,0,0,2.86.86,30.37,30.37,0,0,1,3.28,1,5.51,5.51,0,0,1,2.19,1.5,4.08,4.08,0,0,1,.91,2.78,4.79,4.79,0,0,1-.84,2.74,5.62,5.62,0,0,1-2.51,2,10.34,10.34,0,0,1-4.08.72A14.13,14.13,0,0,1,22.13,234.19Z"/><path class="cls-4" d="M48.06,221.67a6.23,6.23,0,0,1,2.41,2.42,8,8,0,0,1,0,7.28,6.23,6.23,0,0,1-2.41,2.42,6.84,6.84,0,0,1-3.42.86,5.22,5.22,0,0,1-4-1.62v6.27h-3.9V221h3.73v1.55a5.17,5.17,0,0,1,4.22-1.75A6.85,6.85,0,0,1,48.06,221.67Zm-1.63,8.77a4.31,4.31,0,0,0,0-5.42,3.48,3.48,0,0,0-4.92,0,4.27,4.27,0,0,0,0,5.42,3.5,3.5,0,0,0,4.92,0Z"/><path class="cls-4" d="M57.16,233.77a6.56,6.56,0,0,1-2.64-2.47,7.2,7.2,0,0,1,0-7.15,6.53,6.53,0,0,1,2.64-2.46,8.58,8.58,0,0,1,7.61,0,6.61,6.61,0,0,1,2.62,2.46,7.2,7.2,0,0,1,0,7.15,6.63,6.63,0,0,1-2.62,2.47,8.67,8.67,0,0,1-7.61,0Zm6.27-3.33a4.31,4.31,0,0,0,0-5.42A3.23,3.23,0,0,0,61,224a3.29,3.29,0,0,0-2.48,1,4.27,4.27,0,0,0,0,5.42,3.28,3.28,0,0,0,2.48,1A3.22,3.22,0,0,0,63.43,230.44Z"/><path class="cls-4" d="M77.18,221.3a7,7,0,0,1,2.74-.5v3.6l-.88-.05a3.59,3.59,0,0,0-2.62.94,3.8,3.8,0,0,0-1,2.81v6.35h-3.9V221h3.72v1.78A4.43,4.43,0,0,1,77.18,221.3Z"/><path class="cls-4" d="M92,233.8a3.82,3.82,0,0,1-1.41.64,7.27,7.27,0,0,1-1.77.21,5.22,5.22,0,0,1-3.71-1.22,4.71,4.71,0,0,1-1.31-3.6V224.3H81.74v-3h2.08V218h3.9v3.27h3.35v3H87.72v5.48a1.79,1.79,0,0,0,.44,1.31,1.6,1.6,0,0,0,1.23.46,2.47,2.47,0,0,0,1.58-.5Z"/><path class="cls-4" d="M96.09,234.24a8.48,8.48,0,0,1-2.55-1l1.3-2.8a8,8,0,0,0,2.18.94,9.16,9.16,0,0,0,2.5.36c1.65,0,2.47-.4,2.47-1.22a.87.87,0,0,0-.67-.83,10.74,10.74,0,0,0-2.08-.42,20,20,0,0,1-2.72-.58,4.12,4.12,0,0,1-1.86-1.15,3.24,3.24,0,0,1-.79-2.35,3.63,3.63,0,0,1,.74-2.26,4.71,4.71,0,0,1,2.15-1.54,9.29,9.29,0,0,1,3.33-.55,13,13,0,0,1,2.84.32,8,8,0,0,1,2.34.86l-1.3,2.77a7.84,7.84,0,0,0-3.88-1,4,4,0,0,0-1.87.35,1,1,0,0,0-.63.9.9.9,0,0,0,.68.88,11.82,11.82,0,0,0,2.15.47,24,24,0,0,1,2.7.59,4,4,0,0,1,1.82,1.14,3.22,3.22,0,0,1,.78,2.3,3.54,3.54,0,0,1-.75,2.22,4.81,4.81,0,0,1-2.19,1.52,9.93,9.93,0,0,1-3.41.53A12.88,12.88,0,0,1,96.09,234.24Z"/><path class="cls-4" d="M37.22,313l-7.58,17.5h-4L18.09,313h4.38l5.32,12.5,5.4-12.5Z"/><path class="cls-4" d="M39.47,314.5a2,2,0,0,1-.68-1.55,2,2,0,0,1,.68-1.55,2.49,2.49,0,0,1,1.75-.62,2.53,2.53,0,0,1,1.75.6,1.92,1.92,0,0,1,.67,1.5,2.11,2.11,0,0,1-.67,1.61,2.42,2.42,0,0,1-1.75.64A2.46,2.46,0,0,1,39.47,314.5Zm-.2,2.5h3.9v13.45h-3.9Z"/><path class="cls-4" d="M61.12,311.9v18.55H57.39V328.9a5.12,5.12,0,0,1-4.2,1.75,6.92,6.92,0,0,1-3.43-.85,6.06,6.06,0,0,1-2.42-2.42,8.09,8.09,0,0,1,0-7.3,6.15,6.15,0,0,1,2.42-2.43,7,7,0,0,1,3.43-.85,5.14,5.14,0,0,1,4,1.63V311.9Zm-4.8,14.54a4.27,4.27,0,0,0,0-5.42,3.25,3.25,0,0,0-2.45-1,3.29,3.29,0,0,0-2.48,1,4.27,4.27,0,0,0,0,5.42,3.28,3.28,0,0,0,2.48,1A3.24,3.24,0,0,0,56.32,326.44Z"/><path class="cls-4" d="M78.44,324.83H68.27a3.12,3.12,0,0,0,1.3,2,4.25,4.25,0,0,0,2.55.73,5.11,5.11,0,0,0,1.86-.31,4.49,4.49,0,0,0,1.51-1l2.08,2.25A7,7,0,0,1,72,330.65a8.82,8.82,0,0,1-4-.88,6.59,6.59,0,0,1-2.7-2.47,6.81,6.81,0,0,1-1-3.57,6.91,6.91,0,0,1,.94-3.56,6.55,6.55,0,0,1,2.58-2.48,7.95,7.95,0,0,1,7.23,0,6.23,6.23,0,0,1,2.52,2.44,7.37,7.37,0,0,1,.91,3.69C78.52,323.83,78.49,324.18,78.44,324.83Zm-9.12-4.33a3.19,3.19,0,0,0-1.1,2.05h6.62a3.2,3.2,0,0,0-1.1-2,3.28,3.28,0,0,0-2.2-.77A3.35,3.35,0,0,0,69.32,320.5Z"/><path class="cls-4" d="M84.33,329.77a6.69,6.69,0,0,1-2.64-2.47,7.2,7.2,0,0,1,0-7.15,6.66,6.66,0,0,1,2.64-2.46,8.11,8.11,0,0,1,3.81-.89,8,8,0,0,1,3.8.89,6.64,6.64,0,0,1,2.63,2.46,7.2,7.2,0,0,1,0,7.15,6.66,6.66,0,0,1-2.63,2.47,8,8,0,0,1-3.8.88A8.1,8.1,0,0,1,84.33,329.77Zm6.28-3.33a4.31,4.31,0,0,0,0-5.42,3.5,3.5,0,0,0-4.94,0,4.24,4.24,0,0,0,0,5.42,3.53,3.53,0,0,0,4.94,0Z"/><path class="cls-4" d="M118.54,321.43h3.7v7.1a10.43,10.43,0,0,1-3.3,1.65,12.92,12.92,0,0,1-3.77.57,10.16,10.16,0,0,1-4.9-1.16,8.6,8.6,0,0,1-3.41-3.22,9.4,9.4,0,0,1,0-9.33,8.59,8.59,0,0,1,3.43-3.22,10.39,10.39,0,0,1,4.95-1.17,10.77,10.77,0,0,1,4.18.78,8.34,8.34,0,0,1,3.15,2.25l-2.6,2.4a6,6,0,0,0-4.53-2,6.23,6.23,0,0,0-3,.7,5.09,5.09,0,0,0-2,2,6.24,6.24,0,0,0,0,5.82,5.15,5.15,0,0,0,2,2,5.86,5.86,0,0,0,2.93.71,6.55,6.55,0,0,0,3.15-.75Z"/><path class="cls-4" d="M136.57,318.29a5.72,5.72,0,0,1,1.67,4.49v7.67h-3.65v-1.67c-.73,1.25-2.1,1.87-4.1,1.87a6.31,6.31,0,0,1-2.68-.52,4,4,0,0,1-1.74-1.45,3.79,3.79,0,0,1-.6-2.1,3.51,3.51,0,0,1,1.41-2.95,7.17,7.17,0,0,1,4.36-1.08h3.1a2.5,2.5,0,0,0-.77-2,3.41,3.41,0,0,0-2.33-.69,7,7,0,0,0-2.11.34,5.73,5.73,0,0,0-1.76.91l-1.4-2.72a8.23,8.23,0,0,1,2.64-1.2,11.87,11.87,0,0,1,3.16-.43A7,7,0,0,1,136.57,318.29Zm-3.33,9.28a2.51,2.51,0,0,0,1.1-1.37v-1.37h-2.67c-1.6,0-2.4.52-2.4,1.57a1.39,1.39,0,0,0,.59,1.19,2.63,2.63,0,0,0,1.61.44A3.36,3.36,0,0,0,133.24,327.57Z"/><path class="cls-4" d="M163.63,318.29a6.06,6.06,0,0,1,1.49,4.46v7.7h-3.9v-7.1a3.63,3.63,0,0,0-.66-2.38,2.34,2.34,0,0,0-1.89-.79,2.8,2.8,0,0,0-2.18.89,3.83,3.83,0,0,0-.8,2.63v6.75h-3.9v-7.1c0-2.11-.85-3.17-2.55-3.17a2.77,2.77,0,0,0-2.15.89,3.83,3.83,0,0,0-.8,2.63v6.75h-3.9V317h3.73v1.55a5,5,0,0,1,1.84-1.3,6.15,6.15,0,0,1,2.38-.45,5.75,5.75,0,0,1,2.58.57,4.62,4.62,0,0,1,1.85,1.63,5.42,5.42,0,0,1,2.09-1.62,6.62,6.62,0,0,1,2.76-.58A5.43,5.43,0,0,1,163.63,318.29Z"/><path class="cls-4" d="M182.49,324.83H172.32a3.12,3.12,0,0,0,1.3,2,4.25,4.25,0,0,0,2.55.73,5.11,5.11,0,0,0,1.86-.31,4.49,4.49,0,0,0,1.51-1l2.08,2.25a7,7,0,0,1-5.55,2.17,8.82,8.82,0,0,1-4-.88,6.59,6.59,0,0,1-2.7-2.47,6.81,6.81,0,0,1-1-3.57,6.91,6.91,0,0,1,.94-3.56,6.55,6.55,0,0,1,2.58-2.48,7.95,7.95,0,0,1,7.23,0,6.23,6.23,0,0,1,2.52,2.44,7.37,7.37,0,0,1,.91,3.69C182.57,323.83,182.54,324.18,182.49,324.83Zm-9.12-4.33a3.19,3.19,0,0,0-1.1,2.05h6.62a3.2,3.2,0,0,0-1.1-2,3.28,3.28,0,0,0-2.2-.77A3.35,3.35,0,0,0,173.37,320.5Z"/><path class="cls-4" d="M187,330.24a8.48,8.48,0,0,1-2.55-1l1.3-2.8a8,8,0,0,0,2.18.94,9.16,9.16,0,0,0,2.5.36c1.65,0,2.47-.4,2.47-1.22a.87.87,0,0,0-.67-.83,10.74,10.74,0,0,0-2.08-.42,19.62,19.62,0,0,1-2.72-.58,4.12,4.12,0,0,1-1.86-1.15,3.24,3.24,0,0,1-.79-2.35,3.63,3.63,0,0,1,.74-2.26,4.71,4.71,0,0,1,2.15-1.54,9.29,9.29,0,0,1,3.33-.55,13,13,0,0,1,2.84.32,8,8,0,0,1,2.34.86l-1.3,2.77a7.87,7.87,0,0,0-3.88-1,4,4,0,0,0-1.87.35,1,1,0,0,0-.63.9.9.9,0,0,0,.68.88,11.62,11.62,0,0,0,2.15.47,24,24,0,0,1,2.7.59,4,4,0,0,1,1.82,1.14,3.22,3.22,0,0,1,.78,2.3,3.54,3.54,0,0,1-.75,2.22,4.81,4.81,0,0,1-2.19,1.52,10,10,0,0,1-3.41.53A12.88,12.88,0,0,1,187,330.24Z"/><path class="cls-4" d="M22.13,281.19A9.28,9.28,0,0,1,19,279.73l1.37-3.05A9.31,9.31,0,0,0,23.07,278a9.85,9.85,0,0,0,3.1.5,5,5,0,0,0,2.55-.51,1.53,1.53,0,0,0,.82-1.36,1.32,1.32,0,0,0-.48-1,3.88,3.88,0,0,0-1.25-.66c-.51-.17-1.2-.35-2.07-.55a28.59,28.59,0,0,1-3.27-.95,5.38,5.38,0,0,1-2.19-1.53,4.1,4.1,0,0,1-.91-2.8,4.89,4.89,0,0,1,.82-2.76,5.56,5.56,0,0,1,2.49-2,10.2,10.2,0,0,1,4.06-.73,13.83,13.83,0,0,1,3.28.4,9.73,9.73,0,0,1,2.8,1.15l-1.25,3.08a9.73,9.73,0,0,0-4.85-1.38,4.6,4.6,0,0,0-2.51.55,1.69,1.69,0,0,0-.82,1.45,1.43,1.43,0,0,0,.94,1.34,14.78,14.78,0,0,0,2.86.86,30.37,30.37,0,0,1,3.28.95,5.51,5.51,0,0,1,2.19,1.5,4.08,4.08,0,0,1,.91,2.78,4.79,4.79,0,0,1-.84,2.74,5.62,5.62,0,0,1-2.51,2,10.34,10.34,0,0,1-4.08.72A14.13,14.13,0,0,1,22.13,281.19Z"/><path class="cls-4" d="M39.33,280.77a6.79,6.79,0,0,1,0-12.08,8.29,8.29,0,0,1,3.86-.89,7.53,7.53,0,0,1,3.72.89,5.28,5.28,0,0,1,2.31,2.54l-3,1.62a3.3,3.3,0,0,0-3-1.85,3.46,3.46,0,0,0-2.53,1,3.73,3.73,0,0,0-1,2.73,3.69,3.69,0,0,0,1,2.72,3.42,3.42,0,0,0,2.53,1,3.25,3.25,0,0,0,3-1.85l3,1.65a5.37,5.37,0,0,1-2.31,2.5,7.42,7.42,0,0,1-3.72.9A8.28,8.28,0,0,1,39.33,280.77Z"/><path class="cls-4" d="M64.21,269.3a6,6,0,0,1,1.53,4.45v7.7h-3.9v-7.1a3.47,3.47,0,0,0-.7-2.38,2.54,2.54,0,0,0-2-.79,3.08,3.08,0,0,0-2.35.91,3.75,3.75,0,0,0-.88,2.71v6.65H52V262.9h3.9v6.5a5.27,5.27,0,0,1,1.88-1.18,6.65,6.65,0,0,1,2.4-.42A5.56,5.56,0,0,1,64.21,269.3Z"/><path class="cls-4" d="M72.63,280.77A6.56,6.56,0,0,1,70,278.3a7.2,7.2,0,0,1,0-7.15,6.53,6.53,0,0,1,2.64-2.46,8.58,8.58,0,0,1,7.61,0,6.64,6.64,0,0,1,2.63,2.46,7.2,7.2,0,0,1,0,7.15,6.66,6.66,0,0,1-2.63,2.47,8.67,8.67,0,0,1-7.61,0Zm6.27-3.33a4.27,4.27,0,0,0,0-5.42,3.23,3.23,0,0,0-2.46-1A3.27,3.27,0,0,0,74,272a4.24,4.24,0,0,0,0,5.42,3.26,3.26,0,0,0,2.47,1A3.22,3.22,0,0,0,78.9,277.44Z"/><path class="cls-4" d="M89.63,280.77A6.56,6.56,0,0,1,87,278.3a7.2,7.2,0,0,1,0-7.15,6.53,6.53,0,0,1,2.64-2.46,8.58,8.58,0,0,1,7.61,0,6.64,6.64,0,0,1,2.63,2.46,7.2,7.2,0,0,1,0,7.15,6.66,6.66,0,0,1-2.63,2.47,8.67,8.67,0,0,1-7.61,0Zm6.27-3.33a4.27,4.27,0,0,0,0-5.42,3.23,3.23,0,0,0-2.46-1A3.27,3.27,0,0,0,91,272a4.24,4.24,0,0,0,0,5.42,3.26,3.26,0,0,0,2.47,1A3.22,3.22,0,0,0,95.9,277.44Z"/><path class="cls-4" d="M104,262.9h3.9v18.55H104Z"/></g></g></svg>