<svg xmlns="http://www.w3.org/2000/svg" viewBox="0 0 330.36 105.2"><defs><style>.cls-1{fill:#ff9492;}.cls-2{fill:#534d72;}</style></defs><title>Asset 47</title><g id="Layer_2" data-name="Layer 2"><g id="Layer_8" data-name="Layer 8"><path class="cls-1" d="M13.38,9a3.55,3.55,0,0,1,.68,2.19A3.24,3.24,0,0,1,12.63,14a7.3,7.3,0,0,1-4.17,1H1.22V1H8.06a6.71,6.71,0,0,1,3.93,1A3.12,3.12,0,0,1,13.36,4.6a3.38,3.38,0,0,1-.49,1.82A3.34,3.34,0,0,1,11.5,7.68,3.74,3.74,0,0,1,13.38,9ZM4.44,3.4V6.7H7.66a3.24,3.24,0,0,0,1.82-.42A1.4,1.4,0,0,0,10.1,5a1.4,1.4,0,0,0-.62-1.23A3.34,3.34,0,0,0,7.66,3.4Zm5.71,8.7a1.44,1.44,0,0,0,.65-1.3q0-1.74-2.58-1.74H4.44v3.46H8.22A3.59,3.59,0,0,0,10.15,12.1Z"/><path class="cls-1" d="M19.37,14.26a6.91,6.91,0,0,1-2.74-2.59,7.05,7.05,0,0,1-1-3.71,7.08,7.08,0,0,1,1-3.71,7,7,0,0,1,2.74-2.59,8.66,8.66,0,0,1,7.85,0A7.11,7.11,0,0,1,30,4.25,7,7,0,0,1,31,8a7,7,0,0,1-1,3.71,7,7,0,0,1-2.74,2.59,8.09,8.09,0,0,1-3.92.94A8.15,8.15,0,0,1,19.37,14.26Zm6.17-2.39a4.07,4.07,0,0,0,1.57-1.59A4.67,4.67,0,0,0,27.68,8a4.69,4.69,0,0,0-.57-2.32,4.07,4.07,0,0,0-1.57-1.59,4.69,4.69,0,0,0-4.48,0,4.07,4.07,0,0,0-1.57,1.59A4.69,4.69,0,0,0,18.92,8a4.67,4.67,0,0,0,.57,2.32,4.07,4.07,0,0,0,1.57,1.59,4.69,4.69,0,0,0,4.48,0Z"/><path class="cls-1" d="M42.32,15l-2.7-3.9h-3V15H33.4V1h6.06a7.82,7.82,0,0,1,3.23.62A4.84,4.84,0,0,1,44.8,3.34,4.88,4.88,0,0,1,45.54,6a4.74,4.74,0,0,1-.75,2.69,4.71,4.71,0,0,1-2.13,1.73L45.8,15ZM41.5,4.23a3.42,3.42,0,0,0-2.22-.63H36.64V8.48h2.64a3.36,3.36,0,0,0,2.22-.64A2.2,2.2,0,0,0,42.26,6,2.22,2.22,0,0,0,41.5,4.23Z"/><path class="cls-1" d="M60.94,1V15H58.28l-7-8.5V15H48.1V1h2.68l7,8.5V1Z"/><path class="cls-1" d="M63.84,7.38A1.91,1.91,0,0,1,63.28,6a1.85,1.85,0,0,1,.56-1.39,2.06,2.06,0,0,1,2.76,0A1.85,1.85,0,0,1,67.16,6a1.91,1.91,0,0,1-.56,1.4,2,2,0,0,1-2.76,0Zm0,7.18a1.91,1.91,0,0,1-.56-1.4,1.85,1.85,0,0,1,.56-1.39,2.06,2.06,0,0,1,2.76,0,1.85,1.85,0,0,1,.56,1.39,1.91,1.91,0,0,1-.56,1.4,2,2,0,0,1-2.76,0Z"/><path class="cls-2" d="M87.9,15l0-8.4-4.12,6.92H82.3L78.2,6.74V15h-3V1h2.68l5.24,8.7L88.24,1H90.9l0,14Z"/><path class="cls-2" d="M103.48,12H97l-1.24,3H92.42L98.66,1h3.2l6.26,14h-3.4Zm-1-2.46-2.22-5.36L98,9.5Z"/><path class="cls-2" d="M115.44,10v5H112.2V10l-5.42-9h3.44L114,7.18,117.7,1h3.18Z"/><path class="cls-2" d="M132.42,1V15h-3.24V3.56h-2.8V1Z"/><path class="cls-2" d="M135.86,8.18a4.35,4.35,0,0,1-1.45-.68l.64-1.43a4.12,4.12,0,0,0,1.24.62,4.64,4.64,0,0,0,1.45.24,2.3,2.3,0,0,0,1.19-.24.71.71,0,0,0,.38-.64.61.61,0,0,0-.22-.48,1.73,1.73,0,0,0-.59-.31c-.23-.08-.55-.16-1-.26A13.77,13.77,0,0,1,136,4.56a2.65,2.65,0,0,1-1-.71,1.94,1.94,0,0,1-.42-1.31A2.35,2.35,0,0,1,135,1.25a2.63,2.63,0,0,1,1.16-.91A4.68,4.68,0,0,1,138,0a6.05,6.05,0,0,1,1.53.19,4.49,4.49,0,0,1,1.3.53l-.58,1.44A4.54,4.54,0,0,0,138,1.52a2.12,2.12,0,0,0-1.17.25.77.77,0,0,0-.38.68.65.65,0,0,0,.43.62,6.49,6.49,0,0,0,1.34.4,13.53,13.53,0,0,1,1.53.45,2.63,2.63,0,0,1,1,.7,1.89,1.89,0,0,1,.42,1.29,2.25,2.25,0,0,1-.39,1.28,2.61,2.61,0,0,1-1.17.91,4.71,4.71,0,0,1-1.9.34A6.81,6.81,0,0,1,135.86,8.18Z"/><path class="cls-2" d="M144.06,1.68h-2.61V.14h7.11V1.68H146V8.3h-1.89Z"/><path class="cls-2" d="M160.45,1V15h-3.24V3.56h-2.8V1Z"/><path class="cls-2" d="M172.41,2.51a7.35,7.35,0,0,1,1.66,5.15,8.72,8.72,0,0,1-.89,4.08,6,6,0,0,1-2.51,2.58,7.68,7.68,0,0,1-3.74.88,8.77,8.77,0,0,1-2.14-.25,5.52,5.52,0,0,1-1.74-.71l1.2-2.38a4.5,4.5,0,0,0,2.62.7,3.81,3.81,0,0,0,2.82-1.05,4.44,4.44,0,0,0,1.12-3,4.7,4.7,0,0,1-3.48,1.26,5.43,5.43,0,0,1-2.44-.54,4.18,4.18,0,0,1-1.74-1.53,4.09,4.09,0,0,1-.64-2.29,4.35,4.35,0,0,1,.7-2.46,4.55,4.55,0,0,1,1.91-1.63,6.2,6.2,0,0,1,2.69-.57A6,6,0,0,1,172.41,2.51Zm-2.63,4.22a1.93,1.93,0,0,0,.67-1.51,1.94,1.94,0,0,0-.65-1.5A2.64,2.64,0,0,0,168,3.14a2.5,2.5,0,0,0-1.69.56,1.89,1.89,0,0,0-.65,1.52,1.91,1.91,0,0,0,.65,1.53,2.87,2.87,0,0,0,3.46,0Z"/><path class="cls-2" d="M185.15,2.51a7.35,7.35,0,0,1,1.66,5.15,8.72,8.72,0,0,1-.89,4.08,6,6,0,0,1-2.51,2.58,7.68,7.68,0,0,1-3.74.88,8.77,8.77,0,0,1-2.14-.25,5.52,5.52,0,0,1-1.74-.71l1.2-2.38a4.5,4.5,0,0,0,2.62.7,3.81,3.81,0,0,0,2.82-1.05,4.44,4.44,0,0,0,1.12-3,4.7,4.7,0,0,1-3.48,1.26,5.43,5.43,0,0,1-2.44-.54,4.18,4.18,0,0,1-1.74-1.53,4.09,4.09,0,0,1-.64-2.29,4.35,4.35,0,0,1,.7-2.46,4.55,4.55,0,0,1,1.91-1.63,6.2,6.2,0,0,1,2.69-.57A6,6,0,0,1,185.15,2.51Zm-2.63,4.22a1.93,1.93,0,0,0,.67-1.51,1.94,1.94,0,0,0-.65-1.5,2.64,2.64,0,0,0-1.79-.58,2.5,2.5,0,0,0-1.69.56,1.89,1.89,0,0,0-.65,1.52,1.91,1.91,0,0,0,.65,1.53,2.87,2.87,0,0,0,3.46,0Z"/><path class="cls-2" d="M197.55,6.72a4.31,4.31,0,0,1,1.74,1.53,4.2,4.2,0,0,1,.64,2.29,4.38,4.38,0,0,1-.7,2.46,4.6,4.6,0,0,1-1.91,1.63,6.27,6.27,0,0,1-2.69.57,5.94,5.94,0,0,1-4.6-1.8,7.29,7.29,0,0,1-1.66-5.14,8.65,8.65,0,0,1,.9-4.08,6.13,6.13,0,0,1,2.51-2.58,7.7,7.7,0,0,1,3.73-.88,9.51,9.51,0,0,1,2.15.25,6.1,6.1,0,0,1,1.75.71l-1.2,2.38a4.67,4.67,0,0,0-2.62-.7,3.81,3.81,0,0,0-2.82,1,4.32,4.32,0,0,0-1.12,3,4.69,4.69,0,0,1,3.46-1.24A5.49,5.49,0,0,1,197.55,6.72Zm-1.41,5.5a1.91,1.91,0,0,0,.65-1.52,1.94,1.94,0,0,0-.65-1.53,2.89,2.89,0,0,0-3.47,0A1.9,1.9,0,0,0,192,10.7a1.89,1.89,0,0,0,.66,1.5,2.62,2.62,0,0,0,1.8.58A2.48,2.48,0,0,0,196.14,12.22Z"/><path class="cls-1" d="M22.38,31,17.8,45H14.32l-3.08-9.48L8.06,45H4.6L0,31H3.36L6.52,40.8,9.82,31h3L16,40.88,19.28,31Z"/><path class="cls-1" d="M35,42.36V45H24.18V31H34.76v2.6H27.4v3h6.5v2.52H27.4v3.24Z"/><path class="cls-1" d="M37.6,31h3.24V45H37.6Z"/><path class="cls-1" d="M53.62,37.74h3v5.68a8.18,8.18,0,0,1-2.64,1.32,10.16,10.16,0,0,1-3,.46A8.19,8.19,0,0,1,47,44.27a6.92,6.92,0,0,1-2.73-2.58,7.52,7.52,0,0,1,0-7.46A6.91,6.91,0,0,1,47,31.65a8.33,8.33,0,0,1,4-.93,8.72,8.72,0,0,1,3.34.62,6.76,6.76,0,0,1,2.52,1.8l-2.08,1.92a4.83,4.83,0,0,0-3.62-1.58,5,5,0,0,0-2.38.56,4.1,4.1,0,0,0-1.62,1.58A4.62,4.62,0,0,0,46.56,38a4.57,4.57,0,0,0,.58,2.32,4.1,4.1,0,0,0,1.61,1.59,4.78,4.78,0,0,0,2.35.57,5.27,5.27,0,0,0,2.52-.6Z"/><path class="cls-1" d="M72.42,31V45H69.18V39.22H62.82V45H59.58V31h3.24v5.52h6.36V31Z"/><path class="cls-1" d="M78.64,33.6H74.16V31h12.2V33.6H81.88V45H78.64Z"/><path class="cls-1" d="M87.48,37.38a1.91,1.91,0,0,1-.56-1.4,1.85,1.85,0,0,1,.56-1.39,2.06,2.06,0,0,1,2.76,0A1.85,1.85,0,0,1,90.8,36a1.91,1.91,0,0,1-.56,1.4,2,2,0,0,1-2.76,0Zm0,7.18a1.91,1.91,0,0,1-.56-1.4,1.85,1.85,0,0,1,.56-1.39,2.06,2.06,0,0,1,2.76,0,1.85,1.85,0,0,1,.56,1.39,1.91,1.91,0,0,1-.56,1.4,2,2,0,0,1-2.76,0Z"/><path class="cls-2" d="M109.09,39a3.44,3.44,0,0,1,.55,1.94,3.64,3.64,0,0,1-.74,2.27,4.67,4.67,0,0,1-2.08,1.5,9.3,9.3,0,0,1-6.19,0,4.61,4.61,0,0,1-2.06-1.5,3.63,3.63,0,0,1-.73-2.27A3.44,3.44,0,0,1,98.39,39,4,4,0,0,1,100,37.6a3.39,3.39,0,0,1-1.2-1.21,3.26,3.26,0,0,1-.42-1.67A3.44,3.44,0,0,1,99,32.6a4.37,4.37,0,0,1,1.9-1.39,7.6,7.6,0,0,1,2.8-.49,7.73,7.73,0,0,1,2.83.49,4.34,4.34,0,0,1,1.91,1.39,3.44,3.44,0,0,1,.68,2.12,3.26,3.26,0,0,1-.42,1.67,3.37,3.37,0,0,1-1.22,1.21A4,4,0,0,1,109.09,39Zm-3.44,3.31a1.87,1.87,0,0,0,0-2.93,3.12,3.12,0,0,0-1.93-.54,3,3,0,0,0-1.9.54,1.89,1.89,0,0,0,0,2.94,3.64,3.64,0,0,0,3.83,0Zm-3.5-8.7a1.59,1.59,0,0,0-.59,1.29,1.49,1.49,0,0,0,.58,1.26,2.46,2.46,0,0,0,1.58.46,2.54,2.54,0,0,0,1.6-.46,1.48,1.48,0,0,0,.6-1.26,1.57,1.57,0,0,0-.6-1.29,2.54,2.54,0,0,0-1.6-.47A2.47,2.47,0,0,0,102.15,33.57Z"/><path class="cls-2" d="M111.38,38.08H117v2.5h-5.66Z"/><path class="cls-2" d="M129,31.58a5,5,0,0,1,2.11,7.15A4.65,4.65,0,0,1,129,40.49a7.82,7.82,0,0,1-3.23.61H123V45h-3.24V31h6.06A7.82,7.82,0,0,1,129,31.58Zm-1.19,6.25a2.18,2.18,0,0,0,.76-1.79,2.22,2.22,0,0,0-.76-1.81,3.42,3.42,0,0,0-2.22-.63H123v4.86h2.64A3.42,3.42,0,0,0,127.82,37.83Z"/><path class="cls-2" d="M137.21,44.26a6.91,6.91,0,0,1-2.74-2.59,7.45,7.45,0,0,1,0-7.42,7,7,0,0,1,2.74-2.59,8.66,8.66,0,0,1,7.85,0,7.11,7.11,0,0,1,2.74,2.59,7.14,7.14,0,0,1-2.74,10,8.66,8.66,0,0,1-7.85,0Zm6.17-2.39A4.07,4.07,0,0,0,145,40.28a5,5,0,0,0,0-4.64,4.07,4.07,0,0,0-1.57-1.59,4.69,4.69,0,0,0-4.48,0,4.07,4.07,0,0,0-1.57,1.59,5,5,0,0,0,0,4.64,4.07,4.07,0,0,0,1.57,1.59,4.69,4.69,0,0,0,4.48,0Z"/><path class="cls-2" d="M152.79,43.54a6.38,6.38,0,0,1-1.67-4.74V31h3.24v7.72q0,3.76,3.12,3.76a2.91,2.91,0,0,0,2.32-.91,4.24,4.24,0,0,0,.8-2.85V31h3.2V38.8a6.38,6.38,0,0,1-1.67,4.74,7.4,7.4,0,0,1-9.34,0Z"/><path class="cls-2" d="M179.84,31V45h-2.66l-7-8.5V45H167V31h2.68l7,8.5V31Z"/><path class="cls-2" d="M183.16,31h6.36a9,9,0,0,1,4,.87,6.54,6.54,0,0,1,2.72,2.45,7.47,7.47,0,0,1,0,7.36,6.47,6.47,0,0,1-2.72,2.45,9,9,0,0,1-4,.87h-6.36Zm6.2,11.34a4.7,4.7,0,0,0,3.35-1.17A4.13,4.13,0,0,0,194,38a4.15,4.15,0,0,0-1.25-3.17,4.7,4.7,0,0,0-3.35-1.17h-3V42.3Z"/><path class="cls-2" d="M201.07,44.75a7.59,7.59,0,0,1-2.49-1.17l1.1-2.44a7.26,7.26,0,0,0,2.14,1.06,7.94,7.94,0,0,0,2.48.4,3.89,3.89,0,0,0,2-.41A1.23,1.23,0,0,0,207,41.1a1,1,0,0,0-.39-.83,3.15,3.15,0,0,0-1-.53c-.41-.13-1-.28-1.65-.44a20.78,20.78,0,0,1-2.62-.76,4.25,4.25,0,0,1-1.75-1.22,3.27,3.27,0,0,1-.73-2.24,3.9,3.9,0,0,1,.66-2.21,4.44,4.44,0,0,1,2-1.57,8.25,8.25,0,0,1,3.25-.58,10.93,10.93,0,0,1,2.62.32,8,8,0,0,1,2.24.92l-1,2.46a7.84,7.84,0,0,0-3.88-1.1,3.65,3.65,0,0,0-2,.44,1.34,1.34,0,0,0-.65,1.16,1.13,1.13,0,0,0,.75,1.07,10.84,10.84,0,0,0,2.29.69,24.79,24.79,0,0,1,2.62.76,4.5,4.5,0,0,1,1.75,1.2,3.21,3.21,0,0,1,.73,2.22,3.8,3.8,0,0,1-.67,2.19,4.49,4.49,0,0,1-2,1.57,8.12,8.12,0,0,1-3.26.58A11.42,11.42,0,0,1,201.07,44.75Z"/><path class="cls-2" d="M215.2,41.77a1.88,1.88,0,0,1,.54,1.39,3.58,3.58,0,0,1-.1.8,10.3,10.3,0,0,1-.44,1.2L214.06,48h-2l.88-3.18a1.58,1.58,0,0,1-.79-.65,2,2,0,0,1,.26-2.44,1.93,1.93,0,0,1,1.39-.53A1.9,1.9,0,0,1,215.2,41.77Z"/><path class="cls-2" d="M233.82,31v2.1L228.62,45H225.1l5-11.36h-4.64v2.28H222.6V31Z"/><path class="cls-2" d="M234.52,38.08h5.66v2.5h-5.66Z"/><path class="cls-2" d="M245.79,44.26a6.91,6.91,0,0,1-2.74-2.59,7.45,7.45,0,0,1,0-7.42,7,7,0,0,1,2.74-2.59,8.66,8.66,0,0,1,7.85,0,7.24,7.24,0,0,1,2.74,10,7,7,0,0,1-2.74,2.59,8.66,8.66,0,0,1-7.85,0ZM252,41.87a4.14,4.14,0,0,0,1.57-1.59,5,5,0,0,0,0-4.64A4.14,4.14,0,0,0,252,34.05a4.47,4.47,0,0,0-2.24-.57,4.42,4.42,0,0,0-2.24.57,4.07,4.07,0,0,0-1.57,1.59,5,5,0,0,0,0,4.64,4.07,4.07,0,0,0,1.57,1.59,4.42,4.42,0,0,0,2.24.57A4.47,4.47,0,0,0,252,41.87Z"/><path class="cls-2" d="M261.37,43.54a6.34,6.34,0,0,1-1.67-4.74V31h3.24v7.72q0,3.76,3.12,3.76a2.93,2.93,0,0,0,2.32-.91,4.24,4.24,0,0,0,.8-2.85V31h3.2V38.8A5.79,5.79,0,0,1,266,45.2,6.32,6.32,0,0,1,261.37,43.54Z"/><path class="cls-2" d="M288.42,31V45h-2.66l-7-8.5V45h-3.2V31h2.68l7,8.5V31Z"/><path class="cls-2" d="M294.57,44.27a7,7,0,0,1-2.72-2.58,7.52,7.52,0,0,1,0-7.46,7,7,0,0,1,2.72-2.58,8.07,8.07,0,0,1,3.89-.93,8.29,8.29,0,0,1,3.29.64,6.65,6.65,0,0,1,2.47,1.84l-2.08,1.92a4.49,4.49,0,0,0-3.52-1.64,4.67,4.67,0,0,0-2.32.57,4.05,4.05,0,0,0-1.59,1.59,5,5,0,0,0,0,4.64,4.05,4.05,0,0,0,1.59,1.59,4.67,4.67,0,0,0,2.32.57,4.45,4.45,0,0,0,3.52-1.66l2.08,1.92a6.43,6.43,0,0,1-2.48,1.86,8.2,8.2,0,0,1-3.3.64A8,8,0,0,1,294.57,44.27Z"/><path class="cls-2" d="M317.24,42.36V45H306.4V31H317v2.6h-7.36v3h6.5v2.52h-6.5v3.24Z"/><path class="cls-2" d="M321.21,44.75a7.4,7.4,0,0,1-2.49-1.17l1.1-2.44A7.26,7.26,0,0,0,322,42.2a7.94,7.94,0,0,0,2.48.4,3.89,3.89,0,0,0,2-.41,1.23,1.23,0,0,0,.66-1.09,1,1,0,0,0-.39-.83,3.15,3.15,0,0,0-1-.53c-.41-.13-1-.28-1.65-.44a20.78,20.78,0,0,1-2.62-.76,4.18,4.18,0,0,1-1.75-1.22,3.27,3.27,0,0,1-.73-2.24,3.9,3.9,0,0,1,.66-2.21,4.44,4.44,0,0,1,2-1.57,8.25,8.25,0,0,1,3.25-.58,10.93,10.93,0,0,1,2.62.32,8,8,0,0,1,2.24.92l-1,2.46a7.87,7.87,0,0,0-3.88-1.1,3.65,3.65,0,0,0-2,.44,1.34,1.34,0,0,0-.65,1.16A1.13,1.13,0,0,0,323,36a10.84,10.84,0,0,0,2.29.69,24.79,24.79,0,0,1,2.62.76,4.5,4.5,0,0,1,1.75,1.2,3.21,3.21,0,0,1,.73,2.22,3.87,3.87,0,0,1-.67,2.19,4.49,4.49,0,0,1-2,1.57,8.12,8.12,0,0,1-3.26.58A11.42,11.42,0,0,1,321.21,44.75Z"/><path class="cls-1" d="M10.51,61.58a4.84,4.84,0,0,1,2.11,1.76,5.28,5.28,0,0,1,0,5.39,4.65,4.65,0,0,1-2.11,1.76,7.82,7.82,0,0,1-3.23.61H4.46V75H1.22V61H7.28A7.82,7.82,0,0,1,10.51,61.58ZM9.32,67.83A2.18,2.18,0,0,0,10.08,66a2.22,2.22,0,0,0-.76-1.81A3.42,3.42,0,0,0,7.1,63.6H4.46v4.86H7.1A3.42,3.42,0,0,0,9.32,67.83Z"/><path class="cls-1" d="M24.18,72h-6.5l-1.24,3H13.12l6.24-14h3.2l6.26,14h-3.4Zm-1-2.46-2.22-5.36L18.72,69.5Z"/><path class="cls-1" d="M39.2,75l-2.7-3.9h-3V75H30.28V61h6.06a7.82,7.82,0,0,1,3.23.62A4.63,4.63,0,0,1,42.42,66a4.56,4.56,0,0,1-2.88,4.42L42.68,75Zm-.82-10.73a3.42,3.42,0,0,0-2.22-.63H33.52v4.88h2.64a3.36,3.36,0,0,0,2.22-.64,2.52,2.52,0,0,0,0-3.61Z"/><path class="cls-1" d="M55.82,72.36V75H45V61H55.56v2.6H48.2v3h6.5v2.52H48.2v3.24Z"/><path class="cls-1" d="M71.24,61V75H68.58l-7-8.5V75H58.4V61h2.68l7,8.5V61Z"/><path class="cls-1" d="M77.46,63.6H73V61h12.2V63.6H80.7V75H77.46Z"/><path class="cls-1" d="M88.21,74.75a7.59,7.59,0,0,1-2.49-1.17l1.1-2.44A7.26,7.26,0,0,0,89,72.2a7.94,7.94,0,0,0,2.48.4,3.89,3.89,0,0,0,2-.41,1.23,1.23,0,0,0,.66-1.09,1,1,0,0,0-.39-.83,3,3,0,0,0-1-.53c-.41-.13-1-.28-1.65-.44a20.78,20.78,0,0,1-2.62-.76,4.25,4.25,0,0,1-1.75-1.22A3.27,3.27,0,0,1,86,65.08a3.9,3.9,0,0,1,.66-2.21,4.44,4.44,0,0,1,2-1.57,8.25,8.25,0,0,1,3.25-.58,10.93,10.93,0,0,1,2.62.32,8,8,0,0,1,2.24.92l-1,2.46a7.84,7.84,0,0,0-3.88-1.1,3.65,3.65,0,0,0-2,.44,1.36,1.36,0,0,0-.65,1.16A1.13,1.13,0,0,0,90,66a10.84,10.84,0,0,0,2.29.69,24.79,24.79,0,0,1,2.62.76,4.5,4.5,0,0,1,1.75,1.2,3.21,3.21,0,0,1,.73,2.22,3.8,3.8,0,0,1-.67,2.19,4.49,4.49,0,0,1-2,1.57,8.12,8.12,0,0,1-3.26.58A11.42,11.42,0,0,1,88.21,74.75Z"/><path class="cls-1" d="M99.06,67.38A1.91,1.91,0,0,1,98.5,66a1.85,1.85,0,0,1,.56-1.39,2.06,2.06,0,0,1,2.76,0,1.85,1.85,0,0,1,.56,1.39,1.91,1.91,0,0,1-.56,1.4,2,2,0,0,1-2.76,0Zm0,7.18a1.91,1.91,0,0,1-.56-1.4,1.85,1.85,0,0,1,.56-1.39,2.06,2.06,0,0,1,2.76,0,1.85,1.85,0,0,1,.56,1.39,1.91,1.91,0,0,1-.56,1.4,2,2,0,0,1-2.76,0Z"/><path class="cls-2" d="M113.21,74.27a7,7,0,0,1-2.72-2.58,7.52,7.52,0,0,1,0-7.46,7,7,0,0,1,2.72-2.58,8.07,8.07,0,0,1,3.89-.93,8.29,8.29,0,0,1,3.29.64,6.65,6.65,0,0,1,2.47,1.84l-2.08,1.92a4.49,4.49,0,0,0-3.52-1.64,4.67,4.67,0,0,0-2.32.57,4.05,4.05,0,0,0-1.59,1.59,5,5,0,0,0,0,4.64,4.05,4.05,0,0,0,1.59,1.59,4.67,4.67,0,0,0,2.32.57,4.45,4.45,0,0,0,3.52-1.66l2.08,1.92a6.35,6.35,0,0,1-2.48,1.86,8.2,8.2,0,0,1-3.3.64A8,8,0,0,1,113.21,74.27Z"/><path class="cls-2" d="M137.88,61V75h-3.24V69.22h-6.36V75H125V61h3.24v5.52h6.36V61Z"/><path class="cls-2" d="M150.12,75l-2.7-3.9h-3V75H141.2V61h6.06a7.82,7.82,0,0,1,3.23.62A4.63,4.63,0,0,1,153.34,66a4.56,4.56,0,0,1-2.88,4.42L153.6,75Zm-.82-10.73a3.42,3.42,0,0,0-2.22-.63h-2.64v4.88h2.64a3.36,3.36,0,0,0,2.22-.64,2.52,2.52,0,0,0,0-3.61Z"/><path class="cls-2" d="M155.9,61h3.24V75H155.9Z"/><path class="cls-2" d="M163.85,74.75a7.59,7.59,0,0,1-2.49-1.17l1.1-2.44a7.26,7.26,0,0,0,2.14,1.06,7.94,7.94,0,0,0,2.48.4,3.89,3.89,0,0,0,2-.41,1.23,1.23,0,0,0,.66-1.09,1,1,0,0,0-.39-.83,3,3,0,0,0-1-.53c-.41-.13-1-.28-1.65-.44a20.78,20.78,0,0,1-2.62-.76,4.25,4.25,0,0,1-1.75-1.22,3.27,3.27,0,0,1-.73-2.24,3.9,3.9,0,0,1,.66-2.21,4.44,4.44,0,0,1,2-1.57,8.25,8.25,0,0,1,3.25-.58,10.93,10.93,0,0,1,2.62.32,8,8,0,0,1,2.24.92l-1,2.46a7.84,7.84,0,0,0-3.88-1.1,3.65,3.65,0,0,0-2,.44,1.36,1.36,0,0,0-.65,1.16,1.13,1.13,0,0,0,.75,1.07,10.84,10.84,0,0,0,2.29.69,24.79,24.79,0,0,1,2.62.76,4.5,4.5,0,0,1,1.75,1.2,3.21,3.21,0,0,1,.73,2.22,3.8,3.8,0,0,1-.67,2.19,4.49,4.49,0,0,1-2,1.57,8.12,8.12,0,0,1-3.26.58A11.42,11.42,0,0,1,163.85,74.75Z"/><path class="cls-2" d="M190.1,72h-6.5l-1.24,3H179l6.24-14h3.2l6.26,14h-3.4Zm-1-2.46-2.22-5.36-2.22,5.36Z"/><path class="cls-2" d="M209,61V75h-2.66l-7-8.5V75h-3.2V61h2.68l7,8.5V61Z"/><path class="cls-2" d="M212.36,61h6.36a9,9,0,0,1,4,.87,6.54,6.54,0,0,1,2.72,2.45,7.47,7.47,0,0,1,0,7.36,6.47,6.47,0,0,1-2.72,2.45,9,9,0,0,1-4,.87h-6.36Zm6.2,11.34a4.7,4.7,0,0,0,3.35-1.17,4.64,4.64,0,0,0,0-6.34,4.7,4.7,0,0,0-3.35-1.17h-3V72.3Z"/><path class="cls-2" d="M234.54,61h6.36a9,9,0,0,1,4,.87,6.54,6.54,0,0,1,2.72,2.45,7.47,7.47,0,0,1,0,7.36,6.47,6.47,0,0,1-2.72,2.45,9,9,0,0,1-4,.87h-6.36Zm6.2,11.34a4.7,4.7,0,0,0,3.35-1.17,4.64,4.64,0,0,0,0-6.34,4.7,4.7,0,0,0-3.35-1.17h-3V72.3Z"/><path class="cls-2" d="M251.06,61h3.24V75h-3.24Z"/><path class="cls-2" d="M260.47,74.26a6.91,6.91,0,0,1-2.74-2.59,7.45,7.45,0,0,1,0-7.42,7,7,0,0,1,2.74-2.59,8.66,8.66,0,0,1,7.85,0,7.24,7.24,0,0,1,2.74,10,7,7,0,0,1-2.74,2.59,8.66,8.66,0,0,1-7.85,0Zm6.17-2.39a4.14,4.14,0,0,0,1.57-1.59,5,5,0,0,0,0-4.64,4.14,4.14,0,0,0-1.57-1.59,4.47,4.47,0,0,0-2.24-.57,4.42,4.42,0,0,0-2.24.57,4.07,4.07,0,0,0-1.57,1.59,5,5,0,0,0,0,4.64,4.07,4.07,0,0,0,1.57,1.59,4.42,4.42,0,0,0,2.24.57A4.47,4.47,0,0,0,266.64,71.87Z"/><path class="cls-2" d="M287.34,61V75h-2.66l-7-8.5V75h-3.2V61h2.68l7,8.5V61Z"/><path class="cls-2" d="M303.5,61V75h-2.66l-7-8.5V75h-3.2V61h2.68l7,8.5V61Z"/><path class="cls-2" d="M317.66,72.36V75H306.82V61H317.4v2.6H310v3h6.5v2.52H310v3.24Z"/><path class="cls-1" d="M4.46,93.56v3.7h6.48v2.6H4.46V105H1.22V91H11.8v2.6Z"/><path class="cls-1" d="M22.64,102h-6.5l-1.24,3H11.58l6.24-14H21l6.26,14h-3.4Zm-1-2.46L19.4,94.14,17.18,99.5Z"/><path class="cls-1" d="M41.44,91l-6.06,14h-3.2l-6-14h3.5l4.26,10,4.32-10Z"/><path class="cls-1" d="M45.29,104.26a6.91,6.91,0,0,1-2.74-2.59,7.45,7.45,0,0,1,0-7.42,7,7,0,0,1,2.74-2.59,8.66,8.66,0,0,1,7.85,0,7.11,7.11,0,0,1,2.74,2.59,7.14,7.14,0,0,1-2.74,10,8.66,8.66,0,0,1-7.85,0Zm6.17-2.39A4.07,4.07,0,0,0,53,100.28a5,5,0,0,0,0-4.64,4.07,4.07,0,0,0-1.57-1.59,4.69,4.69,0,0,0-4.48,0,4.07,4.07,0,0,0-1.57,1.59,5,5,0,0,0,0,4.64A4.07,4.07,0,0,0,47,101.87a4.69,4.69,0,0,0,4.48,0Z"/><path class="cls-1" d="M60.87,103.54A6.38,6.38,0,0,1,59.2,98.8V91h3.24v7.72q0,3.76,3.12,3.76a2.91,2.91,0,0,0,2.32-.91,4.24,4.24,0,0,0,.8-2.85V91h3.2V98.8a6.38,6.38,0,0,1-1.67,4.74,6.32,6.32,0,0,1-4.67,1.66A6.32,6.32,0,0,1,60.87,103.54Z"/><path class="cls-1" d="M84,105l-2.7-3.9h-3V105H75.08V91h6.06a7.82,7.82,0,0,1,3.23.62A4.63,4.63,0,0,1,87.22,96a4.56,4.56,0,0,1-2.88,4.42l3.14,4.5Zm-.82-10.73A3.42,3.42,0,0,0,81,93.6H78.32v4.88H81a3.36,3.36,0,0,0,2.22-.64,2.52,2.52,0,0,0,0-3.61Z"/><path class="cls-1" d="M89.78,91H93v14H89.78Z"/><path class="cls-1" d="M99.24,93.6H94.76V91H107V93.6h-4.48V105H99.24Z"/><path class="cls-1" d="M119.54,102.36V105H108.7V91h10.58v2.6h-7.36v3h6.5v2.52h-6.5v3.24Z"/><path class="cls-1" d="M127.78,91h6.36a9,9,0,0,1,4,.87,6.54,6.54,0,0,1,2.72,2.45,7.47,7.47,0,0,1,0,7.36,6.47,6.47,0,0,1-2.72,2.45,9,9,0,0,1-4,.87h-6.36ZM134,102.3a4.7,4.7,0,0,0,3.35-1.17,4.64,4.64,0,0,0,0-6.34A4.7,4.7,0,0,0,134,93.62h-3v8.68Z"/><path class="cls-1" d="M153.22,105l-2.7-3.9h-3V105H144.3V91h6.06a7.82,7.82,0,0,1,3.23.62A4.63,4.63,0,0,1,156.44,96a4.56,4.56,0,0,1-2.88,4.42l3.14,4.5Zm-.82-10.73a3.42,3.42,0,0,0-2.22-.63h-2.64v4.88h2.64a3.36,3.36,0,0,0,2.22-.64,2.52,2.52,0,0,0,0-3.61Z"/><path class="cls-1" d="M159,91h3.24v14H159Z"/><path class="cls-1" d="M178.4,91v14h-2.66l-7-8.5V105h-3.2V91h2.68l7,8.5V91Z"/><path class="cls-1" d="M186.82,99.46l-1.88,2V105h-3.22V91h3.22V97.5l6.2-6.54h3.6l-5.8,6.24,6.14,7.76H191.3Z"/><path class="cls-1" d="M196.1,97.38a1.87,1.87,0,0,1-.56-1.4,1.82,1.82,0,0,1,.56-1.39,2.06,2.06,0,0,1,2.76,0,1.85,1.85,0,0,1,.56,1.39,1.91,1.91,0,0,1-.56,1.4,2,2,0,0,1-2.76,0Zm0,7.18a1.87,1.87,0,0,1-.56-1.4,1.82,1.82,0,0,1,.56-1.39,2.06,2.06,0,0,1,2.76,0,1.85,1.85,0,0,1,.56,1.39,1.91,1.91,0,0,1-.56,1.4,2,2,0,0,1-2.76,0Z"/><path class="cls-2" d="M220.16,105l0-8.4L216,103.48h-1.46l-4.1-6.74V105h-3V91h2.68l5.24,8.7L220.5,91h2.66l0,14Z"/><path class="cls-2" d="M226.52,91h3.24v14h-3.24Z"/><path class="cls-2" d="M233.08,91h3.24v11.36h7V105H233.08Z"/><path class="cls-2" d="M250.26,99.46l-1.88,2V105h-3.22V91h3.22V97.5l6.2-6.54h3.6l-5.8,6.24,6.14,7.76h-3.78Z"/></g></g></svg>