<svg xmlns="http://www.w3.org/2000/svg" viewBox="0 0 428.33 74.72"><defs><style>.cls-1{fill:#9f9ef2;}.cls-2{fill:none;stroke-width:3.16px;}.cls-2,.cls-4,.cls-5{stroke:#534d72;stroke-miterlimit:10;}.cls-3,.cls-4,.cls-5{fill:#534d72;}.cls-4{stroke-width:1.05px;}.cls-5{stroke-width:1.58px;}</style></defs><title>Asset 58</title><g id="Layer_2" data-name="Layer 2"><g id="Layer_1-2" data-name="Layer 1"><rect class="cls-1" x="23.15" width="18.67" height="41.87" rx="5.8" ry="5.8"/><rect class="cls-2" x="1.58" y="8.97" width="32.51" height="58.2" rx="4.73" ry="4.73"/><circle class="cls-3" cx="18.12" cy="61.51" r="2.55"/><line class="cls-2" x1="1.58" y1="56.08" x2="34.09" y2="56.08"/><line class="cls-2" x1="1.58" y1="17.16" x2="34.09" y2="17.16"/><rect class="cls-3" x="3.69" y="30.21" width="19.01" height="2.08" rx="1.04" ry="1.04" transform="translate(-18.4 18.9) rotate(-45.75)"/><rect class="cls-3" x="10.02" y="34.28" width="11.37" height="2.08" rx="1.04" ry="1.04" transform="translate(-20.56 21.92) rotate(-45.75)"/><rect class="cls-3" x="11.99" y="12.08" width="11.69" height="2.08" rx="1.04" ry="1.04"/><rect class="cls-1" x="260.01" y="21.17" width="11.48" height="52" rx="4.92" ry="4.92"/><path class="cls-4" d="M292.49,71H270.82a6.74,6.74,0,0,1-6.73-6.73V23.39h35.13V64.23A6.74,6.74,0,0,1,292.49,71ZM266.2,25.5V64.23a4.63,4.63,0,0,0,4.62,4.62h21.67a4.63,4.63,0,0,0,4.62-4.62V25.5Z"/><path class="cls-4" d="M300,59.23h-1.85V57.12H300A6.16,6.16,0,0,0,306.16,51V43.38A6.16,6.16,0,0,0,300,37.22h-1.85V35.11H300a8.28,8.28,0,0,1,8.26,8.27V51A8.27,8.27,0,0,1,300,59.23Z"/><path class="cls-4" d="M294.44,25.5V23.39a5.68,5.68,0,1,0,0-11.36,5.58,5.58,0,0,0-2.35.51l-.84.38-.49-.78a10.49,10.49,0,0,0-18.07.62l-.58,1.06-1-.71A5.6,5.6,0,0,0,267.8,12a5.68,5.68,0,0,0,0,11.36V25.5a7.8,7.8,0,0,1,0-15.59,7.6,7.6,0,0,1,3.61.89,12.6,12.6,0,0,1,20.64-.51,7.71,7.71,0,0,1,2.39-.38,7.8,7.8,0,1,1,0,15.59Z"/><rect class="cls-4" x="271.49" y="32.74" width="2.11" height="27.22" rx="1.06" ry="1.06"/><rect class="cls-4" x="280.07" y="32.74" width="2.11" height="27.22" rx="1.06" ry="1.06"/><rect class="cls-4" x="288.65" y="32.74" width="2.11" height="27.22" rx="1.06" ry="1.06"/><rect class="cls-1" x="160.05" y="31.1" width="23.99" height="23.99" rx="8.54" ry="8.54"/><rect class="cls-2" x="165.48" y="37.09" width="30.75" height="31.81" rx="7.93" ry="7.93"/><circle class="cls-3" cx="172.55" cy="43.46" r="2.83"/><circle class="cls-3" cx="180.85" cy="53" r="2.83"/><circle class="cls-3" cx="189.16" cy="62.54" r="2.83"/><circle class="cls-3" cx="171.31" cy="61.31" r="2.83"/><circle class="cls-3" cx="190.4" cy="44.69" r="2.83"/><rect class="cls-2" x="197.63" y="10.74" width="30.75" height="31.81" rx="7.93" ry="7.93" transform="translate(43.55 158.43) rotate(-45)"/><circle class="cls-3" cx="200.39" cy="25.77" r="2.83"/><circle class="cls-3" cx="213.01" cy="26.65" r="2.83"/><circle class="cls-3" cx="225.63" cy="27.52" r="2.83"/><polygon class="cls-1" points="140.73 19.41 118.32 35.75 97.77 19.41 140.73 19.41"/><polygon class="cls-2" points="85.29 16.66 107.73 34.6 131.5 16.66 85.29 16.66"/><path class="cls-2" d="M94.73,24.21c.31.24,26.77,0,26.77,0"/><line class="cls-2" x1="104.01" y1="5.9" x2="105.76" y2="20.39"/><circle class="cls-2" cx="106.27" cy="24.26" r="3.25"/><polyline class="cls-2" points="85.29 16.66 107.73 34.6 107.73 64.23"/><polygon class="cls-2" points="107.73 62.48 96.64 70.22 119.25 70.22 107.73 62.48"/><circle class="cls-1" cx="365.55" cy="59.23" r="11.1"/><path class="cls-2" d="M395.44,40.82l-15.86-3.44L357.8,32.67h0l-17.55-3.8L334,57.62l70.3,15.22L405.8,66l2.6-12,.84-3.87.94-4.37.27-1.21.1-.49Zm-14.6,11.89a8.75,8.75,0,1,1-9.41-10.56,8.9,8.9,0,0,1,2.71.15,8.76,8.76,0,0,1,6.7,10.41Z"/><path class="cls-5" d="M348.37,41.15a4.22,4.22,0,0,1,2.08,1.08l.69-1.07a4.7,4.7,0,0,0-2.15-1.1l.37-1.71-1.09-.23-.38,1.77a2.93,2.93,0,0,0-3.26,2.25c-.33,1.53.6,2.57,2.24,3.66,1.18.81,1.74,1.56,1.53,2.52a1.89,1.89,0,0,1-2.46,1.27,4.74,4.74,0,0,1-2.37-1.3l-.67,1.08a5.17,5.17,0,0,0,2.51,1.35L345,52.5l1.11.24.39-1.83A3.13,3.13,0,0,0,350,48.53c.34-1.56-.38-2.67-2-3.8-1.4-1-1.94-1.56-1.75-2.47C346.34,41.56,347,40.86,348.37,41.15Z"/><path class="cls-5" d="M396.66,51.6a4.39,4.39,0,0,1,2.08,1.08l.69-1.06a4.7,4.7,0,0,0-2.15-1.11l.37-1.7-1.09-.24-.38,1.77a3,3,0,0,0-3.26,2.25c-.33,1.53.6,2.58,2.24,3.67,1.18.8,1.74,1.55,1.53,2.52a1.7,1.7,0,0,1-.33.69,2.1,2.1,0,0,1-2.13.57,4.74,4.74,0,0,1-2.37-1.3l-.67,1.08a5.18,5.18,0,0,0,2.51,1.36L393.32,63l1.11.24.39-1.83a3.27,3.27,0,0,0,2.75-1,3,3,0,0,0,.67-1.33c.34-1.56-.38-2.67-2-3.8-1.4-1-1.94-1.56-1.75-2.47C394.63,52,395.31,51.31,396.66,51.6Z"/><polyline class="cls-2" points="357.8 32.67 357.8 32.67 350.28 27.44 367.07 3.29 426.13 44.33 409.34 68.49 405.8 66.03"/><line class="cls-2" x1="397.57" y1="60.31" x2="396.36" y2="59.47"/><path class="cls-5" d="M370.85,17l1-1.43-.92-.64-1,1.49a3,3,0,0,0-3.88.83c-.89,1.28-.43,2.6.66,4.24.79,1.2,1,2.1.45,2.91a1.89,1.89,0,0,1-2.76.23,4.78,4.78,0,0,1-1.68-2.11l-1,.74a5.17,5.17,0,0,0,1.8,2.21l-1,1.49.93.65,1.06-1.53a3.12,3.12,0,0,0,4.07-.89c.92-1.31.68-2.61-.41-4.29-.91-1.42-1.19-2.18-.65-2.95a1.63,1.63,0,0,1,2.44-.18,4.44,4.44,0,0,1,1.51,1.79l1-.71A4.72,4.72,0,0,0,370.85,17Z"/><path class="cls-5" d="M411.42,45.17l1-1.43-.92-.64-1,1.49a0,0,0,0,1,0,0l-.27,1.21.24.15a4.38,4.38,0,0,1,1.51,1.79L413,47A4.84,4.84,0,0,0,411.42,45.17Zm-2.18,5L408.4,54a3.13,3.13,0,0,0,.64-.67A3,3,0,0,0,409.24,50.16Z"/><path class="cls-2" d="M379.58,37.38a8.75,8.75,0,1,1,15.86,3.44"/></g></g></svg>