<svg xmlns="http://www.w3.org/2000/svg" viewBox="0 0 456.5 394.05"><defs><style>.cls-1{fill:#9ce1fd;}.cls-2{fill:#6dfebf;}.cls-3{fill:#fa9597;}.cls-4{fill:#534d72;}</style></defs><title>Asset 6</title><g id="Layer_2" data-name="Layer 2"><g id="Layer_8" data-name="Layer 8"><path class="cls-1" d="M24,7.1H14.87V1.71H39.75V7.1H30.61V30.26H24Z"/><path class="cls-1" d="M63.79,10.44q2.5,2.45,2.51,7.26V30.26H59.93V18.68a5.75,5.75,0,0,0-1.14-3.9,4.2,4.2,0,0,0-3.3-1.28A5,5,0,0,0,51.66,15a6.11,6.11,0,0,0-1.43,4.42V30.26H43.87V0h6.36V10.6a8.32,8.32,0,0,1,3.06-1.93A11,11,0,0,1,57.2,8,9,9,0,0,1,63.79,10.44Z"/><path class="cls-1" d="M94.68,21.08H78.08A5.16,5.16,0,0,0,80.2,24.3a7,7,0,0,0,4.16,1.19,8.46,8.46,0,0,0,3-.51,7.56,7.56,0,0,0,2.47-1.61L93.25,27q-3.1,3.54-9,3.54a14.38,14.38,0,0,1-6.57-1.44,10.66,10.66,0,0,1-4.4-4,11,11,0,0,1-1.55-5.83,11.18,11.18,0,0,1,1.53-5.81,10.74,10.74,0,0,1,4.2-4,13,13,0,0,1,11.8-.06,10.07,10.07,0,0,1,4.1,4,11.85,11.85,0,0,1,1.49,6Q94.8,19.49,94.68,21.08ZM79.79,14A5.19,5.19,0,0,0,78,17.37H88.81A5.28,5.28,0,0,0,87,14.05a5.36,5.36,0,0,0-3.59-1.25A5.47,5.47,0,0,0,79.79,14Z"/><path class="cls-1" d="M118.84,28.85a14.19,14.19,0,0,1-5.55-5.26,14.53,14.53,0,0,1-2-7.6,14.54,14.54,0,0,1,2-7.61,14.19,14.19,0,0,1,5.55-5.26,17.65,17.65,0,0,1,14.64-.59,13.45,13.45,0,0,1,5,3.75l-4.24,3.92a9.15,9.15,0,0,0-7.18-3.35A9.55,9.55,0,0,0,122.37,8a8.37,8.37,0,0,0-3.25,3.24A9.62,9.62,0,0,0,118,16a9.61,9.61,0,0,0,1.16,4.73A8.37,8.37,0,0,0,122.37,24a9.55,9.55,0,0,0,4.73,1.16,9.12,9.12,0,0,0,7.18-3.38l4.24,3.91a13.23,13.23,0,0,1-5.06,3.79,16.8,16.8,0,0,1-6.73,1.31A16.32,16.32,0,0,1,118.84,28.85Z"/><path class="cls-1" d="M147,29.14a10.76,10.76,0,0,1-4.3-4,11,11,0,0,1-1.55-5.83,11,11,0,0,1,1.55-5.83,10.76,10.76,0,0,1,4.3-4,14,14,0,0,1,12.42,0,10.91,10.91,0,0,1,4.28,4,11.07,11.07,0,0,1,1.55,5.83,11.1,11.1,0,0,1-1.55,5.83,10.91,10.91,0,0,1-4.28,4,14.11,14.11,0,0,1-12.42,0Zm10.23-5.43a6.13,6.13,0,0,0,1.57-4.42,6.17,6.17,0,0,0-1.57-4.43,5.28,5.28,0,0,0-4-1.65,5.37,5.37,0,0,0-4,1.65,6.14,6.14,0,0,0-1.59,4.43,6.1,6.1,0,0,0,1.59,4.42,5.38,5.38,0,0,0,4,1.66A5.29,5.29,0,0,0,157.21,23.71Z"/><path class="cls-1" d="M170.49,0h6.36V30.26h-6.36Z"/><path class="cls-1" d="M183.78,0h6.36V30.26h-6.36Z"/><path class="cls-1" d="M218.44,21.08H201.85A5.12,5.12,0,0,0,204,24.3a7,7,0,0,0,4.16,1.19,8.46,8.46,0,0,0,3-.51,7.42,7.42,0,0,0,2.46-1.61L217,27q-3.11,3.54-9.06,3.54a14.36,14.36,0,0,1-6.56-1.44,10.75,10.75,0,0,1-4.41-4,11.1,11.1,0,0,1-1.55-5.83A11.18,11.18,0,0,1,197,13.48a10.74,10.74,0,0,1,4.2-4,12.42,12.42,0,0,1,6-1.45A12.27,12.27,0,0,1,213,9.38a10.07,10.07,0,0,1,4.1,4,11.85,11.85,0,0,1,1.49,6C218.57,19.45,218.53,20,218.44,21.08Zm-14.88-7a5.15,5.15,0,0,0-1.79,3.34h10.8a5.27,5.27,0,0,0-1.79-3.32,5.38,5.38,0,0,0-3.59-1.25A5.47,5.47,0,0,0,203.56,14Z"/><path class="cls-1" d="M246.46,8.32V26.59q0,6-3.14,9t-9.17,2.94a22.77,22.77,0,0,1-6-.78,13.08,13.08,0,0,1-4.73-2.24l2.53-4.57a10.37,10.37,0,0,0,3.51,1.82,14.16,14.16,0,0,0,4.24.67,6.89,6.89,0,0,0,4.87-1.49,5.91,5.91,0,0,0,1.57-4.51v-.93a8.91,8.91,0,0,1-6.93,2.73,11.56,11.56,0,0,1-5.53-1.33,10,10,0,0,1-4-3.73,10.4,10.4,0,0,1-1.47-5.54,10.41,10.41,0,0,1,1.47-5.55,10,10,0,0,1,4-3.73A11.68,11.68,0,0,1,233.17,8a8.69,8.69,0,0,1,7.25,3.14V8.32Zm-7.89,14.17a5.06,5.06,0,0,0,1.61-3.89,5.07,5.07,0,0,0-1.61-3.9,5.86,5.86,0,0,0-4.14-1.49,5.94,5.94,0,0,0-4.16,1.49,5,5,0,0,0-1.63,3.9,5,5,0,0,0,1.63,3.89A5.94,5.94,0,0,0,234.43,24,5.86,5.86,0,0,0,238.57,22.49Z"/><path class="cls-1" d="M274.76,21.08h-16.6a5.14,5.14,0,0,0,2.13,3.22,7,7,0,0,0,4.15,1.19,8.38,8.38,0,0,0,3-.51A7.36,7.36,0,0,0,270,23.37L273.33,27q-3.09,3.54-9.05,3.54a14.36,14.36,0,0,1-6.56-1.44,10.62,10.62,0,0,1-4.41-4,11.1,11.1,0,0,1-1.55-5.83,11.18,11.18,0,0,1,1.53-5.81,10.74,10.74,0,0,1,4.2-4,13,13,0,0,1,11.81-.06,10.13,10.13,0,0,1,4.1,4,11.85,11.85,0,0,1,1.48,6Q274.88,19.49,274.76,21.08Zm-14.88-7a5.21,5.21,0,0,0-1.8,3.34h10.81a5.32,5.32,0,0,0-1.79-3.32,5.38,5.38,0,0,0-3.59-1.25A5.47,5.47,0,0,0,259.88,14Z"/><path class="cls-1" d="M306.86,20.15V30.26h-6.61V20.06L289.2,1.71h7l7.63,12.69,7.62-12.69H318Z"/><path class="cls-1" d="M340.21,21.08H323.62a5.12,5.12,0,0,0,2.12,3.22,7,7,0,0,0,4.16,1.19,8.37,8.37,0,0,0,3-.51,7.36,7.36,0,0,0,2.47-1.61L338.79,27q-3.1,3.54-9.06,3.54a14.36,14.36,0,0,1-6.56-1.44,10.69,10.69,0,0,1-4.41-4,11.1,11.1,0,0,1-1.55-5.83,11.18,11.18,0,0,1,1.53-5.81,10.74,10.74,0,0,1,4.2-4,12.42,12.42,0,0,1,6-1.45,12.27,12.27,0,0,1,5.83,1.39,10.07,10.07,0,0,1,4.1,4,11.85,11.85,0,0,1,1.49,6C340.34,19.45,340.3,20,340.21,21.08Zm-14.88-7a5.15,5.15,0,0,0-1.79,3.34h10.8a5.27,5.27,0,0,0-1.79-3.32A5.38,5.38,0,0,0,329,12.8,5.47,5.47,0,0,0,325.33,14Z"/><path class="cls-1" d="M361.66,10.42q2.74,2.43,2.74,7.32V30.26h-6V27.53c-1.19,2-3.42,3-6.69,3a10.4,10.4,0,0,1-4.38-.85,6.47,6.47,0,0,1-2.83-2.37,6.06,6.06,0,0,1-1-3.42,5.71,5.71,0,0,1,2.3-4.81q2.31-1.75,7.12-1.76h5a4.07,4.07,0,0,0-1.26-3.2A5.55,5.55,0,0,0,353,13.05a11,11,0,0,0-3.45.55,9.05,9.05,0,0,0-2.87,1.49l-2.29-4.45a13.79,13.79,0,0,1,4.31-2,18.93,18.93,0,0,1,5.15-.7Q358.93,8,361.66,10.42Zm-5.42,15.13A4.13,4.13,0,0,0,358,23.33V21.08h-4.36q-3.92,0-3.91,2.57a2.31,2.31,0,0,0,.95,1.94,4.3,4.3,0,0,0,2.63.71A5.57,5.57,0,0,0,356.24,25.55Z"/><path class="cls-1" d="M380.32,8.81A11.32,11.32,0,0,1,384.79,8v5.88c-.71-.06-1.19-.09-1.43-.09a5.82,5.82,0,0,0-4.28,1.53,6.16,6.16,0,0,0-1.55,4.59V30.26h-6.36V8.32h6.07v2.89A7,7,0,0,1,380.32,8.81Z"/><path class="cls-1" d="M391.72,29.91a14,14,0,0,1-4.16-1.69l2.12-4.57a13,13,0,0,0,3.55,1.53,14.59,14.59,0,0,0,4.08.59c2.69,0,4-.66,4-2a1.4,1.4,0,0,0-1.1-1.34,16.37,16.37,0,0,0-3.38-.69,34.4,34.4,0,0,1-4.45-.94,7,7,0,0,1-3-1.88,5.35,5.35,0,0,1-1.28-3.83,6,6,0,0,1,1.2-3.69,7.69,7.69,0,0,1,3.51-2.51,14.94,14.94,0,0,1,5.44-.9,21.33,21.33,0,0,1,4.63.51,12.94,12.94,0,0,1,3.82,1.41l-2.12,4.53a12.68,12.68,0,0,0-6.33-1.64,6.39,6.39,0,0,0-3.05.58,1.68,1.68,0,0,0-1,1.46,1.45,1.45,0,0,0,1.1,1.43,19.93,19.93,0,0,0,3.5.78,39.88,39.88,0,0,1,4.41.95,6.66,6.66,0,0,1,3,1.86,5.28,5.28,0,0,1,1.26,3.75,5.82,5.82,0,0,1-1.22,3.63,7.9,7.9,0,0,1-3.57,2.47,16,16,0,0,1-5.57.87A21.24,21.24,0,0,1,391.72,29.91Z"/><path class="cls-1" d="M355,292.54l-39.66-93.43A98.67,98.67,0,0,1,355,191Z"/><path class="cls-2" d="M355,292.54H253.5c0-42,23.14-77,61.84-93.43Z"/><path class="cls-3" d="M355,292.54V191a101.51,101.51,0,1,1-101.5,101.5H355Z"/><rect class="cls-3" x="55" y="302.04" width="94" height="13"/><rect class="cls-1" y="242.04" width="94" height="13"/><rect class="cls-2" x="57" y="352.04" width="94" height="13"/><path class="cls-4" d="M22.13,263.58A9.28,9.28,0,0,1,19,262.12l1.37-3.05a9.59,9.59,0,0,0,2.68,1.33,10.15,10.15,0,0,0,3.1.5,4.86,4.86,0,0,0,2.55-.52,1.53,1.53,0,0,0,.82-1.36,1.33,1.33,0,0,0-.48-1,3.88,3.88,0,0,0-1.25-.66c-.51-.16-1.2-.35-2.07-.55a26.69,26.69,0,0,1-3.27-.95,5.27,5.27,0,0,1-2.19-1.52,4.12,4.12,0,0,1-.91-2.8,4.89,4.89,0,0,1,.82-2.77,5.62,5.62,0,0,1,2.49-2,10.21,10.21,0,0,1,4.06-.72,13.33,13.33,0,0,1,3.28.4,9.46,9.46,0,0,1,2.8,1.15l-1.25,3.07a9.82,9.82,0,0,0-4.85-1.37,4.51,4.51,0,0,0-2.51.55,1.68,1.68,0,0,0-.82,1.45,1.42,1.42,0,0,0,.94,1.33,14.67,14.67,0,0,0,2.86.87,26.38,26.38,0,0,1,3.28.95,5.31,5.31,0,0,1,2.19,1.5,4.05,4.05,0,0,1,.91,2.77,4.79,4.79,0,0,1-.84,2.74,5.55,5.55,0,0,1-2.51,2,10.16,10.16,0,0,1-4.08.73A14.13,14.13,0,0,1,22.13,263.58Z"/><path class="cls-4" d="M39.28,263.16a6.66,6.66,0,0,1-2.64-2.46,6.83,6.83,0,0,1,2.64-9.62,8.1,8.1,0,0,1,3.81-.88,8,8,0,0,1,3.8.88,6.73,6.73,0,0,1,2.63,2.47,7.2,7.2,0,0,1,0,7.15,6.64,6.64,0,0,1-2.63,2.46,8,8,0,0,1-3.8.89A8.11,8.11,0,0,1,39.28,263.16Zm6.28-3.33a4.31,4.31,0,0,0,0-5.42,3.53,3.53,0,0,0-4.94,0,4.24,4.24,0,0,0,0,5.42,3.5,3.5,0,0,0,4.94,0Z"/><path class="cls-4" d="M56.33,263.16a6.9,6.9,0,0,1-2.67-9.61,6.71,6.71,0,0,1,2.67-2.47,8.28,8.28,0,0,1,3.86-.88,7.52,7.52,0,0,1,3.72.88,5.33,5.33,0,0,1,2.31,2.54l-3,1.63a3.28,3.28,0,0,0-3-1.85,3.42,3.42,0,0,0-2.53,1,3.69,3.69,0,0,0-1,2.72,3.73,3.73,0,0,0,1,2.73,3.46,3.46,0,0,0,2.53,1,3.27,3.27,0,0,0,3-1.85l3,1.65a5.42,5.42,0,0,1-2.31,2.5,7.42,7.42,0,0,1-3.72.9A8.29,8.29,0,0,1,56.33,263.16Z"/><path class="cls-4" d="M69.29,247.9a2,2,0,0,1-.67-1.55,2,2,0,0,1,.67-1.55,2.47,2.47,0,0,1,1.75-.63,2.53,2.53,0,0,1,1.75.6,1.93,1.93,0,0,1,.68,1.5,2.11,2.11,0,0,1-.68,1.61,2.42,2.42,0,0,1-1.75.64A2.51,2.51,0,0,1,69.29,247.9Zm-.2,2.5H73v13.45h-3.9Z"/><path class="cls-4" d="M87.47,251.68a5.73,5.73,0,0,1,1.67,4.49v7.68H85.49v-1.68c-.73,1.25-2.1,1.88-4.1,1.88a6.31,6.31,0,0,1-2.68-.53A4,4,0,0,1,77,262.07a3.74,3.74,0,0,1-.6-2.1,3.51,3.51,0,0,1,1.41-3A7.25,7.25,0,0,1,82.14,256h3.1a2.52,2.52,0,0,0-.77-2,3.47,3.47,0,0,0-2.33-.68,6.94,6.94,0,0,0-2.11.33,5.53,5.53,0,0,0-1.76.92l-1.4-2.73a8.73,8.73,0,0,1,2.63-1.2,12,12,0,0,1,3.17-.42A7,7,0,0,1,87.47,251.68ZM84.14,261a2.49,2.49,0,0,0,1.1-1.36v-1.38H82.57c-1.6,0-2.4.53-2.4,1.58a1.38,1.38,0,0,0,.58,1.18,2.62,2.62,0,0,0,1.62.44A3.36,3.36,0,0,0,84.14,261Z"/><path class="cls-4" d="M93.29,245.3h3.9v18.55h-3.9Z"/><path class="cls-4" d="M109.42,246.35h4v14.2h8.77v3.3H109.42Z"/><path class="cls-4" d="M125.07,247.9a2,2,0,0,1-.68-1.55,2,2,0,0,1,.68-1.55,2.46,2.46,0,0,1,1.75-.63,2.55,2.55,0,0,1,1.75.6,1.92,1.92,0,0,1,.67,1.5,2.11,2.11,0,0,1-.67,1.61,2.44,2.44,0,0,1-1.75.64A2.49,2.49,0,0,1,125.07,247.9Zm-.2,2.5h3.9v13.45h-3.9Z"/><path class="cls-4" d="M137.29,250.7h3.45v3h-3.35v10.15h-3.9V253.7h-2.07v-3h2.07v-.6a4.89,4.89,0,0,1,1.36-3.65,5.23,5.23,0,0,1,3.84-1.35,6.87,6.87,0,0,1,1.66.19,4,4,0,0,1,1.32.53l-1,2.83a2.63,2.63,0,0,0-1.57-.48c-1.19,0-1.78.65-1.78,2Z"/><path class="cls-4" d="M156.24,258.22H146.07a3.14,3.14,0,0,0,1.3,2,4.31,4.31,0,0,0,2.55.72,5.11,5.11,0,0,0,1.86-.31,4.59,4.59,0,0,0,1.51-1l2.08,2.25a7,7,0,0,1-5.55,2.18,8.82,8.82,0,0,1-4-.89,6.45,6.45,0,0,1-2.7-2.46,7.22,7.22,0,0,1,0-7.14,6.59,6.59,0,0,1,2.57-2.48,7.63,7.63,0,0,1,3.67-.88,7.47,7.47,0,0,1,3.57.85,6.18,6.18,0,0,1,2.51,2.43,7.27,7.27,0,0,1,.92,3.69C156.32,257.22,156.29,257.57,156.24,258.22Zm-9.12-4.32a3.17,3.17,0,0,0-1.1,2h6.62a3.22,3.22,0,0,0-1.1-2,3.27,3.27,0,0,0-2.2-.76A3.35,3.35,0,0,0,147.12,253.9Z"/><path class="cls-4" d="M41.72,346.4l-4.88,13.45H33.09l-3-8.35-3.13,8.35H23.19L18.34,346.4H22l3.17,9.1,3.3-9.1h3.3l3.2,9.1,3.28-9.1Z"/><path class="cls-4" d="M46.38,359.16a6.66,6.66,0,0,1-2.64-2.46,6.83,6.83,0,0,1,2.64-9.62,8.1,8.1,0,0,1,3.81-.88,8,8,0,0,1,3.8.88,6.66,6.66,0,0,1,2.63,2.47,7.2,7.2,0,0,1,0,7.15A6.57,6.57,0,0,1,54,359.16a8,8,0,0,1-3.8.89A8.11,8.11,0,0,1,46.38,359.16Zm6.28-3.33a4.31,4.31,0,0,0,0-5.42,3.53,3.53,0,0,0-4.94,0,4.24,4.24,0,0,0,0,5.42,3.5,3.5,0,0,0,4.94,0Z"/><path class="cls-4" d="M66.41,346.7a6.85,6.85,0,0,1,2.73-.5v3.6c-.43,0-.72-.05-.87-.05a3.61,3.61,0,0,0-2.63.93,3.83,3.83,0,0,0-1,2.82v6.35h-3.9V346.4h3.73v1.77A4.34,4.34,0,0,1,66.41,346.7Z"/><path class="cls-4" d="M77.87,354.57,76,356.42v3.43H72.09V341.3H76v10.5l5.7-5.4h4.64l-5.59,5.7,6.09,7.75H82.12Z"/><path class="cls-4" d="M22.13,310.58A9.28,9.28,0,0,1,19,309.12l1.37-3.05a9.59,9.59,0,0,0,2.68,1.33,10.15,10.15,0,0,0,3.1.5,4.86,4.86,0,0,0,2.55-.52,1.53,1.53,0,0,0,.82-1.36,1.33,1.33,0,0,0-.48-1,3.88,3.88,0,0,0-1.25-.66c-.51-.16-1.2-.35-2.07-.55a26.69,26.69,0,0,1-3.27-.95,5.27,5.27,0,0,1-2.19-1.52,4.12,4.12,0,0,1-.91-2.8,4.89,4.89,0,0,1,.82-2.77,5.62,5.62,0,0,1,2.49-2,10.21,10.21,0,0,1,4.06-.72,13.33,13.33,0,0,1,3.28.4,9.46,9.46,0,0,1,2.8,1.15l-1.25,3.07a9.82,9.82,0,0,0-4.85-1.37,4.51,4.51,0,0,0-2.51.55,1.68,1.68,0,0,0-.82,1.45,1.42,1.42,0,0,0,.94,1.33,14.67,14.67,0,0,0,2.86.87,26.38,26.38,0,0,1,3.28.95,5.31,5.31,0,0,1,2.19,1.5,4.05,4.05,0,0,1,.91,2.77,4.79,4.79,0,0,1-.84,2.74,5.55,5.55,0,0,1-2.51,2,10.16,10.16,0,0,1-4.08.73A14.13,14.13,0,0,1,22.13,310.58Z"/><path class="cls-4" d="M39.33,310.16a6.9,6.9,0,0,1-2.67-9.61,6.71,6.71,0,0,1,2.67-2.47,8.28,8.28,0,0,1,3.86-.88,7.52,7.52,0,0,1,3.72.88,5.33,5.33,0,0,1,2.31,2.54l-3,1.63a3.28,3.28,0,0,0-3-1.85,3.42,3.42,0,0,0-2.53,1,3.69,3.69,0,0,0-1,2.72,3.73,3.73,0,0,0,1,2.73,3.46,3.46,0,0,0,2.53,1,3.27,3.27,0,0,0,3-1.85l3,1.65a5.42,5.42,0,0,1-2.31,2.5,7.42,7.42,0,0,1-3.72.9A8.29,8.29,0,0,1,39.33,310.16Z"/><path class="cls-4" d="M64.21,298.7a6,6,0,0,1,1.53,4.45v7.7h-3.9v-7.1a3.48,3.48,0,0,0-.7-2.39,2.54,2.54,0,0,0-2-.79,3.12,3.12,0,0,0-2.35.91,3.77,3.77,0,0,0-.88,2.72v6.65H52V292.3h3.9v6.5a5.16,5.16,0,0,1,1.88-1.19,6.65,6.65,0,0,1,2.4-.41A5.56,5.56,0,0,1,64.21,298.7Z"/><path class="cls-4" d="M72.63,310.16A6.53,6.53,0,0,1,70,307.7a7.2,7.2,0,0,1,0-7.15,6.63,6.63,0,0,1,2.64-2.47,8.67,8.67,0,0,1,7.61,0,6.73,6.73,0,0,1,2.63,2.47,7.2,7.2,0,0,1,0,7.15,6.64,6.64,0,0,1-2.63,2.46,8.58,8.58,0,0,1-7.61,0Zm6.27-3.33a4.27,4.27,0,0,0,0-5.42,3.22,3.22,0,0,0-2.46-1,3.26,3.26,0,0,0-2.47,1,4.24,4.24,0,0,0,0,5.42,3.27,3.27,0,0,0,2.47,1A3.23,3.23,0,0,0,78.9,306.83Z"/><path class="cls-4" d="M89.63,310.16A6.53,6.53,0,0,1,87,307.7a7.2,7.2,0,0,1,0-7.15,6.63,6.63,0,0,1,2.64-2.47,8.67,8.67,0,0,1,7.61,0,6.73,6.73,0,0,1,2.63,2.47,7.2,7.2,0,0,1,0,7.15,6.64,6.64,0,0,1-2.63,2.46,8.58,8.58,0,0,1-7.61,0Zm6.27-3.33a4.27,4.27,0,0,0,0-5.42,3.22,3.22,0,0,0-2.46-1,3.26,3.26,0,0,0-2.47,1,4.24,4.24,0,0,0,0,5.42,3.27,3.27,0,0,0,2.47,1A3.23,3.23,0,0,0,95.9,306.83Z"/><path class="cls-4" d="M104,292.3h3.9v18.55H104Z"/></g></g></svg>