<svg xmlns="http://www.w3.org/2000/svg" viewBox="0 0 418.08 104.48"><defs><style>.cls-1{fill:#ff9492;}.cls-2{fill:#534d72;}</style></defs><title>Asset 43</title><g id="Layer_2" data-name="Layer 2"><g id="Layer_8" data-name="Layer 8"><path class="cls-1" d="M11,7h3V12.7A8.6,8.6,0,0,1,11.36,14a10.16,10.16,0,0,1-3,.46,8.19,8.19,0,0,1-3.92-.93A6.92,6.92,0,0,1,1.69,11a7.1,7.1,0,0,1-1-3.73,7.1,7.1,0,0,1,1-3.73A6.91,6.91,0,0,1,4.44.93,8.33,8.33,0,0,1,8.4,0a8.72,8.72,0,0,1,3.34.62,6.55,6.55,0,0,1,2.52,1.8L12.18,4.34A4.83,4.83,0,0,0,8.56,2.76a5,5,0,0,0-2.38.56A4,4,0,0,0,4.56,4.9,4.62,4.62,0,0,0,4,7.24a4.57,4.57,0,0,0,.58,2.32,4.1,4.1,0,0,0,1.61,1.59,4.78,4.78,0,0,0,2.35.57,5.27,5.27,0,0,0,2.52-.6Z"/><path class="cls-1" d="M25.92,14.24l-2.7-3.9h-3v3.9H17V.24h6.06a7.82,7.82,0,0,1,3.23.62A4.78,4.78,0,0,1,28.4,2.62a4.88,4.88,0,0,1,.74,2.7A4.74,4.74,0,0,1,28.39,8a4.78,4.78,0,0,1-2.13,1.73l3.14,4.5ZM25.1,3.51a3.42,3.42,0,0,0-2.22-.63H20.24V7.76h2.64a3.36,3.36,0,0,0,2.22-.64,2.22,2.22,0,0,0,.76-1.8A2.2,2.2,0,0,0,25.1,3.51Z"/><path class="cls-1" d="M40.92,11.24h-6.5l-1.24,3H29.86L36.1.24h3.2l6.26,14h-3.4Zm-1-2.46L37.68,3.42,35.46,8.78Z"/><path class="cls-1" d="M47,.24h6.36a9,9,0,0,1,4,.87,6.54,6.54,0,0,1,2.72,2.45,6.85,6.85,0,0,1,1,3.68,6.85,6.85,0,0,1-1,3.68,6.54,6.54,0,0,1-2.72,2.45,9,9,0,0,1-4,.87H47Zm6.2,11.34a4.7,4.7,0,0,0,3.35-1.17,4.15,4.15,0,0,0,1.25-3.17,4.15,4.15,0,0,0-1.25-3.17A4.7,4.7,0,0,0,53.22,2.9h-3v8.68Z"/><path class="cls-1" d="M65.09,12.82a6.41,6.41,0,0,1-1.67-4.74V.24h3.24V8q0,3.77,3.12,3.76a2.91,2.91,0,0,0,2.32-.91A4.27,4.27,0,0,0,72.9,8V.24h3.2V8.08a6.41,6.41,0,0,1-1.67,4.74,6.32,6.32,0,0,1-4.67,1.66A6.32,6.32,0,0,1,65.09,12.82Z"/><path class="cls-1" d="M88.22,11.24h-6.5l-1.24,3H77.16L83.4.24h3.2l6.26,14h-3.4Zm-1-2.46L85,3.42,82.76,8.78Z"/><path class="cls-1" d="M96.52,2.88H92V.24h12.2V2.88H99.76V14.24H96.52Z"/><path class="cls-1" d="M116.82,11.64v2.6H106V.24h10.58v2.6H109.2v3h6.5V8.4h-6.5v3.24Z"/><path class="cls-1" d="M119.4.24h6.36a9,9,0,0,1,4,.87,6.54,6.54,0,0,1,2.72,2.45,6.85,6.85,0,0,1,1,3.68,6.85,6.85,0,0,1-1,3.68,6.54,6.54,0,0,1-2.72,2.45,9,9,0,0,1-4,.87H119.4Zm6.2,11.34A4.7,4.7,0,0,0,129,10.41a4.15,4.15,0,0,0,1.25-3.17A4.15,4.15,0,0,0,129,4.07,4.7,4.7,0,0,0,125.6,2.9h-3v8.68Z"/><path class="cls-1" d="M135.5,6.66a1.91,1.91,0,0,1-.56-1.4,1.84,1.84,0,0,1,.56-1.39,2.06,2.06,0,0,1,2.76,0,1.84,1.84,0,0,1,.56,1.39,1.91,1.91,0,0,1-.56,1.4,2,2,0,0,1-2.76,0Zm0,7.18a1.91,1.91,0,0,1-.56-1.4,1.84,1.84,0,0,1,.56-1.39,2.06,2.06,0,0,1,2.76,0,1.84,1.84,0,0,1,.56,1.39,1.91,1.91,0,0,1-.56,1.4,2,2,0,0,1-2.76,0Z"/><path class="cls-2" d="M156.4,11.6v2.64H145.82v-2.1l5.4-5.1a5.94,5.94,0,0,0,1.16-1.41,2.54,2.54,0,0,0,.3-1.17,1.55,1.55,0,0,0-.57-1.29,2.66,2.66,0,0,0-1.67-.45,3.88,3.88,0,0,0-1.66.35,3.12,3.12,0,0,0-1.24,1.05L145.18,2.6A5.58,5.58,0,0,1,147.44.69a7.55,7.55,0,0,1,3.3-.69,6.78,6.78,0,0,1,2.73.51A4.19,4.19,0,0,1,155.29,2a3.75,3.75,0,0,1,.65,2.19,4.89,4.89,0,0,1-.48,2.14,8.14,8.14,0,0,1-1.86,2.28l-3.22,3Z"/><path class="cls-2" d="M160.6,13.62a5.69,5.69,0,0,1-2.13-2.49,9.09,9.09,0,0,1-.77-3.89,9.09,9.09,0,0,1,.77-3.89A5.69,5.69,0,0,1,160.6.86a6,6,0,0,1,6.2,0,5.69,5.69,0,0,1,2.13,2.49,9.09,9.09,0,0,1,.77,3.89,9.09,9.09,0,0,1-.77,3.89,5.84,5.84,0,0,1-8.33,2.49Zm5.11-3a6.22,6.22,0,0,0,.73-3.4,6.22,6.22,0,0,0-.73-3.4,2.37,2.37,0,0,0-4,0,6.22,6.22,0,0,0-.73,3.4,6.22,6.22,0,0,0,.73,3.4,2.37,2.37,0,0,0,4,0Z"/><path class="cls-2" d="M176.56.24v14h-3.24V2.84h-2.8V.24Z"/><path class="cls-2" d="M188.52,1.79a7.28,7.28,0,0,1,1.66,5.15,8.72,8.72,0,0,1-.89,4.08,6.07,6.07,0,0,1-2.51,2.58,7.68,7.68,0,0,1-3.74.88,8.77,8.77,0,0,1-2.14-.25,5.76,5.76,0,0,1-1.74-.71l1.2-2.38a4.5,4.5,0,0,0,2.62.7,3.78,3.78,0,0,0,2.82-1.05,4.39,4.39,0,0,0,1.12-3A4.7,4.7,0,0,1,183.44,9,5.46,5.46,0,0,1,181,8.48,4.31,4.31,0,0,1,179.26,7a4.09,4.09,0,0,1-.64-2.29,4.35,4.35,0,0,1,.7-2.46A4.54,4.54,0,0,1,181.23.57,6.23,6.23,0,0,1,183.92,0,6,6,0,0,1,188.52,1.79ZM185.89,6a1.91,1.91,0,0,0,.67-1.51,1.94,1.94,0,0,0-.65-1.5,2.57,2.57,0,0,0-1.79-.58,2.51,2.51,0,0,0-1.69.56,1.91,1.91,0,0,0-.65,1.52A1.94,1.94,0,0,0,182.43,6a2.87,2.87,0,0,0,3.46,0Z"/><path class="cls-1" d="M22.74,30.24l-4.58,14H14.68L11.6,34.76,8.42,44.24H5l-4.6-14H3.72l3.16,9.84,3.3-9.84h3l3.2,9.92,3.26-9.92Z"/><path class="cls-1" d="M27.23,43.54A7,7,0,0,1,24.49,41a7.45,7.45,0,0,1,0-7.42,7,7,0,0,1,2.74-2.59,8.66,8.66,0,0,1,7.85,0,7.11,7.11,0,0,1,2.74,2.59,7.38,7.38,0,0,1,0,7.42,7.11,7.11,0,0,1-2.74,2.59,8.66,8.66,0,0,1-7.85,0Zm6.17-2.39A4.07,4.07,0,0,0,35,39.56a5,5,0,0,0,0-4.64,4.07,4.07,0,0,0-1.57-1.59,4.69,4.69,0,0,0-4.48,0,4.07,4.07,0,0,0-1.57,1.59,5,5,0,0,0,0,4.64,4.07,4.07,0,0,0,1.57,1.59,4.69,4.69,0,0,0,4.48,0Z"/><path class="cls-1" d="M50.18,44.24l-2.7-3.9h-3v3.9H41.26v-14h6.06a7.82,7.82,0,0,1,3.23.62,4.78,4.78,0,0,1,2.11,1.76,4.88,4.88,0,0,1,.74,2.7,4.56,4.56,0,0,1-2.88,4.42l3.14,4.5Zm-.82-10.73a3.42,3.42,0,0,0-2.22-.63H44.5v4.88h2.64a3.36,3.36,0,0,0,2.22-.64,2.52,2.52,0,0,0,0-3.61Z"/><path class="cls-1" d="M61.06,38.74l-1.88,2v3.54H56v-14h3.22v6.54l6.2-6.54H69l-5.8,6.24,6.14,7.76H65.54Z"/><path class="cls-1" d="M70.34,36.66a1.87,1.87,0,0,1-.56-1.4,1.8,1.8,0,0,1,.56-1.39,2.06,2.06,0,0,1,2.76,0,1.84,1.84,0,0,1,.56,1.39,1.91,1.91,0,0,1-.56,1.4,2,2,0,0,1-2.76,0Zm0,7.18a1.87,1.87,0,0,1-.56-1.4,1.8,1.8,0,0,1,.56-1.39,2.06,2.06,0,0,1,2.76,0,1.84,1.84,0,0,1,.56,1.39,1.91,1.91,0,0,1-.56,1.4,2,2,0,0,1-2.76,0Z"/><path class="cls-2" d="M91.12,37h3V42.7A8.6,8.6,0,0,1,91.44,44a10.16,10.16,0,0,1-3,.46,8.19,8.19,0,0,1-3.92-.93A6.92,6.92,0,0,1,81.77,41a7.52,7.52,0,0,1,0-7.46,6.91,6.91,0,0,1,2.75-2.58,8.33,8.33,0,0,1,4-.93,8.72,8.72,0,0,1,3.34.62,6.55,6.55,0,0,1,2.52,1.8l-2.08,1.92a4.83,4.83,0,0,0-3.62-1.58,5,5,0,0,0-2.38.56,4,4,0,0,0-1.62,1.58,4.62,4.62,0,0,0-.58,2.34,4.57,4.57,0,0,0,.58,2.32,4.1,4.1,0,0,0,1.61,1.59,4.78,4.78,0,0,0,2.35.57,5.27,5.27,0,0,0,2.52-.6Z"/><path class="cls-2" d="M106,44.24l-2.7-3.9h-3v3.9H97.08v-14h6.06a7.82,7.82,0,0,1,3.23.62,4.78,4.78,0,0,1,2.11,1.76,4.88,4.88,0,0,1,.74,2.7,4.56,4.56,0,0,1-2.88,4.42l3.14,4.5Zm-.82-10.73a3.42,3.42,0,0,0-2.22-.63h-2.64v4.88H103a3.36,3.36,0,0,0,2.22-.64,2.52,2.52,0,0,0,0-3.61Z"/><path class="cls-2" d="M121,41.24h-6.5l-1.24,3h-3.32l6.24-14h3.2l6.26,14h-3.4Zm-1-2.46-2.22-5.36-2.22,5.36Z"/><path class="cls-2" d="M136.39,30.86a4.78,4.78,0,0,1,2.11,1.76,5.28,5.28,0,0,1,0,5.39,4.71,4.71,0,0,1-2.11,1.76,7.82,7.82,0,0,1-3.23.61h-2.82v3.86H127.1v-14h6.06A7.82,7.82,0,0,1,136.39,30.86Zm-1.19,6.25a2.51,2.51,0,0,0,0-3.6,3.42,3.42,0,0,0-2.22-.63h-2.64v4.86H133A3.42,3.42,0,0,0,135.2,37.11Z"/><path class="cls-2" d="M154.38,30.24v14h-3.24V38.5h-6.36v5.74h-3.24v-14h3.24v5.52h6.36V30.24Z"/><path class="cls-2" d="M157.7,30.24h3.24v14H157.7Z"/><path class="cls-2" d="M167.09,43.55A7,7,0,0,1,164.37,41a7.52,7.52,0,0,1,0-7.46,7,7,0,0,1,2.72-2.58,8.68,8.68,0,0,1,7.18-.29,6.65,6.65,0,0,1,2.47,1.84l-2.08,1.92a4.49,4.49,0,0,0-3.52-1.64,4.67,4.67,0,0,0-2.32.57,4.05,4.05,0,0,0-1.59,1.59,5,5,0,0,0,0,4.64,4.05,4.05,0,0,0,1.59,1.59,4.67,4.67,0,0,0,2.32.57,4.45,4.45,0,0,0,3.52-1.66L176.74,42a6.55,6.55,0,0,1-2.48,1.86,8.2,8.2,0,0,1-3.3.64A8,8,0,0,1,167.09,43.55Z"/><path class="cls-2" d="M184.58,30.24h6.36a9,9,0,0,1,4,.87,6.54,6.54,0,0,1,2.72,2.45,7.47,7.47,0,0,1,0,7.36A6.54,6.54,0,0,1,195,43.37a9,9,0,0,1-4,.87h-6.36Zm6.2,11.34a4.7,4.7,0,0,0,3.35-1.17,4.15,4.15,0,0,0,1.25-3.17,4.15,4.15,0,0,0-1.25-3.17,4.7,4.7,0,0,0-3.35-1.17h-3v8.68Z"/><path class="cls-2" d="M211.94,41.64v2.6H201.1v-14h10.58v2.6h-7.36v3h6.5V38.4h-6.5v3.24Z"/><path class="cls-2" d="M215.91,44a7.5,7.5,0,0,1-2.49-1.17l1.1-2.44a7.51,7.51,0,0,0,2.14,1.06,7.94,7.94,0,0,0,2.48.4,4,4,0,0,0,2-.41,1.24,1.24,0,0,0,.66-1.09,1,1,0,0,0-.39-.83,3,3,0,0,0-1-.53c-.41-.13-1-.28-1.65-.44a22.61,22.61,0,0,1-2.62-.76,4.25,4.25,0,0,1-1.75-1.22,3.28,3.28,0,0,1-.73-2.24,3.9,3.9,0,0,1,.66-2.21,4.44,4.44,0,0,1,2-1.57A8.07,8.07,0,0,1,219.6,30a10.93,10.93,0,0,1,2.62.32,7.69,7.69,0,0,1,2.24.92l-1,2.46a7.84,7.84,0,0,0-3.88-1.1,3.65,3.65,0,0,0-2,.44,1.32,1.32,0,0,0-.65,1.16,1.13,1.13,0,0,0,.75,1.07A12.18,12.18,0,0,0,220,36a22.61,22.61,0,0,1,2.62.76,4.3,4.3,0,0,1,1.75,1.2,3.21,3.21,0,0,1,.73,2.22,3.87,3.87,0,0,1-.67,2.19,4.56,4.56,0,0,1-2,1.57,8.12,8.12,0,0,1-3.26.58A11.42,11.42,0,0,1,215.91,44Z"/><path class="cls-2" d="M227.28,30.24h3.24v14h-3.24Z"/><path class="cls-2" d="M243.3,37h3V42.7A8.6,8.6,0,0,1,243.62,44a10.16,10.16,0,0,1-3,.46,8.17,8.17,0,0,1-3.92-.93A6.92,6.92,0,0,1,234,41a7.52,7.52,0,0,1,0-7.46,6.85,6.85,0,0,1,2.75-2.58,8.33,8.33,0,0,1,4-.93,8.75,8.75,0,0,1,3.34.62,6.55,6.55,0,0,1,2.52,1.8l-2.08,1.92a4.83,4.83,0,0,0-3.62-1.58,5,5,0,0,0-2.38.56,3.92,3.92,0,0,0-1.62,1.58,4.62,4.62,0,0,0-.58,2.34,4.57,4.57,0,0,0,.58,2.32,4,4,0,0,0,1.61,1.59,4.75,4.75,0,0,0,2.35.57,5.27,5.27,0,0,0,2.52-.6Z"/><path class="cls-2" d="M262.1,30.24v14h-2.66l-7-8.5v8.5h-3.2v-14h2.68l7,8.5v-8.5Z"/><path class="cls-2" d="M276.26,41.64v2.6H265.42v-14H276v2.6h-7.36v3h6.5V38.4h-6.5v3.24Z"/><path class="cls-2" d="M287.76,44.24l-2.7-3.9h-3v3.9h-3.24v-14h6.06a7.85,7.85,0,0,1,3.23.62A4.63,4.63,0,0,1,291,35.32a4.56,4.56,0,0,1-2.88,4.42l3.14,4.5Zm-.82-10.73a3.42,3.42,0,0,0-2.22-.63h-2.64v4.88h2.64a3.36,3.36,0,0,0,2.22-.64,2.52,2.52,0,0,0,0-3.61Z"/><path class="cls-1" d="M4.48,62.88H0V60.24H12.2v2.64H7.72V74.24H4.48Z"/><path class="cls-1" d="M22.86,74.24l-2.7-3.9h-3v3.9H13.94v-14H20a7.82,7.82,0,0,1,3.23.62,4.78,4.78,0,0,1,2.11,1.76,4.88,4.88,0,0,1,.74,2.7,4.56,4.56,0,0,1-2.88,4.42l3.14,4.5ZM22,63.51a3.42,3.42,0,0,0-2.22-.63H17.18v4.88h2.64A3.36,3.36,0,0,0,22,67.12a2.52,2.52,0,0,0,0-3.61Z"/><path class="cls-1" d="M37.86,71.24h-6.5l-1.24,3H26.8l6.24-14h3.2l6.26,14H39.1Zm-1-2.46-2.22-5.36L32.4,68.78Z"/><path class="cls-1" d="M56.66,60.24l-6.06,14H47.4l-6-14h3.5l4.26,10,4.32-10Z"/><path class="cls-1" d="M68.66,71.64v2.6H57.82v-14H68.4v2.6H61v3h6.5V68.4H61v3.24Z"/><path class="cls-1" d="M71.24,60.24h3.24V71.6h7v2.64H71.24Z"/><path class="cls-1" d="M89,60.24h6.36a9,9,0,0,1,4,.87,6.54,6.54,0,0,1,2.72,2.45,7.47,7.47,0,0,1,0,7.36,6.54,6.54,0,0,1-2.72,2.45,9,9,0,0,1-4,.87H89Zm6.2,11.34a4.7,4.7,0,0,0,3.35-1.17,4.64,4.64,0,0,0,0-6.34,4.7,4.7,0,0,0-3.35-1.17h-3v8.68Z"/><path class="cls-1" d="M116.34,71.64v2.6H105.5v-14h10.58v2.6h-7.36v3h6.5V68.4h-6.5v3.24Z"/><path class="cls-1" d="M120.31,74a7.59,7.59,0,0,1-2.49-1.17l1.1-2.44a7.51,7.51,0,0,0,2.14,1.06,7.94,7.94,0,0,0,2.48.4,4,4,0,0,0,2-.41,1.24,1.24,0,0,0,.66-1.09,1,1,0,0,0-.39-.83,2.87,2.87,0,0,0-1-.53c-.41-.13-1-.28-1.65-.44a22.61,22.61,0,0,1-2.62-.76,4.25,4.25,0,0,1-1.75-1.22,3.28,3.28,0,0,1-.73-2.24,3.9,3.9,0,0,1,.66-2.21,4.44,4.44,0,0,1,2-1.57A8.07,8.07,0,0,1,124,60a10.93,10.93,0,0,1,2.62.32,7.69,7.69,0,0,1,2.24.92l-1,2.46A7.84,7.84,0,0,0,124,62.6a3.65,3.65,0,0,0-2,.44,1.35,1.35,0,0,0-.65,1.16,1.13,1.13,0,0,0,.75,1.07,12.18,12.18,0,0,0,2.29.69,22.61,22.61,0,0,1,2.62.76,4.3,4.3,0,0,1,1.75,1.2,3.21,3.21,0,0,1,.73,2.22,3.8,3.8,0,0,1-.67,2.19,4.56,4.56,0,0,1-2,1.57,8.12,8.12,0,0,1-3.26.58A11.42,11.42,0,0,1,120.31,74Z"/><path class="cls-1" d="M134.38,62.88H129.9V60.24h12.2v2.64h-4.48V74.24h-3.24Z"/><path class="cls-1" d="M143.84,60.24h3.24v14h-3.24Z"/><path class="cls-1" d="M163.24,60.24v14h-2.66l-7-8.5v8.5h-3.2v-14h2.68l7,8.5v-8.5Z"/><path class="cls-1" d="M175.78,71.24h-6.5l-1.24,3h-3.32l6.24-14h3.2l6.26,14H177Zm-1-2.46-2.22-5.36-2.22,5.36Z"/><path class="cls-1" d="M184.08,62.88H179.6V60.24h12.2v2.64h-4.48V74.24h-3.24Z"/><path class="cls-1" d="M193.54,60.24h3.24v14h-3.24Z"/><path class="cls-1" d="M203,73.54A7,7,0,0,1,200.21,71a7.45,7.45,0,0,1,0-7.42A7,7,0,0,1,203,60.94a8.66,8.66,0,0,1,7.85,0,7.11,7.11,0,0,1,2.74,2.59,7.38,7.38,0,0,1,0,7.42,7.11,7.11,0,0,1-2.74,2.59,8.66,8.66,0,0,1-7.85,0Zm6.17-2.39a4.07,4.07,0,0,0,1.57-1.59,5,5,0,0,0,0-4.64,4.07,4.07,0,0,0-1.57-1.59,4.69,4.69,0,0,0-4.48,0,4.07,4.07,0,0,0-1.57,1.59,5,5,0,0,0,0,4.64,4.07,4.07,0,0,0,1.57,1.59,4.69,4.69,0,0,0,4.48,0Z"/><path class="cls-1" d="M229.82,60.24v14h-2.66l-7-8.5v8.5H217v-14h2.68l7,8.5v-8.5Z"/><path class="cls-1" d="M232.72,66.66a1.91,1.91,0,0,1-.56-1.4,1.84,1.84,0,0,1,.56-1.39,2.06,2.06,0,0,1,2.76,0,1.84,1.84,0,0,1,.56,1.39,1.91,1.91,0,0,1-.56,1.4,2,2,0,0,1-2.76,0Zm0,7.18a1.91,1.91,0,0,1-.56-1.4,1.84,1.84,0,0,1,.56-1.39,2.06,2.06,0,0,1,2.76,0,1.84,1.84,0,0,1,.56,1.39,1.91,1.91,0,0,1-.56,1.4,2,2,0,0,1-2.76,0Z"/><path class="cls-2" d="M254.88,71.64v2.6H244v-14h10.58v2.6h-7.36v3h6.5V68.4h-6.5v3.24Z"/><path class="cls-2" d="M259,72.82a6.41,6.41,0,0,1-1.67-4.74V60.24h3.24V68q0,3.77,3.12,3.76a2.91,2.91,0,0,0,2.32-.91,4.27,4.27,0,0,0,.8-2.85V60.24H270v7.84a6.41,6.41,0,0,1-1.67,4.74,7.4,7.4,0,0,1-9.34,0Z"/><path class="cls-2" d="M282.14,74.24l-2.7-3.9h-3v3.9h-3.24v-14h6.06a7.82,7.82,0,0,1,3.23.62,4.78,4.78,0,0,1,2.11,1.76,4.88,4.88,0,0,1,.74,2.7,4.56,4.56,0,0,1-2.88,4.42l3.14,4.5Zm-.82-10.73a3.42,3.42,0,0,0-2.22-.63h-2.64v4.88h2.64a3.36,3.36,0,0,0,2.22-.64,2.52,2.52,0,0,0,0-3.61Z"/><path class="cls-2" d="M290.77,73.54A7,7,0,0,1,288,71a7.45,7.45,0,0,1,0-7.42,7,7,0,0,1,2.74-2.59,8.66,8.66,0,0,1,7.85,0,7.11,7.11,0,0,1,2.74,2.59,7.38,7.38,0,0,1,0,7.42,7.11,7.11,0,0,1-2.74,2.59,8.66,8.66,0,0,1-7.85,0Zm6.17-2.39a4.07,4.07,0,0,0,1.57-1.59,5,5,0,0,0,0-4.64,4.07,4.07,0,0,0-1.57-1.59,4.69,4.69,0,0,0-4.48,0,4.07,4.07,0,0,0-1.57,1.59,5,5,0,0,0,0,4.64,4.07,4.07,0,0,0,1.57,1.59,4.69,4.69,0,0,0,4.48,0Z"/><path class="cls-2" d="M314.09,60.86a4.78,4.78,0,0,1,2.11,1.76,5.28,5.28,0,0,1,0,5.39,4.71,4.71,0,0,1-2.11,1.76,7.82,7.82,0,0,1-3.23.61H308v3.86H304.8v-14h6.06A7.82,7.82,0,0,1,314.09,60.86Zm-1.19,6.25a2.51,2.51,0,0,0,0-3.6,3.42,3.42,0,0,0-2.22-.63H308v4.86h2.64A3.42,3.42,0,0,0,312.9,67.11Z"/><path class="cls-2" d="M330.08,71.64v2.6H319.24v-14h10.58v2.6h-7.36v3H329V68.4h-6.5v3.24Z"/><path class="cls-1" d="M4.82,92.84v3.7H11.3v2.6H4.82v5.1H1.58v-14H12.16v2.6Z"/><path class="cls-1" d="M23,101.24H16.5l-1.24,3H11.94l6.24-14h3.2l6.26,14h-3.4Zm-1-2.46-2.22-5.36-2.22,5.36Z"/><path class="cls-1" d="M41.8,90.24l-6.06,14h-3.2l-6-14H30l4.26,10,4.32-10Z"/><path class="cls-1" d="M45.65,103.54A7,7,0,0,1,42.91,101a7.45,7.45,0,0,1,0-7.42,7,7,0,0,1,2.74-2.59,8.66,8.66,0,0,1,7.85,0,7.11,7.11,0,0,1,2.74,2.59,7.38,7.38,0,0,1,0,7.42,7.11,7.11,0,0,1-2.74,2.59,8.66,8.66,0,0,1-7.85,0Zm6.17-2.39a4.07,4.07,0,0,0,1.57-1.59,5,5,0,0,0,0-4.64,4.07,4.07,0,0,0-1.57-1.59,4.69,4.69,0,0,0-4.48,0,4.07,4.07,0,0,0-1.57,1.59,5,5,0,0,0,0,4.64,4.07,4.07,0,0,0,1.57,1.59,4.69,4.69,0,0,0,4.48,0Z"/><path class="cls-1" d="M61.23,102.82a6.41,6.41,0,0,1-1.67-4.74V90.24H62.8V98q0,3.77,3.12,3.76a2.91,2.91,0,0,0,2.32-.91A4.27,4.27,0,0,0,69,98V90.24h3.2v7.84a6.41,6.41,0,0,1-1.67,4.74,6.32,6.32,0,0,1-4.67,1.66A6.32,6.32,0,0,1,61.23,102.82Z"/><path class="cls-1" d="M84.36,104.24l-2.7-3.9h-3v3.9H75.44v-14H81.5a7.82,7.82,0,0,1,3.23.62,4.78,4.78,0,0,1,2.11,1.76,4.88,4.88,0,0,1,.74,2.7,4.56,4.56,0,0,1-2.88,4.42l3.14,4.5Zm-.82-10.73a3.42,3.42,0,0,0-2.22-.63H78.68v4.88h2.64a3.36,3.36,0,0,0,2.22-.64,2.52,2.52,0,0,0,0-3.61Z"/><path class="cls-1" d="M90.14,90.24h3.24v14H90.14Z"/><path class="cls-1" d="M99.6,92.88H95.12V90.24h12.2v2.64h-4.48v11.36H99.6Z"/><path class="cls-1" d="M119.9,101.64v2.6H109.06v-14h10.58v2.6h-7.36v3h6.5V98.4h-6.5v3.24Z"/><path class="cls-1" d="M128.14,90.24h6.36a9,9,0,0,1,4,.87,6.54,6.54,0,0,1,2.72,2.45,7.47,7.47,0,0,1,0,7.36,6.54,6.54,0,0,1-2.72,2.45,9,9,0,0,1-4,.87h-6.36Zm6.2,11.34a4.7,4.7,0,0,0,3.35-1.17,4.64,4.64,0,0,0,0-6.34,4.7,4.7,0,0,0-3.35-1.17h-3v8.68Z"/><path class="cls-1" d="M153.58,104.24l-2.7-3.9h-3v3.9h-3.24v-14h6.06a7.82,7.82,0,0,1,3.23.62,4.78,4.78,0,0,1,2.11,1.76,4.88,4.88,0,0,1,.74,2.7,4.56,4.56,0,0,1-2.88,4.42l3.14,4.5Zm-.82-10.73a3.42,3.42,0,0,0-2.22-.63H147.9v4.88h2.64a3.36,3.36,0,0,0,2.22-.64,2.52,2.52,0,0,0,0-3.61Z"/><path class="cls-1" d="M159.36,90.24h3.24v14h-3.24Z"/><path class="cls-1" d="M178.76,90.24v14H176.1l-7-8.5v8.5h-3.2v-14h2.68l7,8.5v-8.5Z"/><path class="cls-1" d="M187.18,98.74l-1.88,2v3.54h-3.22v-14h3.22v6.54l6.2-6.54h3.6l-5.8,6.24,6.14,7.76h-3.78Z"/><path class="cls-1" d="M196.46,96.66a1.87,1.87,0,0,1-.56-1.4,1.8,1.8,0,0,1,.56-1.39,2.06,2.06,0,0,1,2.76,0,1.84,1.84,0,0,1,.56,1.39,1.91,1.91,0,0,1-.56,1.4,2,2,0,0,1-2.76,0Zm0,7.18a1.87,1.87,0,0,1-.56-1.4,1.8,1.8,0,0,1,.56-1.39,2.06,2.06,0,0,1,2.76,0,1.84,1.84,0,0,1,.56,1.39,1.91,1.91,0,0,1-.56,1.4,2,2,0,0,1-2.76,0Z"/><path class="cls-2" d="M211,92.84v3.7h6.48v2.6H211v5.1h-3.24v-14h10.58v2.6Z"/><path class="cls-2" d="M222.11,102.82a6.41,6.41,0,0,1-1.67-4.74V90.24h3.24V98q0,3.77,3.12,3.76a2.91,2.91,0,0,0,2.32-.91,4.27,4.27,0,0,0,.8-2.85V90.24h3.2v7.84a6.41,6.41,0,0,1-1.67,4.74,7.4,7.4,0,0,1-9.34,0Z"/><path class="cls-2" d="M239,92.88H234.5V90.24h12.2v2.64h-4.48v11.36H239Z"/><path class="cls-2" d="M249.75,102.82a6.41,6.41,0,0,1-1.67-4.74V90.24h3.24V98q0,3.77,3.12,3.76a2.91,2.91,0,0,0,2.32-.91,4.27,4.27,0,0,0,.8-2.85V90.24h3.2v7.84a6.41,6.41,0,0,1-1.67,4.74,7.4,7.4,0,0,1-9.34,0Z"/><path class="cls-2" d="M272.88,104.24l-2.7-3.9h-3v3.9H264v-14H270a7.82,7.82,0,0,1,3.23.62,4.78,4.78,0,0,1,2.11,1.76,4.88,4.88,0,0,1,.74,2.7,4.56,4.56,0,0,1-2.88,4.42l3.14,4.5Zm-.82-10.73a3.42,3.42,0,0,0-2.22-.63H267.2v4.88h2.64a3.36,3.36,0,0,0,2.22-.64,2.52,2.52,0,0,0,0-3.61Z"/><path class="cls-2" d="M278.66,90.24h3.24v14h-3.24Z"/><path class="cls-2" d="M286.61,104a7.59,7.59,0,0,1-2.49-1.17l1.1-2.44a7.51,7.51,0,0,0,2.14,1.06,7.94,7.94,0,0,0,2.48.4,4,4,0,0,0,2-.41,1.24,1.24,0,0,0,.66-1.09,1,1,0,0,0-.39-.83,3,3,0,0,0-1-.53c-.41-.13-1-.28-1.65-.44a22.61,22.61,0,0,1-2.62-.76,4.25,4.25,0,0,1-1.75-1.22,3.28,3.28,0,0,1-.73-2.24,3.9,3.9,0,0,1,.66-2.21,4.44,4.44,0,0,1,2-1.57A8.07,8.07,0,0,1,290.3,90a10.93,10.93,0,0,1,2.62.32,7.69,7.69,0,0,1,2.24.92l-1,2.46a7.84,7.84,0,0,0-3.88-1.1,3.65,3.65,0,0,0-2,.44,1.32,1.32,0,0,0-.65,1.16,1.13,1.13,0,0,0,.75,1.07,12.18,12.18,0,0,0,2.29.69,22.61,22.61,0,0,1,2.62.76,4.3,4.3,0,0,1,1.75,1.2,3.21,3.21,0,0,1,.73,2.22,3.8,3.8,0,0,1-.67,2.19,4.56,4.56,0,0,1-2,1.57,8.12,8.12,0,0,1-3.26.58A11.42,11.42,0,0,1,286.61,104Z"/><path class="cls-2" d="M300.68,92.88H296.2V90.24h12.2v2.64h-4.48v11.36h-3.24Z"/><path class="cls-2" d="M310.14,90.24h3.24v14h-3.24Z"/><path class="cls-2" d="M319.53,103.55a7,7,0,0,1-2.72-2.58,7.52,7.52,0,0,1,0-7.46,7,7,0,0,1,2.72-2.58,8.68,8.68,0,0,1,7.18-.29,6.65,6.65,0,0,1,2.47,1.84L327.1,94.4a4.49,4.49,0,0,0-3.52-1.64,4.67,4.67,0,0,0-2.32.57,4.05,4.05,0,0,0-1.59,1.59,5,5,0,0,0,0,4.64,4.05,4.05,0,0,0,1.59,1.59,4.67,4.67,0,0,0,2.32.57,4.45,4.45,0,0,0,3.52-1.66l2.08,1.92a6.63,6.63,0,0,1-2.48,1.86,8.2,8.2,0,0,1-3.3.64A8,8,0,0,1,319.53,103.55Z"/><path class="cls-2" d="M339.85,103.55a7,7,0,0,1-2.72-2.58,7.52,7.52,0,0,1,0-7.46,7,7,0,0,1,2.72-2.58,8.68,8.68,0,0,1,7.18-.29,6.65,6.65,0,0,1,2.47,1.84l-2.08,1.92a4.49,4.49,0,0,0-3.52-1.64,4.67,4.67,0,0,0-2.32.57A4.05,4.05,0,0,0,340,94.92a5,5,0,0,0,0,4.64,4.05,4.05,0,0,0,1.59,1.59,4.67,4.67,0,0,0,2.32.57,4.45,4.45,0,0,0,3.52-1.66L349.5,102a6.63,6.63,0,0,1-2.48,1.86,8.2,8.2,0,0,1-3.3.64A8,8,0,0,1,339.85,103.55Z"/><path class="cls-2" d="M354.23,103.54a7,7,0,0,1-2.74-2.59,7.45,7.45,0,0,1,0-7.42,7,7,0,0,1,2.74-2.59,8.66,8.66,0,0,1,7.85,0,7.11,7.11,0,0,1,2.74,2.59,7.38,7.38,0,0,1,0,7.42,7.11,7.11,0,0,1-2.74,2.59,8.66,8.66,0,0,1-7.85,0Zm6.17-2.39A4.07,4.07,0,0,0,362,99.56a5,5,0,0,0,0-4.64,4.07,4.07,0,0,0-1.57-1.59,4.69,4.69,0,0,0-4.48,0,4.07,4.07,0,0,0-1.57,1.59,5,5,0,0,0,0,4.64,4.07,4.07,0,0,0,1.57,1.59,4.69,4.69,0,0,0,4.48,0Z"/><path class="cls-2" d="M371.5,92.84v3.7H378v2.6H371.5v5.1h-3.24v-14h10.58v2.6Z"/><path class="cls-2" d="M384.28,92.84v3.7h6.48v2.6h-6.48v5.1H381v-14h10.58v2.6Z"/><path class="cls-2" d="M404.66,101.64v2.6H393.82v-14H404.4v2.6H397v3h6.5V98.4H397v3.24Z"/><path class="cls-2" d="M418.08,101.64v2.6H407.24v-14h10.58v2.6h-7.36v3H417V98.4h-6.5v3.24Z"/></g></g></svg>