<svg xmlns="http://www.w3.org/2000/svg" viewBox="0 0 341.58 154.28"><defs><style>.cls-1{fill:#6dfebf;}.cls-2{fill:#534d72;}</style></defs><title>Asset 48</title><g id="Layer_2" data-name="Layer 2"><g id="Layer_8" data-name="Layer 8"><path class="cls-1" d="M9.76,8.93H.62V3.55H25.5V8.93H16.37V32.09H9.76Z"/><path class="cls-1" d="M49.54,12.28q2.51,2.45,2.51,7.25V32.09H45.69V20.51a5.65,5.65,0,0,0-1.15-3.89,4.17,4.17,0,0,0-3.3-1.29,5.07,5.07,0,0,0-3.83,1.49A6.18,6.18,0,0,0,36,21.25V32.09H29.62V1.84H36v10.6A8.48,8.48,0,0,1,39,10.5,11.05,11.05,0,0,1,43,9.83,9,9,0,0,1,49.54,12.28Z"/><path class="cls-1" d="M80.43,22.92H63.83A5.19,5.19,0,0,0,66,26.14a7,7,0,0,0,4.16,1.18,8.42,8.42,0,0,0,3-.51,7.21,7.21,0,0,0,2.47-1.61L79,28.87q-3.09,3.55-9,3.55A14.31,14.31,0,0,1,63.38,31,10.57,10.57,0,0,1,59,27a11.13,11.13,0,0,1-1.55-5.84A11.23,11.23,0,0,1,59,15.31a10.71,10.71,0,0,1,4.2-4A13,13,0,0,1,75,11.21a10.11,10.11,0,0,1,4.09,4,11.79,11.79,0,0,1,1.49,6Q80.55,21.33,80.43,22.92ZM65.55,15.86a5.23,5.23,0,0,0-1.8,3.35H74.56a5.22,5.22,0,0,0-5.38-4.57A5.47,5.47,0,0,0,65.55,15.86Z"/><path class="cls-1" d="M104.59,30.69a14.17,14.17,0,0,1-5.54-5.26,14.48,14.48,0,0,1-2-7.61,14.42,14.42,0,0,1,2-7.6A14,14,0,0,1,104.59,5a16.42,16.42,0,0,1,7.93-1.9,16.63,16.63,0,0,1,6.71,1.3,13.37,13.37,0,0,1,5,3.76L120,12a9.11,9.11,0,0,0-7.18-3.34,9.47,9.47,0,0,0-4.73,1.16,8.15,8.15,0,0,0-3.24,3.24,9.47,9.47,0,0,0-1.16,4.73,9.45,9.45,0,0,0,1.16,4.73,8.15,8.15,0,0,0,3.24,3.24A9.48,9.48,0,0,0,112.85,27,9.07,9.07,0,0,0,120,23.57l4.24,3.92a13.33,13.33,0,0,1-5.06,3.79,16.76,16.76,0,0,1-6.73,1.3A16.43,16.43,0,0,1,104.59,30.69Z"/><path class="cls-1" d="M149.21,12.28q2.5,2.45,2.5,7.25V32.09h-6.36V20.51a5.7,5.7,0,0,0-1.14-3.89,4.17,4.17,0,0,0-3.3-1.29,5.09,5.09,0,0,0-3.84,1.49,6.17,6.17,0,0,0-1.42,4.43V32.09h-6.36V1.84h6.36v10.6a8.48,8.48,0,0,1,3.06-1.94,11,11,0,0,1,3.91-.67A9,9,0,0,1,149.21,12.28Z"/><path class="cls-1" d="M158.81,6.08a3.33,3.33,0,0,1-1.1-2.53A3.32,3.32,0,0,1,158.81,1a4,4,0,0,1,2.85-1,4.17,4.17,0,0,1,2.86,1,3.15,3.15,0,0,1,1.1,2.45,3.49,3.49,0,0,1-1.1,2.63,4.47,4.47,0,0,1-5.71,0Zm-.33,4.07h6.36V32.09h-6.36Z"/><path class="cls-1" d="M171.78,1.84h6.36V32.09h-6.36Z"/><path class="cls-1" d="M207.42,1.84V32.09h-6.08V29.57a8.4,8.4,0,0,1-6.85,2.85A11.36,11.36,0,0,1,188.88,31a9.89,9.89,0,0,1-3.93-4,12.08,12.08,0,0,1-1.43-6,12.07,12.07,0,0,1,1.43-6,10,10,0,0,1,3.93-4,11.46,11.46,0,0,1,5.61-1.38,8.35,8.35,0,0,1,6.57,2.65V1.84Zm-7.83,23.71a6.12,6.12,0,0,0,1.59-4.43,6.11,6.11,0,0,0-1.59-4.42,5.32,5.32,0,0,0-4-1.65,5.39,5.39,0,0,0-4,1.65A6.15,6.15,0,0,0,190,21.12a6.16,6.16,0,0,0,1.59,4.43,5.39,5.39,0,0,0,4,1.65A5.32,5.32,0,0,0,199.59,25.55Z"/><path class="cls-1" d="M241,22V32.09h-6.61V21.9l-11-18.35h7L238,16.23l7.63-12.68h6.48Z"/><path class="cls-1" d="M274.38,22.92h-16.6a5.19,5.19,0,0,0,2.12,3.22,7,7,0,0,0,4.16,1.18,8.46,8.46,0,0,0,3-.51,7.4,7.4,0,0,0,2.47-1.61L273,28.87q-3.1,3.55-9.05,3.55A14.25,14.25,0,0,1,257.33,31a10.57,10.57,0,0,1-4.4-4,11,11,0,0,1-1.55-5.84,11.23,11.23,0,0,1,1.53-5.81,10.71,10.71,0,0,1,4.2-4,13,13,0,0,1,11.8-.07,10.13,10.13,0,0,1,4.1,4,11.89,11.89,0,0,1,1.49,6Q274.5,21.33,274.38,22.92Zm-14.89-7.06a5.22,5.22,0,0,0-1.79,3.35h10.81a5.28,5.28,0,0,0-1.8-3.33,5.35,5.35,0,0,0-3.59-1.24A5.51,5.51,0,0,0,259.49,15.86Z"/><path class="cls-1" d="M295.83,12.25q2.73,2.43,2.73,7.32V32.09h-5.95V29.36q-1.8,3.06-6.69,3.06a10.34,10.34,0,0,1-4.38-.86,6.48,6.48,0,0,1-2.84-2.36,6.2,6.2,0,0,1-1-3.43A5.71,5.71,0,0,1,280,21q2.3-1.76,7.11-1.75h5.06a4,4,0,0,0-1.26-3.2,5.58,5.58,0,0,0-3.8-1.13,11,11,0,0,0-3.44.56,9.1,9.1,0,0,0-2.88,1.48l-2.28-4.44a13.74,13.74,0,0,1,4.3-2A19.34,19.34,0,0,1,288,9.83Q293.1,9.83,295.83,12.25Zm-5.42,15.13a4.1,4.1,0,0,0,1.79-2.22V22.92h-4.36q-3.91,0-3.92,2.57a2.27,2.27,0,0,0,1,1.93,4.28,4.28,0,0,0,2.63.72A5.51,5.51,0,0,0,290.41,27.38Z"/><path class="cls-1" d="M314.49,10.64A11.48,11.48,0,0,1,319,9.83V15.7c-.71,0-1.18-.08-1.43-.08a5.82,5.82,0,0,0-4.28,1.53,6.2,6.2,0,0,0-1.55,4.59V32.09h-6.36V10.15h6.08v2.9A7.08,7.08,0,0,1,314.49,10.64Z"/><path class="cls-1" d="M325.88,31.75a13.8,13.8,0,0,1-4.16-1.7l2.12-4.56A13.85,13.85,0,0,0,327.39,27a15.07,15.07,0,0,0,4.08.59q4,0,4-2a1.43,1.43,0,0,0-1.1-1.35,16.65,16.65,0,0,0-3.39-.69,31.46,31.46,0,0,1-4.44-.94,6.88,6.88,0,0,1-3-1.87,5.34,5.34,0,0,1-1.29-3.84,6,6,0,0,1,1.21-3.69,7.7,7.7,0,0,1,3.5-2.5,15,15,0,0,1,5.45-.9,21.39,21.39,0,0,1,4.63.51,13,13,0,0,1,3.81,1.41l-2.12,4.52a12.64,12.64,0,0,0-6.32-1.63,6.45,6.45,0,0,0-3.06.57,1.68,1.68,0,0,0-1,1.47,1.46,1.46,0,0,0,1.1,1.43,19.38,19.38,0,0,0,3.51.77,37.68,37.68,0,0,1,4.4,1,6.61,6.61,0,0,1,3,1.86,5.25,5.25,0,0,1,1.26,3.75,5.76,5.76,0,0,1-1.22,3.63,7.76,7.76,0,0,1-3.57,2.46,15.75,15.75,0,0,1-5.56.88A21.26,21.26,0,0,1,325.88,31.75Z"/><path class="cls-2" d="M1.62,52.55H4.51V62.68h6.27V65H1.62Z"/><path class="cls-2" d="M12.35,53.66a1.5,1.5,0,0,1,0-2.22A1.77,1.77,0,0,1,13.59,51a1.78,1.78,0,0,1,1.25.43,1.34,1.34,0,0,1,.49,1.07,1.51,1.51,0,0,1-.49,1.15,1.74,1.74,0,0,1-1.25.45A1.77,1.77,0,0,1,12.35,53.66Zm-.15,1.78H15V65H12.2Z"/><path class="cls-2" d="M20.62,55.65h2.47v2.14H20.7V65H17.91V57.79H16.43V55.65h1.48v-.42a3.53,3.53,0,0,1,1-2.61,3.75,3.75,0,0,1,2.74-1,5,5,0,0,1,1.19.13,3.13,3.13,0,0,1,.94.38l-.73,2a1.91,1.91,0,0,0-1.13-.34c-.84,0-1.27.47-1.27,1.39Z"/><path class="cls-2" d="M33.7,61H26.44a2.23,2.23,0,0,0,.93,1.41,3,3,0,0,0,1.82.52,3.67,3.67,0,0,0,1.33-.22A3.42,3.42,0,0,0,31.6,62l1.48,1.61a5,5,0,0,1-4,1.55,6.33,6.33,0,0,1-2.88-.63,4.61,4.61,0,0,1-1.92-1.76,5.14,5.14,0,0,1,0-5.09,4.61,4.61,0,0,1,1.84-1.77,5.72,5.72,0,0,1,5.16,0,4.47,4.47,0,0,1,1.79,1.74,5.17,5.17,0,0,1,.65,2.64S33.74,60.56,33.7,61Zm-6.51-3.08a2.27,2.27,0,0,0-.79,1.46h4.73A2.24,2.24,0,0,0,30.35,58a2.31,2.31,0,0,0-1.57-.55A2.39,2.39,0,0,0,27.19,57.94Z"/><path class="cls-2" d="M41.55,64.89a6.41,6.41,0,0,1-1.82-.74l.93-2a6.34,6.34,0,0,0,1.55.67,6.62,6.62,0,0,0,1.79.26c1.17,0,1.76-.29,1.76-.88a.62.62,0,0,0-.48-.59,6.82,6.82,0,0,0-1.48-.3,15.46,15.46,0,0,1-1.95-.41,3,3,0,0,1-1.32-.82A2.31,2.31,0,0,1,40,58.4a2.62,2.62,0,0,1,.53-1.61A3.37,3.37,0,0,1,42,55.69a6.65,6.65,0,0,1,2.39-.39,9.26,9.26,0,0,1,2,.22,5.78,5.78,0,0,1,1.67.62l-.93,2a5.47,5.47,0,0,0-2.76-.72,2.9,2.9,0,0,0-1.34.25.74.74,0,0,0-.45.64.64.64,0,0,0,.48.63,8.78,8.78,0,0,0,1.54.34,16.29,16.29,0,0,1,1.93.42,3,3,0,0,1,1.3.81,2.29,2.29,0,0,1,.55,1.64,2.58,2.58,0,0,1-.53,1.59,3.49,3.49,0,0,1-1.57,1.08,7,7,0,0,1-2.43.38A9.61,9.61,0,0,1,41.55,64.89Z"/><path class="cls-2" d="M59.8,55.44V65H57.16V63.9a3.78,3.78,0,0,1-1.32.95,4.13,4.13,0,0,1-1.66.33,4,4,0,0,1-3-1.09,4.32,4.32,0,0,1-1.11-3.23V55.44h2.78v5c0,1.55.65,2.32,2,2.32a2.06,2.06,0,0,0,1.6-.65A2.71,2.71,0,0,0,57,60.19V55.44Z"/><path class="cls-2" d="M66.4,55.65a5.1,5.1,0,0,1,1.95-.35v2.57c-.31,0-.52,0-.63,0a2.54,2.54,0,0,0-1.87.67,2.73,2.73,0,0,0-.68,2V65H62.39v-9.6h2.66v1.27A3,3,0,0,1,66.4,55.65Z"/><path class="cls-2" d="M79.27,61H72a2.25,2.25,0,0,0,.92,1.41,3.06,3.06,0,0,0,1.82.52,3.64,3.64,0,0,0,1.33-.22A3.21,3.21,0,0,0,77.16,62l1.48,1.61a5,5,0,0,1-4,1.55,6.28,6.28,0,0,1-2.87-.63,4.7,4.7,0,0,1-1.93-1.76,5.17,5.17,0,0,1,0-5.09,4.58,4.58,0,0,1,1.83-1.77,5.74,5.74,0,0,1,5.17,0,4.47,4.47,0,0,1,1.79,1.74,5.27,5.27,0,0,1,.65,2.64S79.3,60.56,79.27,61Zm-6.51-3.08A2.27,2.27,0,0,0,72,59.4H76.7a2.31,2.31,0,0,0-2.36-2A2.35,2.35,0,0,0,72.76,57.94Z"/><path class="cls-2" d="M96,51.8V65H93.34V63.93a3.63,3.63,0,0,1-3,1.25,5,5,0,0,1-2.46-.61,4.34,4.34,0,0,1-1.72-1.73,5.78,5.78,0,0,1,0-5.21,4.4,4.4,0,0,1,1.72-1.73,5.06,5.06,0,0,1,2.46-.6,3.63,3.63,0,0,1,2.87,1.16V51.8ZM92.58,62.18a3.07,3.07,0,0,0,0-3.88,2.35,2.35,0,0,0-1.75-.72,2.37,2.37,0,0,0-1.77.72,3.07,3.07,0,0,0,0,3.88,2.37,2.37,0,0,0,1.77.72A2.35,2.35,0,0,0,92.58,62.18Z"/><path class="cls-2" d="M98.71,53.66a1.52,1.52,0,0,1,0-2.22A1.82,1.82,0,0,1,100,51a1.79,1.79,0,0,1,1.25.43,1.36,1.36,0,0,1,.48,1.07,1.53,1.53,0,0,1-.48,1.15,1.76,1.76,0,0,1-1.25.45A1.82,1.82,0,0,1,98.71,53.66Zm-.14,1.78h2.78V65H98.57Z"/><path class="cls-2" d="M113.72,51.8V65h-2.66V63.93a3.65,3.65,0,0,1-3,1.25,4.92,4.92,0,0,1-2.45-.61,4.28,4.28,0,0,1-1.72-1.73,5.7,5.7,0,0,1,0-5.21,4.34,4.34,0,0,1,1.72-1.73,5,5,0,0,1,2.45-.6,3.64,3.64,0,0,1,2.88,1.16V51.8Zm-3.43,10.38a3,3,0,0,0,0-3.88,2.5,2.5,0,0,0-3.51,0,3,3,0,0,0,0,3.88,2.5,2.5,0,0,0,3.51,0Z"/><path class="cls-2" d="M123.22,64.55a4.71,4.71,0,0,1-1.91-1.76,5.06,5.06,0,0,1,0-5.1,4.71,4.71,0,0,1,1.91-1.76A5.9,5.9,0,0,1,126,55.3a5.33,5.33,0,0,1,2.65.63,3.72,3.72,0,0,1,1.65,1.81l-2.15,1.16A2.36,2.36,0,0,0,126,57.58a2.44,2.44,0,0,0-1.8.71,2.63,2.63,0,0,0-.72,2,2.6,2.6,0,0,0,.72,1.94,2.41,2.41,0,0,0,1.8.72,2.34,2.34,0,0,0,2.16-1.32l2.15,1.17a3.76,3.76,0,0,1-1.65,1.79,5.23,5.23,0,0,1-2.65.64A5.9,5.9,0,0,1,123.22,64.55Z"/><path class="cls-2" d="M140.52,56.37a4.2,4.2,0,0,1,1.1,3.17V65h-2.78V60a2.5,2.5,0,0,0-.5-1.7,1.82,1.82,0,0,0-1.45-.56,2.17,2.17,0,0,0-1.67.65,2.67,2.67,0,0,0-.63,1.93V65h-2.78V51.8h2.78v4.64a3.79,3.79,0,0,1,1.34-.85,5,5,0,0,1,1.71-.29A3.92,3.92,0,0,1,140.52,56.37Z"/><path class="cls-2" d="M151.43,56.36a4,4,0,0,1,1.2,3.2V65H150v-1.2a3.07,3.07,0,0,1-2.92,1.34,4.54,4.54,0,0,1-1.92-.37,2.91,2.91,0,0,1-1.24-1,2.74,2.74,0,0,1-.43-1.5,2.5,2.5,0,0,1,1-2.1,5.14,5.14,0,0,1,3.11-.77h2.22a1.77,1.77,0,0,0-.56-1.4,2.42,2.42,0,0,0-1.66-.49,4.8,4.8,0,0,0-1.5.24,3.94,3.94,0,0,0-1.26.65l-1-1.94a5.92,5.92,0,0,1,1.88-.86,8.55,8.55,0,0,1,2.26-.3A5,5,0,0,1,151.43,56.36ZM149.06,63a1.86,1.86,0,0,0,.79-1V61h-1.91c-1.14,0-1.72.38-1.72,1.13a1,1,0,0,0,.42.85,2,2,0,0,0,1.15.31A2.43,2.43,0,0,0,149.06,63Z"/><path class="cls-2" d="M163.86,56.37a4.24,4.24,0,0,1,1.1,3.17V65h-2.79V60a2.45,2.45,0,0,0-.5-1.7,1.8,1.8,0,0,0-1.44-.56,2.21,2.21,0,0,0-1.68.65,2.71,2.71,0,0,0-.62,1.93V65h-2.79v-9.6h2.66v1.12a3.74,3.74,0,0,1,1.38-.93,4.77,4.77,0,0,1,1.8-.33A3.92,3.92,0,0,1,163.86,56.37Z"/><path class="cls-2" d="M177.48,55.44v8a5.17,5.17,0,0,1-1.37,3.93,5.72,5.72,0,0,1-4,1.28,10,10,0,0,1-2.64-.34,5.69,5.69,0,0,1-2.07-1l1.11-2a4.52,4.52,0,0,0,1.53.8,6.33,6.33,0,0,0,1.86.29,3,3,0,0,0,2.13-.65,2.58,2.58,0,0,0,.69-2v-.41a3.89,3.89,0,0,1-3,1.19,5.06,5.06,0,0,1-2.42-.58,4.4,4.4,0,0,1-1.74-1.63,4.91,4.91,0,0,1,0-4.85,4.4,4.4,0,0,1,1.74-1.63,5.06,5.06,0,0,1,2.42-.58,3.81,3.81,0,0,1,3.17,1.37V55.44ZM174,61.64a2.43,2.43,0,0,0,0-3.41,2.57,2.57,0,0,0-1.81-.65,2.62,2.62,0,0,0-1.82.65,2.4,2.4,0,0,0,0,3.41,2.62,2.62,0,0,0,1.82.65A2.57,2.57,0,0,0,174,61.64Z"/><path class="cls-2" d="M189.42,61h-7.26a2.25,2.25,0,0,0,.92,1.41,3.06,3.06,0,0,0,1.82.52,3.64,3.64,0,0,0,1.33-.22,3.21,3.21,0,0,0,1.08-.71l1.48,1.61a5,5,0,0,1-4,1.55,6.28,6.28,0,0,1-2.87-.63A4.7,4.7,0,0,1,180,62.79a5.17,5.17,0,0,1,0-5.09,4.58,4.58,0,0,1,1.83-1.77,5.74,5.74,0,0,1,5.17,0,4.47,4.47,0,0,1,1.79,1.74,5.27,5.27,0,0,1,.65,2.64S189.45,60.56,189.42,61Zm-6.51-3.08a2.27,2.27,0,0,0-.79,1.46h4.73a2.31,2.31,0,0,0-2.36-2A2.35,2.35,0,0,0,182.91,57.94Z"/><path class="cls-2" d="M191.15,64.68a1.7,1.7,0,0,1-.5-1.25,1.65,1.65,0,0,1,.5-1.24,1.84,1.84,0,0,1,2.46,0,1.65,1.65,0,0,1,.5,1.24,1.7,1.7,0,0,1-.5,1.25,1.76,1.76,0,0,1-2.46,0Z"/><path class="cls-2" d="M201.25,52.55h2.89V65h-2.89Z"/><path class="cls-2" d="M221.69,55.44V68.5h-2.78V64A3.66,3.66,0,0,1,216,65.18a4.93,4.93,0,0,1-2.46-.61,4.34,4.34,0,0,1-1.72-1.73,5.78,5.78,0,0,1,0-5.21,4.4,4.4,0,0,1,1.72-1.73,5,5,0,0,1,2.46-.6,3.65,3.65,0,0,1,3,1.25V55.44Zm-3.42,6.74a3.07,3.07,0,0,0,0-3.88,2.51,2.51,0,0,0-3.52,0,3.07,3.07,0,0,0,0,3.88,2.51,2.51,0,0,0,3.52,0Z"/><path class="cls-2" d="M233.93,55.44V65h-2.64V63.9a3.78,3.78,0,0,1-1.32.95,4.13,4.13,0,0,1-1.66.33,4.08,4.08,0,0,1-3-1.09,4.36,4.36,0,0,1-1.1-3.23V55.44H227v5c0,1.55.65,2.32,1.95,2.32a2.06,2.06,0,0,0,1.6-.65,2.71,2.71,0,0,0,.61-1.93V55.44Z"/><path class="cls-2" d="M236.66,53.66a1.52,1.52,0,0,1,0-2.22,2,2,0,0,1,2.5,0,1.36,1.36,0,0,1,.48,1.07,1.53,1.53,0,0,1-.48,1.15,1.76,1.76,0,0,1-1.25.45A1.8,1.8,0,0,1,236.66,53.66Zm-.14,1.78h2.78V65h-2.78Z"/><path class="cls-2" d="M243.77,64.55a4.84,4.84,0,0,1,0-8.62,5.91,5.91,0,0,1,2.76-.63,5.38,5.38,0,0,1,2.65.63,3.82,3.82,0,0,1,1.65,1.81l-2.16,1.16a2.36,2.36,0,0,0-2.16-1.32,2.44,2.44,0,0,0-1.8.71,2.63,2.63,0,0,0-.72,2,2.6,2.6,0,0,0,.72,1.94,2.41,2.41,0,0,0,1.8.72,2.34,2.34,0,0,0,2.16-1.32l2.16,1.17a3.86,3.86,0,0,1-1.65,1.79,5.28,5.28,0,0,1-2.65.64A5.91,5.91,0,0,1,243.77,64.55Z"/><path class="cls-2" d="M256.48,61.27l-1.34,1.32V65h-2.78V51.8h2.78v7.49l4.07-3.85h3.32l-4,4.07L262.89,65h-3.38Z"/><path class="cls-2" d="M264.14,51.8h2.78V65h-2.78Z"/><path class="cls-2" d="M279,55.44,274.7,65.63A5.07,5.07,0,0,1,273.07,68a4,4,0,0,1-2.35.68,5,5,0,0,1-1.48-.23,3.26,3.26,0,0,1-1.2-.64l1-2a2.2,2.2,0,0,0,.74.44,2.26,2.26,0,0,0,.83.16,1.51,1.51,0,0,0,.93-.27,2.36,2.36,0,0,0,.64-.92l0-.09-4.16-9.67H271l2.7,6.51,2.71-6.51Z"/><path class="cls-2" d="M16.84,76.85l-3.48,9.6H10.69l-2.16-6-2.23,6H3.62L.16,76.85H2.78l2.27,6.49L7.4,76.85H9.76L12,83.34l2.34-6.49Z"/><path class="cls-2" d="M27.23,82.43H20a2.23,2.23,0,0,0,.93,1.41,3.06,3.06,0,0,0,1.82.52A3.67,3.67,0,0,0,24,84.14a3.21,3.21,0,0,0,1.08-.71L26.6,85a5,5,0,0,1-4,1.55A6.28,6.28,0,0,1,19.77,86a4.58,4.58,0,0,1-1.93-1.76,4.86,4.86,0,0,1-.68-2.55,4.94,4.94,0,0,1,.67-2.54,4.67,4.67,0,0,1,1.84-1.77,5.72,5.72,0,0,1,5.16,0,4.5,4.5,0,0,1,1.8,1.74,5.26,5.26,0,0,1,.65,2.63S27.26,82,27.23,82.43Zm-6.52-3.08a2.26,2.26,0,0,0-.78,1.46h4.73a2.31,2.31,0,0,0-2.36-2A2.39,2.39,0,0,0,20.71,79.35Z"/><path class="cls-2" d="M37.85,77.78A4.24,4.24,0,0,1,39,81v5.5H36.16V81.38a2.45,2.45,0,0,0-.5-1.7,1.8,1.8,0,0,0-1.44-.56,2.21,2.21,0,0,0-1.68.65,2.67,2.67,0,0,0-.62,1.93v4.75H29.13v-9.6h2.66V78A3.74,3.74,0,0,1,33.17,77a4.73,4.73,0,0,1,1.8-.33A3.92,3.92,0,0,1,37.85,77.78Z"/><path class="cls-2" d="M47.65,86a2.71,2.71,0,0,1-1,.46,5.18,5.18,0,0,1-1.26.15,3.75,3.75,0,0,1-2.65-.87,3.34,3.34,0,0,1-.94-2.57V79.21H40.32V77.06H41.8V74.73h2.78v2.33H47v2.15h-2.4v3.9a1.3,1.3,0,0,0,.32.94,1.14,1.14,0,0,0,.88.33A1.77,1.77,0,0,0,46.9,84Z"/><path class="cls-2" d="M57.32,77.06h2.47v2.15h-2.4v7.24H54.61V79.21H53.13V77.06h1.48v-.42a3.49,3.49,0,0,1,1-2.61,3.73,3.73,0,0,1,2.74-1,5.11,5.11,0,0,1,1.19.13,3.13,3.13,0,0,1,.94.38l-.74,2a1.93,1.93,0,0,0-1.12-.34c-.84,0-1.27.47-1.27,1.39Z"/><path class="cls-2" d="M66.61,77.06a5.1,5.1,0,0,1,2-.35v2.57l-.62,0a2.56,2.56,0,0,0-1.88.67,2.71,2.71,0,0,0-.67,2v4.53H62.6v-9.6h2.66v1.27A3,3,0,0,1,66.61,77.06Z"/><path class="cls-2" d="M72,86A4.69,4.69,0,0,1,70.1,84.2a5.12,5.12,0,0,1,0-5.1A4.69,4.69,0,0,1,72,77.34a6.17,6.17,0,0,1,5.43,0,4.76,4.76,0,0,1,1.88,1.76,5.19,5.19,0,0,1,0,5.1A4.76,4.76,0,0,1,77.41,86,6.17,6.17,0,0,1,72,86Zm4.48-2.38a2.66,2.66,0,0,0,.68-1.93,2.7,2.7,0,0,0-.68-1.94A2.34,2.34,0,0,0,74.7,79a2.37,2.37,0,0,0-1.77.72,2.71,2.71,0,0,0-.69,1.94,2.67,2.67,0,0,0,.69,1.93,2.35,2.35,0,0,0,1.77.73A2.31,2.31,0,0,0,76.46,83.58Z"/><path class="cls-2" d="M97,77.77A4.32,4.32,0,0,1,98,81v5.5H95.25V81.38a2.61,2.61,0,0,0-.47-1.7,1.66,1.66,0,0,0-1.35-.56,2,2,0,0,0-1.55.63,2.73,2.73,0,0,0-.57,1.88v4.82H88.53V81.38c0-1.51-.61-2.26-1.82-2.26a2,2,0,0,0-1.54.63,2.73,2.73,0,0,0-.57,1.88v4.82H81.82v-9.6h2.66V78A3.34,3.34,0,0,1,85.79,77a4.26,4.26,0,0,1,1.7-.32,4.11,4.11,0,0,1,1.84.4,3.25,3.25,0,0,1,1.32,1.17,3.89,3.89,0,0,1,1.49-1.16,4.61,4.61,0,0,1,2-.41A3.84,3.84,0,0,1,97,77.77Z"/><path class="cls-2" d="M112.88,77.77a4,4,0,0,1,1.2,3.2v5.48h-2.61v-1.2a3.11,3.11,0,0,1-2.93,1.34,4.52,4.52,0,0,1-1.91-.37,2.79,2.79,0,0,1-1.24-1,2.66,2.66,0,0,1-.43-1.5,2.47,2.47,0,0,1,1-2.1,5.14,5.14,0,0,1,3.11-.77h2.21a1.77,1.77,0,0,0-.55-1.4,2.42,2.42,0,0,0-1.66-.49,4.91,4.91,0,0,0-1.51.24,4.16,4.16,0,0,0-1.26.65l-1-1.94A6.08,6.08,0,0,1,107.2,77a8.48,8.48,0,0,1,2.25-.3A5,5,0,0,1,112.88,77.77Zm-2.37,6.62a1.8,1.8,0,0,0,.78-1v-1h-1.91c-1.14,0-1.71.38-1.71,1.13a1,1,0,0,0,.42.85,1.94,1.94,0,0,0,1.15.31A2.43,2.43,0,0,0,110.51,84.39Z"/><path class="cls-2" d="M129.23,79.7a3.51,3.51,0,0,1,1.26,2.82,3.82,3.82,0,0,1-2.31,3.58,6.69,6.69,0,0,1-2.88.56,9.53,9.53,0,0,1-2.6-.35,6.68,6.68,0,0,1-2.17-1l1.14-2.21a5.33,5.33,0,0,0,1.65.83,6.11,6.11,0,0,0,1.91.3,3,3,0,0,0,1.71-.43,1.39,1.39,0,0,0,.62-1.2,1.35,1.35,0,0,0-.65-1.21,4.43,4.43,0,0,0-2.26-.41h-3.19l.64-7h7.62v2.32h-5.21l-.19,2.37h1A6,6,0,0,1,129.23,79.7Z"/><path class="cls-2" d="M138.2,86.3a6.29,6.29,0,0,1-1.82-.74l.92-2a6.26,6.26,0,0,0,1.56.67,6.55,6.55,0,0,0,1.78.26c1.18,0,1.77-.3,1.77-.88a.62.62,0,0,0-.49-.59,6.82,6.82,0,0,0-1.48-.3,15.26,15.26,0,0,1-1.94-.41,3.07,3.07,0,0,1-1.33-.82,2.31,2.31,0,0,1-.56-1.68,2.63,2.63,0,0,1,.52-1.61,3.4,3.4,0,0,1,1.54-1.1,6.56,6.56,0,0,1,2.38-.39,9.35,9.35,0,0,1,2,.22,5.71,5.71,0,0,1,1.66.61l-.92,2a5.53,5.53,0,0,0-2.77-.72,2.93,2.93,0,0,0-1.34.25.73.73,0,0,0-.44.64.64.64,0,0,0,.48.63,8.62,8.62,0,0,0,1.53.34,15.85,15.85,0,0,1,1.93.42,2.92,2.92,0,0,1,1.3.81,2.29,2.29,0,0,1,.55,1.64,2.54,2.54,0,0,1-.53,1.59A3.52,3.52,0,0,1,143,86.21a7.15,7.15,0,0,1-2.44.38A9.59,9.59,0,0,1,138.2,86.3Z"/><path class="cls-2" d="M153,86a2.76,2.76,0,0,1-1,.46,5.18,5.18,0,0,1-1.26.15,3.76,3.76,0,0,1-2.65-.87,3.37,3.37,0,0,1-.93-2.57V79.21h-1.49V77.06h1.49V74.73h2.78v2.33h2.39v2.15H149.9v3.9a1.3,1.3,0,0,0,.31.94,1.15,1.15,0,0,0,.88.33,1.8,1.8,0,0,0,1.13-.36Z"/><path class="cls-2" d="M161.83,77.77A4,4,0,0,1,163,81v5.48h-2.61v-1.2a3.09,3.09,0,0,1-2.92,1.34,4.54,4.54,0,0,1-1.92-.37,2.91,2.91,0,0,1-1.24-1,2.74,2.74,0,0,1-.43-1.5,2.5,2.5,0,0,1,1-2.1,5.14,5.14,0,0,1,3.11-.77h2.22a1.77,1.77,0,0,0-.56-1.4,2.4,2.4,0,0,0-1.66-.49,4.8,4.8,0,0,0-1.5.24,3.94,3.94,0,0,0-1.26.65l-1-1.94a5.92,5.92,0,0,1,1.88-.86,8.55,8.55,0,0,1,2.26-.3A5,5,0,0,1,161.83,77.77Zm-2.37,6.62a1.86,1.86,0,0,0,.79-1v-1h-1.91c-1.14,0-1.72.38-1.72,1.13a1,1,0,0,0,.42.85,2,2,0,0,0,1.16.31A2.42,2.42,0,0,0,159.46,84.39Z"/><path class="cls-2" d="M169.55,77.06a5.18,5.18,0,0,1,1.95-.35v2.57c-.3,0-.51,0-.62,0a2.52,2.52,0,0,0-1.87.67,2.67,2.67,0,0,0-.68,2v4.53h-2.79v-9.6h2.66v1.27A3.16,3.16,0,0,1,169.55,77.06Z"/><path class="cls-2" d="M182.29,77.06a5.1,5.1,0,0,1,2-.35v2.57l-.62,0a2.52,2.52,0,0,0-1.87.67,2.67,2.67,0,0,0-.68,2v4.53h-2.79v-9.6h2.66v1.27A3,3,0,0,1,182.29,77.06Z"/><path class="cls-2" d="M195.16,82.43H187.9a2.23,2.23,0,0,0,.93,1.41,3,3,0,0,0,1.82.52,3.67,3.67,0,0,0,1.33-.22,3.42,3.42,0,0,0,1.08-.71L194.54,85a5,5,0,0,1-4,1.55A6.33,6.33,0,0,1,187.7,86a4.61,4.61,0,0,1-1.92-1.76,5.14,5.14,0,0,1,0-5.09,4.61,4.61,0,0,1,1.84-1.77,5.72,5.72,0,0,1,5.16,0,4.47,4.47,0,0,1,1.79,1.74,5.16,5.16,0,0,1,.65,2.63S195.2,82,195.16,82.43Zm-6.51-3.08a2.27,2.27,0,0,0-.79,1.46h4.73a2.24,2.24,0,0,0-.78-1.45,2.31,2.31,0,0,0-1.57-.55A2.39,2.39,0,0,0,188.65,79.35Z"/><path class="cls-2" d="M198,86.3a6.41,6.41,0,0,1-1.82-.74l.93-2a6.34,6.34,0,0,0,1.55.67,6.62,6.62,0,0,0,1.79.26c1.17,0,1.76-.3,1.76-.88a.62.62,0,0,0-.48-.59,6.82,6.82,0,0,0-1.48-.3,15.26,15.26,0,0,1-1.94-.41,3,3,0,0,1-1.33-.82,2.31,2.31,0,0,1-.56-1.68,2.63,2.63,0,0,1,.52-1.61,3.35,3.35,0,0,1,1.54-1.1,6.56,6.56,0,0,1,2.38-.39,9.19,9.19,0,0,1,2,.22,5.78,5.78,0,0,1,1.67.61l-.93,2a5.47,5.47,0,0,0-2.76-.72,2.9,2.9,0,0,0-1.34.25.74.74,0,0,0-.45.64.64.64,0,0,0,.48.63,9,9,0,0,0,1.54.34,16.29,16.29,0,0,1,1.93.42,2.92,2.92,0,0,1,1.3.81,2.29,2.29,0,0,1,.55,1.64,2.6,2.6,0,0,1-.53,1.59,3.52,3.52,0,0,1-1.56,1.08,7.15,7.15,0,0,1-2.44.38A9.61,9.61,0,0,1,198,86.3Z"/><path class="cls-2" d="M208.39,86a4.69,4.69,0,0,1-1.88-1.76,5.12,5.12,0,0,1,0-5.1,4.69,4.69,0,0,1,1.88-1.76,5.77,5.77,0,0,1,2.72-.63,5.7,5.7,0,0,1,2.71.63,4.69,4.69,0,0,1,1.88,1.76,5.12,5.12,0,0,1,0,5.1A4.69,4.69,0,0,1,213.82,86a5.7,5.7,0,0,1-2.71.63A5.77,5.77,0,0,1,208.39,86Zm4.48-2.38a2.67,2.67,0,0,0,.69-1.93,2.71,2.71,0,0,0-.69-1.94,2.51,2.51,0,0,0-3.52,0,2.67,2.67,0,0,0-.7,1.94,2.63,2.63,0,0,0,.7,1.93,2.49,2.49,0,0,0,3.52,0Z"/><path class="cls-2" d="M222.24,77.06a5.1,5.1,0,0,1,1.95-.35v2.57c-.31,0-.52,0-.63,0a2.54,2.54,0,0,0-1.87.67,2.71,2.71,0,0,0-.68,2v4.53h-2.78v-9.6h2.66v1.27A3,3,0,0,1,222.24,77.06Z"/><path class="cls-2" d="M232.38,86a2.76,2.76,0,0,1-1,.46,5.18,5.18,0,0,1-1.26.15,3.76,3.76,0,0,1-2.65-.87,3.37,3.37,0,0,1-.93-2.57V79.21H225V77.06h1.49V74.73h2.78v2.33h2.39v2.15h-2.39v3.9a1.3,1.3,0,0,0,.31.94,1.15,1.15,0,0,0,.88.33,1.8,1.8,0,0,0,1.13-.36Z"/><path class="cls-2" d="M245.19,86a2.76,2.76,0,0,1-1,.46,5.18,5.18,0,0,1-1.26.15,3.76,3.76,0,0,1-2.65-.87,3.37,3.37,0,0,1-.93-2.57V79.21h-1.49V77.06h1.49V74.73h2.78v2.33h2.39v2.15h-2.39v3.9a1.3,1.3,0,0,0,.31.94,1.15,1.15,0,0,0,.88.33,1.8,1.8,0,0,0,1.13-.36Z"/><path class="cls-2" d="M248.3,86a4.69,4.69,0,0,1-1.88-1.76,5.12,5.12,0,0,1,0-5.1,4.69,4.69,0,0,1,1.88-1.76,5.77,5.77,0,0,1,2.72-.63,5.7,5.7,0,0,1,2.71.63,4.76,4.76,0,0,1,1.88,1.76,5.19,5.19,0,0,1,0,5.1A4.76,4.76,0,0,1,253.73,86a5.7,5.7,0,0,1-2.71.63A5.77,5.77,0,0,1,248.3,86Zm4.48-2.38a2.66,2.66,0,0,0,.68-1.93,2.7,2.7,0,0,0-.68-1.94A2.34,2.34,0,0,0,251,79a2.37,2.37,0,0,0-1.77.72,2.71,2.71,0,0,0-.69,1.94,2.67,2.67,0,0,0,.69,1.93,2.35,2.35,0,0,0,1.77.73A2.31,2.31,0,0,0,252.78,83.58Z"/><path class="cls-2" d="M270.49,77.77a4.08,4.08,0,0,1,1.19,3.2v5.48h-2.6v-1.2a3.12,3.12,0,0,1-2.93,1.34,4.54,4.54,0,0,1-1.92-.37,2.91,2.91,0,0,1-1.24-1,2.74,2.74,0,0,1-.43-1.5,2.5,2.5,0,0,1,1-2.1,5.14,5.14,0,0,1,3.11-.77h2.22a1.77,1.77,0,0,0-.56-1.4,2.4,2.4,0,0,0-1.66-.49,4.8,4.8,0,0,0-1.5.24,3.94,3.94,0,0,0-1.26.65l-1-1.94A5.92,5.92,0,0,1,264.8,77a8.55,8.55,0,0,1,2.26-.3A5,5,0,0,1,270.49,77.77Zm-2.38,6.62a1.86,1.86,0,0,0,.79-1v-1H267c-1.14,0-1.71.38-1.71,1.13a1,1,0,0,0,.41.85,2,2,0,0,0,1.16.31A2.42,2.42,0,0,0,268.11,84.39Z"/><path class="cls-2" d="M286.84,79.7a3.53,3.53,0,0,1,1.25,2.82,3.82,3.82,0,0,1-2.31,3.58,6.69,6.69,0,0,1-2.88.56,9.46,9.46,0,0,1-2.59-.35,6.58,6.58,0,0,1-2.17-1l1.14-2.21a5.28,5.28,0,0,0,1.64.83,6.2,6.2,0,0,0,1.91.3,3,3,0,0,0,1.71-.43,1.38,1.38,0,0,0,.63-1.2,1.35,1.35,0,0,0-.65-1.21,4.45,4.45,0,0,0-2.26-.41h-3.19l.64-7h7.62v2.32h-5.21l-.2,2.37h1A6,6,0,0,1,286.84,79.7Z"/><path class="cls-2" d="M11.2,94.62v13.24H8.55v-1.11a3.68,3.68,0,0,1-3,1.25,4.89,4.89,0,0,1-2.45-.61,4.3,4.3,0,0,1-1.73-1.73,5.78,5.78,0,0,1,0-5.21A4.43,4.43,0,0,1,3.1,98.72a5,5,0,0,1,2.45-.6,3.63,3.63,0,0,1,2.87,1.16V94.62ZM7.78,105a3.06,3.06,0,0,0,0-3.87A2.35,2.35,0,0,0,6,100.4a2.37,2.37,0,0,0-1.77.72,3.06,3.06,0,0,0,0,3.87,2.35,2.35,0,0,0,1.77.73A2.32,2.32,0,0,0,7.78,105Z"/><path class="cls-2" d="M21.07,99.18a4,4,0,0,1,1.2,3.2v5.48H19.66v-1.2A3.11,3.11,0,0,1,16.73,108a4.52,4.52,0,0,1-1.91-.37,2.85,2.85,0,0,1-1.24-1,2.66,2.66,0,0,1-.43-1.5,2.47,2.47,0,0,1,1-2.1,5.14,5.14,0,0,1,3.11-.77h2.21a1.77,1.77,0,0,0-.55-1.4,2.42,2.42,0,0,0-1.66-.49,4.91,4.91,0,0,0-1.51.24,4.16,4.16,0,0,0-1.26.65l-1-1.94a6.08,6.08,0,0,1,1.89-.86,8.48,8.48,0,0,1,2.25-.3A5,5,0,0,1,21.07,99.18ZM18.7,105.8a1.78,1.78,0,0,0,.78-1v-1H17.57c-1.14,0-1.71.38-1.71,1.13a1,1,0,0,0,.42.84,1.87,1.87,0,0,0,1.15.32A2.43,2.43,0,0,0,18.7,105.8Z"/><path class="cls-2" d="M34.13,98.26l-4.34,10.19a5,5,0,0,1-1.63,2.33,3.94,3.94,0,0,1-2.34.68,5.09,5.09,0,0,1-1.49-.23,3.29,3.29,0,0,1-1.19-.64l1-2a2.48,2.48,0,0,0,1.57.6,1.46,1.46,0,0,0,.92-.27,2.36,2.36,0,0,0,.65-.92l0-.09-4.16-9.67h2.88l2.69,6.51,2.71-6.51Z"/><path class="cls-2" d="M47.62,99.18a4.08,4.08,0,0,1,1.19,3.2v5.48h-2.6v-1.2A3.12,3.12,0,0,1,43.28,108a4.54,4.54,0,0,1-1.92-.37,2.91,2.91,0,0,1-1.24-1,2.73,2.73,0,0,1-.42-1.5,2.49,2.49,0,0,1,1-2.1,5.17,5.17,0,0,1,3.12-.77H46a1.8,1.8,0,0,0-.55-1.4,2.44,2.44,0,0,0-1.66-.49,4.82,4.82,0,0,0-1.51.24,4.16,4.16,0,0,0-1.26.65l-1-1.94a6,6,0,0,1,1.88-.86,8.61,8.61,0,0,1,2.26-.3A5,5,0,0,1,47.62,99.18Zm-2.38,6.62a1.84,1.84,0,0,0,.79-1v-1H44.12c-1.14,0-1.71.38-1.71,1.13a1,1,0,0,0,.42.84,1.87,1.87,0,0,0,1.15.32A2.39,2.39,0,0,0,45.24,105.8Z"/><path class="cls-2" d="M71.79,98.26l-3.48,9.6H65.64l-2.16-6-2.23,6H58.57l-3.46-9.6h2.62L60,104.75l2.35-6.49h2.36L67,104.75l2.34-6.49Z"/><path class="cls-2" d="M82.17,103.84H74.91a2.23,2.23,0,0,0,.93,1.41,3,3,0,0,0,1.82.52,3.67,3.67,0,0,0,1.33-.22,3.21,3.21,0,0,0,1.08-.71l1.48,1.61a5,5,0,0,1-4,1.55,6.28,6.28,0,0,1-2.87-.63,4.58,4.58,0,0,1-1.93-1.76,5.14,5.14,0,0,1,0-5.09,4.67,4.67,0,0,1,1.84-1.77,5.72,5.72,0,0,1,5.16,0,4.56,4.56,0,0,1,1.8,1.74,5.26,5.26,0,0,1,.65,2.63S82.21,103.38,82.17,103.84Zm-6.51-3.08a2.22,2.22,0,0,0-.78,1.46h4.73a2.31,2.31,0,0,0-2.36-2A2.39,2.39,0,0,0,75.66,100.76Z"/><path class="cls-2" d="M93.43,103.84H86.17a2.23,2.23,0,0,0,.93,1.41,3,3,0,0,0,1.82.52,3.67,3.67,0,0,0,1.33-.22,3.42,3.42,0,0,0,1.08-.71l1.48,1.61a5,5,0,0,1-4,1.55,6.33,6.33,0,0,1-2.88-.63,4.61,4.61,0,0,1-1.92-1.76,5.14,5.14,0,0,1,0-5.09,4.61,4.61,0,0,1,1.84-1.77,5.72,5.72,0,0,1,5.16,0,4.47,4.47,0,0,1,1.79,1.74,5.16,5.16,0,0,1,.66,2.63S93.47,103.38,93.43,103.84Zm-6.51-3.08a2.27,2.27,0,0,0-.79,1.46h4.73a2.24,2.24,0,0,0-.78-1.45,2.31,2.31,0,0,0-1.57-.55A2.39,2.39,0,0,0,86.92,100.76Z"/><path class="cls-2" d="M99.46,104.09l-1.34,1.32v2.45H95.34V94.62h2.78v7.49l4.07-3.85h3.32l-4,4.07,4.36,5.53H102.5Z"/><path class="cls-2" d="M120.27,98.73a4.43,4.43,0,0,1,1.73,1.73,5.32,5.32,0,0,1,.62,2.6,5.25,5.25,0,0,1-.62,2.59,4.36,4.36,0,0,1-1.73,1.73,4.88,4.88,0,0,1-2.43.62,3.71,3.71,0,0,1-2.89-1.16v4.48h-2.78V98.26h2.65v1.11a3.68,3.68,0,0,1,3-1.25A4.87,4.87,0,0,1,120.27,98.73ZM119.11,105a3.06,3.06,0,0,0,0-3.87,2.5,2.5,0,0,0-3.51,0,3.06,3.06,0,0,0,0,3.87,2.47,2.47,0,0,0,3.51,0Z"/><path class="cls-2" d="M128.48,98.47a5.18,5.18,0,0,1,2-.35v2.57c-.3,0-.51,0-.62,0a2.52,2.52,0,0,0-1.87.67,2.71,2.71,0,0,0-.68,2v4.53h-2.78v-9.6h2.65v1.27A3.16,3.16,0,0,1,128.48,98.47Z"/><path class="cls-2" d="M132.24,96.47a1.43,1.43,0,0,1-.49-1.1,1.47,1.47,0,0,1,.49-1.11,2,2,0,0,1,2.49,0,1.34,1.34,0,0,1,.49,1.07,1.51,1.51,0,0,1-.49,1.15,1.95,1.95,0,0,1-2.49,0Zm-.15,1.79h2.79v9.6h-2.79Z"/><path class="cls-2" d="M138.36,107.71a6.29,6.29,0,0,1-1.82-.74l.92-2a6.26,6.26,0,0,0,1.56.67,6.55,6.55,0,0,0,1.78.26c1.18,0,1.77-.3,1.77-.88a.62.62,0,0,0-.49-.59,6.82,6.82,0,0,0-1.48-.3,15.26,15.26,0,0,1-1.94-.41,3.13,3.13,0,0,1-1.33-.82,2.35,2.35,0,0,1-.56-1.68,2.61,2.61,0,0,1,.52-1.61,3.46,3.46,0,0,1,1.54-1.1,6.56,6.56,0,0,1,2.38-.39,9.35,9.35,0,0,1,2,.22,5.43,5.43,0,0,1,1.66.62l-.92,2a5.53,5.53,0,0,0-2.77-.72,2.8,2.8,0,0,0-1.34.25.74.74,0,0,0-.44.64.64.64,0,0,0,.48.63,8.62,8.62,0,0,0,1.53.34,15.85,15.85,0,0,1,1.93.42,2.92,2.92,0,0,1,1.3.81,2.3,2.3,0,0,1,.56,1.64,2.55,2.55,0,0,1-.54,1.59,3.52,3.52,0,0,1-1.56,1.08,7.15,7.15,0,0,1-2.44.38A9.59,9.59,0,0,1,138.36,107.71Z"/><path class="cls-2" d="M148.78,107.37a4.69,4.69,0,0,1-1.88-1.76,5.12,5.12,0,0,1,0-5.1,4.69,4.69,0,0,1,1.88-1.76,6.19,6.19,0,0,1,5.44,0,4.73,4.73,0,0,1,1.87,1.76,5.12,5.12,0,0,1,0,5.1,4.73,4.73,0,0,1-1.87,1.76,6.19,6.19,0,0,1-5.44,0Zm4.48-2.38a3.06,3.06,0,0,0,0-3.87,2.51,2.51,0,0,0-3.52,0,3,3,0,0,0,0,3.87,2.49,2.49,0,0,0,3.52,0Z"/><path class="cls-2" d="M167.34,99.19a4.24,4.24,0,0,1,1.1,3.17v5.5h-2.79v-5.07a2.45,2.45,0,0,0-.5-1.7,1.8,1.8,0,0,0-1.44-.56,2.21,2.21,0,0,0-1.68.65,2.67,2.67,0,0,0-.62,1.93v4.75h-2.79v-9.6h2.66v1.12a3.74,3.74,0,0,1,1.38-.93,4.73,4.73,0,0,1,1.8-.33A3.92,3.92,0,0,1,167.34,99.19Z"/><path class="cls-2" d="M177.88,107.37a4.78,4.78,0,0,1-1.91-1.76,5.12,5.12,0,0,1,0-5.1,4.78,4.78,0,0,1,1.91-1.76,6,6,0,0,1,2.76-.63,5.38,5.38,0,0,1,2.65.63,3.82,3.82,0,0,1,1.65,1.81l-2.16,1.16a2.36,2.36,0,0,0-2.16-1.32,2.46,2.46,0,0,0-1.8.71,2.63,2.63,0,0,0-.71,2,2.59,2.59,0,0,0,.71,1.94,2.43,2.43,0,0,0,1.8.72,2.34,2.34,0,0,0,2.16-1.32l2.16,1.17a3.86,3.86,0,0,1-1.65,1.79,5.28,5.28,0,0,1-2.65.64A6,6,0,0,1,177.88,107.37Z"/><path class="cls-2" d="M193.84,99.18a4,4,0,0,1,1.2,3.2v5.48h-2.61v-1.2a3.1,3.1,0,0,1-2.92,1.34,4.54,4.54,0,0,1-1.92-.37,2.85,2.85,0,0,1-1.24-1,2.66,2.66,0,0,1-.43-1.5,2.5,2.5,0,0,1,1-2.1,5.14,5.14,0,0,1,3.11-.77h2.21a1.77,1.77,0,0,0-.55-1.4,2.42,2.42,0,0,0-1.66-.49,4.91,4.91,0,0,0-1.51.24,4,4,0,0,0-1.25.65l-1-1.94a5.92,5.92,0,0,1,1.88-.86,8.5,8.5,0,0,1,2.26-.3A5,5,0,0,1,193.84,99.18Zm-2.37,6.62a1.78,1.78,0,0,0,.78-1v-1h-1.91c-1.14,0-1.71.38-1.71,1.13a1,1,0,0,0,.42.84,1.87,1.87,0,0,0,1.15.32A2.43,2.43,0,0,0,191.47,105.8Z"/><path class="cls-2" d="M197.55,94.62h2.78v13.24h-2.78Z"/><path class="cls-2" d="M202.92,94.62h2.79v13.24h-2.79Z"/><path class="cls-2" d="M217.64,103.84h-7.26a2.23,2.23,0,0,0,.93,1.41,3,3,0,0,0,1.82.52,3.67,3.67,0,0,0,1.33-.22,3.42,3.42,0,0,0,1.08-.71l1.48,1.61a5,5,0,0,1-4,1.55,6.33,6.33,0,0,1-2.88-.63,4.61,4.61,0,0,1-1.92-1.76,4.77,4.77,0,0,1-.68-2.55,4.85,4.85,0,0,1,.67-2.54,4.65,4.65,0,0,1,1.83-1.77,5.46,5.46,0,0,1,2.62-.63,5.39,5.39,0,0,1,2.55.6,4.47,4.47,0,0,1,1.79,1.74,5.16,5.16,0,0,1,.65,2.63S217.68,103.38,217.64,103.84Zm-6.51-3.08a2.27,2.27,0,0,0-.79,1.46h4.73a2.28,2.28,0,0,0-.78-1.45,2.33,2.33,0,0,0-1.57-.55A2.39,2.39,0,0,0,211.13,100.76Z"/><path class="cls-2" d="M229.33,94.62v13.24h-2.66v-1.11a3.68,3.68,0,0,1-3,1.25,4.92,4.92,0,0,1-2.45-.61,4.28,4.28,0,0,1-1.72-1.73,5.7,5.7,0,0,1,0-5.21,4.4,4.4,0,0,1,1.72-1.73,5,5,0,0,1,2.45-.6,3.62,3.62,0,0,1,2.87,1.16V94.62ZM225.9,105a3,3,0,0,0,0-3.87,2.5,2.5,0,0,0-3.51,0,3,3,0,0,0,0,3.87,2.47,2.47,0,0,0,3.51,0Z"/><path class="cls-2" d="M239.46,98a1.71,1.71,0,0,1,.25.93,1.74,1.74,0,0,1-3,1.23,1.63,1.63,0,0,1-.49-1.23,2.94,2.94,0,0,1,.09-.71,8,8,0,0,1,.39-1.07l1-2.57h1.77l-.79,2.84A1.54,1.54,0,0,1,239.46,98Zm4.21,0a1.71,1.71,0,0,1,.25.93A1.74,1.74,0,0,1,241,100.2a1.63,1.63,0,0,1-.49-1.23,2.94,2.94,0,0,1,.09-.71,8,8,0,0,1,.39-1.07l1-2.57h1.77L243,97.46A1.54,1.54,0,0,1,243.67,98Z"/><path class="cls-2" d="M246.72,107.71a6.41,6.41,0,0,1-1.82-.74l.93-2a6.34,6.34,0,0,0,1.55.67,6.62,6.62,0,0,0,1.79.26c1.17,0,1.76-.3,1.76-.88a.62.62,0,0,0-.48-.59,6.82,6.82,0,0,0-1.48-.3,15.46,15.46,0,0,1-1.95-.41,3,3,0,0,1-1.32-.82,2.31,2.31,0,0,1-.57-1.68,2.62,2.62,0,0,1,.53-1.61,3.37,3.37,0,0,1,1.53-1.1,6.65,6.65,0,0,1,2.39-.39,9.26,9.26,0,0,1,2,.22,5.5,5.5,0,0,1,1.67.62l-.93,2a5.47,5.47,0,0,0-2.76-.72,2.77,2.77,0,0,0-1.34.25.74.74,0,0,0-.45.64.64.64,0,0,0,.48.63,8.78,8.78,0,0,0,1.54.34,16.29,16.29,0,0,1,1.93.42,3,3,0,0,1,1.3.81,2.29,2.29,0,0,1,.55,1.64,2.6,2.6,0,0,1-.53,1.59,3.49,3.49,0,0,1-1.57,1.08,7,7,0,0,1-2.43.38A9.61,9.61,0,0,1,246.72,107.71Z"/><path class="cls-2" d="M257.19,107.37a4.65,4.65,0,0,1-1.91-1.76,5.06,5.06,0,0,1,0-5.1,4.65,4.65,0,0,1,1.91-1.76,5.9,5.9,0,0,1,2.75-.63,5.35,5.35,0,0,1,2.65.63,3.72,3.72,0,0,1,1.65,1.81l-2.16,1.16a2.36,2.36,0,0,0-2.16-1.32,2.47,2.47,0,0,0-1.8.71,2.67,2.67,0,0,0-.71,2,2.63,2.63,0,0,0,.71,1.94,2.44,2.44,0,0,0,1.8.72,2.33,2.33,0,0,0,2.16-1.32l2.16,1.17a3.76,3.76,0,0,1-1.65,1.79,5.25,5.25,0,0,1-2.65.64A5.9,5.9,0,0,1,257.19,107.37Z"/><path class="cls-2" d="M274.49,99.19a4.24,4.24,0,0,1,1.1,3.17v5.5h-2.78v-5.07a2.5,2.5,0,0,0-.5-1.7,1.83,1.83,0,0,0-1.45-.56,2.21,2.21,0,0,0-1.68.65,2.71,2.71,0,0,0-.62,1.93v4.75h-2.78V94.62h2.78v4.64a3.7,3.7,0,0,1,1.34-.85,4.72,4.72,0,0,1,1.71-.29A3.92,3.92,0,0,1,274.49,99.19Z"/><path class="cls-2" d="M280.06,107.37a4.63,4.63,0,0,1-1.88-1.76,5.12,5.12,0,0,1,0-5.1,4.63,4.63,0,0,1,1.88-1.76,6.17,6.17,0,0,1,5.43,0,4.67,4.67,0,0,1,1.87,1.76,5.12,5.12,0,0,1,0,5.1,4.67,4.67,0,0,1-1.87,1.76,6.17,6.17,0,0,1-5.43,0Zm4.48-2.38a3.09,3.09,0,0,0,0-3.87,2.34,2.34,0,0,0-1.76-.72,2.37,2.37,0,0,0-1.77.72,3.06,3.06,0,0,0,0,3.87,2.35,2.35,0,0,0,1.77.73A2.31,2.31,0,0,0,284.54,105Z"/><path class="cls-2" d="M291.74,107.37a4.69,4.69,0,0,1-1.88-1.76,5.12,5.12,0,0,1,0-5.1,4.69,4.69,0,0,1,1.88-1.76,6.19,6.19,0,0,1,5.44,0,4.73,4.73,0,0,1,1.87,1.76,5.12,5.12,0,0,1,0,5.1,4.73,4.73,0,0,1-1.87,1.76,6.19,6.19,0,0,1-5.44,0Zm4.48-2.38a3.06,3.06,0,0,0,0-3.87,2.51,2.51,0,0,0-3.52,0,3,3,0,0,0,0,3.87,2.49,2.49,0,0,0,3.52,0Z"/><path class="cls-2" d="M301.58,94.62h2.79v13.24h-2.79Z"/><path class="cls-2" d="M309.25,95a1.64,1.64,0,0,1,.49,1.24,2.82,2.82,0,0,1-.09.71,9.17,9.17,0,0,1-.38,1.07l-1,2.57h-1.77l.77-2.82a1.5,1.5,0,0,1-.7-.59,1.75,1.75,0,0,1-.25-.94,1.68,1.68,0,0,1,.49-1.24,1.7,1.7,0,0,1,1.24-.47A1.66,1.66,0,0,1,309.25,95Zm4.21,0a1.64,1.64,0,0,1,.49,1.24,2.82,2.82,0,0,1-.09.71,9.17,9.17,0,0,1-.38,1.07l-1,2.57h-1.77l.77-2.82a1.5,1.5,0,0,1-.7-.59,1.75,1.75,0,0,1-.25-.94A1.68,1.68,0,0,1,311,95a1.7,1.7,0,0,1,1.24-.47A1.66,1.66,0,0,1,313.46,95Z"/><path class="cls-2" d="M315.28,107.5a1.7,1.7,0,0,1-.5-1.25,1.65,1.65,0,0,1,.5-1.24,1.86,1.86,0,0,1,2.47,0,1.65,1.65,0,0,1,.5,1.24,1.75,1.75,0,0,1-3,1.25Z"/><path class="cls-2" d="M4.21,119.13h-4v-2.35H11.1v2.35h-4v10.14H4.21Z"/><path class="cls-2" d="M21.17,120.6a4.24,4.24,0,0,1,1.1,3.17v5.5H19.48V124.2a2.45,2.45,0,0,0-.5-1.7,1.8,1.8,0,0,0-1.44-.56,2.19,2.19,0,0,0-1.68.65,2.67,2.67,0,0,0-.62,1.93v4.75H12.45V116h2.79v4.64a3.66,3.66,0,0,1,1.33-.85,4.82,4.82,0,0,1,1.72-.29A3.92,3.92,0,0,1,21.17,120.6Z"/><path class="cls-2" d="M24.92,117.88a1.43,1.43,0,0,1-.48-1.1,1.46,1.46,0,0,1,.48-1.11,1.8,1.8,0,0,1,1.25-.44,1.84,1.84,0,0,1,1.25.42,1.39,1.39,0,0,1,.48,1.07,1.54,1.54,0,0,1-.48,1.16,2,2,0,0,1-2.5,0Zm-.14,1.79h2.78v9.6H24.78Z"/><path class="cls-2" d="M31,129.12a6.41,6.41,0,0,1-1.82-.74l.93-2a6.34,6.34,0,0,0,1.55.67,6.6,6.6,0,0,0,1.79.25c1.18,0,1.76-.29,1.76-.87a.62.62,0,0,0-.48-.59,6.82,6.82,0,0,0-1.48-.3,15.26,15.26,0,0,1-1.94-.41,3,3,0,0,1-1.33-.82,2.31,2.31,0,0,1-.56-1.68A2.61,2.61,0,0,1,30,121a3.35,3.35,0,0,1,1.54-1.1,6.56,6.56,0,0,1,2.38-.39,9.19,9.19,0,0,1,2,.22,5.5,5.5,0,0,1,1.67.62l-.93,2a5.47,5.47,0,0,0-2.76-.72,2.77,2.77,0,0,0-1.34.25.74.74,0,0,0-.45.64.64.64,0,0,0,.48.63,9,9,0,0,0,1.54.34,16.29,16.29,0,0,1,1.93.42,2.84,2.84,0,0,1,1.3.81,2.29,2.29,0,0,1,.55,1.64,2.58,2.58,0,0,1-.53,1.59A3.52,3.52,0,0,1,35.82,129a7.15,7.15,0,0,1-2.44.38A9.61,9.61,0,0,1,31,129.12Z"/><path class="cls-2" d="M50.86,128.8a2.71,2.71,0,0,1-1,.46,5.18,5.18,0,0,1-1.26.15,3.75,3.75,0,0,1-2.65-.87A3.34,3.34,0,0,1,45,126v-4H43.53v-2.14H45v-2.33H47.8v2.33h2.39V122H47.8v3.91a1.3,1.3,0,0,0,.31.94,1.15,1.15,0,0,0,.88.33,1.8,1.8,0,0,0,1.13-.36Z"/><path class="cls-2" d="M54,128.78A4.72,4.72,0,0,1,52.09,127a5.19,5.19,0,0,1,0-5.1A4.72,4.72,0,0,1,54,120.16a6.17,6.17,0,0,1,5.43,0,4.67,4.67,0,0,1,1.87,1.76,5.12,5.12,0,0,1,0,5.1,4.67,4.67,0,0,1-1.87,1.76,6.17,6.17,0,0,1-5.43,0Zm4.48-2.38a3.09,3.09,0,0,0,0-3.87,2.52,2.52,0,0,0-3.53,0,3.06,3.06,0,0,0,0,3.87,2.5,2.5,0,0,0,3.53,0Z"/><path class="cls-2" d="M65.66,128.78A4.69,4.69,0,0,1,63.78,127a5.12,5.12,0,0,1,0-5.1,4.69,4.69,0,0,1,1.88-1.76,5.77,5.77,0,0,1,2.72-.63,5.7,5.7,0,0,1,2.71.63A4.69,4.69,0,0,1,73,121.92a5.12,5.12,0,0,1,0,5.1,4.69,4.69,0,0,1-1.88,1.76,5.7,5.7,0,0,1-2.71.63A5.77,5.77,0,0,1,65.66,128.78Zm4.48-2.38a3.06,3.06,0,0,0,0-3.87,2.51,2.51,0,0,0-3.52,0,3,3,0,0,0,0,3.87,2.49,2.49,0,0,0,3.52,0Z"/><path class="cls-2" d="M79.62,125.5l-1.34,1.32v2.45H75.5V116h2.78v7.49l4.07-3.85h3.32l-4,4.07L86,129.27H82.66Z"/><path class="cls-2" d="M99.62,120.59a4,4,0,0,1,1.2,3.2v5.48H98.21v-1.2a3.1,3.1,0,0,1-2.92,1.34,4.54,4.54,0,0,1-1.92-.37,2.91,2.91,0,0,1-1.24-1,2.66,2.66,0,0,1-.43-1.5,2.5,2.5,0,0,1,1-2.1,5.14,5.14,0,0,1,3.11-.77H98a1.77,1.77,0,0,0-.56-1.4,2.42,2.42,0,0,0-1.66-.49,4.91,4.91,0,0,0-1.51.24,4,4,0,0,0-1.25.65l-1-1.94a5.92,5.92,0,0,1,1.88-.86,8.5,8.5,0,0,1,2.26-.3A5,5,0,0,1,99.62,120.59Zm-2.37,6.62a1.84,1.84,0,0,0,.79-1v-1H96.13c-1.15,0-1.72.38-1.72,1.13a1,1,0,0,0,.42.84,1.89,1.89,0,0,0,1.15.32A2.43,2.43,0,0,0,97.25,127.21Z"/><path class="cls-2" d="M116.49,120.14a4.4,4.4,0,0,1,1.72,1.73,5.21,5.21,0,0,1,.63,2.6,5.15,5.15,0,0,1-.63,2.59,4.34,4.34,0,0,1-1.72,1.73,4.78,4.78,0,0,1-2.43.62,3.71,3.71,0,0,1-3-1.25v1.11h-2.66V116h2.79v4.66a3.67,3.67,0,0,1,2.89-1.16A4.87,4.87,0,0,1,116.49,120.14Zm-1.16,6.26a3.06,3.06,0,0,0,0-3.87,2.5,2.5,0,0,0-3.51,0,3.06,3.06,0,0,0,0,3.87,2.47,2.47,0,0,0,3.51,0Z"/><path class="cls-2" d="M127.83,120.59a4,4,0,0,1,1.2,3.2v5.48h-2.61v-1.2a3.11,3.11,0,0,1-2.93,1.34,4.52,4.52,0,0,1-1.91-.37,2.85,2.85,0,0,1-1.24-1,2.66,2.66,0,0,1-.43-1.5,2.47,2.47,0,0,1,1-2.1,5.14,5.14,0,0,1,3.11-.77h2.21a1.77,1.77,0,0,0-.55-1.4,2.42,2.42,0,0,0-1.66-.49,4.91,4.91,0,0,0-1.51.24,4.16,4.16,0,0,0-1.26.65l-1-1.94a6.08,6.08,0,0,1,1.89-.86,8.48,8.48,0,0,1,2.25-.3A5,5,0,0,1,127.83,120.59Zm-2.37,6.62a1.78,1.78,0,0,0,.78-1v-1h-1.91c-1.14,0-1.71.38-1.71,1.13a1,1,0,0,0,.42.84,1.87,1.87,0,0,0,1.15.32A2.43,2.43,0,0,0,125.46,127.21Z"/><path class="cls-2" d="M133.53,128.78a4.71,4.71,0,0,1-1.91-1.76,5.06,5.06,0,0,1,0-5.1,4.71,4.71,0,0,1,1.91-1.76,5.91,5.91,0,0,1,2.76-.63,5.38,5.38,0,0,1,2.65.63,3.82,3.82,0,0,1,1.65,1.81l-2.16,1.16a2.36,2.36,0,0,0-2.16-1.32,2.44,2.44,0,0,0-1.8.71,2.63,2.63,0,0,0-.72,2,2.6,2.6,0,0,0,.72,1.94,2.41,2.41,0,0,0,1.8.72,2.34,2.34,0,0,0,2.16-1.32l2.16,1.17a3.86,3.86,0,0,1-1.65,1.79,5.28,5.28,0,0,1-2.65.64A5.91,5.91,0,0,1,133.53,128.78Z"/><path class="cls-2" d="M146.24,125.5l-1.34,1.32v2.45h-2.78V116h2.78v7.49l4.07-3.85h3.32l-4,4.07,4.36,5.53h-3.38Z"/><path class="cls-2" d="M159.84,129.12a6.41,6.41,0,0,1-1.82-.74l.92-2a6.26,6.26,0,0,0,1.56.67,6.53,6.53,0,0,0,1.78.25q1.77,0,1.77-.87a.62.62,0,0,0-.48-.59,7.08,7.08,0,0,0-1.49-.3,15.26,15.26,0,0,1-1.94-.41,3.13,3.13,0,0,1-1.33-.82,2.35,2.35,0,0,1-.56-1.68,2.55,2.55,0,0,1,.53-1.61,3.37,3.37,0,0,1,1.53-1.1,6.6,6.6,0,0,1,2.38-.39,9.35,9.35,0,0,1,2,.22,5.43,5.43,0,0,1,1.66.62l-.92,2a5.53,5.53,0,0,0-2.77-.72,2.8,2.8,0,0,0-1.34.25.74.74,0,0,0-.44.64.64.64,0,0,0,.48.63,8.62,8.62,0,0,0,1.53.34,15.85,15.85,0,0,1,1.93.42,2.84,2.84,0,0,1,1.3.81,2.3,2.3,0,0,1,.56,1.64,2.53,2.53,0,0,1-.54,1.59,3.52,3.52,0,0,1-1.56,1.08,7.15,7.15,0,0,1-2.44.38A9.59,9.59,0,0,1,159.84,129.12Z"/><path class="cls-2" d="M177.77,125.25h-7.26a2.25,2.25,0,0,0,.92,1.41,3.06,3.06,0,0,0,1.82.52,3.64,3.64,0,0,0,1.33-.22,3.21,3.21,0,0,0,1.08-.71l1.48,1.61a5,5,0,0,1-4,1.55,6.28,6.28,0,0,1-2.87-.63,4.64,4.64,0,0,1-1.93-1.76,4.86,4.86,0,0,1-.67-2.55,4.93,4.93,0,0,1,.66-2.54,4.67,4.67,0,0,1,1.84-1.77,5.74,5.74,0,0,1,5.17,0,4.47,4.47,0,0,1,1.79,1.74,5.23,5.23,0,0,1,.65,2.63S177.8,124.79,177.77,125.25Zm-6.52-3.08a2.3,2.3,0,0,0-.78,1.46h4.73a2.31,2.31,0,0,0-2.36-2A2.39,2.39,0,0,0,171.25,122.17Z"/><path class="cls-2" d="M186.71,120.59a4.06,4.06,0,0,1,1.19,3.2v5.48h-2.6v-1.2a3.12,3.12,0,0,1-2.93,1.34,4.54,4.54,0,0,1-1.92-.37,2.91,2.91,0,0,1-1.24-1,2.74,2.74,0,0,1-.43-1.5,2.5,2.5,0,0,1,1-2.1,5.15,5.15,0,0,1,3.12-.77h2.21a1.77,1.77,0,0,0-.56-1.4,2.39,2.39,0,0,0-1.65-.49,4.82,4.82,0,0,0-1.51.24,4,4,0,0,0-1.26.65l-1-1.94a5.92,5.92,0,0,1,1.88-.86,8.55,8.55,0,0,1,2.26-.3A5,5,0,0,1,186.71,120.59Zm-2.38,6.62a1.84,1.84,0,0,0,.79-1v-1h-1.91c-1.14,0-1.71.38-1.71,1.13a1,1,0,0,0,.42.84,1.85,1.85,0,0,0,1.15.32A2.42,2.42,0,0,0,184.33,127.21Z"/><path class="cls-2" d="M196.61,128.8a2.76,2.76,0,0,1-1,.46,5.18,5.18,0,0,1-1.26.15,3.76,3.76,0,0,1-2.65-.87,3.37,3.37,0,0,1-.93-2.57v-4h-1.49v-2.14h1.49v-2.33h2.78v2.33h2.39V122h-2.39v3.91a1.3,1.3,0,0,0,.31.94,1.15,1.15,0,0,0,.88.33,1.8,1.8,0,0,0,1.13-.36Z"/><path class="cls-2" d="M209.42,128.8a2.76,2.76,0,0,1-1,.46,5.18,5.18,0,0,1-1.26.15,3.76,3.76,0,0,1-2.65-.87,3.37,3.37,0,0,1-.93-2.57v-4h-1.49v-2.14h1.49v-2.33h2.78v2.33h2.39V122h-2.39v3.91a1.3,1.3,0,0,0,.31.94,1.15,1.15,0,0,0,.88.33,1.8,1.8,0,0,0,1.13-.36Z"/><path class="cls-2" d="M212.53,128.78a4.69,4.69,0,0,1-1.88-1.76,5.12,5.12,0,0,1,0-5.1,4.69,4.69,0,0,1,1.88-1.76,5.77,5.77,0,0,1,2.72-.63,5.7,5.7,0,0,1,2.71.63,4.76,4.76,0,0,1,1.88,1.76,5.19,5.19,0,0,1,0,5.1,4.76,4.76,0,0,1-1.88,1.76,5.7,5.7,0,0,1-2.71.63A5.77,5.77,0,0,1,212.53,128.78ZM217,126.4a3.09,3.09,0,0,0,0-3.87,2.34,2.34,0,0,0-1.76-.72,2.37,2.37,0,0,0-1.77.72,3.06,3.06,0,0,0,0,3.87,2.35,2.35,0,0,0,1.77.73A2.31,2.31,0,0,0,217,126.4Z"/><path class="cls-2" d="M228.31,129.12a6.41,6.41,0,0,1-1.82-.74l.93-2a6.18,6.18,0,0,0,1.55.67,6.59,6.59,0,0,0,1.78.25q1.77,0,1.77-.87a.62.62,0,0,0-.48-.59,7,7,0,0,0-1.48-.3,15.08,15.08,0,0,1-1.95-.41,3.13,3.13,0,0,1-1.33-.82,2.35,2.35,0,0,1-.56-1.68,2.62,2.62,0,0,1,.53-1.61,3.37,3.37,0,0,1,1.53-1.1,6.6,6.6,0,0,1,2.38-.39,9.28,9.28,0,0,1,2,.22,5.5,5.5,0,0,1,1.67.62l-.93,2a5.53,5.53,0,0,0-2.77-.72,2.73,2.73,0,0,0-1.33.25.74.74,0,0,0-.45.64.64.64,0,0,0,.48.63,8.57,8.57,0,0,0,1.54.34,16.07,16.07,0,0,1,1.92.42,2.79,2.79,0,0,1,1.3.81,2.3,2.3,0,0,1,.56,1.64,2.53,2.53,0,0,1-.54,1.59,3.41,3.41,0,0,1-1.56,1.08,7,7,0,0,1-2.43.38A9.61,9.61,0,0,1,228.31,129.12Z"/><path class="cls-2" d="M245,120.14a4.47,4.47,0,0,1,1.72,1.73,5.21,5.21,0,0,1,.63,2.6,5.15,5.15,0,0,1-.63,2.59,4.4,4.4,0,0,1-1.72,1.73,4.79,4.79,0,0,1-2.44.62,3.74,3.74,0,0,1-2.89-1.16v4.48h-2.78V119.67h2.66v1.11a3.66,3.66,0,0,1,3-1.25A4.88,4.88,0,0,1,245,120.14Zm-1.16,6.26a3.06,3.06,0,0,0,0-3.87,2.5,2.5,0,0,0-3.51,0,3.06,3.06,0,0,0,0,3.87,2.47,2.47,0,0,0,3.51,0Z"/><path class="cls-2" d="M251.05,128.78a4.69,4.69,0,0,1-1.88-1.76,5.12,5.12,0,0,1,0-5.1,4.69,4.69,0,0,1,1.88-1.76,6.17,6.17,0,0,1,5.43,0,4.67,4.67,0,0,1,1.87,1.76,5.12,5.12,0,0,1,0,5.1,4.67,4.67,0,0,1-1.87,1.76,6.17,6.17,0,0,1-5.43,0Zm4.48-2.38a3.09,3.09,0,0,0,0-3.87,2.34,2.34,0,0,0-1.76-.72,2.37,2.37,0,0,0-1.77.72,3.06,3.06,0,0,0,0,3.87,2.35,2.35,0,0,0,1.77.73A2.31,2.31,0,0,0,255.53,126.4Z"/><path class="cls-2" d="M264.89,119.88a5.19,5.19,0,0,1,2-.35v2.57c-.31,0-.52,0-.63,0a2.52,2.52,0,0,0-1.87.67,2.7,2.7,0,0,0-.68,2v4.53h-2.78v-9.6h2.66v1.27A3.07,3.07,0,0,1,264.89,119.88Z"/><path class="cls-2" d="M275,128.8a2.76,2.76,0,0,1-1,.46,5.18,5.18,0,0,1-1.26.15,3.75,3.75,0,0,1-2.65-.87,3.38,3.38,0,0,1-.94-2.57v-4H267.7v-2.14h1.48v-2.33H272v2.33h2.39V122H272v3.91a1.3,1.3,0,0,0,.31.94,1.15,1.15,0,0,0,.88.33,1.8,1.8,0,0,0,1.13-.36Z"/><path class="cls-2" d="M277.5,129.12a6.41,6.41,0,0,1-1.82-.74l.92-2a6.26,6.26,0,0,0,1.56.67,6.53,6.53,0,0,0,1.78.25q1.77,0,1.77-.87a.62.62,0,0,0-.48-.59,7.1,7.1,0,0,0-1.48-.3,15.08,15.08,0,0,1-1.95-.41,3.13,3.13,0,0,1-1.33-.82,2.35,2.35,0,0,1-.56-1.68,2.55,2.55,0,0,1,.53-1.61,3.37,3.37,0,0,1,1.53-1.1,6.6,6.6,0,0,1,2.38-.39,9.35,9.35,0,0,1,2,.22,5.43,5.43,0,0,1,1.66.62l-.92,2a5.53,5.53,0,0,0-2.77-.72,2.8,2.8,0,0,0-1.34.25.74.74,0,0,0-.44.64.64.64,0,0,0,.48.63,8.62,8.62,0,0,0,1.53.34,15.85,15.85,0,0,1,1.93.42,2.84,2.84,0,0,1,1.3.81,2.3,2.3,0,0,1,.56,1.64,2.53,2.53,0,0,1-.54,1.59,3.52,3.52,0,0,1-1.56,1.08,7.15,7.15,0,0,1-2.44.38A9.59,9.59,0,0,1,277.5,129.12Z"/><path class="cls-2" d="M298.42,120.59a4,4,0,0,1,1.2,3.2v5.48H297v-1.2a3.09,3.09,0,0,1-2.92,1.34,4.54,4.54,0,0,1-1.92-.37,2.91,2.91,0,0,1-1.24-1,2.74,2.74,0,0,1-.43-1.5,2.5,2.5,0,0,1,1-2.1,5.14,5.14,0,0,1,3.11-.77h2.22a1.77,1.77,0,0,0-.56-1.4,2.4,2.4,0,0,0-1.66-.49,4.8,4.8,0,0,0-1.5.24,3.94,3.94,0,0,0-1.26.65l-1-1.94a5.92,5.92,0,0,1,1.88-.86,8.55,8.55,0,0,1,2.26-.3A5,5,0,0,1,298.42,120.59Zm-2.37,6.62a1.84,1.84,0,0,0,.79-1v-1h-1.91c-1.14,0-1.72.38-1.72,1.13a1,1,0,0,0,.42.84,1.9,1.9,0,0,0,1.16.32A2.42,2.42,0,0,0,296.05,127.21Z"/><path class="cls-2" d="M310.85,120.6a4.24,4.24,0,0,1,1.1,3.17v5.5h-2.78V124.2a2.5,2.5,0,0,0-.5-1.7,1.83,1.83,0,0,0-1.45-.56,2.21,2.21,0,0,0-1.68.65,2.71,2.71,0,0,0-.62,1.93v4.75h-2.79v-9.6h2.66v1.12a3.74,3.74,0,0,1,1.38-.93,4.77,4.77,0,0,1,1.8-.33A3.92,3.92,0,0,1,310.85,120.6Z"/><path class="cls-2" d="M324.35,116v13.24h-2.66v-1.11a3.68,3.68,0,0,1-3,1.25,4.92,4.92,0,0,1-2.45-.61,4.28,4.28,0,0,1-1.72-1.73,5.7,5.7,0,0,1,0-5.21,4.34,4.34,0,0,1,1.72-1.73,5,5,0,0,1,2.45-.6,3.6,3.6,0,0,1,2.87,1.16V116Zm-3.43,10.37a3,3,0,0,0,0-3.87,2.5,2.5,0,0,0-3.51,0,3,3,0,0,0,0,3.87,2.47,2.47,0,0,0,3.51,0Z"/><path class="cls-2" d="M11,141.08l-4,9.6H4l-4-9.6H2.87l2.66,6.53,2.75-6.53Z"/><path class="cls-2" d="M12.24,139.29a1.43,1.43,0,0,1-.48-1.1,1.46,1.46,0,0,1,.48-1.11,1.8,1.8,0,0,1,1.25-.44,1.84,1.84,0,0,1,1.25.42,1.39,1.39,0,0,1,.48,1.07,1.54,1.54,0,0,1-.48,1.16,1.76,1.76,0,0,1-1.25.45A1.76,1.76,0,0,1,12.24,139.29Zm-.14,1.79h2.78v9.6H12.1Z"/><path class="cls-2" d="M27.24,137.44v13.24H24.58v-1.11a3.66,3.66,0,0,1-3,1.25,5,5,0,0,1-2.46-.61,4.34,4.34,0,0,1-1.72-1.73,5.78,5.78,0,0,1,0-5.21,4.4,4.4,0,0,1,1.72-1.73,5.06,5.06,0,0,1,2.46-.6,3.63,3.63,0,0,1,2.87,1.16v-4.66Zm-3.42,10.37a3.06,3.06,0,0,0,0-3.87,2.35,2.35,0,0,0-1.75-.72,2.37,2.37,0,0,0-1.77.72,3.06,3.06,0,0,0,0,3.87,2.38,2.38,0,0,0,1.77.73A2.35,2.35,0,0,0,23.82,147.81Z"/><path class="cls-2" d="M39.16,146.66H31.9a2.23,2.23,0,0,0,.93,1.41,3,3,0,0,0,1.82.52,3.67,3.67,0,0,0,1.33-.22,3.42,3.42,0,0,0,1.08-.71l1.48,1.61a5,5,0,0,1-4,1.55,6.33,6.33,0,0,1-2.88-.63,4.68,4.68,0,0,1-1.92-1.76,4.77,4.77,0,0,1-.68-2.55,4.91,4.91,0,0,1,.67-2.55,4.69,4.69,0,0,1,1.83-1.76,5.74,5.74,0,0,1,5.17,0,4.47,4.47,0,0,1,1.79,1.74,5.13,5.13,0,0,1,.65,2.63S39.2,146.2,39.16,146.66Zm-6.51-3.08a2.27,2.27,0,0,0-.79,1.46h4.73a2.33,2.33,0,0,0-.78-1.46,2.58,2.58,0,0,0-3.16,0Z"/><path class="cls-2" d="M42.92,150.19A4.79,4.79,0,0,1,41,148.43a5.19,5.19,0,0,1,0-5.1,4.72,4.72,0,0,1,1.89-1.76,6.17,6.17,0,0,1,5.43,0,4.67,4.67,0,0,1,1.87,1.76,5.12,5.12,0,0,1,0,5.1,4.74,4.74,0,0,1-1.87,1.76,6.17,6.17,0,0,1-5.43,0Zm4.47-2.38a3.06,3.06,0,0,0,0-3.87,2.3,2.3,0,0,0-1.75-.72,2.34,2.34,0,0,0-1.77.72,3,3,0,0,0,0,3.87,2.35,2.35,0,0,0,1.77.73A2.31,2.31,0,0,0,47.39,147.81Z"/><path class="cls-2" d="M67.71,141.08v8A5.13,5.13,0,0,1,66.33,153a5.68,5.68,0,0,1-4,1.28,9.85,9.85,0,0,1-2.64-.34,5.61,5.61,0,0,1-2.07-1l1.1-2a4.76,4.76,0,0,0,1.54.8,6.31,6.31,0,0,0,1.85.29,3,3,0,0,0,2.14-.65,2.63,2.63,0,0,0,.68-2V149a3.89,3.89,0,0,1-3,1.19,5.06,5.06,0,0,1-2.42-.58A4.4,4.4,0,0,1,57.73,148a4.91,4.91,0,0,1,0-4.85,4.4,4.4,0,0,1,1.74-1.63,5.06,5.06,0,0,1,2.42-.58,3.81,3.81,0,0,1,3.18,1.37v-1.23Zm-3.46,6.2a2.4,2.4,0,0,0,0-3.41,2.57,2.57,0,0,0-1.81-.65,2.63,2.63,0,0,0-1.82.65,2.4,2.4,0,0,0,0,3.41,2.63,2.63,0,0,0,1.82.65A2.57,2.57,0,0,0,64.25,147.28Z"/><path class="cls-2" d="M77.59,142a4,4,0,0,1,1.2,3.2v5.48H76.18v-1.2a3.11,3.11,0,0,1-2.93,1.34,4.52,4.52,0,0,1-1.91-.37,2.85,2.85,0,0,1-1.24-1,2.66,2.66,0,0,1-.43-1.5,2.47,2.47,0,0,1,1-2.1,5.07,5.07,0,0,1,3.11-.77H76a1.77,1.77,0,0,0-.55-1.4,2.42,2.42,0,0,0-1.66-.49,4.91,4.91,0,0,0-1.51.24A4.16,4.16,0,0,0,71,144l-1-1.94a5.92,5.92,0,0,1,1.88-.86,8.5,8.5,0,0,1,2.26-.3A5,5,0,0,1,77.59,142Zm-2.37,6.62a1.78,1.78,0,0,0,.78-1v-1H74.09c-1.14,0-1.71.38-1.71,1.13a1,1,0,0,0,.42.84A1.87,1.87,0,0,0,74,149,2.43,2.43,0,0,0,75.22,148.62Z"/><path class="cls-2" d="M96.46,142a4.32,4.32,0,0,1,1.06,3.18v5.5H94.74v-5.07a2.56,2.56,0,0,0-.48-1.7,1.63,1.63,0,0,0-1.34-.57,2,2,0,0,0-1.56.64,2.73,2.73,0,0,0-.57,1.88v4.82H88v-5.07c0-1.51-.61-2.27-1.82-2.27a1.94,1.94,0,0,0-1.53.64,2.68,2.68,0,0,0-.58,1.88v4.82H81.3v-9.6H84v1.1a3.5,3.5,0,0,1,1.31-.92,4.33,4.33,0,0,1,1.7-.32,4.11,4.11,0,0,1,1.84.4,3.11,3.11,0,0,1,1.32,1.17,4,4,0,0,1,1.49-1.16,4.61,4.61,0,0,1,2-.41A3.88,3.88,0,0,1,96.46,142Z"/><path class="cls-2" d="M109.47,146.66h-7.26a2.23,2.23,0,0,0,.93,1.41,3,3,0,0,0,1.82.52,3.67,3.67,0,0,0,1.33-.22,3.31,3.31,0,0,0,1.08-.71l1.48,1.61a5,5,0,0,1-4,1.55,6.28,6.28,0,0,1-2.87-.63,4.65,4.65,0,0,1-1.93-1.76,5.15,5.15,0,0,1,0-5.1,4.72,4.72,0,0,1,1.84-1.76,5.72,5.72,0,0,1,5.16,0,4.56,4.56,0,0,1,1.8,1.74,5.23,5.23,0,0,1,.65,2.63S109.51,146.2,109.47,146.66ZM103,143.58a2.22,2.22,0,0,0-.78,1.46h4.72a2.29,2.29,0,0,0-.78-1.46,2.36,2.36,0,0,0-1.57-.54A2.39,2.39,0,0,0,103,143.58Z"/><path class="cls-2" d="M112.27,150.53a6.53,6.53,0,0,1-1.82-.74l.93-2a6.34,6.34,0,0,0,1.55.67,6.66,6.66,0,0,0,1.79.25c1.18,0,1.76-.29,1.76-.87a.62.62,0,0,0-.48-.59,6.82,6.82,0,0,0-1.48-.3,15.26,15.26,0,0,1-1.94-.41,3.07,3.07,0,0,1-1.33-.82,2.32,2.32,0,0,1-.56-1.68,2.59,2.59,0,0,1,.52-1.61,3.4,3.4,0,0,1,1.54-1.1,6.56,6.56,0,0,1,2.38-.39,9.19,9.19,0,0,1,2,.22,5.67,5.67,0,0,1,1.67.61l-.93,2a5.56,5.56,0,0,0-2.76-.71,2.77,2.77,0,0,0-1.34.25.74.74,0,0,0-.45.64.64.64,0,0,0,.49.63,8.62,8.62,0,0,0,1.53.34,15.85,15.85,0,0,1,1.93.42,2.76,2.76,0,0,1,1.3.81,2.29,2.29,0,0,1,.55,1.64,2.6,2.6,0,0,1-.53,1.59,3.52,3.52,0,0,1-1.56,1.08,7.15,7.15,0,0,1-2.44.38A9.68,9.68,0,0,1,112.27,150.53Z"/><path class="cls-2" d="M120.68,150.32a1.67,1.67,0,0,1-.5-1.25,1.61,1.61,0,0,1,.5-1.24,1.84,1.84,0,0,1,2.46,0,1.65,1.65,0,0,1,.5,1.24,1.7,1.7,0,0,1-.5,1.25,1.76,1.76,0,0,1-2.46,0Z"/></g></g></svg>