<svg xmlns="http://www.w3.org/2000/svg" viewBox="0 0 422.65 63.9"><defs><style>.cls-1{fill:#ff9492;}.cls-2{fill:none;stroke:#534d72;stroke-miterlimit:10;stroke-width:3.27px;}.cls-3{fill:#534d72;}</style></defs><title>Asset 55</title><g id="Layer_2" data-name="Layer 2"><g id="Layer_8" data-name="Layer 8"><circle class="cls-1" cx="7.16" cy="17.01" r="7.16"/><line class="cls-2" x1="9.58" y1="60.46" x2="9.58" y2="23.24"/><line class="cls-2" x1="17.83" y1="54.97" x2="17.83" y2="29.26"/><line class="cls-2" x1="27.07" y1="54.97" x2="27.07" y2="29.26"/><line class="cls-2" x1="36.32" y1="54.97" x2="36.32" y2="29.26"/><line class="cls-2" x1="45.56" y1="54.97" x2="45.56" y2="29.26"/><line class="cls-2" x1="54.38" y1="60.46" x2="54.38" y2="23.24"/><circle class="cls-2" cx="9.58" cy="17.99" r="5.72"/><circle class="cls-2" cx="54.38" cy="17.99" r="5.72"/><line class="cls-2" x1="9.58" y1="29.4" x2="54.38" y2="29.4"/><line class="cls-2" x1="9.58" y1="54.97" x2="54.38" y2="54.97"/><circle class="cls-1" cx="135.14" cy="29.4" r="20.02"/><path class="cls-2" d="M147.14,36.37a24.09,24.09,0,1,1-48.18,0,23.19,23.19,0,0,1,.67-5.62,22.82,22.82,0,0,1,2.56-6.43,24.08,24.08,0,0,1,41.72,0,23.43,23.43,0,0,1,2.56,6.43A23.69,23.69,0,0,1,147.14,36.37Z"/><path class="cls-2" d="M99.63,30.75a24.08,24.08,0,0,0,46.84,0"/><path class="cls-2" d="M102.19,24.32a24.08,24.08,0,0,1,41.72,0"/><path class="cls-2" d="M143.91,24.32a24.08,24.08,0,0,1-41.72,0,24.08,24.08,0,0,1,41.72,0Z"/><path class="cls-2" d="M123.05,29.57c2.37.19,9.37-1.36,12.09-3.63"/><rect class="cls-1" x="222.24" y="18.85" width="13.25" height="33.89" rx="5.4" ry="5.4"/><path class="cls-2" d="M202.92,27.56H226.6a0,0,0,0,1,0,0V53.43a6.92,6.92,0,0,1-6.92,6.92h-9.84a6.92,6.92,0,0,1-6.92-6.92V27.56A0,0,0,0,1,202.92,27.56Z"/><polyline class="cls-2" points="215.35 33.34 209.57 33.34 209.57 42.02 209.57 50.7 214.76 50.7"/><line class="cls-2" x1="214.76" y1="42.02" x2="209.57" y2="42.02"/><circle class="cls-2" cx="214.76" cy="7.2" r="4.42"/><path class="cls-2" d="M202.92,27.56a3.48,3.48,0,1,1,0-7c-.15-2.78,4.87-9,11.19-9"/><path class="cls-2" d="M225.3,27.56a3.48,3.48,0,1,0,0-7c.15-2.78-4.87-9-11.19-9"/><path class="cls-2" d="M214.11,17c2.38.45,5.7,2.33,6.86,4.58"/><polygon class="cls-1" points="322.89 41.14 314.78 57.03 330.83 57.03 322.89 41.14"/><path class="cls-3" d="M341,37.07a1.62,1.62,0,0,1-2.26.07A49.29,49.29,0,0,0,303,24.42c-12.27.48-24.67,5.28-31.47,12.06a1.64,1.64,0,0,1-2.24.08h0a1.64,1.64,0,0,1-.08-2.38c7.43-7.44,20.41-12.5,33.66-13a52.35,52.35,0,0,1,38,13.55,1.64,1.64,0,0,1,.08,2.36Z"/><circle class="cls-2" cx="304.97" cy="6.01" r="4.2"/><line class="cls-2" x1="304.97" y1="10.21" x2="304.97" y2="22.75"/><line class="cls-2" x1="283.22" y1="27.72" x2="283.22" y2="47.08"/><line class="cls-2" x1="305.73" y1="23.88" x2="305.73" y2="39.24"/><line class="cls-2" x1="321.22" y1="25.94" x2="321.22" y2="49.44"/><circle class="cls-2" cx="283.22" cy="50.7" r="5.22"/><polygon class="cls-2" points="321.22 47.08 314.78 59.7 327.53 59.7 321.22 47.08"/><polygon class="cls-2" points="305.73 38.82 307.01 42.74 311.13 42.74 307.8 45.16 309.07 49.09 305.73 46.66 302.4 49.09 303.67 45.16 300.33 42.74 304.46 42.74 305.73 38.82"/><circle class="cls-1" cx="400.8" cy="15.05" r="15.05"/><circle class="cls-2" cx="405.11" cy="19.24" r="15.91"/><path class="cls-2" d="M401.45,9.93c4.82-.25,13.28,2.8,13.47,10.26"/><line class="cls-2" x1="390.37" y1="13.25" x2="411.23" y2="34.11"/><line class="cls-2" x1="394.66" y1="31.23" x2="383.74" y2="47.02"/><circle class="cls-2" cx="379.72" cy="54.01" r="8.26"/></g></g></svg>