<svg xmlns="http://www.w3.org/2000/svg" viewBox="0 0 393.74 104.48"><defs><style>.cls-1{fill:#6dfebf;}.cls-2{fill:#534d72;}</style></defs><title>Asset 46</title><g id="Layer_2" data-name="Layer 2"><g id="Layer_8" data-name="Layer 8"><path class="cls-1" d="M2.49,14A7.59,7.59,0,0,1,0,12.86l1.1-2.44a7.51,7.51,0,0,0,2.14,1.06,7.94,7.94,0,0,0,2.48.4,4,4,0,0,0,2-.41,1.24,1.24,0,0,0,.66-1.09A1,1,0,0,0,8,9.55,2.87,2.87,0,0,0,7,9c-.41-.13-1-.28-1.65-.44a22.61,22.61,0,0,1-2.62-.76A4.25,4.25,0,0,1,1,6.6,3.28,3.28,0,0,1,.28,4.36,3.9,3.9,0,0,1,.94,2.15a4.44,4.44,0,0,1,2-1.57A8.07,8.07,0,0,1,6.18,0,10.93,10.93,0,0,1,8.8.32,7.69,7.69,0,0,1,11,1.24L10,3.7A7.84,7.84,0,0,0,6.16,2.6a3.65,3.65,0,0,0-2,.44A1.35,1.35,0,0,0,3.5,4.2a1.13,1.13,0,0,0,.75,1.07A12.18,12.18,0,0,0,6.54,6a22.61,22.61,0,0,1,2.62.76,4.3,4.3,0,0,1,1.75,1.2,3.21,3.21,0,0,1,.73,2.22A3.8,3.8,0,0,1,11,12.33,4.56,4.56,0,0,1,9,13.9a8.12,8.12,0,0,1-3.26.58A11.42,11.42,0,0,1,2.49,14Z"/><path class="cls-1" d="M23.15.86a4.78,4.78,0,0,1,2.11,1.76A4.88,4.88,0,0,1,26,5.32,4.89,4.89,0,0,1,25.26,8a4.71,4.71,0,0,1-2.11,1.76,7.82,7.82,0,0,1-3.23.61H17.1v3.86H13.86V.24h6.06A7.82,7.82,0,0,1,23.15.86ZM22,7.11a2.19,2.19,0,0,0,.76-1.79A2.2,2.2,0,0,0,22,3.51a3.42,3.42,0,0,0-2.22-.63H17.1V7.74h2.64A3.42,3.42,0,0,0,22,7.11Z"/><path class="cls-1" d="M31.35,13.54A7,7,0,0,1,28.61,11a7.08,7.08,0,0,1-1-3.71,7.08,7.08,0,0,1,1-3.71A7,7,0,0,1,31.35.94a8.66,8.66,0,0,1,7.85,0,7.11,7.11,0,0,1,2.74,2.59,7,7,0,0,1,1,3.71,7,7,0,0,1-1,3.71,7.11,7.11,0,0,1-2.74,2.59,8.09,8.09,0,0,1-3.92.94A8.15,8.15,0,0,1,31.35,13.54Zm6.17-2.39a4.07,4.07,0,0,0,1.57-1.59,4.67,4.67,0,0,0,.57-2.32,4.67,4.67,0,0,0-.57-2.32,4.07,4.07,0,0,0-1.57-1.59,4.69,4.69,0,0,0-4.48,0,4.07,4.07,0,0,0-1.57,1.59,4.67,4.67,0,0,0-.57,2.32,4.67,4.67,0,0,0,.57,2.32A4.07,4.07,0,0,0,33,11.15a4.69,4.69,0,0,0,4.48,0Z"/><path class="cls-1" d="M54.3,14.24l-2.7-3.9h-3v3.9H45.38V.24h6.06a7.82,7.82,0,0,1,3.23.62,4.78,4.78,0,0,1,2.11,1.76,4.88,4.88,0,0,1,.74,2.7A4.74,4.74,0,0,1,56.77,8a4.78,4.78,0,0,1-2.13,1.73l3.14,4.5ZM53.48,3.51a3.42,3.42,0,0,0-2.22-.63H48.62V7.76h2.64a3.36,3.36,0,0,0,2.22-.64,2.22,2.22,0,0,0,.76-1.8A2.2,2.2,0,0,0,53.48,3.51Z"/><path class="cls-1" d="M62.78,2.88H58.3V.24H70.5V2.88H66V14.24H62.78Z"/><path class="cls-1" d="M73.53,14A7.59,7.59,0,0,1,71,12.86l1.1-2.44a7.51,7.51,0,0,0,2.14,1.06,7.94,7.94,0,0,0,2.48.4,4,4,0,0,0,2-.41,1.24,1.24,0,0,0,.66-1.09,1,1,0,0,0-.39-.83,2.87,2.87,0,0,0-1-.53c-.41-.13-1-.28-1.65-.44a22.61,22.61,0,0,1-2.62-.76A4.25,4.25,0,0,1,72.05,6.6a3.28,3.28,0,0,1-.73-2.24A3.9,3.9,0,0,1,72,2.15,4.44,4.44,0,0,1,74,.58,8.07,8.07,0,0,1,77.22,0a10.93,10.93,0,0,1,2.62.32,7.69,7.69,0,0,1,2.24.92l-1,2.46A7.84,7.84,0,0,0,77.2,2.6a3.65,3.65,0,0,0-2,.44,1.35,1.35,0,0,0-.65,1.16,1.13,1.13,0,0,0,.75,1.07A12.18,12.18,0,0,0,77.58,6a22.61,22.61,0,0,1,2.62.76A4.3,4.3,0,0,1,82,7.92a3.21,3.21,0,0,1,.73,2.22A3.8,3.8,0,0,1,82,12.33a4.56,4.56,0,0,1-2,1.57,8.12,8.12,0,0,1-3.26.58A11.42,11.42,0,0,1,73.53,14Z"/><path class="cls-1" d="M84.38,6.66a1.91,1.91,0,0,1-.56-1.4,1.84,1.84,0,0,1,.56-1.39,2.06,2.06,0,0,1,2.76,0,1.84,1.84,0,0,1,.56,1.39,1.91,1.91,0,0,1-.56,1.4,2,2,0,0,1-2.76,0Zm0,7.18a1.91,1.91,0,0,1-.56-1.4,1.84,1.84,0,0,1,.56-1.39,2.06,2.06,0,0,1,2.76,0,1.84,1.84,0,0,1,.56,1.39,1.91,1.91,0,0,1-.56,1.4,2,2,0,0,1-2.76,0Z"/><path class="cls-2" d="M108.54.24v14H105.3V8.5H98.94v5.74H95.7V.24h3.24V5.76h6.36V.24Z"/><path class="cls-2" d="M114.71,13.54A7,7,0,0,1,112,11a7.08,7.08,0,0,1-1-3.71,7.08,7.08,0,0,1,1-3.71A7,7,0,0,1,114.71.94a8.66,8.66,0,0,1,7.85,0,7.11,7.11,0,0,1,2.74,2.59,7,7,0,0,1,1,3.71,7,7,0,0,1-1,3.71,7.11,7.11,0,0,1-2.74,2.59,8.09,8.09,0,0,1-3.92.94A8.15,8.15,0,0,1,114.71,13.54Zm6.17-2.39a4.07,4.07,0,0,0,1.57-1.59A4.67,4.67,0,0,0,123,7.24a4.67,4.67,0,0,0-.57-2.32,4.07,4.07,0,0,0-1.57-1.59,4.69,4.69,0,0,0-4.48,0,4.07,4.07,0,0,0-1.57,1.59,4.67,4.67,0,0,0-.57,2.32,4.67,4.67,0,0,0,.57,2.32,4.07,4.07,0,0,0,1.57,1.59,4.69,4.69,0,0,0,4.48,0Z"/><path class="cls-2" d="M131.57,13.55A7,7,0,0,1,128.85,11a7.1,7.1,0,0,1-1-3.73,7.1,7.1,0,0,1,1-3.73A7,7,0,0,1,131.57.93a8.68,8.68,0,0,1,7.18-.29,6.65,6.65,0,0,1,2.47,1.84L139.14,4.4a4.49,4.49,0,0,0-3.52-1.64,4.67,4.67,0,0,0-2.32.57,4.05,4.05,0,0,0-1.59,1.59,4.67,4.67,0,0,0-.57,2.32,4.67,4.67,0,0,0,.57,2.32,4.05,4.05,0,0,0,1.59,1.59,4.67,4.67,0,0,0,2.32.57,4.45,4.45,0,0,0,3.52-1.66L141.22,12a6.55,6.55,0,0,1-2.48,1.86,8.2,8.2,0,0,1-3.3.64A8,8,0,0,1,131.57,13.55Z"/><path class="cls-2" d="M148.5,8.74l-1.88,2v3.54H143.4V.24h3.22V6.78l6.2-6.54h3.6l-5.8,6.24,6.14,7.76H153Z"/><path class="cls-2" d="M169,11.64v2.6H158.2V.24h10.58v2.6h-7.36v3h6.5V8.4h-6.5v3.24Z"/><path class="cls-2" d="M178.2,9.28v5H175v-5l-5.42-9H173l3.74,6.22L180.46.24h3.18Z"/><path class="cls-2" d="M186.6,11.05a1.86,1.86,0,0,1,.54,1.39,3.13,3.13,0,0,1-.1.8,8.7,8.7,0,0,1-.44,1.2l-1.14,2.88h-2l.88-3.18a1.63,1.63,0,0,1-.79-.65,1.92,1.92,0,0,1-.29-1.05,1.83,1.83,0,0,1,.55-1.39,1.94,1.94,0,0,1,1.39-.53A1.9,1.9,0,0,1,186.6,11.05Z"/><path class="cls-2" d="M196.53,14A7.59,7.59,0,0,1,194,12.86l1.1-2.44a7.51,7.51,0,0,0,2.14,1.06,7.94,7.94,0,0,0,2.48.4,4,4,0,0,0,2-.41,1.24,1.24,0,0,0,.66-1.09,1,1,0,0,0-.39-.83,2.87,2.87,0,0,0-1-.53c-.4-.13-1-.28-1.65-.44a22.61,22.61,0,0,1-2.62-.76,4.25,4.25,0,0,1-1.75-1.22,3.28,3.28,0,0,1-.73-2.24A3.9,3.9,0,0,1,195,2.15a4.44,4.44,0,0,1,2-1.57A8.07,8.07,0,0,1,200.22,0a10.93,10.93,0,0,1,2.62.32,7.69,7.69,0,0,1,2.24.92l-1,2.46a7.84,7.84,0,0,0-3.88-1.1,3.65,3.65,0,0,0-2,.44,1.35,1.35,0,0,0-.65,1.16,1.13,1.13,0,0,0,.75,1.07,12.18,12.18,0,0,0,2.29.69,22.61,22.61,0,0,1,2.62.76A4.3,4.3,0,0,1,205,7.92a3.21,3.21,0,0,1,.73,2.22,3.8,3.8,0,0,1-.67,2.19,4.56,4.56,0,0,1-2,1.57,8.12,8.12,0,0,1-3.26.58A11.42,11.42,0,0,1,196.53,14Z"/><path class="cls-2" d="M210.75,13.54A7,7,0,0,1,208,11a7.08,7.08,0,0,1-1-3.71,7.08,7.08,0,0,1,1-3.71A7,7,0,0,1,210.75.94a8.66,8.66,0,0,1,7.85,0,7.11,7.11,0,0,1,2.74,2.59,7,7,0,0,1,1,3.71,7,7,0,0,1-1,3.71,7.11,7.11,0,0,1-2.74,2.59,8.09,8.09,0,0,1-3.92.94A8.15,8.15,0,0,1,210.75,13.54Zm6.17-2.39a4.07,4.07,0,0,0,1.57-1.59,4.67,4.67,0,0,0,.57-2.32,4.67,4.67,0,0,0-.57-2.32,4.07,4.07,0,0,0-1.57-1.59,4.69,4.69,0,0,0-4.48,0,4.07,4.07,0,0,0-1.57,1.59,4.67,4.67,0,0,0-.57,2.32,4.67,4.67,0,0,0,.57,2.32,4.07,4.07,0,0,0,1.57,1.59,4.69,4.69,0,0,0,4.48,0Z"/><path class="cls-2" d="M227.61,13.55A7,7,0,0,1,224.89,11a7.1,7.1,0,0,1-1-3.73,7.1,7.1,0,0,1,1-3.73A7,7,0,0,1,227.61.93a8.68,8.68,0,0,1,7.18-.29,6.65,6.65,0,0,1,2.47,1.84L235.18,4.4a4.49,4.49,0,0,0-3.52-1.64,4.67,4.67,0,0,0-2.32.57,4.05,4.05,0,0,0-1.59,1.59,4.67,4.67,0,0,0-.57,2.32,4.67,4.67,0,0,0,.57,2.32,4.05,4.05,0,0,0,1.59,1.59,4.67,4.67,0,0,0,2.32.57,4.45,4.45,0,0,0,3.52-1.66L237.26,12a6.55,6.55,0,0,1-2.48,1.86,8.2,8.2,0,0,1-3.3.64A8,8,0,0,1,227.61,13.55Z"/><path class="cls-2" d="M242,13.55A7,7,0,0,1,239.25,11a7.1,7.1,0,0,1-1-3.73,7.1,7.1,0,0,1,1-3.73A7,7,0,0,1,242,.93a8.68,8.68,0,0,1,7.18-.29,6.65,6.65,0,0,1,2.47,1.84L249.54,4.4A4.49,4.49,0,0,0,246,2.76a4.67,4.67,0,0,0-2.32.57,4.05,4.05,0,0,0-1.59,1.59,4.67,4.67,0,0,0-.57,2.32,4.67,4.67,0,0,0,.57,2.32,4.05,4.05,0,0,0,1.59,1.59,4.67,4.67,0,0,0,2.32.57,4.45,4.45,0,0,0,3.52-1.66L251.62,12a6.55,6.55,0,0,1-2.48,1.86,8.2,8.2,0,0,1-3.3.64A8,8,0,0,1,242,13.55Z"/><path class="cls-2" d="M264.64,11.64v2.6H253.8V.24h10.58v2.6H257v3h6.5V8.4H257v3.24Z"/><path class="cls-2" d="M276.14,14.24l-2.7-3.9h-3v3.9h-3.24V.24h6.06a7.82,7.82,0,0,1,3.23.62,4.78,4.78,0,0,1,2.11,1.76,4.88,4.88,0,0,1,.74,2.7A4.74,4.74,0,0,1,278.61,8a4.78,4.78,0,0,1-2.13,1.73l3.14,4.5Zm-.82-10.73a3.42,3.42,0,0,0-2.22-.63h-2.64V7.76h2.64a3.36,3.36,0,0,0,2.22-.64,2.22,2.22,0,0,0,.76-1.8A2.2,2.2,0,0,0,275.32,3.51Z"/><path class="cls-2" d="M284.28,11.05a1.86,1.86,0,0,1,.54,1.39,3.13,3.13,0,0,1-.1.8,8.7,8.7,0,0,1-.44,1.2l-1.14,2.88h-2l.88-3.18a1.63,1.63,0,0,1-.79-.65,1.92,1.92,0,0,1-.29-1.05,1.83,1.83,0,0,1,.55-1.39,1.94,1.94,0,0,1,1.39-.53A1.9,1.9,0,0,1,284.28,11.05Z"/><path class="cls-2" d="M302,11.24h-6.5l-1.24,3H291l6.24-14h3.2l6.26,14h-3.4Zm-1-2.46L298.8,3.42l-2.22,5.36Z"/><path class="cls-2" d="M317.06,14.24l-2.7-3.9h-3v3.9h-3.24V.24h6.06a7.82,7.82,0,0,1,3.23.62,4.78,4.78,0,0,1,2.11,1.76,4.88,4.88,0,0,1,.74,2.7A4.74,4.74,0,0,1,319.53,8a4.78,4.78,0,0,1-2.13,1.73l3.14,4.5Zm-.82-10.73A3.42,3.42,0,0,0,314,2.88h-2.64V7.76H314a3.36,3.36,0,0,0,2.22-.64,2.22,2.22,0,0,0,.76-1.8A2.2,2.2,0,0,0,316.24,3.51Z"/><path class="cls-2" d="M325.67,13.55A7,7,0,0,1,323,11a7.1,7.1,0,0,1-1-3.73,7.1,7.1,0,0,1,1-3.73A7,7,0,0,1,325.67.93a8.68,8.68,0,0,1,7.18-.29,6.65,6.65,0,0,1,2.47,1.84L333.24,4.4a4.49,4.49,0,0,0-3.52-1.64,4.67,4.67,0,0,0-2.32.57,4.05,4.05,0,0,0-1.59,1.59,4.67,4.67,0,0,0-.57,2.32,4.67,4.67,0,0,0,.57,2.32,4.05,4.05,0,0,0,1.59,1.59,4.67,4.67,0,0,0,2.32.57,4.45,4.45,0,0,0,3.52-1.66L335.32,12a6.55,6.55,0,0,1-2.48,1.86,8.2,8.2,0,0,1-3.3.64A8,8,0,0,1,325.67,13.55Z"/><path class="cls-2" d="M350.34.24v14H347.1V8.5h-6.36v5.74H337.5V.24h3.24V5.76h6.36V.24Z"/><path class="cls-2" d="M364.5,11.64v2.6H353.66V.24h10.58v2.6h-7.36v3h6.5V8.4h-6.5v3.24Z"/><path class="cls-2" d="M376,14.24l-2.7-3.9h-3v3.9h-3.24V.24h6.06a7.82,7.82,0,0,1,3.23.62,4.78,4.78,0,0,1,2.11,1.76,4.88,4.88,0,0,1,.74,2.7A4.74,4.74,0,0,1,378.47,8a4.78,4.78,0,0,1-2.13,1.73l3.14,4.5Zm-.82-10.73A3.42,3.42,0,0,0,373,2.88h-2.64V7.76H373a3.36,3.36,0,0,0,2.22-.64,2.22,2.22,0,0,0,.76-1.8A2.2,2.2,0,0,0,375.18,3.51Z"/><path class="cls-2" d="M388.3,9.28v5h-3.24v-5l-5.42-9h3.44l3.74,6.22L390.56.24h3.18Z"/><path class="cls-1" d="M2.49,44A7.59,7.59,0,0,1,0,42.86l1.1-2.44a7.51,7.51,0,0,0,2.14,1.06,7.94,7.94,0,0,0,2.48.4,4,4,0,0,0,2-.41,1.24,1.24,0,0,0,.66-1.09A1,1,0,0,0,8,39.55,2.87,2.87,0,0,0,7,39c-.41-.13-1-.28-1.65-.44a22.61,22.61,0,0,1-2.62-.76A4.25,4.25,0,0,1,1,36.6a3.28,3.28,0,0,1-.73-2.24,3.9,3.9,0,0,1,.66-2.21,4.44,4.44,0,0,1,2-1.57A8.07,8.07,0,0,1,6.18,30a10.93,10.93,0,0,1,2.62.32,7.69,7.69,0,0,1,2.24.92L10,33.7a7.84,7.84,0,0,0-3.88-1.1,3.65,3.65,0,0,0-2,.44A1.35,1.35,0,0,0,3.5,34.2a1.13,1.13,0,0,0,.75,1.07A12.18,12.18,0,0,0,6.54,36a22.61,22.61,0,0,1,2.62.76,4.3,4.3,0,0,1,1.75,1.2,3.21,3.21,0,0,1,.73,2.22A3.8,3.8,0,0,1,11,42.33,4.56,4.56,0,0,1,9,43.9a8.12,8.12,0,0,1-3.26.58A11.42,11.42,0,0,1,2.49,44Z"/><path class="cls-1" d="M16.69,43.55A7,7,0,0,1,14,41a7.52,7.52,0,0,1,0-7.46,7,7,0,0,1,2.72-2.58A8.07,8.07,0,0,1,20.58,30a8.11,8.11,0,0,1,3.29.64,6.65,6.65,0,0,1,2.47,1.84L24.26,34.4a4.49,4.49,0,0,0-3.52-1.64,4.67,4.67,0,0,0-2.32.57,4.05,4.05,0,0,0-1.59,1.59,5,5,0,0,0,0,4.64,4.05,4.05,0,0,0,1.59,1.59,4.67,4.67,0,0,0,2.32.57,4.45,4.45,0,0,0,3.52-1.66L26.34,42a6.55,6.55,0,0,1-2.48,1.86,8.2,8.2,0,0,1-3.3.64A8,8,0,0,1,16.69,43.55Z"/><path class="cls-1" d="M41.36,30.24v14H38.12V38.5H31.76v5.74H28.52v-14h3.24v5.52h6.36V30.24Z"/><path class="cls-1" d="M47.53,43.54A7,7,0,0,1,44.79,41a7.45,7.45,0,0,1,0-7.42,7,7,0,0,1,2.74-2.59,8.66,8.66,0,0,1,7.85,0,7.11,7.11,0,0,1,2.74,2.59,7.38,7.38,0,0,1,0,7.42,7.11,7.11,0,0,1-2.74,2.59,8.66,8.66,0,0,1-7.85,0Zm6.17-2.39a4.07,4.07,0,0,0,1.57-1.59,5,5,0,0,0,0-4.64,4.07,4.07,0,0,0-1.57-1.59,4.69,4.69,0,0,0-4.48,0,4.07,4.07,0,0,0-1.57,1.59,5,5,0,0,0,0,4.64,4.07,4.07,0,0,0,1.57,1.59,4.69,4.69,0,0,0,4.48,0Z"/><path class="cls-1" d="M64.41,43.54A7,7,0,0,1,61.67,41a7.45,7.45,0,0,1,0-7.42,7,7,0,0,1,2.74-2.59,8.66,8.66,0,0,1,7.85,0A7.11,7.11,0,0,1,75,33.53,7.38,7.38,0,0,1,75,41a7.11,7.11,0,0,1-2.74,2.59,8.66,8.66,0,0,1-7.85,0Zm6.17-2.39a4.07,4.07,0,0,0,1.57-1.59,5,5,0,0,0,0-4.64,4.07,4.07,0,0,0-1.57-1.59,4.69,4.69,0,0,0-4.48,0,4.07,4.07,0,0,0-1.57,1.59,5,5,0,0,0,0,4.64,4.07,4.07,0,0,0,1.57,1.59,4.69,4.69,0,0,0,4.48,0Z"/><path class="cls-1" d="M78.44,30.24h3.24V41.6h7v2.64H78.44Z"/><path class="cls-1" d="M90.5,36.66a1.91,1.91,0,0,1-.56-1.4,1.84,1.84,0,0,1,.56-1.39,2.06,2.06,0,0,1,2.76,0,1.84,1.84,0,0,1,.56,1.39,1.91,1.91,0,0,1-.56,1.4,2,2,0,0,1-2.76,0Zm0,7.18a1.91,1.91,0,0,1-.56-1.4,1.84,1.84,0,0,1,.56-1.39,2.06,2.06,0,0,1,2.76,0,1.84,1.84,0,0,1,.56,1.39,1.91,1.91,0,0,1-.56,1.4,2,2,0,0,1-2.76,0Z"/><path class="cls-2" d="M111.28,37h3V42.7A8.6,8.6,0,0,1,111.6,44a10.16,10.16,0,0,1-3,.46,8.19,8.19,0,0,1-3.92-.93A6.92,6.92,0,0,1,101.93,41a7.52,7.52,0,0,1,0-7.46,6.91,6.91,0,0,1,2.75-2.58,8.33,8.33,0,0,1,4-.93,8.72,8.72,0,0,1,3.34.62,6.55,6.55,0,0,1,2.52,1.8l-2.08,1.92a4.83,4.83,0,0,0-3.62-1.58,5,5,0,0,0-2.38.56,4,4,0,0,0-1.62,1.58,4.62,4.62,0,0,0-.58,2.34,4.57,4.57,0,0,0,.58,2.32,4.1,4.1,0,0,0,1.61,1.59,4.78,4.78,0,0,0,2.35.57,5.27,5.27,0,0,0,2.52-.6Z"/><path class="cls-2" d="M120.09,43.54A7,7,0,0,1,117.35,41a7.45,7.45,0,0,1,0-7.42,7,7,0,0,1,2.74-2.59,8.66,8.66,0,0,1,7.85,0,7.11,7.11,0,0,1,2.74,2.59,7.38,7.38,0,0,1,0,7.42,7.11,7.11,0,0,1-2.74,2.59,8.66,8.66,0,0,1-7.85,0Zm6.17-2.39a4.07,4.07,0,0,0,1.57-1.59,5,5,0,0,0,0-4.64,4.07,4.07,0,0,0-1.57-1.59,4.69,4.69,0,0,0-4.48,0,4.07,4.07,0,0,0-1.57,1.59,5,5,0,0,0,0,4.64,4.07,4.07,0,0,0,1.57,1.59,4.69,4.69,0,0,0,4.48,0Z"/><path class="cls-2" d="M135.51,44A7.59,7.59,0,0,1,133,42.86l1.1-2.44a7.51,7.51,0,0,0,2.14,1.06,7.94,7.94,0,0,0,2.48.4,4,4,0,0,0,2-.41,1.24,1.24,0,0,0,.66-1.09,1,1,0,0,0-.39-.83,2.87,2.87,0,0,0-1-.53c-.41-.13-1-.28-1.65-.44a22.61,22.61,0,0,1-2.62-.76A4.25,4.25,0,0,1,134,36.6a3.28,3.28,0,0,1-.73-2.24,3.9,3.9,0,0,1,.66-2.21,4.44,4.44,0,0,1,2-1.57A8.07,8.07,0,0,1,139.2,30a10.93,10.93,0,0,1,2.62.32,7.69,7.69,0,0,1,2.24.92l-1,2.46a7.84,7.84,0,0,0-3.88-1.1,3.65,3.65,0,0,0-2,.44,1.35,1.35,0,0,0-.65,1.16,1.13,1.13,0,0,0,.75,1.07,12.18,12.18,0,0,0,2.29.69,22.61,22.61,0,0,1,2.62.76,4.3,4.3,0,0,1,1.75,1.2,3.21,3.21,0,0,1,.73,2.22,3.8,3.8,0,0,1-.67,2.19,4.56,4.56,0,0,1-2,1.57,8.12,8.12,0,0,1-3.26.58A11.42,11.42,0,0,1,135.51,44Z"/><path class="cls-2" d="M150.12,32.84v3.7h6.48v2.6h-6.48v5.1h-3.24v-14h10.58v2.6Z"/><path class="cls-2" d="M159.66,30.24h3.24v14h-3.24Z"/><path class="cls-2" d="M177.06,41.64v2.6H166.22v-14H176.8v2.6h-7.36v3h6.5V38.4h-6.5v3.24Z"/><path class="cls-2" d="M179.64,30.24h3.24V41.6h7v2.64H179.64Z"/><path class="cls-2" d="M191.72,30.24h6.36a9,9,0,0,1,4,.87,6.54,6.54,0,0,1,2.72,2.45,7.47,7.47,0,0,1,0,7.36,6.54,6.54,0,0,1-2.72,2.45,9,9,0,0,1-4,.87h-6.36Zm6.2,11.34a4.7,4.7,0,0,0,3.35-1.17,4.15,4.15,0,0,0,1.25-3.17,4.15,4.15,0,0,0-1.25-3.17,4.7,4.7,0,0,0-3.35-1.17h-3v8.68Z"/><path class="cls-2" d="M226.74,30.24v14h-2.66l-7-8.5v8.5h-3.2v-14h2.68l7,8.5v-8.5Z"/><path class="cls-2" d="M232.91,43.54A7,7,0,0,1,230.17,41a7.45,7.45,0,0,1,0-7.42,7,7,0,0,1,2.74-2.59,8.66,8.66,0,0,1,7.85,0,7.11,7.11,0,0,1,2.74,2.59,7.38,7.38,0,0,1,0,7.42,7.11,7.11,0,0,1-2.74,2.59,8.66,8.66,0,0,1-7.85,0Zm6.17-2.39a4.07,4.07,0,0,0,1.57-1.59,5,5,0,0,0,0-4.64,4.07,4.07,0,0,0-1.57-1.59,4.69,4.69,0,0,0-4.48,0A4.07,4.07,0,0,0,233,34.92a5,5,0,0,0,0,4.64,4.07,4.07,0,0,0,1.57,1.59,4.69,4.69,0,0,0,4.48,0Z"/><path class="cls-2" d="M255.86,44.24l-2.7-3.9h-3v3.9h-3.24v-14H253a7.82,7.82,0,0,1,3.23.62,4.78,4.78,0,0,1,2.11,1.76,4.88,4.88,0,0,1,.74,2.7,4.56,4.56,0,0,1-2.88,4.42l3.14,4.5ZM255,33.51a3.42,3.42,0,0,0-2.22-.63h-2.64v4.88h2.64a3.36,3.36,0,0,0,2.22-.64,2.52,2.52,0,0,0,0-3.61Z"/><path class="cls-2" d="M264.34,32.88h-4.48V30.24h12.2v2.64h-4.48V44.24h-3.24Z"/><path class="cls-2" d="M286.64,30.24v14H283.4V38.5H277v5.74H273.8v-14H277v5.52h6.36V30.24Z"/><path class="cls-1" d="M10.56,67h3V72.7A8.6,8.6,0,0,1,10.88,74a10.16,10.16,0,0,1-3,.46,8.19,8.19,0,0,1-3.92-.93A6.92,6.92,0,0,1,1.21,71a7.52,7.52,0,0,1,0-7.46A6.91,6.91,0,0,1,4,60.93a8.33,8.33,0,0,1,4-.93,8.72,8.72,0,0,1,3.34.62,6.55,6.55,0,0,1,2.52,1.8L11.7,64.34a4.83,4.83,0,0,0-3.62-1.58,5,5,0,0,0-2.38.56A4,4,0,0,0,4.08,64.9a4.62,4.62,0,0,0-.58,2.34,4.57,4.57,0,0,0,.58,2.32,4.1,4.1,0,0,0,1.61,1.59A4.78,4.78,0,0,0,8,71.72a5.27,5.27,0,0,0,2.52-.6Z"/><path class="cls-1" d="M25.44,74.24l-2.7-3.9h-3v3.9H16.52v-14h6.06a7.82,7.82,0,0,1,3.23.62,4.78,4.78,0,0,1,2.11,1.76,4.88,4.88,0,0,1,.74,2.7,4.56,4.56,0,0,1-2.88,4.42l3.14,4.5Zm-.82-10.73a3.42,3.42,0,0,0-2.22-.63H19.76v4.88H22.4a3.36,3.36,0,0,0,2.22-.64,2.52,2.52,0,0,0,0-3.61Z"/><path class="cls-1" d="M40.44,71.24h-6.5l-1.24,3H29.38l6.24-14h3.2l6.26,14h-3.4Zm-1-2.46L37.2,63.42,35,68.78Z"/><path class="cls-1" d="M46.54,60.24H52.9a9,9,0,0,1,4,.87,6.54,6.54,0,0,1,2.72,2.45,7.47,7.47,0,0,1,0,7.36,6.54,6.54,0,0,1-2.72,2.45,9,9,0,0,1-4,.87H46.54Zm6.2,11.34a4.7,4.7,0,0,0,3.35-1.17,4.64,4.64,0,0,0,0-6.34,4.7,4.7,0,0,0-3.35-1.17h-3v8.68Z"/><path class="cls-1" d="M64.61,72.82a6.41,6.41,0,0,1-1.67-4.74V60.24h3.24V68q0,3.77,3.12,3.76a2.91,2.91,0,0,0,2.32-.91,4.27,4.27,0,0,0,.8-2.85V60.24h3.2v7.84A6.41,6.41,0,0,1,74,72.82a6.32,6.32,0,0,1-4.67,1.66A6.32,6.32,0,0,1,64.61,72.82Z"/><path class="cls-1" d="M87.74,71.24h-6.5l-1.24,3H76.68l6.24-14h3.2l6.26,14H89Zm-1-2.46L84.5,63.42l-2.22,5.36Z"/><path class="cls-1" d="M96,62.88H91.56V60.24h12.2v2.64H99.28V74.24H96Z"/><path class="cls-1" d="M116.34,71.64v2.6H105.5v-14h10.58v2.6h-7.36v3h6.5V68.4h-6.5v3.24Z"/><path class="cls-1" d="M118.92,60.24h6.36a9,9,0,0,1,4,.87A6.54,6.54,0,0,1,132,63.56a7.47,7.47,0,0,1,0,7.36,6.54,6.54,0,0,1-2.72,2.45,9,9,0,0,1-4,.87h-6.36Zm6.2,11.34a4.7,4.7,0,0,0,3.35-1.17,4.64,4.64,0,0,0,0-6.34,4.7,4.7,0,0,0-3.35-1.17h-3v8.68Z"/><path class="cls-1" d="M135,66.66a1.91,1.91,0,0,1-.56-1.4,1.84,1.84,0,0,1,.56-1.39,2.06,2.06,0,0,1,2.76,0,1.84,1.84,0,0,1,.56,1.39,1.91,1.91,0,0,1-.56,1.4,2,2,0,0,1-2.76,0Zm0,7.18a1.91,1.91,0,0,1-.56-1.4,1.84,1.84,0,0,1,.56-1.39,2.06,2.06,0,0,1,2.76,0,1.84,1.84,0,0,1,.56,1.39,1.91,1.91,0,0,1-.56,1.4,2,2,0,0,1-2.76,0Z"/><path class="cls-2" d="M155.92,71.6v2.64H145.34v-2.1l5.4-5.1a5.94,5.94,0,0,0,1.16-1.41,2.54,2.54,0,0,0,.3-1.17,1.55,1.55,0,0,0-.57-1.29,2.66,2.66,0,0,0-1.67-.45,3.88,3.88,0,0,0-1.66.35,3.12,3.12,0,0,0-1.24,1.05L144.7,62.6A5.58,5.58,0,0,1,147,60.69a7.55,7.55,0,0,1,3.3-.69,6.78,6.78,0,0,1,2.73.51A4.19,4.19,0,0,1,154.81,62a3.75,3.75,0,0,1,.65,2.19,4.89,4.89,0,0,1-.48,2.14,8.14,8.14,0,0,1-1.86,2.28l-3.22,3Z"/><path class="cls-2" d="M160.12,73.62A5.69,5.69,0,0,1,158,71.13a10.21,10.21,0,0,1,0-7.78,5.72,5.72,0,0,1,10.46,0,10.21,10.21,0,0,1,0,7.78,5.84,5.84,0,0,1-8.33,2.49Zm5.11-3a6.22,6.22,0,0,0,.73-3.4,6.22,6.22,0,0,0-.73-3.4,2.37,2.37,0,0,0-4,0,6.22,6.22,0,0,0-.73,3.4,6.22,6.22,0,0,0,.73,3.4,2.37,2.37,0,0,0,4,0Z"/><path class="cls-2" d="M176.08,60.24v14h-3.24V62.84H170v-2.6Z"/><path class="cls-2" d="M181.42,73.62a5.69,5.69,0,0,1-2.13-2.49,10.21,10.21,0,0,1,0-7.78,5.72,5.72,0,0,1,10.46,0,10.21,10.21,0,0,1,0,7.78,5.84,5.84,0,0,1-8.33,2.49Zm5.11-3a6.22,6.22,0,0,0,.73-3.4,6.22,6.22,0,0,0-.73-3.4,2.37,2.37,0,0,0-4,0,6.22,6.22,0,0,0-.73,3.4,6.22,6.22,0,0,0,.73,3.4,2.37,2.37,0,0,0,4,0Z"/><path class="cls-1" d="M4.34,92.84v3.7h6.48v2.6H4.34v5.1H1.1v-14H11.68v2.6Z"/><path class="cls-1" d="M22.52,101.24H16l-1.24,3H11.46l6.24-14h3.2l6.26,14h-3.4Zm-1-2.46-2.22-5.36-2.22,5.36Z"/><path class="cls-1" d="M41.32,90.24l-6.06,14h-3.2l-6-14h3.5l4.26,10,4.32-10Z"/><path class="cls-1" d="M45.17,103.54A7,7,0,0,1,42.43,101a7.45,7.45,0,0,1,0-7.42,7,7,0,0,1,2.74-2.59,8.66,8.66,0,0,1,7.85,0,7.11,7.11,0,0,1,2.74,2.59,7.38,7.38,0,0,1,0,7.42A7.11,7.11,0,0,1,53,103.54a8.66,8.66,0,0,1-7.85,0Zm6.17-2.39a4.07,4.07,0,0,0,1.57-1.59,5,5,0,0,0,0-4.64,4.07,4.07,0,0,0-1.57-1.59,4.69,4.69,0,0,0-4.48,0,4.07,4.07,0,0,0-1.57,1.59,5,5,0,0,0,0,4.64,4.07,4.07,0,0,0,1.57,1.59,4.69,4.69,0,0,0,4.48,0Z"/><path class="cls-1" d="M60.75,102.82a6.41,6.41,0,0,1-1.67-4.74V90.24h3.24V98q0,3.77,3.12,3.76a2.91,2.91,0,0,0,2.32-.91,4.27,4.27,0,0,0,.8-2.85V90.24h3.2v7.84a6.41,6.41,0,0,1-1.67,4.74,6.32,6.32,0,0,1-4.67,1.66A6.32,6.32,0,0,1,60.75,102.82Z"/><path class="cls-1" d="M83.88,104.24l-2.7-3.9h-3v3.9H75v-14H81a7.82,7.82,0,0,1,3.23.62,4.78,4.78,0,0,1,2.11,1.76,4.88,4.88,0,0,1,.74,2.7,4.56,4.56,0,0,1-2.88,4.42l3.14,4.5Zm-.82-10.73a3.42,3.42,0,0,0-2.22-.63H78.2v4.88h2.64a3.36,3.36,0,0,0,2.22-.64,2.52,2.52,0,0,0,0-3.61Z"/><path class="cls-1" d="M89.66,90.24H92.9v14H89.66Z"/><path class="cls-1" d="M99.12,92.88H94.64V90.24h12.2v2.64h-4.48v11.36H99.12Z"/><path class="cls-1" d="M119.42,101.64v2.6H108.58v-14h10.58v2.6H111.8v3h6.5V98.4h-6.5v3.24Z"/><path class="cls-1" d="M127.66,90.24H134a9,9,0,0,1,4,.87,6.54,6.54,0,0,1,2.72,2.45,7.47,7.47,0,0,1,0,7.36,6.54,6.54,0,0,1-2.72,2.45,9,9,0,0,1-4,.87h-6.36Zm6.2,11.34a4.7,4.7,0,0,0,3.35-1.17,4.64,4.64,0,0,0,0-6.34,4.7,4.7,0,0,0-3.35-1.17h-3v8.68Z"/><path class="cls-1" d="M153.1,104.24l-2.7-3.9h-3v3.9h-3.24v-14h6.06a7.82,7.82,0,0,1,3.23.62,4.78,4.78,0,0,1,2.11,1.76,4.88,4.88,0,0,1,.74,2.7,4.56,4.56,0,0,1-2.88,4.42l3.14,4.5Zm-.82-10.73a3.42,3.42,0,0,0-2.22-.63h-2.64v4.88h2.64a3.36,3.36,0,0,0,2.22-.64,2.52,2.52,0,0,0,0-3.61Z"/><path class="cls-1" d="M158.88,90.24h3.24v14h-3.24Z"/><path class="cls-1" d="M178.28,90.24v14h-2.66l-7-8.5v8.5h-3.2v-14h2.68l7,8.5v-8.5Z"/><path class="cls-1" d="M186.7,98.74l-1.88,2v3.54H181.6v-14h3.22v6.54l6.2-6.54h3.6l-5.8,6.24,6.14,7.76h-3.78Z"/><path class="cls-1" d="M196,96.66a1.91,1.91,0,0,1-.56-1.4,1.84,1.84,0,0,1,.56-1.39,2.06,2.06,0,0,1,2.76,0,1.84,1.84,0,0,1,.56,1.39,1.91,1.91,0,0,1-.56,1.4,2,2,0,0,1-2.76,0Zm0,7.18a1.91,1.91,0,0,1-.56-1.4,1.84,1.84,0,0,1,.56-1.39,2.06,2.06,0,0,1,2.76,0,1.84,1.84,0,0,1,.56,1.39,1.91,1.91,0,0,1-.56,1.4,2,2,0,0,1-2.76,0Z"/><path class="cls-2" d="M210.13,103.55a7,7,0,0,1-2.72-2.58,7.52,7.52,0,0,1,0-7.46,7,7,0,0,1,2.72-2.58,8.68,8.68,0,0,1,7.18-.29,6.65,6.65,0,0,1,2.47,1.84L217.7,94.4a4.49,4.49,0,0,0-3.52-1.64,4.67,4.67,0,0,0-2.32.57,4.05,4.05,0,0,0-1.59,1.59,5,5,0,0,0,0,4.64,4.05,4.05,0,0,0,1.59,1.59,4.67,4.67,0,0,0,2.32.57,4.45,4.45,0,0,0,3.52-1.66l2.08,1.92a6.55,6.55,0,0,1-2.48,1.86,8.2,8.2,0,0,1-3.3.64A8,8,0,0,1,210.13,103.55Z"/><path class="cls-2" d="M224.51,103.54a7,7,0,0,1-2.74-2.59,7.45,7.45,0,0,1,0-7.42,7,7,0,0,1,2.74-2.59,8.66,8.66,0,0,1,7.85,0,7.11,7.11,0,0,1,2.74,2.59,7.38,7.38,0,0,1,0,7.42,7.11,7.11,0,0,1-2.74,2.59,8.66,8.66,0,0,1-7.85,0Zm6.17-2.39a4.07,4.07,0,0,0,1.57-1.59,5,5,0,0,0,0-4.64,4.07,4.07,0,0,0-1.57-1.59,4.69,4.69,0,0,0-4.48,0,4.07,4.07,0,0,0-1.57,1.59,5,5,0,0,0,0,4.64,4.07,4.07,0,0,0,1.57,1.59,4.69,4.69,0,0,0,4.48,0Z"/><path class="cls-2" d="M241.37,103.55a7,7,0,0,1-2.72-2.58,7.52,7.52,0,0,1,0-7.46,7,7,0,0,1,2.72-2.58,8.68,8.68,0,0,1,7.18-.29A6.65,6.65,0,0,1,251,92.48l-2.08,1.92a4.49,4.49,0,0,0-3.52-1.64,4.67,4.67,0,0,0-2.32.57,4.05,4.05,0,0,0-1.59,1.59,5,5,0,0,0,0,4.64,4.05,4.05,0,0,0,1.59,1.59,4.67,4.67,0,0,0,2.32.57,4.45,4.45,0,0,0,3.52-1.66L251,102a6.55,6.55,0,0,1-2.48,1.86,8.2,8.2,0,0,1-3.3.64A8,8,0,0,1,241.37,103.55Z"/><path class="cls-2" d="M262.14,101.24h-6.5l-1.24,3h-3.32l6.24-14h3.2l6.26,14h-3.4Zm-1-2.46-2.22-5.36-2.22,5.36Z"/><path class="cls-2" d="M267.16,97.36h5.66v2.5h-5.66Z"/><path class="cls-2" d="M278.41,103.55a7,7,0,0,1-2.72-2.58,7.52,7.52,0,0,1,0-7.46,7,7,0,0,1,2.72-2.58,8.68,8.68,0,0,1,7.18-.29,6.65,6.65,0,0,1,2.47,1.84L286,94.4a4.49,4.49,0,0,0-3.52-1.64,4.67,4.67,0,0,0-2.32.57,4.05,4.05,0,0,0-1.59,1.59,5,5,0,0,0,0,4.64,4.05,4.05,0,0,0,1.59,1.59,4.67,4.67,0,0,0,2.32.57,4.45,4.45,0,0,0,3.52-1.66l2.08,1.92a6.55,6.55,0,0,1-2.48,1.86,8.2,8.2,0,0,1-3.3.64A8,8,0,0,1,278.41,103.55Z"/><path class="cls-2" d="M292.79,103.54a7,7,0,0,1-2.74-2.59,7.45,7.45,0,0,1,0-7.42,7,7,0,0,1,2.74-2.59,8.66,8.66,0,0,1,7.85,0,7.11,7.11,0,0,1,2.74,2.59,7.38,7.38,0,0,1,0,7.42,7.11,7.11,0,0,1-2.74,2.59,8.66,8.66,0,0,1-7.85,0Zm6.17-2.39a4.07,4.07,0,0,0,1.57-1.59,5,5,0,0,0,0-4.64A4.07,4.07,0,0,0,299,93.33a4.69,4.69,0,0,0-4.48,0,4.07,4.07,0,0,0-1.57,1.59,5,5,0,0,0,0,4.64,4.07,4.07,0,0,0,1.57,1.59,4.69,4.69,0,0,0,4.48,0Z"/><path class="cls-2" d="M306.82,90.24h3.24V101.6h7v2.64H306.82Z"/><path class="cls-2" d="M328.24,101.24h-6.5l-1.24,3h-3.32l6.24-14h3.2l6.26,14h-3.4Zm-1-2.46L325,93.42l-2.22,5.36Z"/></g></g></svg>