<svg xmlns="http://www.w3.org/2000/svg" viewBox="0 0 473 365"><defs><style>.cls-1{fill:#fff;}.cls-2{fill:#ff9492;}.cls-3{fill:#9f9ef2;}.cls-4{fill:#6dfebf;}.cls-5{fill:#534d72;}</style></defs><title>Asset 11</title><g id="Layer_2" data-name="Layer 2"><g id="Layer_8" data-name="Layer 8"><rect class="cls-1" width="473" height="365"/><rect class="cls-2" x="6" y="307" width="94" height="13"/><path class="cls-2" d="M47.62,8.35H38.48V3H63.36V8.35H54.22V31.52h-6.6Z"/><path class="cls-2" d="M87.4,11.7q2.5,2.45,2.51,7.26V31.52H83.54V19.94A5.75,5.75,0,0,0,82.4,16a4.17,4.17,0,0,0-3.3-1.28,5.06,5.06,0,0,0-3.83,1.48,6.15,6.15,0,0,0-1.43,4.43V31.52H67.48V1.26h6.36v10.6A8.48,8.48,0,0,1,76.9,9.92a11.22,11.22,0,0,1,3.91-.67A9,9,0,0,1,87.4,11.7Z"/><path class="cls-2" d="M118.29,22.34h-16.6a5.19,5.19,0,0,0,2.12,3.22A7,7,0,0,0,108,26.75a8.46,8.46,0,0,0,3-.51,7.43,7.43,0,0,0,2.47-1.62l3.38,3.67q-3.1,3.56-9,3.55a14.38,14.38,0,0,1-6.57-1.44,10.66,10.66,0,0,1-4.4-4,11,11,0,0,1-1.55-5.83,11.18,11.18,0,0,1,1.53-5.81,10.67,10.67,0,0,1,4.2-4,13,13,0,0,1,11.8-.06,10.11,10.11,0,0,1,4.1,4,11.89,11.89,0,0,1,1.49,6Q118.41,20.75,118.29,22.34Zm-14.89-7a5.19,5.19,0,0,0-1.79,3.34h10.81a5.26,5.26,0,0,0-1.8-3.32A5.36,5.36,0,0,0,107,14.06,5.47,5.47,0,0,0,103.4,15.29Z"/><path class="cls-2" d="M161.47,19.26a7.11,7.11,0,0,1,1.39,4.47,6.59,6.59,0,0,1-2.92,5.77c-1.94,1.34-4.77,2-8.5,2H136.68V3h13.95q5.22,0,8,2a6.32,6.32,0,0,1,2.79,5.42,6.87,6.87,0,0,1-3.79,6.28A7.53,7.53,0,0,1,161.47,19.26ZM143.25,8v6.72h6.56a6.63,6.63,0,0,0,3.71-.85,2.87,2.87,0,0,0,1.27-2.53,2.83,2.83,0,0,0-1.27-2.51A6.73,6.73,0,0,0,149.81,8Zm11.64,17.74A3,3,0,0,0,156.21,23q0-3.54-5.26-3.54h-7.7v7.05H151A7.37,7.37,0,0,0,154.89,25.69Z"/><path class="cls-2" d="M185.13,11.68q2.73,2.41,2.73,7.32V31.52h-6V28.78q-1.78,3.06-6.68,3.06a10.42,10.42,0,0,1-4.39-.85A6.47,6.47,0,0,1,168,28.62a6.16,6.16,0,0,1-1-3.42,5.74,5.74,0,0,1,2.3-4.82q2.31-1.75,7.12-1.75h5.06a4.06,4.06,0,0,0-1.27-3.2,5.55,5.55,0,0,0-3.79-1.12,11,11,0,0,0-3.45.55,9.16,9.16,0,0,0-2.87,1.49l-2.29-4.45a14.14,14.14,0,0,1,4.31-2,19.34,19.34,0,0,1,5.16-.69Q182.39,9.25,185.13,11.68ZM179.7,26.81a4.22,4.22,0,0,0,1.8-2.23V22.34h-4.37q-3.91,0-3.91,2.57a2.29,2.29,0,0,0,1,1.94,4.35,4.35,0,0,0,2.63.71A5.56,5.56,0,0,0,179.7,26.81Z"/><path class="cls-2" d="M213.16,10.66a10.11,10.11,0,0,1,3.94,3.95,12,12,0,0,1,1.42,5.94,12,12,0,0,1-1.42,5.93,10.14,10.14,0,0,1-3.94,4,11.25,11.25,0,0,1-5.56,1.4A8.46,8.46,0,0,1,200.7,29v2.53h-6.07V1.26H201V11.9a8.45,8.45,0,0,1,6.61-2.65A11.16,11.16,0,0,1,213.16,10.66ZM210.51,25a6.13,6.13,0,0,0,1.57-4.42,6.15,6.15,0,0,0-1.57-4.43,5.71,5.71,0,0,0-8,0,6.15,6.15,0,0,0-1.57,4.43A6.13,6.13,0,0,0,202.48,25a5.71,5.71,0,0,0,8,0Z"/><path class="cls-2" d="M245,9.58,235,32.86a11.47,11.47,0,0,1-3.73,5.34A9.09,9.09,0,0,1,226,39.75a11,11,0,0,1-3.39-.53,7.54,7.54,0,0,1-2.73-1.46l2.32-4.53a5.7,5.7,0,0,0,1.7,1,5.33,5.33,0,0,0,1.89.37,3.37,3.37,0,0,0,2.12-.64,5.23,5.23,0,0,0,1.47-2.1l.08-.2-9.5-22.1h6.57l6.15,14.88,6.2-14.88Z"/><path class="cls-2" d="M275.29,21.4V31.52h-6.61V21.32L257.63,3h7l7.62,12.68L279.9,3h6.48Z"/><path class="cls-2" d="M308.65,22.34h-16.6a5.19,5.19,0,0,0,2.12,3.22,7,7,0,0,0,4.16,1.19,8.46,8.46,0,0,0,3-.51,7.43,7.43,0,0,0,2.47-1.62l3.38,3.67q-3.11,3.56-9.05,3.55a14.38,14.38,0,0,1-6.57-1.44,10.66,10.66,0,0,1-4.4-4,11,11,0,0,1-1.55-5.83,11.18,11.18,0,0,1,1.53-5.81,10.67,10.67,0,0,1,4.2-4,13,13,0,0,1,11.8-.06,10.11,10.11,0,0,1,4.1,4,11.89,11.89,0,0,1,1.49,6Q308.77,20.75,308.65,22.34Zm-14.89-7A5.19,5.19,0,0,0,292,18.63h10.81a5.26,5.26,0,0,0-1.8-3.32,5.36,5.36,0,0,0-3.59-1.25A5.47,5.47,0,0,0,293.76,15.29Z"/><path class="cls-2" d="M330.1,11.68q2.73,2.41,2.73,7.32V31.52h-5.95V28.78q-1.8,3.06-6.69,3.06A10.42,10.42,0,0,1,315.8,31,6.53,6.53,0,0,1,313,28.62a6.16,6.16,0,0,1-1-3.42,5.74,5.74,0,0,1,2.3-4.82q2.31-1.75,7.12-1.75h5.06a4,4,0,0,0-1.27-3.2,5.54,5.54,0,0,0-3.79-1.12,10.91,10.91,0,0,0-3.44.55,9.11,9.11,0,0,0-2.88,1.49l-2.28-4.45a14,14,0,0,1,4.3-2,19.34,19.34,0,0,1,5.16-.69Q327.37,9.25,330.1,11.68Zm-5.43,15.13a4.17,4.17,0,0,0,1.8-2.23V22.34H322.1c-2.6,0-3.91.86-3.91,2.57a2.29,2.29,0,0,0,1,1.94,4.35,4.35,0,0,0,2.63.71A5.53,5.53,0,0,0,324.67,26.81Z"/><path class="cls-2" d="M348.75,10.07a11.32,11.32,0,0,1,4.47-.82v5.87c-.71,0-1.18-.08-1.43-.08a5.82,5.82,0,0,0-4.28,1.53A6.2,6.2,0,0,0,346,21.16V31.52H339.6V9.58h6.08v2.89A7,7,0,0,1,348.75,10.07Z"/><path class="cls-2" d="M360.15,31.17A14.07,14.07,0,0,1,356,29.48l2.12-4.57a13.19,13.19,0,0,0,3.55,1.53,15.07,15.07,0,0,0,4.08.59q4,0,4-2a1.41,1.41,0,0,0-1.1-1.34,16.52,16.52,0,0,0-3.39-.7,32.78,32.78,0,0,1-4.44-.93,6.9,6.9,0,0,1-3-1.88,5.33,5.33,0,0,1-1.29-3.83,5.94,5.94,0,0,1,1.21-3.69,7.71,7.71,0,0,1,3.5-2.51,15,15,0,0,1,5.45-.9,21.39,21.39,0,0,1,4.63.51,13,13,0,0,1,3.81,1.41L373,15.69a12.74,12.74,0,0,0-6.32-1.63,6.45,6.45,0,0,0-3.06.57,1.68,1.68,0,0,0-1,1.47,1.46,1.46,0,0,0,1.1,1.43,19.17,19.17,0,0,0,3.51.77,37.68,37.68,0,0,1,4.4,1,6.61,6.61,0,0,1,3,1.86,5.27,5.27,0,0,1,1.26,3.75,5.76,5.76,0,0,1-1.22,3.63A7.9,7.9,0,0,1,371.06,31a16,16,0,0,1-5.56.87A21.26,21.26,0,0,1,360.15,31.17Z"/><rect class="cls-3" x="24" y="213" width="94" height="13"/><rect class="cls-4" x="71" y="257" width="94" height="13"/><path class="cls-3" d="M371,247.5l-98.9,22.84A101.5,101.5,0,0,1,348.17,148.6,98,98,0,0,1,371,146Z"/><path class="cls-2" d="M371,247.5l99.29,21.11A101.51,101.51,0,0,1,349.9,346.79c-39.16-8.32-68.8-37.45-77.8-76.45Z"/><path class="cls-4" d="M371,247.5V146A101.5,101.5,0,0,1,472.5,247.5a90.85,90.85,0,0,1-2.21,21.11Z"/><path class="cls-5" d="M38.13,218.55A9.48,9.48,0,0,1,35,217.08L36.39,214a9.59,9.59,0,0,0,2.68,1.33,10.15,10.15,0,0,0,3.1.5,5,5,0,0,0,2.55-.51,1.56,1.56,0,0,0,.82-1.37,1.3,1.3,0,0,0-.48-1,3.71,3.71,0,0,0-1.25-.67c-.51-.16-1.2-.35-2.07-.55a26.69,26.69,0,0,1-3.27-.95,5.27,5.27,0,0,1-2.19-1.52,4.12,4.12,0,0,1-.91-2.8,4.84,4.84,0,0,1,.82-2.76,5.57,5.57,0,0,1,2.49-2,10.21,10.21,0,0,1,4.06-.72,13.33,13.33,0,0,1,3.28.4,9.46,9.46,0,0,1,2.8,1.15l-1.25,3.07a9.82,9.82,0,0,0-4.85-1.37,4.51,4.51,0,0,0-2.51.55,1.68,1.68,0,0,0-.82,1.45,1.44,1.44,0,0,0,.94,1.34,15.53,15.53,0,0,0,2.86.86,26.38,26.38,0,0,1,3.28.95,5.51,5.51,0,0,1,2.19,1.5,4.05,4.05,0,0,1,.91,2.77,4.76,4.76,0,0,1-.84,2.74,5.55,5.55,0,0,1-2.51,2,10.16,10.16,0,0,1-4.08.73A14.49,14.49,0,0,1,38.13,218.55Z"/><path class="cls-5" d="M52.69,200.26h3.9v18.55h-3.9Z"/><path class="cls-5" d="M73.94,213.18H63.77a3.14,3.14,0,0,0,1.3,2,4.31,4.31,0,0,0,2.55.72,5.11,5.11,0,0,0,1.86-.31,4.49,4.49,0,0,0,1.51-1l2.08,2.25A7,7,0,0,1,67.52,219a8.82,8.82,0,0,1-4-.89,6.57,6.57,0,0,1-2.7-2.46,6.82,6.82,0,0,1-.95-3.58,6.94,6.94,0,0,1,.94-3.56,6.52,6.52,0,0,1,2.58-2.47,7.95,7.95,0,0,1,7.23,0,6.17,6.17,0,0,1,2.52,2.44,7.3,7.3,0,0,1,.91,3.68C74,212.18,74,212.53,73.94,213.18Zm-9.12-4.32a3.17,3.17,0,0,0-1.1,2h6.62a3.22,3.22,0,0,0-1.1-2,3.27,3.27,0,0,0-2.2-.76A3.35,3.35,0,0,0,64.82,208.86Z"/><path class="cls-5" d="M90.34,213.18H80.17a3.18,3.18,0,0,0,1.3,2,4.31,4.31,0,0,0,2.55.72,5.11,5.11,0,0,0,1.86-.31,4.49,4.49,0,0,0,1.51-1l2.08,2.25A7,7,0,0,1,83.92,219a8.82,8.82,0,0,1-4-.89,6.57,6.57,0,0,1-2.7-2.46,6.82,6.82,0,0,1-1-3.58,6.94,6.94,0,0,1,.94-3.56,6.52,6.52,0,0,1,2.58-2.47A7.95,7.95,0,0,1,87,206a6.17,6.17,0,0,1,2.52,2.44,7.3,7.3,0,0,1,.91,3.68C90.42,212.18,90.39,212.53,90.34,213.18Zm-9.12-4.32a3.17,3.17,0,0,0-1.1,2h6.62a3.22,3.22,0,0,0-1.1-2,3.27,3.27,0,0,0-2.2-.76A3.35,3.35,0,0,0,81.22,208.86Z"/><path class="cls-5" d="M105,206a6.26,6.26,0,0,1,2.41,2.43,8,8,0,0,1,0,7.27,6.32,6.32,0,0,1-2.41,2.43,7,7,0,0,1-3.42.86,5.19,5.19,0,0,1-4-1.63v6.28h-3.9v-18.3h3.73v1.55a5.14,5.14,0,0,1,4.22-1.75A7,7,0,0,1,105,206Zm-1.63,8.78a4.32,4.32,0,0,0,0-5.43,3.5,3.5,0,0,0-4.92,0,4.28,4.28,0,0,0,0,5.43,3.5,3.5,0,0,0,4.92,0Z"/><path class="cls-5" d="M111.72,202.86a2,2,0,0,1-.68-1.55,2,2,0,0,1,.68-1.55,2.46,2.46,0,0,1,1.75-.63,2.53,2.53,0,0,1,1.75.6,1.92,1.92,0,0,1,.67,1.5,2.14,2.14,0,0,1-.67,1.62,2.46,2.46,0,0,1-1.75.63A2.49,2.49,0,0,1,111.72,202.86Zm-.2,2.5h3.9v13.45h-3.9Z"/><path class="cls-5" d="M131.88,206.66a5.92,5.92,0,0,1,1.54,4.45v7.7h-3.9v-7.1a3.55,3.55,0,0,0-.7-2.39,2.59,2.59,0,0,0-2-.79,3.12,3.12,0,0,0-2.35.92,3.77,3.77,0,0,0-.87,2.71v6.65h-3.9V205.36h3.72v1.57a5.29,5.29,0,0,1,1.93-1.31,6.65,6.65,0,0,1,2.52-.46A5.53,5.53,0,0,1,131.88,206.66Z"/><path class="cls-5" d="M151.59,205.36v11.2c0,2.46-.64,4.3-1.92,5.5a8,8,0,0,1-5.63,1.8,14,14,0,0,1-3.7-.48,8.05,8.05,0,0,1-2.9-1.37l1.55-2.8a6.5,6.5,0,0,0,2.15,1.11,8.45,8.45,0,0,0,2.6.41,4.21,4.21,0,0,0,3-.91,3.64,3.64,0,0,0,1-2.76v-.58a5.43,5.43,0,0,1-4.25,1.68,7.12,7.12,0,0,1-3.38-.81,6.25,6.25,0,0,1-2.44-2.29,6.87,6.87,0,0,1,0-6.8,6.11,6.11,0,0,1,2.44-2.29,7.12,7.12,0,0,1,3.38-.81,5.34,5.34,0,0,1,4.45,1.92v-1.72Zm-4.83,8.69a3.4,3.4,0,0,0,0-4.78,4,4,0,0,0-5.09,0,3.36,3.36,0,0,0,0,4.78,4,4,0,0,0,5.09,0Z"/><path class="cls-5" d="M48,298.08a6,6,0,0,1,2.63,2.2,6.57,6.57,0,0,1,0,6.74,5.84,5.84,0,0,1-2.63,2.2,9.84,9.84,0,0,1-4,.76H40.44v4.83h-4v-17.5H44A9.84,9.84,0,0,1,48,298.08Zm-1.49,7.82a3.14,3.14,0,0,0,0-4.5,4.23,4.23,0,0,0-2.78-.79h-3.3v6.07h3.3A4.29,4.29,0,0,0,46.52,305.9Z"/><path class="cls-5" d="M55,296.26h3.9v18.55H55Z"/><path class="cls-5" d="M73.42,302.65a5.66,5.66,0,0,1,1.67,4.48v7.68H71.44v-1.68c-.73,1.25-2.1,1.88-4.1,1.88a6.31,6.31,0,0,1-2.68-.53A4,4,0,0,1,62.92,313a3.74,3.74,0,0,1-.6-2.1A3.51,3.51,0,0,1,63.73,308a7.25,7.25,0,0,1,4.36-1.07h3.1a2.49,2.49,0,0,0-.77-2,3.41,3.41,0,0,0-2.33-.69,6.66,6.66,0,0,0-2.11.34,5.33,5.33,0,0,0-1.76.91l-1.4-2.73a8.68,8.68,0,0,1,2.64-1.2,11.92,11.92,0,0,1,3.16-.42A7,7,0,0,1,73.42,302.65Zm-3.33,9.27a2.49,2.49,0,0,0,1.1-1.36v-1.38H68.52c-1.6,0-2.4.53-2.4,1.58a1.4,1.4,0,0,0,.59,1.19,2.63,2.63,0,0,0,1.61.43A3.34,3.34,0,0,0,70.09,311.92Z"/><path class="cls-5" d="M92.34,301.36l-6.07,14.27A7.09,7.09,0,0,1,84,318.91a5.62,5.62,0,0,1-3.29.95,6.69,6.69,0,0,1-2.07-.33,4.42,4.42,0,0,1-1.68-.9l1.43-2.77a3.38,3.38,0,0,0,1,.62,3.19,3.19,0,0,0,1.16.23,2.05,2.05,0,0,0,1.3-.39,3.38,3.38,0,0,0,.9-1.29l0-.12L77,301.36h4l3.77,9.12,3.8-9.12Z"/><path class="cls-5" d="M94.77,298.86a2,2,0,0,1-.68-1.55,2,2,0,0,1,.68-1.55,2.46,2.46,0,0,1,1.75-.63,2.53,2.53,0,0,1,1.75.6,1.92,1.92,0,0,1,.67,1.5,2.14,2.14,0,0,1-.67,1.62,2.46,2.46,0,0,1-1.75.63A2.49,2.49,0,0,1,94.77,298.86Zm-.2,2.5h3.9v13.45h-3.9Z"/><path class="cls-5" d="M114.93,302.66a5.92,5.92,0,0,1,1.54,4.45v7.7h-3.9v-7.1a3.55,3.55,0,0,0-.7-2.39,2.59,2.59,0,0,0-2-.79,3.12,3.12,0,0,0-2.35.92,3.77,3.77,0,0,0-.87,2.71v6.65h-3.9V301.36h3.72v1.57a5.29,5.29,0,0,1,1.93-1.31,6.65,6.65,0,0,1,2.52-.46A5.53,5.53,0,0,1,114.93,302.66Z"/><path class="cls-5" d="M134.64,301.36v11.2c0,2.46-.64,4.3-1.92,5.5a8,8,0,0,1-5.63,1.8,14,14,0,0,1-3.7-.48,8.05,8.05,0,0,1-2.9-1.37l1.55-2.8a6.5,6.5,0,0,0,2.15,1.11,8.45,8.45,0,0,0,2.6.41,4.21,4.21,0,0,0,3-.91,3.64,3.64,0,0,0,1-2.76v-.58a5.43,5.43,0,0,1-4.25,1.68,7.12,7.12,0,0,1-3.38-.81,6.25,6.25,0,0,1-2.44-2.29,6.87,6.87,0,0,1,0-6.8,6.11,6.11,0,0,1,2.44-2.29,7.12,7.12,0,0,1,3.38-.81,5.34,5.34,0,0,1,4.45,1.92v-1.72Zm-4.83,8.69a3.4,3.4,0,0,0,0-4.78,4,4,0,0,0-5.09,0,3.36,3.36,0,0,0,0,4.78,4,4,0,0,0,5.09,0Z"/><path class="cls-5" d="M146.87,297.31h4v14.2h8.77v3.3H146.87Z"/><path class="cls-5" d="M164.8,314.12a6.57,6.57,0,0,1-2.63-2.46,7.2,7.2,0,0,1,0-7.15,6.57,6.57,0,0,1,2.63-2.46,8,8,0,0,1,3.82-.89,7.92,7.92,0,0,1,3.8.89,6.61,6.61,0,0,1,2.62,2.46,7.2,7.2,0,0,1,0,7.15,6.61,6.61,0,0,1-2.62,2.46,8,8,0,0,1-3.8.89A8.12,8.12,0,0,1,164.8,314.12Zm6.28-3.32a4.32,4.32,0,0,0,0-5.43,3.26,3.26,0,0,0-2.46-1,3.32,3.32,0,0,0-2.48,1,4.28,4.28,0,0,0,0,5.43,3.32,3.32,0,0,0,2.48,1A3.26,3.26,0,0,0,171.08,310.8Z"/><path class="cls-5" d="M192.77,301.36v13.45h-3.7v-1.6a5.33,5.33,0,0,1-1.85,1.34,6,6,0,0,1-2.33.46,5.72,5.72,0,0,1-4.2-1.53,6.07,6.07,0,0,1-1.55-4.52v-7.6H183v7c0,2.17.91,3.25,2.73,3.25a2.93,2.93,0,0,0,2.25-.91,3.88,3.88,0,0,0,.85-2.71v-6.65Z"/><path class="cls-5" d="M210.72,296.26v18.55H207v-1.55a5.16,5.16,0,0,1-4.2,1.75,7,7,0,0,1-3.44-.85,6.19,6.19,0,0,1-2.41-2.43,8.09,8.09,0,0,1,0-7.3,6.1,6.1,0,0,1,2.41-2.42,7,7,0,0,1,3.44-.85,5.13,5.13,0,0,1,4,1.62v-6.52Zm-4.8,14.54a4.28,4.28,0,0,0,0-5.43,3.28,3.28,0,0,0-2.45-1,3.32,3.32,0,0,0-2.48,1,4.28,4.28,0,0,0,0,5.43,3.32,3.32,0,0,0,2.48,1A3.28,3.28,0,0,0,205.92,310.8Z"/><path class="cls-5" d="M214.94,296.26h3.9v18.55h-3.9Z"/><path class="cls-5" d="M236.44,301.36l-6.07,14.27a7.09,7.09,0,0,1-2.29,3.28,5.65,5.65,0,0,1-3.29.95,6.69,6.69,0,0,1-2.07-.33,4.34,4.34,0,0,1-1.68-.9l1.43-2.77a3.45,3.45,0,0,0,1,.62,3.25,3.25,0,0,0,1.17.23,2.07,2.07,0,0,0,1.3-.39,3.38,3.38,0,0,0,.9-1.29l0-.12-5.83-13.55h4l3.77,9.12,3.8-9.12Z"/><path class="cls-5" d="M49.22,260.18H39a3.22,3.22,0,0,0,1.3,2,4.36,4.36,0,0,0,2.55.72,5.2,5.2,0,0,0,1.87-.31,4.59,4.59,0,0,0,1.51-1l2.07,2.25A7,7,0,0,1,42.79,266a8.81,8.81,0,0,1-4-.89,6.45,6.45,0,0,1-2.7-2.46,7.22,7.22,0,0,1,0-7.14,6.5,6.5,0,0,1,2.57-2.47,8,8,0,0,1,7.24,0,6.14,6.14,0,0,1,2.51,2.44,7.2,7.2,0,0,1,.91,3.68C49.29,259.18,49.27,259.53,49.22,260.18Zm-9.13-4.32a3.21,3.21,0,0,0-1.1,2.05h6.63a3.22,3.22,0,0,0-1.1-2,3.27,3.27,0,0,0-2.2-.76A3.38,3.38,0,0,0,40.09,255.86Z"/><path class="cls-5" d="M62.37,253.65A5.66,5.66,0,0,1,64,258.13v7.68H60.39v-1.68c-.73,1.25-2.1,1.88-4.1,1.88a6.34,6.34,0,0,1-2.68-.53A4,4,0,0,1,51.87,264a3.74,3.74,0,0,1-.6-2.1A3.51,3.51,0,0,1,52.68,259,7.25,7.25,0,0,1,57,257.91h3.1a2.45,2.45,0,0,0-.77-2,3.41,3.41,0,0,0-2.33-.69,6.66,6.66,0,0,0-2.11.34,5.33,5.33,0,0,0-1.76.91l-1.4-2.73a8.68,8.68,0,0,1,2.64-1.2,11.92,11.92,0,0,1,3.16-.42A7,7,0,0,1,62.37,253.65ZM59,262.92a2.49,2.49,0,0,0,1.1-1.36v-1.38H57.47c-1.6,0-2.4.53-2.4,1.58a1.42,1.42,0,0,0,.59,1.19,2.65,2.65,0,0,0,1.61.43A3.34,3.34,0,0,0,59,262.92Z"/><path class="cls-5" d="M76.87,265.16a4.17,4.17,0,0,1-1.41.64,7.27,7.27,0,0,1-1.77.21A5.22,5.22,0,0,1,70,264.78a4.69,4.69,0,0,1-1.31-3.6v-5.52H66.59v-3h2.08v-3.28h3.9v3.28h3.35v3H72.57v5.47a1.82,1.82,0,0,0,.44,1.32,1.64,1.64,0,0,0,1.23.46,2.53,2.53,0,0,0,1.58-.5Z"/><path class="cls-5" d="M79.89,249.86a2,2,0,0,1-.67-1.55,2,2,0,0,1,.67-1.55,2.47,2.47,0,0,1,1.75-.63,2.53,2.53,0,0,1,1.75.6,1.93,1.93,0,0,1,.68,1.5,2.15,2.15,0,0,1-.68,1.62,2.46,2.46,0,0,1-1.75.63A2.51,2.51,0,0,1,79.89,249.86Zm-.2,2.5h3.9v13.45h-3.9Z"/><path class="cls-5" d="M100.06,253.66a6,6,0,0,1,1.53,4.45v7.7h-3.9v-7.1a3.5,3.5,0,0,0-.7-2.39,2.57,2.57,0,0,0-2-.79,3.1,3.1,0,0,0-2.35.92,3.77,3.77,0,0,0-.88,2.71v6.65h-3.9V252.36h3.73v1.57a5.25,5.25,0,0,1,1.92-1.31,6.7,6.7,0,0,1,2.53-.46A5.54,5.54,0,0,1,100.06,253.66Z"/><path class="cls-5" d="M119.77,252.36v11.2c0,2.46-.64,4.3-1.93,5.5a7.92,7.92,0,0,1-5.62,1.8,14,14,0,0,1-3.7-.48,7.9,7.9,0,0,1-2.9-1.37l1.55-2.8a6.41,6.41,0,0,0,2.15,1.11,8.4,8.4,0,0,0,2.6.41,4.23,4.23,0,0,0,3-.91,3.64,3.64,0,0,0,1-2.76v-.58a5.45,5.45,0,0,1-4.25,1.68,7.16,7.16,0,0,1-3.39-.81,6.32,6.32,0,0,1-2.44-2.29,6.87,6.87,0,0,1,0-6.8,6.18,6.18,0,0,1,2.44-2.29,7.16,7.16,0,0,1,3.39-.81,5.35,5.35,0,0,1,4.45,1.92v-1.72Zm-4.84,8.69a3.38,3.38,0,0,0,0-4.78,3.58,3.58,0,0,0-2.54-.91,3.64,3.64,0,0,0-2.55.91,3.36,3.36,0,0,0,0,4.78,3.69,3.69,0,0,0,2.55.91A3.63,3.63,0,0,0,114.93,261.05Z"/></g></g></svg>