<svg xmlns="http://www.w3.org/2000/svg" viewBox="0 0 210.99 213.48"><defs><style>.cls-1{fill:#ff9492;}.cls-2{fill:none;stroke:#534d72;stroke-miterlimit:10;stroke-width:9.88px;}.cls-3{fill:#534d72;}</style></defs><title>baby</title><g id="Layer_2" data-name="Layer 2"><g id="Layer_8" data-name="Layer 8"><path class="cls-1" d="M99.84,45.82h0a4.92,4.92,0,0,1,2.67-6.32c20.85-8.86,35-20.73,44-36.93A5,5,0,0,1,153,.49h0a5,5,0,0,1,2.2,6.82c-10.12,18.23-25.83,31.5-48.84,41.27A5,5,0,0,1,99.84,45.82Z"/><path class="cls-1" d="M139.63,49.24h0a4.93,4.93,0,0,1,2.65-6.3c15.46-6.74,26.13-15.65,33.07-27.63a5,5,0,0,1,6.45-2h0A4.93,4.93,0,0,1,184,20.12c-8,14-20.21,24.23-37.8,31.88A4.94,4.94,0,0,1,139.63,49.24Z"/><path class="cls-2" d="M120.16,178.09c40.66-6.42,71.61-39.12,71.61-78.49,0-44-38.63-79.64-86.28-79.64S19.22,55.62,19.22,99.6c0,39.37,30.94,72.07,71.61,78.49a18.78,18.78,0,0,0,29.33,0Z"/><path class="cls-2" d="M191.42,106.8h.35c7.89,0,14.28,8.06,14.28,18s-6.39,18-14.28,18a13.06,13.06,0,0,1-10.29-5.51"/><path class="cls-2" d="M29.51,137.33a13.06,13.06,0,0,1-10.29,5.51c-7.89,0-14.28-8.07-14.28-18s6.39-18,14.28-18h.35"/><ellipse class="cls-3" cx="78.74" cy="120.55" rx="8.46" ry="10.58"/><ellipse class="cls-3" cx="139.74" cy="120.55" rx="8.46" ry="10.58"/><path class="cls-3" d="M107,161.47a32.83,32.83,0,0,1-14.16-2.92A17.31,17.31,0,0,1,88,155.19a4.93,4.93,0,0,1,3.6-8.31h.06a4.92,4.92,0,0,1,3.5,1.48c1.7,1.72,6.17,3.23,11.75,3.23s10-1.51,11.74-3.23a4.92,4.92,0,0,1,3.5-1.48h0a4.92,4.92,0,0,1,3.62,8.28C122,159.08,115.25,161.47,107,161.47Z"/><path class="cls-3" d="M89.49,47.53h0a4.94,4.94,0,0,1,2.68-6.32c20.85-8.86,35-20.73,44-36.92a5,5,0,0,1,6.48-2.09h0A4.94,4.94,0,0,1,144.88,9c-10.11,18.23-25.82,31.5-48.83,41.28A5,5,0,0,1,89.49,47.53Z"/><path class="cls-3" d="M129.29,51h0a4.94,4.94,0,0,1,2.65-6.31C147.4,37.9,158.07,29,165,17a5,5,0,0,1,6.45-2h0a4.94,4.94,0,0,1,2.17,6.86c-8,14-20.21,24.23-37.8,31.87A4.93,4.93,0,0,1,129.29,51Z"/><path class="cls-2" d="M154,165.49c10.24,12,15.78,22.85,18.6,30.88a9.19,9.19,0,0,1-8.72,12.18H47.14a9.19,9.19,0,0,1-8.72-12.18c2.82-8,8.36-18.84,18.6-30.88"/></g></g></svg>