<svg xmlns="http://www.w3.org/2000/svg" viewBox="0 0 239 266"><defs><style>.cls-1,.cls-4{fill:#534d72;}.cls-2{fill:#6dfebf;}.cls-3{fill:none;stroke-width:9.88px;}.cls-3,.cls-4{stroke:#534d72;stroke-miterlimit:10;}.cls-4{stroke-width:4.25px;}</style></defs><title>child</title><g id="Layer_2" data-name="Layer 2"><g id="Layer_8" data-name="Layer 8"><ellipse class="cls-1" cx="88.28" cy="95.1" rx="6.29" ry="7.86"/><ellipse class="cls-1" cx="148.28" cy="95.1" rx="6.29" ry="7.86"/><rect class="cls-2" x="98.16" y="177.17" width="127.04" height="51.34" rx="23.05" ry="23.05"/><rect class="cls-1" x="134.84" y="75.63" width="26.84" height="6.39" rx="3.2" ry="3.2"/><path class="cls-1" d="M122.54,124.35h-9.19a3.2,3.2,0,0,1-3.2-3.2V85.22A3.19,3.19,0,0,0,107,82H83.51a3.19,3.19,0,0,1-3.2-3.19h0a3.2,3.2,0,0,1,3.2-3.2h29.84a3.19,3.19,0,0,1,3.19,3.2v35.93a3.19,3.19,0,0,0,3.2,3.19h2.8a3.2,3.2,0,0,1,3.2,3.2h0A3.21,3.21,0,0,1,122.54,124.35Z"/><path class="cls-1" d="M140.55,142.86a123.74,123.74,0,0,1-44.63,0,1.31,1.31,0,0,1-1-1.55l.85-3.55a1.29,1.29,0,0,1,1.55-.94c13.68,2.9,28.24,3.29,41.91,0a1.3,1.3,0,0,1,1.56.94l.85,3.55A1.33,1.33,0,0,1,140.55,142.86Z"/><rect class="cls-1" x="105.85" y="147.88" width="26.84" height="6.19" rx="3.1" ry="3.1"/><path class="cls-3" d="M120.28,261.06H4.94V243.92c0-14.22,16.87-28.45,44.69-32,11.11-1.43,21.65-6.22,29.35-14.36,6.62-7,11.69-15.2,11.69-28.45"/><path class="cls-3" d="M118.72,261.06H234.06V243.92c0-14.22-16.87-28.45-44.69-32-11.11-1.43-21.65-6.22-29.34-14.36-6.63-7-11.69-15.2-11.69-28.45"/><path class="cls-3" d="M174.21,41.68v74c0,35.1-31,64-53.68,64h-2.06c-22.71,0-53.68-28.9-53.68-64v-65c0-8.88,2.74-16.73,10.65-21.2C75.5,33.41,86,27.9,86,27.9c8.26-13.42,16.67-21.33,22.17-20.65-2.75,5.17-2.64,15.14-2.64,15.14,5.74-3.09,19.73-15.65,26.84-16.68,0,7.05,6.81,16.08,6.81,16.08,6.2-5.16,24.59-8.34,26.11-8.69-3.14,5.47,2.75,13.08,2.75,13.08C174.26,36.85,174.21,41.68,174.21,41.68Z"/><path class="cls-4" d="M55.14,261.06H50.31V243a2.41,2.41,0,0,1,2.42-2.41h0A2.41,2.41,0,0,1,55.14,243Z"/><path class="cls-4" d="M183.86,261.06h4.83V243a2.41,2.41,0,0,0-2.41-2.41h0a2.41,2.41,0,0,0-2.42,2.41Z"/><rect class="cls-3" x="55.54" y="80.99" width="7.57" height="22.88" rx="1.83" ry="1.83"/><rect class="cls-3" x="175.89" y="80.99" width="7.57" height="22.88" rx="1.83" ry="1.83" transform="translate(359.35 184.86) rotate(-180)"/><path class="cls-3" d="M158.69,196.09h0a117,117,0,0,1-78.38,0h0"/><path class="cls-3" d="M64.79,86.05l5.15-12.11A30.94,30.94,0,0,1,98.42,55.1h44.27A31,31,0,0,1,170.28,72l3.93,7.73"/></g></g></svg>