<svg xmlns="http://www.w3.org/2000/svg" viewBox="0 0 294.14 266.94"><defs><style>.cls-1{fill:#fa9597;}.cls-2,.cls-5{fill:none;}.cls-2,.cls-4,.cls-5{stroke:#534d72;stroke-miterlimit:10;}.cls-2{stroke-width:9.88px;}.cls-3,.cls-4{fill:#534d72;}.cls-4{stroke-width:5.1px;}.cls-5{stroke-width:7.65px;}</style></defs><title>future</title><g id="Layer_2" data-name="Layer 2"><g id="Layer_1-2" data-name="Layer 1"><circle class="cls-1" cx="215.31" cy="164.42" r="69.21"/><path class="cls-2" d="M148,262H4.94V240.73c0-17.65,20.93-35.29,55.45-39.72,13.78-1.76,26.86-7.71,36.4-17.81,8.22-8.7,14.5-18.86,14.5-35.29"/><path class="cls-2" d="M146.1,262H289.2V240.73c0-17.65-20.93-35.29-55.45-39.72-13.79-1.76-26.86-7.71-36.4-17.81-8.22-8.7-14.51-18.86-14.51-35.29"/><path class="cls-2" d="M198.31,51.22V107.3c0,32.87-29,59.94-50.27,59.94H146.1c-21.27,0-50.28-27.07-50.28-59.94V72.49"/><rect class="cls-3" x="124.83" y="128.57" width="44.48" height="5.8" rx="2.88" ry="2.88"/><rect class="cls-4" x="174.14" y="217.28" width="44.48" height="5.8" rx="1.5" ry="1.5"/><rect class="cls-3" x="135.47" y="139.2" width="25.14" height="5.8" rx="1.5" ry="1.5"/><rect class="cls-3" x="161.57" y="72.4" width="25.14" height="5.99" rx="2.99" ry="2.99"/><path class="cls-3" d="M148.91,118H140.3a3,3,0,0,1-3-3V81.38a3,3,0,0,0-3-3h-22a3,3,0,0,1-3-3h0a3,3,0,0,1,3-3h28a3,3,0,0,1,3,3v33.66a3,3,0,0,0,3,3h2.62a3,3,0,0,1,3,3h0A3,3,0,0,1,148.91,118Z"/><circle class="cls-3" cx="175.11" cy="86.03" r="3.87"/><circle class="cls-3" cx="116.13" cy="86.99" r="3.87"/><path class="cls-2" d="M95.82,72.49s-3.86-23.2,0-38.67C99.35,19.7,110.91,8.74,133.14,6.31c2.34-.26,5.9.87,6.45,3.15S158,3.24,172.17,5.25a2.87,2.87,0,0,1,2.34,3.92c-1.16,2.44,1.43,4.06,1.43,4.06,17.41-3.87,17.68,6.4,27.35,12.2-8.58,10.87-5,27.72-5,27.72V73.67L184.7,51.57a13,13,0,0,0-11-6.15H117.36a13,13,0,0,0-11.58,7.15Z"/><path class="cls-4" d="M67.22,262h-6V239.53a3,3,0,0,1,3-3h0a3,3,0,0,1,3,3Z"/><path class="cls-4" d="M226.92,262h6V239.53a3,3,0,0,0-3-3h0a3,3,0,0,0-3,3Z"/><path class="cls-5" d="M192.42,176.38a215.26,215.26,0,0,1-91.45,0"/><rect class="cls-2" x="87.3" y="77.88" width="7.09" height="21.43" rx="1.83" ry="1.83"/><rect class="cls-2" x="200.03" y="77.88" width="7.09" height="21.43" rx="1.83" ry="1.83" transform="translate(407.14 177.2) rotate(-180)"/><line class="cls-2" x1="138.32" y1="262" x2="138.32" y2="197.67"/><line class="cls-2" x1="157.75" y1="262" x2="157.75" y2="197.67"/><polyline class="cls-2" points="156.51 182.2 162.56 194.53 147.76 201.47 132.97 194.53 139.02 182.2"/></g></g></svg>