<svg xmlns="http://www.w3.org/2000/svg" viewBox="0 0 271.54 271.35"><defs><style>.cls-1{fill:#9ce1fd;}.cls-2{fill:none;stroke-width:9.88px;}.cls-2,.cls-4{stroke:#534d72;stroke-miterlimit:10;}.cls-3,.cls-4{fill:#534d72;}.cls-4{stroke-width:6.8px;}</style></defs><title>me-now</title><g id="Layer_2" data-name="Layer 2"><g id="Layer_1-2" data-name="Layer 1"><rect class="cls-1" x="101.55" y="213.15" width="165.67" height="58.2"/><path class="cls-2" d="M136.66,250.11H4.94V230.53c0-16.24,19.27-32.48,51-36.55,12.69-1.63,24.72-7.1,33.51-16.4,7.56-8,13.35-17.36,13.35-32.49"/><path class="cls-2" d="M134.88,250.11H266.6V230.53c0-16.24-19.27-32.48-51-36.55-12.69-1.63-24.72-7.1-33.51-16.4-7.56-8-13.35-17.36-13.35-32.49"/><path class="cls-2" d="M181.69,48.24a28.11,28.11,0,0,1,1.25,7.85v51.62c0,30.26-26.7,55.18-46.28,55.18h-1.78c-19.58,0-46.28-24.92-46.28-55.18v-32"/><rect class="cls-3" x="115.3" y="127.29" width="40.94" height="5.34" rx="2.67" ry="2.67"/><rect class="cls-3" x="125.09" y="137.08" width="23.14" height="5.34" rx="2.67" ry="2.67"/><rect class="cls-3" x="149.12" y="75.59" width="23.14" height="5.51" rx="2.76" ry="2.76"/><path class="cls-3" d="M137.46,117.59h-7.92a2.77,2.77,0,0,1-2.76-2.76v-31A2.75,2.75,0,0,0,124,81.1H103.81a2.76,2.76,0,0,1-2.75-2.76h0a2.75,2.75,0,0,1,2.75-2.75h25.73a2.76,2.76,0,0,1,2.76,2.75v31a2.76,2.76,0,0,0,2.75,2.76h2.41a2.75,2.75,0,0,1,2.76,2.75h0A2.76,2.76,0,0,1,137.46,117.59Z"/><circle class="cls-3" cx="161.58" cy="88.13" r="3.56"/><circle class="cls-3" cx="107.29" cy="89.02" r="3.56"/><path class="cls-2" d="M88.6,75.67s-3.56-21.36,0-35.6c3.48-13.92,17.8-33.82,40.94-33.82C126,9.81,124.2,16.93,124.2,16.93c8.9-3.56,30.26-16,44.5-10.68A83.22,83.22,0,0,0,158,15.15c16-3.56,21.36,3.56,30.26,8.9-10.68,10.68-5.34,33.82-5.34,33.82V76.75L170.41,56.41a11.91,11.91,0,0,0-10.14-5.66H108.42a11.92,11.92,0,0,0-10.65,6.58Z"/><path class="cls-2" d="M187,183.55c-7.65,6.49-37.93,8.27-52.16,8.27S90.37,190,82.72,183.55"/><path class="cls-4" d="M62.27,250.11H56.76V229.43a2.75,2.75,0,0,1,2.75-2.75h0a2.76,2.76,0,0,1,2.76,2.75Z"/><path class="cls-4" d="M209.27,250.11h5.51V229.43a2.75,2.75,0,0,0-2.75-2.75h0a2.76,2.76,0,0,0-2.76,2.75Z"/><rect class="cls-2" x="80.62" y="77.83" width="6.53" height="19.73" rx="1.83" ry="1.83"/><rect class="cls-2" x="184.39" y="77.83" width="6.53" height="19.73" rx="1.83" ry="1.83" transform="translate(375.3 175.38) rotate(180)"/></g></g></svg>