<svg xmlns="http://www.w3.org/2000/svg" viewBox="0 0 256.95 267.09"><defs><style>.cls-1{fill:#9f9ef2;}.cls-2,.cls-4{fill:#534d72;}.cls-3{fill:none;stroke-width:9.88px;}.cls-3,.cls-4{stroke:#534d72;stroke-miterlimit:10;}.cls-4{stroke-width:6.8px;}</style></defs><title>teen</title><g id="Layer_2" data-name="Layer 2"><g id="Layer_1-2" data-name="Layer 1"><circle class="cls-1" cx="67.64" cy="176.4" r="53.68"/><rect class="cls-2" x="106.15" y="135.37" width="42.25" height="5.89" rx="1.5" ry="1.5"/><rect class="cls-2" x="115.49" y="146.17" width="25.53" height="5.89" rx="1.5" ry="1.5"/><path class="cls-2" d="M133.16,89.23h0a3,3,0,0,1,1.36-4.08l13-6.5a3.05,3.05,0,0,1,1.36-.32h18.56a3,3,0,0,1,3,3h0a3,3,0,0,1-3,3H150.31a3,3,0,0,0-1.36.32l-11.71,5.86A3,3,0,0,1,133.16,89.23Z"/><path class="cls-2" d="M129.14,124.67H120.4a3,3,0,0,1-3-3V91.88a3.05,3.05,0,0,0-1.6-2.68l-8.22-4.43a3.1,3.1,0,0,0-1.44-.36h-17a3,3,0,0,1-3-3h0a3,3,0,0,1,3-3h18.56a3.06,3.06,0,0,1,1.45.37l12.76,6.87a3.05,3.05,0,0,1,1.6,2.68v27.3a3,3,0,0,0,3,3h2.66a3,3,0,0,1,3,3h0A3,3,0,0,1,129.14,124.67Z"/><path class="cls-3" d="M129.31,262.15H4.94V243.66c0-15.34,18.19-30.67,48.19-34.52,12-1.53,23.35-6.7,31.64-15.48,7.15-7.57,12.61-16.39,12.61-30.68"/><path class="cls-3" d="M127.63,262.15H252V243.66c0-15.34-18.2-30.67-48.2-34.52-12-1.53-23.34-6.7-31.64-15.48-7.14-7.57-12.6-16.39-12.6-30.68"/><path class="cls-3" d="M180.51,81.38v34.14c0,33.38-29.46,60.88-51.06,60.88h-2c-21.6,0-51-27.5-51-60.88V80.18"/><circle class="cls-2" cx="156.95" cy="93.92" r="3.93"/><circle class="cls-2" cx="97.05" cy="94.9" r="3.93"/><path class="cls-3" d="M76.44,80.18a86.63,86.63,0,0,1-1.6-30c1-7.36,2.21-13.6,5.22-19.33s7.88-11.63,16.26-19.71c1.51,8.35,12.54,18.78,12.54,18.78,3.61-9.08,12.22-12,20.71-21.8,5.48,8.11,15.2,23.52,15.2,23.52,9.22-9.57,22.06-17.31,32.12-16.69-10.37,16.86,3.62,45.6,3.62,45.6V81.37L166.68,58.93a13.13,13.13,0,0,0-11.18-6.24H98.3A13.14,13.14,0,0,0,86.55,60Z"/><path class="cls-4" d="M59.07,262.15h-5.2V242.62a2.59,2.59,0,0,1,2.6-2.6h0a2.59,2.59,0,0,1,2.6,2.6Z"/><path class="cls-4" d="M197.87,262.15h5.21V242.62a2.6,2.6,0,0,0-2.6-2.6h0a2.6,2.6,0,0,0-2.61,2.6Z"/><rect class="cls-3" x="67.64" y="82.56" width="7.2" height="21.76" rx="1.83" ry="1.83"/><rect class="cls-3" x="182.11" y="82.56" width="7.2" height="21.76" rx="1.83" ry="1.83" transform="translate(371.41 186.88) rotate(-180)"/><polyline class="cls-3" points="170.73 192.08 128.47 207.1 86.22 192.08"/></g></g></svg>