<svg xmlns="http://www.w3.org/2000/svg" viewBox="0 0 527 75.61"><defs><style>.cls-1{fill:#9f9ef2;}.cls-2{fill:#6dfebf;}.cls-3{fill:none;stroke:#534d72;stroke-miterlimit:10;stroke-width:4px;}</style></defs><title>TITLE</title><g id="Layer_2" data-name="Layer 2"><g id="Layer_8" data-name="Layer 8"><rect class="cls-1" x="294" y="50" width="233" height="18" rx="9" ry="9"/><rect class="cls-2" width="156" height="46"/><path class="cls-3" d="M31.61,22.35H43.27V63.24H68.55v9.51H31.61Z"/><path class="cls-3" d="M81.83,67.64q-6-6-6-17.07V22.35H87.48V50.14q0,13.55,11.23,13.54c3.65,0,6.44-1.1,8.36-3.28S110,54.8,110,50.14V22.35h11.52V50.57q0,11.09-6,17.07t-16.81,6Q87.84,73.61,81.83,67.64Z"/><path class="cls-3" d="M145,70.26A25,25,0,0,1,135.18,61a25.65,25.65,0,0,1-3.56-13.43,25.65,25.65,0,0,1,3.56-13.43A25,25,0,0,1,145,24.83a31.21,31.21,0,0,1,25.85-1,23.73,23.73,0,0,1,8.89,6.62l-7.48,6.91a16.13,16.13,0,0,0-12.68-5.9,16.8,16.8,0,0,0-8.35,2,14.59,14.59,0,0,0-5.72,5.73,16.78,16.78,0,0,0-2,8.35,16.8,16.8,0,0,0,2,8.35,14.5,14.5,0,0,0,5.72,5.72,16.81,16.81,0,0,0,8.35,2.06,16,16,0,0,0,12.68-6l7.48,6.91a23.36,23.36,0,0,1-8.92,6.7,29.79,29.79,0,0,1-11.88,2.3A28.9,28.9,0,0,1,145,70.26Z"/><path class="cls-3" d="M216.54,72a27,27,0,0,1-9-4.21l4-8.78a26.89,26.89,0,0,0,7.7,3.81,29,29,0,0,0,8.93,1.44q5,0,7.34-1.47a4.47,4.47,0,0,0,2.38-3.93,3.76,3.76,0,0,0-1.41-3,10.56,10.56,0,0,0-3.6-1.9q-2.19-.72-5.94-1.59a82.32,82.32,0,0,1-9.43-2.73,15.26,15.26,0,0,1-6.3-4.4,11.85,11.85,0,0,1-2.63-8.06,14.08,14.08,0,0,1,2.38-8,16,16,0,0,1,7.16-5.65,29.32,29.32,0,0,1,11.7-2.09,38.74,38.74,0,0,1,9.44,1.16A27.59,27.59,0,0,1,247.32,26l-3.6,8.85a28.21,28.21,0,0,0-14-4q-4.89,0-7.23,1.59a4.83,4.83,0,0,0-2.34,4.17,4.09,4.09,0,0,0,2.7,3.86,42.58,42.58,0,0,0,8.24,2.48,82.09,82.09,0,0,1,9.43,2.74,15.55,15.55,0,0,1,6.3,4.32,11.57,11.57,0,0,1,2.63,8,13.72,13.72,0,0,1-2.41,7.88,16.16,16.16,0,0,1-7.24,5.65,29.33,29.33,0,0,1-11.73,2.09A41.23,41.23,0,0,1,216.54,72Z"/><path class="cls-3" d="M292.46,62h-23.4l-4.46,10.8h-12l22.46-50.4h11.52l22.54,50.4H296.93Zm-3.67-8.86-8-19.29-8,19.29Z"/><path class="cls-3" d="M320.72,67.64q-6-6-6-17.07V22.35h11.67V50.14q0,13.55,11.23,13.54c3.64,0,6.43-1.1,8.35-3.28s2.88-5.6,2.88-10.26V22.35h11.52V50.57q0,11.09-6,17.07t-16.81,6Q326.72,73.61,320.72,67.64Z"/><path class="cls-3" d="M423.57,22.35l-21.81,50.4H390.24l-21.75-50.4h12.6l15.34,36,15.55-36Z"/><path class="cls-3" d="M470,63.39v9.36H431V22.35h38.09v9.36h-26.5V42.65H466v9.07h-23.4V63.39Z"/></g></g></svg>